%TF.GenerationSoftware,KiCad,Pcbnew,9.0.7*%
%TF.CreationDate,2026-03-01T16:17:34+00:00*%
%TF.ProjectId,UART_adapter,55415254-5f61-4646-9170-7465722e6b69,rev?*%
%TF.SameCoordinates,Original*%
%TF.FileFunction,Legend,Top*%
%TF.FilePolarity,Positive*%
%FSLAX46Y46*%
G04 Gerber Fmt 4.6, Leading zero omitted, Abs format (unit mm)*
G04 Created by KiCad (PCBNEW 9.0.7) date 2026-03-01 16:17:34*
%MOMM*%
%LPD*%
G01*
G04 APERTURE LIST*
%ADD10C,0.100000*%
G04 APERTURE END LIST*
D10*
X144611080Y-92578571D02*
X143801557Y-92578571D01*
X143801557Y-92578571D02*
X143706319Y-92626190D01*
X143706319Y-92626190D02*
X143658700Y-92673809D01*
X143658700Y-92673809D02*
X143611080Y-92769047D01*
X143611080Y-92769047D02*
X143611080Y-92959523D01*
X143611080Y-92959523D02*
X143658700Y-93054761D01*
X143658700Y-93054761D02*
X143706319Y-93102380D01*
X143706319Y-93102380D02*
X143801557Y-93149999D01*
X143801557Y-93149999D02*
X144611080Y-93149999D01*
X143611080Y-93626190D02*
X144277747Y-93626190D01*
X144087271Y-93626190D02*
X144182509Y-93673809D01*
X144182509Y-93673809D02*
X144230128Y-93721428D01*
X144230128Y-93721428D02*
X144277747Y-93816666D01*
X144277747Y-93816666D02*
X144277747Y-93911904D01*
X143611080Y-94769047D02*
X143611080Y-94197619D01*
X143611080Y-94483333D02*
X144611080Y-94483333D01*
X144611080Y-94483333D02*
X144468223Y-94388095D01*
X144468223Y-94388095D02*
X144372985Y-94292857D01*
X144372985Y-94292857D02*
X144325366Y-94197619D01*
X133596080Y-107908646D02*
X133596080Y-108527693D01*
X133596080Y-108527693D02*
X133215128Y-108194360D01*
X133215128Y-108194360D02*
X133215128Y-108337217D01*
X133215128Y-108337217D02*
X133167509Y-108432455D01*
X133167509Y-108432455D02*
X133119890Y-108480074D01*
X133119890Y-108480074D02*
X133024652Y-108527693D01*
X133024652Y-108527693D02*
X132786557Y-108527693D01*
X132786557Y-108527693D02*
X132691319Y-108480074D01*
X132691319Y-108480074D02*
X132643700Y-108432455D01*
X132643700Y-108432455D02*
X132596080Y-108337217D01*
X132596080Y-108337217D02*
X132596080Y-108051503D01*
X132596080Y-108051503D02*
X132643700Y-107956265D01*
X132643700Y-107956265D02*
X132691319Y-107908646D01*
X133596080Y-108813408D02*
X132596080Y-109146741D01*
X132596080Y-109146741D02*
X133596080Y-109480074D01*
X133596080Y-109718170D02*
X133596080Y-110337217D01*
X133596080Y-110337217D02*
X133215128Y-110003884D01*
X133215128Y-110003884D02*
X133215128Y-110146741D01*
X133215128Y-110146741D02*
X133167509Y-110241979D01*
X133167509Y-110241979D02*
X133119890Y-110289598D01*
X133119890Y-110289598D02*
X133024652Y-110337217D01*
X133024652Y-110337217D02*
X132786557Y-110337217D01*
X132786557Y-110337217D02*
X132691319Y-110289598D01*
X132691319Y-110289598D02*
X132643700Y-110241979D01*
X132643700Y-110241979D02*
X132596080Y-110146741D01*
X132596080Y-110146741D02*
X132596080Y-109861027D01*
X132596080Y-109861027D02*
X132643700Y-109765789D01*
X132643700Y-109765789D02*
X132691319Y-109718170D01*
X131223461Y-108402693D02*
X131271080Y-108307455D01*
X131271080Y-108307455D02*
X131271080Y-108164598D01*
X131271080Y-108164598D02*
X131223461Y-108021741D01*
X131223461Y-108021741D02*
X131128223Y-107926503D01*
X131128223Y-107926503D02*
X131032985Y-107878884D01*
X131032985Y-107878884D02*
X130842509Y-107831265D01*
X130842509Y-107831265D02*
X130699652Y-107831265D01*
X130699652Y-107831265D02*
X130509176Y-107878884D01*
X130509176Y-107878884D02*
X130413938Y-107926503D01*
X130413938Y-107926503D02*
X130318700Y-108021741D01*
X130318700Y-108021741D02*
X130271080Y-108164598D01*
X130271080Y-108164598D02*
X130271080Y-108259836D01*
X130271080Y-108259836D02*
X130318700Y-108402693D01*
X130318700Y-108402693D02*
X130366319Y-108450312D01*
X130366319Y-108450312D02*
X130699652Y-108450312D01*
X130699652Y-108450312D02*
X130699652Y-108259836D01*
X130271080Y-108878884D02*
X131271080Y-108878884D01*
X131271080Y-108878884D02*
X130271080Y-109450312D01*
X130271080Y-109450312D02*
X131271080Y-109450312D01*
X130271080Y-109926503D02*
X131271080Y-109926503D01*
X131271080Y-109926503D02*
X131271080Y-110164598D01*
X131271080Y-110164598D02*
X131223461Y-110307455D01*
X131223461Y-110307455D02*
X131128223Y-110402693D01*
X131128223Y-110402693D02*
X131032985Y-110450312D01*
X131032985Y-110450312D02*
X130842509Y-110497931D01*
X130842509Y-110497931D02*
X130699652Y-110497931D01*
X130699652Y-110497931D02*
X130509176Y-110450312D01*
X130509176Y-110450312D02*
X130413938Y-110402693D01*
X130413938Y-110402693D02*
X130318700Y-110307455D01*
X130318700Y-110307455D02*
X130271080Y-110164598D01*
X130271080Y-110164598D02*
X130271080Y-109926503D01*
X128946080Y-107861027D02*
X128946080Y-108432455D01*
X127946080Y-108146741D02*
X128946080Y-108146741D01*
X128946080Y-108670551D02*
X127946080Y-109337217D01*
X128946080Y-109337217D02*
X127946080Y-108670551D01*
X127946080Y-109718170D02*
X128946080Y-109718170D01*
X128946080Y-109718170D02*
X128946080Y-109956265D01*
X128946080Y-109956265D02*
X128898461Y-110099122D01*
X128898461Y-110099122D02*
X128803223Y-110194360D01*
X128803223Y-110194360D02*
X128707985Y-110241979D01*
X128707985Y-110241979D02*
X128517509Y-110289598D01*
X128517509Y-110289598D02*
X128374652Y-110289598D01*
X128374652Y-110289598D02*
X128184176Y-110241979D01*
X128184176Y-110241979D02*
X128088938Y-110194360D01*
X128088938Y-110194360D02*
X127993700Y-110099122D01*
X127993700Y-110099122D02*
X127946080Y-109956265D01*
X127946080Y-109956265D02*
X127946080Y-109718170D01*
X136722384Y-113922419D02*
X136722384Y-112922419D01*
X136722384Y-112922419D02*
X137103336Y-112922419D01*
X137103336Y-112922419D02*
X137198574Y-112970038D01*
X137198574Y-112970038D02*
X137246193Y-113017657D01*
X137246193Y-113017657D02*
X137293812Y-113112895D01*
X137293812Y-113112895D02*
X137293812Y-113255752D01*
X137293812Y-113255752D02*
X137246193Y-113350990D01*
X137246193Y-113350990D02*
X137198574Y-113398609D01*
X137198574Y-113398609D02*
X137103336Y-113446228D01*
X137103336Y-113446228D02*
X136722384Y-113446228D01*
X137912860Y-112922419D02*
X138103336Y-112922419D01*
X138103336Y-112922419D02*
X138198574Y-112970038D01*
X138198574Y-112970038D02*
X138293812Y-113065276D01*
X138293812Y-113065276D02*
X138341431Y-113255752D01*
X138341431Y-113255752D02*
X138341431Y-113589085D01*
X138341431Y-113589085D02*
X138293812Y-113779561D01*
X138293812Y-113779561D02*
X138198574Y-113874800D01*
X138198574Y-113874800D02*
X138103336Y-113922419D01*
X138103336Y-113922419D02*
X137912860Y-113922419D01*
X137912860Y-113922419D02*
X137817622Y-113874800D01*
X137817622Y-113874800D02*
X137722384Y-113779561D01*
X137722384Y-113779561D02*
X137674765Y-113589085D01*
X137674765Y-113589085D02*
X137674765Y-113255752D01*
X137674765Y-113255752D02*
X137722384Y-113065276D01*
X137722384Y-113065276D02*
X137817622Y-112970038D01*
X137817622Y-112970038D02*
X137912860Y-112922419D01*
X138674765Y-112922419D02*
X138912860Y-113922419D01*
X138912860Y-113922419D02*
X139103336Y-113208133D01*
X139103336Y-113208133D02*
X139293812Y-113922419D01*
X139293812Y-113922419D02*
X139531908Y-112922419D01*
X139912860Y-113398609D02*
X140246193Y-113398609D01*
X140389050Y-113922419D02*
X139912860Y-113922419D01*
X139912860Y-113922419D02*
X139912860Y-112922419D01*
X139912860Y-112922419D02*
X140389050Y-112922419D01*
X141389050Y-113922419D02*
X141055717Y-113446228D01*
X140817622Y-113922419D02*
X140817622Y-112922419D01*
X140817622Y-112922419D02*
X141198574Y-112922419D01*
X141198574Y-112922419D02*
X141293812Y-112970038D01*
X141293812Y-112970038D02*
X141341431Y-113017657D01*
X141341431Y-113017657D02*
X141389050Y-113112895D01*
X141389050Y-113112895D02*
X141389050Y-113255752D01*
X141389050Y-113255752D02*
X141341431Y-113350990D01*
X141341431Y-113350990D02*
X141293812Y-113398609D01*
X141293812Y-113398609D02*
X141198574Y-113446228D01*
X141198574Y-113446228D02*
X140817622Y-113446228D01*
X141077033Y-111203884D02*
X141077033Y-111965789D01*
X140696080Y-111584836D02*
X141457985Y-111584836D01*
X136522384Y-111741466D02*
X137284289Y-111741466D01*
X134161717Y-92224609D02*
X134304574Y-92272228D01*
X134304574Y-92272228D02*
X134352193Y-92319847D01*
X134352193Y-92319847D02*
X134399812Y-92415085D01*
X134399812Y-92415085D02*
X134399812Y-92557942D01*
X134399812Y-92557942D02*
X134352193Y-92653180D01*
X134352193Y-92653180D02*
X134304574Y-92700800D01*
X134304574Y-92700800D02*
X134209336Y-92748419D01*
X134209336Y-92748419D02*
X133828384Y-92748419D01*
X133828384Y-92748419D02*
X133828384Y-91748419D01*
X133828384Y-91748419D02*
X134161717Y-91748419D01*
X134161717Y-91748419D02*
X134256955Y-91796038D01*
X134256955Y-91796038D02*
X134304574Y-91843657D01*
X134304574Y-91843657D02*
X134352193Y-91938895D01*
X134352193Y-91938895D02*
X134352193Y-92034133D01*
X134352193Y-92034133D02*
X134304574Y-92129371D01*
X134304574Y-92129371D02*
X134256955Y-92176990D01*
X134256955Y-92176990D02*
X134161717Y-92224609D01*
X134161717Y-92224609D02*
X133828384Y-92224609D01*
X134685527Y-91748419D02*
X135256955Y-91748419D01*
X134971241Y-92748419D02*
X134971241Y-91748419D01*
X135780765Y-91748419D02*
X135876003Y-91748419D01*
X135876003Y-91748419D02*
X135971241Y-91796038D01*
X135971241Y-91796038D02*
X136018860Y-91843657D01*
X136018860Y-91843657D02*
X136066479Y-91938895D01*
X136066479Y-91938895D02*
X136114098Y-92129371D01*
X136114098Y-92129371D02*
X136114098Y-92367466D01*
X136114098Y-92367466D02*
X136066479Y-92557942D01*
X136066479Y-92557942D02*
X136018860Y-92653180D01*
X136018860Y-92653180D02*
X135971241Y-92700800D01*
X135971241Y-92700800D02*
X135876003Y-92748419D01*
X135876003Y-92748419D02*
X135780765Y-92748419D01*
X135780765Y-92748419D02*
X135685527Y-92700800D01*
X135685527Y-92700800D02*
X135637908Y-92653180D01*
X135637908Y-92653180D02*
X135590289Y-92557942D01*
X135590289Y-92557942D02*
X135542670Y-92367466D01*
X135542670Y-92367466D02*
X135542670Y-92129371D01*
X135542670Y-92129371D02*
X135590289Y-91938895D01*
X135590289Y-91938895D02*
X135637908Y-91843657D01*
X135637908Y-91843657D02*
X135685527Y-91796038D01*
X135685527Y-91796038D02*
X135780765Y-91748419D01*
X136971241Y-91748419D02*
X136780765Y-91748419D01*
X136780765Y-91748419D02*
X136685527Y-91796038D01*
X136685527Y-91796038D02*
X136637908Y-91843657D01*
X136637908Y-91843657D02*
X136542670Y-91986514D01*
X136542670Y-91986514D02*
X136495051Y-92176990D01*
X136495051Y-92176990D02*
X136495051Y-92557942D01*
X136495051Y-92557942D02*
X136542670Y-92653180D01*
X136542670Y-92653180D02*
X136590289Y-92700800D01*
X136590289Y-92700800D02*
X136685527Y-92748419D01*
X136685527Y-92748419D02*
X136876003Y-92748419D01*
X136876003Y-92748419D02*
X136971241Y-92700800D01*
X136971241Y-92700800D02*
X137018860Y-92653180D01*
X137018860Y-92653180D02*
X137066479Y-92557942D01*
X137066479Y-92557942D02*
X137066479Y-92319847D01*
X137066479Y-92319847D02*
X137018860Y-92224609D01*
X137018860Y-92224609D02*
X136971241Y-92176990D01*
X136971241Y-92176990D02*
X136876003Y-92129371D01*
X136876003Y-92129371D02*
X136685527Y-92129371D01*
X136685527Y-92129371D02*
X136590289Y-92176990D01*
X136590289Y-92176990D02*
X136542670Y-92224609D01*
X136542670Y-92224609D02*
X136495051Y-92319847D01*
X128557812Y-103321180D02*
X128510193Y-103368800D01*
X128510193Y-103368800D02*
X128367336Y-103416419D01*
X128367336Y-103416419D02*
X128272098Y-103416419D01*
X128272098Y-103416419D02*
X128129241Y-103368800D01*
X128129241Y-103368800D02*
X128034003Y-103273561D01*
X128034003Y-103273561D02*
X127986384Y-103178323D01*
X127986384Y-103178323D02*
X127938765Y-102987847D01*
X127938765Y-102987847D02*
X127938765Y-102844990D01*
X127938765Y-102844990D02*
X127986384Y-102654514D01*
X127986384Y-102654514D02*
X128034003Y-102559276D01*
X128034003Y-102559276D02*
X128129241Y-102464038D01*
X128129241Y-102464038D02*
X128272098Y-102416419D01*
X128272098Y-102416419D02*
X128367336Y-102416419D01*
X128367336Y-102416419D02*
X128510193Y-102464038D01*
X128510193Y-102464038D02*
X128557812Y-102511657D01*
X129319717Y-102892609D02*
X129462574Y-102940228D01*
X129462574Y-102940228D02*
X129510193Y-102987847D01*
X129510193Y-102987847D02*
X129557812Y-103083085D01*
X129557812Y-103083085D02*
X129557812Y-103225942D01*
X129557812Y-103225942D02*
X129510193Y-103321180D01*
X129510193Y-103321180D02*
X129462574Y-103368800D01*
X129462574Y-103368800D02*
X129367336Y-103416419D01*
X129367336Y-103416419D02*
X128986384Y-103416419D01*
X128986384Y-103416419D02*
X128986384Y-102416419D01*
X128986384Y-102416419D02*
X129319717Y-102416419D01*
X129319717Y-102416419D02*
X129414955Y-102464038D01*
X129414955Y-102464038D02*
X129462574Y-102511657D01*
X129462574Y-102511657D02*
X129510193Y-102606895D01*
X129510193Y-102606895D02*
X129510193Y-102702133D01*
X129510193Y-102702133D02*
X129462574Y-102797371D01*
X129462574Y-102797371D02*
X129414955Y-102844990D01*
X129414955Y-102844990D02*
X129319717Y-102892609D01*
X129319717Y-102892609D02*
X128986384Y-102892609D01*
X130557812Y-103416419D02*
X130224479Y-102940228D01*
X129986384Y-103416419D02*
X129986384Y-102416419D01*
X129986384Y-102416419D02*
X130367336Y-102416419D01*
X130367336Y-102416419D02*
X130462574Y-102464038D01*
X130462574Y-102464038D02*
X130510193Y-102511657D01*
X130510193Y-102511657D02*
X130557812Y-102606895D01*
X130557812Y-102606895D02*
X130557812Y-102749752D01*
X130557812Y-102749752D02*
X130510193Y-102844990D01*
X130510193Y-102844990D02*
X130462574Y-102892609D01*
X130462574Y-102892609D02*
X130367336Y-102940228D01*
X130367336Y-102940228D02*
X129986384Y-102940228D01*
X130748289Y-103511657D02*
X131510193Y-103511657D01*
X132319717Y-103416419D02*
X131986384Y-102940228D01*
X131748289Y-103416419D02*
X131748289Y-102416419D01*
X131748289Y-102416419D02*
X132129241Y-102416419D01*
X132129241Y-102416419D02*
X132224479Y-102464038D01*
X132224479Y-102464038D02*
X132272098Y-102511657D01*
X132272098Y-102511657D02*
X132319717Y-102606895D01*
X132319717Y-102606895D02*
X132319717Y-102749752D01*
X132319717Y-102749752D02*
X132272098Y-102844990D01*
X132272098Y-102844990D02*
X132224479Y-102892609D01*
X132224479Y-102892609D02*
X132129241Y-102940228D01*
X132129241Y-102940228D02*
X131748289Y-102940228D01*
X132653051Y-102416419D02*
X133319717Y-103416419D01*
X133319717Y-102416419D02*
X132653051Y-103416419D01*
X126722384Y-112847419D02*
X126722384Y-111847419D01*
X126722384Y-111847419D02*
X127103336Y-111847419D01*
X127103336Y-111847419D02*
X127198574Y-111895038D01*
X127198574Y-111895038D02*
X127246193Y-111942657D01*
X127246193Y-111942657D02*
X127293812Y-112037895D01*
X127293812Y-112037895D02*
X127293812Y-112180752D01*
X127293812Y-112180752D02*
X127246193Y-112275990D01*
X127246193Y-112275990D02*
X127198574Y-112323609D01*
X127198574Y-112323609D02*
X127103336Y-112371228D01*
X127103336Y-112371228D02*
X126722384Y-112371228D01*
X128246193Y-111895038D02*
X128150955Y-111847419D01*
X128150955Y-111847419D02*
X128008098Y-111847419D01*
X128008098Y-111847419D02*
X127865241Y-111895038D01*
X127865241Y-111895038D02*
X127770003Y-111990276D01*
X127770003Y-111990276D02*
X127722384Y-112085514D01*
X127722384Y-112085514D02*
X127674765Y-112275990D01*
X127674765Y-112275990D02*
X127674765Y-112418847D01*
X127674765Y-112418847D02*
X127722384Y-112609323D01*
X127722384Y-112609323D02*
X127770003Y-112704561D01*
X127770003Y-112704561D02*
X127865241Y-112799800D01*
X127865241Y-112799800D02*
X128008098Y-112847419D01*
X128008098Y-112847419D02*
X128103336Y-112847419D01*
X128103336Y-112847419D02*
X128246193Y-112799800D01*
X128246193Y-112799800D02*
X128293812Y-112752180D01*
X128293812Y-112752180D02*
X128293812Y-112418847D01*
X128293812Y-112418847D02*
X128103336Y-112418847D01*
X128722384Y-112847419D02*
X128722384Y-111847419D01*
X128722384Y-111847419D02*
X129055717Y-112561704D01*
X129055717Y-112561704D02*
X129389050Y-111847419D01*
X129389050Y-111847419D02*
X129389050Y-112847419D01*
X131198574Y-112752180D02*
X131150955Y-112799800D01*
X131150955Y-112799800D02*
X131008098Y-112847419D01*
X131008098Y-112847419D02*
X130912860Y-112847419D01*
X130912860Y-112847419D02*
X130770003Y-112799800D01*
X130770003Y-112799800D02*
X130674765Y-112704561D01*
X130674765Y-112704561D02*
X130627146Y-112609323D01*
X130627146Y-112609323D02*
X130579527Y-112418847D01*
X130579527Y-112418847D02*
X130579527Y-112275990D01*
X130579527Y-112275990D02*
X130627146Y-112085514D01*
X130627146Y-112085514D02*
X130674765Y-111990276D01*
X130674765Y-111990276D02*
X130770003Y-111895038D01*
X130770003Y-111895038D02*
X130912860Y-111847419D01*
X130912860Y-111847419D02*
X131008098Y-111847419D01*
X131008098Y-111847419D02*
X131150955Y-111895038D01*
X131150955Y-111895038D02*
X131198574Y-111942657D01*
X131817622Y-111847419D02*
X132008098Y-111847419D01*
X132008098Y-111847419D02*
X132103336Y-111895038D01*
X132103336Y-111895038D02*
X132198574Y-111990276D01*
X132198574Y-111990276D02*
X132246193Y-112180752D01*
X132246193Y-112180752D02*
X132246193Y-112514085D01*
X132246193Y-112514085D02*
X132198574Y-112704561D01*
X132198574Y-112704561D02*
X132103336Y-112799800D01*
X132103336Y-112799800D02*
X132008098Y-112847419D01*
X132008098Y-112847419D02*
X131817622Y-112847419D01*
X131817622Y-112847419D02*
X131722384Y-112799800D01*
X131722384Y-112799800D02*
X131627146Y-112704561D01*
X131627146Y-112704561D02*
X131579527Y-112514085D01*
X131579527Y-112514085D02*
X131579527Y-112180752D01*
X131579527Y-112180752D02*
X131627146Y-111990276D01*
X131627146Y-111990276D02*
X131722384Y-111895038D01*
X131722384Y-111895038D02*
X131817622Y-111847419D01*
X132674765Y-112847419D02*
X132674765Y-111847419D01*
X132674765Y-111847419D02*
X133246193Y-112847419D01*
X133246193Y-112847419D02*
X133246193Y-111847419D01*
X133722384Y-112847419D02*
X133722384Y-111847419D01*
X133722384Y-111847419D02*
X134293812Y-112847419D01*
X134293812Y-112847419D02*
X134293812Y-111847419D01*
X131034384Y-97828419D02*
X131034384Y-96828419D01*
X131034384Y-96828419D02*
X131415336Y-96828419D01*
X131415336Y-96828419D02*
X131510574Y-96876038D01*
X131510574Y-96876038D02*
X131558193Y-96923657D01*
X131558193Y-96923657D02*
X131605812Y-97018895D01*
X131605812Y-97018895D02*
X131605812Y-97161752D01*
X131605812Y-97161752D02*
X131558193Y-97256990D01*
X131558193Y-97256990D02*
X131510574Y-97304609D01*
X131510574Y-97304609D02*
X131415336Y-97352228D01*
X131415336Y-97352228D02*
X131034384Y-97352228D01*
X132558193Y-96876038D02*
X132462955Y-96828419D01*
X132462955Y-96828419D02*
X132320098Y-96828419D01*
X132320098Y-96828419D02*
X132177241Y-96876038D01*
X132177241Y-96876038D02*
X132082003Y-96971276D01*
X132082003Y-96971276D02*
X132034384Y-97066514D01*
X132034384Y-97066514D02*
X131986765Y-97256990D01*
X131986765Y-97256990D02*
X131986765Y-97399847D01*
X131986765Y-97399847D02*
X132034384Y-97590323D01*
X132034384Y-97590323D02*
X132082003Y-97685561D01*
X132082003Y-97685561D02*
X132177241Y-97780800D01*
X132177241Y-97780800D02*
X132320098Y-97828419D01*
X132320098Y-97828419D02*
X132415336Y-97828419D01*
X132415336Y-97828419D02*
X132558193Y-97780800D01*
X132558193Y-97780800D02*
X132605812Y-97733180D01*
X132605812Y-97733180D02*
X132605812Y-97399847D01*
X132605812Y-97399847D02*
X132415336Y-97399847D01*
X133034384Y-97828419D02*
X133034384Y-96828419D01*
X133034384Y-96828419D02*
X133367717Y-97542704D01*
X133367717Y-97542704D02*
X133701050Y-96828419D01*
X133701050Y-96828419D02*
X133701050Y-97828419D01*
%TO.C,Ur1*%
X133761703Y-99242797D02*
X127428500Y-99242797D01*
X127428500Y-103798000D01*
X133761703Y-103798000D01*
X133761703Y-99242797D01*
X134893500Y-105150000D02*
X125890908Y-105150000D01*
X125890908Y-113777592D01*
X134893500Y-113777592D01*
X134893500Y-105150000D01*
X135556500Y-94146000D02*
X129206500Y-94146000D01*
X129206500Y-98210000D01*
X135556500Y-98210000D01*
X135556500Y-94146000D01*
X140128500Y-88050000D02*
X129714500Y-88050000D01*
X129714500Y-93130000D01*
X140128500Y-93130000D01*
X140128500Y-88050000D01*
X142518500Y-107900000D02*
X135568500Y-107900000D01*
X135568500Y-114450000D01*
X142518500Y-114450000D01*
X142518500Y-107900000D01*
X149018500Y-88050000D02*
X95018500Y-88050000D01*
X95018500Y-114550000D01*
X149018500Y-114550000D01*
X149018500Y-88050000D01*
%TD*%
M02*
