%TF.GenerationSoftware,KiCad,Pcbnew,9.0.7*%
%TF.CreationDate,2026-02-24T11:00:04+00:00*%
%TF.ProjectId,SPI_adapter,5350495f-6164-4617-9074-65722e6b6963,rev?*%
%TF.SameCoordinates,Original*%
%TF.FileFunction,Copper,L4,Bot*%
%TF.FilePolarity,Positive*%
%FSLAX46Y46*%
G04 Gerber Fmt 4.6, Leading zero omitted, Abs format (unit mm)*
G04 Created by KiCad (PCBNEW 9.0.7) date 2026-02-24 11:00:04*
%MOMM*%
%LPD*%
G01*
G04 APERTURE LIST*
%TA.AperFunction,SMDPad,CuDef*%
%ADD10R,5.080000X2.420000*%
%TD*%
%TA.AperFunction,SMDPad,CuDef*%
%ADD11R,0.950000X0.460000*%
%TD*%
%TA.AperFunction,ComponentPad*%
%ADD12C,0.970000*%
%TD*%
%TA.AperFunction,ComponentPad*%
%ADD13R,1.700000X1.700000*%
%TD*%
%TA.AperFunction,ComponentPad*%
%ADD14C,1.700000*%
%TD*%
%TA.AperFunction,ViaPad*%
%ADD15C,0.600000*%
%TD*%
%TA.AperFunction,Conductor*%
%ADD16C,0.200000*%
%TD*%
G04 APERTURE END LIST*
D10*
%TO.P,J2,2,Ext*%
%TO.N,GND*%
X80424493Y-96831261D03*
X80424493Y-105591261D03*
D11*
X83414493Y-96831261D03*
X83414493Y-105591261D03*
D12*
X83864493Y-96831261D03*
X83864493Y-105591261D03*
%TD*%
D13*
%TO.P,J1,1,Pin_1*%
%TO.N,unconnected-(J1-Pin_1-Pad1)*%
X169960000Y-117355000D03*
D14*
%TO.P,J1,2,Pin_2*%
%TO.N,unconnected-(J1-Pin_2-Pad2)*%
X172500000Y-117355000D03*
%TO.P,J1,3,Pin_3*%
%TO.N,GND*%
X169960000Y-114815000D03*
%TO.P,J1,4,Pin_4*%
%TO.N,/RADIO_BUSY*%
X172500000Y-114815000D03*
%TO.P,J1,5,Pin_5*%
%TO.N,/RADIO_DIO1*%
X169960000Y-112275000D03*
%TO.P,J1,6,Pin_6*%
%TO.N,/RADIO_RST*%
X172500000Y-112275000D03*
%TO.P,J1,7,Pin_7*%
%TO.N,/RADIO_TX*%
X169960000Y-109735000D03*
%TO.P,J1,8,Pin_8*%
%TO.N,/RADIO_RX*%
X172500000Y-109735000D03*
%TO.P,J1,9,Pin_9*%
%TO.N,/SPI_CS*%
X169960000Y-107195000D03*
%TO.P,J1,10,Pin_10*%
%TO.N,/SPI_MISO*%
X172500000Y-107195000D03*
%TO.P,J1,11,Pin_11*%
%TO.N,/SPI_MOSI*%
X169960000Y-104655000D03*
%TO.P,J1,12,Pin_12*%
%TO.N,/SPI_SCK*%
X172500000Y-104655000D03*
%TO.P,J1,13,Pin_13*%
%TO.N,GND*%
X169960000Y-102115000D03*
%TO.P,J1,14,Pin_14*%
%TO.N,+3.3V*%
X172500000Y-102115000D03*
%TD*%
D15*
%TO.N,/SPI_CS*%
X114500000Y-105000000D03*
%TO.N,+3.3V*%
X96681350Y-106310140D03*
%TO.N,GND*%
X88793948Y-99771159D03*
X140668627Y-102000000D03*
X88694585Y-102703610D03*
X158889839Y-103383138D03*
X89633619Y-99762503D03*
X85755918Y-105601065D03*
X89534256Y-102694954D03*
X86205681Y-99779815D03*
X144500000Y-114500000D03*
X87815700Y-102706495D03*
X133686151Y-110000000D03*
X143668627Y-102000000D03*
X87915063Y-99774044D03*
X87045353Y-99788472D03*
X136686151Y-110000000D03*
X86945990Y-102720923D03*
X141500000Y-114500000D03*
X86106318Y-102712266D03*
X155451609Y-106772122D03*
X155889839Y-103383138D03*
X85894420Y-96858093D03*
X158451609Y-106772122D03*
%TO.N,/SPI_MISO*%
X113500000Y-108500000D03*
%TO.N,/RADIO_DIO1*%
X95000000Y-113500000D03*
%TO.N,/SPI_CS*%
X112500000Y-103000000D03*
%TD*%
D16*
%TO.N,/SPI_SCK*%
X172500000Y-104655000D02*
X171233090Y-105921910D01*
X112578090Y-105921910D02*
X109500000Y-109000000D01*
X171233090Y-105921910D02*
X112578090Y-105921910D01*
%TO.N,/SPI_MISO*%
X172500000Y-107195000D02*
X171195000Y-108500000D01*
X171195000Y-108500000D02*
X113500000Y-108500000D01*
%TO.N,/RADIO_DIO1*%
X168735000Y-113500000D02*
X95000000Y-113500000D01*
X169960000Y-112275000D02*
X168735000Y-113500000D01*
%TO.N,/SPI_CS*%
X112500000Y-103000000D02*
X114500000Y-105000000D01*
%TD*%
%TA.AperFunction,Conductor*%
%TO.N,GND*%
G36*
X171075270Y-115576717D02*
G01*
X171075270Y-115576716D01*
X171114622Y-115522555D01*
X171119232Y-115513507D01*
X171167205Y-115462709D01*
X171235025Y-115445912D01*
X171301161Y-115468447D01*
X171340204Y-115513504D01*
X171344949Y-115522817D01*
X171469890Y-115694786D01*
X171620213Y-115845109D01*
X171792182Y-115970050D01*
X171800946Y-115974516D01*
X171851742Y-116022491D01*
X171868536Y-116090312D01*
X171845998Y-116156447D01*
X171800946Y-116195484D01*
X171792182Y-116199949D01*
X171620215Y-116324889D01*
X171506673Y-116438431D01*
X171445350Y-116471915D01*
X171375658Y-116466931D01*
X171319725Y-116425059D01*
X171302810Y-116394082D01*
X171253797Y-116262671D01*
X171253793Y-116262664D01*
X171167547Y-116147455D01*
X171167544Y-116147452D01*
X171052335Y-116061206D01*
X171052328Y-116061202D01*
X170917482Y-116010908D01*
X170917483Y-116010908D01*
X170857883Y-116004501D01*
X170857881Y-116004500D01*
X170857873Y-116004500D01*
X170857865Y-116004500D01*
X170847309Y-116004500D01*
X170780270Y-115984815D01*
X170759628Y-115968181D01*
X170089408Y-115297962D01*
X170152993Y-115280925D01*
X170267007Y-115215099D01*
X170360099Y-115122007D01*
X170425925Y-115007993D01*
X170442962Y-114944408D01*
X171075270Y-115576717D01*
G37*
%TD.AperFunction*%
%TA.AperFunction,Conductor*%
G36*
X171301444Y-112928999D02*
G01*
X171340486Y-112974056D01*
X171344951Y-112982820D01*
X171469890Y-113154786D01*
X171620213Y-113305109D01*
X171792182Y-113430050D01*
X171800946Y-113434516D01*
X171851742Y-113482491D01*
X171868536Y-113550312D01*
X171845998Y-113616447D01*
X171800946Y-113655484D01*
X171792182Y-113659949D01*
X171620213Y-113784890D01*
X171469890Y-113935213D01*
X171344949Y-114107182D01*
X171340202Y-114116499D01*
X171292227Y-114167293D01*
X171224405Y-114184087D01*
X171158271Y-114161548D01*
X171119234Y-114116495D01*
X171114626Y-114107452D01*
X171075270Y-114053282D01*
X171075269Y-114053282D01*
X170442962Y-114685590D01*
X170425925Y-114622007D01*
X170360099Y-114507993D01*
X170267007Y-114414901D01*
X170152993Y-114349075D01*
X170089408Y-114332037D01*
X170721716Y-113699728D01*
X170667547Y-113660373D01*
X170667547Y-113660372D01*
X170658500Y-113655763D01*
X170607706Y-113607788D01*
X170590912Y-113539966D01*
X170613451Y-113473832D01*
X170658508Y-113434793D01*
X170667816Y-113430051D01*
X170777023Y-113350708D01*
X170839786Y-113305109D01*
X170839788Y-113305106D01*
X170839792Y-113305104D01*
X170990104Y-113154792D01*
X170990106Y-113154788D01*
X170990109Y-113154786D01*
X171099086Y-113004789D01*
X171115051Y-112982816D01*
X171119514Y-112974054D01*
X171167488Y-112923259D01*
X171235308Y-112906463D01*
X171301444Y-112928999D01*
G37*
%TD.AperFunction*%
%TA.AperFunction,Conductor*%
G36*
X171075270Y-102876717D02*
G01*
X171075270Y-102876716D01*
X171114622Y-102822555D01*
X171119232Y-102813507D01*
X171167205Y-102762709D01*
X171235025Y-102745912D01*
X171301161Y-102768447D01*
X171340204Y-102813504D01*
X171344949Y-102822817D01*
X171469890Y-102994786D01*
X171620213Y-103145109D01*
X171792182Y-103270050D01*
X171800946Y-103274516D01*
X171851742Y-103322491D01*
X171868536Y-103390312D01*
X171845998Y-103456447D01*
X171800946Y-103495484D01*
X171792182Y-103499949D01*
X171620213Y-103624890D01*
X171469890Y-103775213D01*
X171344949Y-103947182D01*
X171340484Y-103955946D01*
X171292509Y-104006742D01*
X171224688Y-104023536D01*
X171158553Y-104000998D01*
X171119516Y-103955946D01*
X171115050Y-103947182D01*
X170990109Y-103775213D01*
X170839786Y-103624890D01*
X170667817Y-103499949D01*
X170658504Y-103495204D01*
X170607707Y-103447230D01*
X170590912Y-103379409D01*
X170613449Y-103313274D01*
X170658507Y-103274232D01*
X170667555Y-103269622D01*
X170721716Y-103230270D01*
X170721717Y-103230270D01*
X170089408Y-102597962D01*
X170152993Y-102580925D01*
X170267007Y-102515099D01*
X170360099Y-102422007D01*
X170425925Y-102307993D01*
X170442962Y-102244408D01*
X171075270Y-102876717D01*
G37*
%TD.AperFunction*%
%TA.AperFunction,Conductor*%
G36*
X124450959Y-93020185D02*
G01*
X124496714Y-93072989D01*
X124506658Y-93142147D01*
X124477633Y-93205703D01*
X124437721Y-93236220D01*
X124288560Y-93308051D01*
X124050753Y-93457476D01*
X123831175Y-93632583D01*
X123632583Y-93831175D01*
X123457476Y-94050753D01*
X123308053Y-94288557D01*
X123186200Y-94541588D01*
X123093443Y-94806670D01*
X123093439Y-94806682D01*
X123030945Y-95080487D01*
X123030942Y-95080505D01*
X122999500Y-95359568D01*
X122999500Y-95640431D01*
X123030942Y-95919494D01*
X123030945Y-95919512D01*
X123093439Y-96193317D01*
X123093443Y-96193329D01*
X123186200Y-96458411D01*
X123308053Y-96711442D01*
X123308055Y-96711445D01*
X123457477Y-96949248D01*
X123632584Y-97168825D01*
X123831175Y-97367416D01*
X124050752Y-97542523D01*
X124288555Y-97691945D01*
X124541592Y-97813801D01*
X124740680Y-97883465D01*
X124806670Y-97906556D01*
X124806682Y-97906560D01*
X125080491Y-97969055D01*
X125080497Y-97969055D01*
X125080505Y-97969057D01*
X125266547Y-97990018D01*
X125359569Y-98000499D01*
X125359572Y-98000500D01*
X125359575Y-98000500D01*
X125640428Y-98000500D01*
X125640429Y-98000499D01*
X125783055Y-97984429D01*
X125919494Y-97969057D01*
X125919499Y-97969056D01*
X125919509Y-97969055D01*
X126193318Y-97906560D01*
X126458408Y-97813801D01*
X126711445Y-97691945D01*
X126949248Y-97542523D01*
X127168825Y-97367416D01*
X127367416Y-97168825D01*
X127542523Y-96949248D01*
X127691945Y-96711445D01*
X127813801Y-96458408D01*
X127906560Y-96193318D01*
X127969055Y-95919509D01*
X127974541Y-95870824D01*
X127987834Y-95752837D01*
X128000500Y-95640425D01*
X128000500Y-95359575D01*
X127981720Y-95192899D01*
X127969057Y-95080505D01*
X127969054Y-95080487D01*
X127932214Y-94919082D01*
X127906560Y-94806682D01*
X127813801Y-94541592D01*
X127691945Y-94288555D01*
X127542523Y-94050752D01*
X127367416Y-93831175D01*
X127168825Y-93632584D01*
X126949248Y-93457477D01*
X126711445Y-93308055D01*
X126711446Y-93308055D01*
X126711439Y-93308051D01*
X126562279Y-93236220D01*
X126510419Y-93189398D01*
X126492106Y-93121971D01*
X126513154Y-93055347D01*
X126566880Y-93010678D01*
X126616080Y-93000500D01*
X173497865Y-93000500D01*
X173564904Y-93020185D01*
X173610659Y-93072989D01*
X173620603Y-93142147D01*
X173591578Y-93205703D01*
X173538820Y-93241541D01*
X173375721Y-93298612D01*
X173122690Y-93420465D01*
X172884886Y-93569888D01*
X172665308Y-93744995D01*
X172466716Y-93943587D01*
X172291609Y-94163165D01*
X172142186Y-94400969D01*
X172020333Y-94654000D01*
X171927576Y-94919082D01*
X171927572Y-94919094D01*
X171865078Y-95192899D01*
X171865075Y-95192917D01*
X171833633Y-95471980D01*
X171833633Y-95752843D01*
X171865075Y-96031906D01*
X171865078Y-96031924D01*
X171927572Y-96305729D01*
X171927576Y-96305741D01*
X172020333Y-96570823D01*
X172142186Y-96823854D01*
X172142188Y-96823857D01*
X172291610Y-97061660D01*
X172466717Y-97281237D01*
X172665308Y-97479828D01*
X172884885Y-97654935D01*
X173122688Y-97804357D01*
X173122690Y-97804358D01*
X173142299Y-97813801D01*
X173375725Y-97926213D01*
X173574813Y-97995877D01*
X173640803Y-98018968D01*
X173640815Y-98018972D01*
X173914624Y-98081467D01*
X173914630Y-98081467D01*
X173914638Y-98081469D01*
X174100680Y-98102430D01*
X174193702Y-98112911D01*
X174193705Y-98112912D01*
X174193708Y-98112912D01*
X174474561Y-98112912D01*
X174474562Y-98112911D01*
X174617188Y-98096841D01*
X174753627Y-98081469D01*
X174753632Y-98081468D01*
X174753642Y-98081467D01*
X175027451Y-98018972D01*
X175292541Y-97926213D01*
X175545578Y-97804357D01*
X175783381Y-97654935D01*
X176002958Y-97479828D01*
X176201549Y-97281237D01*
X176278552Y-97184677D01*
X176335740Y-97144538D01*
X176405552Y-97141688D01*
X176465822Y-97177033D01*
X176497415Y-97239352D01*
X176499499Y-97261991D01*
X176499499Y-122385543D01*
X176479814Y-122452582D01*
X176427010Y-122498337D01*
X176357852Y-122508281D01*
X176294296Y-122479256D01*
X176270507Y-122451517D01*
X176262236Y-122438355D01*
X176262234Y-122438352D01*
X176250758Y-122423962D01*
X176087124Y-122218771D01*
X175888533Y-122020180D01*
X175668956Y-121845073D01*
X175440788Y-121701705D01*
X175431150Y-121695649D01*
X175178119Y-121573796D01*
X174913037Y-121481039D01*
X174913025Y-121481035D01*
X174639220Y-121418541D01*
X174639202Y-121418538D01*
X174360139Y-121387096D01*
X174360133Y-121387096D01*
X174079283Y-121387096D01*
X174079276Y-121387096D01*
X173800213Y-121418538D01*
X173800195Y-121418541D01*
X173526390Y-121481035D01*
X173526378Y-121481039D01*
X173261296Y-121573796D01*
X173008265Y-121695649D01*
X172770461Y-121845072D01*
X172550883Y-122020179D01*
X172352291Y-122218771D01*
X172177184Y-122438349D01*
X172027761Y-122676153D01*
X171905908Y-122929184D01*
X171813151Y-123194266D01*
X171813147Y-123194278D01*
X171750653Y-123468083D01*
X171750650Y-123468101D01*
X171719208Y-123747164D01*
X171719208Y-124028027D01*
X171750650Y-124307090D01*
X171750653Y-124307108D01*
X171813147Y-124580913D01*
X171813151Y-124580925D01*
X171905908Y-124846007D01*
X172027761Y-125099038D01*
X172027763Y-125099041D01*
X172177185Y-125336844D01*
X172352292Y-125556421D01*
X172550883Y-125755012D01*
X172770460Y-125930119D01*
X173008263Y-126079541D01*
X173261300Y-126201397D01*
X173371117Y-126239823D01*
X173424373Y-126258459D01*
X173481149Y-126299180D01*
X173506896Y-126364133D01*
X173493440Y-126432695D01*
X173445052Y-126483097D01*
X173383418Y-126499500D01*
X126880420Y-126499500D01*
X126813381Y-126479815D01*
X126767626Y-126427011D01*
X126757682Y-126357853D01*
X126786707Y-126294297D01*
X126814448Y-126270506D01*
X126828124Y-126261912D01*
X127019562Y-126141624D01*
X127249793Y-125958021D01*
X127458020Y-125749794D01*
X127641623Y-125519563D01*
X127798294Y-125270223D01*
X127848422Y-125166130D01*
X127926055Y-125004923D01*
X127926056Y-125004919D01*
X127926062Y-125004908D01*
X128023322Y-124726957D01*
X128088849Y-124439863D01*
X128121820Y-124147238D01*
X128121820Y-123852762D01*
X128088849Y-123560137D01*
X128023322Y-123273043D01*
X127926062Y-122995092D01*
X127926058Y-122995085D01*
X127926055Y-122995076D01*
X127798297Y-122729782D01*
X127793072Y-122721466D01*
X127641623Y-122480437D01*
X127458020Y-122250206D01*
X127249793Y-122041979D01*
X127019562Y-121858376D01*
X126770222Y-121701705D01*
X126770223Y-121701705D01*
X126770216Y-121701701D01*
X126504922Y-121573943D01*
X126504900Y-121573934D01*
X126226967Y-121476680D01*
X126226955Y-121476676D01*
X125939865Y-121411150D01*
X125939849Y-121411148D01*
X125647241Y-121378179D01*
X125647237Y-121378179D01*
X125352761Y-121378179D01*
X125352756Y-121378179D01*
X125060148Y-121411148D01*
X125060132Y-121411150D01*
X124773042Y-121476676D01*
X124773030Y-121476680D01*
X124495097Y-121573934D01*
X124495075Y-121573943D01*
X124229781Y-121701701D01*
X123980437Y-121858375D01*
X123750205Y-122041978D01*
X123541977Y-122250206D01*
X123358374Y-122480438D01*
X123201700Y-122729782D01*
X123073942Y-122995076D01*
X123073933Y-122995098D01*
X122976679Y-123273031D01*
X122976675Y-123273043D01*
X122911149Y-123560133D01*
X122911147Y-123560149D01*
X122878178Y-123852757D01*
X122878178Y-124147242D01*
X122911147Y-124439850D01*
X122911149Y-124439866D01*
X122976675Y-124726956D01*
X122976679Y-124726968D01*
X123073933Y-125004901D01*
X123073942Y-125004923D01*
X123201700Y-125270217D01*
X123243565Y-125336844D01*
X123358375Y-125519563D01*
X123541978Y-125749794D01*
X123750205Y-125958021D01*
X123980436Y-126141624D01*
X124075561Y-126201395D01*
X124185550Y-126270506D01*
X124231841Y-126322841D01*
X124242489Y-126391894D01*
X124214114Y-126455743D01*
X124155724Y-126494115D01*
X124119578Y-126499500D01*
X81616080Y-126499500D01*
X81549041Y-126479815D01*
X81503286Y-126427011D01*
X81493342Y-126357853D01*
X81522367Y-126294297D01*
X81562279Y-126263780D01*
X81711439Y-126191948D01*
X81711439Y-126191947D01*
X81711445Y-126191945D01*
X81949248Y-126042523D01*
X82168825Y-125867416D01*
X82367416Y-125668825D01*
X82542523Y-125449248D01*
X82691945Y-125211445D01*
X82813801Y-124958408D01*
X82906560Y-124693318D01*
X82969055Y-124419509D01*
X82981720Y-124307108D01*
X83000499Y-124140431D01*
X83000500Y-124140427D01*
X83000500Y-123859572D01*
X83000499Y-123859568D01*
X82969057Y-123580505D01*
X82969054Y-123580487D01*
X82906560Y-123306682D01*
X82906556Y-123306670D01*
X82883465Y-123240680D01*
X82813801Y-123041592D01*
X82691945Y-122788555D01*
X82542523Y-122550752D01*
X82367416Y-122331175D01*
X82168825Y-122132584D01*
X81949248Y-121957477D01*
X81711445Y-121808055D01*
X81711442Y-121808053D01*
X81458411Y-121686200D01*
X81193329Y-121593443D01*
X81193317Y-121593439D01*
X80919512Y-121530945D01*
X80919494Y-121530942D01*
X80640431Y-121499500D01*
X80640425Y-121499500D01*
X80359575Y-121499500D01*
X80359568Y-121499500D01*
X80080505Y-121530942D01*
X80080487Y-121530945D01*
X79806682Y-121593439D01*
X79806670Y-121593443D01*
X79541588Y-121686200D01*
X79288557Y-121808053D01*
X79050753Y-121957476D01*
X78831175Y-122132583D01*
X78632583Y-122331175D01*
X78457476Y-122550753D01*
X78308053Y-122788557D01*
X78236219Y-122937723D01*
X78189397Y-122989582D01*
X78121969Y-123007895D01*
X78055345Y-122986847D01*
X78010677Y-122933121D01*
X78000499Y-122883921D01*
X78000499Y-114616078D01*
X78020184Y-114549039D01*
X78072988Y-114503284D01*
X78142146Y-114493340D01*
X78205702Y-114522365D01*
X78236219Y-114562277D01*
X78308051Y-114711439D01*
X78308055Y-114711445D01*
X78457477Y-114949248D01*
X78632584Y-115168825D01*
X78831175Y-115367416D01*
X79050752Y-115542523D01*
X79288555Y-115691945D01*
X79541592Y-115813801D01*
X79740680Y-115883465D01*
X79806670Y-115906556D01*
X79806682Y-115906560D01*
X80080491Y-115969055D01*
X80080497Y-115969055D01*
X80080505Y-115969057D01*
X80266547Y-115990018D01*
X80359569Y-116000499D01*
X80359572Y-116000500D01*
X80359575Y-116000500D01*
X80640428Y-116000500D01*
X80640429Y-116000499D01*
X80783055Y-115984429D01*
X80919494Y-115969057D01*
X80919499Y-115969056D01*
X80919509Y-115969055D01*
X81193318Y-115906560D01*
X81458408Y-115813801D01*
X81711445Y-115691945D01*
X81949248Y-115542523D01*
X82168825Y-115367416D01*
X82367416Y-115168825D01*
X82542523Y-114949248D01*
X82691945Y-114711445D01*
X82813801Y-114458408D01*
X82906560Y-114193318D01*
X82969055Y-113919509D01*
X82973599Y-113879185D01*
X82998252Y-113660373D01*
X83000500Y-113640425D01*
X83000500Y-113421153D01*
X94199500Y-113421153D01*
X94199500Y-113578846D01*
X94230261Y-113733489D01*
X94230264Y-113733501D01*
X94290602Y-113879172D01*
X94290609Y-113879185D01*
X94378210Y-114010288D01*
X94378213Y-114010292D01*
X94489707Y-114121786D01*
X94489711Y-114121789D01*
X94620814Y-114209390D01*
X94620827Y-114209397D01*
X94699894Y-114242147D01*
X94766503Y-114269737D01*
X94921153Y-114300499D01*
X94921156Y-114300500D01*
X94921158Y-114300500D01*
X95078844Y-114300500D01*
X95078845Y-114300499D01*
X95233497Y-114269737D01*
X95379179Y-114209394D01*
X95403222Y-114193329D01*
X95510875Y-114121398D01*
X95577553Y-114100520D01*
X95579766Y-114100500D01*
X168606566Y-114100500D01*
X168673605Y-114120185D01*
X168719360Y-114172989D01*
X168729304Y-114242147D01*
X168717050Y-114280796D01*
X168708905Y-114296780D01*
X168643242Y-114498869D01*
X168643242Y-114498872D01*
X168610000Y-114708753D01*
X168610000Y-114921246D01*
X168643242Y-115131127D01*
X168643242Y-115131130D01*
X168708904Y-115333217D01*
X168805375Y-115522550D01*
X168844728Y-115576716D01*
X169477037Y-114944408D01*
X169494075Y-115007993D01*
X169559901Y-115122007D01*
X169652993Y-115215099D01*
X169767007Y-115280925D01*
X169830590Y-115297962D01*
X169160370Y-115968181D01*
X169099047Y-116001666D01*
X169072698Y-116004500D01*
X169062134Y-116004500D01*
X169062123Y-116004501D01*
X169002516Y-116010908D01*
X168867671Y-116061202D01*
X168867664Y-116061206D01*
X168752455Y-116147452D01*
X168752452Y-116147455D01*
X168666206Y-116262664D01*
X168666202Y-116262671D01*
X168615908Y-116397517D01*
X168609501Y-116457116D01*
X168609500Y-116457135D01*
X168609500Y-118252870D01*
X168609501Y-118252876D01*
X168615908Y-118312483D01*
X168666202Y-118447328D01*
X168666206Y-118447335D01*
X168752452Y-118562544D01*
X168752455Y-118562547D01*
X168867664Y-118648793D01*
X168867671Y-118648797D01*
X169002517Y-118699091D01*
X169002516Y-118699091D01*
X169009444Y-118699835D01*
X169062127Y-118705500D01*
X170857872Y-118705499D01*
X170917483Y-118699091D01*
X171052331Y-118648796D01*
X171167546Y-118562546D01*
X171253796Y-118447331D01*
X171302810Y-118315916D01*
X171344681Y-118259984D01*
X171410145Y-118235566D01*
X171478418Y-118250417D01*
X171506673Y-118271569D01*
X171620213Y-118385109D01*
X171792179Y-118510048D01*
X171792181Y-118510049D01*
X171792184Y-118510051D01*
X171981588Y-118606557D01*
X172183757Y-118672246D01*
X172393713Y-118705500D01*
X172393714Y-118705500D01*
X172606286Y-118705500D01*
X172606287Y-118705500D01*
X172816243Y-118672246D01*
X173018412Y-118606557D01*
X173207816Y-118510051D01*
X173294138Y-118447335D01*
X173379786Y-118385109D01*
X173379788Y-118385106D01*
X173379792Y-118385104D01*
X173530104Y-118234792D01*
X173530106Y-118234788D01*
X173530109Y-118234786D01*
X173655048Y-118062820D01*
X173655047Y-118062820D01*
X173655051Y-118062816D01*
X173751557Y-117873412D01*
X173817246Y-117671243D01*
X173850500Y-117461287D01*
X173850500Y-117248713D01*
X173817246Y-117038757D01*
X173751557Y-116836588D01*
X173655051Y-116647184D01*
X173655049Y-116647181D01*
X173655048Y-116647179D01*
X173530109Y-116475213D01*
X173379786Y-116324890D01*
X173207820Y-116199951D01*
X173207115Y-116199591D01*
X173199054Y-116195485D01*
X173148259Y-116147512D01*
X173131463Y-116079692D01*
X173153999Y-116013556D01*
X173199054Y-115974515D01*
X173207816Y-115970051D01*
X173229789Y-115954086D01*
X173379786Y-115845109D01*
X173379788Y-115845106D01*
X173379792Y-115845104D01*
X173530104Y-115694792D01*
X173530106Y-115694788D01*
X173530109Y-115694786D01*
X173655048Y-115522820D01*
X173655050Y-115522817D01*
X173655051Y-115522816D01*
X173751557Y-115333412D01*
X173817246Y-115131243D01*
X173850500Y-114921287D01*
X173850500Y-114708713D01*
X173817246Y-114498757D01*
X173751557Y-114296588D01*
X173655051Y-114107184D01*
X173655049Y-114107181D01*
X173655048Y-114107179D01*
X173530109Y-113935213D01*
X173379786Y-113784890D01*
X173207820Y-113659951D01*
X173199600Y-113655763D01*
X173199054Y-113655485D01*
X173148259Y-113607512D01*
X173131463Y-113539692D01*
X173153999Y-113473556D01*
X173199054Y-113434515D01*
X173207816Y-113430051D01*
X173304823Y-113359572D01*
X173379786Y-113305109D01*
X173379788Y-113305106D01*
X173379792Y-113305104D01*
X173530104Y-113154792D01*
X173530106Y-113154788D01*
X173530109Y-113154786D01*
X173639086Y-113004789D01*
X173655051Y-112982816D01*
X173751557Y-112793412D01*
X173817246Y-112591243D01*
X173850500Y-112381287D01*
X173850500Y-112168713D01*
X173817246Y-111958757D01*
X173751557Y-111756588D01*
X173655051Y-111567184D01*
X173655049Y-111567181D01*
X173655048Y-111567179D01*
X173530109Y-111395213D01*
X173379786Y-111244890D01*
X173207820Y-111119951D01*
X173207115Y-111119591D01*
X173199054Y-111115485D01*
X173148259Y-111067512D01*
X173131463Y-110999692D01*
X173153999Y-110933556D01*
X173199054Y-110894515D01*
X173207816Y-110890051D01*
X173229789Y-110874086D01*
X173379786Y-110765109D01*
X173379788Y-110765106D01*
X173379792Y-110765104D01*
X173530104Y-110614792D01*
X173530106Y-110614788D01*
X173530109Y-110614786D01*
X173655048Y-110442820D01*
X173655047Y-110442820D01*
X173655051Y-110442816D01*
X173751557Y-110253412D01*
X173817246Y-110051243D01*
X173850500Y-109841287D01*
X173850500Y-109628713D01*
X173817246Y-109418757D01*
X173751557Y-109216588D01*
X173655051Y-109027184D01*
X173655049Y-109027181D01*
X173655048Y-109027179D01*
X173530109Y-108855213D01*
X173379786Y-108704890D01*
X173207820Y-108579951D01*
X173205643Y-108578842D01*
X173199054Y-108575485D01*
X173148259Y-108527512D01*
X173131463Y-108459692D01*
X173153999Y-108393556D01*
X173199054Y-108354515D01*
X173207816Y-108350051D01*
X173229789Y-108334086D01*
X173379786Y-108225109D01*
X173379788Y-108225106D01*
X173379792Y-108225104D01*
X173530104Y-108074792D01*
X173530106Y-108074788D01*
X173530109Y-108074786D01*
X173655048Y-107902820D01*
X173655047Y-107902820D01*
X173655051Y-107902816D01*
X173751557Y-107713412D01*
X173817246Y-107511243D01*
X173850500Y-107301287D01*
X173850500Y-107088713D01*
X173817246Y-106878757D01*
X173751557Y-106676588D01*
X173655051Y-106487184D01*
X173655049Y-106487181D01*
X173655048Y-106487179D01*
X173530109Y-106315213D01*
X173379786Y-106164890D01*
X173207820Y-106039951D01*
X173207115Y-106039591D01*
X173199054Y-106035485D01*
X173148259Y-105987512D01*
X173131463Y-105919692D01*
X173153999Y-105853556D01*
X173199054Y-105814515D01*
X173207816Y-105810051D01*
X173329634Y-105721546D01*
X173379786Y-105685109D01*
X173379788Y-105685106D01*
X173379792Y-105685104D01*
X173530104Y-105534792D01*
X173530106Y-105534788D01*
X173530109Y-105534786D01*
X173655048Y-105362820D01*
X173655047Y-105362820D01*
X173655051Y-105362816D01*
X173751557Y-105173412D01*
X173817246Y-104971243D01*
X173850500Y-104761287D01*
X173850500Y-104548713D01*
X173817246Y-104338757D01*
X173751557Y-104136588D01*
X173655051Y-103947184D01*
X173655049Y-103947181D01*
X173655048Y-103947179D01*
X173530109Y-103775213D01*
X173379786Y-103624890D01*
X173207820Y-103499951D01*
X173207115Y-103499591D01*
X173199054Y-103495485D01*
X173148259Y-103447512D01*
X173131463Y-103379692D01*
X173153999Y-103313556D01*
X173199054Y-103274515D01*
X173207816Y-103270051D01*
X173262572Y-103230269D01*
X173379786Y-103145109D01*
X173379788Y-103145106D01*
X173379792Y-103145104D01*
X173530104Y-102994792D01*
X173530106Y-102994788D01*
X173530109Y-102994786D01*
X173655048Y-102822820D01*
X173655050Y-102822817D01*
X173655051Y-102822816D01*
X173751557Y-102633412D01*
X173817246Y-102431243D01*
X173850500Y-102221287D01*
X173850500Y-102008713D01*
X173817246Y-101798757D01*
X173751557Y-101596588D01*
X173655051Y-101407184D01*
X173655049Y-101407181D01*
X173655048Y-101407179D01*
X173530109Y-101235213D01*
X173379786Y-101084890D01*
X173207820Y-100959951D01*
X173018414Y-100863444D01*
X173018413Y-100863443D01*
X173018412Y-100863443D01*
X172816243Y-100797754D01*
X172816241Y-100797753D01*
X172816240Y-100797753D01*
X172654957Y-100772208D01*
X172606287Y-100764500D01*
X172393713Y-100764500D01*
X172345042Y-100772208D01*
X172183760Y-100797753D01*
X171981585Y-100863444D01*
X171792179Y-100959951D01*
X171620213Y-101084890D01*
X171469890Y-101235213D01*
X171344949Y-101407182D01*
X171340202Y-101416499D01*
X171292227Y-101467293D01*
X171224405Y-101484087D01*
X171158271Y-101461548D01*
X171119234Y-101416495D01*
X171114626Y-101407452D01*
X171075270Y-101353282D01*
X171075269Y-101353282D01*
X170442962Y-101985590D01*
X170425925Y-101922007D01*
X170360099Y-101807993D01*
X170267007Y-101714901D01*
X170152993Y-101649075D01*
X170089409Y-101632037D01*
X170721716Y-100999728D01*
X170667550Y-100960375D01*
X170478217Y-100863904D01*
X170276129Y-100798242D01*
X170066246Y-100765000D01*
X169853754Y-100765000D01*
X169643872Y-100798242D01*
X169643869Y-100798242D01*
X169441782Y-100863904D01*
X169252439Y-100960380D01*
X169198282Y-100999727D01*
X169198282Y-100999728D01*
X169830591Y-101632037D01*
X169767007Y-101649075D01*
X169652993Y-101714901D01*
X169559901Y-101807993D01*
X169494075Y-101922007D01*
X169477037Y-101985591D01*
X168844728Y-101353282D01*
X168844727Y-101353282D01*
X168805380Y-101407439D01*
X168708904Y-101596782D01*
X168643242Y-101798869D01*
X168643242Y-101798872D01*
X168610000Y-102008753D01*
X168610000Y-102221246D01*
X168643242Y-102431127D01*
X168643242Y-102431130D01*
X168708904Y-102633217D01*
X168805375Y-102822550D01*
X168844728Y-102876716D01*
X169477037Y-102244408D01*
X169494075Y-102307993D01*
X169559901Y-102422007D01*
X169652993Y-102515099D01*
X169767007Y-102580925D01*
X169830590Y-102597962D01*
X169198282Y-103230269D01*
X169198282Y-103230270D01*
X169252452Y-103269626D01*
X169252451Y-103269626D01*
X169261495Y-103274234D01*
X169312292Y-103322208D01*
X169329087Y-103390029D01*
X169306550Y-103456164D01*
X169261499Y-103495202D01*
X169252182Y-103499949D01*
X169080213Y-103624890D01*
X168929890Y-103775213D01*
X168804951Y-103947179D01*
X168708444Y-104136585D01*
X168642753Y-104338760D01*
X168609500Y-104548713D01*
X168609500Y-104761286D01*
X168642753Y-104971240D01*
X168703790Y-105159092D01*
X168705785Y-105228933D01*
X168669705Y-105288766D01*
X168607004Y-105319594D01*
X168585859Y-105321410D01*
X115403345Y-105321410D01*
X115336306Y-105301725D01*
X115290551Y-105248921D01*
X115280607Y-105179763D01*
X115281728Y-105173219D01*
X115300499Y-105078846D01*
X115300500Y-105078844D01*
X115300500Y-104921155D01*
X115300499Y-104921153D01*
X115269738Y-104766510D01*
X115269737Y-104766503D01*
X115269735Y-104766498D01*
X115209397Y-104620827D01*
X115209390Y-104620814D01*
X115121789Y-104489711D01*
X115121786Y-104489707D01*
X115010292Y-104378213D01*
X115010288Y-104378210D01*
X114879185Y-104290609D01*
X114879172Y-104290602D01*
X114733501Y-104230264D01*
X114733491Y-104230261D01*
X114578149Y-104199361D01*
X114516238Y-104166976D01*
X114514660Y-104165425D01*
X113334574Y-102985339D01*
X113301089Y-102924016D01*
X113300638Y-102921849D01*
X113280938Y-102822816D01*
X113269737Y-102766503D01*
X113269735Y-102766498D01*
X113209397Y-102620827D01*
X113209390Y-102620814D01*
X113121789Y-102489711D01*
X113121786Y-102489707D01*
X113010292Y-102378213D01*
X113010288Y-102378210D01*
X112879185Y-102290609D01*
X112879172Y-102290602D01*
X112733501Y-102230264D01*
X112733489Y-102230261D01*
X112578845Y-102199500D01*
X112578842Y-102199500D01*
X112421158Y-102199500D01*
X112421155Y-102199500D01*
X112266510Y-102230261D01*
X112266498Y-102230264D01*
X112120827Y-102290602D01*
X112120814Y-102290609D01*
X111989711Y-102378210D01*
X111989707Y-102378213D01*
X111878213Y-102489707D01*
X111878210Y-102489711D01*
X111790609Y-102620814D01*
X111790602Y-102620827D01*
X111730264Y-102766498D01*
X111730261Y-102766510D01*
X111699500Y-102921153D01*
X111699500Y-103078846D01*
X111730261Y-103233489D01*
X111730264Y-103233501D01*
X111790602Y-103379172D01*
X111790609Y-103379185D01*
X111878210Y-103510288D01*
X111878213Y-103510292D01*
X111989707Y-103621786D01*
X111989711Y-103621789D01*
X112120814Y-103709390D01*
X112120827Y-103709397D01*
X112236383Y-103757261D01*
X112266503Y-103769737D01*
X112331147Y-103782595D01*
X112421849Y-103800638D01*
X112483760Y-103833023D01*
X112485339Y-103834574D01*
X113665425Y-105014660D01*
X113674487Y-105031255D01*
X113687619Y-105044865D01*
X113698025Y-105074362D01*
X113698910Y-105075983D01*
X113699361Y-105078149D01*
X113718272Y-105173218D01*
X113712045Y-105242810D01*
X113669182Y-105297987D01*
X113603293Y-105321232D01*
X113596655Y-105321410D01*
X112664760Y-105321410D01*
X112664744Y-105321409D01*
X112657148Y-105321409D01*
X112499033Y-105321409D01*
X112422669Y-105341871D01*
X112346304Y-105362333D01*
X112346299Y-105362336D01*
X112209380Y-105441385D01*
X112209372Y-105441391D01*
X109019483Y-108631281D01*
X109019481Y-108631284D01*
X108940423Y-108768214D01*
X108940423Y-108768215D01*
X108899499Y-108920943D01*
X108899499Y-108920945D01*
X108899499Y-109079054D01*
X108899498Y-109079054D01*
X108899499Y-109079057D01*
X108940423Y-109231785D01*
X109019481Y-109368716D01*
X109131284Y-109480519D01*
X109268215Y-109559577D01*
X109420943Y-109600501D01*
X109420946Y-109600501D01*
X109579054Y-109600501D01*
X109579057Y-109600501D01*
X109731785Y-109559577D01*
X109868716Y-109480519D01*
X112790507Y-106558729D01*
X112851830Y-106525244D01*
X112878188Y-106522410D01*
X168587867Y-106522410D01*
X168654906Y-106542095D01*
X168700661Y-106594899D01*
X168710605Y-106664057D01*
X168705798Y-106684728D01*
X168642753Y-106878759D01*
X168609500Y-107088713D01*
X168609500Y-107301286D01*
X168642753Y-107511239D01*
X168708443Y-107713413D01*
X168711393Y-107719201D01*
X168724291Y-107787870D01*
X168698017Y-107852611D01*
X168640913Y-107892870D01*
X168600910Y-107899500D01*
X114079766Y-107899500D01*
X114012727Y-107879815D01*
X114010875Y-107878602D01*
X113879185Y-107790609D01*
X113879172Y-107790602D01*
X113733501Y-107730264D01*
X113733489Y-107730261D01*
X113578845Y-107699500D01*
X113578842Y-107699500D01*
X113421158Y-107699500D01*
X113421155Y-107699500D01*
X113266510Y-107730261D01*
X113266498Y-107730264D01*
X113120827Y-107790602D01*
X113120814Y-107790609D01*
X112989711Y-107878210D01*
X112989707Y-107878213D01*
X112878213Y-107989707D01*
X112878210Y-107989711D01*
X112790609Y-108120814D01*
X112790602Y-108120827D01*
X112730264Y-108266498D01*
X112730261Y-108266510D01*
X112699500Y-108421153D01*
X112699500Y-108578846D01*
X112730261Y-108733489D01*
X112730264Y-108733501D01*
X112790602Y-108879172D01*
X112790609Y-108879185D01*
X112878210Y-109010288D01*
X112878213Y-109010292D01*
X112989707Y-109121786D01*
X112989711Y-109121789D01*
X113120814Y-109209390D01*
X113120827Y-109209397D01*
X113199894Y-109242147D01*
X113266503Y-109269737D01*
X113421153Y-109300499D01*
X113421156Y-109300500D01*
X113421158Y-109300500D01*
X113578844Y-109300500D01*
X113578845Y-109300499D01*
X113733497Y-109269737D01*
X113879179Y-109209394D01*
X113933663Y-109172989D01*
X114010875Y-109121398D01*
X114077553Y-109100520D01*
X114079766Y-109100500D01*
X168575491Y-109100500D01*
X168642530Y-109120185D01*
X168688285Y-109172989D01*
X168698229Y-109242147D01*
X168693422Y-109262816D01*
X168690000Y-109273349D01*
X168642753Y-109418759D01*
X168609500Y-109628713D01*
X168609500Y-109841286D01*
X168642753Y-110051239D01*
X168708444Y-110253414D01*
X168804951Y-110442820D01*
X168929890Y-110614786D01*
X169080213Y-110765109D01*
X169252182Y-110890050D01*
X169260946Y-110894516D01*
X169311742Y-110942491D01*
X169328536Y-111010312D01*
X169305998Y-111076447D01*
X169260946Y-111115484D01*
X169252182Y-111119949D01*
X169080213Y-111244890D01*
X168929890Y-111395213D01*
X168804951Y-111567179D01*
X168708444Y-111756585D01*
X168642753Y-111958760D01*
X168609500Y-112168713D01*
X168609500Y-112381286D01*
X168642754Y-112591244D01*
X168642754Y-112591247D01*
X168656491Y-112633523D01*
X168656925Y-112648735D01*
X168662244Y-112662994D01*
X168657902Y-112682950D01*
X168658486Y-112703364D01*
X168650398Y-112717448D01*
X168647393Y-112731267D01*
X168626242Y-112759521D01*
X168522585Y-112863180D01*
X168461262Y-112896666D01*
X168434903Y-112899500D01*
X95579766Y-112899500D01*
X95512727Y-112879815D01*
X95510875Y-112878602D01*
X95379185Y-112790609D01*
X95379172Y-112790602D01*
X95233501Y-112730264D01*
X95233489Y-112730261D01*
X95078845Y-112699500D01*
X95078842Y-112699500D01*
X94921158Y-112699500D01*
X94921155Y-112699500D01*
X94766510Y-112730261D01*
X94766498Y-112730264D01*
X94620827Y-112790602D01*
X94620814Y-112790609D01*
X94489711Y-112878210D01*
X94489707Y-112878213D01*
X94378213Y-112989707D01*
X94378210Y-112989711D01*
X94290609Y-113120814D01*
X94290602Y-113120827D01*
X94230264Y-113266498D01*
X94230261Y-113266510D01*
X94199500Y-113421153D01*
X83000500Y-113421153D01*
X83000500Y-113359575D01*
X82973599Y-113120821D01*
X82969057Y-113080505D01*
X82969054Y-113080487D01*
X82906560Y-112806682D01*
X82906556Y-112806670D01*
X82875336Y-112717448D01*
X82813801Y-112541592D01*
X82691945Y-112288555D01*
X82542523Y-112050752D01*
X82367416Y-111831175D01*
X82168825Y-111632584D01*
X82161499Y-111626742D01*
X82086816Y-111567184D01*
X81949248Y-111457477D01*
X81711445Y-111308055D01*
X81711442Y-111308053D01*
X81458411Y-111186200D01*
X81193329Y-111093443D01*
X81193317Y-111093439D01*
X80919512Y-111030945D01*
X80919494Y-111030942D01*
X80640431Y-110999500D01*
X80640425Y-110999500D01*
X80359575Y-110999500D01*
X80359568Y-110999500D01*
X80080505Y-111030942D01*
X80080487Y-111030945D01*
X79806682Y-111093439D01*
X79806670Y-111093443D01*
X79541588Y-111186200D01*
X79288557Y-111308053D01*
X79050753Y-111457476D01*
X78831175Y-111632583D01*
X78632583Y-111831175D01*
X78457476Y-112050753D01*
X78308053Y-112288557D01*
X78236219Y-112437723D01*
X78189397Y-112489582D01*
X78121969Y-112507895D01*
X78055345Y-112486847D01*
X78010677Y-112433121D01*
X78000499Y-112383921D01*
X78000499Y-107425261D01*
X78020184Y-107358222D01*
X78072988Y-107312467D01*
X78124499Y-107301261D01*
X80174493Y-107301261D01*
X80674493Y-107301261D01*
X83012321Y-107301261D01*
X83012337Y-107301260D01*
X83071865Y-107294859D01*
X83071872Y-107294857D01*
X83206579Y-107244615D01*
X83206586Y-107244611D01*
X83321680Y-107158451D01*
X83321683Y-107158448D01*
X83407843Y-107043354D01*
X83407847Y-107043347D01*
X83458089Y-106908640D01*
X83458091Y-106908633D01*
X83464492Y-106849105D01*
X83464493Y-106849088D01*
X83464493Y-106667087D01*
X83484178Y-106600048D01*
X83536982Y-106554293D01*
X83606140Y-106544349D01*
X83612685Y-106545470D01*
X83767476Y-106576261D01*
X83961509Y-106576261D01*
X83961511Y-106576260D01*
X84151799Y-106538409D01*
X84151811Y-106538406D01*
X84331058Y-106464160D01*
X84362697Y-106443019D01*
X84150971Y-106231293D01*
X95880850Y-106231293D01*
X95880850Y-106388986D01*
X95911611Y-106543629D01*
X95911614Y-106543641D01*
X95971952Y-106689312D01*
X95971959Y-106689325D01*
X96059560Y-106820428D01*
X96059563Y-106820432D01*
X96171057Y-106931926D01*
X96171061Y-106931929D01*
X96302164Y-107019530D01*
X96302177Y-107019537D01*
X96447848Y-107079875D01*
X96447853Y-107079877D01*
X96602503Y-107110639D01*
X96602506Y-107110640D01*
X96602508Y-107110640D01*
X96760194Y-107110640D01*
X96760195Y-107110639D01*
X96914847Y-107079877D01*
X97060529Y-107019534D01*
X97191639Y-106931929D01*
X97303139Y-106820429D01*
X97390744Y-106689319D01*
X97451087Y-106543637D01*
X97481850Y-106388982D01*
X97481850Y-106231298D01*
X97481850Y-106231295D01*
X97481849Y-106231293D01*
X97468642Y-106164896D01*
X97451087Y-106076643D01*
X97435888Y-106039949D01*
X97390747Y-105930967D01*
X97390740Y-105930954D01*
X97303139Y-105799851D01*
X97303136Y-105799847D01*
X97191642Y-105688353D01*
X97191638Y-105688350D01*
X97060535Y-105600749D01*
X97060522Y-105600742D01*
X96914851Y-105540404D01*
X96914839Y-105540401D01*
X96760195Y-105509640D01*
X96760192Y-105509640D01*
X96602508Y-105509640D01*
X96602505Y-105509640D01*
X96447860Y-105540401D01*
X96447848Y-105540404D01*
X96302177Y-105600742D01*
X96302164Y-105600749D01*
X96171061Y-105688350D01*
X96171057Y-105688353D01*
X96059563Y-105799847D01*
X96059560Y-105799851D01*
X95971959Y-105930954D01*
X95971952Y-105930967D01*
X95911614Y-106076638D01*
X95911611Y-106076650D01*
X95880850Y-106231293D01*
X84150971Y-106231293D01*
X83775397Y-105855719D01*
X83741912Y-105794396D01*
X83742256Y-105789579D01*
X83818743Y-105821261D01*
X83910243Y-105821261D01*
X83994778Y-105786246D01*
X84059478Y-105721546D01*
X84094493Y-105637011D01*
X84094493Y-105591260D01*
X84218047Y-105591260D01*
X84218047Y-105591261D01*
X84716251Y-106089465D01*
X84737392Y-106057826D01*
X84811638Y-105878579D01*
X84811641Y-105878567D01*
X84849493Y-105688276D01*
X84849493Y-105494244D01*
X84849492Y-105494242D01*
X84811641Y-105303954D01*
X84811638Y-105303942D01*
X84737391Y-105124692D01*
X84716251Y-105093055D01*
X84218047Y-105591260D01*
X84094493Y-105591260D01*
X84094493Y-105545511D01*
X84059478Y-105460976D01*
X83994778Y-105396276D01*
X83910243Y-105361261D01*
X83818743Y-105361261D01*
X83745431Y-105391627D01*
X83746896Y-105371150D01*
X83775397Y-105326803D01*
X84362698Y-104739501D01*
X84331068Y-104718367D01*
X84331061Y-104718363D01*
X84151807Y-104644114D01*
X84151799Y-104644112D01*
X83961510Y-104606261D01*
X83767476Y-104606261D01*
X83612684Y-104637051D01*
X83543093Y-104630824D01*
X83487915Y-104587961D01*
X83464671Y-104522071D01*
X83464493Y-104515434D01*
X83464493Y-104333433D01*
X83464492Y-104333416D01*
X83458091Y-104273888D01*
X83458089Y-104273881D01*
X83407847Y-104139174D01*
X83407843Y-104139167D01*
X83321683Y-104024073D01*
X83321680Y-104024070D01*
X83206586Y-103937910D01*
X83206579Y-103937906D01*
X83071872Y-103887664D01*
X83071865Y-103887662D01*
X83012337Y-103881261D01*
X80674493Y-103881261D01*
X80674493Y-107301261D01*
X80174493Y-107301261D01*
X80174493Y-103881261D01*
X78124499Y-103881261D01*
X78057460Y-103861576D01*
X78011705Y-103808772D01*
X78000499Y-103757261D01*
X78000499Y-98665261D01*
X78020184Y-98598222D01*
X78072988Y-98552467D01*
X78124499Y-98541261D01*
X80174493Y-98541261D01*
X80674493Y-98541261D01*
X83012321Y-98541261D01*
X83012337Y-98541260D01*
X83071865Y-98534859D01*
X83071872Y-98534857D01*
X83206579Y-98484615D01*
X83206586Y-98484611D01*
X83321680Y-98398451D01*
X83321683Y-98398448D01*
X83407843Y-98283354D01*
X83407847Y-98283347D01*
X83458089Y-98148640D01*
X83458091Y-98148633D01*
X83464492Y-98089105D01*
X83464493Y-98089088D01*
X83464493Y-97907087D01*
X83484178Y-97840048D01*
X83536982Y-97794293D01*
X83606140Y-97784349D01*
X83612685Y-97785470D01*
X83767476Y-97816261D01*
X83961509Y-97816261D01*
X83961511Y-97816260D01*
X84151799Y-97778409D01*
X84151811Y-97778406D01*
X84331058Y-97704160D01*
X84362697Y-97683019D01*
X83775397Y-97095719D01*
X83741912Y-97034396D01*
X83742256Y-97029579D01*
X83818743Y-97061261D01*
X83910243Y-97061261D01*
X83994778Y-97026246D01*
X84059478Y-96961546D01*
X84094493Y-96877011D01*
X84094493Y-96831260D01*
X84218047Y-96831260D01*
X84218047Y-96831261D01*
X84716251Y-97329465D01*
X84737392Y-97297826D01*
X84811638Y-97118579D01*
X84811641Y-97118567D01*
X84849492Y-96928279D01*
X84849493Y-96928277D01*
X84849493Y-96734244D01*
X84849492Y-96734242D01*
X84811641Y-96543954D01*
X84811638Y-96543942D01*
X84737391Y-96364692D01*
X84716251Y-96333055D01*
X84218047Y-96831260D01*
X84094493Y-96831260D01*
X84094493Y-96785511D01*
X84059478Y-96700976D01*
X83994778Y-96636276D01*
X83910243Y-96601261D01*
X83818743Y-96601261D01*
X83745431Y-96631627D01*
X83746896Y-96611150D01*
X83775397Y-96566803D01*
X84362698Y-95979501D01*
X84331068Y-95958367D01*
X84331061Y-95958363D01*
X84151807Y-95884114D01*
X84151799Y-95884112D01*
X83961510Y-95846261D01*
X83767476Y-95846261D01*
X83612684Y-95877051D01*
X83543093Y-95870824D01*
X83487915Y-95827961D01*
X83464671Y-95762071D01*
X83464493Y-95755434D01*
X83464493Y-95573433D01*
X83464492Y-95573416D01*
X83458091Y-95513888D01*
X83458089Y-95513881D01*
X83407847Y-95379174D01*
X83407843Y-95379167D01*
X83321683Y-95264073D01*
X83321680Y-95264070D01*
X83206586Y-95177910D01*
X83206579Y-95177906D01*
X83071872Y-95127664D01*
X83071865Y-95127662D01*
X83012337Y-95121261D01*
X80674493Y-95121261D01*
X80674493Y-98541261D01*
X80174493Y-98541261D01*
X80174493Y-95121261D01*
X78124499Y-95121261D01*
X78057460Y-95101576D01*
X78011705Y-95048772D01*
X78000499Y-94997261D01*
X78000499Y-93124500D01*
X78020184Y-93057461D01*
X78072988Y-93011706D01*
X78124499Y-93000500D01*
X124383920Y-93000500D01*
X124450959Y-93020185D01*
G37*
%TD.AperFunction*%
%TD*%
M02*
