%TF.GenerationSoftware,KiCad,Pcbnew,9.0.7*%
%TF.CreationDate,2026-03-03T20:41:40+00:00*%
%TF.ProjectId,SPI_adapter,5350495f-6164-4617-9074-65722e6b6963,rev?*%
%TF.SameCoordinates,Original*%
%TF.FileFunction,Legend,Bot*%
%TF.FilePolarity,Positive*%
%FSLAX46Y46*%
G04 Gerber Fmt 4.6, Leading zero omitted, Abs format (unit mm)*
G04 Created by KiCad (PCBNEW 9.0.7) date 2026-03-03 20:41:40*
%MOMM*%
%LPD*%
G01*
G04 APERTURE LIST*
%ADD10C,0.150000*%
%ADD11C,0.120000*%
G04 APERTURE END LIST*
D10*
X175948333Y-119079819D02*
X175948333Y-119794104D01*
X175948333Y-119794104D02*
X175995952Y-119936961D01*
X175995952Y-119936961D02*
X176091190Y-120032200D01*
X176091190Y-120032200D02*
X176234047Y-120079819D01*
X176234047Y-120079819D02*
X176329285Y-120079819D01*
X174948333Y-120079819D02*
X175519761Y-120079819D01*
X175234047Y-120079819D02*
X175234047Y-119079819D01*
X175234047Y-119079819D02*
X175329285Y-119222676D01*
X175329285Y-119222676D02*
X175424523Y-119317914D01*
X175424523Y-119317914D02*
X175519761Y-119365533D01*
D11*
%TO.C,J1*%
X168690000Y-117355000D02*
X168690000Y-118625000D01*
X168690000Y-118625000D02*
X169960000Y-118625000D01*
X171037358Y-101685000D02*
X171422642Y-101685000D01*
X171037358Y-102545000D02*
X171422642Y-102545000D01*
X171037358Y-104225000D02*
X171422642Y-104225000D01*
X171037358Y-105085000D02*
X171422642Y-105085000D01*
X171037358Y-106765000D02*
X171422642Y-106765000D01*
X171037358Y-107625000D02*
X171422642Y-107625000D01*
X171037358Y-109305000D02*
X171422642Y-109305000D01*
X171037358Y-110165000D02*
X171422642Y-110165000D01*
X171037358Y-111845000D02*
X171422642Y-111845000D01*
X171037358Y-112705000D02*
X171422642Y-112705000D01*
X171037358Y-114385000D02*
X171422642Y-114385000D01*
X171037358Y-115245000D02*
X171422642Y-115245000D01*
X171120000Y-116925000D02*
X171422642Y-116925000D01*
X171120000Y-117785000D02*
X171422642Y-117785000D01*
X173577358Y-101685000D02*
X173890000Y-101685000D01*
X173577358Y-102545000D02*
X173890000Y-102545000D01*
X173577358Y-104225000D02*
X173890000Y-104225000D01*
X173577358Y-105085000D02*
X173890000Y-105085000D01*
X173577358Y-106765000D02*
X173890000Y-106765000D01*
X173577358Y-107625000D02*
X173890000Y-107625000D01*
X173577358Y-109305000D02*
X173890000Y-109305000D01*
X173577358Y-110165000D02*
X173890000Y-110165000D01*
X173577358Y-111845000D02*
X173890000Y-111845000D01*
X173577358Y-112705000D02*
X173890000Y-112705000D01*
X173577358Y-114385000D02*
X173890000Y-114385000D01*
X173577358Y-115245000D02*
X173890000Y-115245000D01*
X173577358Y-116925000D02*
X173890000Y-116925000D01*
X173577358Y-117785000D02*
X173890000Y-117785000D01*
X173890000Y-103385000D02*
X176650000Y-103385000D01*
X173890000Y-105925000D02*
X176650000Y-105925000D01*
X173890000Y-108465000D02*
X176650000Y-108465000D01*
X173890000Y-111005000D02*
X176650000Y-111005000D01*
X173890000Y-113545000D02*
X176650000Y-113545000D01*
X173890000Y-116085000D02*
X176650000Y-116085000D01*
X176650000Y-102545000D02*
X182650000Y-102545000D01*
X176650000Y-105085000D02*
X182650000Y-105085000D01*
X176650000Y-107625000D02*
X182650000Y-107625000D01*
X176650000Y-110165000D02*
X182650000Y-110165000D01*
X176650000Y-112705000D02*
X182650000Y-112705000D01*
X176650000Y-115245000D02*
X182650000Y-115245000D01*
X182650000Y-101685000D02*
X176650000Y-101685000D01*
X182650000Y-102545000D02*
X182650000Y-101685000D01*
X182650000Y-104225000D02*
X176650000Y-104225000D01*
X182650000Y-105085000D02*
X182650000Y-104225000D01*
X182650000Y-106765000D02*
X176650000Y-106765000D01*
X182650000Y-107625000D02*
X182650000Y-106765000D01*
X182650000Y-109305000D02*
X176650000Y-109305000D01*
X182650000Y-110165000D02*
X182650000Y-109305000D01*
X182650000Y-111845000D02*
X176650000Y-111845000D01*
X182650000Y-112705000D02*
X182650000Y-111845000D01*
X182650000Y-114385000D02*
X176650000Y-114385000D01*
X182650000Y-115245000D02*
X182650000Y-114385000D01*
X173890000Y-118735000D02*
X176650000Y-118735000D01*
X176650000Y-100735000D01*
X173890000Y-100735000D01*
X173890000Y-118735000D01*
X176650000Y-117785000D02*
X182650000Y-117785000D01*
X182650000Y-116925000D01*
X176650000Y-116925000D01*
X176650000Y-117785000D01*
G36*
X176650000Y-117785000D02*
G01*
X182650000Y-117785000D01*
X182650000Y-116925000D01*
X176650000Y-116925000D01*
X176650000Y-117785000D01*
G37*
%TD*%
M02*
