%TF.GenerationSoftware,KiCad,Pcbnew,9.0.7*%
%TF.CreationDate,2026-03-03T20:41:39+00:00*%
%TF.ProjectId,SPI_adapter,5350495f-6164-4617-9074-65722e6b6963,rev?*%
%TF.SameCoordinates,Original*%
%TF.FileFunction,Copper,L3,Inr*%
%TF.FilePolarity,Positive*%
%FSLAX46Y46*%
G04 Gerber Fmt 4.6, Leading zero omitted, Abs format (unit mm)*
G04 Created by KiCad (PCBNEW 9.0.7) date 2026-03-03 20:41:39*
%MOMM*%
%LPD*%
G01*
G04 APERTURE LIST*
%TA.AperFunction,ComponentPad*%
%ADD10C,0.970000*%
%TD*%
%TA.AperFunction,ComponentPad*%
%ADD11R,1.700000X1.700000*%
%TD*%
%TA.AperFunction,ComponentPad*%
%ADD12C,1.700000*%
%TD*%
%TA.AperFunction,ViaPad*%
%ADD13C,0.600000*%
%TD*%
%TA.AperFunction,Conductor*%
%ADD14C,0.800000*%
%TD*%
G04 APERTURE END LIST*
D10*
%TO.N,GND*%
%TO.C,J2*%
X83864493Y-96831261D03*
X83864493Y-105591261D03*
%TD*%
D11*
%TO.N,/RX_SWITCH*%
%TO.C,J1*%
X169960000Y-117355000D03*
D12*
%TO.N,/TX_SWITCH*%
X172500000Y-117355000D03*
%TO.N,GND*%
X169960000Y-114815000D03*
%TO.N,/RADIO_BUSY*%
X172500000Y-114815000D03*
%TO.N,/RADIO_DIO1*%
X169960000Y-112275000D03*
%TO.N,/RADIO_RST*%
X172500000Y-112275000D03*
%TO.N,/RADIO_TX*%
X169960000Y-109735000D03*
%TO.N,/RADIO_RX*%
X172500000Y-109735000D03*
%TO.N,/SPI_CS*%
X169960000Y-107195000D03*
%TO.N,/SPI_MISO*%
X172500000Y-107195000D03*
%TO.N,/SPI_MOSI*%
X169960000Y-104655000D03*
%TO.N,/SPI_SCK*%
X172500000Y-104655000D03*
%TO.N,GND*%
X169960000Y-102115000D03*
%TO.N,+3.3V*%
X172500000Y-102115000D03*
%TD*%
D13*
%TO.N,+3.3V*%
X96681350Y-106310140D03*
%TO.N,GND*%
X88369767Y-99766016D03*
X140668627Y-102000000D03*
X88374638Y-102559484D03*
X158889839Y-103383138D03*
X83927854Y-103484804D03*
X89209438Y-99757360D03*
X85552404Y-105598467D03*
X89214309Y-102550828D03*
X85781500Y-99774672D03*
X143782939Y-115500414D03*
X87495753Y-102562369D03*
X133686151Y-110000000D03*
X85023414Y-99811320D03*
X143668627Y-102000000D03*
X87490882Y-99768901D03*
X86621172Y-99783329D03*
X83892917Y-95065089D03*
X133500000Y-118500000D03*
X83840512Y-107677193D03*
X136686151Y-110000000D03*
X100773836Y-115529493D03*
X86626043Y-102576797D03*
X140782939Y-115500414D03*
X85028285Y-102604788D03*
X85786371Y-102568140D03*
X155451609Y-106772122D03*
X155889839Y-103383138D03*
X85517468Y-96829386D03*
X83857980Y-98698493D03*
X130500000Y-118500000D03*
X158451609Y-106772122D03*
%TO.N,/RX_SWITCH*%
X103000000Y-116500000D03*
%TO.N,/TX_SWITCH*%
X103500000Y-119500000D03*
%TO.N,/SPI_MISO*%
X113500000Y-108500000D03*
%TO.N,/RADIO_DIO1*%
X95000000Y-113500000D03*
%TO.N,/SPI_CS*%
X114500000Y-105000000D03*
X112500000Y-103000000D03*
%TD*%
D14*
%TO.N,+3.3V*%
X96681350Y-106310140D02*
X102991490Y-100000000D01*
X170385000Y-100000000D02*
X172500000Y-102115000D01*
X102991490Y-100000000D02*
X170385000Y-100000000D01*
%TD*%
%TA.AperFunction,NonConductor*%
G36*
X176442538Y-93020185D02*
G01*
X176488293Y-93072989D01*
X176499499Y-93124500D01*
X176499499Y-126375500D01*
X176479814Y-126442539D01*
X176427010Y-126488294D01*
X176375499Y-126499500D01*
X78124499Y-126499500D01*
X78057460Y-126479815D01*
X78011705Y-126427011D01*
X78000499Y-126375500D01*
X78000499Y-123359568D01*
X78499500Y-123359568D01*
X78499500Y-123640431D01*
X78530942Y-123919494D01*
X78530945Y-123919512D01*
X78593439Y-124193317D01*
X78593443Y-124193329D01*
X78686200Y-124458411D01*
X78808053Y-124711442D01*
X78808055Y-124711445D01*
X78957477Y-124949248D01*
X79132584Y-125168825D01*
X79331175Y-125367416D01*
X79550752Y-125542523D01*
X79788555Y-125691945D01*
X79788557Y-125691946D01*
X79844850Y-125719055D01*
X80041592Y-125813801D01*
X80207401Y-125871820D01*
X80306670Y-125906556D01*
X80306682Y-125906560D01*
X80580491Y-125969055D01*
X80580497Y-125969055D01*
X80580505Y-125969057D01*
X80766547Y-125990018D01*
X80859569Y-126000499D01*
X80859572Y-126000500D01*
X80859575Y-126000500D01*
X81140428Y-126000500D01*
X81140429Y-126000499D01*
X81283055Y-125984429D01*
X81419494Y-125969057D01*
X81419499Y-125969056D01*
X81419509Y-125969055D01*
X81693318Y-125906560D01*
X81958408Y-125813801D01*
X82211445Y-125691945D01*
X82449248Y-125542523D01*
X82668825Y-125367416D01*
X82867416Y-125168825D01*
X83042523Y-124949248D01*
X83191945Y-124711445D01*
X83313801Y-124458408D01*
X83406560Y-124193318D01*
X83469055Y-123919509D01*
X83500500Y-123640425D01*
X83500500Y-123359575D01*
X83472332Y-123109572D01*
X83471564Y-123102757D01*
X122878178Y-123102757D01*
X122878178Y-123397242D01*
X122911147Y-123689850D01*
X122911149Y-123689866D01*
X122976675Y-123976956D01*
X122976679Y-123976968D01*
X123073933Y-124254901D01*
X123073942Y-124254923D01*
X123201700Y-124520217D01*
X123201704Y-124520223D01*
X123358375Y-124769563D01*
X123450718Y-124885357D01*
X123538057Y-124994878D01*
X123541978Y-124999794D01*
X123750205Y-125208021D01*
X123980436Y-125391624D01*
X124220590Y-125542523D01*
X124229781Y-125548298D01*
X124495075Y-125676056D01*
X124495084Y-125676059D01*
X124495091Y-125676063D01*
X124495097Y-125676065D01*
X124773030Y-125773319D01*
X124773042Y-125773323D01*
X125060136Y-125838850D01*
X125352757Y-125871820D01*
X125352758Y-125871821D01*
X125352761Y-125871821D01*
X125647240Y-125871821D01*
X125647240Y-125871820D01*
X125939862Y-125838850D01*
X126226956Y-125773323D01*
X126504907Y-125676063D01*
X126738028Y-125563799D01*
X126770216Y-125548298D01*
X126770216Y-125548297D01*
X126770222Y-125548295D01*
X127019562Y-125391624D01*
X127249793Y-125208021D01*
X127458020Y-124999794D01*
X127641623Y-124769563D01*
X127798294Y-124520223D01*
X127828062Y-124458408D01*
X127926055Y-124254923D01*
X127926056Y-124254919D01*
X127926062Y-124254908D01*
X128023322Y-123976957D01*
X128088849Y-123689863D01*
X128121820Y-123397238D01*
X128121820Y-123109568D01*
X170999500Y-123109568D01*
X170999500Y-123390431D01*
X171030942Y-123669494D01*
X171030945Y-123669512D01*
X171093439Y-123943317D01*
X171093443Y-123943329D01*
X171186200Y-124208411D01*
X171308053Y-124461442D01*
X171308055Y-124461445D01*
X171457477Y-124699248D01*
X171632584Y-124918825D01*
X171831175Y-125117416D01*
X172050752Y-125292523D01*
X172288555Y-125441945D01*
X172541592Y-125563801D01*
X172740680Y-125633465D01*
X172806670Y-125656556D01*
X172806682Y-125656560D01*
X173080491Y-125719055D01*
X173080497Y-125719055D01*
X173080505Y-125719057D01*
X173266547Y-125740018D01*
X173359569Y-125750499D01*
X173359572Y-125750500D01*
X173359575Y-125750500D01*
X173640428Y-125750500D01*
X173640429Y-125750499D01*
X173783055Y-125734429D01*
X173919494Y-125719057D01*
X173919499Y-125719056D01*
X173919509Y-125719055D01*
X174193318Y-125656560D01*
X174458408Y-125563801D01*
X174711445Y-125441945D01*
X174949248Y-125292523D01*
X175168825Y-125117416D01*
X175367416Y-124918825D01*
X175542523Y-124699248D01*
X175691945Y-124461445D01*
X175813801Y-124208408D01*
X175906560Y-123943318D01*
X175969055Y-123669509D01*
X175972332Y-123640431D01*
X176000499Y-123390431D01*
X176000500Y-123390427D01*
X176000500Y-123109572D01*
X176000499Y-123109568D01*
X175997224Y-123080505D01*
X175969055Y-122830491D01*
X175906560Y-122556682D01*
X175901278Y-122541588D01*
X175883465Y-122490680D01*
X175813801Y-122291592D01*
X175691945Y-122038555D01*
X175542523Y-121800752D01*
X175367416Y-121581175D01*
X175168825Y-121382584D01*
X174949248Y-121207477D01*
X174711445Y-121058055D01*
X174711442Y-121058053D01*
X174458411Y-120936200D01*
X174193329Y-120843443D01*
X174193317Y-120843439D01*
X173919512Y-120780945D01*
X173919494Y-120780942D01*
X173640431Y-120749500D01*
X173640425Y-120749500D01*
X173359575Y-120749500D01*
X173359568Y-120749500D01*
X173080505Y-120780942D01*
X173080487Y-120780945D01*
X172806682Y-120843439D01*
X172806670Y-120843443D01*
X172541588Y-120936200D01*
X172288557Y-121058053D01*
X172050753Y-121207476D01*
X171831175Y-121382583D01*
X171632583Y-121581175D01*
X171457476Y-121800753D01*
X171308053Y-122038557D01*
X171186200Y-122291588D01*
X171093443Y-122556670D01*
X171093439Y-122556682D01*
X171030945Y-122830487D01*
X171030942Y-122830505D01*
X170999500Y-123109568D01*
X128121820Y-123109568D01*
X128121820Y-123102762D01*
X128088849Y-122810137D01*
X128023322Y-122523043D01*
X127926062Y-122245092D01*
X127926058Y-122245085D01*
X127926055Y-122245076D01*
X127798297Y-121979782D01*
X127704921Y-121831175D01*
X127641623Y-121730437D01*
X127458020Y-121500206D01*
X127249793Y-121291979D01*
X127019562Y-121108376D01*
X126770222Y-120951705D01*
X126770223Y-120951705D01*
X126770216Y-120951701D01*
X126504922Y-120823943D01*
X126504900Y-120823934D01*
X126226967Y-120726680D01*
X126226955Y-120726676D01*
X125939865Y-120661150D01*
X125939849Y-120661148D01*
X125647241Y-120628179D01*
X125647237Y-120628179D01*
X125352761Y-120628179D01*
X125352756Y-120628179D01*
X125060148Y-120661148D01*
X125060132Y-120661150D01*
X124773042Y-120726676D01*
X124773030Y-120726680D01*
X124495097Y-120823934D01*
X124495075Y-120823943D01*
X124229781Y-120951701D01*
X123980437Y-121108375D01*
X123750205Y-121291978D01*
X123541977Y-121500206D01*
X123358374Y-121730438D01*
X123201700Y-121979782D01*
X123073942Y-122245076D01*
X123073933Y-122245098D01*
X122976679Y-122523031D01*
X122976675Y-122523043D01*
X122911149Y-122810133D01*
X122911147Y-122810149D01*
X122878178Y-123102757D01*
X83471564Y-123102757D01*
X83469057Y-123080504D01*
X83469054Y-123080487D01*
X83406560Y-122806680D01*
X83406556Y-122806670D01*
X83383465Y-122740680D01*
X83313801Y-122541592D01*
X83191945Y-122288555D01*
X83042523Y-122050752D01*
X82867416Y-121831175D01*
X82668825Y-121632584D01*
X82449248Y-121457477D01*
X82211445Y-121308055D01*
X82211442Y-121308053D01*
X81958411Y-121186200D01*
X81693329Y-121093443D01*
X81693317Y-121093439D01*
X81419512Y-121030945D01*
X81419494Y-121030942D01*
X81140431Y-120999500D01*
X81140425Y-120999500D01*
X80859575Y-120999500D01*
X80859568Y-120999500D01*
X80580505Y-121030942D01*
X80580487Y-121030945D01*
X80306682Y-121093439D01*
X80306670Y-121093443D01*
X80041588Y-121186200D01*
X79788557Y-121308053D01*
X79550753Y-121457476D01*
X79331175Y-121632583D01*
X79132583Y-121831175D01*
X78957476Y-122050753D01*
X78808053Y-122288557D01*
X78686200Y-122541588D01*
X78593443Y-122806670D01*
X78593440Y-122806680D01*
X78530945Y-123080487D01*
X78530942Y-123080505D01*
X78499500Y-123359568D01*
X78000499Y-123359568D01*
X78000499Y-119421153D01*
X102699500Y-119421153D01*
X102699500Y-119578846D01*
X102730261Y-119733489D01*
X102730264Y-119733501D01*
X102790602Y-119879172D01*
X102790609Y-119879185D01*
X102878210Y-120010288D01*
X102878213Y-120010292D01*
X102989707Y-120121786D01*
X102989711Y-120121789D01*
X103120814Y-120209390D01*
X103120827Y-120209397D01*
X103266498Y-120269735D01*
X103266503Y-120269737D01*
X103421153Y-120300499D01*
X103421156Y-120300500D01*
X103421158Y-120300500D01*
X103578844Y-120300500D01*
X103578845Y-120300499D01*
X103733497Y-120269737D01*
X103879179Y-120209394D01*
X104010289Y-120121789D01*
X104121789Y-120010289D01*
X104209394Y-119879179D01*
X104269737Y-119733497D01*
X104300500Y-119578842D01*
X104300500Y-119421158D01*
X104300500Y-119421155D01*
X104300499Y-119421153D01*
X104269738Y-119266510D01*
X104269737Y-119266503D01*
X104209794Y-119121786D01*
X104209397Y-119120827D01*
X104209390Y-119120814D01*
X104121789Y-118989711D01*
X104121786Y-118989707D01*
X104010292Y-118878213D01*
X104010288Y-118878210D01*
X103879185Y-118790609D01*
X103879172Y-118790602D01*
X103733501Y-118730264D01*
X103733489Y-118730261D01*
X103578845Y-118699500D01*
X103578842Y-118699500D01*
X103421158Y-118699500D01*
X103421155Y-118699500D01*
X103266510Y-118730261D01*
X103266498Y-118730264D01*
X103120827Y-118790602D01*
X103120814Y-118790609D01*
X102989711Y-118878210D01*
X102989707Y-118878213D01*
X102878213Y-118989707D01*
X102878210Y-118989711D01*
X102790609Y-119120814D01*
X102790602Y-119120827D01*
X102730264Y-119266498D01*
X102730261Y-119266510D01*
X102699500Y-119421153D01*
X78000499Y-119421153D01*
X78000499Y-118421153D01*
X129699500Y-118421153D01*
X129699500Y-118578846D01*
X129730261Y-118733489D01*
X129730264Y-118733501D01*
X129790602Y-118879172D01*
X129790609Y-118879185D01*
X129878210Y-119010288D01*
X129878213Y-119010292D01*
X129989707Y-119121786D01*
X129989711Y-119121789D01*
X130120814Y-119209390D01*
X130120827Y-119209397D01*
X130258683Y-119266498D01*
X130266503Y-119269737D01*
X130421153Y-119300499D01*
X130421156Y-119300500D01*
X130421158Y-119300500D01*
X130578844Y-119300500D01*
X130578845Y-119300499D01*
X130733497Y-119269737D01*
X130879179Y-119209394D01*
X131010289Y-119121789D01*
X131121789Y-119010289D01*
X131209394Y-118879179D01*
X131269737Y-118733497D01*
X131300500Y-118578842D01*
X131300500Y-118421158D01*
X131300500Y-118421155D01*
X131300499Y-118421153D01*
X132699500Y-118421153D01*
X132699500Y-118578846D01*
X132730261Y-118733489D01*
X132730264Y-118733501D01*
X132790602Y-118879172D01*
X132790609Y-118879185D01*
X132878210Y-119010288D01*
X132878213Y-119010292D01*
X132989707Y-119121786D01*
X132989711Y-119121789D01*
X133120814Y-119209390D01*
X133120827Y-119209397D01*
X133258683Y-119266498D01*
X133266503Y-119269737D01*
X133421153Y-119300499D01*
X133421156Y-119300500D01*
X133421158Y-119300500D01*
X133578844Y-119300500D01*
X133578845Y-119300499D01*
X133733497Y-119269737D01*
X133879179Y-119209394D01*
X134010289Y-119121789D01*
X134121789Y-119010289D01*
X134209394Y-118879179D01*
X134269737Y-118733497D01*
X134300500Y-118578842D01*
X134300500Y-118421158D01*
X134300500Y-118421155D01*
X134300499Y-118421153D01*
X134278883Y-118312483D01*
X134269737Y-118266503D01*
X134256602Y-118234792D01*
X134209397Y-118120827D01*
X134209390Y-118120814D01*
X134121789Y-117989711D01*
X134121786Y-117989707D01*
X134010292Y-117878213D01*
X134010288Y-117878210D01*
X133879185Y-117790609D01*
X133879172Y-117790602D01*
X133733501Y-117730264D01*
X133733489Y-117730261D01*
X133578845Y-117699500D01*
X133578842Y-117699500D01*
X133421158Y-117699500D01*
X133421155Y-117699500D01*
X133266510Y-117730261D01*
X133266498Y-117730264D01*
X133120827Y-117790602D01*
X133120814Y-117790609D01*
X132989711Y-117878210D01*
X132989707Y-117878213D01*
X132878213Y-117989707D01*
X132878210Y-117989711D01*
X132790609Y-118120814D01*
X132790602Y-118120827D01*
X132730264Y-118266498D01*
X132730261Y-118266510D01*
X132699500Y-118421153D01*
X131300499Y-118421153D01*
X131278883Y-118312483D01*
X131269737Y-118266503D01*
X131256602Y-118234792D01*
X131209397Y-118120827D01*
X131209390Y-118120814D01*
X131121789Y-117989711D01*
X131121786Y-117989707D01*
X131010292Y-117878213D01*
X131010288Y-117878210D01*
X130879185Y-117790609D01*
X130879172Y-117790602D01*
X130733501Y-117730264D01*
X130733489Y-117730261D01*
X130578845Y-117699500D01*
X130578842Y-117699500D01*
X130421158Y-117699500D01*
X130421155Y-117699500D01*
X130266510Y-117730261D01*
X130266498Y-117730264D01*
X130120827Y-117790602D01*
X130120814Y-117790609D01*
X129989711Y-117878210D01*
X129989707Y-117878213D01*
X129878213Y-117989707D01*
X129878210Y-117989711D01*
X129790609Y-118120814D01*
X129790602Y-118120827D01*
X129730264Y-118266498D01*
X129730261Y-118266510D01*
X129699500Y-118421153D01*
X78000499Y-118421153D01*
X78000499Y-116421153D01*
X102199500Y-116421153D01*
X102199500Y-116578846D01*
X102230261Y-116733489D01*
X102230264Y-116733501D01*
X102290602Y-116879172D01*
X102290609Y-116879185D01*
X102378210Y-117010288D01*
X102378213Y-117010292D01*
X102489707Y-117121786D01*
X102489711Y-117121789D01*
X102620814Y-117209390D01*
X102620827Y-117209397D01*
X102715746Y-117248713D01*
X102766503Y-117269737D01*
X102921153Y-117300499D01*
X102921156Y-117300500D01*
X102921158Y-117300500D01*
X103078844Y-117300500D01*
X103078845Y-117300499D01*
X103233497Y-117269737D01*
X103379179Y-117209394D01*
X103510289Y-117121789D01*
X103621789Y-117010289D01*
X103709394Y-116879179D01*
X103769737Y-116733497D01*
X103800500Y-116578842D01*
X103800500Y-116421158D01*
X103800500Y-116421155D01*
X103800499Y-116421153D01*
X103776582Y-116300914D01*
X103769737Y-116266503D01*
X103768147Y-116262664D01*
X103709397Y-116120827D01*
X103709390Y-116120814D01*
X103621789Y-115989711D01*
X103621786Y-115989707D01*
X103510292Y-115878213D01*
X103510288Y-115878210D01*
X103379185Y-115790609D01*
X103379172Y-115790602D01*
X103233501Y-115730264D01*
X103233489Y-115730261D01*
X103078845Y-115699500D01*
X103078842Y-115699500D01*
X102921158Y-115699500D01*
X102921155Y-115699500D01*
X102766510Y-115730261D01*
X102766498Y-115730264D01*
X102620827Y-115790602D01*
X102620814Y-115790609D01*
X102489711Y-115878210D01*
X102489707Y-115878213D01*
X102378213Y-115989707D01*
X102378210Y-115989711D01*
X102290609Y-116120814D01*
X102290602Y-116120827D01*
X102230264Y-116266498D01*
X102230261Y-116266510D01*
X102199500Y-116421153D01*
X78000499Y-116421153D01*
X78000499Y-113359568D01*
X78499500Y-113359568D01*
X78499500Y-113640431D01*
X78530942Y-113919494D01*
X78530945Y-113919512D01*
X78593439Y-114193317D01*
X78593443Y-114193329D01*
X78686200Y-114458411D01*
X78808053Y-114711442D01*
X78850210Y-114778534D01*
X78957477Y-114949248D01*
X79132584Y-115168825D01*
X79331175Y-115367416D01*
X79550752Y-115542523D01*
X79788555Y-115691945D01*
X80041592Y-115813801D01*
X80225662Y-115878210D01*
X80306670Y-115906556D01*
X80306682Y-115906560D01*
X80580491Y-115969055D01*
X80580497Y-115969055D01*
X80580505Y-115969057D01*
X80763784Y-115989707D01*
X80859569Y-116000499D01*
X80859572Y-116000500D01*
X80859575Y-116000500D01*
X81140428Y-116000500D01*
X81140429Y-116000499D01*
X81283055Y-115984429D01*
X81419494Y-115969057D01*
X81419499Y-115969056D01*
X81419509Y-115969055D01*
X81693318Y-115906560D01*
X81958408Y-115813801D01*
X82211445Y-115691945D01*
X82449248Y-115542523D01*
X82564458Y-115450646D01*
X99973336Y-115450646D01*
X99973336Y-115608339D01*
X100004097Y-115762982D01*
X100004100Y-115762994D01*
X100064438Y-115908665D01*
X100064445Y-115908678D01*
X100152046Y-116039781D01*
X100152049Y-116039785D01*
X100263543Y-116151279D01*
X100263547Y-116151282D01*
X100394650Y-116238883D01*
X100394663Y-116238890D01*
X100540334Y-116299228D01*
X100540339Y-116299230D01*
X100669335Y-116324889D01*
X100694989Y-116329992D01*
X100694992Y-116329993D01*
X100694994Y-116329993D01*
X100852680Y-116329993D01*
X100852681Y-116329992D01*
X101007333Y-116299230D01*
X101153015Y-116238887D01*
X101284125Y-116151282D01*
X101395625Y-116039782D01*
X101483230Y-115908672D01*
X101484107Y-115906556D01*
X101509558Y-115845109D01*
X101543573Y-115762990D01*
X101574336Y-115608335D01*
X101574336Y-115450651D01*
X101572152Y-115439669D01*
X101572152Y-115439667D01*
X101568552Y-115421567D01*
X139982439Y-115421567D01*
X139982439Y-115579260D01*
X140013200Y-115733903D01*
X140013203Y-115733915D01*
X140073541Y-115879586D01*
X140073548Y-115879599D01*
X140161149Y-116010702D01*
X140161152Y-116010706D01*
X140272646Y-116122200D01*
X140272650Y-116122203D01*
X140403753Y-116209804D01*
X140403766Y-116209811D01*
X140540623Y-116266498D01*
X140549442Y-116270151D01*
X140695621Y-116299228D01*
X140704092Y-116300913D01*
X140704095Y-116300914D01*
X140704097Y-116300914D01*
X140861783Y-116300914D01*
X140861784Y-116300913D01*
X141016436Y-116270151D01*
X141162118Y-116209808D01*
X141293228Y-116122203D01*
X141404728Y-116010703D01*
X141492333Y-115879593D01*
X141492906Y-115878211D01*
X141519585Y-115813801D01*
X141552676Y-115733911D01*
X141583439Y-115579256D01*
X141583439Y-115421572D01*
X141583439Y-115421569D01*
X141583438Y-115421567D01*
X142982439Y-115421567D01*
X142982439Y-115579260D01*
X143013200Y-115733903D01*
X143013203Y-115733915D01*
X143073541Y-115879586D01*
X143073548Y-115879599D01*
X143161149Y-116010702D01*
X143161152Y-116010706D01*
X143272646Y-116122200D01*
X143272650Y-116122203D01*
X143403753Y-116209804D01*
X143403766Y-116209811D01*
X143540623Y-116266498D01*
X143549442Y-116270151D01*
X143695621Y-116299228D01*
X143704092Y-116300913D01*
X143704095Y-116300914D01*
X143704097Y-116300914D01*
X143861783Y-116300914D01*
X143861784Y-116300913D01*
X144016436Y-116270151D01*
X144162118Y-116209808D01*
X144293228Y-116122203D01*
X144404728Y-116010703D01*
X144492333Y-115879593D01*
X144492906Y-115878211D01*
X144519585Y-115813801D01*
X144552676Y-115733911D01*
X144583439Y-115579256D01*
X144583439Y-115421572D01*
X144583439Y-115421569D01*
X144583438Y-115421567D01*
X144552676Y-115266917D01*
X144552674Y-115266912D01*
X144492336Y-115121241D01*
X144492329Y-115121228D01*
X144404728Y-114990125D01*
X144404725Y-114990121D01*
X144293231Y-114878627D01*
X144293227Y-114878624D01*
X144162124Y-114791023D01*
X144162111Y-114791016D01*
X144016440Y-114730678D01*
X144016428Y-114730675D01*
X143861784Y-114699914D01*
X143861781Y-114699914D01*
X143704097Y-114699914D01*
X143704094Y-114699914D01*
X143549449Y-114730675D01*
X143549437Y-114730678D01*
X143403766Y-114791016D01*
X143403753Y-114791023D01*
X143272650Y-114878624D01*
X143272646Y-114878627D01*
X143161152Y-114990121D01*
X143161149Y-114990125D01*
X143073548Y-115121228D01*
X143073541Y-115121241D01*
X143013203Y-115266912D01*
X143013200Y-115266924D01*
X142982439Y-115421567D01*
X141583438Y-115421567D01*
X141552676Y-115266917D01*
X141552674Y-115266912D01*
X141492336Y-115121241D01*
X141492329Y-115121228D01*
X141404728Y-114990125D01*
X141404725Y-114990121D01*
X141293231Y-114878627D01*
X141293227Y-114878624D01*
X141162124Y-114791023D01*
X141162111Y-114791016D01*
X141016440Y-114730678D01*
X141016428Y-114730675D01*
X140861784Y-114699914D01*
X140861781Y-114699914D01*
X140704097Y-114699914D01*
X140704094Y-114699914D01*
X140549449Y-114730675D01*
X140549437Y-114730678D01*
X140403766Y-114791016D01*
X140403753Y-114791023D01*
X140272650Y-114878624D01*
X140272646Y-114878627D01*
X140161152Y-114990121D01*
X140161149Y-114990125D01*
X140073548Y-115121228D01*
X140073541Y-115121241D01*
X140013203Y-115266912D01*
X140013200Y-115266924D01*
X139982439Y-115421567D01*
X101568552Y-115421567D01*
X101543574Y-115296001D01*
X101543573Y-115296000D01*
X101543573Y-115295996D01*
X101531526Y-115266912D01*
X101483233Y-115150320D01*
X101483226Y-115150307D01*
X101395625Y-115019204D01*
X101395622Y-115019200D01*
X101284128Y-114907706D01*
X101284124Y-114907703D01*
X101153021Y-114820102D01*
X101153008Y-114820095D01*
X101007337Y-114759757D01*
X101007325Y-114759754D01*
X100852681Y-114728993D01*
X100852678Y-114728993D01*
X100694994Y-114728993D01*
X100694991Y-114728993D01*
X100540346Y-114759754D01*
X100540334Y-114759757D01*
X100394663Y-114820095D01*
X100394650Y-114820102D01*
X100263547Y-114907703D01*
X100263543Y-114907706D01*
X100152049Y-115019200D01*
X100152046Y-115019204D01*
X100064445Y-115150307D01*
X100064438Y-115150320D01*
X100004100Y-115295991D01*
X100004097Y-115296003D01*
X99973336Y-115450646D01*
X82564458Y-115450646D01*
X82668825Y-115367416D01*
X82867416Y-115168825D01*
X83042523Y-114949248D01*
X83191945Y-114711445D01*
X83313801Y-114458408D01*
X83406560Y-114193318D01*
X83469055Y-113919509D01*
X83473599Y-113879185D01*
X83500499Y-113640431D01*
X83500500Y-113640427D01*
X83500500Y-113421153D01*
X94199500Y-113421153D01*
X94199500Y-113578846D01*
X94230261Y-113733489D01*
X94230264Y-113733501D01*
X94290602Y-113879172D01*
X94290609Y-113879185D01*
X94378210Y-114010288D01*
X94378213Y-114010292D01*
X94489707Y-114121786D01*
X94489711Y-114121789D01*
X94620814Y-114209390D01*
X94620827Y-114209397D01*
X94766498Y-114269735D01*
X94766503Y-114269737D01*
X94901476Y-114296585D01*
X94921153Y-114300499D01*
X94921156Y-114300500D01*
X94921158Y-114300500D01*
X95078844Y-114300500D01*
X95078845Y-114300499D01*
X95233497Y-114269737D01*
X95379179Y-114209394D01*
X95510289Y-114121789D01*
X95621789Y-114010289D01*
X95709394Y-113879179D01*
X95769737Y-113733497D01*
X95800500Y-113578842D01*
X95800500Y-113421158D01*
X95800500Y-113421155D01*
X95800499Y-113421153D01*
X95769738Y-113266510D01*
X95769737Y-113266503D01*
X95769735Y-113266498D01*
X95709397Y-113120827D01*
X95709390Y-113120814D01*
X95621789Y-112989711D01*
X95621786Y-112989707D01*
X95510292Y-112878213D01*
X95510288Y-112878210D01*
X95379185Y-112790609D01*
X95379172Y-112790602D01*
X95233501Y-112730264D01*
X95233489Y-112730261D01*
X95078845Y-112699500D01*
X95078842Y-112699500D01*
X94921158Y-112699500D01*
X94921155Y-112699500D01*
X94766510Y-112730261D01*
X94766498Y-112730264D01*
X94620827Y-112790602D01*
X94620814Y-112790609D01*
X94489711Y-112878210D01*
X94489707Y-112878213D01*
X94378213Y-112989707D01*
X94378210Y-112989711D01*
X94290609Y-113120814D01*
X94290602Y-113120827D01*
X94230264Y-113266498D01*
X94230261Y-113266510D01*
X94199500Y-113421153D01*
X83500500Y-113421153D01*
X83500500Y-113359572D01*
X83500499Y-113359568D01*
X83469057Y-113080505D01*
X83469054Y-113080487D01*
X83406560Y-112806682D01*
X83406556Y-112806670D01*
X83379819Y-112730261D01*
X83313801Y-112541592D01*
X83191945Y-112288555D01*
X83042523Y-112050752D01*
X82867416Y-111831175D01*
X82668825Y-111632584D01*
X82661499Y-111626742D01*
X82586816Y-111567184D01*
X82449248Y-111457477D01*
X82211445Y-111308055D01*
X82211442Y-111308053D01*
X81958411Y-111186200D01*
X81693329Y-111093443D01*
X81693317Y-111093439D01*
X81419512Y-111030945D01*
X81419494Y-111030942D01*
X81140431Y-110999500D01*
X81140425Y-110999500D01*
X80859575Y-110999500D01*
X80859568Y-110999500D01*
X80580505Y-111030942D01*
X80580487Y-111030945D01*
X80306682Y-111093439D01*
X80306670Y-111093443D01*
X80041588Y-111186200D01*
X79788557Y-111308053D01*
X79550753Y-111457476D01*
X79331175Y-111632583D01*
X79132583Y-111831175D01*
X78957476Y-112050753D01*
X78808053Y-112288557D01*
X78686200Y-112541588D01*
X78593443Y-112806670D01*
X78593439Y-112806682D01*
X78530945Y-113080487D01*
X78530942Y-113080505D01*
X78499500Y-113359568D01*
X78000499Y-113359568D01*
X78000499Y-109921153D01*
X132885651Y-109921153D01*
X132885651Y-110078846D01*
X132916412Y-110233489D01*
X132916415Y-110233501D01*
X132976753Y-110379172D01*
X132976760Y-110379185D01*
X133064361Y-110510288D01*
X133064364Y-110510292D01*
X133175858Y-110621786D01*
X133175862Y-110621789D01*
X133306965Y-110709390D01*
X133306978Y-110709397D01*
X133441469Y-110765104D01*
X133452654Y-110769737D01*
X133607304Y-110800499D01*
X133607307Y-110800500D01*
X133607309Y-110800500D01*
X133764995Y-110800500D01*
X133764996Y-110800499D01*
X133919648Y-110769737D01*
X134065330Y-110709394D01*
X134196440Y-110621789D01*
X134307940Y-110510289D01*
X134395545Y-110379179D01*
X134455888Y-110233497D01*
X134486651Y-110078842D01*
X134486651Y-109921158D01*
X134486651Y-109921155D01*
X134486650Y-109921153D01*
X135885651Y-109921153D01*
X135885651Y-110078846D01*
X135916412Y-110233489D01*
X135916415Y-110233501D01*
X135976753Y-110379172D01*
X135976760Y-110379185D01*
X136064361Y-110510288D01*
X136064364Y-110510292D01*
X136175858Y-110621786D01*
X136175862Y-110621789D01*
X136306965Y-110709390D01*
X136306978Y-110709397D01*
X136441469Y-110765104D01*
X136452654Y-110769737D01*
X136607304Y-110800499D01*
X136607307Y-110800500D01*
X136607309Y-110800500D01*
X136764995Y-110800500D01*
X136764996Y-110800499D01*
X136919648Y-110769737D01*
X137065330Y-110709394D01*
X137196440Y-110621789D01*
X137307940Y-110510289D01*
X137395545Y-110379179D01*
X137455888Y-110233497D01*
X137486651Y-110078842D01*
X137486651Y-109921158D01*
X137486651Y-109921155D01*
X137486650Y-109921153D01*
X137455888Y-109766503D01*
X137398814Y-109628713D01*
X137395548Y-109620827D01*
X137395541Y-109620814D01*
X137307940Y-109489711D01*
X137307937Y-109489707D01*
X137196443Y-109378213D01*
X137196439Y-109378210D01*
X137065336Y-109290609D01*
X137065323Y-109290602D01*
X136919652Y-109230264D01*
X136919640Y-109230261D01*
X136764996Y-109199500D01*
X136764993Y-109199500D01*
X136607309Y-109199500D01*
X136607306Y-109199500D01*
X136452661Y-109230261D01*
X136452649Y-109230264D01*
X136306978Y-109290602D01*
X136306965Y-109290609D01*
X136175862Y-109378210D01*
X136175858Y-109378213D01*
X136064364Y-109489707D01*
X136064361Y-109489711D01*
X135976760Y-109620814D01*
X135976753Y-109620827D01*
X135916415Y-109766498D01*
X135916412Y-109766510D01*
X135885651Y-109921153D01*
X134486650Y-109921153D01*
X134455888Y-109766503D01*
X134398814Y-109628713D01*
X134395548Y-109620827D01*
X134395541Y-109620814D01*
X134307940Y-109489711D01*
X134307937Y-109489707D01*
X134196443Y-109378213D01*
X134196439Y-109378210D01*
X134065336Y-109290609D01*
X134065323Y-109290602D01*
X133919652Y-109230264D01*
X133919640Y-109230261D01*
X133764996Y-109199500D01*
X133764993Y-109199500D01*
X133607309Y-109199500D01*
X133607306Y-109199500D01*
X133452661Y-109230261D01*
X133452649Y-109230264D01*
X133306978Y-109290602D01*
X133306965Y-109290609D01*
X133175862Y-109378210D01*
X133175858Y-109378213D01*
X133064364Y-109489707D01*
X133064361Y-109489711D01*
X132976760Y-109620814D01*
X132976753Y-109620827D01*
X132916415Y-109766498D01*
X132916412Y-109766510D01*
X132885651Y-109921153D01*
X78000499Y-109921153D01*
X78000499Y-107598346D01*
X83040012Y-107598346D01*
X83040012Y-107756039D01*
X83070773Y-107910682D01*
X83070776Y-107910694D01*
X83131114Y-108056365D01*
X83131121Y-108056378D01*
X83218722Y-108187481D01*
X83218725Y-108187485D01*
X83330219Y-108298979D01*
X83330223Y-108298982D01*
X83461326Y-108386583D01*
X83461339Y-108386590D01*
X83544783Y-108421153D01*
X83607015Y-108446930D01*
X83761665Y-108477692D01*
X83761668Y-108477693D01*
X83761670Y-108477693D01*
X83919356Y-108477693D01*
X83919357Y-108477692D01*
X84074009Y-108446930D01*
X84136241Y-108421153D01*
X112699500Y-108421153D01*
X112699500Y-108578846D01*
X112730261Y-108733489D01*
X112730264Y-108733501D01*
X112790602Y-108879172D01*
X112790609Y-108879185D01*
X112878210Y-109010288D01*
X112878213Y-109010292D01*
X112989707Y-109121786D01*
X112989711Y-109121789D01*
X113120814Y-109209390D01*
X113120827Y-109209397D01*
X113266498Y-109269735D01*
X113266503Y-109269737D01*
X113421153Y-109300499D01*
X113421156Y-109300500D01*
X113421158Y-109300500D01*
X113578844Y-109300500D01*
X113578845Y-109300499D01*
X113733497Y-109269737D01*
X113879179Y-109209394D01*
X114010289Y-109121789D01*
X114121789Y-109010289D01*
X114209394Y-108879179D01*
X114269737Y-108733497D01*
X114300500Y-108578842D01*
X114300500Y-108421158D01*
X114300500Y-108421155D01*
X114300499Y-108421153D01*
X114293623Y-108386587D01*
X114269737Y-108266503D01*
X114237006Y-108187482D01*
X114209397Y-108120827D01*
X114209390Y-108120814D01*
X114121789Y-107989711D01*
X114121786Y-107989707D01*
X114010292Y-107878213D01*
X114010288Y-107878210D01*
X113879185Y-107790609D01*
X113879172Y-107790602D01*
X113733501Y-107730264D01*
X113733489Y-107730261D01*
X113578845Y-107699500D01*
X113578842Y-107699500D01*
X113421158Y-107699500D01*
X113421155Y-107699500D01*
X113266510Y-107730261D01*
X113266498Y-107730264D01*
X113120827Y-107790602D01*
X113120814Y-107790609D01*
X112989711Y-107878210D01*
X112989707Y-107878213D01*
X112878213Y-107989707D01*
X112878210Y-107989711D01*
X112790609Y-108120814D01*
X112790602Y-108120827D01*
X112730264Y-108266498D01*
X112730261Y-108266510D01*
X112699500Y-108421153D01*
X84136241Y-108421153D01*
X84219691Y-108386587D01*
X84350801Y-108298982D01*
X84462301Y-108187482D01*
X84549906Y-108056372D01*
X84610249Y-107910690D01*
X84641012Y-107756035D01*
X84641012Y-107598351D01*
X84641012Y-107598348D01*
X84641011Y-107598346D01*
X84629775Y-107541859D01*
X84610249Y-107443696D01*
X84589628Y-107393911D01*
X84549909Y-107298020D01*
X84549902Y-107298007D01*
X84462301Y-107166904D01*
X84462298Y-107166900D01*
X84350804Y-107055406D01*
X84350800Y-107055403D01*
X84219697Y-106967802D01*
X84219684Y-106967795D01*
X84074013Y-106907457D01*
X84074001Y-106907454D01*
X83919357Y-106876693D01*
X83919354Y-106876693D01*
X83761670Y-106876693D01*
X83761667Y-106876693D01*
X83607022Y-106907454D01*
X83607010Y-106907457D01*
X83461339Y-106967795D01*
X83461326Y-106967802D01*
X83330223Y-107055403D01*
X83330219Y-107055406D01*
X83218725Y-107166900D01*
X83218722Y-107166904D01*
X83131121Y-107298007D01*
X83131114Y-107298020D01*
X83070776Y-107443691D01*
X83070773Y-107443703D01*
X83040012Y-107598346D01*
X78000499Y-107598346D01*
X78000499Y-105688326D01*
X82878992Y-105688326D01*
X82916864Y-105878715D01*
X82916866Y-105878721D01*
X82987253Y-106048651D01*
X82991155Y-106058070D01*
X83025024Y-106108759D01*
X83099006Y-106219482D01*
X83236271Y-106356747D01*
X83236274Y-106356749D01*
X83397684Y-106464599D01*
X83577033Y-106538888D01*
X83577037Y-106538888D01*
X83577038Y-106538889D01*
X83767427Y-106576761D01*
X83767430Y-106576761D01*
X83961558Y-106576761D01*
X84112469Y-106546742D01*
X84151953Y-106538888D01*
X84331302Y-106464599D01*
X84492712Y-106356749D01*
X84629981Y-106219480D01*
X84714188Y-106093454D01*
X84767798Y-106048651D01*
X84837123Y-106039943D01*
X84900151Y-106070097D01*
X84920392Y-106093456D01*
X84930616Y-106108758D01*
X85042111Y-106220253D01*
X85042115Y-106220256D01*
X85173218Y-106307857D01*
X85173231Y-106307864D01*
X85291247Y-106356747D01*
X85318907Y-106368204D01*
X85443278Y-106392943D01*
X85473557Y-106398966D01*
X85473560Y-106398967D01*
X85473562Y-106398967D01*
X85631248Y-106398967D01*
X85631249Y-106398966D01*
X85785901Y-106368204D01*
X85931583Y-106307861D01*
X86060917Y-106221443D01*
X95780850Y-106221443D01*
X95780850Y-106398836D01*
X95815453Y-106572798D01*
X95815455Y-106572806D01*
X95883338Y-106736688D01*
X95981884Y-106884174D01*
X95981890Y-106884181D01*
X96107308Y-107009599D01*
X96107315Y-107009605D01*
X96254801Y-107108151D01*
X96254802Y-107108151D01*
X96254803Y-107108152D01*
X96418684Y-107176035D01*
X96592653Y-107210639D01*
X96592657Y-107210640D01*
X96592658Y-107210640D01*
X96770043Y-107210640D01*
X96770044Y-107210639D01*
X96944016Y-107176035D01*
X97107897Y-107108152D01*
X97255386Y-107009604D01*
X97414026Y-106850964D01*
X97571716Y-106693275D01*
X154651109Y-106693275D01*
X154651109Y-106850968D01*
X154681870Y-107005611D01*
X154681873Y-107005623D01*
X154742211Y-107151294D01*
X154742218Y-107151307D01*
X154829819Y-107282410D01*
X154829822Y-107282414D01*
X154941316Y-107393908D01*
X154941320Y-107393911D01*
X155072423Y-107481512D01*
X155072436Y-107481519D01*
X155218107Y-107541857D01*
X155218112Y-107541859D01*
X155372762Y-107572621D01*
X155372765Y-107572622D01*
X155372767Y-107572622D01*
X155530453Y-107572622D01*
X155530454Y-107572621D01*
X155685106Y-107541859D01*
X155830788Y-107481516D01*
X155961898Y-107393911D01*
X156073398Y-107282411D01*
X156161003Y-107151301D01*
X156221346Y-107005619D01*
X156252109Y-106850964D01*
X156252109Y-106693280D01*
X156252109Y-106693277D01*
X156252108Y-106693275D01*
X157651109Y-106693275D01*
X157651109Y-106850968D01*
X157681870Y-107005611D01*
X157681873Y-107005623D01*
X157742211Y-107151294D01*
X157742218Y-107151307D01*
X157829819Y-107282410D01*
X157829822Y-107282414D01*
X157941316Y-107393908D01*
X157941320Y-107393911D01*
X158072423Y-107481512D01*
X158072436Y-107481519D01*
X158218107Y-107541857D01*
X158218112Y-107541859D01*
X158372762Y-107572621D01*
X158372765Y-107572622D01*
X158372767Y-107572622D01*
X158530453Y-107572622D01*
X158530454Y-107572621D01*
X158685106Y-107541859D01*
X158830788Y-107481516D01*
X158961898Y-107393911D01*
X159073398Y-107282411D01*
X159161003Y-107151301D01*
X159221346Y-107005619D01*
X159252109Y-106850964D01*
X159252109Y-106693280D01*
X159252109Y-106693277D01*
X159252108Y-106693275D01*
X159233456Y-106599507D01*
X159221346Y-106538625D01*
X159190684Y-106464599D01*
X159161006Y-106392949D01*
X159160999Y-106392936D01*
X159073398Y-106261833D01*
X159073395Y-106261829D01*
X158961901Y-106150335D01*
X158961897Y-106150332D01*
X158830794Y-106062731D01*
X158830781Y-106062724D01*
X158685110Y-106002386D01*
X158685098Y-106002383D01*
X158530454Y-105971622D01*
X158530451Y-105971622D01*
X158372767Y-105971622D01*
X158372764Y-105971622D01*
X158218119Y-106002383D01*
X158218107Y-106002386D01*
X158072436Y-106062724D01*
X158072423Y-106062731D01*
X157941320Y-106150332D01*
X157941316Y-106150335D01*
X157829822Y-106261829D01*
X157829819Y-106261833D01*
X157742218Y-106392936D01*
X157742211Y-106392949D01*
X157681873Y-106538620D01*
X157681870Y-106538632D01*
X157651109Y-106693275D01*
X156252108Y-106693275D01*
X156233456Y-106599507D01*
X156221346Y-106538625D01*
X156190684Y-106464599D01*
X156161006Y-106392949D01*
X156160999Y-106392936D01*
X156073398Y-106261833D01*
X156073395Y-106261829D01*
X155961901Y-106150335D01*
X155961897Y-106150332D01*
X155830794Y-106062731D01*
X155830781Y-106062724D01*
X155685110Y-106002386D01*
X155685098Y-106002383D01*
X155530454Y-105971622D01*
X155530451Y-105971622D01*
X155372767Y-105971622D01*
X155372764Y-105971622D01*
X155218119Y-106002383D01*
X155218107Y-106002386D01*
X155072436Y-106062724D01*
X155072423Y-106062731D01*
X154941320Y-106150332D01*
X154941316Y-106150335D01*
X154829822Y-106261829D01*
X154829819Y-106261833D01*
X154742218Y-106392936D01*
X154742211Y-106392949D01*
X154681873Y-106538620D01*
X154681870Y-106538632D01*
X154651109Y-106693275D01*
X97571716Y-106693275D01*
X97665484Y-106599507D01*
X99343837Y-104921153D01*
X113699500Y-104921153D01*
X113699500Y-105078846D01*
X113730261Y-105233489D01*
X113730264Y-105233501D01*
X113790602Y-105379172D01*
X113790609Y-105379185D01*
X113878210Y-105510288D01*
X113878213Y-105510292D01*
X113989707Y-105621786D01*
X113989711Y-105621789D01*
X114120814Y-105709390D01*
X114120827Y-105709397D01*
X114266498Y-105769735D01*
X114266503Y-105769737D01*
X114421153Y-105800499D01*
X114421156Y-105800500D01*
X114421158Y-105800500D01*
X114578844Y-105800500D01*
X114578845Y-105800499D01*
X114733497Y-105769737D01*
X114879179Y-105709394D01*
X115010289Y-105621789D01*
X115121789Y-105510289D01*
X115209394Y-105379179D01*
X115269737Y-105233497D01*
X115300500Y-105078842D01*
X115300500Y-104921158D01*
X115300500Y-104921155D01*
X115300499Y-104921153D01*
X115281527Y-104825774D01*
X115269737Y-104766503D01*
X115269735Y-104766498D01*
X115209397Y-104620827D01*
X115209390Y-104620814D01*
X115121789Y-104489711D01*
X115121786Y-104489707D01*
X115010292Y-104378213D01*
X115010288Y-104378210D01*
X114879185Y-104290609D01*
X114879172Y-104290602D01*
X114733501Y-104230264D01*
X114733489Y-104230261D01*
X114578845Y-104199500D01*
X114578842Y-104199500D01*
X114421158Y-104199500D01*
X114421155Y-104199500D01*
X114266510Y-104230261D01*
X114266498Y-104230264D01*
X114120827Y-104290602D01*
X114120814Y-104290609D01*
X113989711Y-104378210D01*
X113989707Y-104378213D01*
X113878213Y-104489707D01*
X113878210Y-104489711D01*
X113790609Y-104620814D01*
X113790602Y-104620827D01*
X113730264Y-104766498D01*
X113730261Y-104766510D01*
X113699500Y-104921153D01*
X99343837Y-104921153D01*
X99437605Y-104827385D01*
X101343837Y-102921153D01*
X111699500Y-102921153D01*
X111699500Y-103078846D01*
X111730261Y-103233489D01*
X111730264Y-103233501D01*
X111790602Y-103379172D01*
X111790609Y-103379185D01*
X111878210Y-103510288D01*
X111878213Y-103510292D01*
X111989707Y-103621786D01*
X111989711Y-103621789D01*
X112120814Y-103709390D01*
X112120827Y-103709397D01*
X112248572Y-103762310D01*
X112266503Y-103769737D01*
X112421153Y-103800499D01*
X112421156Y-103800500D01*
X112421158Y-103800500D01*
X112578844Y-103800500D01*
X112578845Y-103800499D01*
X112733497Y-103769737D01*
X112857666Y-103718305D01*
X112879172Y-103709397D01*
X112879172Y-103709396D01*
X112879179Y-103709394D01*
X113010289Y-103621789D01*
X113121789Y-103510289D01*
X113209394Y-103379179D01*
X113220931Y-103351327D01*
X113240414Y-103304291D01*
X155089339Y-103304291D01*
X155089339Y-103461984D01*
X155120100Y-103616627D01*
X155120103Y-103616639D01*
X155180441Y-103762310D01*
X155180448Y-103762323D01*
X155268049Y-103893426D01*
X155268052Y-103893430D01*
X155379546Y-104004924D01*
X155379550Y-104004927D01*
X155510653Y-104092528D01*
X155510666Y-104092535D01*
X155617014Y-104136585D01*
X155656342Y-104152875D01*
X155810992Y-104183637D01*
X155810995Y-104183638D01*
X155810997Y-104183638D01*
X155968683Y-104183638D01*
X155968684Y-104183637D01*
X156123336Y-104152875D01*
X156269018Y-104092532D01*
X156400128Y-104004927D01*
X156511628Y-103893427D01*
X156599233Y-103762317D01*
X156659576Y-103616635D01*
X156690339Y-103461980D01*
X156690339Y-103304296D01*
X156690339Y-103304293D01*
X156690338Y-103304291D01*
X158089339Y-103304291D01*
X158089339Y-103461984D01*
X158120100Y-103616627D01*
X158120103Y-103616639D01*
X158180441Y-103762310D01*
X158180448Y-103762323D01*
X158268049Y-103893426D01*
X158268052Y-103893430D01*
X158379546Y-104004924D01*
X158379550Y-104004927D01*
X158510653Y-104092528D01*
X158510666Y-104092535D01*
X158617014Y-104136585D01*
X158656342Y-104152875D01*
X158810992Y-104183637D01*
X158810995Y-104183638D01*
X158810997Y-104183638D01*
X158968683Y-104183638D01*
X158968684Y-104183637D01*
X159123336Y-104152875D01*
X159269018Y-104092532D01*
X159400128Y-104004927D01*
X159511628Y-103893427D01*
X159599233Y-103762317D01*
X159659576Y-103616635D01*
X159690339Y-103461980D01*
X159690339Y-103304296D01*
X159690339Y-103304293D01*
X159690338Y-103304291D01*
X159686597Y-103285482D01*
X159659576Y-103149641D01*
X159630251Y-103078844D01*
X159599236Y-103003965D01*
X159599229Y-103003952D01*
X159511628Y-102872849D01*
X159511625Y-102872845D01*
X159400131Y-102761351D01*
X159400127Y-102761348D01*
X159269024Y-102673747D01*
X159269011Y-102673740D01*
X159123340Y-102613402D01*
X159123328Y-102613399D01*
X158968684Y-102582638D01*
X158968681Y-102582638D01*
X158810997Y-102582638D01*
X158810994Y-102582638D01*
X158656349Y-102613399D01*
X158656337Y-102613402D01*
X158510666Y-102673740D01*
X158510653Y-102673747D01*
X158379550Y-102761348D01*
X158379546Y-102761351D01*
X158268052Y-102872845D01*
X158268049Y-102872849D01*
X158180448Y-103003952D01*
X158180441Y-103003965D01*
X158120103Y-103149636D01*
X158120100Y-103149648D01*
X158089339Y-103304291D01*
X156690338Y-103304291D01*
X156686597Y-103285482D01*
X156659576Y-103149641D01*
X156630251Y-103078844D01*
X156599236Y-103003965D01*
X156599229Y-103003952D01*
X156511628Y-102872849D01*
X156511625Y-102872845D01*
X156400131Y-102761351D01*
X156400127Y-102761348D01*
X156269024Y-102673747D01*
X156269011Y-102673740D01*
X156123340Y-102613402D01*
X156123328Y-102613399D01*
X155968684Y-102582638D01*
X155968681Y-102582638D01*
X155810997Y-102582638D01*
X155810994Y-102582638D01*
X155656349Y-102613399D01*
X155656337Y-102613402D01*
X155510666Y-102673740D01*
X155510653Y-102673747D01*
X155379550Y-102761348D01*
X155379546Y-102761351D01*
X155268052Y-102872845D01*
X155268049Y-102872849D01*
X155180448Y-103003952D01*
X155180441Y-103003965D01*
X155120103Y-103149636D01*
X155120100Y-103149648D01*
X155089339Y-103304291D01*
X113240414Y-103304291D01*
X113262590Y-103250752D01*
X113262590Y-103250751D01*
X113266308Y-103241775D01*
X113269737Y-103233497D01*
X113300500Y-103078842D01*
X113300500Y-102921158D01*
X113300500Y-102921155D01*
X113300499Y-102921153D01*
X113288935Y-102863017D01*
X113269737Y-102766503D01*
X113246080Y-102709390D01*
X113209397Y-102620827D01*
X113209390Y-102620814D01*
X113121789Y-102489711D01*
X113121786Y-102489707D01*
X113010292Y-102378213D01*
X113010288Y-102378210D01*
X112879185Y-102290609D01*
X112879172Y-102290602D01*
X112733501Y-102230264D01*
X112733489Y-102230261D01*
X112578845Y-102199500D01*
X112578842Y-102199500D01*
X112421158Y-102199500D01*
X112421155Y-102199500D01*
X112266510Y-102230261D01*
X112266498Y-102230264D01*
X112120827Y-102290602D01*
X112120814Y-102290609D01*
X111989711Y-102378210D01*
X111989707Y-102378213D01*
X111878213Y-102489707D01*
X111878210Y-102489711D01*
X111790609Y-102620814D01*
X111790602Y-102620827D01*
X111730264Y-102766498D01*
X111730261Y-102766510D01*
X111699500Y-102921153D01*
X101343837Y-102921153D01*
X101437605Y-102827385D01*
X102343836Y-101921153D01*
X139868127Y-101921153D01*
X139868127Y-102078846D01*
X139898888Y-102233489D01*
X139898891Y-102233501D01*
X139959229Y-102379172D01*
X139959236Y-102379185D01*
X140046837Y-102510288D01*
X140046840Y-102510292D01*
X140158334Y-102621786D01*
X140158338Y-102621789D01*
X140289441Y-102709390D01*
X140289454Y-102709397D01*
X140427310Y-102766498D01*
X140435130Y-102769737D01*
X140589780Y-102800499D01*
X140589783Y-102800500D01*
X140589785Y-102800500D01*
X140747471Y-102800500D01*
X140747472Y-102800499D01*
X140902124Y-102769737D01*
X141047806Y-102709394D01*
X141178916Y-102621789D01*
X141290416Y-102510289D01*
X141378021Y-102379179D01*
X141438364Y-102233497D01*
X141469127Y-102078842D01*
X141469127Y-101921158D01*
X141469127Y-101921155D01*
X141469126Y-101921153D01*
X142868127Y-101921153D01*
X142868127Y-102078846D01*
X142898888Y-102233489D01*
X142898891Y-102233501D01*
X142959229Y-102379172D01*
X142959236Y-102379185D01*
X143046837Y-102510288D01*
X143046840Y-102510292D01*
X143158334Y-102621786D01*
X143158338Y-102621789D01*
X143289441Y-102709390D01*
X143289454Y-102709397D01*
X143427310Y-102766498D01*
X143435130Y-102769737D01*
X143589780Y-102800499D01*
X143589783Y-102800500D01*
X143589785Y-102800500D01*
X143747471Y-102800500D01*
X143747472Y-102800499D01*
X143902124Y-102769737D01*
X144047806Y-102709394D01*
X144178916Y-102621789D01*
X144290416Y-102510289D01*
X144378021Y-102379179D01*
X144438364Y-102233497D01*
X144469127Y-102078842D01*
X144469127Y-101921158D01*
X144469127Y-101921155D01*
X144469126Y-101921153D01*
X144458434Y-101867403D01*
X144438364Y-101766503D01*
X144431664Y-101750328D01*
X144378024Y-101620827D01*
X144378017Y-101620814D01*
X144290416Y-101489711D01*
X144290413Y-101489707D01*
X144178919Y-101378213D01*
X144178915Y-101378210D01*
X144047812Y-101290609D01*
X144047799Y-101290602D01*
X143902128Y-101230264D01*
X143902116Y-101230261D01*
X143747472Y-101199500D01*
X143747469Y-101199500D01*
X143589785Y-101199500D01*
X143589782Y-101199500D01*
X143435137Y-101230261D01*
X143435125Y-101230264D01*
X143289454Y-101290602D01*
X143289441Y-101290609D01*
X143158338Y-101378210D01*
X143158334Y-101378213D01*
X143046840Y-101489707D01*
X143046837Y-101489711D01*
X142959236Y-101620814D01*
X142959229Y-101620827D01*
X142898891Y-101766498D01*
X142898888Y-101766510D01*
X142868127Y-101921153D01*
X141469126Y-101921153D01*
X141458434Y-101867403D01*
X141438364Y-101766503D01*
X141431664Y-101750328D01*
X141378024Y-101620827D01*
X141378017Y-101620814D01*
X141290416Y-101489711D01*
X141290413Y-101489707D01*
X141178919Y-101378213D01*
X141178915Y-101378210D01*
X141047812Y-101290609D01*
X141047799Y-101290602D01*
X140902128Y-101230264D01*
X140902116Y-101230261D01*
X140747472Y-101199500D01*
X140747469Y-101199500D01*
X140589785Y-101199500D01*
X140589782Y-101199500D01*
X140435137Y-101230261D01*
X140435125Y-101230264D01*
X140289454Y-101290602D01*
X140289441Y-101290609D01*
X140158338Y-101378210D01*
X140158334Y-101378213D01*
X140046840Y-101489707D01*
X140046837Y-101489711D01*
X139959236Y-101620814D01*
X139959229Y-101620827D01*
X139898891Y-101766498D01*
X139898888Y-101766510D01*
X139868127Y-101921153D01*
X102343836Y-101921153D01*
X102437604Y-101827385D01*
X103328170Y-100936819D01*
X103389493Y-100903334D01*
X103415851Y-100900500D01*
X168965242Y-100900500D01*
X169032281Y-100920185D01*
X169078036Y-100972989D01*
X169087980Y-101042147D01*
X169058955Y-101105703D01*
X169052923Y-101112181D01*
X168929894Y-101235209D01*
X168929890Y-101235213D01*
X168804951Y-101407179D01*
X168708444Y-101596585D01*
X168642753Y-101798760D01*
X168627132Y-101897390D01*
X168609500Y-102008713D01*
X168609500Y-102221287D01*
X168610921Y-102230261D01*
X168634506Y-102379172D01*
X168642754Y-102431243D01*
X168707228Y-102629674D01*
X168708444Y-102633414D01*
X168804951Y-102822820D01*
X168929890Y-102994786D01*
X169080213Y-103145109D01*
X169252182Y-103270050D01*
X169260946Y-103274516D01*
X169311742Y-103322491D01*
X169328536Y-103390312D01*
X169305998Y-103456447D01*
X169260946Y-103495484D01*
X169252182Y-103499949D01*
X169080213Y-103624890D01*
X168929890Y-103775213D01*
X168804951Y-103947179D01*
X168708444Y-104136585D01*
X168642753Y-104338760D01*
X168609500Y-104548713D01*
X168609500Y-104761286D01*
X168641455Y-104963046D01*
X168642754Y-104971243D01*
X168692535Y-105124453D01*
X168708444Y-105173414D01*
X168804951Y-105362820D01*
X168929890Y-105534786D01*
X169080213Y-105685109D01*
X169252182Y-105810050D01*
X169260946Y-105814516D01*
X169311742Y-105862491D01*
X169328536Y-105930312D01*
X169305998Y-105996447D01*
X169260946Y-106035484D01*
X169252182Y-106039949D01*
X169080213Y-106164890D01*
X168929890Y-106315213D01*
X168804951Y-106487179D01*
X168708444Y-106676585D01*
X168642753Y-106878760D01*
X168609500Y-107088713D01*
X168609500Y-107301286D01*
X168638045Y-107481516D01*
X168642754Y-107511243D01*
X168671057Y-107598351D01*
X168708444Y-107713414D01*
X168804951Y-107902820D01*
X168929890Y-108074786D01*
X169080213Y-108225109D01*
X169252182Y-108350050D01*
X169260946Y-108354516D01*
X169311742Y-108402491D01*
X169328536Y-108470312D01*
X169305998Y-108536447D01*
X169260946Y-108575484D01*
X169252182Y-108579949D01*
X169080213Y-108704890D01*
X168929890Y-108855213D01*
X168804951Y-109027179D01*
X168708444Y-109216585D01*
X168642753Y-109418760D01*
X168631516Y-109489711D01*
X168609500Y-109628713D01*
X168609500Y-109841287D01*
X168642754Y-110051243D01*
X168701973Y-110233501D01*
X168708444Y-110253414D01*
X168804951Y-110442820D01*
X168929890Y-110614786D01*
X169080213Y-110765109D01*
X169252182Y-110890050D01*
X169260946Y-110894516D01*
X169311742Y-110942491D01*
X169328536Y-111010312D01*
X169305998Y-111076447D01*
X169260946Y-111115484D01*
X169252182Y-111119949D01*
X169080213Y-111244890D01*
X168929890Y-111395213D01*
X168804951Y-111567179D01*
X168708444Y-111756585D01*
X168642753Y-111958760D01*
X168609500Y-112168713D01*
X168609500Y-112381286D01*
X168632444Y-112526153D01*
X168642754Y-112591243D01*
X168707532Y-112790609D01*
X168708444Y-112793414D01*
X168804951Y-112982820D01*
X168929890Y-113154786D01*
X169080213Y-113305109D01*
X169252182Y-113430050D01*
X169260946Y-113434516D01*
X169311742Y-113482491D01*
X169328536Y-113550312D01*
X169305998Y-113616447D01*
X169260946Y-113655484D01*
X169252182Y-113659949D01*
X169080213Y-113784890D01*
X168929890Y-113935213D01*
X168804951Y-114107179D01*
X168708444Y-114296585D01*
X168642753Y-114498760D01*
X168609500Y-114708713D01*
X168609500Y-114921286D01*
X168641169Y-115121241D01*
X168642754Y-115131243D01*
X168696287Y-115296001D01*
X168708444Y-115333414D01*
X168804951Y-115522820D01*
X168929890Y-115694786D01*
X169043430Y-115808326D01*
X169076915Y-115869649D01*
X169071931Y-115939341D01*
X169030059Y-115995274D01*
X168999083Y-116012189D01*
X168867669Y-116061203D01*
X168867664Y-116061206D01*
X168752455Y-116147452D01*
X168752452Y-116147455D01*
X168666206Y-116262664D01*
X168666202Y-116262671D01*
X168615908Y-116397517D01*
X168609501Y-116457116D01*
X168609500Y-116457135D01*
X168609500Y-118252870D01*
X168609501Y-118252876D01*
X168615908Y-118312483D01*
X168666202Y-118447328D01*
X168666206Y-118447335D01*
X168752452Y-118562544D01*
X168752455Y-118562547D01*
X168867664Y-118648793D01*
X168867671Y-118648797D01*
X169002517Y-118699091D01*
X169002516Y-118699091D01*
X169006321Y-118699500D01*
X169062127Y-118705500D01*
X170857872Y-118705499D01*
X170917483Y-118699091D01*
X171052331Y-118648796D01*
X171167546Y-118562546D01*
X171253796Y-118447331D01*
X171302810Y-118315916D01*
X171344681Y-118259984D01*
X171410145Y-118235566D01*
X171478418Y-118250417D01*
X171506673Y-118271569D01*
X171620213Y-118385109D01*
X171792179Y-118510048D01*
X171792181Y-118510049D01*
X171792184Y-118510051D01*
X171981588Y-118606557D01*
X172183757Y-118672246D01*
X172393713Y-118705500D01*
X172393714Y-118705500D01*
X172606286Y-118705500D01*
X172606287Y-118705500D01*
X172816243Y-118672246D01*
X173018412Y-118606557D01*
X173207816Y-118510051D01*
X173294138Y-118447335D01*
X173379786Y-118385109D01*
X173379788Y-118385106D01*
X173379792Y-118385104D01*
X173530104Y-118234792D01*
X173530106Y-118234788D01*
X173530109Y-118234786D01*
X173655048Y-118062820D01*
X173655047Y-118062820D01*
X173655051Y-118062816D01*
X173751557Y-117873412D01*
X173817246Y-117671243D01*
X173850500Y-117461287D01*
X173850500Y-117248713D01*
X173817246Y-117038757D01*
X173751557Y-116836588D01*
X173655051Y-116647184D01*
X173655049Y-116647181D01*
X173655048Y-116647179D01*
X173530109Y-116475213D01*
X173379786Y-116324890D01*
X173207820Y-116199951D01*
X173207115Y-116199591D01*
X173199054Y-116195485D01*
X173148259Y-116147512D01*
X173131463Y-116079692D01*
X173153999Y-116013556D01*
X173199054Y-115974515D01*
X173207816Y-115970051D01*
X173250085Y-115939341D01*
X173379786Y-115845109D01*
X173379788Y-115845106D01*
X173379792Y-115845104D01*
X173530104Y-115694792D01*
X173530106Y-115694788D01*
X173530109Y-115694786D01*
X173655048Y-115522820D01*
X173655047Y-115522820D01*
X173655051Y-115522816D01*
X173751557Y-115333412D01*
X173817246Y-115131243D01*
X173850500Y-114921287D01*
X173850500Y-114708713D01*
X173817246Y-114498757D01*
X173751557Y-114296588D01*
X173655051Y-114107184D01*
X173655049Y-114107181D01*
X173655048Y-114107179D01*
X173530109Y-113935213D01*
X173379786Y-113784890D01*
X173207820Y-113659951D01*
X173207115Y-113659591D01*
X173199054Y-113655485D01*
X173148259Y-113607512D01*
X173131463Y-113539692D01*
X173153999Y-113473556D01*
X173199054Y-113434515D01*
X173207816Y-113430051D01*
X173304823Y-113359572D01*
X173379786Y-113305109D01*
X173379788Y-113305106D01*
X173379792Y-113305104D01*
X173530104Y-113154792D01*
X173530106Y-113154788D01*
X173530109Y-113154786D01*
X173639086Y-113004789D01*
X173655051Y-112982816D01*
X173751557Y-112793412D01*
X173817246Y-112591243D01*
X173850500Y-112381287D01*
X173850500Y-112168713D01*
X173817246Y-111958757D01*
X173751557Y-111756588D01*
X173655051Y-111567184D01*
X173655049Y-111567181D01*
X173655048Y-111567179D01*
X173530109Y-111395213D01*
X173379786Y-111244890D01*
X173207820Y-111119951D01*
X173207115Y-111119591D01*
X173199054Y-111115485D01*
X173148259Y-111067512D01*
X173131463Y-110999692D01*
X173153999Y-110933556D01*
X173199054Y-110894515D01*
X173207816Y-110890051D01*
X173229789Y-110874086D01*
X173379786Y-110765109D01*
X173379788Y-110765106D01*
X173379792Y-110765104D01*
X173530104Y-110614792D01*
X173530106Y-110614788D01*
X173530109Y-110614786D01*
X173655048Y-110442820D01*
X173655047Y-110442820D01*
X173655051Y-110442816D01*
X173751557Y-110253412D01*
X173817246Y-110051243D01*
X173850500Y-109841287D01*
X173850500Y-109628713D01*
X173817246Y-109418757D01*
X173751557Y-109216588D01*
X173655051Y-109027184D01*
X173655049Y-109027181D01*
X173655048Y-109027179D01*
X173530109Y-108855213D01*
X173379786Y-108704890D01*
X173207820Y-108579951D01*
X173205643Y-108578842D01*
X173199054Y-108575485D01*
X173148259Y-108527512D01*
X173131463Y-108459692D01*
X173153999Y-108393556D01*
X173199054Y-108354515D01*
X173207816Y-108350051D01*
X173278111Y-108298979D01*
X173379786Y-108225109D01*
X173379788Y-108225106D01*
X173379792Y-108225104D01*
X173530104Y-108074792D01*
X173530106Y-108074788D01*
X173530109Y-108074786D01*
X173655048Y-107902820D01*
X173655047Y-107902820D01*
X173655051Y-107902816D01*
X173751557Y-107713412D01*
X173817246Y-107511243D01*
X173850500Y-107301287D01*
X173850500Y-107088713D01*
X173817246Y-106878757D01*
X173751557Y-106676588D01*
X173655051Y-106487184D01*
X173655049Y-106487181D01*
X173655048Y-106487179D01*
X173530109Y-106315213D01*
X173379786Y-106164890D01*
X173207820Y-106039951D01*
X173207115Y-106039591D01*
X173199054Y-106035485D01*
X173148259Y-105987512D01*
X173131463Y-105919692D01*
X173153999Y-105853556D01*
X173199054Y-105814515D01*
X173207816Y-105810051D01*
X173229789Y-105794086D01*
X173379786Y-105685109D01*
X173379788Y-105685106D01*
X173379792Y-105685104D01*
X173530104Y-105534792D01*
X173530106Y-105534788D01*
X173530109Y-105534786D01*
X173655048Y-105362820D01*
X173655047Y-105362820D01*
X173655051Y-105362816D01*
X173751557Y-105173412D01*
X173817246Y-104971243D01*
X173850500Y-104761287D01*
X173850500Y-104548713D01*
X173817246Y-104338757D01*
X173751557Y-104136588D01*
X173655051Y-103947184D01*
X173655049Y-103947181D01*
X173655048Y-103947179D01*
X173530109Y-103775213D01*
X173379786Y-103624890D01*
X173207820Y-103499951D01*
X173207115Y-103499591D01*
X173199054Y-103495485D01*
X173148259Y-103447512D01*
X173131463Y-103379692D01*
X173153999Y-103313556D01*
X173199054Y-103274515D01*
X173207816Y-103270051D01*
X173262869Y-103230053D01*
X173379786Y-103145109D01*
X173379788Y-103145106D01*
X173379792Y-103145104D01*
X173530104Y-102994792D01*
X173530106Y-102994788D01*
X173530109Y-102994786D01*
X173655048Y-102822820D01*
X173655047Y-102822820D01*
X173655051Y-102822816D01*
X173751557Y-102633412D01*
X173817246Y-102431243D01*
X173850500Y-102221287D01*
X173850500Y-102008713D01*
X173817246Y-101798757D01*
X173751557Y-101596588D01*
X173655051Y-101407184D01*
X173655049Y-101407181D01*
X173655048Y-101407179D01*
X173530109Y-101235213D01*
X173379786Y-101084890D01*
X173207820Y-100959951D01*
X173018414Y-100863444D01*
X173018413Y-100863443D01*
X173018412Y-100863443D01*
X172816243Y-100797754D01*
X172816241Y-100797753D01*
X172816240Y-100797753D01*
X172654957Y-100772208D01*
X172606287Y-100764500D01*
X172606286Y-100764500D01*
X172474361Y-100764500D01*
X172407322Y-100744815D01*
X172386680Y-100728181D01*
X170959039Y-99300538D01*
X170959038Y-99300537D01*
X170943141Y-99289915D01*
X170886522Y-99252084D01*
X170811547Y-99201987D01*
X170729606Y-99168046D01*
X170647666Y-99134105D01*
X170647658Y-99134103D01*
X170473696Y-99099500D01*
X170473692Y-99099500D01*
X170473691Y-99099500D01*
X103080182Y-99099500D01*
X102902799Y-99099500D01*
X102902794Y-99099500D01*
X102728831Y-99134103D01*
X102728823Y-99134105D01*
X102623535Y-99177717D01*
X102623531Y-99177718D01*
X102615864Y-99180895D01*
X102564943Y-99201987D01*
X102455735Y-99274958D01*
X102452516Y-99277108D01*
X102452502Y-99277117D01*
X102417459Y-99300532D01*
X102417451Y-99300538D01*
X95981890Y-105736098D01*
X95981884Y-105736105D01*
X95883338Y-105883591D01*
X95815455Y-106047473D01*
X95815453Y-106047481D01*
X95780850Y-106221443D01*
X86060917Y-106221443D01*
X86062693Y-106220256D01*
X86063469Y-106219480D01*
X86155275Y-106127675D01*
X86174190Y-106108759D01*
X86174191Y-106108758D01*
X86174193Y-106108756D01*
X86261798Y-105977646D01*
X86322141Y-105831964D01*
X86352904Y-105677309D01*
X86352904Y-105519625D01*
X86352904Y-105519622D01*
X86352903Y-105519620D01*
X86347846Y-105494195D01*
X86322141Y-105364970D01*
X86322139Y-105364965D01*
X86261801Y-105219294D01*
X86261794Y-105219281D01*
X86174193Y-105088178D01*
X86174190Y-105088174D01*
X86062696Y-104976680D01*
X86062692Y-104976677D01*
X85931589Y-104889076D01*
X85931576Y-104889069D01*
X85785905Y-104828731D01*
X85785893Y-104828728D01*
X85631249Y-104797967D01*
X85631246Y-104797967D01*
X85473562Y-104797967D01*
X85473559Y-104797967D01*
X85318914Y-104828728D01*
X85318902Y-104828731D01*
X85173231Y-104889069D01*
X85173218Y-104889076D01*
X85042115Y-104976677D01*
X85042111Y-104976680D01*
X84930615Y-105088176D01*
X84925205Y-105096274D01*
X84871591Y-105141078D01*
X84802266Y-105149784D01*
X84739239Y-105119628D01*
X84719002Y-105096271D01*
X84629984Y-104963046D01*
X84629978Y-104963038D01*
X84492714Y-104825774D01*
X84396200Y-104761286D01*
X84331302Y-104717923D01*
X84151953Y-104643634D01*
X84151947Y-104643632D01*
X83961558Y-104605761D01*
X83961556Y-104605761D01*
X83767430Y-104605761D01*
X83767428Y-104605761D01*
X83577038Y-104643632D01*
X83577032Y-104643634D01*
X83397685Y-104717922D01*
X83236271Y-104825774D01*
X83099006Y-104963039D01*
X82991154Y-105124453D01*
X82916866Y-105303800D01*
X82916864Y-105303806D01*
X82878993Y-105494195D01*
X82878993Y-105494198D01*
X82878993Y-105688324D01*
X82878993Y-105688326D01*
X82878992Y-105688326D01*
X78000499Y-105688326D01*
X78000499Y-103405957D01*
X83127354Y-103405957D01*
X83127354Y-103563650D01*
X83158115Y-103718293D01*
X83158118Y-103718305D01*
X83218456Y-103863976D01*
X83218463Y-103863989D01*
X83306064Y-103995092D01*
X83306067Y-103995096D01*
X83417561Y-104106590D01*
X83417565Y-104106593D01*
X83548668Y-104194194D01*
X83548681Y-104194201D01*
X83694352Y-104254539D01*
X83694357Y-104254541D01*
X83849007Y-104285303D01*
X83849010Y-104285304D01*
X83849012Y-104285304D01*
X84006698Y-104285304D01*
X84006699Y-104285303D01*
X84161351Y-104254541D01*
X84307033Y-104194198D01*
X84438143Y-104106593D01*
X84549643Y-103995093D01*
X84637248Y-103863983D01*
X84697591Y-103718301D01*
X84728354Y-103563646D01*
X84728354Y-103512405D01*
X84748039Y-103445366D01*
X84800843Y-103399611D01*
X84870001Y-103389667D01*
X84876546Y-103390788D01*
X84949440Y-103405288D01*
X84949443Y-103405288D01*
X85107129Y-103405288D01*
X85107130Y-103405287D01*
X85261782Y-103374525D01*
X85404115Y-103315568D01*
X85473584Y-103308100D01*
X85499010Y-103315566D01*
X85552874Y-103337877D01*
X85552878Y-103337877D01*
X85552882Y-103337879D01*
X85707524Y-103368639D01*
X85707527Y-103368640D01*
X85707529Y-103368640D01*
X85865215Y-103368640D01*
X85865216Y-103368639D01*
X86019868Y-103337877D01*
X86148305Y-103284676D01*
X86217774Y-103277208D01*
X86243210Y-103284677D01*
X86246862Y-103286189D01*
X86246864Y-103286191D01*
X86392546Y-103346534D01*
X86547196Y-103377296D01*
X86547199Y-103377297D01*
X86547201Y-103377297D01*
X86704887Y-103377297D01*
X86704888Y-103377296D01*
X86859540Y-103346534D01*
X87005222Y-103286191D01*
X87006048Y-103285639D01*
X87006546Y-103285482D01*
X87010589Y-103283322D01*
X87010998Y-103284088D01*
X87072721Y-103264756D01*
X87122396Y-103274174D01*
X87262256Y-103332106D01*
X87402402Y-103359983D01*
X87416906Y-103362868D01*
X87416909Y-103362869D01*
X87416911Y-103362869D01*
X87574597Y-103362869D01*
X87574598Y-103362868D01*
X87729250Y-103332106D01*
X87874932Y-103271763D01*
X87874947Y-103271752D01*
X87879422Y-103269361D01*
X87947823Y-103255108D01*
X87989499Y-103267344D01*
X87989830Y-103266547D01*
X88124893Y-103322491D01*
X88141141Y-103329221D01*
X88252275Y-103351327D01*
X88295791Y-103359983D01*
X88295794Y-103359984D01*
X88295796Y-103359984D01*
X88453482Y-103359984D01*
X88453483Y-103359983D01*
X88608135Y-103329221D01*
X88753817Y-103268878D01*
X88753818Y-103268877D01*
X88757469Y-103267365D01*
X88826939Y-103259896D01*
X88852374Y-103267365D01*
X88965402Y-103314182D01*
X88980812Y-103320565D01*
X89111356Y-103346532D01*
X89135462Y-103351327D01*
X89135465Y-103351328D01*
X89135467Y-103351328D01*
X89293153Y-103351328D01*
X89293154Y-103351327D01*
X89447806Y-103320565D01*
X89593488Y-103260222D01*
X89724598Y-103172617D01*
X89836098Y-103061117D01*
X89923703Y-102930007D01*
X89984046Y-102784325D01*
X90014809Y-102629670D01*
X90014809Y-102471986D01*
X90014809Y-102471983D01*
X90014808Y-102471981D01*
X90006704Y-102431239D01*
X89984046Y-102317331D01*
X89984044Y-102317326D01*
X89923706Y-102171655D01*
X89923699Y-102171642D01*
X89836098Y-102040539D01*
X89836095Y-102040535D01*
X89724601Y-101929041D01*
X89724597Y-101929038D01*
X89593494Y-101841437D01*
X89593481Y-101841430D01*
X89447810Y-101781092D01*
X89447798Y-101781089D01*
X89293154Y-101750328D01*
X89293151Y-101750328D01*
X89135467Y-101750328D01*
X89135464Y-101750328D01*
X88980819Y-101781089D01*
X88980807Y-101781092D01*
X88831476Y-101842947D01*
X88762007Y-101850416D01*
X88736574Y-101842948D01*
X88608135Y-101789747D01*
X88608127Y-101789745D01*
X88453483Y-101758984D01*
X88453480Y-101758984D01*
X88295796Y-101758984D01*
X88295793Y-101758984D01*
X88141148Y-101789745D01*
X88141136Y-101789748D01*
X87995456Y-101850090D01*
X87990941Y-101852504D01*
X87922537Y-101866740D01*
X87880889Y-101854512D01*
X87880561Y-101855306D01*
X87729254Y-101792633D01*
X87729242Y-101792630D01*
X87574598Y-101761869D01*
X87574595Y-101761869D01*
X87416911Y-101761869D01*
X87416908Y-101761869D01*
X87262263Y-101792630D01*
X87262251Y-101792633D01*
X87116581Y-101852971D01*
X87116567Y-101852979D01*
X87115734Y-101853536D01*
X87115231Y-101853693D01*
X87111200Y-101855848D01*
X87110791Y-101855083D01*
X87049055Y-101874409D01*
X86999398Y-101864990D01*
X86859544Y-101807061D01*
X86859532Y-101807058D01*
X86704888Y-101776297D01*
X86704885Y-101776297D01*
X86547201Y-101776297D01*
X86547198Y-101776297D01*
X86392553Y-101807058D01*
X86392550Y-101807059D01*
X86392549Y-101807059D01*
X86392546Y-101807060D01*
X86324967Y-101835052D01*
X86264108Y-101860260D01*
X86194638Y-101867728D01*
X86169204Y-101860259D01*
X86019872Y-101798404D01*
X86019860Y-101798401D01*
X85865216Y-101767640D01*
X85865213Y-101767640D01*
X85707529Y-101767640D01*
X85707526Y-101767640D01*
X85552881Y-101798401D01*
X85552869Y-101798404D01*
X85410541Y-101857358D01*
X85341072Y-101864827D01*
X85315645Y-101857361D01*
X85261782Y-101835051D01*
X85261775Y-101835049D01*
X85261774Y-101835049D01*
X85261773Y-101835048D01*
X85107130Y-101804288D01*
X85107127Y-101804288D01*
X84949443Y-101804288D01*
X84949440Y-101804288D01*
X84794795Y-101835049D01*
X84794783Y-101835052D01*
X84649112Y-101895390D01*
X84649099Y-101895397D01*
X84517996Y-101982998D01*
X84517992Y-101983001D01*
X84406498Y-102094495D01*
X84406495Y-102094499D01*
X84318894Y-102225602D01*
X84318887Y-102225615D01*
X84258549Y-102371286D01*
X84258546Y-102371298D01*
X84227785Y-102525941D01*
X84227785Y-102577186D01*
X84208100Y-102644225D01*
X84155296Y-102689980D01*
X84086138Y-102699924D01*
X84079595Y-102698804D01*
X84006696Y-102684304D01*
X83849012Y-102684304D01*
X83849009Y-102684304D01*
X83694364Y-102715065D01*
X83694352Y-102715068D01*
X83548681Y-102775406D01*
X83548668Y-102775413D01*
X83417565Y-102863014D01*
X83417561Y-102863017D01*
X83306067Y-102974511D01*
X83306064Y-102974515D01*
X83218463Y-103105618D01*
X83218456Y-103105631D01*
X83158118Y-103251302D01*
X83158115Y-103251314D01*
X83127354Y-103405957D01*
X78000499Y-103405957D01*
X78000499Y-96928326D01*
X82878992Y-96928326D01*
X82916864Y-97118715D01*
X82916866Y-97118721D01*
X82991155Y-97298070D01*
X83028527Y-97354002D01*
X83099006Y-97459482D01*
X83236271Y-97596747D01*
X83236274Y-97596749D01*
X83397684Y-97704599D01*
X83505088Y-97749087D01*
X83559492Y-97792927D01*
X83581557Y-97859221D01*
X83564278Y-97926921D01*
X83513141Y-97974532D01*
X83505092Y-97978208D01*
X83478803Y-97989097D01*
X83478794Y-97989102D01*
X83347691Y-98076703D01*
X83347687Y-98076706D01*
X83236193Y-98188200D01*
X83236190Y-98188204D01*
X83148589Y-98319307D01*
X83148582Y-98319320D01*
X83088244Y-98464991D01*
X83088241Y-98465003D01*
X83057480Y-98619646D01*
X83057480Y-98777339D01*
X83088241Y-98931982D01*
X83088244Y-98931994D01*
X83148582Y-99077665D01*
X83148589Y-99077678D01*
X83236190Y-99208781D01*
X83236193Y-99208785D01*
X83347687Y-99320279D01*
X83347691Y-99320282D01*
X83478794Y-99407883D01*
X83478807Y-99407890D01*
X83621615Y-99467042D01*
X83624483Y-99468230D01*
X83779133Y-99498992D01*
X83779136Y-99498993D01*
X83779138Y-99498993D01*
X83936824Y-99498993D01*
X83936825Y-99498992D01*
X83982811Y-99489845D01*
X84097452Y-99467042D01*
X84097804Y-99468813D01*
X84159163Y-99468255D01*
X84218283Y-99505492D01*
X84247885Y-99568781D01*
X84246930Y-99611736D01*
X84222914Y-99732473D01*
X84222914Y-99890166D01*
X84253675Y-100044809D01*
X84253678Y-100044821D01*
X84314016Y-100190492D01*
X84314023Y-100190505D01*
X84401624Y-100321608D01*
X84401627Y-100321612D01*
X84513121Y-100433106D01*
X84513125Y-100433109D01*
X84644228Y-100520710D01*
X84644241Y-100520717D01*
X84775707Y-100575171D01*
X84789917Y-100581057D01*
X84944567Y-100611819D01*
X84944570Y-100611820D01*
X84944572Y-100611820D01*
X85102258Y-100611820D01*
X85102259Y-100611819D01*
X85256911Y-100581057D01*
X85399244Y-100522100D01*
X85468713Y-100514632D01*
X85494139Y-100522098D01*
X85548003Y-100544409D01*
X85548007Y-100544409D01*
X85548011Y-100544411D01*
X85702653Y-100575171D01*
X85702656Y-100575172D01*
X85702658Y-100575172D01*
X85860344Y-100575172D01*
X85860345Y-100575171D01*
X86014997Y-100544409D01*
X86143434Y-100491208D01*
X86212903Y-100483740D01*
X86238339Y-100491209D01*
X86241991Y-100492721D01*
X86241993Y-100492723D01*
X86387675Y-100553066D01*
X86542325Y-100583828D01*
X86542328Y-100583829D01*
X86542330Y-100583829D01*
X86700016Y-100583829D01*
X86700017Y-100583828D01*
X86854669Y-100553066D01*
X87000351Y-100492723D01*
X87001177Y-100492171D01*
X87001675Y-100492014D01*
X87005718Y-100489854D01*
X87006127Y-100490620D01*
X87067850Y-100471288D01*
X87117525Y-100480706D01*
X87257385Y-100538638D01*
X87397531Y-100566515D01*
X87412035Y-100569400D01*
X87412038Y-100569401D01*
X87412040Y-100569401D01*
X87569726Y-100569401D01*
X87569727Y-100569400D01*
X87724379Y-100538638D01*
X87870061Y-100478295D01*
X87870076Y-100478284D01*
X87874551Y-100475893D01*
X87942952Y-100461640D01*
X87984628Y-100473876D01*
X87984959Y-100473079D01*
X88136265Y-100535751D01*
X88136270Y-100535753D01*
X88247404Y-100557859D01*
X88290920Y-100566515D01*
X88290923Y-100566516D01*
X88290925Y-100566516D01*
X88448611Y-100566516D01*
X88448612Y-100566515D01*
X88603264Y-100535753D01*
X88748946Y-100475410D01*
X88748947Y-100475409D01*
X88752598Y-100473897D01*
X88822068Y-100466428D01*
X88847503Y-100473897D01*
X88960521Y-100520710D01*
X88975941Y-100527097D01*
X89106485Y-100553064D01*
X89130591Y-100557859D01*
X89130594Y-100557860D01*
X89130596Y-100557860D01*
X89288282Y-100557860D01*
X89288283Y-100557859D01*
X89442935Y-100527097D01*
X89588617Y-100466754D01*
X89719727Y-100379149D01*
X89831227Y-100267649D01*
X89918832Y-100136539D01*
X89979175Y-99990857D01*
X90009938Y-99836202D01*
X90009938Y-99678518D01*
X90009938Y-99678515D01*
X90009937Y-99678513D01*
X89979176Y-99523870D01*
X89979175Y-99523863D01*
X89956131Y-99468230D01*
X89918835Y-99378187D01*
X89918828Y-99378174D01*
X89831227Y-99247071D01*
X89831224Y-99247067D01*
X89719730Y-99135573D01*
X89719726Y-99135570D01*
X89588623Y-99047969D01*
X89588610Y-99047962D01*
X89442939Y-98987624D01*
X89442927Y-98987621D01*
X89288283Y-98956860D01*
X89288280Y-98956860D01*
X89130596Y-98956860D01*
X89130593Y-98956860D01*
X88975948Y-98987621D01*
X88975936Y-98987624D01*
X88826605Y-99049479D01*
X88757136Y-99056948D01*
X88731703Y-99049480D01*
X88603264Y-98996279D01*
X88603256Y-98996277D01*
X88448612Y-98965516D01*
X88448609Y-98965516D01*
X88290925Y-98965516D01*
X88290922Y-98965516D01*
X88136277Y-98996277D01*
X88136265Y-98996280D01*
X87990585Y-99056622D01*
X87986070Y-99059036D01*
X87917666Y-99073272D01*
X87876018Y-99061044D01*
X87875690Y-99061838D01*
X87724383Y-98999165D01*
X87724371Y-98999162D01*
X87569727Y-98968401D01*
X87569724Y-98968401D01*
X87412040Y-98968401D01*
X87412037Y-98968401D01*
X87257392Y-98999162D01*
X87257380Y-98999165D01*
X87111710Y-99059503D01*
X87111696Y-99059511D01*
X87110863Y-99060068D01*
X87110360Y-99060225D01*
X87106329Y-99062380D01*
X87105920Y-99061615D01*
X87044184Y-99080941D01*
X86994527Y-99071522D01*
X86854673Y-99013593D01*
X86854661Y-99013590D01*
X86700017Y-98982829D01*
X86700014Y-98982829D01*
X86542330Y-98982829D01*
X86542327Y-98982829D01*
X86387682Y-99013590D01*
X86387679Y-99013591D01*
X86387678Y-99013591D01*
X86387675Y-99013592D01*
X86317230Y-99042771D01*
X86259237Y-99066792D01*
X86189767Y-99074260D01*
X86164333Y-99066791D01*
X86015001Y-99004936D01*
X86014989Y-99004933D01*
X85860345Y-98974172D01*
X85860342Y-98974172D01*
X85702658Y-98974172D01*
X85702655Y-98974172D01*
X85548010Y-99004933D01*
X85547998Y-99004936D01*
X85405670Y-99063890D01*
X85336201Y-99071359D01*
X85310774Y-99063893D01*
X85256911Y-99041583D01*
X85256904Y-99041581D01*
X85256903Y-99041581D01*
X85256902Y-99041580D01*
X85102259Y-99010820D01*
X85102256Y-99010820D01*
X84944572Y-99010820D01*
X84944569Y-99010820D01*
X84783942Y-99042771D01*
X84783591Y-99041007D01*
X84722191Y-99041546D01*
X84663084Y-99004289D01*
X84633502Y-98940991D01*
X84634463Y-98898075D01*
X84658480Y-98777337D01*
X84658480Y-98619648D01*
X84658479Y-98619646D01*
X84634779Y-98500499D01*
X84627717Y-98464996D01*
X84603511Y-98406556D01*
X84567377Y-98319320D01*
X84567370Y-98319307D01*
X84479769Y-98188204D01*
X84479766Y-98188200D01*
X84368272Y-98076706D01*
X84368268Y-98076703D01*
X84237165Y-97989102D01*
X84237160Y-97989100D01*
X84237159Y-97989099D01*
X84217382Y-97980907D01*
X84162979Y-97937065D01*
X84140915Y-97870771D01*
X84158195Y-97803071D01*
X84209333Y-97755461D01*
X84217371Y-97751790D01*
X84331302Y-97704599D01*
X84492712Y-97596749D01*
X84629981Y-97459480D01*
X84700459Y-97354000D01*
X84754070Y-97309197D01*
X84823395Y-97300489D01*
X84886423Y-97330643D01*
X84891152Y-97335586D01*
X84891371Y-97335368D01*
X85007175Y-97451172D01*
X85007179Y-97451175D01*
X85138282Y-97538776D01*
X85138295Y-97538783D01*
X85283966Y-97599121D01*
X85283971Y-97599123D01*
X85375936Y-97617416D01*
X85438621Y-97629885D01*
X85438624Y-97629886D01*
X85438626Y-97629886D01*
X85596312Y-97629886D01*
X85596313Y-97629885D01*
X85750965Y-97599123D01*
X85896647Y-97538780D01*
X86027757Y-97451175D01*
X86139257Y-97339675D01*
X86226862Y-97208565D01*
X86227068Y-97208069D01*
X86255167Y-97140229D01*
X86287205Y-97062883D01*
X86317968Y-96908228D01*
X86317968Y-96750544D01*
X86317968Y-96750541D01*
X86317967Y-96750539D01*
X86309587Y-96708411D01*
X86287205Y-96595889D01*
X86265629Y-96543800D01*
X86226865Y-96450213D01*
X86226858Y-96450200D01*
X86139257Y-96319097D01*
X86139254Y-96319093D01*
X86027760Y-96207599D01*
X86027756Y-96207596D01*
X85896653Y-96119995D01*
X85896640Y-96119988D01*
X85750969Y-96059650D01*
X85750957Y-96059647D01*
X85596313Y-96028886D01*
X85596310Y-96028886D01*
X85438626Y-96028886D01*
X85438623Y-96028886D01*
X85283978Y-96059647D01*
X85283966Y-96059650D01*
X85138295Y-96119988D01*
X85138282Y-96119995D01*
X85007179Y-96207596D01*
X85007175Y-96207599D01*
X84891371Y-96323404D01*
X84889805Y-96321838D01*
X84840258Y-96355571D01*
X84770413Y-96357424D01*
X84710654Y-96321222D01*
X84699078Y-96306452D01*
X84629984Y-96203046D01*
X84629978Y-96203038D01*
X84492714Y-96065774D01*
X84331299Y-95957921D01*
X84328335Y-95956337D01*
X84327074Y-95955098D01*
X84326237Y-95954539D01*
X84326343Y-95954380D01*
X84278492Y-95907373D01*
X84263033Y-95839235D01*
X84286867Y-95773556D01*
X84317900Y-95743878D01*
X84343646Y-95726674D01*
X84403206Y-95686878D01*
X84480516Y-95609568D01*
X122999500Y-95609568D01*
X122999500Y-95890431D01*
X123030942Y-96169494D01*
X123030945Y-96169512D01*
X123093439Y-96443317D01*
X123093443Y-96443329D01*
X123186200Y-96708411D01*
X123308053Y-96961442D01*
X123308055Y-96961445D01*
X123457477Y-97199248D01*
X123632584Y-97418825D01*
X123831175Y-97617416D01*
X124050752Y-97792523D01*
X124288555Y-97941945D01*
X124541592Y-98063801D01*
X124740680Y-98133465D01*
X124806670Y-98156556D01*
X124806682Y-98156560D01*
X125080491Y-98219055D01*
X125080497Y-98219055D01*
X125080505Y-98219057D01*
X125266547Y-98240018D01*
X125359569Y-98250499D01*
X125359572Y-98250500D01*
X125359575Y-98250500D01*
X125640428Y-98250500D01*
X125640429Y-98250499D01*
X125783055Y-98234429D01*
X125919494Y-98219057D01*
X125919499Y-98219056D01*
X125919509Y-98219055D01*
X126193318Y-98156560D01*
X126458408Y-98063801D01*
X126711445Y-97941945D01*
X126949248Y-97792523D01*
X127168825Y-97617416D01*
X127367416Y-97418825D01*
X127542523Y-97199248D01*
X127691945Y-96961445D01*
X127813801Y-96708408D01*
X127906560Y-96443318D01*
X127969055Y-96169509D01*
X127972332Y-96140431D01*
X127992895Y-95957921D01*
X128000500Y-95890425D01*
X128000500Y-95859568D01*
X170999500Y-95859568D01*
X170999500Y-96140431D01*
X171030942Y-96419494D01*
X171030945Y-96419512D01*
X171093439Y-96693317D01*
X171093443Y-96693329D01*
X171186200Y-96958411D01*
X171308053Y-97211442D01*
X171308055Y-97211445D01*
X171457477Y-97449248D01*
X171632584Y-97668825D01*
X171831175Y-97867416D01*
X172050752Y-98042523D01*
X172288555Y-98191945D01*
X172288557Y-98191946D01*
X172344850Y-98219055D01*
X172541592Y-98313801D01*
X172740680Y-98383465D01*
X172806670Y-98406556D01*
X172806682Y-98406560D01*
X173080491Y-98469055D01*
X173080497Y-98469055D01*
X173080505Y-98469057D01*
X173266547Y-98490018D01*
X173359569Y-98500499D01*
X173359572Y-98500500D01*
X173359575Y-98500500D01*
X173640428Y-98500500D01*
X173640429Y-98500499D01*
X173783055Y-98484429D01*
X173919494Y-98469057D01*
X173919499Y-98469056D01*
X173919509Y-98469055D01*
X174193318Y-98406560D01*
X174458408Y-98313801D01*
X174711445Y-98191945D01*
X174949248Y-98042523D01*
X175168825Y-97867416D01*
X175367416Y-97668825D01*
X175542523Y-97449248D01*
X175691945Y-97211445D01*
X175813801Y-96958408D01*
X175906560Y-96693318D01*
X175969055Y-96419509D01*
X175975259Y-96364452D01*
X175992931Y-96207599D01*
X176000500Y-96140425D01*
X176000500Y-95859575D01*
X175972332Y-95609572D01*
X175969057Y-95580505D01*
X175969054Y-95580487D01*
X175906560Y-95306682D01*
X175906556Y-95306670D01*
X175883465Y-95240680D01*
X175813801Y-95041592D01*
X175712674Y-94831599D01*
X175691946Y-94788557D01*
X175627452Y-94685916D01*
X175542523Y-94550752D01*
X175367416Y-94331175D01*
X175168825Y-94132584D01*
X174949248Y-93957477D01*
X174711445Y-93808055D01*
X174711442Y-93808053D01*
X174458411Y-93686200D01*
X174193329Y-93593443D01*
X174193317Y-93593439D01*
X173919512Y-93530945D01*
X173919494Y-93530942D01*
X173640431Y-93499500D01*
X173640425Y-93499500D01*
X173359575Y-93499500D01*
X173359568Y-93499500D01*
X173080505Y-93530942D01*
X173080487Y-93530945D01*
X172806682Y-93593439D01*
X172806670Y-93593443D01*
X172541588Y-93686200D01*
X172288557Y-93808053D01*
X172050753Y-93957476D01*
X171831175Y-94132583D01*
X171632583Y-94331175D01*
X171457476Y-94550753D01*
X171308053Y-94788557D01*
X171186200Y-95041588D01*
X171093443Y-95306670D01*
X171093439Y-95306682D01*
X171030945Y-95580487D01*
X171030942Y-95580505D01*
X170999500Y-95859568D01*
X128000500Y-95859568D01*
X128000500Y-95609575D01*
X127969055Y-95330491D01*
X127906560Y-95056682D01*
X127901278Y-95041588D01*
X127881912Y-94986242D01*
X127813801Y-94791592D01*
X127691945Y-94538555D01*
X127542523Y-94300752D01*
X127367416Y-94081175D01*
X127168825Y-93882584D01*
X126949248Y-93707477D01*
X126711445Y-93558055D01*
X126711442Y-93558053D01*
X126458411Y-93436200D01*
X126193329Y-93343443D01*
X126193317Y-93343439D01*
X125919512Y-93280945D01*
X125919494Y-93280942D01*
X125640431Y-93249500D01*
X125640425Y-93249500D01*
X125359575Y-93249500D01*
X125359568Y-93249500D01*
X125080505Y-93280942D01*
X125080487Y-93280945D01*
X124806682Y-93343439D01*
X124806670Y-93343443D01*
X124541588Y-93436200D01*
X124288557Y-93558053D01*
X124050753Y-93707476D01*
X123831175Y-93882583D01*
X123632583Y-94081175D01*
X123457476Y-94300753D01*
X123308053Y-94538557D01*
X123186200Y-94791588D01*
X123093443Y-95056670D01*
X123093439Y-95056682D01*
X123030945Y-95330487D01*
X123030942Y-95330505D01*
X122999500Y-95609568D01*
X84480516Y-95609568D01*
X84514706Y-95575378D01*
X84528272Y-95555074D01*
X84540213Y-95537205D01*
X84602307Y-95444274D01*
X84602307Y-95444273D01*
X84602311Y-95444268D01*
X84662654Y-95298586D01*
X84693417Y-95143931D01*
X84693417Y-94986247D01*
X84693417Y-94986244D01*
X84693416Y-94986242D01*
X84662655Y-94831599D01*
X84662654Y-94831592D01*
X84646084Y-94791588D01*
X84602314Y-94685916D01*
X84602307Y-94685903D01*
X84514706Y-94554800D01*
X84514703Y-94554796D01*
X84403209Y-94443302D01*
X84403205Y-94443299D01*
X84272102Y-94355698D01*
X84272089Y-94355691D01*
X84126418Y-94295353D01*
X84126406Y-94295350D01*
X83971762Y-94264589D01*
X83971759Y-94264589D01*
X83814075Y-94264589D01*
X83814072Y-94264589D01*
X83659427Y-94295350D01*
X83659415Y-94295353D01*
X83513744Y-94355691D01*
X83513731Y-94355698D01*
X83382628Y-94443299D01*
X83382624Y-94443302D01*
X83271130Y-94554796D01*
X83271127Y-94554800D01*
X83183526Y-94685903D01*
X83183519Y-94685916D01*
X83123181Y-94831587D01*
X83123178Y-94831599D01*
X83092417Y-94986242D01*
X83092417Y-95143935D01*
X83123178Y-95298578D01*
X83123181Y-95298590D01*
X83183519Y-95444261D01*
X83183526Y-95444274D01*
X83271127Y-95575377D01*
X83271130Y-95575381D01*
X83382624Y-95686875D01*
X83382628Y-95686878D01*
X83445911Y-95729163D01*
X83490716Y-95782775D01*
X83499423Y-95852100D01*
X83469268Y-95915128D01*
X83424474Y-95946826D01*
X83397684Y-95957922D01*
X83236271Y-96065774D01*
X83099006Y-96203039D01*
X82991154Y-96364453D01*
X82916866Y-96543800D01*
X82916864Y-96543806D01*
X82878993Y-96734195D01*
X82878993Y-96734198D01*
X82878993Y-96928324D01*
X82878993Y-96928326D01*
X82878992Y-96928326D01*
X78000499Y-96928326D01*
X78000499Y-93124500D01*
X78020184Y-93057461D01*
X78072988Y-93011706D01*
X78124499Y-93000500D01*
X176375499Y-93000500D01*
X176442538Y-93020185D01*
G37*
%TD.AperFunction*%
%TA.AperFunction,NonConductor*%
G36*
X171301444Y-102768999D02*
G01*
X171340486Y-102814056D01*
X171344951Y-102822820D01*
X171469890Y-102994786D01*
X171620213Y-103145109D01*
X171792182Y-103270050D01*
X171800946Y-103274516D01*
X171851742Y-103322491D01*
X171868536Y-103390312D01*
X171845998Y-103456447D01*
X171800946Y-103495484D01*
X171792182Y-103499949D01*
X171620213Y-103624890D01*
X171469890Y-103775213D01*
X171344949Y-103947182D01*
X171340484Y-103955946D01*
X171292509Y-104006742D01*
X171224688Y-104023536D01*
X171158553Y-104000998D01*
X171119516Y-103955946D01*
X171115050Y-103947182D01*
X170990109Y-103775213D01*
X170839786Y-103624890D01*
X170667820Y-103499951D01*
X170667115Y-103499591D01*
X170659054Y-103495485D01*
X170608259Y-103447512D01*
X170591463Y-103379692D01*
X170613999Y-103313556D01*
X170659054Y-103274515D01*
X170667816Y-103270051D01*
X170722869Y-103230053D01*
X170839786Y-103145109D01*
X170839788Y-103145106D01*
X170839792Y-103145104D01*
X170990104Y-102994792D01*
X170990106Y-102994788D01*
X170990109Y-102994786D01*
X171115048Y-102822820D01*
X171115047Y-102822820D01*
X171115051Y-102822816D01*
X171119514Y-102814054D01*
X171167488Y-102763259D01*
X171235308Y-102746463D01*
X171301444Y-102768999D01*
G37*
%TD.AperFunction*%
%TA.AperFunction,NonConductor*%
G36*
X171301444Y-105308999D02*
G01*
X171340486Y-105354056D01*
X171344951Y-105362820D01*
X171469890Y-105534786D01*
X171620213Y-105685109D01*
X171792182Y-105810050D01*
X171800946Y-105814516D01*
X171851742Y-105862491D01*
X171868536Y-105930312D01*
X171845998Y-105996447D01*
X171800946Y-106035484D01*
X171792182Y-106039949D01*
X171620213Y-106164890D01*
X171469890Y-106315213D01*
X171344949Y-106487182D01*
X171340484Y-106495946D01*
X171292509Y-106546742D01*
X171224688Y-106563536D01*
X171158553Y-106540998D01*
X171119516Y-106495946D01*
X171115050Y-106487182D01*
X170990109Y-106315213D01*
X170839786Y-106164890D01*
X170667820Y-106039951D01*
X170667115Y-106039591D01*
X170659054Y-106035485D01*
X170608259Y-105987512D01*
X170591463Y-105919692D01*
X170613999Y-105853556D01*
X170659054Y-105814515D01*
X170667816Y-105810051D01*
X170689789Y-105794086D01*
X170839786Y-105685109D01*
X170839788Y-105685106D01*
X170839792Y-105685104D01*
X170990104Y-105534792D01*
X170990106Y-105534788D01*
X170990109Y-105534786D01*
X171115048Y-105362820D01*
X171115047Y-105362820D01*
X171115051Y-105362816D01*
X171119514Y-105354054D01*
X171167488Y-105303259D01*
X171235308Y-105286463D01*
X171301444Y-105308999D01*
G37*
%TD.AperFunction*%
%TA.AperFunction,NonConductor*%
G36*
X171301444Y-107848999D02*
G01*
X171340486Y-107894056D01*
X171344951Y-107902820D01*
X171469890Y-108074786D01*
X171620213Y-108225109D01*
X171792182Y-108350050D01*
X171800946Y-108354516D01*
X171851742Y-108402491D01*
X171868536Y-108470312D01*
X171845998Y-108536447D01*
X171800946Y-108575484D01*
X171792182Y-108579949D01*
X171620213Y-108704890D01*
X171469890Y-108855213D01*
X171344949Y-109027182D01*
X171340484Y-109035946D01*
X171292509Y-109086742D01*
X171224688Y-109103536D01*
X171158553Y-109080998D01*
X171119516Y-109035946D01*
X171115050Y-109027182D01*
X170990109Y-108855213D01*
X170839786Y-108704890D01*
X170667820Y-108579951D01*
X170665643Y-108578842D01*
X170659054Y-108575485D01*
X170608259Y-108527512D01*
X170591463Y-108459692D01*
X170613999Y-108393556D01*
X170659054Y-108354515D01*
X170667816Y-108350051D01*
X170738111Y-108298979D01*
X170839786Y-108225109D01*
X170839788Y-108225106D01*
X170839792Y-108225104D01*
X170990104Y-108074792D01*
X170990106Y-108074788D01*
X170990109Y-108074786D01*
X171115048Y-107902820D01*
X171115047Y-107902820D01*
X171115051Y-107902816D01*
X171119514Y-107894054D01*
X171167488Y-107843259D01*
X171235308Y-107826463D01*
X171301444Y-107848999D01*
G37*
%TD.AperFunction*%
%TA.AperFunction,NonConductor*%
G36*
X171301444Y-110388999D02*
G01*
X171340486Y-110434056D01*
X171344951Y-110442820D01*
X171469890Y-110614786D01*
X171620213Y-110765109D01*
X171792182Y-110890050D01*
X171800946Y-110894516D01*
X171851742Y-110942491D01*
X171868536Y-111010312D01*
X171845998Y-111076447D01*
X171800946Y-111115484D01*
X171792182Y-111119949D01*
X171620213Y-111244890D01*
X171469890Y-111395213D01*
X171344949Y-111567182D01*
X171340484Y-111575946D01*
X171292509Y-111626742D01*
X171224688Y-111643536D01*
X171158553Y-111620998D01*
X171119516Y-111575946D01*
X171115050Y-111567182D01*
X170990109Y-111395213D01*
X170839786Y-111244890D01*
X170667820Y-111119951D01*
X170667115Y-111119591D01*
X170659054Y-111115485D01*
X170608259Y-111067512D01*
X170591463Y-110999692D01*
X170613999Y-110933556D01*
X170659054Y-110894515D01*
X170667816Y-110890051D01*
X170689789Y-110874086D01*
X170839786Y-110765109D01*
X170839788Y-110765106D01*
X170839792Y-110765104D01*
X170990104Y-110614792D01*
X170990106Y-110614788D01*
X170990109Y-110614786D01*
X171115048Y-110442820D01*
X171115047Y-110442820D01*
X171115051Y-110442816D01*
X171119514Y-110434054D01*
X171167488Y-110383259D01*
X171235308Y-110366463D01*
X171301444Y-110388999D01*
G37*
%TD.AperFunction*%
%TA.AperFunction,NonConductor*%
G36*
X171301444Y-112928999D02*
G01*
X171340486Y-112974056D01*
X171344951Y-112982820D01*
X171469890Y-113154786D01*
X171620213Y-113305109D01*
X171792182Y-113430050D01*
X171800946Y-113434516D01*
X171851742Y-113482491D01*
X171868536Y-113550312D01*
X171845998Y-113616447D01*
X171800946Y-113655484D01*
X171792182Y-113659949D01*
X171620213Y-113784890D01*
X171469890Y-113935213D01*
X171344949Y-114107182D01*
X171340484Y-114115946D01*
X171292509Y-114166742D01*
X171224688Y-114183536D01*
X171158553Y-114160998D01*
X171119516Y-114115946D01*
X171115050Y-114107182D01*
X170990109Y-113935213D01*
X170839786Y-113784890D01*
X170667820Y-113659951D01*
X170667115Y-113659591D01*
X170659054Y-113655485D01*
X170608259Y-113607512D01*
X170591463Y-113539692D01*
X170613999Y-113473556D01*
X170659054Y-113434515D01*
X170667816Y-113430051D01*
X170764823Y-113359572D01*
X170839786Y-113305109D01*
X170839788Y-113305106D01*
X170839792Y-113305104D01*
X170990104Y-113154792D01*
X170990106Y-113154788D01*
X170990109Y-113154786D01*
X171099086Y-113004789D01*
X171115051Y-112982816D01*
X171119514Y-112974054D01*
X171167488Y-112923259D01*
X171235308Y-112906463D01*
X171301444Y-112928999D01*
G37*
%TD.AperFunction*%
%TA.AperFunction,NonConductor*%
G36*
X171301444Y-115468999D02*
G01*
X171340486Y-115514056D01*
X171344951Y-115522820D01*
X171469890Y-115694786D01*
X171620213Y-115845109D01*
X171792182Y-115970050D01*
X171800946Y-115974516D01*
X171851742Y-116022491D01*
X171868536Y-116090312D01*
X171845998Y-116156447D01*
X171800946Y-116195484D01*
X171792182Y-116199949D01*
X171620215Y-116324889D01*
X171506673Y-116438431D01*
X171445350Y-116471915D01*
X171375658Y-116466931D01*
X171319725Y-116425059D01*
X171302810Y-116394082D01*
X171253797Y-116262671D01*
X171253793Y-116262664D01*
X171167547Y-116147455D01*
X171167544Y-116147452D01*
X171052335Y-116061206D01*
X171052328Y-116061202D01*
X170920917Y-116012189D01*
X170864983Y-115970318D01*
X170840566Y-115904853D01*
X170855418Y-115836580D01*
X170876563Y-115808332D01*
X170990104Y-115694792D01*
X170992173Y-115691945D01*
X171115048Y-115522820D01*
X171115047Y-115522820D01*
X171115051Y-115522816D01*
X171119514Y-115514054D01*
X171167488Y-115463259D01*
X171235308Y-115446463D01*
X171301444Y-115468999D01*
G37*
%TD.AperFunction*%
M02*
