%TF.GenerationSoftware,KiCad,Pcbnew,9.0.7*%
%TF.CreationDate,2026-03-02T10:01:13+00:00*%
%TF.ProjectId,SPI_adapter,5350495f-6164-4617-9074-65722e6b6963,rev?*%
%TF.SameCoordinates,Original*%
%TF.FileFunction,Legend,Top*%
%TF.FilePolarity,Positive*%
%FSLAX46Y46*%
G04 Gerber Fmt 4.6, Leading zero omitted, Abs format (unit mm)*
G04 Created by KiCad (PCBNEW 9.0.7) date 2026-03-02 10:01:13*
%MOMM*%
%LPD*%
G01*
G04 APERTURE LIST*
%ADD10C,0.150000*%
%ADD11C,0.000000*%
%ADD12C,0.120000*%
%ADD13C,0.127000*%
%ADD14C,0.300000*%
G04 APERTURE END LIST*
D10*
X90539580Y-112116666D02*
X90587200Y-112164285D01*
X90587200Y-112164285D02*
X90634819Y-112307142D01*
X90634819Y-112307142D02*
X90634819Y-112402380D01*
X90634819Y-112402380D02*
X90587200Y-112545237D01*
X90587200Y-112545237D02*
X90491961Y-112640475D01*
X90491961Y-112640475D02*
X90396723Y-112688094D01*
X90396723Y-112688094D02*
X90206247Y-112735713D01*
X90206247Y-112735713D02*
X90063390Y-112735713D01*
X90063390Y-112735713D02*
X89872914Y-112688094D01*
X89872914Y-112688094D02*
X89777676Y-112640475D01*
X89777676Y-112640475D02*
X89682438Y-112545237D01*
X89682438Y-112545237D02*
X89634819Y-112402380D01*
X89634819Y-112402380D02*
X89634819Y-112307142D01*
X89634819Y-112307142D02*
X89682438Y-112164285D01*
X89682438Y-112164285D02*
X89730057Y-112116666D01*
X90634819Y-111164285D02*
X90634819Y-111735713D01*
X90634819Y-111449999D02*
X89634819Y-111449999D01*
X89634819Y-111449999D02*
X89777676Y-111545237D01*
X89777676Y-111545237D02*
X89872914Y-111640475D01*
X89872914Y-111640475D02*
X89920533Y-111735713D01*
X99431995Y-96738923D02*
X99431995Y-97873678D01*
X99431995Y-97873678D02*
X99498745Y-98007178D01*
X99498745Y-98007178D02*
X99565496Y-98073929D01*
X99565496Y-98073929D02*
X99698996Y-98140679D01*
X99698996Y-98140679D02*
X99965997Y-98140679D01*
X99965997Y-98140679D02*
X100099498Y-98073929D01*
X100099498Y-98073929D02*
X100166248Y-98007178D01*
X100166248Y-98007178D02*
X100232998Y-97873678D01*
X100232998Y-97873678D02*
X100232998Y-96738923D01*
X101634754Y-98140679D02*
X100833751Y-98140679D01*
X101234252Y-98140679D02*
X101234252Y-96738923D01*
X101234252Y-96738923D02*
X101100752Y-96939174D01*
X101100752Y-96939174D02*
X100967251Y-97072674D01*
X100967251Y-97072674D02*
X100833751Y-97139425D01*
X87179580Y-106641666D02*
X87227200Y-106689285D01*
X87227200Y-106689285D02*
X87274819Y-106832142D01*
X87274819Y-106832142D02*
X87274819Y-106927380D01*
X87274819Y-106927380D02*
X87227200Y-107070237D01*
X87227200Y-107070237D02*
X87131961Y-107165475D01*
X87131961Y-107165475D02*
X87036723Y-107213094D01*
X87036723Y-107213094D02*
X86846247Y-107260713D01*
X86846247Y-107260713D02*
X86703390Y-107260713D01*
X86703390Y-107260713D02*
X86512914Y-107213094D01*
X86512914Y-107213094D02*
X86417676Y-107165475D01*
X86417676Y-107165475D02*
X86322438Y-107070237D01*
X86322438Y-107070237D02*
X86274819Y-106927380D01*
X86274819Y-106927380D02*
X86274819Y-106832142D01*
X86274819Y-106832142D02*
X86322438Y-106689285D01*
X86322438Y-106689285D02*
X86370057Y-106641666D01*
X86370057Y-106260713D02*
X86322438Y-106213094D01*
X86322438Y-106213094D02*
X86274819Y-106117856D01*
X86274819Y-106117856D02*
X86274819Y-105879761D01*
X86274819Y-105879761D02*
X86322438Y-105784523D01*
X86322438Y-105784523D02*
X86370057Y-105736904D01*
X86370057Y-105736904D02*
X86465295Y-105689285D01*
X86465295Y-105689285D02*
X86560533Y-105689285D01*
X86560533Y-105689285D02*
X86703390Y-105736904D01*
X86703390Y-105736904D02*
X87274819Y-106308332D01*
X87274819Y-106308332D02*
X87274819Y-105689285D01*
X80311159Y-107666080D02*
X80311159Y-108380365D01*
X80311159Y-108380365D02*
X80263540Y-108523222D01*
X80263540Y-108523222D02*
X80168302Y-108618461D01*
X80168302Y-108618461D02*
X80025445Y-108666080D01*
X80025445Y-108666080D02*
X79930207Y-108666080D01*
X80739731Y-107761318D02*
X80787350Y-107713699D01*
X80787350Y-107713699D02*
X80882588Y-107666080D01*
X80882588Y-107666080D02*
X81120683Y-107666080D01*
X81120683Y-107666080D02*
X81215921Y-107713699D01*
X81215921Y-107713699D02*
X81263540Y-107761318D01*
X81263540Y-107761318D02*
X81311159Y-107856556D01*
X81311159Y-107856556D02*
X81311159Y-107951794D01*
X81311159Y-107951794D02*
X81263540Y-108094651D01*
X81263540Y-108094651D02*
X80692112Y-108666080D01*
X80692112Y-108666080D02*
X81311159Y-108666080D01*
D11*
%TO.C,G\u002A\u002A\u002A*%
G36*
X124540076Y-106326025D02*
G01*
X124794033Y-106339799D01*
X124952277Y-106365499D01*
X125053449Y-106418144D01*
X125136191Y-106512747D01*
X125178436Y-106574091D01*
X125275272Y-106730960D01*
X125328484Y-106842239D01*
X125332010Y-106859673D01*
X125269691Y-106884276D01*
X125102186Y-106903584D01*
X124858674Y-106914979D01*
X124693651Y-106916931D01*
X124055291Y-106916931D01*
X124055291Y-106611607D01*
X124055291Y-106306282D01*
X124540076Y-106326025D01*
G37*
G36*
X125645020Y-103945601D02*
G01*
X125706072Y-104030563D01*
X125721571Y-104130722D01*
X125721459Y-104290057D01*
X125693573Y-104382706D01*
X125597252Y-104417620D01*
X125451146Y-104430688D01*
X125324909Y-104419951D01*
X125275090Y-104361517D01*
X125274592Y-104216053D01*
X125277557Y-104178704D01*
X125302048Y-104012959D01*
X125361283Y-103942130D01*
X125490109Y-103926742D01*
X125500000Y-103926720D01*
X125645020Y-103945601D01*
G37*
G36*
X126421806Y-108784742D02*
G01*
X126680706Y-108923246D01*
X126876832Y-109155937D01*
X126916810Y-109238462D01*
X126956481Y-109369610D01*
X126982896Y-109553475D01*
X126997335Y-109811173D01*
X127001081Y-110163820D01*
X126996762Y-110556948D01*
X126978307Y-111639916D01*
X125748872Y-111991765D01*
X125362493Y-112103879D01*
X125021353Y-112205787D01*
X124746256Y-112291036D01*
X124558005Y-112353174D01*
X124477400Y-112385746D01*
X124476633Y-112386419D01*
X124458759Y-112425997D01*
X124493534Y-112468720D01*
X124594563Y-112519556D01*
X124775450Y-112583477D01*
X125049801Y-112665452D01*
X125431219Y-112770453D01*
X125785582Y-112864630D01*
X127011905Y-113187664D01*
X127009275Y-113932853D01*
X126996628Y-114374271D01*
X126962810Y-114700722D01*
X126912281Y-114895105D01*
X126788433Y-115079116D01*
X126613156Y-115236534D01*
X126595731Y-115247632D01*
X126503688Y-115296829D01*
X126398617Y-115332543D01*
X126258376Y-115356897D01*
X126060819Y-115372017D01*
X125783803Y-115380024D01*
X125405184Y-115383045D01*
X125180820Y-115383347D01*
X123988095Y-115383598D01*
X123988095Y-115148413D01*
X123988095Y-114913228D01*
X125153607Y-114913228D01*
X125618364Y-114912571D01*
X125965797Y-114903952D01*
X126212960Y-114877393D01*
X126376903Y-114822918D01*
X126474681Y-114730552D01*
X126523345Y-114590318D01*
X126539949Y-114392240D01*
X126541544Y-114126342D01*
X126541534Y-114101264D01*
X126541534Y-113535067D01*
X125785582Y-113341003D01*
X125287549Y-113211972D01*
X124903668Y-113108311D01*
X124617552Y-113023445D01*
X124412814Y-112950800D01*
X124273066Y-112883801D01*
X124181921Y-112815874D01*
X124122990Y-112740445D01*
X124082755Y-112657854D01*
X124024109Y-112477550D01*
X124034860Y-112327192D01*
X124081386Y-112199392D01*
X124120814Y-112113495D01*
X124170265Y-112043364D01*
X124247219Y-111981399D01*
X124369155Y-111919996D01*
X124553551Y-111851552D01*
X124817887Y-111768465D01*
X125179643Y-111663133D01*
X125567196Y-111553144D01*
X125873852Y-111466347D01*
X126140716Y-111390653D01*
X126336461Y-111334960D01*
X126423942Y-111309869D01*
X126471235Y-111283136D01*
X126503973Y-111221087D01*
X126524758Y-111102478D01*
X126536191Y-110906066D01*
X126540876Y-110610608D01*
X126541534Y-110349802D01*
X126539585Y-109972455D01*
X126531903Y-109706232D01*
X126515734Y-109527901D01*
X126488326Y-109414228D01*
X126446924Y-109341980D01*
X126418651Y-109312796D01*
X126226546Y-109212476D01*
X126032023Y-109235858D01*
X125913589Y-109324471D01*
X125844745Y-109454653D01*
X125808086Y-109671112D01*
X125798588Y-109912434D01*
X125773239Y-110323755D01*
X125699333Y-110629845D01*
X125568546Y-110853701D01*
X125406068Y-110996747D01*
X125100965Y-111126434D01*
X124777506Y-111132083D01*
X124479553Y-111019218D01*
X124330045Y-110912005D01*
X124223649Y-110785659D01*
X124151963Y-110615080D01*
X124106585Y-110375170D01*
X124079113Y-110040830D01*
X124067916Y-109789550D01*
X124038727Y-109000000D01*
X124282194Y-109000000D01*
X124525661Y-109000000D01*
X124525661Y-109690604D01*
X124535950Y-110086458D01*
X124571397Y-110366217D01*
X124638874Y-110546926D01*
X124745250Y-110645632D01*
X124897397Y-110679381D01*
X124924418Y-110679894D01*
X125078808Y-110657367D01*
X125187847Y-110576833D01*
X125260895Y-110418862D01*
X125307310Y-110164024D01*
X125334460Y-109828650D01*
X125354404Y-109529194D01*
X125379626Y-109329424D01*
X125420206Y-109194719D01*
X125486230Y-109090461D01*
X125578270Y-108991510D01*
X125839607Y-108813158D01*
X126131112Y-108746141D01*
X126421806Y-108784742D01*
G37*
G36*
X125192884Y-115529347D02*
G01*
X125673846Y-115541060D01*
X126040382Y-115560236D01*
X126312452Y-115593105D01*
X126510015Y-115645897D01*
X126653032Y-115724840D01*
X126761462Y-115836165D01*
X126855265Y-115986101D01*
X126894208Y-116060332D01*
X126970128Y-116301186D01*
X127009760Y-116621518D01*
X127013101Y-116971406D01*
X126980152Y-117300931D01*
X126910914Y-117560170D01*
X126894208Y-117596282D01*
X126800630Y-117763884D01*
X126700624Y-117890316D01*
X126574231Y-117981807D01*
X126401490Y-118044588D01*
X126162443Y-118084887D01*
X125837129Y-118108935D01*
X125405588Y-118122960D01*
X125192884Y-118127267D01*
X123988095Y-118149508D01*
X123988095Y-117913306D01*
X123988095Y-117677104D01*
X125123566Y-117655880D01*
X125593789Y-117645717D01*
X125946537Y-117628599D01*
X126198694Y-117594607D01*
X126367143Y-117533820D01*
X126468767Y-117436319D01*
X126520452Y-117292185D01*
X126539080Y-117091496D01*
X126541534Y-116824334D01*
X126541534Y-116822770D01*
X126538484Y-116545626D01*
X126523491Y-116368432D01*
X126487793Y-116256785D01*
X126422627Y-116176281D01*
X126364483Y-116127629D01*
X126288444Y-116075535D01*
X126198723Y-116038274D01*
X126072823Y-116013394D01*
X125888251Y-115998439D01*
X125622510Y-115990956D01*
X125253107Y-115988491D01*
X125087763Y-115988360D01*
X123988095Y-115988360D01*
X123988095Y-115747733D01*
X123988095Y-115507106D01*
X125192884Y-115529347D01*
G37*
G36*
X127010773Y-100080095D02*
G01*
X127008264Y-100264339D01*
X126992882Y-100416798D01*
X126954413Y-100565623D01*
X126882643Y-100738966D01*
X126767355Y-100964976D01*
X126598336Y-101271805D01*
X126541534Y-101373281D01*
X126373707Y-101674980D01*
X126232324Y-101933419D01*
X126129130Y-102126796D01*
X126075868Y-102233309D01*
X126071164Y-102246493D01*
X126132685Y-102263218D01*
X126294584Y-102275337D01*
X126522866Y-102280397D01*
X126541534Y-102280423D01*
X127011905Y-102280423D01*
X127011905Y-102515609D01*
X127011905Y-102750794D01*
X126407143Y-102750794D01*
X126140824Y-102756322D01*
X125934342Y-102771128D01*
X125842733Y-102787948D01*
X125817677Y-102792549D01*
X125802381Y-102804550D01*
X125845517Y-102907644D01*
X125983700Y-102975155D01*
X126230093Y-103011021D01*
X126521376Y-103019577D01*
X127079100Y-103019577D01*
X127079100Y-103288360D01*
X127079100Y-103557143D01*
X126351660Y-103557143D01*
X125967061Y-103549761D01*
X125757584Y-103524819D01*
X125701587Y-103518152D01*
X125695548Y-103517433D01*
X125516165Y-103444888D01*
X125407955Y-103316855D01*
X125349961Y-103118064D01*
X125321227Y-102833241D01*
X125319487Y-102804994D01*
X125282532Y-102534842D01*
X125812807Y-102534842D01*
X125823257Y-102599603D01*
X125842733Y-102620516D01*
X125853337Y-102527602D01*
X125853987Y-102482011D01*
X125846981Y-102359760D01*
X125829539Y-102345353D01*
X125823257Y-102364418D01*
X125812807Y-102534842D01*
X125282532Y-102534842D01*
X125272137Y-102458854D01*
X125174635Y-102229602D01*
X125113480Y-102180980D01*
X125749542Y-102180980D01*
X125757584Y-102190829D01*
X125797531Y-102181605D01*
X125802381Y-102146032D01*
X125777795Y-102090722D01*
X125757584Y-102101235D01*
X125749542Y-102180980D01*
X125113480Y-102180980D01*
X125020437Y-102107006D01*
X124855036Y-102078836D01*
X124686709Y-102110639D01*
X124570144Y-102216633D01*
X124498256Y-102412691D01*
X124463960Y-102714689D01*
X124458466Y-102967333D01*
X124458466Y-103557143D01*
X124435614Y-103557143D01*
X124256878Y-103557143D01*
X124208944Y-103557143D01*
X124055291Y-103557143D01*
X124055291Y-102847170D01*
X124062086Y-102537943D01*
X124080421Y-102267920D01*
X124107218Y-102072408D01*
X124129191Y-101999114D01*
X124138319Y-101978043D01*
X125667989Y-101978043D01*
X125701587Y-102011640D01*
X125735185Y-101978043D01*
X125701587Y-101944445D01*
X125667989Y-101978043D01*
X124138319Y-101978043D01*
X124170271Y-101904283D01*
X124134080Y-101904131D01*
X124118957Y-101913028D01*
X124074862Y-101894435D01*
X124068280Y-101799221D01*
X124208944Y-101799221D01*
X124246496Y-101782872D01*
X124318634Y-101715213D01*
X124303836Y-101676316D01*
X124294442Y-101675662D01*
X124237607Y-101723389D01*
X124216864Y-101753240D01*
X124208944Y-101799221D01*
X124068280Y-101799221D01*
X124067127Y-101782549D01*
X124090559Y-101611884D01*
X124094050Y-101598108D01*
X124431851Y-101598108D01*
X124435614Y-101660225D01*
X124539868Y-101634738D01*
X124566948Y-101621235D01*
X125399206Y-101621235D01*
X125443365Y-101686043D01*
X125533598Y-101776455D01*
X125630939Y-101854056D01*
X125667989Y-101864480D01*
X125623830Y-101799672D01*
X125533598Y-101709259D01*
X125436256Y-101631659D01*
X125399206Y-101621235D01*
X124566948Y-101621235D01*
X124596941Y-101606280D01*
X124760545Y-101562138D01*
X124978790Y-101553759D01*
X125033954Y-101558362D01*
X125213637Y-101570023D01*
X125286911Y-101546595D01*
X125284992Y-101496930D01*
X125198867Y-101388285D01*
X125126935Y-101337816D01*
X124885262Y-101272866D01*
X124662463Y-101332808D01*
X124529597Y-101450735D01*
X124431851Y-101598108D01*
X124094050Y-101598108D01*
X124139963Y-101416955D01*
X124210147Y-101232274D01*
X124226340Y-101199375D01*
X124405672Y-100986196D01*
X124656638Y-100856775D01*
X124941317Y-100817031D01*
X125221788Y-100872884D01*
X125439511Y-101010005D01*
X125557352Y-101164252D01*
X125650936Y-101361317D01*
X125702344Y-101552150D01*
X125693656Y-101687701D01*
X125689715Y-101694872D01*
X125699019Y-101737852D01*
X125732951Y-101732403D01*
X125794243Y-101666384D01*
X125905416Y-101504098D01*
X126052471Y-101267518D01*
X126221409Y-100978614D01*
X126284380Y-100866939D01*
X126464408Y-100546598D01*
X126631990Y-100252052D01*
X126771003Y-100011389D01*
X126865324Y-99852697D01*
X126880891Y-99827778D01*
X127009641Y-99626191D01*
X127010773Y-100080095D01*
G37*
G36*
X127079100Y-104161905D02*
G01*
X127079100Y-104430688D01*
X126507936Y-104430688D01*
X125936772Y-104430688D01*
X125936772Y-104161905D01*
X125936772Y-103893122D01*
X126507936Y-103893122D01*
X127079100Y-103893122D01*
X127079100Y-104161905D01*
G37*
G36*
X126290523Y-104781274D02*
G01*
X127045503Y-104800265D01*
X127065499Y-105037852D01*
X127066488Y-105209084D01*
X127042658Y-105316719D01*
X127037501Y-105323434D01*
X126942033Y-105352185D01*
X126755290Y-105367476D01*
X126519646Y-105369979D01*
X126277470Y-105360370D01*
X126071136Y-105339322D01*
X125943015Y-105307509D01*
X125940017Y-105305969D01*
X125827995Y-105207389D01*
X125703795Y-105045165D01*
X125676624Y-105001397D01*
X125535544Y-104762284D01*
X126290523Y-104781274D01*
G37*
G36*
X124999572Y-104768717D02*
G01*
X125199152Y-104780044D01*
X125330771Y-104808416D01*
X125427640Y-104861597D01*
X125522969Y-104947354D01*
X125538767Y-104963085D01*
X125634584Y-105067315D01*
X125692818Y-105168924D01*
X125722779Y-105304429D01*
X125733778Y-105510346D01*
X125735185Y-105733403D01*
X125735185Y-106307303D01*
X126390344Y-106326535D01*
X127045503Y-106345767D01*
X127066390Y-106598292D01*
X127060487Y-106792338D01*
X126996824Y-106884735D01*
X126984546Y-106890237D01*
X126876281Y-106904814D01*
X126668252Y-106912070D01*
X126394926Y-106911283D01*
X126209438Y-106906496D01*
X125831040Y-106885892D01*
X125565455Y-106841082D01*
X125391165Y-106751890D01*
X125286653Y-106598143D01*
X125230400Y-106359664D01*
X125200888Y-106016279D01*
X125197619Y-105957828D01*
X125164021Y-105337831D01*
X124609656Y-105318314D01*
X124055291Y-105298798D01*
X124055291Y-105032732D01*
X124055291Y-104766667D01*
X124698820Y-104766667D01*
X124999572Y-104768717D01*
G37*
G36*
X126923456Y-107471451D02*
G01*
X127010272Y-107537423D01*
X127036748Y-107605688D01*
X127069269Y-107884441D01*
X127040536Y-108178268D01*
X127032781Y-108210450D01*
X126950145Y-108291829D01*
X126788104Y-108327967D01*
X126594278Y-108317505D01*
X126416288Y-108259084D01*
X126369589Y-108229386D01*
X126292255Y-108192024D01*
X126161471Y-108164728D01*
X125959093Y-108146120D01*
X125666973Y-108134820D01*
X125266964Y-108129449D01*
X125043092Y-108128592D01*
X124861640Y-108127262D01*
X124579381Y-108125194D01*
X124230575Y-108115915D01*
X124151667Y-108110738D01*
X123977263Y-108099297D01*
X123800030Y-108073884D01*
X123679465Y-108038218D01*
X123648779Y-108023936D01*
X123514156Y-107946254D01*
X123451166Y-107894019D01*
X123450529Y-107891270D01*
X123457825Y-107884681D01*
X123686187Y-107884681D01*
X123749174Y-107970339D01*
X123777752Y-107987378D01*
X123937491Y-108037072D01*
X124140859Y-108059188D01*
X124151667Y-108059259D01*
X124312615Y-108047247D01*
X124379312Y-107992833D01*
X124391270Y-107891270D01*
X124861640Y-107891270D01*
X124861640Y-108059259D01*
X125953571Y-108047964D01*
X126295700Y-108042978D01*
X126562616Y-108036209D01*
X126738789Y-108028310D01*
X126808687Y-108019936D01*
X126776719Y-108013254D01*
X126558299Y-107988690D01*
X126370974Y-107958769D01*
X126348817Y-107954084D01*
X126237618Y-107911912D01*
X126253900Y-107867471D01*
X126390882Y-107824418D01*
X126641785Y-107786408D01*
X126664350Y-107783933D01*
X126749546Y-107768635D01*
X126704914Y-107755493D01*
X126535004Y-107744833D01*
X126244367Y-107736979D01*
X125953571Y-107733160D01*
X124861640Y-107723281D01*
X124861640Y-107891270D01*
X124391270Y-107891270D01*
X124378267Y-107786550D01*
X124314971Y-107737642D01*
X124164948Y-107723737D01*
X124097117Y-107723281D01*
X123878241Y-107746198D01*
X123735237Y-107804983D01*
X123686187Y-107884681D01*
X123457825Y-107884681D01*
X123503571Y-107843369D01*
X123632868Y-107766929D01*
X123648779Y-107758604D01*
X123754893Y-107719231D01*
X123911261Y-107690592D01*
X124137298Y-107671230D01*
X124452415Y-107659689D01*
X124876026Y-107654509D01*
X125043092Y-107653948D01*
X125498495Y-107650830D01*
X125837710Y-107642413D01*
X126078884Y-107627318D01*
X126240162Y-107604167D01*
X126339692Y-107571580D01*
X126369589Y-107553154D01*
X126524535Y-107486163D01*
X126727779Y-107454815D01*
X126748128Y-107454498D01*
X126923456Y-107471451D01*
G37*
D12*
%TO.C,C1*%
X87765000Y-111688748D02*
X87765000Y-112211252D01*
X89235000Y-111688748D02*
X89235000Y-112211252D01*
D13*
%TO.C,U1*%
X90800000Y-98870000D02*
X90800000Y-100045000D01*
X90800000Y-122020000D02*
X90800000Y-120645000D01*
X90800000Y-122020000D02*
X110750000Y-122020000D01*
X110750000Y-98870000D02*
X90800000Y-98870000D01*
X110750000Y-98870000D02*
X110750000Y-100045000D01*
X110750000Y-122020000D02*
X110750000Y-120645000D01*
D14*
X90325000Y-101545000D02*
G75*
G02*
X90025000Y-101545000I-150000J0D01*
G01*
X90025000Y-101545000D02*
G75*
G02*
X90325000Y-101545000I150000J0D01*
G01*
D12*
%TO.C,C2*%
X87765000Y-106736252D02*
X87765000Y-106213748D01*
X89235000Y-106736252D02*
X89235000Y-106213748D01*
%TO.C,J2*%
X84144493Y-101211261D02*
X84644493Y-100961261D01*
X84644493Y-100961261D02*
X84644493Y-101461261D01*
X84644493Y-101461261D02*
X84144493Y-101211261D01*
%TD*%
M02*
