%TF.GenerationSoftware,KiCad,Pcbnew,9.0.7*%
%TF.CreationDate,2026-02-24T11:00:04+00:00*%
%TF.ProjectId,SPI_adapter,5350495f-6164-4617-9074-65722e6b6963,rev?*%
%TF.SameCoordinates,Original*%
%TF.FileFunction,Legend,Top*%
%TF.FilePolarity,Positive*%
%FSLAX46Y46*%
G04 Gerber Fmt 4.6, Leading zero omitted, Abs format (unit mm)*
G04 Created by KiCad (PCBNEW 9.0.7) date 2026-02-24 11:00:04*
%MOMM*%
%LPD*%
G01*
G04 APERTURE LIST*
%ADD10C,0.150000*%
%ADD11C,0.120000*%
%ADD12C,0.127000*%
%ADD13C,0.300000*%
G04 APERTURE END LIST*
D10*
X90539580Y-112116666D02*
X90587200Y-112164285D01*
X90587200Y-112164285D02*
X90634819Y-112307142D01*
X90634819Y-112307142D02*
X90634819Y-112402380D01*
X90634819Y-112402380D02*
X90587200Y-112545237D01*
X90587200Y-112545237D02*
X90491961Y-112640475D01*
X90491961Y-112640475D02*
X90396723Y-112688094D01*
X90396723Y-112688094D02*
X90206247Y-112735713D01*
X90206247Y-112735713D02*
X90063390Y-112735713D01*
X90063390Y-112735713D02*
X89872914Y-112688094D01*
X89872914Y-112688094D02*
X89777676Y-112640475D01*
X89777676Y-112640475D02*
X89682438Y-112545237D01*
X89682438Y-112545237D02*
X89634819Y-112402380D01*
X89634819Y-112402380D02*
X89634819Y-112307142D01*
X89634819Y-112307142D02*
X89682438Y-112164285D01*
X89682438Y-112164285D02*
X89730057Y-112116666D01*
X90634819Y-111164285D02*
X90634819Y-111735713D01*
X90634819Y-111449999D02*
X89634819Y-111449999D01*
X89634819Y-111449999D02*
X89777676Y-111545237D01*
X89777676Y-111545237D02*
X89872914Y-111640475D01*
X89872914Y-111640475D02*
X89920533Y-111735713D01*
X99431995Y-96738923D02*
X99431995Y-97873678D01*
X99431995Y-97873678D02*
X99498745Y-98007178D01*
X99498745Y-98007178D02*
X99565496Y-98073929D01*
X99565496Y-98073929D02*
X99698996Y-98140679D01*
X99698996Y-98140679D02*
X99965997Y-98140679D01*
X99965997Y-98140679D02*
X100099498Y-98073929D01*
X100099498Y-98073929D02*
X100166248Y-98007178D01*
X100166248Y-98007178D02*
X100232998Y-97873678D01*
X100232998Y-97873678D02*
X100232998Y-96738923D01*
X101634754Y-98140679D02*
X100833751Y-98140679D01*
X101234252Y-98140679D02*
X101234252Y-96738923D01*
X101234252Y-96738923D02*
X101100752Y-96939174D01*
X101100752Y-96939174D02*
X100967251Y-97072674D01*
X100967251Y-97072674D02*
X100833751Y-97139425D01*
X86559580Y-106641666D02*
X86607200Y-106689285D01*
X86607200Y-106689285D02*
X86654819Y-106832142D01*
X86654819Y-106832142D02*
X86654819Y-106927380D01*
X86654819Y-106927380D02*
X86607200Y-107070237D01*
X86607200Y-107070237D02*
X86511961Y-107165475D01*
X86511961Y-107165475D02*
X86416723Y-107213094D01*
X86416723Y-107213094D02*
X86226247Y-107260713D01*
X86226247Y-107260713D02*
X86083390Y-107260713D01*
X86083390Y-107260713D02*
X85892914Y-107213094D01*
X85892914Y-107213094D02*
X85797676Y-107165475D01*
X85797676Y-107165475D02*
X85702438Y-107070237D01*
X85702438Y-107070237D02*
X85654819Y-106927380D01*
X85654819Y-106927380D02*
X85654819Y-106832142D01*
X85654819Y-106832142D02*
X85702438Y-106689285D01*
X85702438Y-106689285D02*
X85750057Y-106641666D01*
X85750057Y-106260713D02*
X85702438Y-106213094D01*
X85702438Y-106213094D02*
X85654819Y-106117856D01*
X85654819Y-106117856D02*
X85654819Y-105879761D01*
X85654819Y-105879761D02*
X85702438Y-105784523D01*
X85702438Y-105784523D02*
X85750057Y-105736904D01*
X85750057Y-105736904D02*
X85845295Y-105689285D01*
X85845295Y-105689285D02*
X85940533Y-105689285D01*
X85940533Y-105689285D02*
X86083390Y-105736904D01*
X86083390Y-105736904D02*
X86654819Y-106308332D01*
X86654819Y-106308332D02*
X86654819Y-105689285D01*
X80311159Y-107666080D02*
X80311159Y-108380365D01*
X80311159Y-108380365D02*
X80263540Y-108523222D01*
X80263540Y-108523222D02*
X80168302Y-108618461D01*
X80168302Y-108618461D02*
X80025445Y-108666080D01*
X80025445Y-108666080D02*
X79930207Y-108666080D01*
X80739731Y-107761318D02*
X80787350Y-107713699D01*
X80787350Y-107713699D02*
X80882588Y-107666080D01*
X80882588Y-107666080D02*
X81120683Y-107666080D01*
X81120683Y-107666080D02*
X81215921Y-107713699D01*
X81215921Y-107713699D02*
X81263540Y-107761318D01*
X81263540Y-107761318D02*
X81311159Y-107856556D01*
X81311159Y-107856556D02*
X81311159Y-107951794D01*
X81311159Y-107951794D02*
X81263540Y-108094651D01*
X81263540Y-108094651D02*
X80692112Y-108666080D01*
X80692112Y-108666080D02*
X81311159Y-108666080D01*
D11*
%TO.C,C1*%
X87765000Y-111688748D02*
X87765000Y-112211252D01*
X89235000Y-111688748D02*
X89235000Y-112211252D01*
D12*
%TO.C,U1*%
X90800000Y-98870000D02*
X90800000Y-100045000D01*
X90800000Y-122020000D02*
X90800000Y-120645000D01*
X90800000Y-122020000D02*
X110750000Y-122020000D01*
X110750000Y-98870000D02*
X90800000Y-98870000D01*
X110750000Y-98870000D02*
X110750000Y-100045000D01*
X110750000Y-122020000D02*
X110750000Y-120645000D01*
D13*
X90325000Y-101545000D02*
G75*
G02*
X90025000Y-101545000I-150000J0D01*
G01*
X90025000Y-101545000D02*
G75*
G02*
X90325000Y-101545000I150000J0D01*
G01*
D11*
%TO.C,C2*%
X87140000Y-107186252D02*
X87140000Y-105763748D01*
X89860000Y-107186252D02*
X89860000Y-105763748D01*
%TO.C,J2*%
X84144493Y-101211261D02*
X84644493Y-100961261D01*
X84644493Y-100961261D02*
X84644493Y-101461261D01*
X84644493Y-101461261D02*
X84144493Y-101211261D01*
%TD*%
M02*
