%TF.GenerationSoftware,KiCad,Pcbnew,9.0.6*%
%TF.CreationDate,2026-03-06T13:07:35+00:00*%
%TF.ProjectId,UART_adapter,55415254-5f61-4646-9170-7465722e6b69,rev?*%
%TF.SameCoordinates,Original*%
%TF.FileFunction,Copper,L2,Bot*%
%TF.FilePolarity,Positive*%
%FSLAX46Y46*%
G04 Gerber Fmt 4.6, Leading zero omitted, Abs format (unit mm)*
G04 Created by KiCad (PCBNEW 9.0.6) date 2026-03-06 13:07:35*
%MOMM*%
%LPD*%
G01*
G04 APERTURE LIST*
%TA.AperFunction,ComponentPad*%
%ADD10C,1.524000*%
%TD*%
%TA.AperFunction,ComponentPad*%
%ADD11R,1.700000X1.700000*%
%TD*%
%TA.AperFunction,ComponentPad*%
%ADD12C,1.700000*%
%TD*%
%TA.AperFunction,Conductor*%
%ADD13C,0.800000*%
%TD*%
G04 APERTURE END LIST*
D10*
%TO.P,Ur1,1,BT06_RXD*%
%TO.N,unconnected-(Ur1-BT06_RXD-Pad1)*%
X131238500Y-90590000D03*
%TO.P,Ur1,2,BT06_TXD*%
%TO.N,unconnected-(Ur1-BT06_TXD-Pad2)*%
X133778500Y-90590000D03*
%TO.P,Ur1,3,BT06_GND*%
%TO.N,GND*%
X136318500Y-90590000D03*
%TO.P,Ur1,4,BT06_3V3*%
%TO.N,unconnected-(Ur1-BT06_3V3-Pad4)*%
X138858500Y-90590000D03*
%TO.P,Ur1,5,PWM_1*%
%TO.N,unconnected-(Ur1-PWM_1-Pad5)*%
X133778500Y-95670000D03*
%TO.P,Ur1,6,PWM_2*%
%TO.N,unconnected-(Ur1-PWM_2-Pad6)*%
X131238500Y-95670000D03*
%TO.P,Ur1,7,CBR_RX*%
%TO.N,/RADIO_RX*%
X130857500Y-101300000D03*
%TO.P,Ur1,8,GND*%
%TO.N,GND*%
X137018500Y-109500000D03*
%TO.P,Ur1,9,5V*%
%TO.N,+3.3V*%
X141018500Y-109500000D03*
%TO.P,Ur1,10,PGM_CONN_TXD*%
%TO.N,unconnected-(Ur1-PGM_CONN_TXD-Pad10)*%
X127987300Y-106515800D03*
%TO.P,Ur1,11,PGM_CONN_GND*%
%TO.N,GND*%
X130527300Y-106500000D03*
%TO.P,Ur1,12,PGM_CONN_3V3*%
%TO.N,unconnected-(Ur1-PGM_CONN_3V3-Pad12)*%
X133068500Y-106500000D03*
%TD*%
D11*
%TO.P,J2,1,Pin_1*%
%TO.N,unconnected-(J2-Pin_1-Pad1)*%
X185338627Y-109121372D03*
D12*
%TO.P,J2,2,Pin_2*%
%TO.N,unconnected-(J2-Pin_2-Pad2)*%
X187878627Y-109121372D03*
%TO.P,J2,3,Pin_3*%
%TO.N,GND*%
X185338627Y-106581372D03*
%TO.P,J2,4,Pin_4*%
%TO.N,/RADIO_BUSY*%
X187878627Y-106581372D03*
%TO.P,J2,5,Pin_5*%
%TO.N,/RADIO_DIO1*%
X185338627Y-104041372D03*
%TO.P,J2,6,Pin_6*%
%TO.N,/RADIO_RST*%
X187878627Y-104041372D03*
%TO.P,J2,7,Pin_7*%
%TO.N,/RADIO_TX*%
X185338627Y-101501372D03*
%TO.P,J2,8,Pin_8*%
%TO.N,/RADIO_RX*%
X187878627Y-101501372D03*
%TO.P,J2,9,Pin_9*%
%TO.N,/SPI_CS*%
X185338627Y-98961372D03*
%TO.P,J2,10,Pin_10*%
%TO.N,/SPI_MISO*%
X187878627Y-98961372D03*
%TO.P,J2,11,Pin_11*%
%TO.N,/SPI_MOSI*%
X185338627Y-96421372D03*
%TO.P,J2,12,Pin_12*%
%TO.N,/SPI_SCK*%
X187878627Y-96421372D03*
%TO.P,J2,13,Pin_13*%
%TO.N,GND*%
X185338627Y-93881372D03*
%TO.P,J2,14,Pin_14*%
%TO.N,+3.3V*%
X187878627Y-93881372D03*
%TD*%
D13*
%TO.N,+3.3V*%
X158518500Y-92000000D02*
X141018500Y-109500000D01*
X185997255Y-92000000D02*
X158518500Y-92000000D01*
X187878627Y-93881372D02*
X185997255Y-92000000D01*
%TO.N,unconnected-(Ur1-PGM_CONN_3V3-Pad12)*%
X134146130Y-106500000D02*
X133068500Y-106500000D01*
%TD*%
%TA.AperFunction,Conductor*%
%TO.N,GND*%
G36*
X186453897Y-107343089D02*
G01*
X186453897Y-107343088D01*
X186493249Y-107288927D01*
X186497859Y-107279879D01*
X186545832Y-107229081D01*
X186613652Y-107212284D01*
X186679788Y-107234819D01*
X186718831Y-107279876D01*
X186723576Y-107289189D01*
X186848517Y-107461158D01*
X186998840Y-107611481D01*
X187170809Y-107736422D01*
X187179573Y-107740888D01*
X187230369Y-107788863D01*
X187247163Y-107856684D01*
X187224625Y-107922819D01*
X187179573Y-107961856D01*
X187170809Y-107966321D01*
X186998842Y-108091261D01*
X186885300Y-108204803D01*
X186823977Y-108238287D01*
X186754285Y-108233303D01*
X186698352Y-108191431D01*
X186681437Y-108160454D01*
X186632424Y-108029043D01*
X186632420Y-108029036D01*
X186546174Y-107913827D01*
X186546171Y-107913824D01*
X186430962Y-107827578D01*
X186430955Y-107827574D01*
X186296109Y-107777280D01*
X186296110Y-107777280D01*
X186236510Y-107770873D01*
X186236508Y-107770872D01*
X186236500Y-107770872D01*
X186236492Y-107770872D01*
X186225936Y-107770872D01*
X186158897Y-107751187D01*
X186138255Y-107734553D01*
X185468035Y-107064334D01*
X185531620Y-107047297D01*
X185645634Y-106981471D01*
X185738726Y-106888379D01*
X185804552Y-106774365D01*
X185821589Y-106710781D01*
X186453897Y-107343089D01*
G37*
%TD.AperFunction*%
%TA.AperFunction,Conductor*%
G36*
X186680071Y-104695371D02*
G01*
X186719113Y-104740428D01*
X186723578Y-104749192D01*
X186848517Y-104921158D01*
X186998840Y-105071481D01*
X187170809Y-105196422D01*
X187179573Y-105200888D01*
X187230369Y-105248863D01*
X187247163Y-105316684D01*
X187224625Y-105382819D01*
X187179573Y-105421856D01*
X187170809Y-105426321D01*
X186998840Y-105551262D01*
X186848517Y-105701585D01*
X186723576Y-105873554D01*
X186718829Y-105882871D01*
X186670854Y-105933665D01*
X186603032Y-105950459D01*
X186536898Y-105927920D01*
X186497861Y-105882867D01*
X186493253Y-105873824D01*
X186453897Y-105819654D01*
X186453896Y-105819654D01*
X185821589Y-106451962D01*
X185804552Y-106388379D01*
X185738726Y-106274365D01*
X185645634Y-106181273D01*
X185531620Y-106115447D01*
X185468036Y-106098409D01*
X186100343Y-105466100D01*
X186046174Y-105426745D01*
X186046174Y-105426744D01*
X186037127Y-105422135D01*
X185986333Y-105374160D01*
X185969539Y-105306338D01*
X185992078Y-105240204D01*
X186037135Y-105201165D01*
X186046443Y-105196423D01*
X186125634Y-105138887D01*
X186218413Y-105071481D01*
X186218415Y-105071478D01*
X186218419Y-105071476D01*
X186368731Y-104921164D01*
X186368733Y-104921160D01*
X186368736Y-104921158D01*
X186493675Y-104749192D01*
X186493674Y-104749192D01*
X186493678Y-104749188D01*
X186498141Y-104740426D01*
X186546115Y-104689631D01*
X186613935Y-104672835D01*
X186680071Y-104695371D01*
G37*
%TD.AperFunction*%
%TA.AperFunction,Conductor*%
G36*
X186453897Y-94643089D02*
G01*
X186453897Y-94643088D01*
X186493249Y-94588927D01*
X186497859Y-94579879D01*
X186545832Y-94529081D01*
X186613652Y-94512284D01*
X186679788Y-94534819D01*
X186718831Y-94579876D01*
X186723576Y-94589189D01*
X186848517Y-94761158D01*
X186998840Y-94911481D01*
X187170809Y-95036422D01*
X187179573Y-95040888D01*
X187230369Y-95088863D01*
X187247163Y-95156684D01*
X187224625Y-95222819D01*
X187179573Y-95261856D01*
X187170809Y-95266321D01*
X186998840Y-95391262D01*
X186848517Y-95541585D01*
X186723576Y-95713554D01*
X186719111Y-95722318D01*
X186671136Y-95773114D01*
X186603315Y-95789908D01*
X186537180Y-95767370D01*
X186498143Y-95722318D01*
X186493677Y-95713554D01*
X186368736Y-95541585D01*
X186218413Y-95391262D01*
X186046444Y-95266321D01*
X186037131Y-95261576D01*
X185986334Y-95213602D01*
X185969539Y-95145781D01*
X185992076Y-95079646D01*
X186037134Y-95040604D01*
X186046182Y-95035994D01*
X186100343Y-94996642D01*
X186100344Y-94996642D01*
X185468035Y-94364334D01*
X185531620Y-94347297D01*
X185645634Y-94281471D01*
X185738726Y-94188379D01*
X185804552Y-94074365D01*
X185821589Y-94010781D01*
X186453897Y-94643089D01*
G37*
%TD.AperFunction*%
%TA.AperFunction,Conductor*%
G36*
X191929839Y-84535985D02*
G01*
X191975594Y-84588789D01*
X191986800Y-84640300D01*
X191986800Y-117891300D01*
X191967115Y-117958339D01*
X191914311Y-118004094D01*
X191862800Y-118015300D01*
X93611800Y-118015300D01*
X93544761Y-117995615D01*
X93499006Y-117942811D01*
X93487800Y-117891300D01*
X93487800Y-114359568D01*
X185999500Y-114359568D01*
X185999500Y-114640431D01*
X186030942Y-114919494D01*
X186030945Y-114919512D01*
X186093439Y-115193317D01*
X186093443Y-115193329D01*
X186186200Y-115458411D01*
X186308053Y-115711442D01*
X186308055Y-115711445D01*
X186457477Y-115949248D01*
X186632584Y-116168825D01*
X186831175Y-116367416D01*
X187050752Y-116542523D01*
X187288555Y-116691945D01*
X187541592Y-116813801D01*
X187740680Y-116883465D01*
X187806670Y-116906556D01*
X187806682Y-116906560D01*
X188080491Y-116969055D01*
X188080497Y-116969055D01*
X188080505Y-116969057D01*
X188266547Y-116990018D01*
X188359569Y-117000499D01*
X188359572Y-117000500D01*
X188359575Y-117000500D01*
X188640428Y-117000500D01*
X188640429Y-117000499D01*
X188783055Y-116984429D01*
X188919494Y-116969057D01*
X188919499Y-116969056D01*
X188919509Y-116969055D01*
X189193318Y-116906560D01*
X189458408Y-116813801D01*
X189711445Y-116691945D01*
X189949248Y-116542523D01*
X190168825Y-116367416D01*
X190367416Y-116168825D01*
X190542523Y-115949248D01*
X190691945Y-115711445D01*
X190813801Y-115458408D01*
X190906560Y-115193318D01*
X190969055Y-114919509D01*
X191000500Y-114640425D01*
X191000500Y-114359575D01*
X190990018Y-114266547D01*
X190969057Y-114080505D01*
X190969054Y-114080487D01*
X190962209Y-114050499D01*
X190906560Y-113806682D01*
X190813801Y-113541592D01*
X190691945Y-113288555D01*
X190542523Y-113050752D01*
X190367416Y-112831175D01*
X190168825Y-112632584D01*
X189949248Y-112457477D01*
X189711445Y-112308055D01*
X189711442Y-112308053D01*
X189458411Y-112186200D01*
X189193329Y-112093443D01*
X189193317Y-112093439D01*
X188919512Y-112030945D01*
X188919494Y-112030942D01*
X188640431Y-111999500D01*
X188640425Y-111999500D01*
X188359575Y-111999500D01*
X188359568Y-111999500D01*
X188080505Y-112030942D01*
X188080487Y-112030945D01*
X187806682Y-112093439D01*
X187806670Y-112093443D01*
X187541588Y-112186200D01*
X187288557Y-112308053D01*
X187050753Y-112457476D01*
X186831175Y-112632583D01*
X186632583Y-112831175D01*
X186457476Y-113050753D01*
X186308053Y-113288557D01*
X186186200Y-113541588D01*
X186093443Y-113806670D01*
X186093439Y-113806682D01*
X186030945Y-114080487D01*
X186030942Y-114080505D01*
X185999500Y-114359568D01*
X93487800Y-114359568D01*
X93487800Y-112061912D01*
X95866895Y-112061912D01*
X95866895Y-112324167D01*
X95882293Y-112441116D01*
X95901125Y-112584156D01*
X95965022Y-112822624D01*
X95968997Y-112837458D01*
X95969000Y-112837468D01*
X96069348Y-113079730D01*
X96069353Y-113079740D01*
X96200470Y-113306843D01*
X96360113Y-113514891D01*
X96360121Y-113514900D01*
X96545535Y-113700314D01*
X96545543Y-113700321D01*
X96545544Y-113700322D01*
X96567180Y-113716924D01*
X96753591Y-113859964D01*
X96980694Y-113991081D01*
X96980704Y-113991086D01*
X97196581Y-114080505D01*
X97222976Y-114091438D01*
X97476279Y-114159310D01*
X97736275Y-114193540D01*
X97736282Y-114193540D01*
X97998508Y-114193540D01*
X97998515Y-114193540D01*
X98258511Y-114159310D01*
X98511814Y-114091438D01*
X98754092Y-113991083D01*
X98981198Y-113859964D01*
X99189246Y-113700322D01*
X99189250Y-113700317D01*
X99189255Y-113700314D01*
X99374669Y-113514900D01*
X99374672Y-113514895D01*
X99374677Y-113514891D01*
X99534319Y-113306843D01*
X99665438Y-113079737D01*
X99765793Y-112837459D01*
X99833665Y-112584156D01*
X99867895Y-112324160D01*
X99867895Y-112061920D01*
X99849062Y-111918872D01*
X144518000Y-111918872D01*
X144518000Y-112181127D01*
X144536831Y-112324153D01*
X144552230Y-112441116D01*
X144612005Y-112664201D01*
X144620102Y-112694418D01*
X144620105Y-112694428D01*
X144720453Y-112936690D01*
X144720458Y-112936700D01*
X144851575Y-113163803D01*
X145011218Y-113371851D01*
X145011226Y-113371860D01*
X145196640Y-113557274D01*
X145196648Y-113557281D01*
X145404696Y-113716924D01*
X145631799Y-113848041D01*
X145631809Y-113848046D01*
X145820408Y-113926166D01*
X145874081Y-113948398D01*
X146127384Y-114016270D01*
X146387380Y-114050500D01*
X146387387Y-114050500D01*
X146649613Y-114050500D01*
X146649620Y-114050500D01*
X146909616Y-114016270D01*
X147162919Y-113948398D01*
X147405197Y-113848043D01*
X147632303Y-113716924D01*
X147840351Y-113557282D01*
X147840355Y-113557277D01*
X147840360Y-113557274D01*
X148025774Y-113371860D01*
X148025777Y-113371855D01*
X148025782Y-113371851D01*
X148185424Y-113163803D01*
X148316543Y-112936697D01*
X148416898Y-112694419D01*
X148484770Y-112441116D01*
X148519000Y-112181120D01*
X148519000Y-111918880D01*
X148484770Y-111658884D01*
X148416898Y-111405581D01*
X148375795Y-111306349D01*
X148316546Y-111163309D01*
X148316541Y-111163299D01*
X148185424Y-110936196D01*
X148051757Y-110762000D01*
X148025782Y-110728149D01*
X148025781Y-110728148D01*
X148025774Y-110728140D01*
X147840360Y-110542726D01*
X147840351Y-110542718D01*
X147632303Y-110383075D01*
X147405200Y-110251958D01*
X147405190Y-110251953D01*
X147162928Y-110151605D01*
X147162921Y-110151603D01*
X147162919Y-110151602D01*
X146909616Y-110083730D01*
X146851839Y-110076123D01*
X146649627Y-110049500D01*
X146649620Y-110049500D01*
X146387380Y-110049500D01*
X146387372Y-110049500D01*
X146164412Y-110078855D01*
X146127384Y-110083730D01*
X145874551Y-110151476D01*
X145874081Y-110151602D01*
X145874071Y-110151605D01*
X145631809Y-110251953D01*
X145631799Y-110251958D01*
X145404696Y-110383075D01*
X145196648Y-110542718D01*
X145011218Y-110728148D01*
X144851575Y-110936196D01*
X144720458Y-111163299D01*
X144720453Y-111163309D01*
X144620105Y-111405571D01*
X144620102Y-111405581D01*
X144579004Y-111558964D01*
X144552230Y-111658885D01*
X144518000Y-111918872D01*
X99849062Y-111918872D01*
X99833665Y-111801924D01*
X99765793Y-111548621D01*
X99667599Y-111311560D01*
X99665441Y-111306349D01*
X99665436Y-111306339D01*
X99534319Y-111079236D01*
X99374676Y-110871188D01*
X99374669Y-110871180D01*
X99189255Y-110685766D01*
X99189246Y-110685758D01*
X99081895Y-110603384D01*
X98981198Y-110526115D01*
X98754095Y-110394998D01*
X98754085Y-110394993D01*
X98511823Y-110294645D01*
X98511816Y-110294643D01*
X98511814Y-110294642D01*
X98258511Y-110226770D01*
X98200734Y-110219163D01*
X97998522Y-110192540D01*
X97998515Y-110192540D01*
X97736275Y-110192540D01*
X97736267Y-110192540D01*
X97505167Y-110222966D01*
X97476279Y-110226770D01*
X97382276Y-110251958D01*
X97222976Y-110294642D01*
X97222966Y-110294645D01*
X96980704Y-110394993D01*
X96980694Y-110394998D01*
X96753591Y-110526115D01*
X96545543Y-110685758D01*
X96360113Y-110871188D01*
X96200470Y-111079236D01*
X96069353Y-111306339D01*
X96069348Y-111306349D01*
X95969000Y-111548611D01*
X95968997Y-111548621D01*
X95901125Y-111801925D01*
X95866895Y-112061912D01*
X93487800Y-112061912D01*
X93487800Y-109640300D01*
X93507485Y-109573261D01*
X93560289Y-109527506D01*
X93611800Y-109516300D01*
X101834390Y-109516300D01*
X101834392Y-109516300D01*
X101961686Y-109482192D01*
X102075814Y-109416300D01*
X102091436Y-109400678D01*
X135756500Y-109400678D01*
X135756500Y-109599321D01*
X135787575Y-109795520D01*
X135787575Y-109795523D01*
X135848957Y-109984437D01*
X135939141Y-110161432D01*
X135966230Y-110198715D01*
X135966231Y-110198716D01*
X136637500Y-109527447D01*
X136637500Y-109550160D01*
X136663464Y-109647061D01*
X136713624Y-109733940D01*
X136784560Y-109804876D01*
X136871439Y-109855036D01*
X136968340Y-109881000D01*
X136991053Y-109881000D01*
X136319783Y-110552268D01*
X136319783Y-110552269D01*
X136357067Y-110579358D01*
X136534062Y-110669542D01*
X136722977Y-110730924D01*
X136919179Y-110762000D01*
X137117821Y-110762000D01*
X137314020Y-110730924D01*
X137314023Y-110730924D01*
X137502937Y-110669542D01*
X137679925Y-110579362D01*
X137717216Y-110552268D01*
X137045948Y-109881000D01*
X137068660Y-109881000D01*
X137165561Y-109855036D01*
X137252440Y-109804876D01*
X137323376Y-109733940D01*
X137373536Y-109647061D01*
X137399500Y-109550160D01*
X137399500Y-109527447D01*
X138070768Y-110198715D01*
X138097862Y-110161425D01*
X138188042Y-109984437D01*
X138249424Y-109795523D01*
X138249424Y-109795520D01*
X138280500Y-109599321D01*
X138280500Y-109400678D01*
X138280494Y-109400639D01*
X139756000Y-109400639D01*
X139756000Y-109599360D01*
X139787087Y-109795637D01*
X139848493Y-109984629D01*
X139848494Y-109984632D01*
X139896504Y-110078855D01*
X139938713Y-110161694D01*
X140055519Y-110322464D01*
X140196036Y-110462981D01*
X140356806Y-110579787D01*
X140403118Y-110603384D01*
X140533867Y-110670005D01*
X140533870Y-110670006D01*
X140628366Y-110700709D01*
X140722864Y-110731413D01*
X140919139Y-110762500D01*
X140919140Y-110762500D01*
X141117860Y-110762500D01*
X141117861Y-110762500D01*
X141314136Y-110731413D01*
X141503132Y-110670005D01*
X141680194Y-110579787D01*
X141840964Y-110462981D01*
X141981481Y-110322464D01*
X142098287Y-110161694D01*
X142188505Y-109984632D01*
X142249913Y-109795636D01*
X142281000Y-109599361D01*
X142281000Y-109562361D01*
X142300685Y-109495322D01*
X142317319Y-109474680D01*
X158855180Y-92936819D01*
X158916503Y-92903334D01*
X158942861Y-92900500D01*
X184139217Y-92900500D01*
X184206256Y-92920185D01*
X184252011Y-92972989D01*
X184261955Y-93042147D01*
X184239535Y-93097385D01*
X184184006Y-93173814D01*
X184087531Y-93363154D01*
X184021869Y-93565241D01*
X184021869Y-93565244D01*
X183988627Y-93775125D01*
X183988627Y-93987618D01*
X184021869Y-94197499D01*
X184021869Y-94197502D01*
X184087531Y-94399589D01*
X184184002Y-94588922D01*
X184223355Y-94643088D01*
X184855663Y-94010779D01*
X184872702Y-94074365D01*
X184938528Y-94188379D01*
X185031620Y-94281471D01*
X185145634Y-94347297D01*
X185209217Y-94364334D01*
X184576909Y-94996641D01*
X184576909Y-94996642D01*
X184631079Y-95035998D01*
X184631078Y-95035998D01*
X184640122Y-95040606D01*
X184690919Y-95088580D01*
X184707714Y-95156401D01*
X184685177Y-95222536D01*
X184640126Y-95261574D01*
X184630809Y-95266321D01*
X184458840Y-95391262D01*
X184308517Y-95541585D01*
X184183578Y-95713551D01*
X184087071Y-95902957D01*
X184021380Y-96105132D01*
X183988127Y-96315085D01*
X183988127Y-96527659D01*
X184021381Y-96737615D01*
X184084703Y-96932500D01*
X184087071Y-96939786D01*
X184183578Y-97129192D01*
X184308517Y-97301158D01*
X184458840Y-97451481D01*
X184630809Y-97576422D01*
X184639573Y-97580888D01*
X184690369Y-97628863D01*
X184707163Y-97696684D01*
X184684625Y-97762819D01*
X184639573Y-97801856D01*
X184630809Y-97806321D01*
X184458840Y-97931262D01*
X184308517Y-98081585D01*
X184183578Y-98253551D01*
X184087071Y-98442957D01*
X184021380Y-98645132D01*
X183988127Y-98855085D01*
X183988127Y-99067658D01*
X184021380Y-99277611D01*
X184087071Y-99479786D01*
X184183578Y-99669192D01*
X184308517Y-99841158D01*
X184458840Y-99991481D01*
X184630809Y-100116422D01*
X184639573Y-100120888D01*
X184690369Y-100168863D01*
X184707163Y-100236684D01*
X184684625Y-100302819D01*
X184639573Y-100341856D01*
X184630809Y-100346321D01*
X184458840Y-100471262D01*
X184308517Y-100621585D01*
X184183578Y-100793551D01*
X184087071Y-100982957D01*
X184021380Y-101185132D01*
X184018924Y-101200639D01*
X183988127Y-101395085D01*
X183988127Y-101607659D01*
X184021381Y-101817615D01*
X184068195Y-101961694D01*
X184087071Y-102019786D01*
X184183578Y-102209192D01*
X184308517Y-102381158D01*
X184458840Y-102531481D01*
X184630809Y-102656422D01*
X184639573Y-102660888D01*
X184690369Y-102708863D01*
X184707163Y-102776684D01*
X184684625Y-102842819D01*
X184639573Y-102881856D01*
X184630809Y-102886321D01*
X184458840Y-103011262D01*
X184308517Y-103161585D01*
X184183578Y-103333551D01*
X184087071Y-103522957D01*
X184021380Y-103725132D01*
X183988127Y-103935085D01*
X183988127Y-104147658D01*
X184021380Y-104357611D01*
X184087071Y-104559786D01*
X184183578Y-104749192D01*
X184308517Y-104921158D01*
X184458840Y-105071481D01*
X184630806Y-105196420D01*
X184630808Y-105196421D01*
X184630811Y-105196423D01*
X184640120Y-105201166D01*
X184690917Y-105249138D01*
X184707714Y-105316959D01*
X184685179Y-105383094D01*
X184640132Y-105422132D01*
X184631073Y-105426748D01*
X184631067Y-105426752D01*
X184576909Y-105466099D01*
X184576909Y-105466100D01*
X185209218Y-106098409D01*
X185145634Y-106115447D01*
X185031620Y-106181273D01*
X184938528Y-106274365D01*
X184872702Y-106388379D01*
X184855664Y-106451963D01*
X184223355Y-105819654D01*
X184223354Y-105819654D01*
X184184007Y-105873811D01*
X184087531Y-106063154D01*
X184021869Y-106265241D01*
X184021869Y-106265244D01*
X183988627Y-106475125D01*
X183988627Y-106687618D01*
X184021869Y-106897499D01*
X184021869Y-106897502D01*
X184087531Y-107099589D01*
X184184002Y-107288922D01*
X184223355Y-107343088D01*
X184855664Y-106710780D01*
X184872702Y-106774365D01*
X184938528Y-106888379D01*
X185031620Y-106981471D01*
X185145634Y-107047297D01*
X185209217Y-107064334D01*
X184538997Y-107734553D01*
X184477674Y-107768038D01*
X184451325Y-107770872D01*
X184440761Y-107770872D01*
X184440750Y-107770873D01*
X184381143Y-107777280D01*
X184246298Y-107827574D01*
X184246291Y-107827578D01*
X184131082Y-107913824D01*
X184131079Y-107913827D01*
X184044833Y-108029036D01*
X184044829Y-108029043D01*
X183994535Y-108163889D01*
X183988128Y-108223488D01*
X183988127Y-108223507D01*
X183988127Y-110019242D01*
X183988128Y-110019248D01*
X183994535Y-110078855D01*
X184044829Y-110213700D01*
X184044833Y-110213707D01*
X184131079Y-110328916D01*
X184131082Y-110328919D01*
X184246291Y-110415165D01*
X184246298Y-110415169D01*
X184381144Y-110465463D01*
X184381143Y-110465463D01*
X184388071Y-110466207D01*
X184440754Y-110471872D01*
X186236499Y-110471871D01*
X186296110Y-110465463D01*
X186430958Y-110415168D01*
X186546173Y-110328918D01*
X186632423Y-110213703D01*
X186681437Y-110082288D01*
X186723308Y-110026356D01*
X186788772Y-110001938D01*
X186857045Y-110016789D01*
X186885300Y-110037941D01*
X186998840Y-110151481D01*
X187170806Y-110276420D01*
X187170808Y-110276421D01*
X187170811Y-110276423D01*
X187360215Y-110372929D01*
X187562384Y-110438618D01*
X187772340Y-110471872D01*
X187772341Y-110471872D01*
X187984913Y-110471872D01*
X187984914Y-110471872D01*
X188194870Y-110438618D01*
X188397039Y-110372929D01*
X188586443Y-110276423D01*
X188672765Y-110213707D01*
X188758413Y-110151481D01*
X188758415Y-110151478D01*
X188758419Y-110151476D01*
X188908731Y-110001164D01*
X188908733Y-110001160D01*
X188908736Y-110001158D01*
X189033675Y-109829192D01*
X189033674Y-109829192D01*
X189033678Y-109829188D01*
X189130184Y-109639784D01*
X189195873Y-109437615D01*
X189229127Y-109227659D01*
X189229127Y-109015085D01*
X189195873Y-108805129D01*
X189130184Y-108602960D01*
X189033678Y-108413556D01*
X189033676Y-108413553D01*
X189033675Y-108413551D01*
X188908736Y-108241585D01*
X188758413Y-108091262D01*
X188586447Y-107966323D01*
X188585742Y-107965963D01*
X188577681Y-107961857D01*
X188526886Y-107913884D01*
X188510090Y-107846064D01*
X188532626Y-107779928D01*
X188577681Y-107740887D01*
X188586443Y-107736423D01*
X188677859Y-107670006D01*
X188758413Y-107611481D01*
X188758415Y-107611478D01*
X188758419Y-107611476D01*
X188908731Y-107461164D01*
X188908733Y-107461160D01*
X188908736Y-107461158D01*
X189033675Y-107289192D01*
X189033677Y-107289189D01*
X189033678Y-107289188D01*
X189130184Y-107099784D01*
X189195873Y-106897615D01*
X189229127Y-106687659D01*
X189229127Y-106475085D01*
X189195873Y-106265129D01*
X189130184Y-106062960D01*
X189033678Y-105873556D01*
X189033676Y-105873553D01*
X189033675Y-105873551D01*
X188908736Y-105701585D01*
X188758413Y-105551262D01*
X188586447Y-105426323D01*
X188578227Y-105422135D01*
X188577681Y-105421857D01*
X188526886Y-105373884D01*
X188510090Y-105306064D01*
X188532626Y-105239928D01*
X188577681Y-105200887D01*
X188586443Y-105196423D01*
X188608416Y-105180458D01*
X188758413Y-105071481D01*
X188758415Y-105071478D01*
X188758419Y-105071476D01*
X188908731Y-104921164D01*
X188908733Y-104921160D01*
X188908736Y-104921158D01*
X189033675Y-104749192D01*
X189033674Y-104749192D01*
X189033678Y-104749188D01*
X189130184Y-104559784D01*
X189195873Y-104357615D01*
X189229127Y-104147659D01*
X189229127Y-103935085D01*
X189195873Y-103725129D01*
X189130184Y-103522960D01*
X189033678Y-103333556D01*
X189033676Y-103333553D01*
X189033675Y-103333551D01*
X188908736Y-103161585D01*
X188758413Y-103011262D01*
X188586447Y-102886323D01*
X188585742Y-102885963D01*
X188577681Y-102881857D01*
X188526886Y-102833884D01*
X188510090Y-102766064D01*
X188532626Y-102699928D01*
X188577681Y-102660887D01*
X188586443Y-102656423D01*
X188715718Y-102562500D01*
X188758413Y-102531481D01*
X188758415Y-102531478D01*
X188758419Y-102531476D01*
X188908731Y-102381164D01*
X188908733Y-102381160D01*
X188908736Y-102381158D01*
X189033675Y-102209192D01*
X189033674Y-102209192D01*
X189033678Y-102209188D01*
X189130184Y-102019784D01*
X189195873Y-101817615D01*
X189229127Y-101607659D01*
X189229127Y-101395085D01*
X189195873Y-101185129D01*
X189130184Y-100982960D01*
X189033678Y-100793556D01*
X189033676Y-100793553D01*
X189033675Y-100793551D01*
X188908736Y-100621585D01*
X188758413Y-100471262D01*
X188586447Y-100346323D01*
X188585742Y-100345963D01*
X188577681Y-100341857D01*
X188526886Y-100293884D01*
X188510090Y-100226064D01*
X188532626Y-100159928D01*
X188577681Y-100120887D01*
X188586443Y-100116423D01*
X188695072Y-100037500D01*
X188758413Y-99991481D01*
X188758415Y-99991478D01*
X188758419Y-99991476D01*
X188908731Y-99841164D01*
X188908733Y-99841160D01*
X188908736Y-99841158D01*
X189033675Y-99669192D01*
X189033674Y-99669192D01*
X189033678Y-99669188D01*
X189130184Y-99479784D01*
X189195873Y-99277615D01*
X189229127Y-99067659D01*
X189229127Y-98855085D01*
X189195873Y-98645129D01*
X189130184Y-98442960D01*
X189033678Y-98253556D01*
X189033676Y-98253553D01*
X189033675Y-98253551D01*
X188908736Y-98081585D01*
X188758413Y-97931262D01*
X188586447Y-97806323D01*
X188585742Y-97805963D01*
X188577681Y-97801857D01*
X188526886Y-97753884D01*
X188510090Y-97686064D01*
X188532626Y-97619928D01*
X188577681Y-97580887D01*
X188586443Y-97576423D01*
X188608416Y-97560458D01*
X188758413Y-97451481D01*
X188758415Y-97451478D01*
X188758419Y-97451476D01*
X188908731Y-97301164D01*
X188908733Y-97301160D01*
X188908736Y-97301158D01*
X189033675Y-97129192D01*
X189033674Y-97129192D01*
X189033678Y-97129188D01*
X189130184Y-96939784D01*
X189195873Y-96737615D01*
X189229127Y-96527659D01*
X189229127Y-96315085D01*
X189195873Y-96105129D01*
X189130184Y-95902960D01*
X189033678Y-95713556D01*
X189033676Y-95713553D01*
X189033675Y-95713551D01*
X188908736Y-95541585D01*
X188758413Y-95391262D01*
X188586447Y-95266323D01*
X188585742Y-95265963D01*
X188577681Y-95261857D01*
X188526886Y-95213884D01*
X188510090Y-95146064D01*
X188532626Y-95079928D01*
X188577681Y-95040887D01*
X188586443Y-95036423D01*
X188641199Y-94996641D01*
X188758413Y-94911481D01*
X188758415Y-94911478D01*
X188758419Y-94911476D01*
X188908731Y-94761164D01*
X188908733Y-94761160D01*
X188908736Y-94761158D01*
X189033675Y-94589192D01*
X189033677Y-94589189D01*
X189033678Y-94589188D01*
X189130184Y-94399784D01*
X189195873Y-94197615D01*
X189229127Y-93987659D01*
X189229127Y-93775085D01*
X189195873Y-93565129D01*
X189130184Y-93362960D01*
X189033678Y-93173556D01*
X189033676Y-93173553D01*
X189033675Y-93173551D01*
X188908736Y-93001585D01*
X188758413Y-92851262D01*
X188586447Y-92726323D01*
X188397041Y-92629816D01*
X188397040Y-92629815D01*
X188397039Y-92629815D01*
X188194870Y-92564126D01*
X188194868Y-92564125D01*
X188194867Y-92564125D01*
X188033584Y-92538580D01*
X187984914Y-92530872D01*
X187984913Y-92530872D01*
X187852989Y-92530872D01*
X187785950Y-92511187D01*
X187765308Y-92494553D01*
X186571296Y-91300540D01*
X186571293Y-91300537D01*
X186498192Y-91251693D01*
X186423799Y-91201985D01*
X186423797Y-91201984D01*
X186341862Y-91168046D01*
X186341861Y-91168046D01*
X186259921Y-91134105D01*
X186259913Y-91134103D01*
X186085951Y-91099500D01*
X186085947Y-91099500D01*
X186085946Y-91099500D01*
X158607191Y-91099500D01*
X158429808Y-91099500D01*
X158429805Y-91099500D01*
X158255901Y-91134091D01*
X158255902Y-91134092D01*
X158255839Y-91134104D01*
X158255829Y-91134107D01*
X158091959Y-91201983D01*
X158091946Y-91201990D01*
X157944466Y-91300534D01*
X157944464Y-91300537D01*
X141043819Y-108201181D01*
X140982496Y-108234666D01*
X140956138Y-108237500D01*
X140919139Y-108237500D01*
X140853714Y-108247862D01*
X140722862Y-108268587D01*
X140533870Y-108329993D01*
X140533867Y-108329994D01*
X140356805Y-108420213D01*
X140196033Y-108537021D01*
X140055521Y-108677533D01*
X139938713Y-108838305D01*
X139848494Y-109015367D01*
X139848493Y-109015370D01*
X139787087Y-109204362D01*
X139756000Y-109400639D01*
X138280494Y-109400639D01*
X138249424Y-109204479D01*
X138249424Y-109204476D01*
X138188042Y-109015562D01*
X138097858Y-108838567D01*
X138070768Y-108801283D01*
X137399500Y-109472551D01*
X137399500Y-109449840D01*
X137373536Y-109352939D01*
X137323376Y-109266060D01*
X137252440Y-109195124D01*
X137165561Y-109144964D01*
X137068660Y-109119000D01*
X137045947Y-109119000D01*
X137717216Y-108447731D01*
X137717215Y-108447730D01*
X137679932Y-108420641D01*
X137502937Y-108330457D01*
X137314022Y-108269075D01*
X137117821Y-108238000D01*
X136919179Y-108238000D01*
X136722979Y-108269075D01*
X136722976Y-108269075D01*
X136534062Y-108330457D01*
X136357064Y-108420643D01*
X136319783Y-108447729D01*
X136319782Y-108447730D01*
X136991054Y-109119000D01*
X136968340Y-109119000D01*
X136871439Y-109144964D01*
X136784560Y-109195124D01*
X136713624Y-109266060D01*
X136663464Y-109352939D01*
X136637500Y-109449840D01*
X136637500Y-109472552D01*
X135966230Y-108801282D01*
X135966229Y-108801283D01*
X135939143Y-108838564D01*
X135848957Y-109015562D01*
X135787575Y-109204476D01*
X135787575Y-109204479D01*
X135756500Y-109400678D01*
X102091436Y-109400678D01*
X102169000Y-109323114D01*
X102234892Y-109208986D01*
X102269000Y-109081692D01*
X102269000Y-106416439D01*
X126724800Y-106416439D01*
X126724800Y-106615161D01*
X126729874Y-106647198D01*
X126755887Y-106811437D01*
X126817293Y-107000429D01*
X126817294Y-107000432D01*
X126899325Y-107161425D01*
X126907513Y-107177494D01*
X127024319Y-107338264D01*
X127164836Y-107478781D01*
X127325606Y-107595587D01*
X127356790Y-107611476D01*
X127502667Y-107685805D01*
X127502670Y-107685806D01*
X127597166Y-107716509D01*
X127691664Y-107747213D01*
X127887939Y-107778300D01*
X127887940Y-107778300D01*
X128086660Y-107778300D01*
X128086661Y-107778300D01*
X128282936Y-107747213D01*
X128471932Y-107685805D01*
X128648994Y-107595587D01*
X128809764Y-107478781D01*
X128950281Y-107338264D01*
X129067087Y-107177494D01*
X129151121Y-107012567D01*
X129199096Y-106961772D01*
X129266917Y-106944977D01*
X129333052Y-106967514D01*
X129372091Y-107012568D01*
X129447941Y-107161432D01*
X129475030Y-107198715D01*
X129475031Y-107198716D01*
X130146300Y-106527447D01*
X130146300Y-106550160D01*
X130172264Y-106647061D01*
X130222424Y-106733940D01*
X130293360Y-106804876D01*
X130380239Y-106855036D01*
X130477140Y-106881000D01*
X130499853Y-106881000D01*
X129828583Y-107552268D01*
X129828583Y-107552269D01*
X129865867Y-107579358D01*
X130042862Y-107669542D01*
X130231777Y-107730924D01*
X130427979Y-107762000D01*
X130626621Y-107762000D01*
X130822820Y-107730924D01*
X130822823Y-107730924D01*
X131011737Y-107669542D01*
X131188725Y-107579362D01*
X131226016Y-107552268D01*
X130554748Y-106881000D01*
X130577460Y-106881000D01*
X130674361Y-106855036D01*
X130761240Y-106804876D01*
X130832176Y-106733940D01*
X130882336Y-106647061D01*
X130908300Y-106550160D01*
X130908300Y-106527447D01*
X131579568Y-107198715D01*
X131606662Y-107161425D01*
X131687134Y-107003491D01*
X131735108Y-106952695D01*
X131802929Y-106935900D01*
X131869064Y-106958437D01*
X131908104Y-107003491D01*
X131944048Y-107074034D01*
X131988713Y-107161694D01*
X132105519Y-107322464D01*
X132246036Y-107462981D01*
X132406806Y-107579787D01*
X132468999Y-107611476D01*
X132583867Y-107670005D01*
X132583870Y-107670006D01*
X132678366Y-107700709D01*
X132772864Y-107731413D01*
X132969139Y-107762500D01*
X132969140Y-107762500D01*
X133167860Y-107762500D01*
X133167861Y-107762500D01*
X133364136Y-107731413D01*
X133553132Y-107670005D01*
X133730194Y-107579787D01*
X133890964Y-107462981D01*
X133917126Y-107436819D01*
X133978449Y-107403334D01*
X134004807Y-107400500D01*
X134234823Y-107400500D01*
X134234824Y-107400499D01*
X134292812Y-107388964D01*
X134408788Y-107365896D01*
X134408791Y-107365894D01*
X134408796Y-107365894D01*
X134572677Y-107298013D01*
X134720165Y-107199464D01*
X134845594Y-107074035D01*
X134944143Y-106926547D01*
X135012024Y-106762666D01*
X135046630Y-106588691D01*
X135046630Y-106411309D01*
X135046630Y-106411306D01*
X135046629Y-106411304D01*
X135012026Y-106237341D01*
X135012023Y-106237332D01*
X134998367Y-106204364D01*
X134988803Y-106181273D01*
X134944146Y-106073459D01*
X134944139Y-106073446D01*
X134845594Y-105925965D01*
X134845591Y-105925961D01*
X134720168Y-105800538D01*
X134720164Y-105800535D01*
X134572683Y-105701990D01*
X134572670Y-105701983D01*
X134408797Y-105634106D01*
X134408788Y-105634103D01*
X134234824Y-105599500D01*
X134234821Y-105599500D01*
X134004807Y-105599500D01*
X133937768Y-105579815D01*
X133917126Y-105563181D01*
X133890966Y-105537021D01*
X133890964Y-105537019D01*
X133730194Y-105420213D01*
X133553132Y-105329994D01*
X133553129Y-105329993D01*
X133364137Y-105268587D01*
X133184933Y-105240204D01*
X133167861Y-105237500D01*
X132969139Y-105237500D01*
X132952067Y-105240204D01*
X132772862Y-105268587D01*
X132583870Y-105329993D01*
X132583867Y-105329994D01*
X132406805Y-105420213D01*
X132246033Y-105537021D01*
X132105521Y-105677533D01*
X131988709Y-105838310D01*
X131908103Y-105996508D01*
X131860129Y-106047304D01*
X131792308Y-106064099D01*
X131726173Y-106041561D01*
X131687134Y-105996508D01*
X131606658Y-105838567D01*
X131579568Y-105801283D01*
X130908300Y-106472551D01*
X130908300Y-106449840D01*
X130882336Y-106352939D01*
X130832176Y-106266060D01*
X130761240Y-106195124D01*
X130674361Y-106144964D01*
X130577460Y-106119000D01*
X130554747Y-106119000D01*
X131226016Y-105447731D01*
X131226015Y-105447730D01*
X131188732Y-105420641D01*
X131011737Y-105330457D01*
X130822822Y-105269075D01*
X130626621Y-105238000D01*
X130427979Y-105238000D01*
X130231779Y-105269075D01*
X130231776Y-105269075D01*
X130042862Y-105330457D01*
X129865864Y-105420643D01*
X129828583Y-105447729D01*
X129828582Y-105447730D01*
X130499854Y-106119000D01*
X130477140Y-106119000D01*
X130380239Y-106144964D01*
X130293360Y-106195124D01*
X130222424Y-106266060D01*
X130172264Y-106352939D01*
X130146300Y-106449840D01*
X130146300Y-106472552D01*
X129475030Y-105801282D01*
X129475029Y-105801283D01*
X129447943Y-105838564D01*
X129364040Y-106003231D01*
X129316065Y-106054027D01*
X129248244Y-106070822D01*
X129182109Y-106048284D01*
X129143070Y-106003231D01*
X129067087Y-105854106D01*
X128950281Y-105693336D01*
X128809764Y-105552819D01*
X128648994Y-105436013D01*
X128471932Y-105345794D01*
X128471929Y-105345793D01*
X128282937Y-105284387D01*
X128183179Y-105268587D01*
X128086661Y-105253300D01*
X127887939Y-105253300D01*
X127822514Y-105263662D01*
X127691662Y-105284387D01*
X127502670Y-105345793D01*
X127502667Y-105345794D01*
X127325605Y-105436013D01*
X127164833Y-105552821D01*
X127024321Y-105693333D01*
X126907513Y-105854105D01*
X126817294Y-106031167D01*
X126817293Y-106031170D01*
X126755887Y-106220162D01*
X126753166Y-106237341D01*
X126724800Y-106416439D01*
X102269000Y-106416439D01*
X102269000Y-101200639D01*
X129595000Y-101200639D01*
X129595000Y-101399360D01*
X129626087Y-101595637D01*
X129687493Y-101784629D01*
X129687494Y-101784632D01*
X129777713Y-101961694D01*
X129894519Y-102122464D01*
X130035036Y-102262981D01*
X130195806Y-102379787D01*
X130198509Y-102381164D01*
X130372867Y-102470005D01*
X130372870Y-102470006D01*
X130467366Y-102500709D01*
X130561864Y-102531413D01*
X130758139Y-102562500D01*
X130758140Y-102562500D01*
X130956860Y-102562500D01*
X130956861Y-102562500D01*
X131153136Y-102531413D01*
X131342132Y-102470005D01*
X131519194Y-102379787D01*
X131679964Y-102262981D01*
X131820481Y-102122464D01*
X131937287Y-101961694D01*
X132027505Y-101784632D01*
X132088913Y-101595636D01*
X132120000Y-101399361D01*
X132120000Y-101200639D01*
X132088913Y-101004364D01*
X132045226Y-100869908D01*
X132027506Y-100815370D01*
X132027505Y-100815367D01*
X131937286Y-100638305D01*
X131820481Y-100477536D01*
X131679964Y-100337019D01*
X131519194Y-100220213D01*
X131342132Y-100129994D01*
X131342129Y-100129993D01*
X131153137Y-100068587D01*
X131054998Y-100053043D01*
X130956861Y-100037500D01*
X130758139Y-100037500D01*
X130692714Y-100047862D01*
X130561862Y-100068587D01*
X130372870Y-100129993D01*
X130372867Y-100129994D01*
X130195805Y-100220213D01*
X130035033Y-100337021D01*
X129894521Y-100477533D01*
X129777713Y-100638305D01*
X129687494Y-100815367D01*
X129687493Y-100815370D01*
X129626087Y-101004362D01*
X129595000Y-101200639D01*
X102269000Y-101200639D01*
X102269000Y-95570639D01*
X129976000Y-95570639D01*
X129976000Y-95769361D01*
X129979254Y-95789908D01*
X130007087Y-95965637D01*
X130068493Y-96154629D01*
X130068494Y-96154632D01*
X130150250Y-96315085D01*
X130158713Y-96331694D01*
X130275519Y-96492464D01*
X130416036Y-96632981D01*
X130576806Y-96749787D01*
X130663649Y-96794035D01*
X130753867Y-96840005D01*
X130753870Y-96840006D01*
X130848366Y-96870709D01*
X130942864Y-96901413D01*
X131139139Y-96932500D01*
X131139140Y-96932500D01*
X131337860Y-96932500D01*
X131337861Y-96932500D01*
X131534136Y-96901413D01*
X131723132Y-96840005D01*
X131900194Y-96749787D01*
X132060964Y-96632981D01*
X132201481Y-96492464D01*
X132318287Y-96331694D01*
X132398015Y-96175218D01*
X132445990Y-96124423D01*
X132513811Y-96107628D01*
X132579946Y-96130165D01*
X132618984Y-96175218D01*
X132698713Y-96331694D01*
X132815519Y-96492464D01*
X132956036Y-96632981D01*
X133116806Y-96749787D01*
X133203649Y-96794035D01*
X133293867Y-96840005D01*
X133293870Y-96840006D01*
X133388366Y-96870709D01*
X133482864Y-96901413D01*
X133679139Y-96932500D01*
X133679140Y-96932500D01*
X133877860Y-96932500D01*
X133877861Y-96932500D01*
X134074136Y-96901413D01*
X134263132Y-96840005D01*
X134440194Y-96749787D01*
X134600964Y-96632981D01*
X134741481Y-96492464D01*
X134858287Y-96331694D01*
X134948505Y-96154632D01*
X135009913Y-95965636D01*
X135041000Y-95769361D01*
X135041000Y-95570639D01*
X135009913Y-95374364D01*
X134963777Y-95232371D01*
X134948506Y-95185370D01*
X134948505Y-95185367D01*
X134874887Y-95040886D01*
X134858287Y-95008306D01*
X134741481Y-94847536D01*
X134600964Y-94707019D01*
X134440194Y-94590213D01*
X134437660Y-94588922D01*
X134263132Y-94499994D01*
X134263129Y-94499993D01*
X134074137Y-94438587D01*
X133975998Y-94423043D01*
X133877861Y-94407500D01*
X133679139Y-94407500D01*
X133613714Y-94417862D01*
X133482862Y-94438587D01*
X133293870Y-94499993D01*
X133293867Y-94499994D01*
X133116805Y-94590213D01*
X132956033Y-94707021D01*
X132815521Y-94847533D01*
X132698713Y-95008305D01*
X132618985Y-95164780D01*
X132571010Y-95215576D01*
X132503189Y-95232371D01*
X132437054Y-95209833D01*
X132398015Y-95164780D01*
X132334887Y-95040886D01*
X132318287Y-95008306D01*
X132201481Y-94847536D01*
X132060964Y-94707019D01*
X131900194Y-94590213D01*
X131897660Y-94588922D01*
X131723132Y-94499994D01*
X131723129Y-94499993D01*
X131534137Y-94438587D01*
X131435998Y-94423043D01*
X131337861Y-94407500D01*
X131139139Y-94407500D01*
X131073714Y-94417862D01*
X130942862Y-94438587D01*
X130753870Y-94499993D01*
X130753867Y-94499994D01*
X130576805Y-94590213D01*
X130416033Y-94707021D01*
X130275521Y-94847533D01*
X130158713Y-95008305D01*
X130068494Y-95185367D01*
X130068493Y-95185370D01*
X130007087Y-95374362D01*
X129980602Y-95541585D01*
X129976000Y-95570639D01*
X102269000Y-95570639D01*
X102269000Y-93449908D01*
X102234892Y-93322614D01*
X102169000Y-93208486D01*
X102075814Y-93115300D01*
X102018750Y-93082354D01*
X101961687Y-93049408D01*
X101898039Y-93032354D01*
X101834392Y-93015300D01*
X101834391Y-93015300D01*
X93611800Y-93015300D01*
X93544761Y-92995615D01*
X93499006Y-92942811D01*
X93487800Y-92891300D01*
X93487800Y-90318872D01*
X95918000Y-90318872D01*
X95918000Y-90581127D01*
X95938936Y-90740140D01*
X95952230Y-90841116D01*
X96014800Y-91074632D01*
X96020102Y-91094418D01*
X96020105Y-91094428D01*
X96120453Y-91336690D01*
X96120458Y-91336700D01*
X96251575Y-91563803D01*
X96411218Y-91771851D01*
X96411226Y-91771860D01*
X96596640Y-91957274D01*
X96596648Y-91957281D01*
X96804696Y-92116924D01*
X97031799Y-92248041D01*
X97031809Y-92248046D01*
X97273219Y-92348041D01*
X97274081Y-92348398D01*
X97527384Y-92416270D01*
X97787380Y-92450500D01*
X97787387Y-92450500D01*
X98049613Y-92450500D01*
X98049620Y-92450500D01*
X98309616Y-92416270D01*
X98562919Y-92348398D01*
X98805197Y-92248043D01*
X99032303Y-92116924D01*
X99240351Y-91957282D01*
X99240355Y-91957277D01*
X99240360Y-91957274D01*
X99425774Y-91771860D01*
X99425777Y-91771855D01*
X99425782Y-91771851D01*
X99585424Y-91563803D01*
X99716543Y-91336697D01*
X99816898Y-91094419D01*
X99884770Y-90841116D01*
X99919000Y-90581120D01*
X99919000Y-90490639D01*
X129976000Y-90490639D01*
X129976000Y-90689361D01*
X129991543Y-90787498D01*
X130007087Y-90885637D01*
X130068493Y-91074629D01*
X130068494Y-91074632D01*
X130129534Y-91194428D01*
X130158713Y-91251694D01*
X130275519Y-91412464D01*
X130416036Y-91552981D01*
X130576806Y-91669787D01*
X130663649Y-91714035D01*
X130753867Y-91760005D01*
X130753870Y-91760006D01*
X130790354Y-91771860D01*
X130942864Y-91821413D01*
X131139139Y-91852500D01*
X131139140Y-91852500D01*
X131337860Y-91852500D01*
X131337861Y-91852500D01*
X131534136Y-91821413D01*
X131723132Y-91760005D01*
X131900194Y-91669787D01*
X132060964Y-91552981D01*
X132201481Y-91412464D01*
X132318287Y-91251694D01*
X132398015Y-91095218D01*
X132445990Y-91044423D01*
X132513811Y-91027628D01*
X132579946Y-91050165D01*
X132618984Y-91095218D01*
X132698713Y-91251694D01*
X132815519Y-91412464D01*
X132956036Y-91552981D01*
X133116806Y-91669787D01*
X133203649Y-91714035D01*
X133293867Y-91760005D01*
X133293870Y-91760006D01*
X133330354Y-91771860D01*
X133482864Y-91821413D01*
X133679139Y-91852500D01*
X133679140Y-91852500D01*
X133877860Y-91852500D01*
X133877861Y-91852500D01*
X134074136Y-91821413D01*
X134263132Y-91760005D01*
X134440194Y-91669787D01*
X134600964Y-91552981D01*
X134741481Y-91412464D01*
X134858287Y-91251694D01*
X134938296Y-91094667D01*
X134986269Y-91043872D01*
X135054090Y-91027077D01*
X135120225Y-91049614D01*
X135159265Y-91094668D01*
X135239141Y-91251432D01*
X135266230Y-91288715D01*
X135266231Y-91288716D01*
X135937500Y-90617447D01*
X135937500Y-90640160D01*
X135963464Y-90737061D01*
X136013624Y-90823940D01*
X136084560Y-90894876D01*
X136171439Y-90945036D01*
X136268340Y-90971000D01*
X136291053Y-90971000D01*
X135619783Y-91642268D01*
X135619783Y-91642269D01*
X135657067Y-91669358D01*
X135834062Y-91759542D01*
X136022977Y-91820924D01*
X136219179Y-91852000D01*
X136417821Y-91852000D01*
X136614020Y-91820924D01*
X136614023Y-91820924D01*
X136802937Y-91759542D01*
X136979925Y-91669362D01*
X137017216Y-91642268D01*
X136345948Y-90971000D01*
X136368660Y-90971000D01*
X136465561Y-90945036D01*
X136552440Y-90894876D01*
X136623376Y-90823940D01*
X136673536Y-90737061D01*
X136699500Y-90640160D01*
X136699500Y-90617447D01*
X137370768Y-91288715D01*
X137397864Y-91251422D01*
X137477734Y-91094669D01*
X137525708Y-91043872D01*
X137593529Y-91027077D01*
X137659664Y-91049614D01*
X137698703Y-91094667D01*
X137778713Y-91251694D01*
X137895519Y-91412464D01*
X138036036Y-91552981D01*
X138196806Y-91669787D01*
X138283649Y-91714035D01*
X138373867Y-91760005D01*
X138373870Y-91760006D01*
X138410354Y-91771860D01*
X138562864Y-91821413D01*
X138759139Y-91852500D01*
X138759140Y-91852500D01*
X138957860Y-91852500D01*
X138957861Y-91852500D01*
X139154136Y-91821413D01*
X139343132Y-91760005D01*
X139520194Y-91669787D01*
X139680964Y-91552981D01*
X139821481Y-91412464D01*
X139938287Y-91251694D01*
X140028505Y-91074632D01*
X140089913Y-90885636D01*
X140121000Y-90689361D01*
X140121000Y-90490639D01*
X140109635Y-90418886D01*
X140109633Y-90418872D01*
X144518000Y-90418872D01*
X144518000Y-90681127D01*
X144525770Y-90740140D01*
X144552230Y-90941116D01*
X144617331Y-91184076D01*
X144620102Y-91194418D01*
X144620105Y-91194428D01*
X144720453Y-91436690D01*
X144720458Y-91436700D01*
X144851575Y-91663803D01*
X145011218Y-91871851D01*
X145011226Y-91871860D01*
X145196640Y-92057274D01*
X145196648Y-92057281D01*
X145404696Y-92216924D01*
X145631799Y-92348041D01*
X145631809Y-92348046D01*
X145796517Y-92416270D01*
X145874081Y-92448398D01*
X146127384Y-92516270D01*
X146387380Y-92550500D01*
X146387387Y-92550500D01*
X146649613Y-92550500D01*
X146649620Y-92550500D01*
X146909616Y-92516270D01*
X147162919Y-92448398D01*
X147404340Y-92348398D01*
X147405190Y-92348046D01*
X147405191Y-92348045D01*
X147405197Y-92348043D01*
X147632303Y-92216924D01*
X147840351Y-92057282D01*
X147840355Y-92057277D01*
X147840360Y-92057274D01*
X148025774Y-91871860D01*
X148025777Y-91871855D01*
X148025782Y-91871851D01*
X148185424Y-91663803D01*
X148316543Y-91436697D01*
X148416898Y-91194419D01*
X148484770Y-90941116D01*
X148519000Y-90681120D01*
X148519000Y-90418880D01*
X148484770Y-90158884D01*
X148416898Y-89905581D01*
X148375477Y-89805581D01*
X148316546Y-89663309D01*
X148316541Y-89663299D01*
X148185424Y-89436196D01*
X148025781Y-89228148D01*
X148025774Y-89228140D01*
X147840360Y-89042726D01*
X147840351Y-89042718D01*
X147632303Y-88883075D01*
X147405200Y-88751958D01*
X147405190Y-88751953D01*
X147162928Y-88651605D01*
X147162921Y-88651603D01*
X147162919Y-88651602D01*
X146909616Y-88583730D01*
X146851839Y-88576123D01*
X146649627Y-88549500D01*
X146649620Y-88549500D01*
X146387380Y-88549500D01*
X146387372Y-88549500D01*
X146156272Y-88579926D01*
X146127384Y-88583730D01*
X145874081Y-88651602D01*
X145874071Y-88651605D01*
X145631809Y-88751953D01*
X145631799Y-88751958D01*
X145404696Y-88883075D01*
X145196648Y-89042718D01*
X145011218Y-89228148D01*
X144851575Y-89436196D01*
X144720458Y-89663299D01*
X144720453Y-89663309D01*
X144620105Y-89905571D01*
X144620102Y-89905581D01*
X144558476Y-90135576D01*
X144552230Y-90158885D01*
X144518000Y-90418872D01*
X140109633Y-90418872D01*
X140106385Y-90398365D01*
X140089913Y-90294364D01*
X140059209Y-90199866D01*
X140028506Y-90105370D01*
X140028505Y-90105367D01*
X139964035Y-89978839D01*
X139938287Y-89928306D01*
X139821481Y-89767536D01*
X139680964Y-89627019D01*
X139520194Y-89510213D01*
X139487468Y-89493538D01*
X139343132Y-89419994D01*
X139343129Y-89419993D01*
X139154137Y-89358587D01*
X139055998Y-89343043D01*
X138957861Y-89327500D01*
X138759139Y-89327500D01*
X138693714Y-89337862D01*
X138562862Y-89358587D01*
X138373870Y-89419993D01*
X138373867Y-89419994D01*
X138196805Y-89510213D01*
X138036033Y-89627021D01*
X137895521Y-89767533D01*
X137778713Y-89928305D01*
X137698704Y-90085331D01*
X137650729Y-90136127D01*
X137582908Y-90152922D01*
X137516773Y-90130384D01*
X137477734Y-90085331D01*
X137397858Y-89928567D01*
X137370768Y-89891283D01*
X136699500Y-90562551D01*
X136699500Y-90539840D01*
X136673536Y-90442939D01*
X136623376Y-90356060D01*
X136552440Y-90285124D01*
X136465561Y-90234964D01*
X136368660Y-90209000D01*
X136345947Y-90209000D01*
X137017216Y-89537731D01*
X137017215Y-89537730D01*
X136979932Y-89510641D01*
X136802937Y-89420457D01*
X136614022Y-89359075D01*
X136417821Y-89328000D01*
X136219179Y-89328000D01*
X136022979Y-89359075D01*
X136022976Y-89359075D01*
X135834062Y-89420457D01*
X135657064Y-89510643D01*
X135619783Y-89537729D01*
X135619782Y-89537730D01*
X136291054Y-90209000D01*
X136268340Y-90209000D01*
X136171439Y-90234964D01*
X136084560Y-90285124D01*
X136013624Y-90356060D01*
X135963464Y-90442939D01*
X135937500Y-90539840D01*
X135937500Y-90562552D01*
X135266230Y-89891282D01*
X135266229Y-89891283D01*
X135239141Y-89928566D01*
X135159264Y-90085332D01*
X135111290Y-90136127D01*
X135043469Y-90152922D01*
X134977334Y-90130384D01*
X134938296Y-90085332D01*
X134858287Y-89928306D01*
X134741481Y-89767536D01*
X134600964Y-89627019D01*
X134440194Y-89510213D01*
X134407468Y-89493538D01*
X134263132Y-89419994D01*
X134263129Y-89419993D01*
X134074137Y-89358587D01*
X133975998Y-89343043D01*
X133877861Y-89327500D01*
X133679139Y-89327500D01*
X133613714Y-89337862D01*
X133482862Y-89358587D01*
X133293870Y-89419993D01*
X133293867Y-89419994D01*
X133116805Y-89510213D01*
X132956033Y-89627021D01*
X132815521Y-89767533D01*
X132698713Y-89928305D01*
X132618985Y-90084780D01*
X132571010Y-90135576D01*
X132503189Y-90152371D01*
X132437054Y-90129833D01*
X132398015Y-90084780D01*
X132344035Y-89978839D01*
X132318287Y-89928306D01*
X132201481Y-89767536D01*
X132060964Y-89627019D01*
X131900194Y-89510213D01*
X131867468Y-89493538D01*
X131723132Y-89419994D01*
X131723129Y-89419993D01*
X131534137Y-89358587D01*
X131435998Y-89343043D01*
X131337861Y-89327500D01*
X131139139Y-89327500D01*
X131073714Y-89337862D01*
X130942862Y-89358587D01*
X130753870Y-89419993D01*
X130753867Y-89419994D01*
X130576805Y-89510213D01*
X130416033Y-89627021D01*
X130275521Y-89767533D01*
X130158713Y-89928305D01*
X130068494Y-90105367D01*
X130068493Y-90105370D01*
X130007087Y-90294362D01*
X129984936Y-90434218D01*
X129976000Y-90490639D01*
X99919000Y-90490639D01*
X99919000Y-90318880D01*
X99884770Y-90058884D01*
X99816898Y-89805581D01*
X99776507Y-89708069D01*
X99716546Y-89563309D01*
X99716541Y-89563299D01*
X99585424Y-89336196D01*
X99425781Y-89128148D01*
X99425774Y-89128140D01*
X99240360Y-88942726D01*
X99240351Y-88942718D01*
X99032303Y-88783075D01*
X98805200Y-88651958D01*
X98805190Y-88651953D01*
X98562928Y-88551605D01*
X98562921Y-88551603D01*
X98562919Y-88551602D01*
X98309616Y-88483730D01*
X98251839Y-88476123D01*
X98049627Y-88449500D01*
X98049620Y-88449500D01*
X97787380Y-88449500D01*
X97787372Y-88449500D01*
X97556272Y-88479926D01*
X97527384Y-88483730D01*
X97281926Y-88549500D01*
X97274081Y-88551602D01*
X97274071Y-88551605D01*
X97031809Y-88651953D01*
X97031799Y-88651958D01*
X96804696Y-88783075D01*
X96596648Y-88942718D01*
X96411218Y-89128148D01*
X96251575Y-89336196D01*
X96120458Y-89563299D01*
X96120453Y-89563309D01*
X96020105Y-89805571D01*
X96020102Y-89805581D01*
X95987149Y-89928566D01*
X95952230Y-90058885D01*
X95918000Y-90318872D01*
X93487800Y-90318872D01*
X93487800Y-88109568D01*
X185749500Y-88109568D01*
X185749500Y-88390431D01*
X185780942Y-88669494D01*
X185780945Y-88669512D01*
X185843439Y-88943317D01*
X185843443Y-88943329D01*
X185936200Y-89208411D01*
X186058053Y-89461442D01*
X186058055Y-89461445D01*
X186207477Y-89699248D01*
X186214512Y-89708069D01*
X186380270Y-89915924D01*
X186382584Y-89918825D01*
X186581175Y-90117416D01*
X186800752Y-90292523D01*
X187038555Y-90441945D01*
X187291592Y-90563801D01*
X187490680Y-90633465D01*
X187556670Y-90656556D01*
X187556682Y-90656560D01*
X187830491Y-90719055D01*
X187830497Y-90719055D01*
X187830505Y-90719057D01*
X188016547Y-90740018D01*
X188109569Y-90750499D01*
X188109572Y-90750500D01*
X188109575Y-90750500D01*
X188390428Y-90750500D01*
X188390429Y-90750499D01*
X188533055Y-90734429D01*
X188669494Y-90719057D01*
X188669499Y-90719056D01*
X188669509Y-90719055D01*
X188943318Y-90656560D01*
X189208408Y-90563801D01*
X189461445Y-90441945D01*
X189699248Y-90292523D01*
X189918825Y-90117416D01*
X190117416Y-89918825D01*
X190292523Y-89699248D01*
X190441945Y-89461445D01*
X190563801Y-89208408D01*
X190656560Y-88943318D01*
X190719055Y-88669509D01*
X190721073Y-88651605D01*
X190750499Y-88390431D01*
X190750500Y-88390427D01*
X190750500Y-88109572D01*
X190750499Y-88109568D01*
X190719057Y-87830505D01*
X190719054Y-87830487D01*
X190656560Y-87556682D01*
X190656556Y-87556670D01*
X190633465Y-87490680D01*
X190563801Y-87291592D01*
X190441945Y-87038555D01*
X190292523Y-86800752D01*
X190117416Y-86581175D01*
X189918825Y-86382584D01*
X189699248Y-86207477D01*
X189461445Y-86058055D01*
X189461442Y-86058053D01*
X189208411Y-85936200D01*
X188943329Y-85843443D01*
X188943317Y-85843439D01*
X188669512Y-85780945D01*
X188669494Y-85780942D01*
X188390431Y-85749500D01*
X188390425Y-85749500D01*
X188109575Y-85749500D01*
X188109568Y-85749500D01*
X187830505Y-85780942D01*
X187830487Y-85780945D01*
X187556682Y-85843439D01*
X187556670Y-85843443D01*
X187291588Y-85936200D01*
X187038557Y-86058053D01*
X186800753Y-86207476D01*
X186581175Y-86382583D01*
X186382583Y-86581175D01*
X186207476Y-86800753D01*
X186058053Y-87038557D01*
X185936200Y-87291588D01*
X185843443Y-87556670D01*
X185843439Y-87556682D01*
X185780945Y-87830487D01*
X185780942Y-87830505D01*
X185749500Y-88109568D01*
X93487800Y-88109568D01*
X93487800Y-84640300D01*
X93507485Y-84573261D01*
X93560289Y-84527506D01*
X93611800Y-84516300D01*
X191862800Y-84516300D01*
X191929839Y-84535985D01*
G37*
%TD.AperFunction*%
%TD*%
M02*
