M48
; DRILL file {KiCad 9.0.7} date 2026-03-01T16:03:39+0000
; FORMAT={-:-/ absolute / metric / decimal}
; #@! TF.CreationDate,2026-03-01T16:03:39+00:00
; #@! TF.GenerationSoftware,Kicad,Pcbnew,9.0.7
; #@! TF.FileFunction,Plated,1,4,PTH
FMAT,2
METRIC
; #@! TA.AperFunction,Plated,PTH,ViaDrill
T1C0.300
; #@! TA.AperFunction,Plated,PTH,ComponentDrill
T2C0.460
; #@! TA.AperFunction,Plated,PTH,ComponentDrill
T3C1.000
%
G90
G05
T1
X83.841Y-107.677
X83.858Y-98.698
X83.893Y-95.065
X83.928Y-103.485
X85.023Y-99.811
X85.028Y-102.605
X85.517Y-96.829
X85.552Y-105.598
X85.781Y-99.775
X85.786Y-102.568
X86.621Y-99.783
X86.626Y-102.577
X87.491Y-99.769
X87.496Y-102.562
X88.37Y-99.766
X88.375Y-102.559
X89.209Y-99.757
X89.214Y-102.551
X95.0Y-113.5
X96.681Y-106.31
X112.5Y-103.0
X113.5Y-108.5
X114.5Y-105.0
X133.686Y-110.0
X136.686Y-110.0
X140.669Y-102.0
X141.5Y-114.5
X143.669Y-102.0
X144.5Y-114.5
X155.452Y-106.772
X155.89Y-103.383
X158.452Y-106.772
X158.89Y-103.383
T2
X83.864Y-96.831
X83.864Y-105.591
T3
X169.96Y-102.115
X169.96Y-104.655
X169.96Y-107.195
X169.96Y-109.735
X169.96Y-112.275
X169.96Y-114.815
X169.96Y-117.355
X172.5Y-102.115
X172.5Y-104.655
X172.5Y-107.195
X172.5Y-109.735
X172.5Y-112.275
X172.5Y-114.815
X172.5Y-117.355
M30
