M48
; DRILL file {KiCad 9.0.7} date 2026-02-24T10:59:39+0000
; FORMAT={-:-/ absolute / metric / decimal}
; #@! TF.CreationDate,2026-02-24T10:59:39+00:00
; #@! TF.GenerationSoftware,Kicad,Pcbnew,9.0.7
; #@! TF.FileFunction,Plated,1,4,PTH
FMAT,2
METRIC
; #@! TA.AperFunction,Plated,PTH,ViaDrill
T1C0.300
; #@! TA.AperFunction,Plated,PTH,ComponentDrill
T2C0.460
; #@! TA.AperFunction,Plated,PTH,ComponentDrill
T3C1.000
%
G90
G05
T1
X85.756Y-105.601
X85.894Y-96.858
X86.106Y-102.712
X86.206Y-99.78
X86.946Y-102.721
X87.045Y-99.788
X87.816Y-102.706
X87.915Y-99.774
X88.695Y-102.704
X88.794Y-99.771
X89.534Y-102.695
X89.634Y-99.763
X95.0Y-113.5
X96.681Y-106.31
X112.5Y-103.0
X113.5Y-108.5
X114.5Y-105.0
X133.686Y-110.0
X136.686Y-110.0
X140.669Y-102.0
X141.5Y-114.5
X143.669Y-102.0
X144.5Y-114.5
X155.452Y-106.772
X155.89Y-103.383
X158.452Y-106.772
X158.89Y-103.383
T2
X83.864Y-96.831
X83.864Y-105.591
T3
X169.96Y-102.115
X169.96Y-104.655
X169.96Y-107.195
X169.96Y-109.735
X169.96Y-112.275
X169.96Y-114.815
X169.96Y-117.355
X172.5Y-102.115
X172.5Y-104.655
X172.5Y-107.195
X172.5Y-109.735
X172.5Y-112.275
X172.5Y-114.815
X172.5Y-117.355
M30
