%TF.GenerationSoftware,KiCad,Pcbnew,10.0.1*%
%TF.CreationDate,2026-08-17T01:13:33+01:00*%
%TF.ProjectId,CATS_adapter,43415453-5f61-4646-9170-7465722e6b69,rev?*%
%TF.SameCoordinates,Original*%
%TF.FileFunction,Legend,Top*%
%TF.FilePolarity,Positive*%
%FSLAX46Y46*%
G04 Gerber Fmt 4.6, Leading zero omitted, Abs format (unit mm)*
G04 Created by KiCad (PCBNEW 10.0.1) date 2026-08-17 01:13:33*
%MOMM*%
%LPD*%
G01*
G04 APERTURE LIST*
%ADD10C,0.150000*%
%ADD11C,0.254000*%
%ADD12C,0.000000*%
%ADD13C,0.120000*%
%ADD14C,0.200000*%
%ADD15C,0.100000*%
G04 APERTURE END LIST*
D10*
X136509580Y-105016666D02*
X136557200Y-105064285D01*
X136557200Y-105064285D02*
X136604819Y-105207142D01*
X136604819Y-105207142D02*
X136604819Y-105302380D01*
X136604819Y-105302380D02*
X136557200Y-105445237D01*
X136557200Y-105445237D02*
X136461961Y-105540475D01*
X136461961Y-105540475D02*
X136366723Y-105588094D01*
X136366723Y-105588094D02*
X136176247Y-105635713D01*
X136176247Y-105635713D02*
X136033390Y-105635713D01*
X136033390Y-105635713D02*
X135842914Y-105588094D01*
X135842914Y-105588094D02*
X135747676Y-105540475D01*
X135747676Y-105540475D02*
X135652438Y-105445237D01*
X135652438Y-105445237D02*
X135604819Y-105302380D01*
X135604819Y-105302380D02*
X135604819Y-105207142D01*
X135604819Y-105207142D02*
X135652438Y-105064285D01*
X135652438Y-105064285D02*
X135700057Y-105016666D01*
X135938152Y-104159523D02*
X136604819Y-104159523D01*
X135557200Y-104397618D02*
X136271485Y-104635713D01*
X136271485Y-104635713D02*
X136271485Y-104016666D01*
X142666667Y-105157200D02*
X142809524Y-105204819D01*
X142809524Y-105204819D02*
X143047619Y-105204819D01*
X143047619Y-105204819D02*
X143142857Y-105157200D01*
X143142857Y-105157200D02*
X143190476Y-105109580D01*
X143190476Y-105109580D02*
X143238095Y-105014342D01*
X143238095Y-105014342D02*
X143238095Y-104919104D01*
X143238095Y-104919104D02*
X143190476Y-104823866D01*
X143190476Y-104823866D02*
X143142857Y-104776247D01*
X143142857Y-104776247D02*
X143047619Y-104728628D01*
X143047619Y-104728628D02*
X142857143Y-104681009D01*
X142857143Y-104681009D02*
X142761905Y-104633390D01*
X142761905Y-104633390D02*
X142714286Y-104585771D01*
X142714286Y-104585771D02*
X142666667Y-104490533D01*
X142666667Y-104490533D02*
X142666667Y-104395295D01*
X142666667Y-104395295D02*
X142714286Y-104300057D01*
X142714286Y-104300057D02*
X142761905Y-104252438D01*
X142761905Y-104252438D02*
X142857143Y-104204819D01*
X142857143Y-104204819D02*
X143095238Y-104204819D01*
X143095238Y-104204819D02*
X143238095Y-104252438D01*
X143571429Y-104204819D02*
X143809524Y-105204819D01*
X143809524Y-105204819D02*
X144000000Y-104490533D01*
X144000000Y-104490533D02*
X144190476Y-105204819D01*
X144190476Y-105204819D02*
X144428572Y-104204819D01*
X145333333Y-105204819D02*
X144761905Y-105204819D01*
X145047619Y-105204819D02*
X145047619Y-104204819D01*
X145047619Y-104204819D02*
X144952381Y-104347676D01*
X144952381Y-104347676D02*
X144857143Y-104442914D01*
X144857143Y-104442914D02*
X144761905Y-104490533D01*
X146904819Y-98461904D02*
X147714342Y-98461904D01*
X147714342Y-98461904D02*
X147809580Y-98414285D01*
X147809580Y-98414285D02*
X147857200Y-98366666D01*
X147857200Y-98366666D02*
X147904819Y-98271428D01*
X147904819Y-98271428D02*
X147904819Y-98080952D01*
X147904819Y-98080952D02*
X147857200Y-97985714D01*
X147857200Y-97985714D02*
X147809580Y-97938095D01*
X147809580Y-97938095D02*
X147714342Y-97890476D01*
X147714342Y-97890476D02*
X146904819Y-97890476D01*
X147904819Y-96890476D02*
X147904819Y-97461904D01*
X147904819Y-97176190D02*
X146904819Y-97176190D01*
X146904819Y-97176190D02*
X147047676Y-97271428D01*
X147047676Y-97271428D02*
X147142914Y-97366666D01*
X147142914Y-97366666D02*
X147190533Y-97461904D01*
X114545833Y-113739580D02*
X114498214Y-113787200D01*
X114498214Y-113787200D02*
X114355357Y-113834819D01*
X114355357Y-113834819D02*
X114260119Y-113834819D01*
X114260119Y-113834819D02*
X114117262Y-113787200D01*
X114117262Y-113787200D02*
X114022024Y-113691961D01*
X114022024Y-113691961D02*
X113974405Y-113596723D01*
X113974405Y-113596723D02*
X113926786Y-113406247D01*
X113926786Y-113406247D02*
X113926786Y-113263390D01*
X113926786Y-113263390D02*
X113974405Y-113072914D01*
X113974405Y-113072914D02*
X114022024Y-112977676D01*
X114022024Y-112977676D02*
X114117262Y-112882438D01*
X114117262Y-112882438D02*
X114260119Y-112834819D01*
X114260119Y-112834819D02*
X114355357Y-112834819D01*
X114355357Y-112834819D02*
X114498214Y-112882438D01*
X114498214Y-112882438D02*
X114545833Y-112930057D01*
X115450595Y-112834819D02*
X114974405Y-112834819D01*
X114974405Y-112834819D02*
X114926786Y-113311009D01*
X114926786Y-113311009D02*
X114974405Y-113263390D01*
X114974405Y-113263390D02*
X115069643Y-113215771D01*
X115069643Y-113215771D02*
X115307738Y-113215771D01*
X115307738Y-113215771D02*
X115402976Y-113263390D01*
X115402976Y-113263390D02*
X115450595Y-113311009D01*
X115450595Y-113311009D02*
X115498214Y-113406247D01*
X115498214Y-113406247D02*
X115498214Y-113644342D01*
X115498214Y-113644342D02*
X115450595Y-113739580D01*
X115450595Y-113739580D02*
X115402976Y-113787200D01*
X115402976Y-113787200D02*
X115307738Y-113834819D01*
X115307738Y-113834819D02*
X115069643Y-113834819D01*
X115069643Y-113834819D02*
X114974405Y-113787200D01*
X114974405Y-113787200D02*
X114926786Y-113739580D01*
D11*
X118879318Y-100464762D02*
X117609318Y-100464762D01*
X118758365Y-99134285D02*
X118818842Y-99194761D01*
X118818842Y-99194761D02*
X118879318Y-99376190D01*
X118879318Y-99376190D02*
X118879318Y-99497142D01*
X118879318Y-99497142D02*
X118818842Y-99678571D01*
X118818842Y-99678571D02*
X118697889Y-99799523D01*
X118697889Y-99799523D02*
X118576937Y-99860000D01*
X118576937Y-99860000D02*
X118335032Y-99920476D01*
X118335032Y-99920476D02*
X118153603Y-99920476D01*
X118153603Y-99920476D02*
X117911699Y-99860000D01*
X117911699Y-99860000D02*
X117790746Y-99799523D01*
X117790746Y-99799523D02*
X117669794Y-99678571D01*
X117669794Y-99678571D02*
X117609318Y-99497142D01*
X117609318Y-99497142D02*
X117609318Y-99376190D01*
X117609318Y-99376190D02*
X117669794Y-99194761D01*
X117669794Y-99194761D02*
X117730270Y-99134285D01*
X118879318Y-97924761D02*
X118879318Y-98650476D01*
X118879318Y-98287619D02*
X117609318Y-98287619D01*
X117609318Y-98287619D02*
X117790746Y-98408571D01*
X117790746Y-98408571D02*
X117911699Y-98529523D01*
X117911699Y-98529523D02*
X117972175Y-98650476D01*
D10*
X146009580Y-86841666D02*
X146057200Y-86889285D01*
X146057200Y-86889285D02*
X146104819Y-87032142D01*
X146104819Y-87032142D02*
X146104819Y-87127380D01*
X146104819Y-87127380D02*
X146057200Y-87270237D01*
X146057200Y-87270237D02*
X145961961Y-87365475D01*
X145961961Y-87365475D02*
X145866723Y-87413094D01*
X145866723Y-87413094D02*
X145676247Y-87460713D01*
X145676247Y-87460713D02*
X145533390Y-87460713D01*
X145533390Y-87460713D02*
X145342914Y-87413094D01*
X145342914Y-87413094D02*
X145247676Y-87365475D01*
X145247676Y-87365475D02*
X145152438Y-87270237D01*
X145152438Y-87270237D02*
X145104819Y-87127380D01*
X145104819Y-87127380D02*
X145104819Y-87032142D01*
X145104819Y-87032142D02*
X145152438Y-86889285D01*
X145152438Y-86889285D02*
X145200057Y-86841666D01*
X145200057Y-86460713D02*
X145152438Y-86413094D01*
X145152438Y-86413094D02*
X145104819Y-86317856D01*
X145104819Y-86317856D02*
X145104819Y-86079761D01*
X145104819Y-86079761D02*
X145152438Y-85984523D01*
X145152438Y-85984523D02*
X145200057Y-85936904D01*
X145200057Y-85936904D02*
X145295295Y-85889285D01*
X145295295Y-85889285D02*
X145390533Y-85889285D01*
X145390533Y-85889285D02*
X145533390Y-85936904D01*
X145533390Y-85936904D02*
X146104819Y-86508332D01*
X146104819Y-86508332D02*
X146104819Y-85889285D01*
X148633333Y-101004819D02*
X148300000Y-100528628D01*
X148061905Y-101004819D02*
X148061905Y-100004819D01*
X148061905Y-100004819D02*
X148442857Y-100004819D01*
X148442857Y-100004819D02*
X148538095Y-100052438D01*
X148538095Y-100052438D02*
X148585714Y-100100057D01*
X148585714Y-100100057D02*
X148633333Y-100195295D01*
X148633333Y-100195295D02*
X148633333Y-100338152D01*
X148633333Y-100338152D02*
X148585714Y-100433390D01*
X148585714Y-100433390D02*
X148538095Y-100481009D01*
X148538095Y-100481009D02*
X148442857Y-100528628D01*
X148442857Y-100528628D02*
X148061905Y-100528628D01*
X149585714Y-101004819D02*
X149014286Y-101004819D01*
X149300000Y-101004819D02*
X149300000Y-100004819D01*
X149300000Y-100004819D02*
X149204762Y-100147676D01*
X149204762Y-100147676D02*
X149109524Y-100242914D01*
X149109524Y-100242914D02*
X149014286Y-100290533D01*
X141309580Y-87541666D02*
X141357200Y-87589285D01*
X141357200Y-87589285D02*
X141404819Y-87732142D01*
X141404819Y-87732142D02*
X141404819Y-87827380D01*
X141404819Y-87827380D02*
X141357200Y-87970237D01*
X141357200Y-87970237D02*
X141261961Y-88065475D01*
X141261961Y-88065475D02*
X141166723Y-88113094D01*
X141166723Y-88113094D02*
X140976247Y-88160713D01*
X140976247Y-88160713D02*
X140833390Y-88160713D01*
X140833390Y-88160713D02*
X140642914Y-88113094D01*
X140642914Y-88113094D02*
X140547676Y-88065475D01*
X140547676Y-88065475D02*
X140452438Y-87970237D01*
X140452438Y-87970237D02*
X140404819Y-87827380D01*
X140404819Y-87827380D02*
X140404819Y-87732142D01*
X140404819Y-87732142D02*
X140452438Y-87589285D01*
X140452438Y-87589285D02*
X140500057Y-87541666D01*
X140404819Y-87208332D02*
X140404819Y-86589285D01*
X140404819Y-86589285D02*
X140785771Y-86922618D01*
X140785771Y-86922618D02*
X140785771Y-86779761D01*
X140785771Y-86779761D02*
X140833390Y-86684523D01*
X140833390Y-86684523D02*
X140881009Y-86636904D01*
X140881009Y-86636904D02*
X140976247Y-86589285D01*
X140976247Y-86589285D02*
X141214342Y-86589285D01*
X141214342Y-86589285D02*
X141309580Y-86636904D01*
X141309580Y-86636904D02*
X141357200Y-86684523D01*
X141357200Y-86684523D02*
X141404819Y-86779761D01*
X141404819Y-86779761D02*
X141404819Y-87065475D01*
X141404819Y-87065475D02*
X141357200Y-87160713D01*
X141357200Y-87160713D02*
X141309580Y-87208332D01*
X143709580Y-87541666D02*
X143757200Y-87589285D01*
X143757200Y-87589285D02*
X143804819Y-87732142D01*
X143804819Y-87732142D02*
X143804819Y-87827380D01*
X143804819Y-87827380D02*
X143757200Y-87970237D01*
X143757200Y-87970237D02*
X143661961Y-88065475D01*
X143661961Y-88065475D02*
X143566723Y-88113094D01*
X143566723Y-88113094D02*
X143376247Y-88160713D01*
X143376247Y-88160713D02*
X143233390Y-88160713D01*
X143233390Y-88160713D02*
X143042914Y-88113094D01*
X143042914Y-88113094D02*
X142947676Y-88065475D01*
X142947676Y-88065475D02*
X142852438Y-87970237D01*
X142852438Y-87970237D02*
X142804819Y-87827380D01*
X142804819Y-87827380D02*
X142804819Y-87732142D01*
X142804819Y-87732142D02*
X142852438Y-87589285D01*
X142852438Y-87589285D02*
X142900057Y-87541666D01*
X143804819Y-86589285D02*
X143804819Y-87160713D01*
X143804819Y-86874999D02*
X142804819Y-86874999D01*
X142804819Y-86874999D02*
X142947676Y-86970237D01*
X142947676Y-86970237D02*
X143042914Y-87065475D01*
X143042914Y-87065475D02*
X143090533Y-87160713D01*
X166889819Y-110978333D02*
X167604104Y-110978333D01*
X167604104Y-110978333D02*
X167746961Y-111025952D01*
X167746961Y-111025952D02*
X167842200Y-111121190D01*
X167842200Y-111121190D02*
X167889819Y-111264047D01*
X167889819Y-111264047D02*
X167889819Y-111359285D01*
X167889819Y-109978333D02*
X167889819Y-110549761D01*
X167889819Y-110264047D02*
X166889819Y-110264047D01*
X166889819Y-110264047D02*
X167032676Y-110359285D01*
X167032676Y-110359285D02*
X167127914Y-110454523D01*
X167127914Y-110454523D02*
X167175533Y-110549761D01*
D12*
%TO.C,G\u002A\u002A\u002A*%
G36*
X124144727Y-85993122D02*
G01*
X124144727Y-86564286D01*
X123875944Y-86564286D01*
X123607161Y-86564286D01*
X123607161Y-85993122D01*
X123607161Y-85421958D01*
X123875944Y-85421958D01*
X124144727Y-85421958D01*
X124144727Y-85993122D01*
G37*
G36*
X123859145Y-84762743D02*
G01*
X124024890Y-84787234D01*
X124095719Y-84846469D01*
X124111107Y-84975295D01*
X124111129Y-84985186D01*
X124092248Y-85130206D01*
X124007286Y-85191258D01*
X123907127Y-85206757D01*
X123747792Y-85206645D01*
X123655143Y-85178759D01*
X123620229Y-85082438D01*
X123607161Y-84936332D01*
X123617898Y-84810095D01*
X123676332Y-84760276D01*
X123821796Y-84759778D01*
X123859145Y-84762743D01*
G37*
G36*
X121711824Y-84025262D02*
G01*
X121698050Y-84279219D01*
X121672350Y-84437463D01*
X121619705Y-84538635D01*
X121525102Y-84621377D01*
X121463758Y-84663622D01*
X121306889Y-84760458D01*
X121195610Y-84813670D01*
X121178176Y-84817196D01*
X121153573Y-84754877D01*
X121134265Y-84587372D01*
X121122870Y-84343860D01*
X121120918Y-84178837D01*
X121120918Y-83540477D01*
X121426242Y-83540477D01*
X121731567Y-83540477D01*
X121711824Y-84025262D01*
G37*
G36*
X123256575Y-85775709D02*
G01*
X123237584Y-86530689D01*
X122999997Y-86550685D01*
X122828765Y-86551674D01*
X122721130Y-86527844D01*
X122714415Y-86522687D01*
X122685664Y-86427219D01*
X122670373Y-86240476D01*
X122667870Y-86004832D01*
X122677479Y-85762656D01*
X122698527Y-85556322D01*
X122730340Y-85428201D01*
X122731880Y-85425203D01*
X122830460Y-85313181D01*
X122992684Y-85188981D01*
X123036452Y-85161810D01*
X123275565Y-85020730D01*
X123256575Y-85775709D01*
G37*
G36*
X123271182Y-84184006D02*
G01*
X123269132Y-84484758D01*
X123257805Y-84684338D01*
X123229433Y-84815957D01*
X123176252Y-84912826D01*
X123090495Y-85008155D01*
X123074764Y-85023953D01*
X122970534Y-85119770D01*
X122868925Y-85178004D01*
X122733420Y-85207965D01*
X122527503Y-85218964D01*
X122304446Y-85220371D01*
X121730546Y-85220371D01*
X121711314Y-85875530D01*
X121692082Y-86530689D01*
X121439557Y-86551576D01*
X121245511Y-86545673D01*
X121153114Y-86482010D01*
X121147612Y-86469732D01*
X121133035Y-86361467D01*
X121125779Y-86153438D01*
X121126566Y-85880112D01*
X121131353Y-85694624D01*
X121151957Y-85316226D01*
X121196767Y-85050641D01*
X121285959Y-84876351D01*
X121439706Y-84771839D01*
X121678185Y-84715586D01*
X122021570Y-84686074D01*
X122080021Y-84682805D01*
X122700018Y-84649207D01*
X122719535Y-84094842D01*
X122739051Y-83540477D01*
X123005117Y-83540477D01*
X123271182Y-83540477D01*
X123271182Y-84184006D01*
G37*
G36*
X110381969Y-84608752D02*
G01*
X110392132Y-85078975D01*
X110409250Y-85431723D01*
X110443242Y-85683880D01*
X110504029Y-85852329D01*
X110601530Y-85953953D01*
X110745664Y-86005638D01*
X110946353Y-86024266D01*
X111213515Y-86026720D01*
X111215079Y-86026720D01*
X111492223Y-86023670D01*
X111669417Y-86008677D01*
X111781064Y-85972979D01*
X111861568Y-85907813D01*
X111910220Y-85849669D01*
X111962314Y-85773630D01*
X111999575Y-85683909D01*
X112024455Y-85558009D01*
X112039410Y-85373437D01*
X112046893Y-85107696D01*
X112049358Y-84738293D01*
X112049489Y-84572949D01*
X112049489Y-83473281D01*
X112290116Y-83473281D01*
X112530743Y-83473281D01*
X112508502Y-84678070D01*
X112496789Y-85159032D01*
X112477613Y-85525568D01*
X112444744Y-85797638D01*
X112391952Y-85995201D01*
X112313009Y-86138218D01*
X112201684Y-86246648D01*
X112051748Y-86340451D01*
X111977517Y-86379394D01*
X111736663Y-86455314D01*
X111416331Y-86494946D01*
X111066443Y-86498287D01*
X110736918Y-86465338D01*
X110477679Y-86396100D01*
X110441567Y-86379394D01*
X110273965Y-86285816D01*
X110147533Y-86185810D01*
X110056042Y-86059417D01*
X109993261Y-85886676D01*
X109952962Y-85647629D01*
X109928914Y-85322315D01*
X109914889Y-84890774D01*
X109910582Y-84678070D01*
X109888341Y-83473281D01*
X110124543Y-83473281D01*
X110360745Y-83473281D01*
X110381969Y-84608752D01*
G37*
G36*
X120194480Y-82988757D02*
G01*
X120270920Y-83118054D01*
X120279245Y-83133965D01*
X120318618Y-83240079D01*
X120347257Y-83396447D01*
X120366619Y-83622484D01*
X120378160Y-83937601D01*
X120383340Y-84361212D01*
X120383901Y-84528278D01*
X120387019Y-84983681D01*
X120395436Y-85322896D01*
X120410531Y-85564070D01*
X120433682Y-85725348D01*
X120466269Y-85824878D01*
X120484695Y-85854775D01*
X120551686Y-86009721D01*
X120583034Y-86212965D01*
X120583351Y-86233314D01*
X120566398Y-86408642D01*
X120500426Y-86495458D01*
X120432161Y-86521934D01*
X120153408Y-86554455D01*
X119859581Y-86525722D01*
X119827399Y-86517967D01*
X119746020Y-86435331D01*
X119709882Y-86273290D01*
X119720344Y-86079464D01*
X119778765Y-85901474D01*
X119808463Y-85854775D01*
X119845825Y-85777441D01*
X119873121Y-85646657D01*
X119891729Y-85444279D01*
X119903029Y-85152159D01*
X119908400Y-84752150D01*
X119909257Y-84528278D01*
X119910587Y-84346826D01*
X119978590Y-84346826D01*
X119989885Y-85438757D01*
X119994871Y-85780886D01*
X120001640Y-86047802D01*
X120009539Y-86223975D01*
X120017913Y-86293873D01*
X120024595Y-86261905D01*
X120049159Y-86043485D01*
X120079080Y-85856160D01*
X120083765Y-85834003D01*
X120125937Y-85722804D01*
X120170378Y-85739086D01*
X120213431Y-85876068D01*
X120251441Y-86126971D01*
X120253916Y-86149536D01*
X120269214Y-86234732D01*
X120282356Y-86190100D01*
X120293016Y-86020190D01*
X120300870Y-85729553D01*
X120304689Y-85438757D01*
X120314568Y-84346826D01*
X120146579Y-84346826D01*
X119978590Y-84346826D01*
X119910587Y-84346826D01*
X119912655Y-84064567D01*
X119921934Y-83715761D01*
X119927111Y-83636853D01*
X119978590Y-83636853D01*
X119990602Y-83797801D01*
X120045016Y-83864498D01*
X120146579Y-83876456D01*
X120251299Y-83863453D01*
X120300207Y-83800157D01*
X120314112Y-83650134D01*
X120314568Y-83582303D01*
X120291651Y-83363427D01*
X120232866Y-83220423D01*
X120153168Y-83171373D01*
X120067510Y-83234360D01*
X120050471Y-83262938D01*
X120000777Y-83422677D01*
X119978661Y-83626045D01*
X119978590Y-83636853D01*
X119927111Y-83636853D01*
X119938552Y-83462449D01*
X119963965Y-83285216D01*
X119999631Y-83164651D01*
X120013913Y-83133965D01*
X120091595Y-82999342D01*
X120143830Y-82936352D01*
X120146579Y-82935715D01*
X120194480Y-82988757D01*
G37*
G36*
X113124621Y-84638793D02*
G01*
X113125278Y-85103550D01*
X113133897Y-85450983D01*
X113160456Y-85698146D01*
X113214931Y-85862089D01*
X113307297Y-85959867D01*
X113447531Y-86008531D01*
X113645609Y-86025135D01*
X113911507Y-86026730D01*
X113936585Y-86026720D01*
X114502782Y-86026720D01*
X114696846Y-85270768D01*
X114825877Y-84772735D01*
X114929538Y-84388854D01*
X115014404Y-84102738D01*
X115087049Y-83898000D01*
X115154048Y-83758252D01*
X115221975Y-83667107D01*
X115297404Y-83608176D01*
X115379995Y-83567941D01*
X115560299Y-83509295D01*
X115710657Y-83520046D01*
X115838457Y-83566572D01*
X115924354Y-83606000D01*
X115994485Y-83655451D01*
X116056450Y-83732405D01*
X116117853Y-83854341D01*
X116186297Y-84038737D01*
X116269384Y-84303073D01*
X116374716Y-84664829D01*
X116484705Y-85052382D01*
X116571502Y-85359038D01*
X116647196Y-85625902D01*
X116702889Y-85821647D01*
X116727980Y-85909128D01*
X116754713Y-85956421D01*
X116816762Y-85989159D01*
X116935371Y-86009944D01*
X117131783Y-86021377D01*
X117427241Y-86026062D01*
X117688047Y-86026720D01*
X118065394Y-86024771D01*
X118331617Y-86017089D01*
X118509948Y-86000920D01*
X118623621Y-85973512D01*
X118695869Y-85932110D01*
X118725053Y-85903837D01*
X118825373Y-85711732D01*
X118801991Y-85517209D01*
X118713378Y-85398775D01*
X118583196Y-85329931D01*
X118366737Y-85293272D01*
X118125415Y-85283774D01*
X117714094Y-85258425D01*
X117408004Y-85184519D01*
X117184148Y-85053732D01*
X117041102Y-84891254D01*
X116911415Y-84586151D01*
X116905766Y-84262692D01*
X117018631Y-83964739D01*
X117125844Y-83815231D01*
X117252190Y-83708835D01*
X117422769Y-83637149D01*
X117662679Y-83591771D01*
X117997019Y-83564299D01*
X118248299Y-83553102D01*
X119037849Y-83523913D01*
X119037849Y-83767380D01*
X119037849Y-84010847D01*
X118347245Y-84010847D01*
X117951391Y-84021136D01*
X117671632Y-84056583D01*
X117490923Y-84124060D01*
X117392217Y-84230436D01*
X117358468Y-84382583D01*
X117357955Y-84409604D01*
X117380482Y-84563994D01*
X117461016Y-84673033D01*
X117618987Y-84746081D01*
X117873825Y-84792496D01*
X118209199Y-84819646D01*
X118508655Y-84839590D01*
X118708425Y-84864812D01*
X118843130Y-84905392D01*
X118947388Y-84971416D01*
X119046339Y-85063456D01*
X119224691Y-85324793D01*
X119291708Y-85616298D01*
X119253107Y-85906992D01*
X119114603Y-86165892D01*
X118881912Y-86362018D01*
X118799387Y-86401996D01*
X118668239Y-86441667D01*
X118484374Y-86468082D01*
X118226676Y-86482521D01*
X117874029Y-86486267D01*
X117480901Y-86481948D01*
X116397933Y-86463493D01*
X116046084Y-85234058D01*
X115933970Y-84847679D01*
X115832062Y-84506539D01*
X115746813Y-84231442D01*
X115684675Y-84043191D01*
X115652103Y-83962586D01*
X115651430Y-83961819D01*
X115611852Y-83943945D01*
X115569129Y-83978720D01*
X115518293Y-84079749D01*
X115454372Y-84260636D01*
X115372397Y-84534987D01*
X115267396Y-84916405D01*
X115173219Y-85270768D01*
X114850185Y-86497091D01*
X114104996Y-86494461D01*
X113663578Y-86481814D01*
X113337127Y-86447996D01*
X113142744Y-86397467D01*
X112958733Y-86273619D01*
X112801315Y-86098342D01*
X112790217Y-86080917D01*
X112741020Y-85988874D01*
X112705306Y-85883803D01*
X112680952Y-85743562D01*
X112665832Y-85546005D01*
X112657825Y-85268989D01*
X112654804Y-84890370D01*
X112654502Y-84666006D01*
X112654251Y-83473281D01*
X112889436Y-83473281D01*
X113124621Y-83473281D01*
X113124621Y-84638793D01*
G37*
G36*
X125499906Y-83547272D02*
G01*
X125769929Y-83565607D01*
X125965441Y-83592404D01*
X126038735Y-83614377D01*
X126133566Y-83655457D01*
X126133718Y-83619266D01*
X126124821Y-83604143D01*
X126143414Y-83560048D01*
X126255300Y-83552313D01*
X126425965Y-83575745D01*
X126620894Y-83625149D01*
X126805575Y-83695333D01*
X126838474Y-83711526D01*
X127051653Y-83890858D01*
X127181074Y-84141824D01*
X127220818Y-84426503D01*
X127164965Y-84706974D01*
X127027844Y-84924697D01*
X126873597Y-85042538D01*
X126676532Y-85136122D01*
X126485699Y-85187530D01*
X126350148Y-85178842D01*
X126342977Y-85174901D01*
X126299997Y-85184205D01*
X126305446Y-85218137D01*
X126371465Y-85279429D01*
X126533751Y-85390602D01*
X126770331Y-85537657D01*
X127059235Y-85706595D01*
X127170910Y-85769566D01*
X127491251Y-85949594D01*
X127785797Y-86117176D01*
X128026460Y-86256189D01*
X128185152Y-86350510D01*
X128210071Y-86366077D01*
X128411658Y-86494827D01*
X127957754Y-86495959D01*
X127773510Y-86493450D01*
X127621051Y-86478068D01*
X127472226Y-86439599D01*
X127298883Y-86367829D01*
X127072873Y-86252541D01*
X126766044Y-86083522D01*
X126664568Y-86026720D01*
X126362869Y-85858893D01*
X126104430Y-85717510D01*
X125911053Y-85614316D01*
X125804540Y-85561054D01*
X125791356Y-85556350D01*
X125774631Y-85617871D01*
X125762512Y-85779770D01*
X125757452Y-86008052D01*
X125757426Y-86026720D01*
X125757426Y-86497091D01*
X125522240Y-86497091D01*
X125287055Y-86497091D01*
X125287055Y-85892329D01*
X125281527Y-85626010D01*
X125266721Y-85419528D01*
X125249901Y-85327919D01*
X125417333Y-85327919D01*
X125510247Y-85338523D01*
X125555838Y-85339173D01*
X125678089Y-85332167D01*
X125692496Y-85314725D01*
X125673431Y-85308443D01*
X125503007Y-85297993D01*
X125438246Y-85308443D01*
X125417333Y-85327919D01*
X125249901Y-85327919D01*
X125245300Y-85302863D01*
X125233299Y-85287567D01*
X125130205Y-85330703D01*
X125062694Y-85468886D01*
X125026828Y-85715279D01*
X125018272Y-86006562D01*
X125018272Y-86564286D01*
X124749489Y-86564286D01*
X124480706Y-86564286D01*
X124480706Y-85836846D01*
X124488088Y-85452247D01*
X124513030Y-85242770D01*
X125847020Y-85242770D01*
X125856244Y-85282717D01*
X125891817Y-85287567D01*
X125947127Y-85262981D01*
X125936614Y-85242770D01*
X125856869Y-85234728D01*
X125847020Y-85242770D01*
X124513030Y-85242770D01*
X124519697Y-85186773D01*
X126026209Y-85186773D01*
X126059806Y-85220371D01*
X126093404Y-85186773D01*
X126059806Y-85153175D01*
X126173369Y-85153175D01*
X126238177Y-85109016D01*
X126328590Y-85018784D01*
X126406190Y-84921442D01*
X126416614Y-84884392D01*
X126351806Y-84928551D01*
X126261394Y-85018784D01*
X126183793Y-85116125D01*
X126173369Y-85153175D01*
X126059806Y-85153175D01*
X126026209Y-85186773D01*
X124519697Y-85186773D01*
X124520416Y-85180734D01*
X124592961Y-85001351D01*
X124720994Y-84893141D01*
X124919785Y-84835147D01*
X125204608Y-84806413D01*
X125232855Y-84804673D01*
X125578995Y-84757323D01*
X125808247Y-84659821D01*
X125930843Y-84505623D01*
X125959013Y-84340222D01*
X125927210Y-84171895D01*
X125821216Y-84055330D01*
X125625158Y-83983442D01*
X125323160Y-83949146D01*
X125070516Y-83943652D01*
X124480706Y-83943652D01*
X124480706Y-83920800D01*
X126377624Y-83920800D01*
X126403111Y-84025054D01*
X126431569Y-84082127D01*
X126475711Y-84245731D01*
X126484090Y-84463976D01*
X126479487Y-84519140D01*
X126467826Y-84698823D01*
X126491254Y-84772097D01*
X126540919Y-84770178D01*
X126649564Y-84684053D01*
X126700033Y-84612121D01*
X126764983Y-84370448D01*
X126705041Y-84147649D01*
X126587114Y-84014783D01*
X126439741Y-83917037D01*
X126377624Y-83920800D01*
X124480706Y-83920800D01*
X124480706Y-83742064D01*
X124480706Y-83694130D01*
X126238628Y-83694130D01*
X126254977Y-83731682D01*
X126322636Y-83803820D01*
X126361533Y-83789022D01*
X126362187Y-83779628D01*
X126314460Y-83722793D01*
X126284609Y-83702050D01*
X126238628Y-83694130D01*
X124480706Y-83694130D01*
X124480706Y-83540477D01*
X125190679Y-83540477D01*
X125499906Y-83547272D01*
G37*
%TO.C,C4*%
D13*
X135665000Y-107726248D02*
X135665000Y-108248752D01*
X137135000Y-107726248D02*
X137135000Y-108248752D01*
%TO.C,SW1*%
X140900000Y-105700000D02*
X140900000Y-105800000D01*
X140900000Y-105700000D02*
X147100000Y-105700000D01*
X140900000Y-107300000D02*
X140900000Y-110300000D01*
X140900000Y-111900000D02*
X140900000Y-111800000D01*
X140900000Y-111900000D02*
X147100000Y-111900000D01*
X147100000Y-105800000D02*
X147100000Y-105700000D01*
X147100000Y-107300000D02*
X147100000Y-110300000D01*
X147100000Y-111900000D02*
X147100000Y-111800000D01*
%TO.C,U1*%
X137990000Y-94090000D02*
X138440000Y-94090000D01*
X137990000Y-94540000D02*
X137990000Y-94090000D01*
X137990000Y-101310000D02*
X137990000Y-100860000D01*
X138440000Y-101310000D02*
X137990000Y-101310000D01*
X144760000Y-94090000D02*
X145210000Y-94090000D01*
X145210000Y-94090000D02*
X145210000Y-94540000D01*
X145210000Y-100860000D02*
X145210000Y-101310000D01*
X145210000Y-101310000D02*
X144760000Y-101310000D01*
X145230000Y-93790000D02*
X144760000Y-93450000D01*
X145230000Y-93110000D01*
X145230000Y-93790000D01*
G36*
X145230000Y-93790000D02*
G01*
X144760000Y-93450000D01*
X145230000Y-93110000D01*
X145230000Y-93790000D01*
G37*
%TO.C,C5*%
X114973752Y-110965000D02*
X114451248Y-110965000D01*
X114973752Y-112435000D02*
X114451248Y-112435000D01*
%TO.C,IC1*%
D14*
X104830000Y-89250000D02*
X109905000Y-89250000D01*
X104830000Y-109200000D02*
X104830000Y-89250000D01*
X109905000Y-109200000D02*
X104830000Y-109200000D01*
D15*
D12*
X111160000Y-109625000D02*
X111159999Y-109625000D01*
X111159999Y-109625000D01*
X111159999Y-109625000D01*
X111159999Y-109625000D01*
X111159999Y-109625000D01*
X111159999Y-109625000D01*
X111159999Y-109625000D01*
X111159999Y-109624999D01*
X111159999Y-109624999D01*
X111159999Y-109624999D01*
X111159999Y-109624999D01*
X111159999Y-109624999D01*
X111160000Y-109624999D01*
X111160000Y-109624999D01*
X111160000Y-109624999D01*
X111160000Y-109624999D01*
X111160000Y-109624999D01*
X111160000Y-109624999D01*
X111160000Y-109624999D01*
X111160000Y-109624999D01*
X111160000Y-109624999D01*
X111160000Y-109624999D01*
X111160000Y-109624999D01*
X111160000Y-109624999D01*
X111160001Y-109624999D01*
X111160001Y-109624999D01*
X111160001Y-109624999D01*
X111160001Y-109624999D01*
X111160001Y-109624999D01*
X111160001Y-109624999D01*
X111160001Y-109625000D01*
X111160001Y-109625000D01*
X111160001Y-109625000D01*
X111160001Y-109625000D01*
X111160001Y-109625000D01*
X111160001Y-109625000D01*
X111160001Y-109625000D01*
X111160000Y-109625000D01*
X111160000Y-109625000D02*
X111160001Y-109625000D01*
X111160001Y-109625000D01*
X111160001Y-109625000D01*
X111160001Y-109625000D01*
X111160001Y-109625000D01*
X111160001Y-109625000D01*
X111160001Y-109625001D01*
X111160001Y-109625001D01*
X111160001Y-109625001D01*
X111160001Y-109625001D01*
X111160001Y-109625001D01*
X111160001Y-109625001D01*
X111160001Y-109625001D01*
X111160000Y-109625001D01*
X111160000Y-109625001D01*
X111160000Y-109625001D01*
X111160000Y-109625001D01*
X111160000Y-109625001D01*
X111160000Y-109625001D01*
X111160000Y-109625001D01*
X111160000Y-109625001D01*
X111160000Y-109625001D01*
X111160000Y-109625001D01*
X111160000Y-109625001D01*
X111160000Y-109625001D01*
X111159999Y-109625001D01*
X111159999Y-109625001D01*
X111159999Y-109625001D01*
X111159999Y-109625001D01*
X111159999Y-109625001D01*
X111159999Y-109625001D01*
X111159999Y-109625000D01*
X111159999Y-109625000D01*
X111159999Y-109625000D01*
X111159999Y-109625000D01*
X111159999Y-109625000D01*
X111159999Y-109625000D01*
X111160000Y-109625000D01*
D15*
D12*
X111160000Y-109725000D02*
X111159999Y-109725000D01*
X111159999Y-109725000D01*
X111159999Y-109725000D01*
X111159999Y-109725000D01*
X111159999Y-109725000D01*
X111159999Y-109725000D01*
X111159999Y-109725000D01*
X111159999Y-109724999D01*
X111159999Y-109724999D01*
X111159999Y-109724999D01*
X111159999Y-109724999D01*
X111159999Y-109724999D01*
X111160000Y-109724999D01*
X111160000Y-109724999D01*
X111160000Y-109724999D01*
X111160000Y-109724999D01*
X111160000Y-109724999D01*
X111160000Y-109724999D01*
X111160000Y-109724999D01*
X111160000Y-109724999D01*
X111160000Y-109724999D01*
X111160000Y-109724999D01*
X111160000Y-109724999D01*
X111160000Y-109724999D01*
X111160001Y-109724999D01*
X111160001Y-109724999D01*
X111160001Y-109724999D01*
X111160001Y-109724999D01*
X111160001Y-109724999D01*
X111160001Y-109724999D01*
X111160001Y-109725000D01*
X111160001Y-109725000D01*
X111160001Y-109725000D01*
X111160001Y-109725000D01*
X111160001Y-109725000D01*
X111160001Y-109725000D01*
X111160001Y-109725000D01*
X111160000Y-109725000D01*
X111160000Y-109725000D02*
X111160001Y-109725000D01*
X111160001Y-109725000D01*
X111160001Y-109725000D01*
X111160001Y-109725000D01*
X111160001Y-109725000D01*
X111160001Y-109725000D01*
X111160001Y-109725001D01*
X111160001Y-109725001D01*
X111160001Y-109725001D01*
X111160001Y-109725001D01*
X111160001Y-109725001D01*
X111160001Y-109725001D01*
X111160001Y-109725001D01*
X111160000Y-109725001D01*
X111160000Y-109725001D01*
X111160000Y-109725001D01*
X111160000Y-109725001D01*
X111160000Y-109725001D01*
X111160000Y-109725001D01*
X111160000Y-109725001D01*
X111160000Y-109725001D01*
X111160000Y-109725001D01*
X111160000Y-109725001D01*
X111160000Y-109725001D01*
X111160000Y-109725001D01*
X111159999Y-109725001D01*
X111159999Y-109725001D01*
X111159999Y-109725001D01*
X111159999Y-109725001D01*
X111159999Y-109725001D01*
X111159999Y-109725001D01*
X111159999Y-109725000D01*
X111159999Y-109725000D01*
X111159999Y-109725000D01*
X111159999Y-109725000D01*
X111159999Y-109725000D01*
X111159999Y-109725000D01*
X111160000Y-109725000D01*
D14*
X130105000Y-109200000D02*
X131780000Y-109200000D01*
X131780000Y-89250000D02*
X130105000Y-89250000D01*
X131780000Y-109200000D02*
X131780000Y-89250000D01*
D15*
X111160000Y-109625000D02*
G75*
G02*
X111160000Y-109725000I0J-50000D01*
G01*
X111160000Y-109725000D02*
G75*
G02*
X111160000Y-109625000I0J50000D01*
G01*
%TO.C,C2*%
D13*
X144815000Y-89836252D02*
X144815000Y-89313748D01*
X146285000Y-89836252D02*
X146285000Y-89313748D01*
%TO.C,R1*%
X148572936Y-101465000D02*
X149027064Y-101465000D01*
X148572936Y-102935000D02*
X149027064Y-102935000D01*
%TO.C,C3*%
X140415000Y-90598752D02*
X140415000Y-90076248D01*
X141885000Y-90598752D02*
X141885000Y-90076248D01*
%TO.C,C1*%
X142615000Y-90598752D02*
X142615000Y-90076248D01*
X144085000Y-90598752D02*
X144085000Y-90076248D01*
%TO.C,J1*%
X153515000Y-109265000D02*
X153515000Y-112025000D01*
X163785000Y-109265000D02*
X153515000Y-109265000D01*
X163785000Y-109265000D02*
X163785000Y-112025000D01*
X163785000Y-112025000D02*
X153515000Y-112025000D01*
X165055000Y-109265000D02*
X166435000Y-109265000D01*
X166435000Y-109265000D02*
X166435000Y-110645000D01*
%TD*%
M02*
