%TF.GenerationSoftware,KiCad,Pcbnew,10.0.1*%
%TF.CreationDate,2026-08-17T01:13:32+01:00*%
%TF.ProjectId,CATS_adapter,43415453-5f61-4646-9170-7465722e6b69,rev?*%
%TF.SameCoordinates,Original*%
%TF.FileFunction,Copper,L1,Top*%
%TF.FilePolarity,Positive*%
%FSLAX46Y46*%
G04 Gerber Fmt 4.6, Leading zero omitted, Abs format (unit mm)*
G04 Created by KiCad (PCBNEW 10.0.1) date 2026-08-17 01:13:32*
%MOMM*%
%LPD*%
G01*
G04 APERTURE LIST*
G04 Aperture macros list*
%AMRoundRect*
0 Rectangle with rounded corners*
0 $1 Rounding radius*
0 $2 $3 $4 $5 $6 $7 $8 $9 X,Y pos of 4 corners*
0 Add a 4 corners polygon primitive as box body*
4,1,4,$2,$3,$4,$5,$6,$7,$8,$9,$2,$3,0*
0 Add four circle primitives for the rounded corners*
1,1,$1+$1,$2,$3*
1,1,$1+$1,$4,$5*
1,1,$1+$1,$6,$7*
1,1,$1+$1,$8,$9*
0 Add four rect primitives between the rounded corners*
20,1,$1+$1,$2,$3,$4,$5,0*
20,1,$1+$1,$4,$5,$6,$7,0*
20,1,$1+$1,$6,$7,$8,$9,0*
20,1,$1+$1,$8,$9,$2,$3,0*%
G04 Aperture macros list end*
%TA.AperFunction,SMDPad,CuDef*%
%ADD10RoundRect,0.250000X-0.475000X0.337500X-0.475000X-0.337500X0.475000X-0.337500X0.475000X0.337500X0*%
%TD*%
%TA.AperFunction,SMDPad,CuDef*%
%ADD11RoundRect,0.250000X-0.800000X-0.450000X0.800000X-0.450000X0.800000X0.450000X-0.800000X0.450000X0*%
%TD*%
%TA.AperFunction,SMDPad,CuDef*%
%ADD12RoundRect,0.075000X-0.075000X0.662500X-0.075000X-0.662500X0.075000X-0.662500X0.075000X0.662500X0*%
%TD*%
%TA.AperFunction,SMDPad,CuDef*%
%ADD13RoundRect,0.075000X-0.662500X0.075000X-0.662500X-0.075000X0.662500X-0.075000X0.662500X0.075000X0*%
%TD*%
%TA.AperFunction,SMDPad,CuDef*%
%ADD14RoundRect,0.250000X0.337500X0.475000X-0.337500X0.475000X-0.337500X-0.475000X0.337500X-0.475000X0*%
%TD*%
%TA.AperFunction,SMDPad,CuDef*%
%ADD15R,1.780000X2.500000*%
%TD*%
%TA.AperFunction,SMDPad,CuDef*%
%ADD16RoundRect,0.250000X0.475000X-0.337500X0.475000X0.337500X-0.475000X0.337500X-0.475000X-0.337500X0*%
%TD*%
%TA.AperFunction,SMDPad,CuDef*%
%ADD17RoundRect,0.250000X-0.350000X-0.450000X0.350000X-0.450000X0.350000X0.450000X-0.350000X0.450000X0*%
%TD*%
%TA.AperFunction,ComponentPad*%
%ADD18R,1.700000X1.700000*%
%TD*%
%TA.AperFunction,ComponentPad*%
%ADD19C,1.700000*%
%TD*%
%TA.AperFunction,ViaPad*%
%ADD20C,0.600000*%
%TD*%
%TA.AperFunction,Conductor*%
%ADD21C,0.500000*%
%TD*%
%TA.AperFunction,Conductor*%
%ADD22C,0.200000*%
%TD*%
%TA.AperFunction,Conductor*%
%ADD23C,0.250000*%
%TD*%
G04 APERTURE END LIST*
D10*
%TO.P,C4,1*%
%TO.N,/NRST*%
X136400000Y-106950000D03*
%TO.P,C4,2*%
%TO.N,GND*%
X136400000Y-109025000D03*
%TD*%
D11*
%TO.P,SW1,1,1_1*%
%TO.N,/NRST*%
X139450000Y-106550000D03*
X148550000Y-106550000D03*
%TO.P,SW1,2,2_2*%
%TO.N,GND*%
X139450000Y-111050000D03*
X148550000Y-111050000D03*
%TD*%
D12*
%TO.P,U1,1,PC13_1*%
%TO.N,unconnected-(U1A-PC13-Pad1)*%
X144350000Y-93537500D03*
%TO.P,U1,2,PC14-OSC32_IN_2*%
%TO.N,unconnected-(U1A-PC14-OSC32_IN-Pad2)*%
X143850000Y-93537500D03*
%TO.P,U1,3,PC15-OSC32_OUT_3*%
%TO.N,unconnected-(U1A-PC15-OSC32_OUT-Pad3)*%
X143350000Y-93537500D03*
%TO.P,U1,4,VBAT_4*%
%TO.N,+3.3V*%
X142850000Y-93537500D03*
%TO.P,U1,5,VREF+_5*%
X142350000Y-93537500D03*
%TO.P,U1,6,VDD_6*%
X141850000Y-93537500D03*
%TO.P,U1,7,VSS_7*%
%TO.N,GND*%
X141350000Y-93537500D03*
%TO.P,U1,8,PF0-OSC_IN_8*%
%TO.N,unconnected-(U1A-PF0-OSC_IN-Pad8)*%
X140850000Y-93537500D03*
%TO.P,U1,9,PF1-OSC_OUT_9*%
%TO.N,unconnected-(U1A-PF1-OSC_OUT-Pad9)*%
X140350000Y-93537500D03*
%TO.P,U1,10,PF2-NRST_10*%
%TO.N,/NRST*%
X139850000Y-93537500D03*
%TO.P,U1,11,PA0_11*%
%TO.N,unconnected-(U1A-PA0-Pad11)*%
X139350000Y-93537500D03*
%TO.P,U1,12,PA1_12*%
%TO.N,unconnected-(U1A-PA1-Pad12)*%
X138850000Y-93537500D03*
D13*
%TO.P,U1,13,PA2_13*%
%TO.N,/LORA_DIO3*%
X137437500Y-94950000D03*
%TO.P,U1,14,PA3_14*%
%TO.N,/LORA_RESET*%
X137437500Y-95450000D03*
%TO.P,U1,15,PA4_15*%
%TO.N,unconnected-(U1A-PA4-Pad15)*%
X137437500Y-95950000D03*
%TO.P,U1,16,PA5_16*%
%TO.N,/SPI_SCK*%
X137437500Y-96450000D03*
%TO.P,U1,17,PA6_17*%
%TO.N,/SPI_MISO*%
X137437500Y-96950000D03*
%TO.P,U1,18,PA7_18*%
%TO.N,/SPI_MOSI*%
X137437500Y-97450000D03*
%TO.P,U1,19,PB0_19*%
%TO.N,/SPI_NSS*%
X137437500Y-97950000D03*
%TO.P,U1,20,PB1_20*%
%TO.N,/BUSY*%
X137437500Y-98450000D03*
%TO.P,U1,21,PB2_21*%
%TO.N,/LORA_DIO1*%
X137437500Y-98950000D03*
%TO.P,U1,22,PB10_22*%
%TO.N,/LORA_DIO2*%
X137437500Y-99450000D03*
%TO.P,U1,23,PB11_23*%
%TO.N,unconnected-(U1A-PB11-Pad23)*%
X137437500Y-99950000D03*
%TO.P,U1,24,PB12_24*%
%TO.N,unconnected-(U1A-PB12-Pad24)*%
X137437500Y-100450000D03*
D12*
%TO.P,U1,25,PB13_25*%
%TO.N,unconnected-(U1A-PB13-Pad25)*%
X138850000Y-101862500D03*
%TO.P,U1,26,PB14_26*%
%TO.N,unconnected-(U1A-PB14-Pad26)*%
X139350000Y-101862500D03*
%TO.P,U1,27,PB15_27*%
%TO.N,unconnected-(U1A-PB15-Pad27)*%
X139850000Y-101862500D03*
%TO.P,U1,28,PA8_28*%
%TO.N,unconnected-(U1A-PA8-Pad28)*%
X140350000Y-101862500D03*
%TO.P,U1,29,PA9_29*%
%TO.N,unconnected-(U1A-PA9-Pad29)*%
X140850000Y-101862500D03*
%TO.P,U1,30,PC6_30*%
%TO.N,unconnected-(U1A-PC6-Pad30)*%
X141350000Y-101862500D03*
%TO.P,U1,31,PC7_31*%
%TO.N,unconnected-(U1A-PC7-Pad31)*%
X141850000Y-101862500D03*
%TO.P,U1,32,PA10_32*%
%TO.N,unconnected-(U1A-PA10-Pad32)*%
X142350000Y-101862500D03*
%TO.P,U1,33,PA11[PA9]_33*%
%TO.N,unconnected-(U1A-PA11[PA9]-Pad33)*%
X142850000Y-101862500D03*
%TO.P,U1,34,PA12[PA10]_34*%
%TO.N,unconnected-(U1A-PA12[PA10]-Pad34)*%
X143350000Y-101862500D03*
%TO.P,U1,35,PA13_35*%
%TO.N,/SWDIO*%
X143850000Y-101862500D03*
%TO.P,U1,36,PA14-BOOT0_36*%
%TO.N,/SWCLK*%
X144350000Y-101862500D03*
D13*
%TO.P,U1,37,PA15_37*%
%TO.N,unconnected-(U1A-PA15-Pad37)*%
X145762500Y-100450000D03*
%TO.P,U1,38,PD0_38*%
%TO.N,unconnected-(U1A-PD0-Pad38)*%
X145762500Y-99950000D03*
%TO.P,U1,39,PD1_39*%
%TO.N,unconnected-(U1A-PD1-Pad39)*%
X145762500Y-99450000D03*
%TO.P,U1,40,PD2_40*%
%TO.N,unconnected-(U1A-PD2-Pad40)*%
X145762500Y-98950000D03*
%TO.P,U1,41,PD3_41*%
%TO.N,unconnected-(U1A-PD3-Pad41)*%
X145762500Y-98450000D03*
%TO.P,U1,42,PB3_42*%
%TO.N,unconnected-(U1A-PB3-Pad42)*%
X145762500Y-97950000D03*
%TO.P,U1,43,PB4_43*%
%TO.N,unconnected-(U1A-PB4-Pad43)*%
X145762500Y-97450000D03*
%TO.P,U1,44,PB5_44*%
%TO.N,unconnected-(U1A-PB5-Pad44)*%
X145762500Y-96950000D03*
%TO.P,U1,45,PB6_45*%
%TO.N,/UART_TX*%
X145762500Y-96450000D03*
%TO.P,U1,46,PB7_46*%
%TO.N,/UART_RX*%
X145762500Y-95950000D03*
%TO.P,U1,47,PB8_47*%
%TO.N,unconnected-(U1A-PB8-Pad47)*%
X145762500Y-95450000D03*
%TO.P,U1,48,PB9_48*%
%TO.N,unconnected-(U1A-PB9-Pad48)*%
X145762500Y-94950000D03*
%TD*%
D14*
%TO.P,C5,1*%
%TO.N,+3.3V*%
X115750000Y-111700000D03*
%TO.P,C5,2*%
%TO.N,GND*%
X113675000Y-111700000D03*
%TD*%
D15*
%TO.P,IC1,1,ANT_/_N/C_1*%
%TO.N,unconnected-(IC1-ANT_{slash}_N{slash}C-Pad1)*%
X111160000Y-107950000D03*
%TO.P,IC1,2,GND_2*%
%TO.N,GND*%
X113700000Y-107950000D03*
%TO.P,IC1,3,VCC_3*%
%TO.N,+3.3V*%
X116240000Y-107950000D03*
%TO.P,IC1,4,N/C_1_4*%
%TO.N,unconnected-(IC1-N{slash}C_1-Pad4)*%
X118780000Y-107950000D03*
%TO.P,IC1,5,N/C_2_5*%
%TO.N,unconnected-(IC1-N{slash}C_2-Pad5)*%
X121320000Y-107950000D03*
%TO.P,IC1,6,BUSY_6*%
%TO.N,/BUSY*%
X123860000Y-107950000D03*
%TO.P,IC1,7,DIO1_7*%
%TO.N,/LORA_DIO1*%
X126400000Y-107950000D03*
%TO.P,IC1,8,DIO2_8*%
%TO.N,/LORA_DIO2*%
X128940000Y-107950000D03*
%TO.P,IC1,9,DIO3_9*%
%TO.N,/LORA_DIO3*%
X128940000Y-90500000D03*
%TO.P,IC1,10,N/C_3_10*%
%TO.N,unconnected-(IC1-N{slash}C_3-Pad10)*%
X126400000Y-90500000D03*
%TO.P,IC1,11,N/C_4_11*%
%TO.N,unconnected-(IC1-N{slash}C_4-Pad11)*%
X123860000Y-90500000D03*
%TO.P,IC1,12,RESET_12*%
%TO.N,/LORA_RESET*%
X121320000Y-90500000D03*
%TO.P,IC1,13,SCLK_13*%
%TO.N,/SPI_SCK*%
X118780000Y-90500000D03*
%TO.P,IC1,14,SDO_14*%
%TO.N,/SPI_MISO*%
X116240000Y-90500000D03*
%TO.P,IC1,15,SDI_15*%
%TO.N,/SPI_MOSI*%
X113700000Y-90500000D03*
%TO.P,IC1,16,NSEL_16*%
%TO.N,/SPI_NSS*%
X111160000Y-90500000D03*
%TD*%
D16*
%TO.P,C2,1*%
%TO.N,+3.3V*%
X145550000Y-90612500D03*
%TO.P,C2,2*%
%TO.N,GND*%
X145550000Y-88537500D03*
%TD*%
D17*
%TO.P,R1,1*%
%TO.N,/SWCLK*%
X147800000Y-102200000D03*
%TO.P,R1,2*%
%TO.N,GND*%
X149800000Y-102200000D03*
%TD*%
D16*
%TO.P,C3,1*%
%TO.N,+3.3V*%
X141150000Y-91375000D03*
%TO.P,C3,2*%
%TO.N,GND*%
X141150000Y-89300000D03*
%TD*%
%TO.P,C1,1*%
%TO.N,+3.3V*%
X143350000Y-91375000D03*
%TO.P,C1,2*%
%TO.N,GND*%
X143350000Y-89300000D03*
%TD*%
D18*
%TO.P,J1,1,Pin_1_1*%
%TO.N,GND*%
X165055000Y-110645000D03*
D19*
%TO.P,J1,2,Pin_2_2*%
%TO.N,+3.3V*%
X162515000Y-110645000D03*
%TO.P,J1,3,Pin_3_3*%
%TO.N,/SWCLK*%
X159975000Y-110645000D03*
%TO.P,J1,4,Pin_4_4*%
%TO.N,/SWDIO*%
X157435000Y-110645000D03*
%TO.P,J1,5,Pin_5_5*%
%TO.N,/NRST*%
X154895000Y-110645000D03*
%TD*%
D18*
%TO.P,J2,1,Pin_1_1*%
%TO.N,unconnected-(J2-Pin_1-Pad1)*%
X191860000Y-105960000D03*
D19*
%TO.P,J2,2,Pin_2_2*%
%TO.N,unconnected-(J2-Pin_2-Pad2)*%
X194400000Y-105960000D03*
%TO.P,J2,3,Pin_3_3*%
%TO.N,GND*%
X191860000Y-103420000D03*
%TO.P,J2,4,Pin_4_4*%
%TO.N,unconnected-(J2-Pin_4-Pad4)*%
X194400000Y-103420000D03*
%TO.P,J2,5,Pin_5_5*%
%TO.N,unconnected-(J2-Pin_5-Pad5)*%
X191860000Y-100880000D03*
%TO.P,J2,6,Pin_6_6*%
%TO.N,unconnected-(J2-Pin_6-Pad6)*%
X194400000Y-100880000D03*
%TO.P,J2,7,Pin_7_7*%
%TO.N,/UART_TX*%
X191860000Y-98340000D03*
%TO.P,J2,8,Pin_8_8*%
%TO.N,/UART_RX*%
X194400000Y-98340000D03*
%TO.P,J2,9,Pin_9_9*%
%TO.N,unconnected-(J2-Pin_9-Pad9)*%
X191860000Y-95800000D03*
%TO.P,J2,10,Pin_10_10*%
%TO.N,unconnected-(J2-Pin_10-Pad10)*%
X194400000Y-95800000D03*
%TO.P,J2,11,Pin_11_11*%
%TO.N,unconnected-(J2-Pin_11-Pad11)*%
X191860000Y-93260000D03*
%TO.P,J2,12,Pin_12_12*%
%TO.N,unconnected-(J2-Pin_12-Pad12)*%
X194400000Y-93260000D03*
%TO.P,J2,13,Pin_13_13*%
%TO.N,GND*%
X191860000Y-90720000D03*
%TO.P,J2,14,Pin_14_14*%
%TO.N,+3.3V*%
X194400000Y-90720000D03*
%TD*%
D20*
%TO.N,GND*%
X139059402Y-96889863D03*
X146320694Y-103282957D03*
X154627771Y-106736018D03*
X153029497Y-107604216D03*
%TO.N,+3.3V*%
X147700000Y-90650000D03*
X118250000Y-111800000D03*
%TO.N,GND*%
X117985690Y-93987476D03*
X120557304Y-93987476D03*
X139426444Y-113175154D03*
X151545679Y-101905157D03*
X148207154Y-112870621D03*
X136135832Y-110780923D03*
X180589197Y-113479688D03*
X178761997Y-87442089D03*
X112060252Y-111908340D03*
X127820988Y-105198814D03*
X134881649Y-101973017D03*
X124144030Y-95047704D03*
X115526865Y-94055150D03*
X185563241Y-94801644D03*
X161708132Y-104292932D03*
X140750000Y-104100000D03*
X142936416Y-96701644D03*
X141350000Y-95350000D03*
X156531065Y-98202266D03*
X152216843Y-93329733D03*
X164854976Y-86630000D03*
X178914264Y-104901999D03*
X172823598Y-93989555D03*
X183639797Y-98327441D03*
X166631048Y-97898839D03*
X126941225Y-93152830D03*
X113835013Y-105266488D03*
X125100000Y-105150000D03*
X171047153Y-107338266D03*
X150288132Y-86376222D03*
%TD*%
%TO.N,+3.3V*%
D21*
X145550000Y-90612500D02*
X147662500Y-90612500D01*
D22*
X141850000Y-92075000D02*
X141150000Y-91375000D01*
D21*
X116240000Y-111210000D02*
X115750000Y-111700000D01*
X118150000Y-111700000D02*
X118250000Y-111800000D01*
X141150000Y-91375000D02*
X142300000Y-91375000D01*
X147662500Y-90612500D02*
X147700000Y-90650000D01*
D22*
X142850000Y-91875000D02*
X143350000Y-91375000D01*
X142850000Y-93534400D02*
X142850000Y-91875000D01*
D21*
X144787500Y-91375000D02*
X145550000Y-90612500D01*
X115750000Y-111700000D02*
X118150000Y-111700000D01*
X142300000Y-91375000D02*
X143350000Y-91375000D01*
D22*
X142350001Y-91425001D02*
X142300000Y-91375000D01*
D21*
X116240000Y-107950000D02*
X116240000Y-111210000D01*
D22*
X142350001Y-93534400D02*
X142350001Y-91425001D01*
X141850000Y-93534400D02*
X141850000Y-92075000D01*
D21*
X143350000Y-91375000D02*
X144787500Y-91375000D01*
%TO.N,GND*%
D22*
X141350000Y-95350000D02*
X141350000Y-93537500D01*
%TO.N,/NRST*%
D23*
X150730000Y-106550000D02*
X154880000Y-110700000D01*
X139050000Y-106950000D02*
X139450000Y-106550000D01*
X139450000Y-106550000D02*
X137650000Y-104750000D01*
X137650000Y-104750000D02*
X137650000Y-101750000D01*
X137650000Y-101750000D02*
X139850001Y-99549999D01*
X139450000Y-106550000D02*
X148550000Y-106550000D01*
X136400000Y-106950000D02*
X139050000Y-106950000D01*
X148550000Y-106550000D02*
X150730000Y-106550000D01*
X139850001Y-99549999D02*
X139850001Y-93534400D01*
%TO.N,/LORA_RESET*%
X121320000Y-90860000D02*
X125909999Y-95449999D01*
X125909999Y-95449999D02*
X137434400Y-95449999D01*
X121320000Y-90500000D02*
X121320000Y-90860000D01*
%TO.N,/BUSY*%
X123860000Y-104190000D02*
X129599999Y-98450001D01*
X129599999Y-98450001D02*
X137434400Y-98450001D01*
X123860000Y-107950000D02*
X123860000Y-104190000D01*
%TO.N,/SPI_SCK*%
X124370000Y-96450000D02*
X137434400Y-96450000D01*
X118780000Y-90860000D02*
X124370000Y-96450000D01*
X118780000Y-90500000D02*
X118780000Y-90860000D01*
%TO.N,/LORA_DIO3*%
X128940000Y-93490000D02*
X130400000Y-94950000D01*
X130400000Y-94950000D02*
X137434400Y-94950000D01*
X128940000Y-90500000D02*
X128940000Y-93490000D01*
%TO.N,/LORA_DIO2*%
X133850001Y-99449999D02*
X137434400Y-99449999D01*
X128940000Y-107950000D02*
X128940000Y-104360000D01*
X128940000Y-104360000D02*
X133850001Y-99449999D01*
%TO.N,/SPI_MISO*%
X116240000Y-90860000D02*
X122329999Y-96949999D01*
X116240000Y-90500000D02*
X116240000Y-90860000D01*
X122329999Y-96949999D02*
X137434400Y-96949999D01*
%TO.N,/SPI_NSS*%
X111160000Y-90860000D02*
X118250000Y-97950000D01*
X111160000Y-90500000D02*
X111160000Y-90860000D01*
X118250000Y-97950000D02*
X137434400Y-97950000D01*
%TO.N,/SPI_MOSI*%
X113700000Y-90860000D02*
X120290000Y-97450000D01*
X113700000Y-90500000D02*
X113700000Y-90860000D01*
X120290000Y-97450000D02*
X137434400Y-97450000D01*
%TO.N,/LORA_DIO1*%
X126400000Y-107950000D02*
X126400000Y-104100000D01*
X131550000Y-98950000D02*
X137434400Y-98950000D01*
X126400000Y-104100000D02*
X131550000Y-98950000D01*
%TO.N,/SWCLK*%
D22*
X147800000Y-102200000D02*
X149250000Y-103650000D01*
X149250000Y-103650000D02*
X152910000Y-103650000D01*
X144350000Y-101865600D02*
X147465600Y-101865600D01*
X147465600Y-101865600D02*
X147800000Y-102200000D01*
X152910000Y-103650000D02*
X159960000Y-110700000D01*
%TO.N,/SWDIO*%
X143850001Y-102664101D02*
X145885900Y-104700000D01*
X145885900Y-104700000D02*
X151420000Y-104700000D01*
X143850001Y-101865600D02*
X143850001Y-102664101D01*
X151420000Y-104700000D02*
X157420000Y-110700000D01*
%TO.N,/UART_RX*%
X145765600Y-95950001D02*
X148150001Y-95950001D01*
X148150001Y-95950001D02*
X149450000Y-97250000D01*
X193143027Y-97083027D02*
X194400000Y-98340000D01*
X149616973Y-97083027D02*
X193143027Y-97083027D01*
X149450000Y-97250000D02*
X149616973Y-97083027D01*
%TO.N,/UART_TX*%
X145765600Y-96450000D02*
X147900000Y-96450000D01*
X190750000Y-99450000D02*
X191860000Y-98340000D01*
X147900000Y-96450000D02*
X150900000Y-99450000D01*
X150900000Y-99450000D02*
X190750000Y-99450000D01*
%TD*%
%TA.AperFunction,Conductor*%
%TO.N,GND*%
G36*
X152676942Y-104270185D02*
G01*
X152697584Y-104286819D01*
X157493583Y-109082819D01*
X157527068Y-109144142D01*
X157522084Y-109213834D01*
X157480212Y-109269767D01*
X157414748Y-109294184D01*
X157405902Y-109294500D01*
X157328713Y-109294500D01*
X157258727Y-109305584D01*
X157118755Y-109327754D01*
X157023642Y-109358658D01*
X156953800Y-109360653D01*
X156897643Y-109328408D01*
X152031416Y-104462181D01*
X151997931Y-104400858D01*
X152002915Y-104331166D01*
X152044787Y-104275233D01*
X152110251Y-104250816D01*
X152119097Y-104250500D01*
X152609903Y-104250500D01*
X152676942Y-104270185D01*
G37*
%TD.AperFunction*%
%TA.AperFunction,Conductor*%
G36*
X151186942Y-105320185D02*
G01*
X151207584Y-105336819D01*
X154953584Y-109082819D01*
X154987069Y-109144142D01*
X154982085Y-109213834D01*
X154940213Y-109269767D01*
X154874749Y-109294184D01*
X154865903Y-109294500D01*
X154788713Y-109294500D01*
X154760006Y-109299046D01*
X154578757Y-109327753D01*
X154510324Y-109349988D01*
X154440483Y-109351982D01*
X154384327Y-109319737D01*
X151223592Y-106159002D01*
X151215860Y-106151270D01*
X151215858Y-106151267D01*
X151128733Y-106064142D01*
X151062353Y-106019788D01*
X151026286Y-105995688D01*
X151026287Y-105995688D01*
X151026285Y-105995687D01*
X150986039Y-105979017D01*
X150945792Y-105962347D01*
X150912452Y-105948537D01*
X150912448Y-105948536D01*
X150912444Y-105948535D01*
X150807624Y-105927685D01*
X150807623Y-105927685D01*
X150791611Y-105924500D01*
X150791607Y-105924500D01*
X150791606Y-105924500D01*
X150172017Y-105924500D01*
X150104978Y-105904815D01*
X150059223Y-105852011D01*
X150054311Y-105839505D01*
X150034814Y-105780666D01*
X149942712Y-105631344D01*
X149823549Y-105512181D01*
X149790064Y-105450858D01*
X149795048Y-105381166D01*
X149836920Y-105325233D01*
X149902384Y-105300816D01*
X149911230Y-105300500D01*
X151119903Y-105300500D01*
X151186942Y-105320185D01*
G37*
%TD.AperFunction*%
%TA.AperFunction,Conductor*%
G36*
X130307586Y-99095186D02*
G01*
X130353341Y-99147990D01*
X130363285Y-99217148D01*
X130334260Y-99280704D01*
X130328228Y-99287182D01*
X126003730Y-103611678D01*
X126003721Y-103611687D01*
X126001270Y-103614139D01*
X126001267Y-103614142D01*
X125914142Y-103701267D01*
X125890772Y-103736243D01*
X125885933Y-103743483D01*
X125885929Y-103743489D01*
X125845690Y-103803709D01*
X125845685Y-103803718D01*
X125813351Y-103881783D01*
X125798539Y-103917541D01*
X125798535Y-103917555D01*
X125774500Y-104038389D01*
X125774500Y-106075500D01*
X125754815Y-106142539D01*
X125702011Y-106188294D01*
X125650501Y-106199500D01*
X125462130Y-106199500D01*
X125462123Y-106199501D01*
X125402516Y-106205908D01*
X125267671Y-106256202D01*
X125267669Y-106256203D01*
X125204311Y-106303634D01*
X125138847Y-106328051D01*
X125070574Y-106313200D01*
X125055689Y-106303634D01*
X124992330Y-106256203D01*
X124992328Y-106256202D01*
X124857482Y-106205908D01*
X124857483Y-106205908D01*
X124797883Y-106199501D01*
X124797881Y-106199500D01*
X124797873Y-106199500D01*
X124797865Y-106199500D01*
X124609500Y-106199500D01*
X124542461Y-106179815D01*
X124496706Y-106127011D01*
X124485500Y-106075500D01*
X124485500Y-104500452D01*
X124505185Y-104433413D01*
X124521819Y-104412771D01*
X129822771Y-99111820D01*
X129884094Y-99078335D01*
X129910452Y-99075501D01*
X130240547Y-99075501D01*
X130307586Y-99095186D01*
G37*
%TD.AperFunction*%
%TA.AperFunction,Conductor*%
G36*
X132607587Y-99595185D02*
G01*
X132653342Y-99647989D01*
X132663286Y-99717147D01*
X132634261Y-99780703D01*
X132628229Y-99787180D01*
X128541270Y-103874139D01*
X128541267Y-103874142D01*
X128497868Y-103917541D01*
X128454142Y-103961266D01*
X128426566Y-104002537D01*
X128423218Y-104007548D01*
X128385688Y-104063714D01*
X128360510Y-104124500D01*
X128358152Y-104130191D01*
X128358149Y-104130198D01*
X128338538Y-104177544D01*
X128338535Y-104177556D01*
X128314500Y-104298389D01*
X128314500Y-106075500D01*
X128294815Y-106142539D01*
X128242011Y-106188294D01*
X128190501Y-106199500D01*
X128002130Y-106199500D01*
X128002123Y-106199501D01*
X127942516Y-106205908D01*
X127807671Y-106256202D01*
X127807669Y-106256203D01*
X127744311Y-106303634D01*
X127678847Y-106328051D01*
X127610574Y-106313200D01*
X127595689Y-106303634D01*
X127532330Y-106256203D01*
X127532328Y-106256202D01*
X127397482Y-106205908D01*
X127397483Y-106205908D01*
X127337883Y-106199501D01*
X127337881Y-106199500D01*
X127337873Y-106199500D01*
X127337865Y-106199500D01*
X127149500Y-106199500D01*
X127082461Y-106179815D01*
X127036706Y-106127011D01*
X127025500Y-106075500D01*
X127025500Y-104410452D01*
X127045185Y-104343413D01*
X127061819Y-104322771D01*
X131772771Y-99611819D01*
X131834094Y-99578334D01*
X131860452Y-99575500D01*
X132540548Y-99575500D01*
X132607587Y-99595185D01*
G37*
%TD.AperFunction*%
%TA.AperFunction,Conductor*%
G36*
X138474987Y-103020194D02*
G01*
X138484767Y-103027698D01*
X138624764Y-103085687D01*
X138731586Y-103099750D01*
X138737264Y-103100498D01*
X138737280Y-103100500D01*
X138737287Y-103100500D01*
X138962713Y-103100500D01*
X138962720Y-103100500D01*
X139075236Y-103085687D01*
X139075236Y-103085686D01*
X139083295Y-103084626D01*
X139083698Y-103087689D01*
X139116302Y-103087689D01*
X139116705Y-103084626D01*
X139124763Y-103085686D01*
X139124764Y-103085687D01*
X139237280Y-103100500D01*
X139237287Y-103100500D01*
X139462713Y-103100500D01*
X139462720Y-103100500D01*
X139575236Y-103085687D01*
X139575236Y-103085686D01*
X139583295Y-103084626D01*
X139583698Y-103087689D01*
X139616302Y-103087689D01*
X139616705Y-103084626D01*
X139624763Y-103085686D01*
X139624764Y-103085687D01*
X139737280Y-103100500D01*
X139737287Y-103100500D01*
X139962713Y-103100500D01*
X139962720Y-103100500D01*
X140075236Y-103085687D01*
X140075236Y-103085686D01*
X140083295Y-103084626D01*
X140083698Y-103087689D01*
X140116302Y-103087689D01*
X140116705Y-103084626D01*
X140124763Y-103085686D01*
X140124764Y-103085687D01*
X140237280Y-103100500D01*
X140237287Y-103100500D01*
X140462713Y-103100500D01*
X140462720Y-103100500D01*
X140575236Y-103085687D01*
X140575236Y-103085686D01*
X140583295Y-103084626D01*
X140583698Y-103087689D01*
X140616302Y-103087689D01*
X140616705Y-103084626D01*
X140624763Y-103085686D01*
X140624764Y-103085687D01*
X140737280Y-103100500D01*
X140737287Y-103100500D01*
X140962713Y-103100500D01*
X140962720Y-103100500D01*
X141075236Y-103085687D01*
X141075236Y-103085686D01*
X141083295Y-103084626D01*
X141083698Y-103087689D01*
X141116302Y-103087689D01*
X141116705Y-103084626D01*
X141124763Y-103085686D01*
X141124764Y-103085687D01*
X141237280Y-103100500D01*
X141237287Y-103100500D01*
X141462713Y-103100500D01*
X141462720Y-103100500D01*
X141575236Y-103085687D01*
X141575236Y-103085686D01*
X141583295Y-103084626D01*
X141583698Y-103087689D01*
X141616302Y-103087689D01*
X141616705Y-103084626D01*
X141624763Y-103085686D01*
X141624764Y-103085687D01*
X141737280Y-103100500D01*
X141737287Y-103100500D01*
X141962713Y-103100500D01*
X141962720Y-103100500D01*
X142075236Y-103085687D01*
X142075236Y-103085686D01*
X142083295Y-103084626D01*
X142083698Y-103087689D01*
X142116302Y-103087689D01*
X142116705Y-103084626D01*
X142124763Y-103085686D01*
X142124764Y-103085687D01*
X142237280Y-103100500D01*
X142237287Y-103100500D01*
X142462713Y-103100500D01*
X142462720Y-103100500D01*
X142575236Y-103085687D01*
X142575236Y-103085686D01*
X142583295Y-103084626D01*
X142583698Y-103087689D01*
X142616302Y-103087689D01*
X142616705Y-103084626D01*
X142624763Y-103085686D01*
X142624764Y-103085687D01*
X142737280Y-103100500D01*
X142737287Y-103100500D01*
X142962713Y-103100500D01*
X142962720Y-103100500D01*
X143075236Y-103085687D01*
X143075236Y-103085686D01*
X143083295Y-103084626D01*
X143083698Y-103087689D01*
X143116302Y-103087689D01*
X143116705Y-103084626D01*
X143124763Y-103085686D01*
X143124764Y-103085687D01*
X143237280Y-103100500D01*
X143385802Y-103100500D01*
X143415239Y-103109143D01*
X143445225Y-103115666D01*
X143450242Y-103119422D01*
X143452841Y-103120185D01*
X143473480Y-103136816D01*
X143481285Y-103144621D01*
X143481286Y-103144621D01*
X143488353Y-103151688D01*
X145401039Y-105064374D01*
X145401049Y-105064385D01*
X145405379Y-105068715D01*
X145405380Y-105068716D01*
X145517184Y-105180520D01*
X145603995Y-105230639D01*
X145603997Y-105230641D01*
X145641302Y-105252179D01*
X145654115Y-105259577D01*
X145806843Y-105300501D01*
X145806846Y-105300501D01*
X145972553Y-105300501D01*
X145972569Y-105300500D01*
X147188770Y-105300500D01*
X147255809Y-105320185D01*
X147301564Y-105372989D01*
X147311508Y-105442147D01*
X147282483Y-105505703D01*
X147276451Y-105512181D01*
X147157289Y-105631342D01*
X147065187Y-105780663D01*
X147065186Y-105780666D01*
X147045689Y-105839505D01*
X147005916Y-105896949D01*
X146941400Y-105923772D01*
X146927983Y-105924500D01*
X141072017Y-105924500D01*
X141004978Y-105904815D01*
X140959223Y-105852011D01*
X140954311Y-105839505D01*
X140934814Y-105780666D01*
X140842712Y-105631344D01*
X140718656Y-105507288D01*
X140569334Y-105415186D01*
X140402797Y-105360001D01*
X140402795Y-105360000D01*
X140300016Y-105349500D01*
X140300009Y-105349500D01*
X139185453Y-105349500D01*
X139118414Y-105329815D01*
X139097772Y-105313181D01*
X138311819Y-104527228D01*
X138278334Y-104465905D01*
X138275500Y-104439547D01*
X138275500Y-103118568D01*
X138295185Y-103051529D01*
X138347989Y-103005774D01*
X138417147Y-102995830D01*
X138474987Y-103020194D01*
G37*
%TD.AperFunction*%
%TA.AperFunction,Conductor*%
G36*
X192975270Y-104181717D02*
G01*
X192975270Y-104181716D01*
X193014622Y-104127555D01*
X193019232Y-104118507D01*
X193067205Y-104067709D01*
X193135025Y-104050912D01*
X193201161Y-104073447D01*
X193240204Y-104118504D01*
X193244949Y-104127817D01*
X193369890Y-104299786D01*
X193520213Y-104450109D01*
X193692182Y-104575050D01*
X193700946Y-104579516D01*
X193751742Y-104627491D01*
X193768536Y-104695312D01*
X193745998Y-104761447D01*
X193700946Y-104800484D01*
X193692182Y-104804949D01*
X193520215Y-104929889D01*
X193406673Y-105043431D01*
X193345350Y-105076915D01*
X193275658Y-105071931D01*
X193219725Y-105030059D01*
X193202810Y-104999082D01*
X193153797Y-104867671D01*
X193153793Y-104867664D01*
X193067547Y-104752455D01*
X193067544Y-104752452D01*
X192952335Y-104666206D01*
X192952328Y-104666202D01*
X192817482Y-104615908D01*
X192817483Y-104615908D01*
X192757883Y-104609501D01*
X192757881Y-104609500D01*
X192757873Y-104609500D01*
X192757865Y-104609500D01*
X192747309Y-104609500D01*
X192680270Y-104589815D01*
X192659628Y-104573181D01*
X191989408Y-103902962D01*
X192052993Y-103885925D01*
X192167007Y-103820099D01*
X192260099Y-103727007D01*
X192325925Y-103612993D01*
X192342962Y-103549408D01*
X192975270Y-104181717D01*
G37*
%TD.AperFunction*%
%TA.AperFunction,Conductor*%
G36*
X146584186Y-102468650D02*
G01*
X146593148Y-102467362D01*
X146617188Y-102478340D01*
X146642540Y-102485785D01*
X146648467Y-102492625D01*
X146656704Y-102496387D01*
X146670993Y-102518621D01*
X146688295Y-102538589D01*
X146690582Y-102549103D01*
X146694478Y-102555165D01*
X146699501Y-102590100D01*
X146699501Y-102700018D01*
X146710000Y-102802796D01*
X146710001Y-102802799D01*
X146731334Y-102867177D01*
X146765186Y-102969334D01*
X146857288Y-103118656D01*
X146981344Y-103242712D01*
X147130666Y-103334814D01*
X147297203Y-103389999D01*
X147399991Y-103400500D01*
X148099901Y-103400499D01*
X148166940Y-103420183D01*
X148187582Y-103436818D01*
X148638583Y-103887819D01*
X148672068Y-103949142D01*
X148667084Y-104018834D01*
X148625212Y-104074767D01*
X148559748Y-104099184D01*
X148550902Y-104099500D01*
X146185997Y-104099500D01*
X146118958Y-104079815D01*
X146098316Y-104063181D01*
X144963635Y-102928500D01*
X144930150Y-102867177D01*
X144935134Y-102797485D01*
X144936742Y-102793398D01*
X144985687Y-102675236D01*
X144999026Y-102573914D01*
X145027292Y-102510018D01*
X145085617Y-102471547D01*
X145121965Y-102466100D01*
X146575501Y-102466100D01*
X146584186Y-102468650D01*
G37*
%TD.AperFunction*%
%TA.AperFunction,Conductor*%
G36*
X193201444Y-101533999D02*
G01*
X193240486Y-101579056D01*
X193244951Y-101587820D01*
X193369890Y-101759786D01*
X193520213Y-101910109D01*
X193692182Y-102035050D01*
X193700946Y-102039516D01*
X193751742Y-102087491D01*
X193768536Y-102155312D01*
X193745998Y-102221447D01*
X193700946Y-102260484D01*
X193692182Y-102264949D01*
X193520213Y-102389890D01*
X193369890Y-102540213D01*
X193244949Y-102712182D01*
X193240202Y-102721499D01*
X193192227Y-102772293D01*
X193124405Y-102789087D01*
X193058271Y-102766548D01*
X193019234Y-102721495D01*
X193014626Y-102712452D01*
X192975270Y-102658282D01*
X192975269Y-102658282D01*
X192342962Y-103290590D01*
X192325925Y-103227007D01*
X192260099Y-103112993D01*
X192167007Y-103019901D01*
X192052993Y-102954075D01*
X191989409Y-102937037D01*
X192621716Y-102304728D01*
X192567547Y-102265373D01*
X192567547Y-102265372D01*
X192558500Y-102260763D01*
X192507706Y-102212788D01*
X192490912Y-102144966D01*
X192513451Y-102078832D01*
X192558508Y-102039793D01*
X192567816Y-102035051D01*
X192647007Y-101977515D01*
X192739786Y-101910109D01*
X192739788Y-101910106D01*
X192739792Y-101910104D01*
X192890104Y-101759792D01*
X192890106Y-101759788D01*
X192890109Y-101759786D01*
X193015048Y-101587820D01*
X193015047Y-101587820D01*
X193015051Y-101587816D01*
X193019514Y-101579054D01*
X193067488Y-101528259D01*
X193135308Y-101511463D01*
X193201444Y-101533999D01*
G37*
%TD.AperFunction*%
%TA.AperFunction,Conductor*%
G36*
X141408129Y-94646055D02*
G01*
X141425484Y-94657208D01*
X141451486Y-94677160D01*
X141492689Y-94733587D01*
X141498878Y-94769102D01*
X141500000Y-94770086D01*
X141582730Y-94759195D01*
X141616469Y-94761415D01*
X141616705Y-94759626D01*
X141624763Y-94760686D01*
X141624764Y-94760687D01*
X141737280Y-94775500D01*
X141737287Y-94775500D01*
X141962713Y-94775500D01*
X141962720Y-94775500D01*
X142075236Y-94760687D01*
X142075236Y-94760686D01*
X142083295Y-94759626D01*
X142083698Y-94762689D01*
X142116302Y-94762689D01*
X142116705Y-94759626D01*
X142124763Y-94760686D01*
X142124764Y-94760687D01*
X142237280Y-94775500D01*
X142237287Y-94775500D01*
X142462713Y-94775500D01*
X142462720Y-94775500D01*
X142575236Y-94760687D01*
X142575236Y-94760686D01*
X142583295Y-94759626D01*
X142583698Y-94762689D01*
X142616302Y-94762689D01*
X142616705Y-94759626D01*
X142624763Y-94760686D01*
X142624764Y-94760687D01*
X142737280Y-94775500D01*
X142737287Y-94775500D01*
X142962713Y-94775500D01*
X142962720Y-94775500D01*
X143075236Y-94760687D01*
X143075236Y-94760686D01*
X143083295Y-94759626D01*
X143083698Y-94762689D01*
X143116302Y-94762689D01*
X143116705Y-94759626D01*
X143124763Y-94760686D01*
X143124764Y-94760687D01*
X143237280Y-94775500D01*
X143237287Y-94775500D01*
X143462713Y-94775500D01*
X143462720Y-94775500D01*
X143575236Y-94760687D01*
X143575236Y-94760686D01*
X143583295Y-94759626D01*
X143583698Y-94762689D01*
X143616302Y-94762689D01*
X143616705Y-94759626D01*
X143624763Y-94760686D01*
X143624764Y-94760687D01*
X143737280Y-94775500D01*
X143737287Y-94775500D01*
X143962713Y-94775500D01*
X143962720Y-94775500D01*
X144075236Y-94760687D01*
X144075236Y-94760686D01*
X144083295Y-94759626D01*
X144083698Y-94762689D01*
X144116302Y-94762689D01*
X144116705Y-94759626D01*
X144124763Y-94760686D01*
X144124764Y-94760687D01*
X144237280Y-94775500D01*
X144237287Y-94775500D01*
X144400500Y-94775500D01*
X144467539Y-94795185D01*
X144513294Y-94847989D01*
X144524500Y-94899500D01*
X144524500Y-95062727D01*
X144540374Y-95183292D01*
X144537399Y-95183683D01*
X144537399Y-95216316D01*
X144540374Y-95216708D01*
X144539313Y-95224762D01*
X144539313Y-95224764D01*
X144536005Y-95249892D01*
X144524500Y-95337272D01*
X144524500Y-95562727D01*
X144540374Y-95683292D01*
X144537399Y-95683683D01*
X144537399Y-95716316D01*
X144540374Y-95716708D01*
X144524500Y-95837272D01*
X144524500Y-96062727D01*
X144540374Y-96183292D01*
X144537399Y-96183683D01*
X144537399Y-96216316D01*
X144540374Y-96216708D01*
X144524500Y-96337272D01*
X144524500Y-96562727D01*
X144540374Y-96683292D01*
X144537399Y-96683683D01*
X144537399Y-96716316D01*
X144540374Y-96716708D01*
X144524500Y-96837272D01*
X144524500Y-97062727D01*
X144533688Y-97132512D01*
X144537040Y-97157974D01*
X144540374Y-97183292D01*
X144537399Y-97183683D01*
X144537399Y-97216316D01*
X144540374Y-97216708D01*
X144524500Y-97337272D01*
X144524500Y-97562727D01*
X144540374Y-97683292D01*
X144537399Y-97683683D01*
X144537399Y-97716316D01*
X144540374Y-97716708D01*
X144524500Y-97837272D01*
X144524500Y-98062727D01*
X144540374Y-98183292D01*
X144537399Y-98183683D01*
X144537399Y-98216316D01*
X144540374Y-98216708D01*
X144524500Y-98337272D01*
X144524500Y-98562720D01*
X144540374Y-98683292D01*
X144537399Y-98683683D01*
X144537399Y-98716316D01*
X144540374Y-98716708D01*
X144524500Y-98837272D01*
X144524500Y-99062727D01*
X144540374Y-99183292D01*
X144537399Y-99183683D01*
X144537399Y-99216316D01*
X144540374Y-99216708D01*
X144524500Y-99337272D01*
X144524500Y-99562727D01*
X144535499Y-99646271D01*
X144538954Y-99672512D01*
X144540374Y-99683292D01*
X144537399Y-99683683D01*
X144537399Y-99716316D01*
X144540374Y-99716708D01*
X144539313Y-99724762D01*
X144539313Y-99724764D01*
X144538302Y-99732443D01*
X144524500Y-99837272D01*
X144524500Y-100062727D01*
X144534017Y-100135009D01*
X144538289Y-100167460D01*
X144540374Y-100183292D01*
X144537399Y-100183683D01*
X144537399Y-100216316D01*
X144540374Y-100216708D01*
X144539313Y-100224762D01*
X144539313Y-100224764D01*
X144536183Y-100248536D01*
X144524500Y-100337272D01*
X144524500Y-100500500D01*
X144504815Y-100567539D01*
X144452011Y-100613294D01*
X144400500Y-100624500D01*
X144237272Y-100624500D01*
X144150393Y-100635938D01*
X144124764Y-100639313D01*
X144124762Y-100639313D01*
X144116708Y-100640374D01*
X144116316Y-100637399D01*
X144083684Y-100637399D01*
X144083292Y-100640374D01*
X144075237Y-100639313D01*
X144075236Y-100639313D01*
X144046271Y-100635499D01*
X143962727Y-100624500D01*
X143962720Y-100624500D01*
X143737280Y-100624500D01*
X143737272Y-100624500D01*
X143650393Y-100635938D01*
X143624764Y-100639313D01*
X143624762Y-100639313D01*
X143616708Y-100640374D01*
X143616316Y-100637399D01*
X143583684Y-100637399D01*
X143583292Y-100640374D01*
X143575237Y-100639313D01*
X143575236Y-100639313D01*
X143546271Y-100635499D01*
X143462727Y-100624500D01*
X143462720Y-100624500D01*
X143237280Y-100624500D01*
X143237272Y-100624500D01*
X143150393Y-100635938D01*
X143124764Y-100639313D01*
X143124762Y-100639313D01*
X143116708Y-100640374D01*
X143116316Y-100637399D01*
X143083684Y-100637399D01*
X143083292Y-100640374D01*
X143075237Y-100639313D01*
X143075236Y-100639313D01*
X143046271Y-100635499D01*
X142962727Y-100624500D01*
X142962720Y-100624500D01*
X142737280Y-100624500D01*
X142737272Y-100624500D01*
X142650393Y-100635938D01*
X142624764Y-100639313D01*
X142624762Y-100639313D01*
X142616708Y-100640374D01*
X142616316Y-100637399D01*
X142583684Y-100637399D01*
X142583292Y-100640374D01*
X142575237Y-100639313D01*
X142575236Y-100639313D01*
X142546271Y-100635499D01*
X142462727Y-100624500D01*
X142462720Y-100624500D01*
X142237280Y-100624500D01*
X142237272Y-100624500D01*
X142150393Y-100635938D01*
X142124764Y-100639313D01*
X142124762Y-100639313D01*
X142116708Y-100640374D01*
X142116316Y-100637399D01*
X142083684Y-100637399D01*
X142083292Y-100640374D01*
X142075237Y-100639313D01*
X142075236Y-100639313D01*
X142046271Y-100635499D01*
X141962727Y-100624500D01*
X141962720Y-100624500D01*
X141737280Y-100624500D01*
X141737272Y-100624500D01*
X141650393Y-100635938D01*
X141624764Y-100639313D01*
X141624762Y-100639313D01*
X141616708Y-100640374D01*
X141616316Y-100637399D01*
X141583684Y-100637399D01*
X141583292Y-100640374D01*
X141575237Y-100639313D01*
X141575236Y-100639313D01*
X141546271Y-100635499D01*
X141462727Y-100624500D01*
X141462720Y-100624500D01*
X141237280Y-100624500D01*
X141237272Y-100624500D01*
X141150393Y-100635938D01*
X141124764Y-100639313D01*
X141124762Y-100639313D01*
X141116708Y-100640374D01*
X141116316Y-100637399D01*
X141083684Y-100637399D01*
X141083292Y-100640374D01*
X141075237Y-100639313D01*
X141075236Y-100639313D01*
X141046271Y-100635499D01*
X140962727Y-100624500D01*
X140962720Y-100624500D01*
X140737280Y-100624500D01*
X140737272Y-100624500D01*
X140650393Y-100635938D01*
X140624764Y-100639313D01*
X140624762Y-100639313D01*
X140616708Y-100640374D01*
X140616316Y-100637399D01*
X140583684Y-100637399D01*
X140583292Y-100640374D01*
X140575237Y-100639313D01*
X140575236Y-100639313D01*
X140546271Y-100635499D01*
X140462727Y-100624500D01*
X140462720Y-100624500D01*
X140237280Y-100624500D01*
X140237272Y-100624500D01*
X140150393Y-100635938D01*
X140124764Y-100639313D01*
X140124762Y-100639313D01*
X140116708Y-100640374D01*
X140116621Y-100639718D01*
X140105964Y-100639209D01*
X140085046Y-100640669D01*
X140075797Y-100639545D01*
X140075236Y-100639313D01*
X139962720Y-100624500D01*
X139951947Y-100624500D01*
X139944497Y-100623595D01*
X139919018Y-100612627D01*
X139892412Y-100604815D01*
X139887381Y-100599009D01*
X139880321Y-100595970D01*
X139864815Y-100572967D01*
X139846657Y-100552011D01*
X139845563Y-100544405D01*
X139841268Y-100538033D01*
X139840660Y-100510305D01*
X139836713Y-100482853D01*
X139839905Y-100475862D01*
X139839737Y-100468180D01*
X139854215Y-100444527D01*
X139865738Y-100419297D01*
X139871770Y-100412819D01*
X140053794Y-100230795D01*
X140248730Y-100035859D01*
X140248734Y-100035857D01*
X140335859Y-99948732D01*
X140404312Y-99846285D01*
X140451464Y-99732451D01*
X140475501Y-99611605D01*
X140475501Y-94882559D01*
X140483328Y-94855900D01*
X140487908Y-94828495D01*
X140493035Y-94822842D01*
X140495186Y-94815520D01*
X140516182Y-94797326D01*
X140534852Y-94776746D01*
X140544927Y-94772418D01*
X140547990Y-94769765D01*
X140567282Y-94762818D01*
X140567780Y-94762684D01*
X140616303Y-94762675D01*
X140616705Y-94759626D01*
X140624763Y-94760686D01*
X140624764Y-94760687D01*
X140737280Y-94775500D01*
X140737287Y-94775500D01*
X140962713Y-94775500D01*
X140962720Y-94775500D01*
X141075236Y-94760687D01*
X141215233Y-94702698D01*
X141274515Y-94657208D01*
X141339684Y-94632016D01*
X141408129Y-94646055D01*
G37*
%TD.AperFunction*%
%TA.AperFunction,Conductor*%
G36*
X139083696Y-94762675D02*
G01*
X139132039Y-94762636D01*
X139132540Y-94762770D01*
X139192217Y-94799108D01*
X139222775Y-94861941D01*
X139224501Y-94882559D01*
X139224501Y-99239547D01*
X139204816Y-99306586D01*
X139188182Y-99327228D01*
X138887181Y-99628229D01*
X138825858Y-99661714D01*
X138756166Y-99656730D01*
X138700233Y-99614858D01*
X138675816Y-99549394D01*
X138675500Y-99540548D01*
X138675500Y-99337286D01*
X138675500Y-99337280D01*
X138660687Y-99224764D01*
X138660686Y-99224763D01*
X138659626Y-99216705D01*
X138662689Y-99216301D01*
X138662689Y-99183698D01*
X138659626Y-99183295D01*
X138664274Y-99147990D01*
X138675500Y-99062720D01*
X138675500Y-98837280D01*
X138660687Y-98724764D01*
X138660686Y-98724763D01*
X138659626Y-98716705D01*
X138662689Y-98716301D01*
X138662689Y-98683698D01*
X138659626Y-98683295D01*
X138675500Y-98562720D01*
X138675500Y-98337286D01*
X138675500Y-98337280D01*
X138660687Y-98224764D01*
X138660686Y-98224763D01*
X138659626Y-98216705D01*
X138662689Y-98216301D01*
X138662689Y-98183698D01*
X138659626Y-98183295D01*
X138660687Y-98175236D01*
X138675500Y-98062720D01*
X138675500Y-97837280D01*
X138660687Y-97724764D01*
X138660686Y-97724763D01*
X138659626Y-97716705D01*
X138662689Y-97716301D01*
X138662689Y-97683698D01*
X138659626Y-97683295D01*
X138666355Y-97632184D01*
X138675500Y-97562720D01*
X138675500Y-97337280D01*
X138660687Y-97224764D01*
X138660686Y-97224763D01*
X138659626Y-97216705D01*
X138662689Y-97216301D01*
X138662689Y-97183698D01*
X138659626Y-97183295D01*
X138660831Y-97174142D01*
X138675500Y-97062720D01*
X138675500Y-96837280D01*
X138660687Y-96724764D01*
X138660686Y-96724763D01*
X138659626Y-96716705D01*
X138662689Y-96716301D01*
X138662689Y-96683698D01*
X138659626Y-96683295D01*
X138668904Y-96612819D01*
X138675500Y-96562720D01*
X138675500Y-96337280D01*
X138660687Y-96224764D01*
X138660686Y-96224763D01*
X138659626Y-96216705D01*
X138662689Y-96216301D01*
X138662689Y-96183698D01*
X138659626Y-96183295D01*
X138660831Y-96174141D01*
X138675500Y-96062720D01*
X138675500Y-95837280D01*
X138660687Y-95724764D01*
X138660686Y-95724763D01*
X138659626Y-95716705D01*
X138662689Y-95716301D01*
X138662689Y-95683698D01*
X138659626Y-95683295D01*
X138668904Y-95612819D01*
X138675500Y-95562720D01*
X138675500Y-95337280D01*
X138660687Y-95224764D01*
X138660686Y-95224763D01*
X138659626Y-95216705D01*
X138662689Y-95216301D01*
X138662689Y-95183698D01*
X138659626Y-95183295D01*
X138670467Y-95100946D01*
X138675500Y-95062720D01*
X138675500Y-94899500D01*
X138695185Y-94832461D01*
X138747989Y-94786706D01*
X138799500Y-94775500D01*
X138962713Y-94775500D01*
X138962720Y-94775500D01*
X139075236Y-94760687D01*
X139075236Y-94760686D01*
X139083295Y-94759626D01*
X139083696Y-94762675D01*
G37*
%TD.AperFunction*%
%TA.AperFunction,Conductor*%
G36*
X190509621Y-97691452D02*
G01*
X190537343Y-97696250D01*
X190542697Y-97701164D01*
X190549670Y-97703212D01*
X190568089Y-97724469D01*
X190588818Y-97743494D01*
X190590665Y-97750523D01*
X190595425Y-97756016D01*
X190599428Y-97783862D01*
X190606580Y-97811068D01*
X190604810Y-97821291D01*
X190605369Y-97825174D01*
X190600563Y-97845838D01*
X190545034Y-98016738D01*
X190542753Y-98023760D01*
X190536581Y-98062729D01*
X190509500Y-98233713D01*
X190509500Y-98446287D01*
X190513130Y-98469204D01*
X190542754Y-98656244D01*
X190542754Y-98656247D01*
X190552806Y-98687182D01*
X190554801Y-98757023D01*
X190518721Y-98816856D01*
X190456020Y-98847684D01*
X190434875Y-98849500D01*
X151200098Y-98849500D01*
X151133059Y-98829815D01*
X151112417Y-98813181D01*
X150194444Y-97895208D01*
X150160959Y-97833885D01*
X150165943Y-97764193D01*
X150207815Y-97708260D01*
X150273279Y-97683843D01*
X150282125Y-97683527D01*
X190482631Y-97683527D01*
X190509621Y-97691452D01*
G37*
%TD.AperFunction*%
%TA.AperFunction,Conductor*%
G36*
X114221586Y-92270184D02*
G01*
X114242228Y-92286818D01*
X119068228Y-97112819D01*
X119101713Y-97174142D01*
X119096729Y-97243834D01*
X119054857Y-97299767D01*
X118989393Y-97324184D01*
X118980547Y-97324500D01*
X118560452Y-97324500D01*
X118493413Y-97304815D01*
X118472771Y-97288181D01*
X113646770Y-92462180D01*
X113613285Y-92400857D01*
X113618269Y-92331165D01*
X113660141Y-92275232D01*
X113725605Y-92250815D01*
X113734451Y-92250499D01*
X114154547Y-92250499D01*
X114221586Y-92270184D01*
G37*
%TD.AperFunction*%
%TA.AperFunction,Conductor*%
G36*
X116761586Y-92270184D02*
G01*
X116782228Y-92286818D01*
X121108229Y-96612819D01*
X121141714Y-96674142D01*
X121136730Y-96743834D01*
X121094858Y-96799767D01*
X121029394Y-96824184D01*
X121020548Y-96824500D01*
X120600453Y-96824500D01*
X120533414Y-96804815D01*
X120512772Y-96788181D01*
X118356607Y-94632016D01*
X116186769Y-92462179D01*
X116153285Y-92400857D01*
X116158269Y-92331165D01*
X116200141Y-92275232D01*
X116265605Y-92250815D01*
X116274451Y-92250499D01*
X116694547Y-92250499D01*
X116761586Y-92270184D01*
G37*
%TD.AperFunction*%
%TA.AperFunction,Conductor*%
G36*
X119301586Y-92270184D02*
G01*
X119322228Y-92286818D01*
X123148228Y-96112818D01*
X123181713Y-96174141D01*
X123176729Y-96243833D01*
X123134857Y-96299766D01*
X123069393Y-96324183D01*
X123060547Y-96324499D01*
X122640451Y-96324499D01*
X122573412Y-96304814D01*
X122552770Y-96288180D01*
X118726770Y-92462180D01*
X118693285Y-92400857D01*
X118698269Y-92331165D01*
X118740141Y-92275232D01*
X118805605Y-92250815D01*
X118814451Y-92250499D01*
X119234547Y-92250499D01*
X119301586Y-92270184D01*
G37*
%TD.AperFunction*%
%TA.AperFunction,Conductor*%
G36*
X121841586Y-92270184D02*
G01*
X121862228Y-92286818D01*
X125188229Y-95612819D01*
X125221714Y-95674142D01*
X125216730Y-95743834D01*
X125174858Y-95799767D01*
X125109394Y-95824184D01*
X125100548Y-95824500D01*
X124680452Y-95824500D01*
X124613413Y-95804815D01*
X124592771Y-95788181D01*
X121266770Y-92462180D01*
X121233285Y-92400857D01*
X121238269Y-92331165D01*
X121280141Y-92275232D01*
X121345605Y-92250815D01*
X121354451Y-92250499D01*
X121774547Y-92250499D01*
X121841586Y-92270184D01*
G37*
%TD.AperFunction*%
%TA.AperFunction,Conductor*%
G36*
X127729426Y-92136800D02*
G01*
X127744311Y-92146366D01*
X127807669Y-92193796D01*
X127807671Y-92193797D01*
X127852618Y-92210561D01*
X127942517Y-92244091D01*
X128002127Y-92250500D01*
X128190500Y-92250499D01*
X128257539Y-92270183D01*
X128303294Y-92322987D01*
X128314500Y-92374499D01*
X128314500Y-93551611D01*
X128338535Y-93672444D01*
X128338540Y-93672461D01*
X128385685Y-93786280D01*
X128385687Y-93786283D01*
X128385688Y-93786286D01*
X128419915Y-93837509D01*
X128454142Y-93888733D01*
X128541267Y-93975858D01*
X128541270Y-93975860D01*
X128548554Y-93983144D01*
X129178228Y-94612818D01*
X129211713Y-94674141D01*
X129206729Y-94743833D01*
X129164857Y-94799766D01*
X129099393Y-94824183D01*
X129090547Y-94824499D01*
X126220451Y-94824499D01*
X126153412Y-94804814D01*
X126132770Y-94788180D01*
X123806770Y-92462180D01*
X123773285Y-92400857D01*
X123778269Y-92331165D01*
X123820141Y-92275232D01*
X123885605Y-92250815D01*
X123894451Y-92250499D01*
X124797871Y-92250499D01*
X124797872Y-92250499D01*
X124857483Y-92244091D01*
X124992331Y-92193796D01*
X125055689Y-92146365D01*
X125121153Y-92121949D01*
X125189426Y-92136800D01*
X125204311Y-92146366D01*
X125267669Y-92193796D01*
X125267671Y-92193797D01*
X125402517Y-92244091D01*
X125402516Y-92244091D01*
X125409444Y-92244835D01*
X125462127Y-92250500D01*
X127337872Y-92250499D01*
X127397483Y-92244091D01*
X127532331Y-92193796D01*
X127595689Y-92146365D01*
X127661153Y-92121949D01*
X127729426Y-92136800D01*
G37*
%TD.AperFunction*%
%TA.AperFunction,Conductor*%
G36*
X192975270Y-91481717D02*
G01*
X192975270Y-91481716D01*
X193014622Y-91427555D01*
X193019232Y-91418507D01*
X193067205Y-91367709D01*
X193135025Y-91350912D01*
X193201161Y-91373447D01*
X193240204Y-91418504D01*
X193244949Y-91427817D01*
X193369890Y-91599786D01*
X193520213Y-91750109D01*
X193692182Y-91875050D01*
X193700946Y-91879516D01*
X193751742Y-91927491D01*
X193768536Y-91995312D01*
X193745998Y-92061447D01*
X193700946Y-92100484D01*
X193692182Y-92104949D01*
X193520213Y-92229890D01*
X193369890Y-92380213D01*
X193244949Y-92552182D01*
X193240484Y-92560946D01*
X193192509Y-92611742D01*
X193124688Y-92628536D01*
X193058553Y-92605998D01*
X193019516Y-92560946D01*
X193015050Y-92552182D01*
X192890109Y-92380213D01*
X192739786Y-92229890D01*
X192567817Y-92104949D01*
X192558504Y-92100204D01*
X192507707Y-92052230D01*
X192490912Y-91984409D01*
X192513449Y-91918274D01*
X192558507Y-91879232D01*
X192567555Y-91874622D01*
X192621716Y-91835270D01*
X192621717Y-91835270D01*
X191989408Y-91202962D01*
X192052993Y-91185925D01*
X192167007Y-91120099D01*
X192260099Y-91027007D01*
X192325925Y-90912993D01*
X192342962Y-90849408D01*
X192975270Y-91481717D01*
G37*
%TD.AperFunction*%
%TA.AperFunction,Conductor*%
G36*
X198842539Y-81820185D02*
G01*
X198888294Y-81872989D01*
X198899500Y-81924500D01*
X198899500Y-115175500D01*
X198879815Y-115242539D01*
X198827011Y-115288294D01*
X198775500Y-115299500D01*
X109687706Y-115299500D01*
X109620667Y-115279815D01*
X109574912Y-115227011D01*
X109563707Y-115175971D01*
X109552891Y-112327697D01*
X109552501Y-112224986D01*
X112587501Y-112224986D01*
X112597994Y-112327697D01*
X112653141Y-112494119D01*
X112653143Y-112494124D01*
X112745184Y-112643345D01*
X112869154Y-112767315D01*
X113018375Y-112859356D01*
X113018380Y-112859358D01*
X113184802Y-112914505D01*
X113184809Y-112914506D01*
X113287519Y-112924999D01*
X113424999Y-112924999D01*
X113425000Y-112924998D01*
X113425000Y-111950000D01*
X112587501Y-111950000D01*
X112587501Y-112224986D01*
X109552501Y-112224986D01*
X109548514Y-111175013D01*
X112587500Y-111175013D01*
X112587500Y-111450000D01*
X113425000Y-111450000D01*
X113425000Y-110475000D01*
X113287527Y-110475000D01*
X113287512Y-110475001D01*
X113184802Y-110485494D01*
X113018380Y-110540641D01*
X113018375Y-110540643D01*
X112869154Y-110632684D01*
X112745184Y-110756654D01*
X112653143Y-110905875D01*
X112653141Y-110905880D01*
X112597994Y-111072302D01*
X112597993Y-111072309D01*
X112587500Y-111175013D01*
X109548514Y-111175013D01*
X109541648Y-109367159D01*
X109561078Y-109300046D01*
X109613708Y-109254091D01*
X109682828Y-109243885D01*
X109746493Y-109272668D01*
X109781829Y-109323356D01*
X109826202Y-109442328D01*
X109826206Y-109442335D01*
X109912452Y-109557544D01*
X109912455Y-109557547D01*
X110027664Y-109643793D01*
X110027671Y-109643797D01*
X110162517Y-109694091D01*
X110162516Y-109694091D01*
X110169444Y-109694835D01*
X110222127Y-109700500D01*
X112097872Y-109700499D01*
X112157483Y-109694091D01*
X112292331Y-109643796D01*
X112356105Y-109596054D01*
X112421568Y-109571637D01*
X112489842Y-109586488D01*
X112504726Y-109596054D01*
X112567907Y-109643350D01*
X112567913Y-109643354D01*
X112702620Y-109693596D01*
X112702627Y-109693598D01*
X112762155Y-109699999D01*
X112762172Y-109700000D01*
X113450000Y-109700000D01*
X113450000Y-106200000D01*
X112762155Y-106200000D01*
X112702627Y-106206401D01*
X112702620Y-106206403D01*
X112567913Y-106256645D01*
X112567907Y-106256649D01*
X112504726Y-106303946D01*
X112439262Y-106328363D01*
X112370989Y-106313511D01*
X112356106Y-106303946D01*
X112292331Y-106256204D01*
X112292328Y-106256202D01*
X112157482Y-106205908D01*
X112157483Y-106205908D01*
X112097883Y-106199501D01*
X112097881Y-106199500D01*
X112097873Y-106199500D01*
X112097864Y-106199500D01*
X110222129Y-106199500D01*
X110222123Y-106199501D01*
X110162516Y-106205908D01*
X110027671Y-106256202D01*
X110027664Y-106256206D01*
X109912455Y-106342452D01*
X109912452Y-106342455D01*
X109826206Y-106457664D01*
X109826202Y-106457671D01*
X109775907Y-106592521D01*
X109775682Y-106593474D01*
X109775304Y-106594136D01*
X109773198Y-106599785D01*
X109772282Y-106599443D01*
X109741105Y-106654188D01*
X109679193Y-106686570D01*
X109609602Y-106680340D01*
X109554426Y-106637474D01*
X109531184Y-106571584D01*
X109531008Y-106565423D01*
X109530275Y-106372448D01*
X109485575Y-94601447D01*
X109465072Y-89202135D01*
X109769500Y-89202135D01*
X109769500Y-91797870D01*
X109769501Y-91797876D01*
X109775908Y-91857483D01*
X109826202Y-91992328D01*
X109826206Y-91992335D01*
X109912452Y-92107544D01*
X109912455Y-92107547D01*
X110027664Y-92193793D01*
X110027671Y-92193797D01*
X110162517Y-92244091D01*
X110162516Y-92244091D01*
X110169444Y-92244835D01*
X110222127Y-92250500D01*
X111614547Y-92250499D01*
X111681586Y-92270184D01*
X111702228Y-92286818D01*
X117764139Y-98348729D01*
X117764142Y-98348733D01*
X117851267Y-98435858D01*
X117894206Y-98464549D01*
X117953714Y-98504312D01*
X117953719Y-98504314D01*
X118027538Y-98534890D01*
X118027540Y-98534890D01*
X118034207Y-98537652D01*
X118067548Y-98551463D01*
X118124143Y-98562720D01*
X118188391Y-98575499D01*
X118188392Y-98575500D01*
X118188393Y-98575500D01*
X118188394Y-98575500D01*
X128290547Y-98575500D01*
X128357586Y-98595185D01*
X128403341Y-98647989D01*
X128413285Y-98717147D01*
X128384260Y-98780703D01*
X128378228Y-98787181D01*
X123374143Y-103791265D01*
X123374142Y-103791267D01*
X123364509Y-103805685D01*
X123364506Y-103805689D01*
X123305690Y-103893710D01*
X123305685Y-103893719D01*
X123258540Y-104007538D01*
X123258538Y-104007545D01*
X123258537Y-104007548D01*
X123258537Y-104007549D01*
X123240311Y-104099184D01*
X123235278Y-104124487D01*
X123235274Y-104124503D01*
X123234500Y-104128388D01*
X123234500Y-106075500D01*
X123214815Y-106142539D01*
X123162011Y-106188294D01*
X123110501Y-106199500D01*
X122922130Y-106199500D01*
X122922123Y-106199501D01*
X122862516Y-106205908D01*
X122727671Y-106256202D01*
X122727669Y-106256203D01*
X122664311Y-106303634D01*
X122598847Y-106328051D01*
X122530574Y-106313200D01*
X122515689Y-106303634D01*
X122452330Y-106256203D01*
X122452328Y-106256202D01*
X122317482Y-106205908D01*
X122317483Y-106205908D01*
X122257883Y-106199501D01*
X122257881Y-106199500D01*
X122257873Y-106199500D01*
X122257864Y-106199500D01*
X120382129Y-106199500D01*
X120382123Y-106199501D01*
X120322516Y-106205908D01*
X120187671Y-106256202D01*
X120187669Y-106256203D01*
X120124311Y-106303634D01*
X120058847Y-106328051D01*
X119990574Y-106313200D01*
X119975689Y-106303634D01*
X119912330Y-106256203D01*
X119912328Y-106256202D01*
X119777482Y-106205908D01*
X119777483Y-106205908D01*
X119717883Y-106199501D01*
X119717881Y-106199500D01*
X119717873Y-106199500D01*
X119717864Y-106199500D01*
X117842129Y-106199500D01*
X117842123Y-106199501D01*
X117782516Y-106205908D01*
X117647671Y-106256202D01*
X117647669Y-106256203D01*
X117584311Y-106303634D01*
X117518847Y-106328051D01*
X117450574Y-106313200D01*
X117435689Y-106303634D01*
X117372330Y-106256203D01*
X117372328Y-106256202D01*
X117237482Y-106205908D01*
X117237483Y-106205908D01*
X117177883Y-106199501D01*
X117177881Y-106199500D01*
X117177873Y-106199500D01*
X117177864Y-106199500D01*
X115302129Y-106199500D01*
X115302123Y-106199501D01*
X115242516Y-106205908D01*
X115107671Y-106256202D01*
X115107665Y-106256205D01*
X115043891Y-106303946D01*
X114978427Y-106328362D01*
X114910154Y-106313510D01*
X114895271Y-106303945D01*
X114832088Y-106256647D01*
X114832086Y-106256645D01*
X114697379Y-106206403D01*
X114697372Y-106206401D01*
X114637844Y-106200000D01*
X113950000Y-106200000D01*
X113950000Y-109700000D01*
X114637828Y-109700000D01*
X114637844Y-109699999D01*
X114697372Y-109693598D01*
X114697379Y-109693596D01*
X114832086Y-109643354D01*
X114832089Y-109643352D01*
X114895271Y-109596054D01*
X114960735Y-109571636D01*
X115029008Y-109586487D01*
X115043887Y-109596049D01*
X115107076Y-109643352D01*
X115107668Y-109643795D01*
X115107671Y-109643797D01*
X115152618Y-109660561D01*
X115242517Y-109694091D01*
X115302127Y-109700500D01*
X115365500Y-109700499D01*
X115432538Y-109720183D01*
X115478294Y-109772986D01*
X115489500Y-109824499D01*
X115489500Y-110350500D01*
X115469815Y-110417539D01*
X115417011Y-110463294D01*
X115365520Y-110474500D01*
X115362508Y-110474500D01*
X115362480Y-110474501D01*
X115259703Y-110485000D01*
X115259700Y-110485001D01*
X115093168Y-110540185D01*
X115093163Y-110540187D01*
X114943842Y-110632289D01*
X114819788Y-110756343D01*
X114819783Y-110756349D01*
X114817741Y-110759661D01*
X114815747Y-110761453D01*
X114815307Y-110762011D01*
X114815211Y-110761935D01*
X114765791Y-110806383D01*
X114696828Y-110817602D01*
X114632747Y-110789755D01*
X114606668Y-110759656D01*
X114604819Y-110756659D01*
X114604816Y-110756655D01*
X114480845Y-110632684D01*
X114331624Y-110540643D01*
X114331619Y-110540641D01*
X114165197Y-110485494D01*
X114165190Y-110485493D01*
X114062486Y-110475000D01*
X113925000Y-110475000D01*
X113925000Y-112924999D01*
X114062472Y-112924999D01*
X114062486Y-112924998D01*
X114165197Y-112914505D01*
X114331619Y-112859358D01*
X114331624Y-112859356D01*
X114480845Y-112767315D01*
X114604818Y-112643342D01*
X114606665Y-112640348D01*
X114608469Y-112638724D01*
X114609298Y-112637677D01*
X114609476Y-112637818D01*
X114658610Y-112593621D01*
X114727573Y-112582396D01*
X114791656Y-112610236D01*
X114817743Y-112640341D01*
X114819788Y-112643656D01*
X114943844Y-112767712D01*
X115093166Y-112859814D01*
X115259703Y-112914999D01*
X115362491Y-112925500D01*
X116137508Y-112925499D01*
X116137516Y-112925498D01*
X116137519Y-112925498D01*
X116193802Y-112919748D01*
X116240297Y-112914999D01*
X116406834Y-112859814D01*
X116556156Y-112767712D01*
X116680212Y-112643656D01*
X116763019Y-112509402D01*
X116814967Y-112462679D01*
X116868558Y-112450500D01*
X117745065Y-112450500D01*
X117812104Y-112470185D01*
X117813909Y-112471366D01*
X117870821Y-112509394D01*
X117870823Y-112509395D01*
X117870827Y-112509397D01*
X118016498Y-112569735D01*
X118016503Y-112569737D01*
X118171153Y-112600499D01*
X118171156Y-112600500D01*
X118171158Y-112600500D01*
X118328844Y-112600500D01*
X118328845Y-112600499D01*
X118483497Y-112569737D01*
X118596166Y-112523067D01*
X118629172Y-112509397D01*
X118629172Y-112509396D01*
X118629179Y-112509394D01*
X118760289Y-112421789D01*
X118871789Y-112310289D01*
X118959394Y-112179179D01*
X119019737Y-112033497D01*
X119050500Y-111878842D01*
X119050500Y-111721158D01*
X119050500Y-111721155D01*
X119050499Y-111721153D01*
X119036881Y-111652690D01*
X119019737Y-111566503D01*
X119017533Y-111561181D01*
X119012896Y-111549986D01*
X137900001Y-111549986D01*
X137910494Y-111652697D01*
X137965641Y-111819119D01*
X137965643Y-111819124D01*
X138057684Y-111968345D01*
X138181654Y-112092315D01*
X138330875Y-112184356D01*
X138330880Y-112184358D01*
X138497302Y-112239505D01*
X138497309Y-112239506D01*
X138600019Y-112249999D01*
X139199999Y-112249999D01*
X139700000Y-112249999D01*
X140299972Y-112249999D01*
X140299986Y-112249998D01*
X140402697Y-112239505D01*
X140569119Y-112184358D01*
X140569124Y-112184356D01*
X140718345Y-112092315D01*
X140842315Y-111968345D01*
X140934356Y-111819124D01*
X140934358Y-111819119D01*
X140989505Y-111652697D01*
X140989506Y-111652690D01*
X140999999Y-111549986D01*
X147000001Y-111549986D01*
X147010494Y-111652697D01*
X147065641Y-111819119D01*
X147065643Y-111819124D01*
X147157684Y-111968345D01*
X147281654Y-112092315D01*
X147430875Y-112184356D01*
X147430880Y-112184358D01*
X147597302Y-112239505D01*
X147597309Y-112239506D01*
X147700019Y-112249999D01*
X148299999Y-112249999D01*
X148800000Y-112249999D01*
X149399972Y-112249999D01*
X149399986Y-112249998D01*
X149502697Y-112239505D01*
X149669119Y-112184358D01*
X149669124Y-112184356D01*
X149818345Y-112092315D01*
X149942315Y-111968345D01*
X150034356Y-111819124D01*
X150034358Y-111819119D01*
X150089505Y-111652697D01*
X150089506Y-111652690D01*
X150099999Y-111549986D01*
X150100000Y-111549973D01*
X150100000Y-111300000D01*
X148800000Y-111300000D01*
X148800000Y-112249999D01*
X148299999Y-112249999D01*
X148300000Y-112249998D01*
X148300000Y-111300000D01*
X147000001Y-111300000D01*
X147000001Y-111549986D01*
X140999999Y-111549986D01*
X141000000Y-111549973D01*
X141000000Y-111300000D01*
X139700000Y-111300000D01*
X139700000Y-112249999D01*
X139199999Y-112249999D01*
X139200000Y-112249998D01*
X139200000Y-111300000D01*
X137900001Y-111300000D01*
X137900001Y-111549986D01*
X119012896Y-111549986D01*
X118959397Y-111420827D01*
X118959390Y-111420814D01*
X118890377Y-111317529D01*
X118871789Y-111289711D01*
X118871786Y-111289707D01*
X118760292Y-111178213D01*
X118760288Y-111178210D01*
X118629185Y-111090609D01*
X118629175Y-111090604D01*
X118534333Y-111051319D01*
X118512896Y-111039861D01*
X118505498Y-111034917D01*
X118505494Y-111034915D01*
X118368913Y-110978342D01*
X118368907Y-110978340D01*
X118223920Y-110949500D01*
X118223918Y-110949500D01*
X117114500Y-110949500D01*
X117047461Y-110929815D01*
X117001706Y-110877011D01*
X116990500Y-110825500D01*
X116990500Y-110550013D01*
X137900000Y-110550013D01*
X137900000Y-110800000D01*
X139200000Y-110800000D01*
X139700000Y-110800000D01*
X140999999Y-110800000D01*
X140999999Y-110550029D01*
X140999998Y-110550013D01*
X147000000Y-110550013D01*
X147000000Y-110800000D01*
X148300000Y-110800000D01*
X148800000Y-110800000D01*
X150099999Y-110800000D01*
X150099999Y-110550028D01*
X150099998Y-110550013D01*
X150089505Y-110447302D01*
X150034358Y-110280880D01*
X150034356Y-110280875D01*
X149942315Y-110131654D01*
X149818345Y-110007684D01*
X149669124Y-109915643D01*
X149669119Y-109915641D01*
X149502697Y-109860494D01*
X149502690Y-109860493D01*
X149399986Y-109850000D01*
X148800000Y-109850000D01*
X148800000Y-110800000D01*
X148300000Y-110800000D01*
X148300000Y-109850000D01*
X147700028Y-109850000D01*
X147700012Y-109850001D01*
X147597302Y-109860494D01*
X147430880Y-109915641D01*
X147430875Y-109915643D01*
X147281654Y-110007684D01*
X147157684Y-110131654D01*
X147065643Y-110280875D01*
X147065641Y-110280880D01*
X147010494Y-110447302D01*
X147010493Y-110447309D01*
X147000000Y-110550013D01*
X140999998Y-110550013D01*
X140999998Y-110550012D01*
X140989505Y-110447302D01*
X140934358Y-110280880D01*
X140934356Y-110280875D01*
X140842315Y-110131654D01*
X140718345Y-110007684D01*
X140569124Y-109915643D01*
X140569119Y-109915641D01*
X140402697Y-109860494D01*
X140402690Y-109860493D01*
X140299986Y-109850000D01*
X139700000Y-109850000D01*
X139700000Y-110800000D01*
X139200000Y-110800000D01*
X139200000Y-109850000D01*
X138600028Y-109850000D01*
X138600012Y-109850001D01*
X138497302Y-109860494D01*
X138330880Y-109915641D01*
X138330875Y-109915643D01*
X138181654Y-110007684D01*
X138057684Y-110131654D01*
X137965643Y-110280875D01*
X137965641Y-110280880D01*
X137910494Y-110447302D01*
X137910493Y-110447309D01*
X137900000Y-110550013D01*
X116990500Y-110550013D01*
X116990500Y-109824499D01*
X117010185Y-109757460D01*
X117062989Y-109711705D01*
X117114500Y-109700499D01*
X117177871Y-109700499D01*
X117177872Y-109700499D01*
X117237483Y-109694091D01*
X117372331Y-109643796D01*
X117435689Y-109596365D01*
X117501153Y-109571949D01*
X117569426Y-109586800D01*
X117584311Y-109596366D01*
X117647669Y-109643796D01*
X117647671Y-109643797D01*
X117782517Y-109694091D01*
X117782516Y-109694091D01*
X117789444Y-109694835D01*
X117842127Y-109700500D01*
X119717872Y-109700499D01*
X119777483Y-109694091D01*
X119912331Y-109643796D01*
X119975689Y-109596365D01*
X120041153Y-109571949D01*
X120109426Y-109586800D01*
X120124311Y-109596366D01*
X120187669Y-109643796D01*
X120187671Y-109643797D01*
X120322517Y-109694091D01*
X120322516Y-109694091D01*
X120329444Y-109694835D01*
X120382127Y-109700500D01*
X122257872Y-109700499D01*
X122317483Y-109694091D01*
X122452331Y-109643796D01*
X122515689Y-109596365D01*
X122581153Y-109571949D01*
X122649426Y-109586800D01*
X122664311Y-109596366D01*
X122727669Y-109643796D01*
X122727671Y-109643797D01*
X122862517Y-109694091D01*
X122862516Y-109694091D01*
X122869444Y-109694835D01*
X122922127Y-109700500D01*
X124797872Y-109700499D01*
X124857483Y-109694091D01*
X124992331Y-109643796D01*
X125055689Y-109596365D01*
X125121153Y-109571949D01*
X125189426Y-109586800D01*
X125204311Y-109596366D01*
X125267669Y-109643796D01*
X125267671Y-109643797D01*
X125402517Y-109694091D01*
X125402516Y-109694091D01*
X125409444Y-109694835D01*
X125462127Y-109700500D01*
X127337872Y-109700499D01*
X127397483Y-109694091D01*
X127532331Y-109643796D01*
X127595689Y-109596365D01*
X127661153Y-109571949D01*
X127729426Y-109586800D01*
X127744311Y-109596366D01*
X127807669Y-109643796D01*
X127807671Y-109643797D01*
X127942517Y-109694091D01*
X127942516Y-109694091D01*
X127949444Y-109694835D01*
X128002127Y-109700500D01*
X129877872Y-109700499D01*
X129937483Y-109694091D01*
X130072331Y-109643796D01*
X130187546Y-109557546D01*
X130273796Y-109442331D01*
X130284927Y-109412486D01*
X135175001Y-109412486D01*
X135185494Y-109515197D01*
X135240641Y-109681619D01*
X135240643Y-109681624D01*
X135332684Y-109830845D01*
X135456654Y-109954815D01*
X135605875Y-110046856D01*
X135605880Y-110046858D01*
X135772302Y-110102005D01*
X135772309Y-110102006D01*
X135875019Y-110112499D01*
X136149999Y-110112499D01*
X136650000Y-110112499D01*
X136924972Y-110112499D01*
X136924986Y-110112498D01*
X137027697Y-110102005D01*
X137194119Y-110046858D01*
X137194124Y-110046856D01*
X137343345Y-109954815D01*
X137467315Y-109830845D01*
X137559356Y-109681624D01*
X137559358Y-109681619D01*
X137614505Y-109515197D01*
X137614506Y-109515190D01*
X137624999Y-109412486D01*
X137625000Y-109412473D01*
X137625000Y-109275000D01*
X136650000Y-109275000D01*
X136650000Y-110112499D01*
X136149999Y-110112499D01*
X136150000Y-110112498D01*
X136150000Y-109275000D01*
X135175001Y-109275000D01*
X135175001Y-109412486D01*
X130284927Y-109412486D01*
X130324091Y-109307483D01*
X130330500Y-109247873D01*
X130330499Y-106652128D01*
X130324194Y-106593474D01*
X130324091Y-106592516D01*
X130273797Y-106457671D01*
X130273793Y-106457664D01*
X130187547Y-106342455D01*
X130187544Y-106342452D01*
X130072335Y-106256206D01*
X130072328Y-106256202D01*
X129937482Y-106205908D01*
X129937483Y-106205908D01*
X129877883Y-106199501D01*
X129877881Y-106199500D01*
X129877873Y-106199500D01*
X129877865Y-106199500D01*
X129689500Y-106199500D01*
X129622461Y-106179815D01*
X129576706Y-106127011D01*
X129565500Y-106075500D01*
X129565500Y-104670452D01*
X129585185Y-104603413D01*
X129601819Y-104582771D01*
X134072772Y-100111818D01*
X134134095Y-100078333D01*
X134160453Y-100075499D01*
X136092440Y-100075499D01*
X136119182Y-100083351D01*
X136146672Y-100087987D01*
X136152248Y-100093060D01*
X136159479Y-100095184D01*
X136177730Y-100116246D01*
X136198350Y-100135009D01*
X136202601Y-100144950D01*
X136205234Y-100147988D01*
X136212229Y-100167460D01*
X136212363Y-100167961D01*
X136212390Y-100216315D01*
X136215374Y-100216708D01*
X136214313Y-100224762D01*
X136214313Y-100224764D01*
X136211183Y-100248536D01*
X136199500Y-100337272D01*
X136199500Y-100562727D01*
X136209637Y-100639718D01*
X136214313Y-100675236D01*
X136272302Y-100815233D01*
X136364549Y-100935451D01*
X136484767Y-101027698D01*
X136624764Y-101085687D01*
X136737280Y-101100500D01*
X137115546Y-101100500D01*
X137131029Y-101105046D01*
X137147159Y-101104598D01*
X137163862Y-101114687D01*
X137182585Y-101120185D01*
X137193151Y-101132378D01*
X137206965Y-101140723D01*
X137215563Y-101158243D01*
X137228340Y-101172989D01*
X137230636Y-101188959D01*
X137237746Y-101203447D01*
X137235506Y-101222832D01*
X137238284Y-101242147D01*
X137231493Y-101257580D01*
X137229729Y-101272855D01*
X137215449Y-101294043D01*
X137211480Y-101303066D01*
X137207576Y-101307832D01*
X137164142Y-101351267D01*
X137132641Y-101398412D01*
X137129297Y-101403416D01*
X137129290Y-101403425D01*
X137095690Y-101453708D01*
X137095686Y-101453716D01*
X137077807Y-101496883D01*
X137077807Y-101496884D01*
X137048538Y-101567545D01*
X137048535Y-101567555D01*
X137024500Y-101688389D01*
X137024500Y-101688394D01*
X137024500Y-104688393D01*
X137024500Y-104811607D01*
X137024500Y-104811609D01*
X137024499Y-104811609D01*
X137031312Y-104845854D01*
X137031312Y-104845856D01*
X137048397Y-104931752D01*
X137048404Y-104931785D01*
X137048537Y-104932450D01*
X137095687Y-105046285D01*
X137107782Y-105064385D01*
X137118355Y-105080208D01*
X137164142Y-105148733D01*
X137251267Y-105235858D01*
X137251269Y-105235859D01*
X137261736Y-105246326D01*
X137873212Y-105857803D01*
X137906697Y-105919126D01*
X137908889Y-105958087D01*
X137899500Y-106049983D01*
X137899500Y-106200500D01*
X137896949Y-106209185D01*
X137898238Y-106218147D01*
X137887259Y-106242187D01*
X137879815Y-106267539D01*
X137872974Y-106273466D01*
X137869213Y-106281703D01*
X137846978Y-106295992D01*
X137827011Y-106313294D01*
X137816496Y-106315581D01*
X137810435Y-106319477D01*
X137775500Y-106324500D01*
X137648348Y-106324500D01*
X137581309Y-106304815D01*
X137542809Y-106265597D01*
X137537289Y-106256647D01*
X137467712Y-106143844D01*
X137343656Y-106019788D01*
X137194334Y-105927686D01*
X137027797Y-105872501D01*
X137027795Y-105872500D01*
X136925010Y-105862000D01*
X135874998Y-105862000D01*
X135874980Y-105862001D01*
X135772203Y-105872500D01*
X135772200Y-105872501D01*
X135605668Y-105927685D01*
X135605663Y-105927687D01*
X135456342Y-106019789D01*
X135332289Y-106143842D01*
X135240187Y-106293163D01*
X135240185Y-106293168D01*
X135223853Y-106342455D01*
X135185001Y-106459703D01*
X135185001Y-106459704D01*
X135185000Y-106459704D01*
X135174500Y-106562483D01*
X135174500Y-107337501D01*
X135174501Y-107337519D01*
X135185000Y-107440296D01*
X135185001Y-107440299D01*
X135240185Y-107606831D01*
X135240187Y-107606836D01*
X135275069Y-107663388D01*
X135332288Y-107756156D01*
X135456344Y-107880212D01*
X135459628Y-107882237D01*
X135459653Y-107882253D01*
X135461445Y-107884246D01*
X135462011Y-107884693D01*
X135461934Y-107884789D01*
X135506379Y-107934199D01*
X135517603Y-108003161D01*
X135489761Y-108067244D01*
X135459665Y-108093326D01*
X135456660Y-108095179D01*
X135456655Y-108095183D01*
X135332684Y-108219154D01*
X135240643Y-108368375D01*
X135240641Y-108368380D01*
X135185494Y-108534802D01*
X135185493Y-108534809D01*
X135175000Y-108637513D01*
X135175000Y-108775000D01*
X137624999Y-108775000D01*
X137624999Y-108637528D01*
X137624998Y-108637513D01*
X137614505Y-108534802D01*
X137559358Y-108368380D01*
X137559356Y-108368375D01*
X137467315Y-108219154D01*
X137343344Y-108095183D01*
X137343341Y-108095181D01*
X137340339Y-108093329D01*
X137338713Y-108091521D01*
X137337677Y-108090702D01*
X137337817Y-108090524D01*
X137293617Y-108041380D01*
X137282397Y-107972417D01*
X137310243Y-107908336D01*
X137340344Y-107882254D01*
X137343656Y-107880212D01*
X137467712Y-107756156D01*
X137542809Y-107634402D01*
X137594757Y-107587679D01*
X137648348Y-107575500D01*
X138118273Y-107575500D01*
X138183368Y-107593960D01*
X138330666Y-107684814D01*
X138497203Y-107739999D01*
X138599991Y-107750500D01*
X140300008Y-107750499D01*
X140402797Y-107739999D01*
X140569334Y-107684814D01*
X140718656Y-107592712D01*
X140842712Y-107468656D01*
X140934814Y-107319334D01*
X140954311Y-107260493D01*
X140994084Y-107203051D01*
X141058600Y-107176228D01*
X141072017Y-107175500D01*
X146927983Y-107175500D01*
X146995022Y-107195185D01*
X147040777Y-107247989D01*
X147045686Y-107260489D01*
X147062259Y-107310500D01*
X147065186Y-107319333D01*
X147065187Y-107319336D01*
X147100069Y-107375888D01*
X147157288Y-107468656D01*
X147281344Y-107592712D01*
X147430666Y-107684814D01*
X147597203Y-107739999D01*
X147699991Y-107750500D01*
X149400008Y-107750499D01*
X149502797Y-107739999D01*
X149669334Y-107684814D01*
X149818656Y-107592712D01*
X149942712Y-107468656D01*
X150034814Y-107319334D01*
X150054311Y-107260493D01*
X150068181Y-107240461D01*
X150078304Y-107218297D01*
X150087715Y-107212248D01*
X150094084Y-107203051D01*
X150116582Y-107193697D01*
X150137082Y-107180523D01*
X150154183Y-107178064D01*
X150158600Y-107176228D01*
X150172017Y-107175500D01*
X150419548Y-107175500D01*
X150486587Y-107195185D01*
X150507229Y-107211819D01*
X153539424Y-110244014D01*
X153572909Y-110305337D01*
X153574216Y-110351093D01*
X153544500Y-110538713D01*
X153544500Y-110751287D01*
X153546199Y-110762011D01*
X153568984Y-110905875D01*
X153577754Y-110961243D01*
X153613839Y-111072302D01*
X153643444Y-111163414D01*
X153739951Y-111352820D01*
X153864890Y-111524786D01*
X154015213Y-111675109D01*
X154187179Y-111800048D01*
X154187181Y-111800049D01*
X154187184Y-111800051D01*
X154376588Y-111896557D01*
X154578757Y-111962246D01*
X154788713Y-111995500D01*
X154788714Y-111995500D01*
X155001286Y-111995500D01*
X155001287Y-111995500D01*
X155211243Y-111962246D01*
X155413412Y-111896557D01*
X155602816Y-111800051D01*
X155689478Y-111737088D01*
X155774786Y-111675109D01*
X155774788Y-111675106D01*
X155774792Y-111675104D01*
X155925104Y-111524792D01*
X155925106Y-111524788D01*
X155925109Y-111524786D01*
X156050048Y-111352820D01*
X156050047Y-111352820D01*
X156050051Y-111352816D01*
X156054514Y-111344054D01*
X156102488Y-111293259D01*
X156170308Y-111276463D01*
X156236444Y-111298999D01*
X156275486Y-111344056D01*
X156279951Y-111352820D01*
X156404890Y-111524786D01*
X156555213Y-111675109D01*
X156727179Y-111800048D01*
X156727181Y-111800049D01*
X156727184Y-111800051D01*
X156916588Y-111896557D01*
X157118757Y-111962246D01*
X157328713Y-111995500D01*
X157328714Y-111995500D01*
X157541286Y-111995500D01*
X157541287Y-111995500D01*
X157751243Y-111962246D01*
X157953412Y-111896557D01*
X158142816Y-111800051D01*
X158229478Y-111737088D01*
X158314786Y-111675109D01*
X158314788Y-111675106D01*
X158314792Y-111675104D01*
X158465104Y-111524792D01*
X158465106Y-111524788D01*
X158465109Y-111524786D01*
X158590048Y-111352820D01*
X158590047Y-111352820D01*
X158590051Y-111352816D01*
X158594514Y-111344054D01*
X158642488Y-111293259D01*
X158710308Y-111276463D01*
X158776444Y-111298999D01*
X158815486Y-111344056D01*
X158819951Y-111352820D01*
X158944890Y-111524786D01*
X159095213Y-111675109D01*
X159267179Y-111800048D01*
X159267181Y-111800049D01*
X159267184Y-111800051D01*
X159456588Y-111896557D01*
X159658757Y-111962246D01*
X159868713Y-111995500D01*
X159868714Y-111995500D01*
X160081286Y-111995500D01*
X160081287Y-111995500D01*
X160291243Y-111962246D01*
X160493412Y-111896557D01*
X160682816Y-111800051D01*
X160769478Y-111737088D01*
X160854786Y-111675109D01*
X160854788Y-111675106D01*
X160854792Y-111675104D01*
X161005104Y-111524792D01*
X161005106Y-111524788D01*
X161005109Y-111524786D01*
X161130048Y-111352820D01*
X161130047Y-111352820D01*
X161130051Y-111352816D01*
X161134514Y-111344054D01*
X161182488Y-111293259D01*
X161250308Y-111276463D01*
X161316444Y-111298999D01*
X161355486Y-111344056D01*
X161359951Y-111352820D01*
X161484890Y-111524786D01*
X161635213Y-111675109D01*
X161807179Y-111800048D01*
X161807181Y-111800049D01*
X161807184Y-111800051D01*
X161996588Y-111896557D01*
X162198757Y-111962246D01*
X162408713Y-111995500D01*
X162408714Y-111995500D01*
X162621286Y-111995500D01*
X162621287Y-111995500D01*
X162831243Y-111962246D01*
X163033412Y-111896557D01*
X163222816Y-111800051D01*
X163309478Y-111737088D01*
X163394784Y-111675110D01*
X163394784Y-111675109D01*
X163394792Y-111675104D01*
X163508717Y-111561178D01*
X163570036Y-111527696D01*
X163639728Y-111532680D01*
X163695662Y-111574551D01*
X163712577Y-111605528D01*
X163761646Y-111737088D01*
X163761649Y-111737093D01*
X163847809Y-111852187D01*
X163847812Y-111852190D01*
X163962906Y-111938350D01*
X163962913Y-111938354D01*
X164097620Y-111988596D01*
X164097627Y-111988598D01*
X164157155Y-111994999D01*
X164157172Y-111995000D01*
X164805000Y-111995000D01*
X164805000Y-111078012D01*
X164862007Y-111110925D01*
X164989174Y-111145000D01*
X165120826Y-111145000D01*
X165247993Y-111110925D01*
X165305000Y-111078012D01*
X165305000Y-111995000D01*
X165952828Y-111995000D01*
X165952844Y-111994999D01*
X166012372Y-111988598D01*
X166012379Y-111988596D01*
X166147086Y-111938354D01*
X166147093Y-111938350D01*
X166262187Y-111852190D01*
X166262190Y-111852187D01*
X166348350Y-111737093D01*
X166348354Y-111737086D01*
X166398596Y-111602379D01*
X166398598Y-111602372D01*
X166404999Y-111542844D01*
X166405000Y-111542827D01*
X166405000Y-110895000D01*
X165488012Y-110895000D01*
X165520925Y-110837993D01*
X165555000Y-110710826D01*
X165555000Y-110579174D01*
X165520925Y-110452007D01*
X165488012Y-110395000D01*
X166405000Y-110395000D01*
X166405000Y-109747172D01*
X166404999Y-109747155D01*
X166398598Y-109687627D01*
X166398596Y-109687620D01*
X166348354Y-109552913D01*
X166348350Y-109552906D01*
X166262190Y-109437812D01*
X166262187Y-109437809D01*
X166147093Y-109351649D01*
X166147086Y-109351645D01*
X166012379Y-109301403D01*
X166012372Y-109301401D01*
X165952844Y-109295000D01*
X165305000Y-109295000D01*
X165305000Y-110211988D01*
X165247993Y-110179075D01*
X165120826Y-110145000D01*
X164989174Y-110145000D01*
X164862007Y-110179075D01*
X164805000Y-110211988D01*
X164805000Y-109295000D01*
X164157155Y-109295000D01*
X164097627Y-109301401D01*
X164097620Y-109301403D01*
X163962913Y-109351645D01*
X163962906Y-109351649D01*
X163847812Y-109437809D01*
X163847809Y-109437812D01*
X163761649Y-109552906D01*
X163761646Y-109552912D01*
X163712577Y-109684471D01*
X163670705Y-109740404D01*
X163605241Y-109764821D01*
X163536968Y-109749969D01*
X163508714Y-109728818D01*
X163394786Y-109614890D01*
X163222820Y-109489951D01*
X163033414Y-109393444D01*
X163033413Y-109393443D01*
X163033412Y-109393443D01*
X162831243Y-109327754D01*
X162831241Y-109327753D01*
X162831240Y-109327753D01*
X162669957Y-109302208D01*
X162621287Y-109294500D01*
X162408713Y-109294500D01*
X162360042Y-109302208D01*
X162198760Y-109327753D01*
X161996585Y-109393444D01*
X161807179Y-109489951D01*
X161635213Y-109614890D01*
X161484890Y-109765213D01*
X161359949Y-109937182D01*
X161355484Y-109945946D01*
X161307509Y-109996742D01*
X161239688Y-110013536D01*
X161173553Y-109990998D01*
X161134516Y-109945946D01*
X161130050Y-109937182D01*
X161005109Y-109765213D01*
X160854786Y-109614890D01*
X160682820Y-109489951D01*
X160493414Y-109393444D01*
X160493413Y-109393443D01*
X160493412Y-109393443D01*
X160291243Y-109327754D01*
X160291241Y-109327753D01*
X160291240Y-109327753D01*
X160129957Y-109302208D01*
X160081287Y-109294500D01*
X159868713Y-109294500D01*
X159833697Y-109300046D01*
X159658753Y-109327754D01*
X159563641Y-109358657D01*
X159493799Y-109360652D01*
X159437643Y-109328407D01*
X156481684Y-106372448D01*
X153397589Y-103288354D01*
X153397588Y-103288352D01*
X153278717Y-103169481D01*
X153278709Y-103169475D01*
X153190685Y-103118655D01*
X153190684Y-103118655D01*
X153164880Y-103103757D01*
X153141785Y-103090423D01*
X152989057Y-103049499D01*
X152830943Y-103049499D01*
X152823347Y-103049499D01*
X152823331Y-103049500D01*
X150979443Y-103049500D01*
X150912404Y-103029815D01*
X150866649Y-102977011D01*
X150856705Y-102907853D01*
X150861737Y-102886496D01*
X150889505Y-102802697D01*
X150889506Y-102802690D01*
X150899999Y-102699986D01*
X150900000Y-102699973D01*
X150900000Y-102450000D01*
X149924000Y-102450000D01*
X149856961Y-102430315D01*
X149811206Y-102377511D01*
X149800000Y-102326000D01*
X149800000Y-102200000D01*
X149674000Y-102200000D01*
X149606961Y-102180315D01*
X149561206Y-102127511D01*
X149550000Y-102076000D01*
X149550000Y-101950000D01*
X150050000Y-101950000D01*
X150899999Y-101950000D01*
X150899999Y-101700028D01*
X150899998Y-101700013D01*
X150889505Y-101597302D01*
X150834358Y-101430880D01*
X150834356Y-101430875D01*
X150742315Y-101281654D01*
X150618345Y-101157684D01*
X150469124Y-101065643D01*
X150469119Y-101065641D01*
X150302697Y-101010494D01*
X150302690Y-101010493D01*
X150199986Y-101000000D01*
X150050000Y-101000000D01*
X150050000Y-101950000D01*
X149550000Y-101950000D01*
X149550000Y-101000000D01*
X149400027Y-101000000D01*
X149400012Y-101000001D01*
X149297302Y-101010494D01*
X149130880Y-101065641D01*
X149130875Y-101065643D01*
X148981657Y-101157682D01*
X148888034Y-101251305D01*
X148826710Y-101284789D01*
X148757019Y-101279805D01*
X148712672Y-101251304D01*
X148618657Y-101157289D01*
X148618656Y-101157288D01*
X148469334Y-101065186D01*
X148302797Y-101010001D01*
X148302795Y-101010000D01*
X148200010Y-100999500D01*
X147399998Y-100999500D01*
X147399980Y-100999501D01*
X147297203Y-101010000D01*
X147297200Y-101010001D01*
X147130668Y-101065185D01*
X147130663Y-101065187D01*
X146981342Y-101157289D01*
X146909851Y-101228781D01*
X146848528Y-101262266D01*
X146822170Y-101265100D01*
X146765485Y-101265100D01*
X146698446Y-101245415D01*
X146652691Y-101192611D01*
X146642747Y-101123453D01*
X146671772Y-101059897D01*
X146708953Y-101033084D01*
X146708191Y-101031764D01*
X146715229Y-101027700D01*
X146715229Y-101027699D01*
X146715233Y-101027698D01*
X146835451Y-100935451D01*
X146927698Y-100815233D01*
X146985687Y-100675236D01*
X147000500Y-100562720D01*
X147000500Y-100337280D01*
X146985687Y-100224764D01*
X146985686Y-100224763D01*
X146984626Y-100216705D01*
X146987689Y-100216301D01*
X146987689Y-100183698D01*
X146984626Y-100183295D01*
X146994036Y-100111818D01*
X147000500Y-100062720D01*
X147000500Y-99837280D01*
X146985687Y-99724764D01*
X146985686Y-99724763D01*
X146984626Y-99716705D01*
X146987689Y-99716301D01*
X146987689Y-99683698D01*
X146984626Y-99683295D01*
X146991847Y-99628443D01*
X147000500Y-99562720D01*
X147000500Y-99337280D01*
X146985687Y-99224764D01*
X146985686Y-99224763D01*
X146984626Y-99216705D01*
X146987689Y-99216301D01*
X146987689Y-99183698D01*
X146984626Y-99183295D01*
X146989274Y-99147990D01*
X147000500Y-99062720D01*
X147000500Y-98837280D01*
X146985687Y-98724764D01*
X146985686Y-98724763D01*
X146984626Y-98716705D01*
X146987689Y-98716301D01*
X146987689Y-98683698D01*
X146984626Y-98683295D01*
X147000500Y-98562720D01*
X147000500Y-98337286D01*
X147000500Y-98337280D01*
X146985687Y-98224764D01*
X146985686Y-98224763D01*
X146984626Y-98216705D01*
X146987689Y-98216301D01*
X146987689Y-98183698D01*
X146984626Y-98183295D01*
X146985687Y-98175236D01*
X147000500Y-98062720D01*
X147000500Y-97837280D01*
X146985687Y-97724764D01*
X146985686Y-97724763D01*
X146984626Y-97716705D01*
X146987689Y-97716301D01*
X146987689Y-97683698D01*
X146984626Y-97683295D01*
X146991355Y-97632184D01*
X147000500Y-97562720D01*
X147000500Y-97337280D01*
X146985687Y-97224764D01*
X146985685Y-97224760D01*
X146984914Y-97218899D01*
X146984853Y-97218767D01*
X146984866Y-97218529D01*
X146984626Y-97216705D01*
X146984970Y-97216659D01*
X146985760Y-97202452D01*
X146984531Y-97183474D01*
X146985615Y-97175408D01*
X146985687Y-97175236D01*
X146987960Y-97157974D01*
X147002076Y-97126301D01*
X147016182Y-97094417D01*
X147016331Y-97094318D01*
X147016404Y-97094156D01*
X147045478Y-97075093D01*
X147074507Y-97055947D01*
X147074733Y-97055913D01*
X147074834Y-97055847D01*
X147075196Y-97055843D01*
X147110854Y-97050500D01*
X147599903Y-97050500D01*
X147666942Y-97070185D01*
X147687583Y-97086818D01*
X150531284Y-99930520D01*
X150531286Y-99930521D01*
X150531290Y-99930524D01*
X150562828Y-99948732D01*
X150668216Y-100009577D01*
X150820943Y-100050501D01*
X150820945Y-100050501D01*
X150986654Y-100050501D01*
X150986670Y-100050500D01*
X190564600Y-100050500D01*
X190631639Y-100070185D01*
X190677394Y-100122989D01*
X190687338Y-100192147D01*
X190675085Y-100230795D01*
X190608444Y-100361585D01*
X190542753Y-100563760D01*
X190509500Y-100773713D01*
X190509500Y-100986286D01*
X190542178Y-101192611D01*
X190542754Y-101196243D01*
X190574531Y-101294043D01*
X190608444Y-101398414D01*
X190704951Y-101587820D01*
X190829890Y-101759786D01*
X190980213Y-101910109D01*
X191152179Y-102035048D01*
X191152181Y-102035049D01*
X191152184Y-102035051D01*
X191161493Y-102039794D01*
X191212290Y-102087766D01*
X191229087Y-102155587D01*
X191206552Y-102221722D01*
X191161505Y-102260760D01*
X191152446Y-102265376D01*
X191152440Y-102265380D01*
X191098282Y-102304727D01*
X191098282Y-102304728D01*
X191730591Y-102937037D01*
X191667007Y-102954075D01*
X191552993Y-103019901D01*
X191459901Y-103112993D01*
X191394075Y-103227007D01*
X191377037Y-103290591D01*
X190744728Y-102658282D01*
X190744727Y-102658282D01*
X190705380Y-102712439D01*
X190608904Y-102901782D01*
X190543242Y-103103869D01*
X190543242Y-103103872D01*
X190510000Y-103313753D01*
X190510000Y-103526246D01*
X190543242Y-103736127D01*
X190543242Y-103736130D01*
X190608904Y-103938217D01*
X190705375Y-104127550D01*
X190744728Y-104181716D01*
X191377037Y-103549408D01*
X191394075Y-103612993D01*
X191459901Y-103727007D01*
X191552993Y-103820099D01*
X191667007Y-103885925D01*
X191730590Y-103902962D01*
X191060370Y-104573181D01*
X190999047Y-104606666D01*
X190972698Y-104609500D01*
X190962134Y-104609500D01*
X190962123Y-104609501D01*
X190902516Y-104615908D01*
X190767671Y-104666202D01*
X190767664Y-104666206D01*
X190652455Y-104752452D01*
X190652452Y-104752455D01*
X190566206Y-104867664D01*
X190566202Y-104867671D01*
X190515908Y-105002517D01*
X190509501Y-105062116D01*
X190509500Y-105062135D01*
X190509500Y-106857870D01*
X190509501Y-106857876D01*
X190515908Y-106917483D01*
X190566202Y-107052328D01*
X190566206Y-107052335D01*
X190652452Y-107167544D01*
X190652455Y-107167547D01*
X190767664Y-107253793D01*
X190767671Y-107253797D01*
X190902517Y-107304091D01*
X190902516Y-107304091D01*
X190909444Y-107304835D01*
X190962127Y-107310500D01*
X192757872Y-107310499D01*
X192817483Y-107304091D01*
X192952331Y-107253796D01*
X193067546Y-107167546D01*
X193153796Y-107052331D01*
X193202810Y-106920916D01*
X193244681Y-106864984D01*
X193310145Y-106840566D01*
X193378418Y-106855417D01*
X193406673Y-106876569D01*
X193520213Y-106990109D01*
X193692179Y-107115048D01*
X193692181Y-107115049D01*
X193692184Y-107115051D01*
X193881588Y-107211557D01*
X194083757Y-107277246D01*
X194293713Y-107310500D01*
X194293714Y-107310500D01*
X194506286Y-107310500D01*
X194506287Y-107310500D01*
X194716243Y-107277246D01*
X194918412Y-107211557D01*
X195107816Y-107115051D01*
X195194138Y-107052335D01*
X195279786Y-106990109D01*
X195279788Y-106990106D01*
X195279792Y-106990104D01*
X195430104Y-106839792D01*
X195430106Y-106839788D01*
X195430109Y-106839786D01*
X195555048Y-106667820D01*
X195555047Y-106667820D01*
X195555051Y-106667816D01*
X195651557Y-106478412D01*
X195717246Y-106276243D01*
X195750500Y-106066287D01*
X195750500Y-105853713D01*
X195717246Y-105643757D01*
X195651557Y-105441588D01*
X195555051Y-105252184D01*
X195555049Y-105252181D01*
X195555048Y-105252179D01*
X195430106Y-105080210D01*
X195279786Y-104929890D01*
X195107820Y-104804951D01*
X195107115Y-104804591D01*
X195099054Y-104800485D01*
X195048259Y-104752512D01*
X195031463Y-104684692D01*
X195053999Y-104618556D01*
X195099054Y-104579515D01*
X195107816Y-104575051D01*
X195173639Y-104527228D01*
X195279786Y-104450109D01*
X195279788Y-104450106D01*
X195279792Y-104450104D01*
X195430104Y-104299792D01*
X195430106Y-104299788D01*
X195430109Y-104299786D01*
X195555048Y-104127820D01*
X195555050Y-104127817D01*
X195555051Y-104127816D01*
X195651557Y-103938412D01*
X195717246Y-103736243D01*
X195750500Y-103526287D01*
X195750500Y-103313713D01*
X195717246Y-103103757D01*
X195651557Y-102901588D01*
X195555051Y-102712184D01*
X195555049Y-102712181D01*
X195555048Y-102712179D01*
X195430109Y-102540213D01*
X195279786Y-102389890D01*
X195107820Y-102264951D01*
X195099600Y-102260763D01*
X195099054Y-102260485D01*
X195048259Y-102212512D01*
X195031463Y-102144692D01*
X195053999Y-102078556D01*
X195099054Y-102039515D01*
X195107816Y-102035051D01*
X195129789Y-102019086D01*
X195279786Y-101910109D01*
X195279788Y-101910106D01*
X195279792Y-101910104D01*
X195430104Y-101759792D01*
X195430106Y-101759788D01*
X195430109Y-101759786D01*
X195555048Y-101587820D01*
X195555047Y-101587820D01*
X195555051Y-101587816D01*
X195651557Y-101398412D01*
X195717246Y-101196243D01*
X195750500Y-100986287D01*
X195750500Y-100773713D01*
X195717246Y-100563757D01*
X195651557Y-100361588D01*
X195555051Y-100172184D01*
X195555049Y-100172181D01*
X195555048Y-100172179D01*
X195430109Y-100000213D01*
X195279786Y-99849890D01*
X195107820Y-99724951D01*
X195107115Y-99724591D01*
X195099054Y-99720485D01*
X195048259Y-99672512D01*
X195031463Y-99604692D01*
X195053999Y-99538556D01*
X195099054Y-99499515D01*
X195107816Y-99495051D01*
X195129789Y-99479086D01*
X195279786Y-99370109D01*
X195279788Y-99370106D01*
X195279792Y-99370104D01*
X195430104Y-99219792D01*
X195430106Y-99219788D01*
X195430109Y-99219786D01*
X195555048Y-99047820D01*
X195555047Y-99047820D01*
X195555051Y-99047816D01*
X195651557Y-98858412D01*
X195717246Y-98656243D01*
X195750500Y-98446287D01*
X195750500Y-98233713D01*
X195717246Y-98023757D01*
X195651557Y-97821588D01*
X195555051Y-97632184D01*
X195555049Y-97632181D01*
X195555048Y-97632179D01*
X195430109Y-97460213D01*
X195279786Y-97309890D01*
X195107820Y-97184951D01*
X195104564Y-97183292D01*
X195099054Y-97180485D01*
X195048259Y-97132512D01*
X195031463Y-97064692D01*
X195053999Y-96998556D01*
X195099054Y-96959515D01*
X195107816Y-96955051D01*
X195129789Y-96939086D01*
X195279786Y-96830109D01*
X195279788Y-96830106D01*
X195279792Y-96830104D01*
X195430104Y-96679792D01*
X195430106Y-96679788D01*
X195430109Y-96679786D01*
X195555048Y-96507820D01*
X195555047Y-96507820D01*
X195555051Y-96507816D01*
X195651557Y-96318412D01*
X195717246Y-96116243D01*
X195750500Y-95906287D01*
X195750500Y-95693713D01*
X195717246Y-95483757D01*
X195651557Y-95281588D01*
X195555051Y-95092184D01*
X195555049Y-95092181D01*
X195555048Y-95092179D01*
X195430109Y-94920213D01*
X195279786Y-94769890D01*
X195107820Y-94644951D01*
X195107115Y-94644591D01*
X195099054Y-94640485D01*
X195048259Y-94592512D01*
X195031463Y-94524692D01*
X195053999Y-94458556D01*
X195099054Y-94419515D01*
X195107816Y-94415051D01*
X195129789Y-94399086D01*
X195279786Y-94290109D01*
X195279788Y-94290106D01*
X195279792Y-94290104D01*
X195430104Y-94139792D01*
X195430106Y-94139788D01*
X195430109Y-94139786D01*
X195555048Y-93967820D01*
X195555047Y-93967820D01*
X195555051Y-93967816D01*
X195651557Y-93778412D01*
X195717246Y-93576243D01*
X195750500Y-93366287D01*
X195750500Y-93153713D01*
X195717246Y-92943757D01*
X195651557Y-92741588D01*
X195555051Y-92552184D01*
X195555049Y-92552181D01*
X195555048Y-92552179D01*
X195430109Y-92380213D01*
X195279786Y-92229890D01*
X195107820Y-92104951D01*
X195107115Y-92104591D01*
X195099054Y-92100485D01*
X195048259Y-92052512D01*
X195031463Y-91984692D01*
X195053999Y-91918556D01*
X195099054Y-91879515D01*
X195107816Y-91875051D01*
X195162572Y-91835269D01*
X195279786Y-91750109D01*
X195279788Y-91750106D01*
X195279792Y-91750104D01*
X195430104Y-91599792D01*
X195430106Y-91599788D01*
X195430109Y-91599786D01*
X195555048Y-91427820D01*
X195555050Y-91427817D01*
X195555051Y-91427816D01*
X195651557Y-91238412D01*
X195717246Y-91036243D01*
X195750500Y-90826287D01*
X195750500Y-90613713D01*
X195717246Y-90403757D01*
X195651557Y-90201588D01*
X195555051Y-90012184D01*
X195555049Y-90012181D01*
X195555048Y-90012179D01*
X195430109Y-89840213D01*
X195279786Y-89689890D01*
X195107820Y-89564951D01*
X194918414Y-89468444D01*
X194918413Y-89468443D01*
X194918412Y-89468443D01*
X194716243Y-89402754D01*
X194716241Y-89402753D01*
X194716240Y-89402753D01*
X194554957Y-89377208D01*
X194506287Y-89369500D01*
X194293713Y-89369500D01*
X194245042Y-89377208D01*
X194083760Y-89402753D01*
X193881585Y-89468444D01*
X193692179Y-89564951D01*
X193520213Y-89689890D01*
X193369890Y-89840213D01*
X193244949Y-90012182D01*
X193240202Y-90021499D01*
X193192227Y-90072293D01*
X193124405Y-90089087D01*
X193058271Y-90066548D01*
X193019234Y-90021495D01*
X193014626Y-90012452D01*
X192975270Y-89958282D01*
X192975269Y-89958282D01*
X192342962Y-90590590D01*
X192325925Y-90527007D01*
X192260099Y-90412993D01*
X192167007Y-90319901D01*
X192052993Y-90254075D01*
X191989409Y-90237037D01*
X192621716Y-89604728D01*
X192567550Y-89565375D01*
X192378217Y-89468904D01*
X192176129Y-89403242D01*
X191966246Y-89370000D01*
X191753754Y-89370000D01*
X191543872Y-89403242D01*
X191543869Y-89403242D01*
X191341782Y-89468904D01*
X191152439Y-89565380D01*
X191098282Y-89604727D01*
X191098282Y-89604728D01*
X191730591Y-90237037D01*
X191667007Y-90254075D01*
X191552993Y-90319901D01*
X191459901Y-90412993D01*
X191394075Y-90527007D01*
X191377037Y-90590591D01*
X190744728Y-89958282D01*
X190744727Y-89958282D01*
X190705380Y-90012439D01*
X190608904Y-90201782D01*
X190543242Y-90403869D01*
X190543242Y-90403872D01*
X190510000Y-90613753D01*
X190510000Y-90826246D01*
X190543242Y-91036127D01*
X190543242Y-91036130D01*
X190608904Y-91238217D01*
X190705375Y-91427550D01*
X190744728Y-91481716D01*
X191377037Y-90849408D01*
X191394075Y-90912993D01*
X191459901Y-91027007D01*
X191552993Y-91120099D01*
X191667007Y-91185925D01*
X191730590Y-91202962D01*
X191098282Y-91835269D01*
X191098282Y-91835270D01*
X191152452Y-91874626D01*
X191152451Y-91874626D01*
X191161495Y-91879234D01*
X191212292Y-91927208D01*
X191229087Y-91995029D01*
X191206550Y-92061164D01*
X191161499Y-92100202D01*
X191152182Y-92104949D01*
X190980213Y-92229890D01*
X190829890Y-92380213D01*
X190704951Y-92552179D01*
X190608444Y-92741585D01*
X190542753Y-92943760D01*
X190509500Y-93153713D01*
X190509500Y-93366286D01*
X190538852Y-93551611D01*
X190542754Y-93576243D01*
X190574017Y-93672461D01*
X190608444Y-93778414D01*
X190704951Y-93967820D01*
X190829890Y-94139786D01*
X190980213Y-94290109D01*
X191152182Y-94415050D01*
X191160946Y-94419516D01*
X191211742Y-94467491D01*
X191228536Y-94535312D01*
X191205998Y-94601447D01*
X191160946Y-94640484D01*
X191152182Y-94644949D01*
X190980213Y-94769890D01*
X190829890Y-94920213D01*
X190704951Y-95092179D01*
X190608444Y-95281585D01*
X190542753Y-95483760D01*
X190509500Y-95693713D01*
X190509500Y-95906286D01*
X190542753Y-96116240D01*
X190609027Y-96320209D01*
X190611022Y-96390050D01*
X190574942Y-96449883D01*
X190512241Y-96480711D01*
X190491096Y-96482527D01*
X149583124Y-96482527D01*
X149516085Y-96462842D01*
X149495443Y-96446208D01*
X148637591Y-95588356D01*
X148637589Y-95588353D01*
X148518718Y-95469482D01*
X148518717Y-95469481D01*
X148431905Y-95419361D01*
X148431905Y-95419360D01*
X148431901Y-95419359D01*
X148381786Y-95390424D01*
X148229058Y-95349500D01*
X148070944Y-95349500D01*
X148063348Y-95349500D01*
X148063332Y-95349501D01*
X147110854Y-95349501D01*
X147110288Y-95349334D01*
X147109721Y-95349496D01*
X147076748Y-95339486D01*
X147043815Y-95329816D01*
X147043430Y-95329371D01*
X147042864Y-95329200D01*
X147020523Y-95302936D01*
X146998060Y-95277012D01*
X146997848Y-95276279D01*
X146997594Y-95275980D01*
X146990230Y-95249892D01*
X146987960Y-95242026D01*
X146987940Y-95241877D01*
X146985687Y-95224764D01*
X146985615Y-95224591D01*
X146984531Y-95216525D01*
X146987689Y-95195900D01*
X146987689Y-95183698D01*
X146984626Y-95183295D01*
X146995467Y-95100946D01*
X147000500Y-95062720D01*
X147000500Y-94837280D01*
X146985687Y-94724764D01*
X146927698Y-94584767D01*
X146835451Y-94464549D01*
X146715233Y-94372302D01*
X146715229Y-94372300D01*
X146580315Y-94316417D01*
X146575236Y-94314313D01*
X146561171Y-94312461D01*
X146462727Y-94299500D01*
X146462720Y-94299500D01*
X145124500Y-94299500D01*
X145057461Y-94279815D01*
X145011706Y-94227011D01*
X145000500Y-94175500D01*
X145000500Y-92837286D01*
X145000499Y-92837272D01*
X144999750Y-92831586D01*
X144985687Y-92724764D01*
X144927698Y-92584767D01*
X144835451Y-92464549D01*
X144715233Y-92372302D01*
X144715230Y-92372301D01*
X144715228Y-92372299D01*
X144695339Y-92364061D01*
X144640935Y-92320220D01*
X144618870Y-92253926D01*
X144636149Y-92186227D01*
X144687286Y-92138616D01*
X144742791Y-92125500D01*
X144861420Y-92125500D01*
X144964732Y-92104949D01*
X145006413Y-92096658D01*
X145142995Y-92040084D01*
X145209057Y-91995943D01*
X145265916Y-91957952D01*
X145487050Y-91736816D01*
X145548371Y-91703333D01*
X145574730Y-91700499D01*
X146075002Y-91700499D01*
X146075008Y-91700499D01*
X146177797Y-91689999D01*
X146344334Y-91634814D01*
X146493656Y-91542712D01*
X146617712Y-91418656D01*
X146617715Y-91418650D01*
X146622193Y-91412989D01*
X146624015Y-91414430D01*
X146667665Y-91375175D01*
X146721248Y-91363000D01*
X147304862Y-91363000D01*
X147352314Y-91372439D01*
X147463893Y-91418656D01*
X147466503Y-91419737D01*
X147621153Y-91450499D01*
X147621156Y-91450500D01*
X147621158Y-91450500D01*
X147778844Y-91450500D01*
X147778845Y-91450499D01*
X147933497Y-91419737D01*
X148079179Y-91359394D01*
X148210289Y-91271789D01*
X148321789Y-91160289D01*
X148409394Y-91029179D01*
X148469737Y-90883497D01*
X148500500Y-90728842D01*
X148500500Y-90571158D01*
X148500500Y-90571155D01*
X148500499Y-90571153D01*
X148491718Y-90527007D01*
X148469737Y-90416503D01*
X148464459Y-90403760D01*
X148409397Y-90270827D01*
X148409390Y-90270814D01*
X148321789Y-90139711D01*
X148321786Y-90139707D01*
X148210292Y-90028213D01*
X148210288Y-90028210D01*
X148079185Y-89940609D01*
X148079172Y-89940602D01*
X147933501Y-89880264D01*
X147933489Y-89880261D01*
X147778845Y-89849500D01*
X147778842Y-89849500D01*
X147621158Y-89849500D01*
X147621156Y-89849500D01*
X147570297Y-89859617D01*
X147546105Y-89862000D01*
X146721248Y-89862000D01*
X146654209Y-89842315D01*
X146631774Y-89823851D01*
X146622636Y-89814328D01*
X146617712Y-89806344D01*
X146493656Y-89682288D01*
X146480001Y-89673865D01*
X146471092Y-89665598D01*
X146459184Y-89645603D01*
X146443618Y-89628297D01*
X146441640Y-89616144D01*
X146435342Y-89605568D01*
X146436134Y-89582306D01*
X146432397Y-89559334D01*
X146437302Y-89548043D01*
X146437722Y-89535738D01*
X146450965Y-89516597D01*
X146460240Y-89495252D01*
X146473959Y-89483364D01*
X146477477Y-89478281D01*
X146481998Y-89476399D01*
X146490348Y-89469165D01*
X146493342Y-89467318D01*
X146617315Y-89343345D01*
X146709356Y-89194124D01*
X146709358Y-89194119D01*
X146764505Y-89027697D01*
X146764506Y-89027690D01*
X146774999Y-88924986D01*
X146775000Y-88924973D01*
X146775000Y-88787500D01*
X145674000Y-88787500D01*
X145606961Y-88767815D01*
X145561206Y-88715011D01*
X145550000Y-88663500D01*
X145550000Y-88537500D01*
X145424000Y-88537500D01*
X145356961Y-88517815D01*
X145311206Y-88465011D01*
X145300000Y-88413500D01*
X145300000Y-88287500D01*
X145800000Y-88287500D01*
X146774999Y-88287500D01*
X146774999Y-88150028D01*
X146774998Y-88150013D01*
X146764505Y-88047302D01*
X146709358Y-87880880D01*
X146709356Y-87880875D01*
X146617315Y-87731654D01*
X146493345Y-87607684D01*
X146344124Y-87515643D01*
X146344119Y-87515641D01*
X146177697Y-87460494D01*
X146177690Y-87460493D01*
X146074986Y-87450000D01*
X145800000Y-87450000D01*
X145800000Y-88287500D01*
X145300000Y-88287500D01*
X145300000Y-87450000D01*
X145025029Y-87450000D01*
X145025012Y-87450001D01*
X144922302Y-87460494D01*
X144755880Y-87515641D01*
X144755875Y-87515643D01*
X144606654Y-87607684D01*
X144482684Y-87731654D01*
X144390643Y-87880875D01*
X144390641Y-87880880D01*
X144335494Y-88047302D01*
X144335493Y-88047309D01*
X144325000Y-88150013D01*
X144325000Y-88167845D01*
X144305315Y-88234884D01*
X144252511Y-88280639D01*
X144183353Y-88290583D01*
X144148606Y-88280232D01*
X144144128Y-88278144D01*
X143977697Y-88222994D01*
X143977690Y-88222993D01*
X143874986Y-88212500D01*
X143600000Y-88212500D01*
X143600000Y-89176000D01*
X143580315Y-89243039D01*
X143527511Y-89288794D01*
X143476000Y-89300000D01*
X143350000Y-89300000D01*
X143350000Y-89426000D01*
X143330315Y-89493039D01*
X143277511Y-89538794D01*
X143226000Y-89550000D01*
X139925001Y-89550000D01*
X139925001Y-89687486D01*
X139935494Y-89790197D01*
X139990641Y-89956619D01*
X139990643Y-89956624D01*
X140082684Y-90105845D01*
X140206655Y-90229816D01*
X140206659Y-90229819D01*
X140209656Y-90231668D01*
X140211279Y-90233472D01*
X140212323Y-90234298D01*
X140212181Y-90234476D01*
X140256381Y-90283616D01*
X140267602Y-90352579D01*
X140239759Y-90416661D01*
X140209661Y-90442741D01*
X140206349Y-90444783D01*
X140206343Y-90444788D01*
X140082289Y-90568842D01*
X139990187Y-90718163D01*
X139990185Y-90718168D01*
X139986647Y-90728846D01*
X139935001Y-90884703D01*
X139935001Y-90884704D01*
X139935000Y-90884704D01*
X139924500Y-90987483D01*
X139924500Y-91762501D01*
X139924501Y-91762519D01*
X139935000Y-91865296D01*
X139935001Y-91865299D01*
X139990185Y-92031831D01*
X139990187Y-92031836D01*
X139995275Y-92040085D01*
X140038648Y-92110404D01*
X140057088Y-92177796D01*
X140036165Y-92244459D01*
X139982523Y-92289229D01*
X139933109Y-92299500D01*
X139737272Y-92299500D01*
X139650393Y-92310938D01*
X139624764Y-92314313D01*
X139624762Y-92314313D01*
X139616708Y-92315374D01*
X139616316Y-92312399D01*
X139583684Y-92312399D01*
X139583292Y-92315374D01*
X139575237Y-92314313D01*
X139575236Y-92314313D01*
X139546271Y-92310499D01*
X139462727Y-92299500D01*
X139462720Y-92299500D01*
X139237280Y-92299500D01*
X139237272Y-92299500D01*
X139150393Y-92310938D01*
X139124764Y-92314313D01*
X139124762Y-92314313D01*
X139116708Y-92315374D01*
X139116316Y-92312399D01*
X139083684Y-92312399D01*
X139083292Y-92315374D01*
X139075237Y-92314313D01*
X139075236Y-92314313D01*
X139046271Y-92310499D01*
X138962727Y-92299500D01*
X138962720Y-92299500D01*
X138737280Y-92299500D01*
X138737272Y-92299500D01*
X138624764Y-92314313D01*
X138624763Y-92314313D01*
X138484770Y-92372300D01*
X138484767Y-92372301D01*
X138484767Y-92372302D01*
X138364549Y-92464549D01*
X138297306Y-92552182D01*
X138272300Y-92584770D01*
X138214313Y-92724763D01*
X138214313Y-92724764D01*
X138199500Y-92837272D01*
X138199500Y-94175500D01*
X138179815Y-94242539D01*
X138127011Y-94288294D01*
X138075500Y-94299500D01*
X136737272Y-94299500D01*
X136624762Y-94314313D01*
X136622958Y-94315061D01*
X136619126Y-94315823D01*
X136616910Y-94316417D01*
X136616871Y-94316271D01*
X136575505Y-94324500D01*
X130710452Y-94324500D01*
X130643413Y-94304815D01*
X130622771Y-94288181D01*
X129601819Y-93267229D01*
X129568334Y-93205906D01*
X129565500Y-93179548D01*
X129565500Y-92374499D01*
X129585185Y-92307460D01*
X129637989Y-92261705D01*
X129689500Y-92250499D01*
X129877871Y-92250499D01*
X129877872Y-92250499D01*
X129937483Y-92244091D01*
X130072331Y-92193796D01*
X130187546Y-92107546D01*
X130273796Y-91992331D01*
X130324091Y-91857483D01*
X130330500Y-91797873D01*
X130330499Y-89202128D01*
X130324091Y-89142517D01*
X130289584Y-89050000D01*
X130273797Y-89007671D01*
X130273796Y-89007669D01*
X130255834Y-88983675D01*
X130255833Y-88983672D01*
X130202563Y-88912513D01*
X139925000Y-88912513D01*
X139925000Y-89050000D01*
X140900000Y-89050000D01*
X141400000Y-89050000D01*
X143100000Y-89050000D01*
X143100000Y-88212500D01*
X142825029Y-88212500D01*
X142825012Y-88212501D01*
X142722302Y-88222994D01*
X142555880Y-88278141D01*
X142555875Y-88278143D01*
X142406654Y-88370184D01*
X142337681Y-88439158D01*
X142276358Y-88472643D01*
X142206666Y-88467659D01*
X142162319Y-88439158D01*
X142093345Y-88370184D01*
X141944124Y-88278143D01*
X141944119Y-88278141D01*
X141777697Y-88222994D01*
X141777690Y-88222993D01*
X141674986Y-88212500D01*
X141400000Y-88212500D01*
X141400000Y-89050000D01*
X140900000Y-89050000D01*
X140900000Y-88212500D01*
X140625029Y-88212500D01*
X140625012Y-88212501D01*
X140522302Y-88222994D01*
X140355880Y-88278141D01*
X140355875Y-88278143D01*
X140206654Y-88370184D01*
X140082684Y-88494154D01*
X139990643Y-88643375D01*
X139990641Y-88643380D01*
X139935494Y-88809802D01*
X139935493Y-88809809D01*
X139925000Y-88912513D01*
X130202563Y-88912513D01*
X130187547Y-88892455D01*
X130187544Y-88892452D01*
X130072335Y-88806206D01*
X130072328Y-88806202D01*
X129937482Y-88755908D01*
X129937483Y-88755908D01*
X129877883Y-88749501D01*
X129877881Y-88749500D01*
X129877873Y-88749500D01*
X129877864Y-88749500D01*
X128002129Y-88749500D01*
X128002123Y-88749501D01*
X127942516Y-88755908D01*
X127807671Y-88806202D01*
X127807669Y-88806203D01*
X127744311Y-88853634D01*
X127678847Y-88878051D01*
X127610574Y-88863200D01*
X127595689Y-88853634D01*
X127532330Y-88806203D01*
X127532328Y-88806202D01*
X127397482Y-88755908D01*
X127397483Y-88755908D01*
X127337883Y-88749501D01*
X127337881Y-88749500D01*
X127337873Y-88749500D01*
X127337864Y-88749500D01*
X125462129Y-88749500D01*
X125462123Y-88749501D01*
X125402516Y-88755908D01*
X125267671Y-88806202D01*
X125267669Y-88806203D01*
X125204311Y-88853634D01*
X125138847Y-88878051D01*
X125070574Y-88863200D01*
X125055689Y-88853634D01*
X124992330Y-88806203D01*
X124992328Y-88806202D01*
X124857482Y-88755908D01*
X124857483Y-88755908D01*
X124797883Y-88749501D01*
X124797881Y-88749500D01*
X124797873Y-88749500D01*
X124797864Y-88749500D01*
X122922129Y-88749500D01*
X122922123Y-88749501D01*
X122862516Y-88755908D01*
X122727671Y-88806202D01*
X122727669Y-88806203D01*
X122664311Y-88853634D01*
X122598847Y-88878051D01*
X122530574Y-88863200D01*
X122515689Y-88853634D01*
X122452330Y-88806203D01*
X122452328Y-88806202D01*
X122317482Y-88755908D01*
X122317483Y-88755908D01*
X122257883Y-88749501D01*
X122257881Y-88749500D01*
X122257873Y-88749500D01*
X122257864Y-88749500D01*
X120382129Y-88749500D01*
X120382123Y-88749501D01*
X120322516Y-88755908D01*
X120187671Y-88806202D01*
X120187669Y-88806203D01*
X120124311Y-88853634D01*
X120058847Y-88878051D01*
X119990574Y-88863200D01*
X119975689Y-88853634D01*
X119912330Y-88806203D01*
X119912328Y-88806202D01*
X119777482Y-88755908D01*
X119777483Y-88755908D01*
X119717883Y-88749501D01*
X119717881Y-88749500D01*
X119717873Y-88749500D01*
X119717864Y-88749500D01*
X117842129Y-88749500D01*
X117842123Y-88749501D01*
X117782516Y-88755908D01*
X117647671Y-88806202D01*
X117647669Y-88806203D01*
X117584311Y-88853634D01*
X117518847Y-88878051D01*
X117450574Y-88863200D01*
X117435689Y-88853634D01*
X117372330Y-88806203D01*
X117372328Y-88806202D01*
X117237482Y-88755908D01*
X117237483Y-88755908D01*
X117177883Y-88749501D01*
X117177881Y-88749500D01*
X117177873Y-88749500D01*
X117177864Y-88749500D01*
X115302129Y-88749500D01*
X115302123Y-88749501D01*
X115242516Y-88755908D01*
X115107671Y-88806202D01*
X115107669Y-88806203D01*
X115044311Y-88853634D01*
X114978847Y-88878051D01*
X114910574Y-88863200D01*
X114895689Y-88853634D01*
X114832330Y-88806203D01*
X114832328Y-88806202D01*
X114697482Y-88755908D01*
X114697483Y-88755908D01*
X114637883Y-88749501D01*
X114637881Y-88749500D01*
X114637873Y-88749500D01*
X114637864Y-88749500D01*
X112762129Y-88749500D01*
X112762123Y-88749501D01*
X112702516Y-88755908D01*
X112567671Y-88806202D01*
X112567669Y-88806203D01*
X112504311Y-88853634D01*
X112438847Y-88878051D01*
X112370574Y-88863200D01*
X112355689Y-88853634D01*
X112292330Y-88806203D01*
X112292328Y-88806202D01*
X112157482Y-88755908D01*
X112157483Y-88755908D01*
X112097883Y-88749501D01*
X112097881Y-88749500D01*
X112097873Y-88749500D01*
X112097864Y-88749500D01*
X110222129Y-88749500D01*
X110222123Y-88749501D01*
X110162516Y-88755908D01*
X110027671Y-88806202D01*
X110027664Y-88806206D01*
X109912455Y-88892452D01*
X109912452Y-88892455D01*
X109826206Y-89007664D01*
X109826202Y-89007671D01*
X109775908Y-89142517D01*
X109772309Y-89176000D01*
X109769501Y-89202123D01*
X109769500Y-89202135D01*
X109465072Y-89202135D01*
X109465061Y-89199277D01*
X109437437Y-81924971D01*
X109456867Y-81857857D01*
X109509497Y-81811902D01*
X109561436Y-81800500D01*
X198775500Y-81800500D01*
X198842539Y-81820185D01*
G37*
%TD.AperFunction*%
%TD*%
M02*
