%TF.GenerationSoftware,KiCad,Pcbnew,10.0.1*%
%TF.CreationDate,2026-08-17T01:13:33+01:00*%
%TF.ProjectId,CATS_adapter,43415453-5f61-4646-9170-7465722e6b69,rev?*%
%TF.SameCoordinates,Original*%
%TF.FileFunction,Legend,Bot*%
%TF.FilePolarity,Positive*%
%FSLAX46Y46*%
G04 Gerber Fmt 4.6, Leading zero omitted, Abs format (unit mm)*
G04 Created by KiCad (PCBNEW 10.0.1) date 2026-08-17 01:13:33*
%MOMM*%
%LPD*%
G01*
G04 APERTURE LIST*
%ADD10C,0.150000*%
%ADD11C,0.120000*%
G04 APERTURE END LIST*
D10*
X197848333Y-107684819D02*
X197848333Y-108399104D01*
X197848333Y-108399104D02*
X197895952Y-108541961D01*
X197895952Y-108541961D02*
X197991190Y-108637200D01*
X197991190Y-108637200D02*
X198134047Y-108684819D01*
X198134047Y-108684819D02*
X198229285Y-108684819D01*
X197419761Y-107780057D02*
X197372142Y-107732438D01*
X197372142Y-107732438D02*
X197276904Y-107684819D01*
X197276904Y-107684819D02*
X197038809Y-107684819D01*
X197038809Y-107684819D02*
X196943571Y-107732438D01*
X196943571Y-107732438D02*
X196895952Y-107780057D01*
X196895952Y-107780057D02*
X196848333Y-107875295D01*
X196848333Y-107875295D02*
X196848333Y-107970533D01*
X196848333Y-107970533D02*
X196895952Y-108113390D01*
X196895952Y-108113390D02*
X197467380Y-108684819D01*
X197467380Y-108684819D02*
X196848333Y-108684819D01*
%TO.C,J2*%
D11*
X190590000Y-105960000D02*
X190590000Y-107230000D01*
X190590000Y-107230000D02*
X191860000Y-107230000D01*
X192937358Y-90290000D02*
X193322642Y-90290000D01*
X192937358Y-91150000D02*
X193322642Y-91150000D01*
X192937358Y-92830000D02*
X193322642Y-92830000D01*
X192937358Y-93690000D02*
X193322642Y-93690000D01*
X192937358Y-95370000D02*
X193322642Y-95370000D01*
X192937358Y-96230000D02*
X193322642Y-96230000D01*
X192937358Y-97910000D02*
X193322642Y-97910000D01*
X192937358Y-98770000D02*
X193322642Y-98770000D01*
X192937358Y-100450000D02*
X193322642Y-100450000D01*
X192937358Y-101310000D02*
X193322642Y-101310000D01*
X192937358Y-102990000D02*
X193322642Y-102990000D01*
X192937358Y-103850000D02*
X193322642Y-103850000D01*
X193020000Y-105530000D02*
X193322642Y-105530000D01*
X193020000Y-106390000D02*
X193322642Y-106390000D01*
X195477358Y-90290000D02*
X195790000Y-90290000D01*
X195477358Y-91150000D02*
X195790000Y-91150000D01*
X195477358Y-92830000D02*
X195790000Y-92830000D01*
X195477358Y-93690000D02*
X195790000Y-93690000D01*
X195477358Y-95370000D02*
X195790000Y-95370000D01*
X195477358Y-96230000D02*
X195790000Y-96230000D01*
X195477358Y-97910000D02*
X195790000Y-97910000D01*
X195477358Y-98770000D02*
X195790000Y-98770000D01*
X195477358Y-100450000D02*
X195790000Y-100450000D01*
X195477358Y-101310000D02*
X195790000Y-101310000D01*
X195477358Y-102990000D02*
X195790000Y-102990000D01*
X195477358Y-103850000D02*
X195790000Y-103850000D01*
X195477358Y-105530000D02*
X195790000Y-105530000D01*
X195477358Y-106390000D02*
X195790000Y-106390000D01*
X195790000Y-91990000D02*
X198550000Y-91990000D01*
X195790000Y-94530000D02*
X198550000Y-94530000D01*
X195790000Y-97070000D02*
X198550000Y-97070000D01*
X195790000Y-99610000D02*
X198550000Y-99610000D01*
X195790000Y-102150000D02*
X198550000Y-102150000D01*
X195790000Y-104690000D02*
X198550000Y-104690000D01*
X198550000Y-91150000D02*
X204550000Y-91150000D01*
X198550000Y-93690000D02*
X204550000Y-93690000D01*
X198550000Y-96230000D02*
X204550000Y-96230000D01*
X198550000Y-98770000D02*
X204550000Y-98770000D01*
X198550000Y-101310000D02*
X204550000Y-101310000D01*
X198550000Y-103850000D02*
X204550000Y-103850000D01*
X204550000Y-90290000D02*
X198550000Y-90290000D01*
X204550000Y-91150000D02*
X204550000Y-90290000D01*
X204550000Y-92830000D02*
X198550000Y-92830000D01*
X204550000Y-93690000D02*
X204550000Y-92830000D01*
X204550000Y-95370000D02*
X198550000Y-95370000D01*
X204550000Y-96230000D02*
X204550000Y-95370000D01*
X204550000Y-97910000D02*
X198550000Y-97910000D01*
X204550000Y-98770000D02*
X204550000Y-97910000D01*
X204550000Y-100450000D02*
X198550000Y-100450000D01*
X204550000Y-101310000D02*
X204550000Y-100450000D01*
X204550000Y-102990000D02*
X198550000Y-102990000D01*
X204550000Y-103850000D02*
X204550000Y-102990000D01*
X195790000Y-89340000D02*
X198550000Y-89340000D01*
X198550000Y-107340000D01*
X195790000Y-107340000D01*
X195790000Y-89340000D01*
X198550000Y-105530000D02*
X204550000Y-105530000D01*
X204550000Y-106390000D01*
X198550000Y-106390000D01*
X198550000Y-105530000D01*
G36*
X198550000Y-105530000D02*
G01*
X204550000Y-105530000D01*
X204550000Y-106390000D01*
X198550000Y-106390000D01*
X198550000Y-105530000D01*
G37*
%TD*%
M02*
