M48
; DRILL file KiCad 10.0.1 date 2026-08-17T01:13:37
; FORMAT={-:-/ absolute / metric / decimal}
; #@! TF.CreationDate,2026-08-17T01:13:37+01:00
; #@! TF.GenerationSoftware,Kicad,Pcbnew,10.0.1
; #@! TF.FileFunction,Plated,1,2,PTH
FMAT,2
METRIC
; #@! TA.AperFunction,Plated,PTH,ViaDrill
T1C0.300
; #@! TA.AperFunction,Plated,PTH,ComponentDrill
T2C1.000
%
G90
G05
T1
X112.06Y-111.908
X113.835Y-105.266
X115.527Y-94.055
X117.986Y-93.987
X118.25Y-111.8
X120.557Y-93.987
X124.144Y-95.048
X125.1Y-105.15
X126.941Y-93.153
X127.821Y-105.199
X134.882Y-101.973
X136.136Y-110.781
X139.059Y-96.89
X139.426Y-113.175
X140.75Y-104.1
X141.35Y-95.35
X142.936Y-96.702
X146.321Y-103.283
X147.7Y-90.65
X148.207Y-112.871
X150.288Y-86.376
X151.546Y-101.905
X152.217Y-93.33
X153.029Y-107.604
X154.628Y-106.736
X156.531Y-98.202
X161.708Y-104.293
X164.855Y-86.63
X166.631Y-97.899
X171.047Y-107.338
X172.824Y-93.99
X178.762Y-87.442
X178.914Y-104.902
X180.589Y-113.48
X183.64Y-98.327
X185.563Y-94.802
T2
X154.895Y-110.645
X157.435Y-110.645
X159.975Y-110.645
X162.515Y-110.645
X165.055Y-110.645
X191.86Y-90.72
X191.86Y-93.26
X191.86Y-95.8
X191.86Y-98.34
X191.86Y-100.88
X191.86Y-103.42
X191.86Y-105.96
X194.4Y-90.72
X194.4Y-93.26
X194.4Y-95.8
X194.4Y-98.34
X194.4Y-100.88
X194.4Y-103.42
X194.4Y-105.96
M30
