%TF.GenerationSoftware,KiCad,Pcbnew,10.0.1*%
%TF.CreationDate,2026-08-17T01:13:33+01:00*%
%TF.ProjectId,CATS_adapter,43415453-5f61-4646-9170-7465722e6b69,rev?*%
%TF.SameCoordinates,Original*%
%TF.FileFunction,Soldermask,Top*%
%TF.FilePolarity,Negative*%
%FSLAX46Y46*%
G04 Gerber Fmt 4.6, Leading zero omitted, Abs format (unit mm)*
G04 Created by KiCad (PCBNEW 10.0.1) date 2026-08-17 01:13:33*
%MOMM*%
%LPD*%
G01*
G04 APERTURE LIST*
G04 Aperture macros list*
%AMRoundRect*
0 Rectangle with rounded corners*
0 $1 Rounding radius*
0 $2 $3 $4 $5 $6 $7 $8 $9 X,Y pos of 4 corners*
0 Add a 4 corners polygon primitive as box body*
4,1,4,$2,$3,$4,$5,$6,$7,$8,$9,$2,$3,0*
0 Add four circle primitives for the rounded corners*
1,1,$1+$1,$2,$3*
1,1,$1+$1,$4,$5*
1,1,$1+$1,$6,$7*
1,1,$1+$1,$8,$9*
0 Add four rect primitives between the rounded corners*
20,1,$1+$1,$2,$3,$4,$5,0*
20,1,$1+$1,$4,$5,$6,$7,0*
20,1,$1+$1,$6,$7,$8,$9,0*
20,1,$1+$1,$8,$9,$2,$3,0*%
G04 Aperture macros list end*
%ADD10RoundRect,0.250000X-0.475000X0.337500X-0.475000X-0.337500X0.475000X-0.337500X0.475000X0.337500X0*%
%ADD11RoundRect,0.250000X-0.800000X-0.450000X0.800000X-0.450000X0.800000X0.450000X-0.800000X0.450000X0*%
%ADD12RoundRect,0.075000X-0.075000X0.662500X-0.075000X-0.662500X0.075000X-0.662500X0.075000X0.662500X0*%
%ADD13RoundRect,0.075000X-0.662500X0.075000X-0.662500X-0.075000X0.662500X-0.075000X0.662500X0.075000X0*%
%ADD14RoundRect,0.250000X0.337500X0.475000X-0.337500X0.475000X-0.337500X-0.475000X0.337500X-0.475000X0*%
%ADD15R,1.780000X2.500000*%
%ADD16RoundRect,0.250000X0.475000X-0.337500X0.475000X0.337500X-0.475000X0.337500X-0.475000X-0.337500X0*%
%ADD17RoundRect,0.250000X-0.350000X-0.450000X0.350000X-0.450000X0.350000X0.450000X-0.350000X0.450000X0*%
%ADD18R,1.700000X1.700000*%
%ADD19C,1.700000*%
G04 APERTURE END LIST*
D10*
%TO.C,C4*%
X136400000Y-106950000D03*
X136400000Y-109025000D03*
%TD*%
D11*
%TO.C,SW1*%
X139450000Y-106550000D03*
X148550000Y-106550000D03*
X139450000Y-111050000D03*
X148550000Y-111050000D03*
%TD*%
D12*
%TO.C,U1*%
X144350000Y-93537500D03*
X143850000Y-93537500D03*
X143350000Y-93537500D03*
X142850000Y-93537500D03*
X142350000Y-93537500D03*
X141850000Y-93537500D03*
X141350000Y-93537500D03*
X140850000Y-93537500D03*
X140350000Y-93537500D03*
X139850000Y-93537500D03*
X139350000Y-93537500D03*
X138850000Y-93537500D03*
D13*
X137437500Y-94950000D03*
X137437500Y-95450000D03*
X137437500Y-95950000D03*
X137437500Y-96450000D03*
X137437500Y-96950000D03*
X137437500Y-97450000D03*
X137437500Y-97950000D03*
X137437500Y-98450000D03*
X137437500Y-98950000D03*
X137437500Y-99450000D03*
X137437500Y-99950000D03*
X137437500Y-100450000D03*
D12*
X138850000Y-101862500D03*
X139350000Y-101862500D03*
X139850000Y-101862500D03*
X140350000Y-101862500D03*
X140850000Y-101862500D03*
X141350000Y-101862500D03*
X141850000Y-101862500D03*
X142350000Y-101862500D03*
X142850000Y-101862500D03*
X143350000Y-101862500D03*
X143850000Y-101862500D03*
X144350000Y-101862500D03*
D13*
X145762500Y-100450000D03*
X145762500Y-99950000D03*
X145762500Y-99450000D03*
X145762500Y-98950000D03*
X145762500Y-98450000D03*
X145762500Y-97950000D03*
X145762500Y-97450000D03*
X145762500Y-96950000D03*
X145762500Y-96450000D03*
X145762500Y-95950000D03*
X145762500Y-95450000D03*
X145762500Y-94950000D03*
%TD*%
D14*
%TO.C,C5*%
X115750000Y-111700000D03*
X113675000Y-111700000D03*
%TD*%
D15*
%TO.C,IC1*%
X111160000Y-107950000D03*
X113700000Y-107950000D03*
X116240000Y-107950000D03*
X118780000Y-107950000D03*
X121320000Y-107950000D03*
X123860000Y-107950000D03*
X126400000Y-107950000D03*
X128940000Y-107950000D03*
X128940000Y-90500000D03*
X126400000Y-90500000D03*
X123860000Y-90500000D03*
X121320000Y-90500000D03*
X118780000Y-90500000D03*
X116240000Y-90500000D03*
X113700000Y-90500000D03*
X111160000Y-90500000D03*
%TD*%
D16*
%TO.C,C2*%
X145550000Y-90612500D03*
X145550000Y-88537500D03*
%TD*%
D17*
%TO.C,R1*%
X147800000Y-102200000D03*
X149800000Y-102200000D03*
%TD*%
D16*
%TO.C,C3*%
X141150000Y-91375000D03*
X141150000Y-89300000D03*
%TD*%
%TO.C,C1*%
X143350000Y-91375000D03*
X143350000Y-89300000D03*
%TD*%
D18*
%TO.C,J1*%
X165055000Y-110645000D03*
D19*
X162515000Y-110645000D03*
X159975000Y-110645000D03*
X157435000Y-110645000D03*
X154895000Y-110645000D03*
%TD*%
D18*
%TO.C,J2*%
X191860000Y-105960000D03*
D19*
X194400000Y-105960000D03*
X191860000Y-103420000D03*
X194400000Y-103420000D03*
X191860000Y-100880000D03*
X194400000Y-100880000D03*
X191860000Y-98340000D03*
X194400000Y-98340000D03*
X191860000Y-95800000D03*
X194400000Y-95800000D03*
X191860000Y-93260000D03*
X194400000Y-93260000D03*
X191860000Y-90720000D03*
X194400000Y-90720000D03*
%TD*%
M02*
