M48
; DRILL file {KiCad 9.0.7} date 2026-03-01T16:01:04+0000
; FORMAT={-:-/ absolute / metric / decimal}
; #@! TF.CreationDate,2026-03-01T16:01:04+00:00
; #@! TF.GenerationSoftware,Kicad,Pcbnew,9.0.7
; #@! TF.FileFunction,Plated,1,4,PTH
FMAT,2
METRIC
; #@! TA.AperFunction,Plated,PTH,ViaDrill
T1C0.300
; #@! TA.AperFunction,Plated,PTH,ComponentDrill
T2C0.813
; #@! TA.AperFunction,Plated,PTH,ComponentDrill
T3C1.000
; #@! TA.AperFunction,Plated,PTH,ComponentDrill
T4C1.092
; #@! TA.AperFunction,Plated,PTH,ComponentDrill
T5C1.499
%
G90
G05
T1
X182.839Y-211.508
X182.948Y-179.697
X183.0Y-189.0
X183.885Y-171.228
X185.91Y-167.164
X185.972Y-169.619
X188.0Y-161.0
X188.0Y-169.734
X192.0Y-191.0
X193.181Y-209.896
X194.25Y-220.5
X194.5Y-206.0
X195.0Y-214.56
X198.554Y-207.45
X199.163Y-195.085
X200.5Y-195.5
X200.668Y-217.303
X200.75Y-205.0
X200.75Y-213.0
X201.461Y-142.475
X201.5Y-195.5
X201.664Y-180.336
X201.847Y-184.588
X202.375Y-198.625
X202.5Y-206.0
X202.5Y-214.415
X203.0Y-144.0
X203.416Y-195.306
X204.0Y-178.0
X204.045Y-198.709
X204.6Y-140.6
X204.74Y-212.332
X204.8Y-149.8
X204.941Y-154.954
X205.0Y-159.419
X205.0Y-165.8
X205.145Y-214.244
X205.5Y-144.0
X206.484Y-195.193
X207.0Y-197.0
X207.285Y-200.385
X207.5Y-174.5
X207.8Y-178.8
X208.171Y-219.028
X210.0Y-157.0
X210.0Y-160.0
X210.036Y-164.768
X210.975Y-178.02
X212.5Y-157.5
X213.483Y-171.715
X213.753Y-161.796
X214.0Y-213.5
X215.132Y-196.995
X215.25Y-157.5
X215.285Y-173.806
X215.733Y-165.98
X216.487Y-154.987
X216.5Y-193.2
X216.5Y-211.0
X217.5Y-191.719
X217.65Y-218.462
X218.8Y-197.0
X218.829Y-186.976
X219.5Y-203.5
X220.366Y-171.536
X220.839Y-178.239
X221.0Y-158.0
X221.221Y-218.923
X221.997Y-206.577
X222.744Y-196.611
X225.588Y-194.71
X225.666Y-191.718
X226.596Y-218.711
X227.5Y-203.5
X227.96Y-189.922
X228.0Y-211.0
X229.5Y-203.5
X229.769Y-177.586
X231.5Y-211.0
X232.5Y-218.5
X232.8Y-219.8
X232.896Y-189.771
X233.352Y-198.251
X233.502Y-202.606
X233.629Y-206.846
X234.736Y-213.981
X235.25Y-173.5
X235.929Y-202.542
X236.0Y-220.4
X236.015Y-198.41
X238.067Y-207.197
X239.409Y-197.051
T2
X246.0Y-183.4
X246.0Y-185.4
X246.0Y-187.4
T3
X190.55Y-205.238
X190.55Y-207.778
X190.55Y-210.318
X190.55Y-212.858
X190.55Y-215.458
X195.104Y-132.779
X196.631Y-190.497
X196.631Y-193.037
X197.644Y-132.779
X199.171Y-190.497
X199.171Y-193.037
X200.184Y-132.779
X201.711Y-190.497
X201.711Y-193.037
X202.724Y-132.779
X204.251Y-190.497
X204.251Y-193.037
X205.264Y-132.779
X206.791Y-190.497
X206.791Y-193.037
X207.804Y-132.779
X209.331Y-190.497
X209.331Y-193.037
X210.344Y-132.779
X211.871Y-190.497
X211.871Y-193.037
X212.884Y-132.779
X215.424Y-132.779
X217.964Y-132.779
X220.504Y-132.779
T4
X211.8Y-200.76
X211.8Y-216.0
X214.34Y-200.76
X214.34Y-216.0
X216.88Y-200.76
X216.88Y-216.0
X219.42Y-200.76
X219.42Y-216.0
X221.96Y-200.76
X221.96Y-216.0
X224.5Y-200.76
X224.5Y-216.0
X227.04Y-200.76
X227.04Y-216.0
X229.58Y-200.76
X229.58Y-216.0
X232.12Y-200.76
X232.12Y-216.0
X234.66Y-200.76
X234.66Y-216.0
X237.2Y-200.76
X237.2Y-216.0
X239.74Y-200.76
X239.74Y-216.0
X242.28Y-200.76
X242.28Y-216.0
T5
X246.0Y-181.3
X246.0Y-189.5
M30
