%TF.GenerationSoftware,KiCad,Pcbnew,9.0.6*%
%TF.CreationDate,2026-03-06T13:06:01+00:00*%
%TF.ProjectId,SPI_adapter,5350495f-6164-4617-9074-65722e6b6963,rev?*%
%TF.SameCoordinates,Original*%
%TF.FileFunction,Copper,L2,Inr*%
%TF.FilePolarity,Positive*%
%FSLAX46Y46*%
G04 Gerber Fmt 4.6, Leading zero omitted, Abs format (unit mm)*
G04 Created by KiCad (PCBNEW 9.0.6) date 2026-03-06 13:06:01*
%MOMM*%
%LPD*%
G01*
G04 APERTURE LIST*
%TA.AperFunction,ComponentPad*%
%ADD10C,0.970000*%
%TD*%
%TA.AperFunction,ComponentPad*%
%ADD11R,1.700000X1.700000*%
%TD*%
%TA.AperFunction,ComponentPad*%
%ADD12C,1.700000*%
%TD*%
%TA.AperFunction,ViaPad*%
%ADD13C,0.600000*%
%TD*%
G04 APERTURE END LIST*
D10*
%TO.N,GND*%
%TO.C,J2*%
X83864493Y-96831261D03*
X83864493Y-105591261D03*
%TD*%
D11*
%TO.N,/RX_SWITCH*%
%TO.C,J1*%
X169960000Y-117355000D03*
D12*
%TO.N,/TX_SWITCH*%
X172500000Y-117355000D03*
%TO.N,GND*%
X169960000Y-114815000D03*
%TO.N,/RADIO_BUSY*%
X172500000Y-114815000D03*
%TO.N,/RADIO_DIO1*%
X169960000Y-112275000D03*
%TO.N,/RADIO_RST*%
X172500000Y-112275000D03*
%TO.N,/RADIO_TX*%
X169960000Y-109735000D03*
%TO.N,/RADIO_RX*%
X172500000Y-109735000D03*
%TO.N,/SPI_CS*%
X169960000Y-107195000D03*
%TO.N,/SPI_MISO*%
X172500000Y-107195000D03*
%TO.N,/SPI_MOSI*%
X169960000Y-104655000D03*
%TO.N,/SPI_SCK*%
X172500000Y-104655000D03*
%TO.N,GND*%
X169960000Y-102115000D03*
%TO.N,+3.3V*%
X172500000Y-102115000D03*
%TD*%
D13*
%TO.N,+3.3V*%
X96681350Y-106310140D03*
%TO.N,GND*%
X88369767Y-99766016D03*
X140668627Y-102000000D03*
X88374638Y-102559484D03*
X158889839Y-103383138D03*
X83927854Y-103484804D03*
X89209438Y-99757360D03*
X85552404Y-105598467D03*
X89214309Y-102550828D03*
X85781500Y-99774672D03*
X143782939Y-115500414D03*
X87495753Y-102562369D03*
X133686151Y-110000000D03*
X85023414Y-99811320D03*
X143668627Y-102000000D03*
X87490882Y-99768901D03*
X86621172Y-99783329D03*
X83892917Y-95065089D03*
X133500000Y-118500000D03*
X83840512Y-107677193D03*
X136686151Y-110000000D03*
X100773836Y-115529493D03*
X86626043Y-102576797D03*
X140782939Y-115500414D03*
X85028285Y-102604788D03*
X85786371Y-102568140D03*
X155451609Y-106772122D03*
X155889839Y-103383138D03*
X85517468Y-96829386D03*
X83857980Y-98698493D03*
X130500000Y-118500000D03*
X158451609Y-106772122D03*
%TO.N,/RX_SWITCH*%
X103000000Y-116500000D03*
%TO.N,/TX_SWITCH*%
X103500000Y-119500000D03*
%TO.N,/SPI_MISO*%
X113500000Y-108500000D03*
%TO.N,/RADIO_DIO1*%
X95000000Y-113500000D03*
%TO.N,/SPI_CS*%
X114500000Y-105000000D03*
X112500000Y-103000000D03*
%TD*%
%TA.AperFunction,Conductor*%
%TO.N,GND*%
G36*
X171075270Y-115576717D02*
G01*
X171075270Y-115576716D01*
X171114622Y-115522555D01*
X171119232Y-115513507D01*
X171167205Y-115462709D01*
X171235025Y-115445912D01*
X171301161Y-115468447D01*
X171340204Y-115513504D01*
X171344949Y-115522817D01*
X171469890Y-115694786D01*
X171620213Y-115845109D01*
X171792182Y-115970050D01*
X171800946Y-115974516D01*
X171851742Y-116022491D01*
X171868536Y-116090312D01*
X171845998Y-116156447D01*
X171800946Y-116195484D01*
X171792182Y-116199949D01*
X171620215Y-116324889D01*
X171506673Y-116438431D01*
X171445350Y-116471915D01*
X171375658Y-116466931D01*
X171319725Y-116425059D01*
X171302810Y-116394082D01*
X171253797Y-116262671D01*
X171253793Y-116262664D01*
X171167547Y-116147455D01*
X171167544Y-116147452D01*
X171052335Y-116061206D01*
X171052328Y-116061202D01*
X170917482Y-116010908D01*
X170917483Y-116010908D01*
X170857883Y-116004501D01*
X170857881Y-116004500D01*
X170857873Y-116004500D01*
X170857865Y-116004500D01*
X170847309Y-116004500D01*
X170780270Y-115984815D01*
X170759628Y-115968181D01*
X170089408Y-115297962D01*
X170152993Y-115280925D01*
X170267007Y-115215099D01*
X170360099Y-115122007D01*
X170425925Y-115007993D01*
X170442962Y-114944408D01*
X171075270Y-115576717D01*
G37*
%TD.AperFunction*%
%TA.AperFunction,Conductor*%
G36*
X171301444Y-112928999D02*
G01*
X171340486Y-112974056D01*
X171344951Y-112982820D01*
X171469890Y-113154786D01*
X171620213Y-113305109D01*
X171792182Y-113430050D01*
X171800946Y-113434516D01*
X171851742Y-113482491D01*
X171868536Y-113550312D01*
X171845998Y-113616447D01*
X171800946Y-113655484D01*
X171792182Y-113659949D01*
X171620213Y-113784890D01*
X171469890Y-113935213D01*
X171344949Y-114107182D01*
X171340202Y-114116499D01*
X171292227Y-114167293D01*
X171224405Y-114184087D01*
X171158271Y-114161548D01*
X171119234Y-114116495D01*
X171114626Y-114107452D01*
X171075270Y-114053282D01*
X171075269Y-114053282D01*
X170442962Y-114685590D01*
X170425925Y-114622007D01*
X170360099Y-114507993D01*
X170267007Y-114414901D01*
X170152993Y-114349075D01*
X170089409Y-114332037D01*
X170721716Y-113699728D01*
X170667547Y-113660373D01*
X170667547Y-113660372D01*
X170658500Y-113655763D01*
X170607706Y-113607788D01*
X170590912Y-113539966D01*
X170613451Y-113473832D01*
X170658508Y-113434793D01*
X170667816Y-113430051D01*
X170764828Y-113359568D01*
X170839786Y-113305109D01*
X170839788Y-113305106D01*
X170839792Y-113305104D01*
X170990104Y-113154792D01*
X170990106Y-113154788D01*
X170990109Y-113154786D01*
X171099086Y-113004789D01*
X171115051Y-112982816D01*
X171119514Y-112974054D01*
X171167488Y-112923259D01*
X171235308Y-112906463D01*
X171301444Y-112928999D01*
G37*
%TD.AperFunction*%
%TA.AperFunction,Conductor*%
G36*
X171075270Y-102876717D02*
G01*
X171075270Y-102876716D01*
X171114622Y-102822555D01*
X171119232Y-102813507D01*
X171167205Y-102762709D01*
X171235025Y-102745912D01*
X171301161Y-102768447D01*
X171340204Y-102813504D01*
X171344949Y-102822817D01*
X171469890Y-102994786D01*
X171620213Y-103145109D01*
X171792182Y-103270050D01*
X171800946Y-103274516D01*
X171851742Y-103322491D01*
X171868536Y-103390312D01*
X171845998Y-103456447D01*
X171800946Y-103495484D01*
X171792182Y-103499949D01*
X171620213Y-103624890D01*
X171469890Y-103775213D01*
X171344949Y-103947182D01*
X171340484Y-103955946D01*
X171292509Y-104006742D01*
X171224688Y-104023536D01*
X171158553Y-104000998D01*
X171119516Y-103955946D01*
X171115050Y-103947182D01*
X170990109Y-103775213D01*
X170839786Y-103624890D01*
X170667817Y-103499949D01*
X170658504Y-103495204D01*
X170607707Y-103447230D01*
X170590912Y-103379409D01*
X170613449Y-103313274D01*
X170658507Y-103274232D01*
X170667555Y-103269622D01*
X170721716Y-103230270D01*
X170721717Y-103230270D01*
X170089408Y-102597962D01*
X170152993Y-102580925D01*
X170267007Y-102515099D01*
X170360099Y-102422007D01*
X170425925Y-102307993D01*
X170442962Y-102244408D01*
X171075270Y-102876717D01*
G37*
%TD.AperFunction*%
%TA.AperFunction,Conductor*%
G36*
X176442538Y-93020185D02*
G01*
X176488293Y-93072989D01*
X176499499Y-93124500D01*
X176499499Y-126375500D01*
X176479814Y-126442539D01*
X176427010Y-126488294D01*
X176375499Y-126499500D01*
X78124499Y-126499500D01*
X78057460Y-126479815D01*
X78011705Y-126427011D01*
X78000499Y-126375500D01*
X78000499Y-123359568D01*
X78499500Y-123359568D01*
X78499500Y-123640431D01*
X78530942Y-123919494D01*
X78530945Y-123919512D01*
X78593439Y-124193317D01*
X78593443Y-124193329D01*
X78686200Y-124458411D01*
X78808053Y-124711442D01*
X78808055Y-124711445D01*
X78957477Y-124949248D01*
X79132584Y-125168825D01*
X79331175Y-125367416D01*
X79550752Y-125542523D01*
X79788555Y-125691945D01*
X79788557Y-125691946D01*
X79844850Y-125719055D01*
X80041592Y-125813801D01*
X80207401Y-125871820D01*
X80306670Y-125906556D01*
X80306682Y-125906560D01*
X80580491Y-125969055D01*
X80580497Y-125969055D01*
X80580505Y-125969057D01*
X80766547Y-125990018D01*
X80859569Y-126000499D01*
X80859572Y-126000500D01*
X80859575Y-126000500D01*
X81140428Y-126000500D01*
X81140429Y-126000499D01*
X81283055Y-125984429D01*
X81419494Y-125969057D01*
X81419499Y-125969056D01*
X81419509Y-125969055D01*
X81693318Y-125906560D01*
X81958408Y-125813801D01*
X82211445Y-125691945D01*
X82449248Y-125542523D01*
X82668825Y-125367416D01*
X82867416Y-125168825D01*
X83042523Y-124949248D01*
X83191945Y-124711445D01*
X83313801Y-124458408D01*
X83406560Y-124193318D01*
X83469055Y-123919509D01*
X83500500Y-123640425D01*
X83500500Y-123359575D01*
X83472332Y-123109572D01*
X83471564Y-123102757D01*
X122878178Y-123102757D01*
X122878178Y-123397242D01*
X122911147Y-123689850D01*
X122911149Y-123689866D01*
X122976675Y-123976956D01*
X122976679Y-123976968D01*
X123073933Y-124254901D01*
X123073942Y-124254923D01*
X123201700Y-124520217D01*
X123201704Y-124520223D01*
X123358375Y-124769563D01*
X123450718Y-124885357D01*
X123538057Y-124994878D01*
X123541978Y-124999794D01*
X123750205Y-125208021D01*
X123980436Y-125391624D01*
X124220590Y-125542523D01*
X124229781Y-125548298D01*
X124495075Y-125676056D01*
X124495084Y-125676059D01*
X124495091Y-125676063D01*
X124495097Y-125676065D01*
X124773030Y-125773319D01*
X124773042Y-125773323D01*
X125060136Y-125838850D01*
X125352757Y-125871820D01*
X125352758Y-125871821D01*
X125352761Y-125871821D01*
X125647240Y-125871821D01*
X125647240Y-125871820D01*
X125939862Y-125838850D01*
X126226956Y-125773323D01*
X126504907Y-125676063D01*
X126738028Y-125563799D01*
X126770216Y-125548298D01*
X126770216Y-125548297D01*
X126770222Y-125548295D01*
X127019562Y-125391624D01*
X127249793Y-125208021D01*
X127458020Y-124999794D01*
X127641623Y-124769563D01*
X127798294Y-124520223D01*
X127828062Y-124458408D01*
X127926055Y-124254923D01*
X127926056Y-124254919D01*
X127926062Y-124254908D01*
X128023322Y-123976957D01*
X128088849Y-123689863D01*
X128121820Y-123397238D01*
X128121820Y-123109568D01*
X170999500Y-123109568D01*
X170999500Y-123390431D01*
X171030942Y-123669494D01*
X171030945Y-123669512D01*
X171093439Y-123943317D01*
X171093443Y-123943329D01*
X171186200Y-124208411D01*
X171308053Y-124461442D01*
X171308055Y-124461445D01*
X171457477Y-124699248D01*
X171632584Y-124918825D01*
X171831175Y-125117416D01*
X172050752Y-125292523D01*
X172288555Y-125441945D01*
X172541592Y-125563801D01*
X172740680Y-125633465D01*
X172806670Y-125656556D01*
X172806682Y-125656560D01*
X173080491Y-125719055D01*
X173080497Y-125719055D01*
X173080505Y-125719057D01*
X173266547Y-125740018D01*
X173359569Y-125750499D01*
X173359572Y-125750500D01*
X173359575Y-125750500D01*
X173640428Y-125750500D01*
X173640429Y-125750499D01*
X173783055Y-125734429D01*
X173919494Y-125719057D01*
X173919499Y-125719056D01*
X173919509Y-125719055D01*
X174193318Y-125656560D01*
X174458408Y-125563801D01*
X174711445Y-125441945D01*
X174949248Y-125292523D01*
X175168825Y-125117416D01*
X175367416Y-124918825D01*
X175542523Y-124699248D01*
X175691945Y-124461445D01*
X175813801Y-124208408D01*
X175906560Y-123943318D01*
X175969055Y-123669509D01*
X175972332Y-123640431D01*
X176000499Y-123390431D01*
X176000500Y-123390427D01*
X176000500Y-123109572D01*
X176000499Y-123109568D01*
X175997224Y-123080505D01*
X175969055Y-122830491D01*
X175906560Y-122556682D01*
X175901278Y-122541588D01*
X175883465Y-122490680D01*
X175813801Y-122291592D01*
X175691945Y-122038555D01*
X175542523Y-121800752D01*
X175367416Y-121581175D01*
X175168825Y-121382584D01*
X174949248Y-121207477D01*
X174711445Y-121058055D01*
X174711442Y-121058053D01*
X174458411Y-120936200D01*
X174193329Y-120843443D01*
X174193317Y-120843439D01*
X173919512Y-120780945D01*
X173919494Y-120780942D01*
X173640431Y-120749500D01*
X173640425Y-120749500D01*
X173359575Y-120749500D01*
X173359568Y-120749500D01*
X173080505Y-120780942D01*
X173080487Y-120780945D01*
X172806682Y-120843439D01*
X172806670Y-120843443D01*
X172541588Y-120936200D01*
X172288557Y-121058053D01*
X172050753Y-121207476D01*
X171831175Y-121382583D01*
X171632583Y-121581175D01*
X171457476Y-121800753D01*
X171308053Y-122038557D01*
X171186200Y-122291588D01*
X171093443Y-122556670D01*
X171093439Y-122556682D01*
X171030945Y-122830487D01*
X171030942Y-122830505D01*
X170999500Y-123109568D01*
X128121820Y-123109568D01*
X128121820Y-123102762D01*
X128088849Y-122810137D01*
X128023322Y-122523043D01*
X127926062Y-122245092D01*
X127926058Y-122245085D01*
X127926055Y-122245076D01*
X127798297Y-121979782D01*
X127704921Y-121831175D01*
X127641623Y-121730437D01*
X127458020Y-121500206D01*
X127249793Y-121291979D01*
X127019562Y-121108376D01*
X126770222Y-120951705D01*
X126770223Y-120951705D01*
X126770216Y-120951701D01*
X126504922Y-120823943D01*
X126504900Y-120823934D01*
X126226967Y-120726680D01*
X126226955Y-120726676D01*
X125939865Y-120661150D01*
X125939849Y-120661148D01*
X125647241Y-120628179D01*
X125647237Y-120628179D01*
X125352761Y-120628179D01*
X125352756Y-120628179D01*
X125060148Y-120661148D01*
X125060132Y-120661150D01*
X124773042Y-120726676D01*
X124773030Y-120726680D01*
X124495097Y-120823934D01*
X124495075Y-120823943D01*
X124229781Y-120951701D01*
X123980437Y-121108375D01*
X123750205Y-121291978D01*
X123541977Y-121500206D01*
X123358374Y-121730438D01*
X123201700Y-121979782D01*
X123073942Y-122245076D01*
X123073933Y-122245098D01*
X122976679Y-122523031D01*
X122976675Y-122523043D01*
X122911149Y-122810133D01*
X122911147Y-122810149D01*
X122878178Y-123102757D01*
X83471564Y-123102757D01*
X83469057Y-123080504D01*
X83469054Y-123080487D01*
X83406560Y-122806680D01*
X83406556Y-122806670D01*
X83383465Y-122740680D01*
X83313801Y-122541592D01*
X83191945Y-122288555D01*
X83042523Y-122050752D01*
X82867416Y-121831175D01*
X82668825Y-121632584D01*
X82449248Y-121457477D01*
X82211445Y-121308055D01*
X82211442Y-121308053D01*
X81958411Y-121186200D01*
X81693329Y-121093443D01*
X81693317Y-121093439D01*
X81419512Y-121030945D01*
X81419494Y-121030942D01*
X81140431Y-120999500D01*
X81140425Y-120999500D01*
X80859575Y-120999500D01*
X80859568Y-120999500D01*
X80580505Y-121030942D01*
X80580487Y-121030945D01*
X80306682Y-121093439D01*
X80306670Y-121093443D01*
X80041588Y-121186200D01*
X79788557Y-121308053D01*
X79550753Y-121457476D01*
X79331175Y-121632583D01*
X79132583Y-121831175D01*
X78957476Y-122050753D01*
X78808053Y-122288557D01*
X78686200Y-122541588D01*
X78593443Y-122806670D01*
X78593440Y-122806680D01*
X78530945Y-123080487D01*
X78530942Y-123080505D01*
X78499500Y-123359568D01*
X78000499Y-123359568D01*
X78000499Y-119421153D01*
X102699500Y-119421153D01*
X102699500Y-119578846D01*
X102730261Y-119733489D01*
X102730264Y-119733501D01*
X102790602Y-119879172D01*
X102790609Y-119879185D01*
X102878210Y-120010288D01*
X102878213Y-120010292D01*
X102989707Y-120121786D01*
X102989711Y-120121789D01*
X103120814Y-120209390D01*
X103120827Y-120209397D01*
X103266498Y-120269735D01*
X103266503Y-120269737D01*
X103421153Y-120300499D01*
X103421156Y-120300500D01*
X103421158Y-120300500D01*
X103578844Y-120300500D01*
X103578845Y-120300499D01*
X103733497Y-120269737D01*
X103879179Y-120209394D01*
X104010289Y-120121789D01*
X104121789Y-120010289D01*
X104209394Y-119879179D01*
X104269737Y-119733497D01*
X104300500Y-119578842D01*
X104300500Y-119421158D01*
X104300500Y-119421155D01*
X104300499Y-119421153D01*
X104269738Y-119266510D01*
X104269737Y-119266503D01*
X104269735Y-119266498D01*
X104209397Y-119120827D01*
X104209390Y-119120814D01*
X104121789Y-118989711D01*
X104121786Y-118989707D01*
X104010292Y-118878213D01*
X104010288Y-118878210D01*
X103879185Y-118790609D01*
X103879172Y-118790602D01*
X103733501Y-118730264D01*
X103733489Y-118730261D01*
X103578845Y-118699500D01*
X103578842Y-118699500D01*
X103421158Y-118699500D01*
X103421155Y-118699500D01*
X103266510Y-118730261D01*
X103266498Y-118730264D01*
X103120827Y-118790602D01*
X103120814Y-118790609D01*
X102989711Y-118878210D01*
X102989707Y-118878213D01*
X102878213Y-118989707D01*
X102878210Y-118989711D01*
X102790609Y-119120814D01*
X102790602Y-119120827D01*
X102730264Y-119266498D01*
X102730261Y-119266510D01*
X102699500Y-119421153D01*
X78000499Y-119421153D01*
X78000499Y-116421153D01*
X102199500Y-116421153D01*
X102199500Y-116578846D01*
X102230261Y-116733489D01*
X102230264Y-116733501D01*
X102290602Y-116879172D01*
X102290609Y-116879185D01*
X102378210Y-117010288D01*
X102378213Y-117010292D01*
X102489707Y-117121786D01*
X102489711Y-117121789D01*
X102620814Y-117209390D01*
X102620827Y-117209397D01*
X102715746Y-117248713D01*
X102766503Y-117269737D01*
X102921153Y-117300499D01*
X102921156Y-117300500D01*
X102921158Y-117300500D01*
X103078844Y-117300500D01*
X103078845Y-117300499D01*
X103233497Y-117269737D01*
X103379179Y-117209394D01*
X103510289Y-117121789D01*
X103621789Y-117010289D01*
X103709394Y-116879179D01*
X103769737Y-116733497D01*
X103800500Y-116578842D01*
X103800500Y-116421158D01*
X103800500Y-116421155D01*
X103800499Y-116421153D01*
X103769738Y-116266510D01*
X103769737Y-116266503D01*
X103768147Y-116262664D01*
X103709397Y-116120827D01*
X103709390Y-116120814D01*
X103621789Y-115989711D01*
X103621786Y-115989707D01*
X103510292Y-115878213D01*
X103510288Y-115878210D01*
X103379185Y-115790609D01*
X103379172Y-115790602D01*
X103233501Y-115730264D01*
X103233489Y-115730261D01*
X103078845Y-115699500D01*
X103078842Y-115699500D01*
X102921158Y-115699500D01*
X102921155Y-115699500D01*
X102766510Y-115730261D01*
X102766498Y-115730264D01*
X102620827Y-115790602D01*
X102620814Y-115790609D01*
X102489711Y-115878210D01*
X102489707Y-115878213D01*
X102378213Y-115989707D01*
X102378210Y-115989711D01*
X102290609Y-116120814D01*
X102290602Y-116120827D01*
X102230264Y-116266498D01*
X102230261Y-116266510D01*
X102199500Y-116421153D01*
X78000499Y-116421153D01*
X78000499Y-113359568D01*
X78499500Y-113359568D01*
X78499500Y-113640431D01*
X78530942Y-113919494D01*
X78530945Y-113919512D01*
X78593439Y-114193317D01*
X78593443Y-114193329D01*
X78686200Y-114458411D01*
X78808053Y-114711442D01*
X78808055Y-114711445D01*
X78957477Y-114949248D01*
X79132584Y-115168825D01*
X79331175Y-115367416D01*
X79550752Y-115542523D01*
X79788555Y-115691945D01*
X80041592Y-115813801D01*
X80225662Y-115878210D01*
X80306670Y-115906556D01*
X80306682Y-115906560D01*
X80580491Y-115969055D01*
X80580497Y-115969055D01*
X80580505Y-115969057D01*
X80763784Y-115989707D01*
X80859569Y-116000499D01*
X80859572Y-116000500D01*
X80859575Y-116000500D01*
X81140428Y-116000500D01*
X81140429Y-116000499D01*
X81283055Y-115984429D01*
X81419494Y-115969057D01*
X81419499Y-115969056D01*
X81419509Y-115969055D01*
X81693318Y-115906560D01*
X81958408Y-115813801D01*
X82211445Y-115691945D01*
X82449248Y-115542523D01*
X82668825Y-115367416D01*
X82867416Y-115168825D01*
X83042523Y-114949248D01*
X83191945Y-114711445D01*
X83203042Y-114688401D01*
X83221498Y-114650079D01*
X83221499Y-114650077D01*
X83313796Y-114458419D01*
X83313797Y-114458416D01*
X83313801Y-114458408D01*
X83406560Y-114193318D01*
X83469055Y-113919509D01*
X83473599Y-113879185D01*
X83493818Y-113699727D01*
X83500500Y-113640425D01*
X83500500Y-113421153D01*
X94199500Y-113421153D01*
X94199500Y-113578846D01*
X94230261Y-113733489D01*
X94230264Y-113733501D01*
X94290602Y-113879172D01*
X94290609Y-113879185D01*
X94378210Y-114010288D01*
X94378213Y-114010292D01*
X94489707Y-114121786D01*
X94489711Y-114121789D01*
X94620814Y-114209390D01*
X94620827Y-114209397D01*
X94766498Y-114269735D01*
X94766503Y-114269737D01*
X94921153Y-114300499D01*
X94921156Y-114300500D01*
X94921158Y-114300500D01*
X95078844Y-114300500D01*
X95078845Y-114300499D01*
X95233497Y-114269737D01*
X95379179Y-114209394D01*
X95510289Y-114121789D01*
X95621789Y-114010289D01*
X95709394Y-113879179D01*
X95769737Y-113733497D01*
X95800500Y-113578842D01*
X95800500Y-113421158D01*
X95800500Y-113421155D01*
X95800499Y-113421153D01*
X95769738Y-113266510D01*
X95769737Y-113266503D01*
X95769735Y-113266498D01*
X95709397Y-113120827D01*
X95709390Y-113120814D01*
X95621789Y-112989711D01*
X95621786Y-112989707D01*
X95510292Y-112878213D01*
X95510288Y-112878210D01*
X95379185Y-112790609D01*
X95379172Y-112790602D01*
X95233501Y-112730264D01*
X95233489Y-112730261D01*
X95078845Y-112699500D01*
X95078842Y-112699500D01*
X94921158Y-112699500D01*
X94921155Y-112699500D01*
X94766510Y-112730261D01*
X94766498Y-112730264D01*
X94620827Y-112790602D01*
X94620814Y-112790609D01*
X94489711Y-112878210D01*
X94489707Y-112878213D01*
X94378213Y-112989707D01*
X94378210Y-112989711D01*
X94290609Y-113120814D01*
X94290602Y-113120827D01*
X94230264Y-113266498D01*
X94230261Y-113266510D01*
X94199500Y-113421153D01*
X83500500Y-113421153D01*
X83500500Y-113359575D01*
X83473599Y-113120821D01*
X83469057Y-113080505D01*
X83469054Y-113080487D01*
X83406560Y-112806682D01*
X83406556Y-112806670D01*
X83379819Y-112730261D01*
X83313801Y-112541592D01*
X83191945Y-112288555D01*
X83042523Y-112050752D01*
X82867416Y-111831175D01*
X82668825Y-111632584D01*
X82661499Y-111626742D01*
X82586816Y-111567184D01*
X82449248Y-111457477D01*
X82211445Y-111308055D01*
X82211442Y-111308053D01*
X81958411Y-111186200D01*
X81693329Y-111093443D01*
X81693317Y-111093439D01*
X81419512Y-111030945D01*
X81419494Y-111030942D01*
X81140431Y-110999500D01*
X81140425Y-110999500D01*
X80859575Y-110999500D01*
X80859568Y-110999500D01*
X80580505Y-111030942D01*
X80580487Y-111030945D01*
X80306682Y-111093439D01*
X80306670Y-111093443D01*
X80041588Y-111186200D01*
X79788557Y-111308053D01*
X79550753Y-111457476D01*
X79331175Y-111632583D01*
X79132583Y-111831175D01*
X78957476Y-112050753D01*
X78808053Y-112288557D01*
X78686200Y-112541588D01*
X78593443Y-112806670D01*
X78593439Y-112806682D01*
X78530945Y-113080487D01*
X78530942Y-113080505D01*
X78499500Y-113359568D01*
X78000499Y-113359568D01*
X78000499Y-108421153D01*
X112699500Y-108421153D01*
X112699500Y-108578846D01*
X112730261Y-108733489D01*
X112730264Y-108733501D01*
X112790602Y-108879172D01*
X112790609Y-108879185D01*
X112878210Y-109010288D01*
X112878213Y-109010292D01*
X112989707Y-109121786D01*
X112989711Y-109121789D01*
X113120814Y-109209390D01*
X113120827Y-109209397D01*
X113266498Y-109269735D01*
X113266503Y-109269737D01*
X113421153Y-109300499D01*
X113421156Y-109300500D01*
X113421158Y-109300500D01*
X113578844Y-109300500D01*
X113578845Y-109300499D01*
X113733497Y-109269737D01*
X113879179Y-109209394D01*
X114010289Y-109121789D01*
X114121789Y-109010289D01*
X114209394Y-108879179D01*
X114269737Y-108733497D01*
X114300500Y-108578842D01*
X114300500Y-108421158D01*
X114300500Y-108421155D01*
X114300499Y-108421153D01*
X114287244Y-108354516D01*
X114269737Y-108266503D01*
X114252589Y-108225104D01*
X114209397Y-108120827D01*
X114209390Y-108120814D01*
X114121789Y-107989711D01*
X114121786Y-107989707D01*
X114010292Y-107878213D01*
X114010288Y-107878210D01*
X113879185Y-107790609D01*
X113879172Y-107790602D01*
X113733501Y-107730264D01*
X113733489Y-107730261D01*
X113578845Y-107699500D01*
X113578842Y-107699500D01*
X113421158Y-107699500D01*
X113421155Y-107699500D01*
X113266510Y-107730261D01*
X113266498Y-107730264D01*
X113120827Y-107790602D01*
X113120814Y-107790609D01*
X112989711Y-107878210D01*
X112989707Y-107878213D01*
X112878213Y-107989707D01*
X112878210Y-107989711D01*
X112790609Y-108120814D01*
X112790602Y-108120827D01*
X112730264Y-108266498D01*
X112730261Y-108266510D01*
X112699500Y-108421153D01*
X78000499Y-108421153D01*
X78000499Y-106443019D01*
X83366287Y-106443019D01*
X83366287Y-106443020D01*
X83397924Y-106464159D01*
X83577174Y-106538406D01*
X83577186Y-106538409D01*
X83767474Y-106576260D01*
X83767477Y-106576261D01*
X83961509Y-106576261D01*
X83961511Y-106576260D01*
X84151799Y-106538409D01*
X84151811Y-106538406D01*
X84331058Y-106464160D01*
X84362697Y-106443019D01*
X84232565Y-106312887D01*
X84150971Y-106231293D01*
X95880850Y-106231293D01*
X95880850Y-106388986D01*
X95911611Y-106543629D01*
X95911614Y-106543641D01*
X95971952Y-106689312D01*
X95971959Y-106689325D01*
X96059560Y-106820428D01*
X96059563Y-106820432D01*
X96171057Y-106931926D01*
X96171061Y-106931929D01*
X96302164Y-107019530D01*
X96302177Y-107019537D01*
X96447848Y-107079875D01*
X96447853Y-107079877D01*
X96602503Y-107110639D01*
X96602506Y-107110640D01*
X96602508Y-107110640D01*
X96760194Y-107110640D01*
X96760195Y-107110639D01*
X96914847Y-107079877D01*
X97060529Y-107019534D01*
X97191639Y-106931929D01*
X97303139Y-106820429D01*
X97390744Y-106689319D01*
X97451087Y-106543637D01*
X97481850Y-106388982D01*
X97481850Y-106231298D01*
X97481850Y-106231295D01*
X97481849Y-106231293D01*
X97468642Y-106164896D01*
X97451087Y-106076643D01*
X97435888Y-106039949D01*
X97390747Y-105930967D01*
X97390740Y-105930954D01*
X97303139Y-105799851D01*
X97303136Y-105799847D01*
X97191642Y-105688353D01*
X97191638Y-105688350D01*
X97060535Y-105600749D01*
X97060522Y-105600742D01*
X96914851Y-105540404D01*
X96914839Y-105540401D01*
X96760195Y-105509640D01*
X96760192Y-105509640D01*
X96602508Y-105509640D01*
X96602505Y-105509640D01*
X96447860Y-105540401D01*
X96447848Y-105540404D01*
X96302177Y-105600742D01*
X96302164Y-105600749D01*
X96171061Y-105688350D01*
X96171057Y-105688353D01*
X96059563Y-105799847D01*
X96059560Y-105799851D01*
X95971959Y-105930954D01*
X95971952Y-105930967D01*
X95911614Y-106076638D01*
X95911611Y-106076650D01*
X95880850Y-106231293D01*
X84150971Y-106231293D01*
X83864494Y-105944815D01*
X83864493Y-105944815D01*
X83366287Y-106443019D01*
X78000499Y-106443019D01*
X78000499Y-105494242D01*
X82879493Y-105494242D01*
X82879493Y-105688276D01*
X82917344Y-105878567D01*
X82917346Y-105878575D01*
X82991595Y-106057829D01*
X82991599Y-106057836D01*
X83012733Y-106089465D01*
X83012734Y-106089466D01*
X83510939Y-105591261D01*
X83465189Y-105545511D01*
X83634493Y-105545511D01*
X83634493Y-105637011D01*
X83669508Y-105721546D01*
X83734208Y-105786246D01*
X83818743Y-105821261D01*
X83910243Y-105821261D01*
X83994778Y-105786246D01*
X84059478Y-105721546D01*
X84094493Y-105637011D01*
X84094493Y-105591260D01*
X84218047Y-105591260D01*
X84218047Y-105591261D01*
X84716251Y-106089465D01*
X84737392Y-106057826D01*
X84811638Y-105878579D01*
X84811641Y-105878567D01*
X84849493Y-105688276D01*
X84849493Y-105494244D01*
X84849492Y-105494242D01*
X84811641Y-105303954D01*
X84811638Y-105303942D01*
X84737391Y-105124692D01*
X84716251Y-105093055D01*
X84218047Y-105591260D01*
X84094493Y-105591260D01*
X84094493Y-105545511D01*
X84059478Y-105460976D01*
X83994778Y-105396276D01*
X83910243Y-105361261D01*
X83818743Y-105361261D01*
X83734208Y-105396276D01*
X83669508Y-105460976D01*
X83634493Y-105545511D01*
X83465189Y-105545511D01*
X83012733Y-105093055D01*
X82991597Y-105124687D01*
X82991596Y-105124689D01*
X82917346Y-105303946D01*
X82917344Y-105303954D01*
X82879493Y-105494242D01*
X78000499Y-105494242D01*
X78000499Y-104739501D01*
X83366287Y-104739501D01*
X83864493Y-105237707D01*
X83864494Y-105237707D01*
X84181047Y-104921153D01*
X113699500Y-104921153D01*
X113699500Y-105078846D01*
X113730261Y-105233489D01*
X113730264Y-105233501D01*
X113790602Y-105379172D01*
X113790609Y-105379185D01*
X113878210Y-105510288D01*
X113878213Y-105510292D01*
X113989707Y-105621786D01*
X113989711Y-105621789D01*
X114120814Y-105709390D01*
X114120827Y-105709397D01*
X114266498Y-105769735D01*
X114266503Y-105769737D01*
X114417875Y-105799847D01*
X114421153Y-105800499D01*
X114421156Y-105800500D01*
X114421158Y-105800500D01*
X114578844Y-105800500D01*
X114578845Y-105800499D01*
X114733497Y-105769737D01*
X114879179Y-105709394D01*
X115010289Y-105621789D01*
X115121789Y-105510289D01*
X115209394Y-105379179D01*
X115269737Y-105233497D01*
X115300500Y-105078842D01*
X115300500Y-104921158D01*
X115300500Y-104921155D01*
X115300499Y-104921153D01*
X115269738Y-104766510D01*
X115269737Y-104766503D01*
X115269735Y-104766498D01*
X115209397Y-104620827D01*
X115209391Y-104620816D01*
X115203989Y-104612731D01*
X115203988Y-104612730D01*
X115161213Y-104548713D01*
X168609500Y-104548713D01*
X168609500Y-104761287D01*
X168642754Y-104971243D01*
X168692611Y-105124687D01*
X168708444Y-105173414D01*
X168804951Y-105362820D01*
X168929890Y-105534786D01*
X169080213Y-105685109D01*
X169252182Y-105810050D01*
X169260946Y-105814516D01*
X169311742Y-105862491D01*
X169328536Y-105930312D01*
X169305998Y-105996447D01*
X169260946Y-106035484D01*
X169252182Y-106039949D01*
X169080213Y-106164890D01*
X168929890Y-106315213D01*
X168804951Y-106487179D01*
X168708444Y-106676585D01*
X168708443Y-106676587D01*
X168708443Y-106676588D01*
X168690000Y-106733349D01*
X168642753Y-106878760D01*
X168609500Y-107088713D01*
X168609500Y-107301286D01*
X168642753Y-107511239D01*
X168708444Y-107713414D01*
X168804951Y-107902820D01*
X168929890Y-108074786D01*
X169080213Y-108225109D01*
X169252182Y-108350050D01*
X169260946Y-108354516D01*
X169311742Y-108402491D01*
X169328536Y-108470312D01*
X169305998Y-108536447D01*
X169260946Y-108575484D01*
X169252182Y-108579949D01*
X169080213Y-108704890D01*
X168929890Y-108855213D01*
X168804951Y-109027179D01*
X168708444Y-109216585D01*
X168642753Y-109418760D01*
X168609500Y-109628713D01*
X168609500Y-109841286D01*
X168642753Y-110051239D01*
X168708444Y-110253414D01*
X168804951Y-110442820D01*
X168929890Y-110614786D01*
X169080213Y-110765109D01*
X169252182Y-110890050D01*
X169260946Y-110894516D01*
X169311742Y-110942491D01*
X169328536Y-111010312D01*
X169305998Y-111076447D01*
X169260946Y-111115484D01*
X169252182Y-111119949D01*
X169080213Y-111244890D01*
X168929890Y-111395213D01*
X168804951Y-111567179D01*
X168708444Y-111756585D01*
X168642753Y-111958760D01*
X168609500Y-112168713D01*
X168609500Y-112381286D01*
X168632444Y-112526153D01*
X168642754Y-112591243D01*
X168707532Y-112790609D01*
X168708444Y-112793414D01*
X168804951Y-112982820D01*
X168929890Y-113154786D01*
X169080213Y-113305109D01*
X169252179Y-113430048D01*
X169252181Y-113430049D01*
X169252184Y-113430051D01*
X169261493Y-113434794D01*
X169312290Y-113482766D01*
X169329087Y-113550587D01*
X169306552Y-113616722D01*
X169261505Y-113655760D01*
X169252446Y-113660376D01*
X169252440Y-113660380D01*
X169198282Y-113699727D01*
X169198282Y-113699728D01*
X169830591Y-114332037D01*
X169767007Y-114349075D01*
X169652993Y-114414901D01*
X169559901Y-114507993D01*
X169494075Y-114622007D01*
X169477037Y-114685591D01*
X168844728Y-114053282D01*
X168844727Y-114053282D01*
X168805380Y-114107439D01*
X168708904Y-114296782D01*
X168643242Y-114498869D01*
X168643242Y-114498872D01*
X168610000Y-114708753D01*
X168610000Y-114921246D01*
X168643242Y-115131127D01*
X168643242Y-115131130D01*
X168708904Y-115333217D01*
X168805375Y-115522550D01*
X168844728Y-115576716D01*
X169477036Y-114944407D01*
X169494075Y-115007993D01*
X169559901Y-115122007D01*
X169652993Y-115215099D01*
X169767007Y-115280925D01*
X169830590Y-115297962D01*
X169160370Y-115968181D01*
X169099047Y-116001666D01*
X169072698Y-116004500D01*
X169062134Y-116004500D01*
X169062123Y-116004501D01*
X169002516Y-116010908D01*
X168867671Y-116061202D01*
X168867664Y-116061206D01*
X168752455Y-116147452D01*
X168752452Y-116147455D01*
X168666206Y-116262664D01*
X168666202Y-116262671D01*
X168615908Y-116397517D01*
X168609501Y-116457116D01*
X168609500Y-116457135D01*
X168609500Y-118252870D01*
X168609501Y-118252876D01*
X168615908Y-118312483D01*
X168666202Y-118447328D01*
X168666206Y-118447335D01*
X168752452Y-118562544D01*
X168752455Y-118562547D01*
X168867664Y-118648793D01*
X168867671Y-118648797D01*
X169002517Y-118699091D01*
X169002516Y-118699091D01*
X169006321Y-118699500D01*
X169062127Y-118705500D01*
X170857872Y-118705499D01*
X170917483Y-118699091D01*
X171052331Y-118648796D01*
X171167546Y-118562546D01*
X171253796Y-118447331D01*
X171302810Y-118315916D01*
X171344681Y-118259984D01*
X171410145Y-118235566D01*
X171478418Y-118250417D01*
X171506673Y-118271569D01*
X171620213Y-118385109D01*
X171792179Y-118510048D01*
X171792181Y-118510049D01*
X171792184Y-118510051D01*
X171981588Y-118606557D01*
X172183757Y-118672246D01*
X172393713Y-118705500D01*
X172393714Y-118705500D01*
X172606286Y-118705500D01*
X172606287Y-118705500D01*
X172816243Y-118672246D01*
X173018412Y-118606557D01*
X173207816Y-118510051D01*
X173294138Y-118447335D01*
X173379786Y-118385109D01*
X173379788Y-118385106D01*
X173379792Y-118385104D01*
X173530104Y-118234792D01*
X173530106Y-118234788D01*
X173530109Y-118234786D01*
X173655048Y-118062820D01*
X173655047Y-118062820D01*
X173655051Y-118062816D01*
X173751557Y-117873412D01*
X173817246Y-117671243D01*
X173850500Y-117461287D01*
X173850500Y-117248713D01*
X173817246Y-117038757D01*
X173751557Y-116836588D01*
X173655051Y-116647184D01*
X173655049Y-116647181D01*
X173655048Y-116647179D01*
X173530109Y-116475213D01*
X173379786Y-116324890D01*
X173207820Y-116199951D01*
X173207115Y-116199591D01*
X173199054Y-116195485D01*
X173148259Y-116147512D01*
X173131463Y-116079692D01*
X173153999Y-116013556D01*
X173199054Y-115974515D01*
X173207816Y-115970051D01*
X173229789Y-115954086D01*
X173379786Y-115845109D01*
X173379788Y-115845106D01*
X173379792Y-115845104D01*
X173530104Y-115694792D01*
X173530106Y-115694788D01*
X173530109Y-115694786D01*
X173655048Y-115522820D01*
X173655050Y-115522817D01*
X173655051Y-115522816D01*
X173751557Y-115333412D01*
X173817246Y-115131243D01*
X173850500Y-114921287D01*
X173850500Y-114708713D01*
X173817246Y-114498757D01*
X173751557Y-114296588D01*
X173655051Y-114107184D01*
X173655049Y-114107181D01*
X173655048Y-114107179D01*
X173530109Y-113935213D01*
X173379786Y-113784890D01*
X173207820Y-113659951D01*
X173199600Y-113655763D01*
X173199054Y-113655485D01*
X173148259Y-113607512D01*
X173131463Y-113539692D01*
X173153999Y-113473556D01*
X173199054Y-113434515D01*
X173207816Y-113430051D01*
X173304823Y-113359572D01*
X173379786Y-113305109D01*
X173379788Y-113305106D01*
X173379792Y-113305104D01*
X173530104Y-113154792D01*
X173530106Y-113154788D01*
X173530109Y-113154786D01*
X173639086Y-113004789D01*
X173655051Y-112982816D01*
X173751557Y-112793412D01*
X173817246Y-112591243D01*
X173850500Y-112381287D01*
X173850500Y-112168713D01*
X173817246Y-111958757D01*
X173751557Y-111756588D01*
X173655051Y-111567184D01*
X173655049Y-111567181D01*
X173655048Y-111567179D01*
X173530109Y-111395213D01*
X173379786Y-111244890D01*
X173207820Y-111119951D01*
X173207115Y-111119591D01*
X173199054Y-111115485D01*
X173148259Y-111067512D01*
X173131463Y-110999692D01*
X173153999Y-110933556D01*
X173199054Y-110894515D01*
X173207816Y-110890051D01*
X173229789Y-110874086D01*
X173379786Y-110765109D01*
X173379788Y-110765106D01*
X173379792Y-110765104D01*
X173530104Y-110614792D01*
X173530106Y-110614788D01*
X173530109Y-110614786D01*
X173655048Y-110442820D01*
X173655047Y-110442820D01*
X173655051Y-110442816D01*
X173751557Y-110253412D01*
X173817246Y-110051243D01*
X173850500Y-109841287D01*
X173850500Y-109628713D01*
X173817246Y-109418757D01*
X173751557Y-109216588D01*
X173655051Y-109027184D01*
X173655049Y-109027181D01*
X173655048Y-109027179D01*
X173530109Y-108855213D01*
X173379786Y-108704890D01*
X173207820Y-108579951D01*
X173205643Y-108578842D01*
X173199054Y-108575485D01*
X173148259Y-108527512D01*
X173131463Y-108459692D01*
X173153999Y-108393556D01*
X173199054Y-108354515D01*
X173207816Y-108350051D01*
X173229789Y-108334086D01*
X173379786Y-108225109D01*
X173379788Y-108225106D01*
X173379792Y-108225104D01*
X173530104Y-108074792D01*
X173530106Y-108074788D01*
X173530109Y-108074786D01*
X173655048Y-107902820D01*
X173655047Y-107902820D01*
X173655051Y-107902816D01*
X173751557Y-107713412D01*
X173817246Y-107511243D01*
X173850500Y-107301287D01*
X173850500Y-107088713D01*
X173817246Y-106878757D01*
X173751557Y-106676588D01*
X173655051Y-106487184D01*
X173655049Y-106487181D01*
X173655048Y-106487179D01*
X173530109Y-106315213D01*
X173379786Y-106164890D01*
X173207820Y-106039951D01*
X173207115Y-106039591D01*
X173199054Y-106035485D01*
X173148259Y-105987512D01*
X173131463Y-105919692D01*
X173153999Y-105853556D01*
X173199054Y-105814515D01*
X173207816Y-105810051D01*
X173240581Y-105786246D01*
X173379786Y-105685109D01*
X173379788Y-105685106D01*
X173379792Y-105685104D01*
X173530104Y-105534792D01*
X173530106Y-105534788D01*
X173530109Y-105534786D01*
X173655048Y-105362820D01*
X173655047Y-105362820D01*
X173655051Y-105362816D01*
X173751557Y-105173412D01*
X173817246Y-104971243D01*
X173850500Y-104761287D01*
X173850500Y-104548713D01*
X173817246Y-104338757D01*
X173751557Y-104136588D01*
X173655051Y-103947184D01*
X173655049Y-103947181D01*
X173655048Y-103947179D01*
X173530109Y-103775213D01*
X173379786Y-103624890D01*
X173207820Y-103499951D01*
X173207115Y-103499591D01*
X173199054Y-103495485D01*
X173148259Y-103447512D01*
X173131463Y-103379692D01*
X173153999Y-103313556D01*
X173199054Y-103274515D01*
X173207816Y-103270051D01*
X173262572Y-103230269D01*
X173379786Y-103145109D01*
X173379788Y-103145106D01*
X173379792Y-103145104D01*
X173530104Y-102994792D01*
X173530106Y-102994788D01*
X173530109Y-102994786D01*
X173655048Y-102822820D01*
X173655050Y-102822817D01*
X173655051Y-102822816D01*
X173751557Y-102633412D01*
X173817246Y-102431243D01*
X173850500Y-102221287D01*
X173850500Y-102008713D01*
X173817246Y-101798757D01*
X173751557Y-101596588D01*
X173655051Y-101407184D01*
X173655049Y-101407181D01*
X173655048Y-101407179D01*
X173530109Y-101235213D01*
X173379786Y-101084890D01*
X173207820Y-100959951D01*
X173018414Y-100863444D01*
X173018413Y-100863443D01*
X173018412Y-100863443D01*
X172816243Y-100797754D01*
X172816241Y-100797753D01*
X172816240Y-100797753D01*
X172654957Y-100772208D01*
X172606287Y-100764500D01*
X172393713Y-100764500D01*
X172345042Y-100772208D01*
X172183760Y-100797753D01*
X171981585Y-100863444D01*
X171792179Y-100959951D01*
X171620213Y-101084890D01*
X171469890Y-101235213D01*
X171344949Y-101407182D01*
X171340202Y-101416499D01*
X171292227Y-101467293D01*
X171224405Y-101484087D01*
X171158271Y-101461548D01*
X171119234Y-101416495D01*
X171114626Y-101407452D01*
X171075270Y-101353282D01*
X171075269Y-101353282D01*
X170442962Y-101985590D01*
X170425925Y-101922007D01*
X170360099Y-101807993D01*
X170267007Y-101714901D01*
X170152993Y-101649075D01*
X170089409Y-101632037D01*
X170721716Y-100999728D01*
X170667550Y-100960375D01*
X170478217Y-100863904D01*
X170276129Y-100798242D01*
X170066246Y-100765000D01*
X169853754Y-100765000D01*
X169643872Y-100798242D01*
X169643869Y-100798242D01*
X169441782Y-100863904D01*
X169252439Y-100960380D01*
X169198282Y-100999727D01*
X169198282Y-100999728D01*
X169830591Y-101632037D01*
X169767007Y-101649075D01*
X169652993Y-101714901D01*
X169559901Y-101807993D01*
X169494075Y-101922007D01*
X169477037Y-101985591D01*
X168844728Y-101353282D01*
X168844727Y-101353282D01*
X168805380Y-101407439D01*
X168708904Y-101596782D01*
X168643242Y-101798869D01*
X168643242Y-101798872D01*
X168610000Y-102008753D01*
X168610000Y-102221246D01*
X168643242Y-102431127D01*
X168643242Y-102431130D01*
X168708904Y-102633217D01*
X168805375Y-102822550D01*
X168844728Y-102876716D01*
X169477036Y-102244407D01*
X169494075Y-102307993D01*
X169559901Y-102422007D01*
X169652993Y-102515099D01*
X169767007Y-102580925D01*
X169830590Y-102597962D01*
X169198282Y-103230269D01*
X169198282Y-103230270D01*
X169252452Y-103269626D01*
X169252451Y-103269626D01*
X169261495Y-103274234D01*
X169312292Y-103322208D01*
X169329087Y-103390029D01*
X169306550Y-103456164D01*
X169261499Y-103495202D01*
X169252182Y-103499949D01*
X169080213Y-103624890D01*
X168929890Y-103775213D01*
X168804951Y-103947179D01*
X168708444Y-104136585D01*
X168642753Y-104338760D01*
X168618846Y-104489707D01*
X168609500Y-104548713D01*
X115161213Y-104548713D01*
X115121789Y-104489711D01*
X115121786Y-104489707D01*
X115010292Y-104378213D01*
X115010288Y-104378210D01*
X114879185Y-104290609D01*
X114879172Y-104290602D01*
X114733501Y-104230264D01*
X114733489Y-104230261D01*
X114578845Y-104199500D01*
X114578842Y-104199500D01*
X114421158Y-104199500D01*
X114421155Y-104199500D01*
X114266510Y-104230261D01*
X114266498Y-104230264D01*
X114120827Y-104290602D01*
X114120814Y-104290609D01*
X113989711Y-104378210D01*
X113989707Y-104378213D01*
X113878213Y-104489707D01*
X113878210Y-104489711D01*
X113790609Y-104620814D01*
X113790602Y-104620827D01*
X113730264Y-104766498D01*
X113730261Y-104766510D01*
X113699500Y-104921153D01*
X84181047Y-104921153D01*
X84274815Y-104827385D01*
X84362698Y-104739501D01*
X84331068Y-104718367D01*
X84331061Y-104718363D01*
X84151807Y-104644114D01*
X84151799Y-104644112D01*
X83961510Y-104606261D01*
X83767476Y-104606261D01*
X83577186Y-104644112D01*
X83577178Y-104644114D01*
X83397921Y-104718364D01*
X83397919Y-104718365D01*
X83366287Y-104739501D01*
X78000499Y-104739501D01*
X78000499Y-102921153D01*
X111699500Y-102921153D01*
X111699500Y-103078846D01*
X111730261Y-103233489D01*
X111730264Y-103233501D01*
X111790602Y-103379172D01*
X111790609Y-103379185D01*
X111878210Y-103510288D01*
X111878213Y-103510292D01*
X111989707Y-103621786D01*
X111989711Y-103621789D01*
X112120814Y-103709390D01*
X112120827Y-103709397D01*
X112266498Y-103769735D01*
X112266503Y-103769737D01*
X112421153Y-103800499D01*
X112421156Y-103800500D01*
X112421158Y-103800500D01*
X112578844Y-103800500D01*
X112578845Y-103800499D01*
X112733497Y-103769737D01*
X112879179Y-103709394D01*
X113010289Y-103621789D01*
X113121789Y-103510289D01*
X113209394Y-103379179D01*
X113269737Y-103233497D01*
X113300500Y-103078842D01*
X113300500Y-102921158D01*
X113300500Y-102921155D01*
X113300499Y-102921153D01*
X113280939Y-102822820D01*
X113269737Y-102766503D01*
X113269735Y-102766498D01*
X113209397Y-102620827D01*
X113209390Y-102620814D01*
X113121789Y-102489711D01*
X113121786Y-102489707D01*
X113010292Y-102378213D01*
X113010288Y-102378210D01*
X112879185Y-102290609D01*
X112879172Y-102290602D01*
X112733501Y-102230264D01*
X112733489Y-102230261D01*
X112578845Y-102199500D01*
X112578842Y-102199500D01*
X112421158Y-102199500D01*
X112421155Y-102199500D01*
X112266510Y-102230261D01*
X112266498Y-102230264D01*
X112120827Y-102290602D01*
X112120814Y-102290609D01*
X111989711Y-102378210D01*
X111989707Y-102378213D01*
X111878213Y-102489707D01*
X111878210Y-102489711D01*
X111790609Y-102620814D01*
X111790602Y-102620827D01*
X111730264Y-102766498D01*
X111730261Y-102766510D01*
X111699500Y-102921153D01*
X78000499Y-102921153D01*
X78000499Y-97683019D01*
X83366287Y-97683019D01*
X83366287Y-97683020D01*
X83397924Y-97704159D01*
X83577174Y-97778406D01*
X83577186Y-97778409D01*
X83767474Y-97816260D01*
X83767477Y-97816261D01*
X83961509Y-97816261D01*
X83961511Y-97816260D01*
X84151799Y-97778409D01*
X84151811Y-97778406D01*
X84331058Y-97704160D01*
X84362697Y-97683019D01*
X83864494Y-97184815D01*
X83864493Y-97184815D01*
X83366287Y-97683019D01*
X78000499Y-97683019D01*
X78000499Y-96734242D01*
X82879493Y-96734242D01*
X82879493Y-96928279D01*
X82917344Y-97118567D01*
X82917346Y-97118575D01*
X82991595Y-97297829D01*
X82991599Y-97297836D01*
X83012733Y-97329465D01*
X83012734Y-97329466D01*
X83510939Y-96831261D01*
X83465189Y-96785511D01*
X83634493Y-96785511D01*
X83634493Y-96877011D01*
X83669508Y-96961546D01*
X83734208Y-97026246D01*
X83818743Y-97061261D01*
X83910243Y-97061261D01*
X83994778Y-97026246D01*
X84059478Y-96961546D01*
X84094493Y-96877011D01*
X84094493Y-96831260D01*
X84218047Y-96831260D01*
X84218047Y-96831261D01*
X84716251Y-97329465D01*
X84737392Y-97297826D01*
X84811638Y-97118579D01*
X84811641Y-97118567D01*
X84849492Y-96928279D01*
X84849493Y-96928277D01*
X84849493Y-96734244D01*
X84849492Y-96734242D01*
X84811641Y-96543954D01*
X84811638Y-96543942D01*
X84737391Y-96364692D01*
X84716251Y-96333055D01*
X84218047Y-96831260D01*
X84094493Y-96831260D01*
X84094493Y-96785511D01*
X84059478Y-96700976D01*
X83994778Y-96636276D01*
X83910243Y-96601261D01*
X83818743Y-96601261D01*
X83734208Y-96636276D01*
X83669508Y-96700976D01*
X83634493Y-96785511D01*
X83465189Y-96785511D01*
X83012733Y-96333055D01*
X82991597Y-96364687D01*
X82991596Y-96364689D01*
X82917346Y-96543946D01*
X82917344Y-96543954D01*
X82879493Y-96734242D01*
X78000499Y-96734242D01*
X78000499Y-95979501D01*
X83366287Y-95979501D01*
X83864493Y-96477707D01*
X83864494Y-96477707D01*
X84362698Y-95979502D01*
X84362697Y-95979501D01*
X84331068Y-95958367D01*
X84331061Y-95958363D01*
X84151807Y-95884114D01*
X84151799Y-95884112D01*
X83961510Y-95846261D01*
X83767476Y-95846261D01*
X83577186Y-95884112D01*
X83577178Y-95884114D01*
X83397921Y-95958364D01*
X83397919Y-95958365D01*
X83366287Y-95979501D01*
X78000499Y-95979501D01*
X78000499Y-95609568D01*
X122999500Y-95609568D01*
X122999500Y-95890431D01*
X123030942Y-96169494D01*
X123030945Y-96169512D01*
X123093439Y-96443317D01*
X123093443Y-96443329D01*
X123186200Y-96708411D01*
X123308053Y-96961442D01*
X123308055Y-96961445D01*
X123457477Y-97199248D01*
X123632584Y-97418825D01*
X123831175Y-97617416D01*
X124050752Y-97792523D01*
X124288555Y-97941945D01*
X124541592Y-98063801D01*
X124740680Y-98133465D01*
X124806670Y-98156556D01*
X124806682Y-98156560D01*
X125080491Y-98219055D01*
X125080497Y-98219055D01*
X125080505Y-98219057D01*
X125266547Y-98240018D01*
X125359569Y-98250499D01*
X125359572Y-98250500D01*
X125359575Y-98250500D01*
X125640428Y-98250500D01*
X125640429Y-98250499D01*
X125783055Y-98234429D01*
X125919494Y-98219057D01*
X125919499Y-98219056D01*
X125919509Y-98219055D01*
X126193318Y-98156560D01*
X126458408Y-98063801D01*
X126711445Y-97941945D01*
X126949248Y-97792523D01*
X127168825Y-97617416D01*
X127367416Y-97418825D01*
X127542523Y-97199248D01*
X127691945Y-96961445D01*
X127813801Y-96708408D01*
X127906560Y-96443318D01*
X127969055Y-96169509D01*
X127972332Y-96140431D01*
X127984429Y-96033055D01*
X128000500Y-95890425D01*
X128000500Y-95859568D01*
X170999500Y-95859568D01*
X170999500Y-96140431D01*
X171030942Y-96419494D01*
X171030945Y-96419512D01*
X171093439Y-96693317D01*
X171093443Y-96693329D01*
X171186200Y-96958411D01*
X171308053Y-97211442D01*
X171308055Y-97211445D01*
X171457477Y-97449248D01*
X171632584Y-97668825D01*
X171831175Y-97867416D01*
X172050752Y-98042523D01*
X172288555Y-98191945D01*
X172288557Y-98191946D01*
X172344850Y-98219055D01*
X172541592Y-98313801D01*
X172740680Y-98383465D01*
X172806670Y-98406556D01*
X172806682Y-98406560D01*
X173080491Y-98469055D01*
X173080497Y-98469055D01*
X173080505Y-98469057D01*
X173266547Y-98490018D01*
X173359569Y-98500499D01*
X173359572Y-98500500D01*
X173359575Y-98500500D01*
X173640428Y-98500500D01*
X173640429Y-98500499D01*
X173783055Y-98484429D01*
X173919494Y-98469057D01*
X173919499Y-98469056D01*
X173919509Y-98469055D01*
X174193318Y-98406560D01*
X174458408Y-98313801D01*
X174711445Y-98191945D01*
X174949248Y-98042523D01*
X175168825Y-97867416D01*
X175367416Y-97668825D01*
X175542523Y-97449248D01*
X175691945Y-97211445D01*
X175813801Y-96958408D01*
X175906560Y-96693318D01*
X175969055Y-96419509D01*
X175975232Y-96364692D01*
X175984429Y-96283055D01*
X176000500Y-96140425D01*
X176000500Y-95859575D01*
X175972332Y-95609572D01*
X175969057Y-95580505D01*
X175969054Y-95580487D01*
X175906560Y-95306682D01*
X175906556Y-95306670D01*
X175883465Y-95240680D01*
X175813801Y-95041592D01*
X175691945Y-94788555D01*
X175542523Y-94550752D01*
X175367416Y-94331175D01*
X175168825Y-94132584D01*
X174949248Y-93957477D01*
X174711445Y-93808055D01*
X174711442Y-93808053D01*
X174458411Y-93686200D01*
X174193329Y-93593443D01*
X174193317Y-93593439D01*
X173919512Y-93530945D01*
X173919494Y-93530942D01*
X173640431Y-93499500D01*
X173640425Y-93499500D01*
X173359575Y-93499500D01*
X173359568Y-93499500D01*
X173080505Y-93530942D01*
X173080487Y-93530945D01*
X172806682Y-93593439D01*
X172806670Y-93593443D01*
X172541588Y-93686200D01*
X172288557Y-93808053D01*
X172050753Y-93957476D01*
X171831175Y-94132583D01*
X171632583Y-94331175D01*
X171457476Y-94550753D01*
X171308053Y-94788557D01*
X171186200Y-95041588D01*
X171093443Y-95306670D01*
X171093439Y-95306682D01*
X171030945Y-95580487D01*
X171030942Y-95580505D01*
X170999500Y-95859568D01*
X128000500Y-95859568D01*
X128000500Y-95609575D01*
X127969055Y-95330491D01*
X127906560Y-95056682D01*
X127901278Y-95041588D01*
X127883465Y-94990680D01*
X127813801Y-94791592D01*
X127691945Y-94538555D01*
X127542523Y-94300752D01*
X127367416Y-94081175D01*
X127168825Y-93882584D01*
X126949248Y-93707477D01*
X126711445Y-93558055D01*
X126711442Y-93558053D01*
X126458411Y-93436200D01*
X126193329Y-93343443D01*
X126193317Y-93343439D01*
X125919512Y-93280945D01*
X125919494Y-93280942D01*
X125640431Y-93249500D01*
X125640425Y-93249500D01*
X125359575Y-93249500D01*
X125359568Y-93249500D01*
X125080505Y-93280942D01*
X125080487Y-93280945D01*
X124806682Y-93343439D01*
X124806670Y-93343443D01*
X124541588Y-93436200D01*
X124288557Y-93558053D01*
X124050753Y-93707476D01*
X123831175Y-93882583D01*
X123632583Y-94081175D01*
X123457476Y-94300753D01*
X123308053Y-94538557D01*
X123186200Y-94791588D01*
X123093443Y-95056670D01*
X123093439Y-95056682D01*
X123030945Y-95330487D01*
X123030942Y-95330505D01*
X122999500Y-95609568D01*
X78000499Y-95609568D01*
X78000499Y-93124500D01*
X78020184Y-93057461D01*
X78072988Y-93011706D01*
X78124499Y-93000500D01*
X176375499Y-93000500D01*
X176442538Y-93020185D01*
G37*
%TD.AperFunction*%
%TD*%
M02*
