%TF.GenerationSoftware,KiCad,Pcbnew,9.0.6*%
%TF.CreationDate,2026-03-06T13:06:01+00:00*%
%TF.ProjectId,SPI_adapter,5350495f-6164-4617-9074-65722e6b6963,rev?*%
%TF.SameCoordinates,Original*%
%TF.FileFunction,Copper,L4,Bot*%
%TF.FilePolarity,Positive*%
%FSLAX46Y46*%
G04 Gerber Fmt 4.6, Leading zero omitted, Abs format (unit mm)*
G04 Created by KiCad (PCBNEW 9.0.6) date 2026-03-06 13:06:01*
%MOMM*%
%LPD*%
G01*
G04 APERTURE LIST*
%TA.AperFunction,SMDPad,CuDef*%
%ADD10R,5.080000X2.420000*%
%TD*%
%TA.AperFunction,SMDPad,CuDef*%
%ADD11R,0.950000X0.460000*%
%TD*%
%TA.AperFunction,ComponentPad*%
%ADD12C,0.970000*%
%TD*%
%TA.AperFunction,ComponentPad*%
%ADD13R,1.700000X1.700000*%
%TD*%
%TA.AperFunction,ComponentPad*%
%ADD14C,1.700000*%
%TD*%
%TA.AperFunction,ViaPad*%
%ADD15C,0.600000*%
%TD*%
%TA.AperFunction,Conductor*%
%ADD16C,0.200000*%
%TD*%
G04 APERTURE END LIST*
D10*
%TO.P,J2,2,Ext*%
%TO.N,GND*%
X80424493Y-96831261D03*
X80424493Y-105591261D03*
D11*
X83414493Y-96831261D03*
X83414493Y-105591261D03*
D12*
X83864493Y-96831261D03*
X83864493Y-105591261D03*
%TD*%
D13*
%TO.P,J1,1,Pin_1*%
%TO.N,/RX_SWITCH*%
X169960000Y-117355000D03*
D14*
%TO.P,J1,2,Pin_2*%
%TO.N,/TX_SWITCH*%
X172500000Y-117355000D03*
%TO.P,J1,3,Pin_3*%
%TO.N,GND*%
X169960000Y-114815000D03*
%TO.P,J1,4,Pin_4*%
%TO.N,/RADIO_BUSY*%
X172500000Y-114815000D03*
%TO.P,J1,5,Pin_5*%
%TO.N,/RADIO_DIO1*%
X169960000Y-112275000D03*
%TO.P,J1,6,Pin_6*%
%TO.N,/RADIO_RST*%
X172500000Y-112275000D03*
%TO.P,J1,7,Pin_7*%
%TO.N,/RADIO_TX*%
X169960000Y-109735000D03*
%TO.P,J1,8,Pin_8*%
%TO.N,/RADIO_RX*%
X172500000Y-109735000D03*
%TO.P,J1,9,Pin_9*%
%TO.N,/SPI_CS*%
X169960000Y-107195000D03*
%TO.P,J1,10,Pin_10*%
%TO.N,/SPI_MISO*%
X172500000Y-107195000D03*
%TO.P,J1,11,Pin_11*%
%TO.N,/SPI_MOSI*%
X169960000Y-104655000D03*
%TO.P,J1,12,Pin_12*%
%TO.N,/SPI_SCK*%
X172500000Y-104655000D03*
%TO.P,J1,13,Pin_13*%
%TO.N,GND*%
X169960000Y-102115000D03*
%TO.P,J1,14,Pin_14*%
%TO.N,+3.3V*%
X172500000Y-102115000D03*
%TD*%
D15*
%TO.N,+3.3V*%
X96681350Y-106310140D03*
%TO.N,GND*%
X88369767Y-99766016D03*
X140668627Y-102000000D03*
X88374638Y-102559484D03*
X158889839Y-103383138D03*
X83927854Y-103484804D03*
X89209438Y-99757360D03*
X85552404Y-105598467D03*
X89214309Y-102550828D03*
X85781500Y-99774672D03*
X143782939Y-115500414D03*
X87495753Y-102562369D03*
X133686151Y-110000000D03*
X85023414Y-99811320D03*
X143668627Y-102000000D03*
X87490882Y-99768901D03*
X86621172Y-99783329D03*
X83892917Y-95065089D03*
X133500000Y-118500000D03*
X83840512Y-107677193D03*
X136686151Y-110000000D03*
X100773836Y-115529493D03*
X86626043Y-102576797D03*
X140782939Y-115500414D03*
X85028285Y-102604788D03*
X85786371Y-102568140D03*
X155451609Y-106772122D03*
X155889839Y-103383138D03*
X85517468Y-96829386D03*
X83857980Y-98698493D03*
X130500000Y-118500000D03*
X158451609Y-106772122D03*
%TO.N,/RX_SWITCH*%
X103000000Y-116500000D03*
%TO.N,/TX_SWITCH*%
X103500000Y-119500000D03*
%TO.N,/SPI_MISO*%
X113500000Y-108500000D03*
%TO.N,/RADIO_DIO1*%
X95000000Y-113500000D03*
%TO.N,/SPI_CS*%
X114500000Y-105000000D03*
X112500000Y-103000000D03*
%TD*%
D16*
%TO.N,/SPI_SCK*%
X172500000Y-104655000D02*
X171233090Y-105921910D01*
X112578090Y-105921910D02*
X109500000Y-109000000D01*
X171233090Y-105921910D02*
X112578090Y-105921910D01*
%TO.N,/RX_SWITCH*%
X103000000Y-116500000D02*
X103855000Y-117355000D01*
X103855000Y-117355000D02*
X169960000Y-117355000D01*
%TO.N,/TX_SWITCH*%
X103890763Y-119890763D02*
X169964237Y-119890763D01*
X169964237Y-119890763D02*
X172500000Y-117355000D01*
X103500000Y-119500000D02*
X103890763Y-119890763D01*
%TO.N,/SPI_MISO*%
X172500000Y-107195000D02*
X171195000Y-108500000D01*
X171195000Y-108500000D02*
X113500000Y-108500000D01*
%TO.N,/RADIO_DIO1*%
X168735000Y-113500000D02*
X95000000Y-113500000D01*
X169960000Y-112275000D02*
X168735000Y-113500000D01*
%TO.N,/SPI_CS*%
X112500000Y-103000000D02*
X114500000Y-105000000D01*
%TD*%
%TA.AperFunction,Conductor*%
%TO.N,GND*%
G36*
X171075270Y-115576717D02*
G01*
X171075270Y-115576716D01*
X171114622Y-115522555D01*
X171119232Y-115513507D01*
X171167205Y-115462709D01*
X171235025Y-115445912D01*
X171301161Y-115468447D01*
X171340204Y-115513504D01*
X171344949Y-115522817D01*
X171469890Y-115694786D01*
X171620213Y-115845109D01*
X171792182Y-115970050D01*
X171800946Y-115974516D01*
X171851742Y-116022491D01*
X171868536Y-116090312D01*
X171845998Y-116156447D01*
X171800946Y-116195484D01*
X171792182Y-116199949D01*
X171620215Y-116324889D01*
X171506673Y-116438431D01*
X171445350Y-116471915D01*
X171375658Y-116466931D01*
X171319725Y-116425059D01*
X171302810Y-116394082D01*
X171253797Y-116262671D01*
X171253793Y-116262664D01*
X171167547Y-116147455D01*
X171167544Y-116147452D01*
X171052335Y-116061206D01*
X171052328Y-116061202D01*
X170917482Y-116010908D01*
X170917483Y-116010908D01*
X170857883Y-116004501D01*
X170857881Y-116004500D01*
X170857873Y-116004500D01*
X170857865Y-116004500D01*
X170847309Y-116004500D01*
X170780270Y-115984815D01*
X170759628Y-115968181D01*
X170089408Y-115297962D01*
X170152993Y-115280925D01*
X170267007Y-115215099D01*
X170360099Y-115122007D01*
X170425925Y-115007993D01*
X170442962Y-114944408D01*
X171075270Y-115576717D01*
G37*
%TD.AperFunction*%
%TA.AperFunction,Conductor*%
G36*
X171301444Y-112928999D02*
G01*
X171340486Y-112974056D01*
X171344951Y-112982820D01*
X171469890Y-113154786D01*
X171620213Y-113305109D01*
X171792182Y-113430050D01*
X171800946Y-113434516D01*
X171851742Y-113482491D01*
X171868536Y-113550312D01*
X171845998Y-113616447D01*
X171800946Y-113655484D01*
X171792182Y-113659949D01*
X171620213Y-113784890D01*
X171469890Y-113935213D01*
X171344949Y-114107182D01*
X171340202Y-114116499D01*
X171292227Y-114167293D01*
X171224405Y-114184087D01*
X171158271Y-114161548D01*
X171119234Y-114116495D01*
X171114626Y-114107452D01*
X171075270Y-114053282D01*
X171075269Y-114053282D01*
X170442962Y-114685590D01*
X170425925Y-114622007D01*
X170360099Y-114507993D01*
X170267007Y-114414901D01*
X170152993Y-114349075D01*
X170089408Y-114332037D01*
X170721716Y-113699728D01*
X170667547Y-113660373D01*
X170667547Y-113660372D01*
X170658500Y-113655763D01*
X170607706Y-113607788D01*
X170590912Y-113539966D01*
X170613451Y-113473832D01*
X170658508Y-113434793D01*
X170667816Y-113430051D01*
X170764828Y-113359568D01*
X170839786Y-113305109D01*
X170839788Y-113305106D01*
X170839792Y-113305104D01*
X170990104Y-113154792D01*
X170990106Y-113154788D01*
X170990109Y-113154786D01*
X171099086Y-113004789D01*
X171115051Y-112982816D01*
X171119514Y-112974054D01*
X171167488Y-112923259D01*
X171235308Y-112906463D01*
X171301444Y-112928999D01*
G37*
%TD.AperFunction*%
%TA.AperFunction,Conductor*%
G36*
X171075270Y-102876717D02*
G01*
X171075270Y-102876716D01*
X171114622Y-102822555D01*
X171119232Y-102813507D01*
X171167205Y-102762709D01*
X171235025Y-102745912D01*
X171301161Y-102768447D01*
X171340204Y-102813504D01*
X171344949Y-102822817D01*
X171469890Y-102994786D01*
X171620213Y-103145109D01*
X171792182Y-103270050D01*
X171800946Y-103274516D01*
X171851742Y-103322491D01*
X171868536Y-103390312D01*
X171845998Y-103456447D01*
X171800946Y-103495484D01*
X171792182Y-103499949D01*
X171620213Y-103624890D01*
X171469890Y-103775213D01*
X171344949Y-103947182D01*
X171340484Y-103955946D01*
X171292509Y-104006742D01*
X171224688Y-104023536D01*
X171158553Y-104000998D01*
X171119516Y-103955946D01*
X171115050Y-103947182D01*
X170990109Y-103775213D01*
X170839786Y-103624890D01*
X170667817Y-103499949D01*
X170658504Y-103495204D01*
X170607707Y-103447230D01*
X170590912Y-103379409D01*
X170613449Y-103313274D01*
X170658507Y-103274232D01*
X170667555Y-103269622D01*
X170721716Y-103230270D01*
X170721717Y-103230270D01*
X170089408Y-102597962D01*
X170152993Y-102580925D01*
X170267007Y-102515099D01*
X170360099Y-102422007D01*
X170425925Y-102307993D01*
X170442962Y-102244408D01*
X171075270Y-102876717D01*
G37*
%TD.AperFunction*%
%TA.AperFunction,Conductor*%
G36*
X176442538Y-93020185D02*
G01*
X176488293Y-93072989D01*
X176499499Y-93124500D01*
X176499499Y-126375500D01*
X176479814Y-126442539D01*
X176427010Y-126488294D01*
X176375499Y-126499500D01*
X78124499Y-126499500D01*
X78057460Y-126479815D01*
X78011705Y-126427011D01*
X78000499Y-126375500D01*
X78000499Y-123359568D01*
X78499500Y-123359568D01*
X78499500Y-123640431D01*
X78530942Y-123919494D01*
X78530945Y-123919512D01*
X78593439Y-124193317D01*
X78593443Y-124193329D01*
X78686200Y-124458411D01*
X78808053Y-124711442D01*
X78808055Y-124711445D01*
X78957477Y-124949248D01*
X79132584Y-125168825D01*
X79331175Y-125367416D01*
X79550752Y-125542523D01*
X79788555Y-125691945D01*
X79788557Y-125691946D01*
X79844850Y-125719055D01*
X80041592Y-125813801D01*
X80207401Y-125871820D01*
X80306670Y-125906556D01*
X80306682Y-125906560D01*
X80580491Y-125969055D01*
X80580497Y-125969055D01*
X80580505Y-125969057D01*
X80766547Y-125990018D01*
X80859569Y-126000499D01*
X80859572Y-126000500D01*
X80859575Y-126000500D01*
X81140428Y-126000500D01*
X81140429Y-126000499D01*
X81283055Y-125984429D01*
X81419494Y-125969057D01*
X81419499Y-125969056D01*
X81419509Y-125969055D01*
X81693318Y-125906560D01*
X81958408Y-125813801D01*
X82211445Y-125691945D01*
X82449248Y-125542523D01*
X82668825Y-125367416D01*
X82867416Y-125168825D01*
X83042523Y-124949248D01*
X83191945Y-124711445D01*
X83313801Y-124458408D01*
X83406560Y-124193318D01*
X83469055Y-123919509D01*
X83500500Y-123640425D01*
X83500500Y-123359575D01*
X83472332Y-123109572D01*
X83469057Y-123080505D01*
X83469054Y-123080487D01*
X83406560Y-122806680D01*
X83406556Y-122806670D01*
X83383465Y-122740680D01*
X83313801Y-122541592D01*
X83191945Y-122288555D01*
X83042523Y-122050752D01*
X82867416Y-121831175D01*
X82668825Y-121632584D01*
X82449248Y-121457477D01*
X82211445Y-121308055D01*
X82211442Y-121308053D01*
X81958411Y-121186200D01*
X81693329Y-121093443D01*
X81693317Y-121093439D01*
X81419512Y-121030945D01*
X81419494Y-121030942D01*
X81140431Y-120999500D01*
X81140425Y-120999500D01*
X80859575Y-120999500D01*
X80859568Y-120999500D01*
X80580505Y-121030942D01*
X80580487Y-121030945D01*
X80306682Y-121093439D01*
X80306670Y-121093443D01*
X80041588Y-121186200D01*
X79788557Y-121308053D01*
X79550753Y-121457476D01*
X79331175Y-121632583D01*
X79132583Y-121831175D01*
X78957476Y-122050753D01*
X78808053Y-122288557D01*
X78686200Y-122541588D01*
X78593443Y-122806670D01*
X78593440Y-122806680D01*
X78530945Y-123080487D01*
X78530942Y-123080505D01*
X78499500Y-123359568D01*
X78000499Y-123359568D01*
X78000499Y-113359568D01*
X78499500Y-113359568D01*
X78499500Y-113640431D01*
X78530942Y-113919494D01*
X78530945Y-113919512D01*
X78593439Y-114193317D01*
X78593443Y-114193329D01*
X78686200Y-114458411D01*
X78808053Y-114711442D01*
X78808055Y-114711445D01*
X78957477Y-114949248D01*
X79132584Y-115168825D01*
X79331175Y-115367416D01*
X79550752Y-115542523D01*
X79788555Y-115691945D01*
X80041592Y-115813801D01*
X80225662Y-115878210D01*
X80306670Y-115906556D01*
X80306682Y-115906560D01*
X80580491Y-115969055D01*
X80580497Y-115969055D01*
X80580505Y-115969057D01*
X80763784Y-115989707D01*
X80859569Y-116000499D01*
X80859572Y-116000500D01*
X80859575Y-116000500D01*
X81140428Y-116000500D01*
X81140429Y-116000499D01*
X81283055Y-115984429D01*
X81419494Y-115969057D01*
X81419499Y-115969056D01*
X81419509Y-115969055D01*
X81693318Y-115906560D01*
X81958408Y-115813801D01*
X82211445Y-115691945D01*
X82449248Y-115542523D01*
X82668825Y-115367416D01*
X82867416Y-115168825D01*
X83042523Y-114949248D01*
X83191945Y-114711445D01*
X83313801Y-114458408D01*
X83406560Y-114193318D01*
X83469055Y-113919509D01*
X83473599Y-113879185D01*
X83498252Y-113660373D01*
X83500500Y-113640425D01*
X83500500Y-113421153D01*
X94199500Y-113421153D01*
X94199500Y-113578846D01*
X94230261Y-113733489D01*
X94230264Y-113733501D01*
X94290602Y-113879172D01*
X94290609Y-113879185D01*
X94378210Y-114010288D01*
X94378213Y-114010292D01*
X94489707Y-114121786D01*
X94489711Y-114121789D01*
X94620814Y-114209390D01*
X94620827Y-114209397D01*
X94699894Y-114242147D01*
X94766503Y-114269737D01*
X94921153Y-114300499D01*
X94921156Y-114300500D01*
X94921158Y-114300500D01*
X95078844Y-114300500D01*
X95078845Y-114300499D01*
X95233497Y-114269737D01*
X95379179Y-114209394D01*
X95403222Y-114193329D01*
X95510875Y-114121398D01*
X95577553Y-114100520D01*
X95579766Y-114100500D01*
X168606566Y-114100500D01*
X168673605Y-114120185D01*
X168719360Y-114172989D01*
X168729304Y-114242147D01*
X168717050Y-114280796D01*
X168708905Y-114296780D01*
X168643242Y-114498869D01*
X168643242Y-114498872D01*
X168610000Y-114708753D01*
X168610000Y-114921246D01*
X168643242Y-115131127D01*
X168643242Y-115131130D01*
X168708904Y-115333217D01*
X168805375Y-115522550D01*
X168844728Y-115576716D01*
X169477037Y-114944408D01*
X169494075Y-115007993D01*
X169559901Y-115122007D01*
X169652993Y-115215099D01*
X169767007Y-115280925D01*
X169830590Y-115297962D01*
X169160370Y-115968181D01*
X169099047Y-116001666D01*
X169072698Y-116004500D01*
X169062134Y-116004500D01*
X169062123Y-116004501D01*
X169002516Y-116010908D01*
X168867671Y-116061202D01*
X168867664Y-116061206D01*
X168752455Y-116147452D01*
X168752452Y-116147455D01*
X168666206Y-116262664D01*
X168666202Y-116262671D01*
X168615908Y-116397517D01*
X168609501Y-116457116D01*
X168609500Y-116457135D01*
X168609500Y-116630500D01*
X168589815Y-116697539D01*
X168537011Y-116743294D01*
X168485500Y-116754500D01*
X104155098Y-116754500D01*
X104088059Y-116734815D01*
X104067417Y-116718181D01*
X103834573Y-116485337D01*
X103801088Y-116424014D01*
X103800637Y-116421847D01*
X103769738Y-116266510D01*
X103769737Y-116266503D01*
X103768147Y-116262664D01*
X103709397Y-116120827D01*
X103709390Y-116120814D01*
X103621789Y-115989711D01*
X103621786Y-115989707D01*
X103510292Y-115878213D01*
X103510288Y-115878210D01*
X103379185Y-115790609D01*
X103379172Y-115790602D01*
X103233501Y-115730264D01*
X103233489Y-115730261D01*
X103078845Y-115699500D01*
X103078842Y-115699500D01*
X102921158Y-115699500D01*
X102921155Y-115699500D01*
X102766510Y-115730261D01*
X102766498Y-115730264D01*
X102620827Y-115790602D01*
X102620814Y-115790609D01*
X102489711Y-115878210D01*
X102489707Y-115878213D01*
X102378213Y-115989707D01*
X102378210Y-115989711D01*
X102290609Y-116120814D01*
X102290602Y-116120827D01*
X102230264Y-116266498D01*
X102230261Y-116266510D01*
X102199500Y-116421153D01*
X102199500Y-116578846D01*
X102230261Y-116733489D01*
X102230264Y-116733501D01*
X102290602Y-116879172D01*
X102290609Y-116879185D01*
X102378210Y-117010288D01*
X102378213Y-117010292D01*
X102489707Y-117121786D01*
X102489711Y-117121789D01*
X102620814Y-117209390D01*
X102620827Y-117209397D01*
X102715746Y-117248713D01*
X102766503Y-117269737D01*
X102831147Y-117282595D01*
X102921849Y-117300638D01*
X102983760Y-117333023D01*
X102985335Y-117334570D01*
X103486284Y-117835520D01*
X103486286Y-117835521D01*
X103486290Y-117835524D01*
X103623209Y-117914573D01*
X103623216Y-117914577D01*
X103775943Y-117955501D01*
X103775945Y-117955501D01*
X103941654Y-117955501D01*
X103941670Y-117955500D01*
X168485501Y-117955500D01*
X168552540Y-117975185D01*
X168598295Y-118027989D01*
X168609501Y-118079500D01*
X168609501Y-118252876D01*
X168615908Y-118312483D01*
X168666202Y-118447328D01*
X168666206Y-118447335D01*
X168752452Y-118562544D01*
X168752455Y-118562547D01*
X168867664Y-118648793D01*
X168867671Y-118648797D01*
X169002517Y-118699091D01*
X169002516Y-118699091D01*
X169006321Y-118699500D01*
X169062127Y-118705500D01*
X170000903Y-118705499D01*
X170067942Y-118725183D01*
X170113697Y-118777987D01*
X170123641Y-118847146D01*
X170094616Y-118910702D01*
X170088584Y-118917180D01*
X169751821Y-119253944D01*
X169690498Y-119287429D01*
X169664140Y-119290263D01*
X104362433Y-119290263D01*
X104295394Y-119270578D01*
X104249639Y-119217774D01*
X104247872Y-119213715D01*
X104209397Y-119120827D01*
X104209390Y-119120814D01*
X104121789Y-118989711D01*
X104121786Y-118989707D01*
X104010292Y-118878213D01*
X104010288Y-118878210D01*
X103879185Y-118790609D01*
X103879172Y-118790602D01*
X103733501Y-118730264D01*
X103733489Y-118730261D01*
X103578845Y-118699500D01*
X103578842Y-118699500D01*
X103421158Y-118699500D01*
X103421155Y-118699500D01*
X103266510Y-118730261D01*
X103266498Y-118730264D01*
X103120827Y-118790602D01*
X103120814Y-118790609D01*
X102989711Y-118878210D01*
X102989707Y-118878213D01*
X102878213Y-118989707D01*
X102878210Y-118989711D01*
X102790609Y-119120814D01*
X102790602Y-119120827D01*
X102730264Y-119266498D01*
X102730261Y-119266510D01*
X102699500Y-119421153D01*
X102699500Y-119578846D01*
X102730261Y-119733489D01*
X102730264Y-119733501D01*
X102790602Y-119879172D01*
X102790609Y-119879185D01*
X102878210Y-120010288D01*
X102878213Y-120010292D01*
X102989707Y-120121786D01*
X102989711Y-120121789D01*
X103120814Y-120209390D01*
X103120827Y-120209397D01*
X103266498Y-120269735D01*
X103266503Y-120269737D01*
X103421158Y-120300500D01*
X103421847Y-120300637D01*
X103483758Y-120333022D01*
X103485337Y-120334573D01*
X103522047Y-120371283D01*
X103522049Y-120371284D01*
X103522053Y-120371287D01*
X103658972Y-120450336D01*
X103658979Y-120450340D01*
X103770782Y-120480297D01*
X103811705Y-120491263D01*
X103811706Y-120491263D01*
X124716004Y-120491263D01*
X124783043Y-120510948D01*
X124828798Y-120563752D01*
X124838742Y-120632910D01*
X124809717Y-120696466D01*
X124756959Y-120732304D01*
X124495097Y-120823934D01*
X124495075Y-120823943D01*
X124229781Y-120951701D01*
X123980437Y-121108375D01*
X123750205Y-121291978D01*
X123541977Y-121500206D01*
X123358374Y-121730438D01*
X123201700Y-121979782D01*
X123073942Y-122245076D01*
X123073933Y-122245098D01*
X122976679Y-122523031D01*
X122976675Y-122523043D01*
X122911149Y-122810133D01*
X122911147Y-122810149D01*
X122878178Y-123102757D01*
X122878178Y-123397242D01*
X122911147Y-123689850D01*
X122911149Y-123689866D01*
X122976675Y-123976956D01*
X122976679Y-123976968D01*
X123073933Y-124254901D01*
X123073942Y-124254923D01*
X123201700Y-124520217D01*
X123201704Y-124520223D01*
X123358375Y-124769563D01*
X123450718Y-124885357D01*
X123538057Y-124994878D01*
X123541978Y-124999794D01*
X123750205Y-125208021D01*
X123980436Y-125391624D01*
X124220590Y-125542523D01*
X124229781Y-125548298D01*
X124495075Y-125676056D01*
X124495084Y-125676059D01*
X124495091Y-125676063D01*
X124495097Y-125676065D01*
X124773030Y-125773319D01*
X124773042Y-125773323D01*
X125060136Y-125838850D01*
X125352757Y-125871820D01*
X125352758Y-125871821D01*
X125352761Y-125871821D01*
X125647240Y-125871821D01*
X125647240Y-125871820D01*
X125939862Y-125838850D01*
X126226956Y-125773323D01*
X126504907Y-125676063D01*
X126738028Y-125563799D01*
X126770216Y-125548298D01*
X126770216Y-125548297D01*
X126770222Y-125548295D01*
X127019562Y-125391624D01*
X127249793Y-125208021D01*
X127458020Y-124999794D01*
X127641623Y-124769563D01*
X127798294Y-124520223D01*
X127828062Y-124458408D01*
X127926055Y-124254923D01*
X127926056Y-124254919D01*
X127926062Y-124254908D01*
X128023322Y-123976957D01*
X128088849Y-123689863D01*
X128121820Y-123397238D01*
X128121820Y-123109568D01*
X170999500Y-123109568D01*
X170999500Y-123390431D01*
X171030942Y-123669494D01*
X171030945Y-123669512D01*
X171093439Y-123943317D01*
X171093443Y-123943329D01*
X171186200Y-124208411D01*
X171308053Y-124461442D01*
X171308055Y-124461445D01*
X171457477Y-124699248D01*
X171632584Y-124918825D01*
X171831175Y-125117416D01*
X172050752Y-125292523D01*
X172288555Y-125441945D01*
X172541592Y-125563801D01*
X172740680Y-125633465D01*
X172806670Y-125656556D01*
X172806682Y-125656560D01*
X173080491Y-125719055D01*
X173080497Y-125719055D01*
X173080505Y-125719057D01*
X173266547Y-125740018D01*
X173359569Y-125750499D01*
X173359572Y-125750500D01*
X173359575Y-125750500D01*
X173640428Y-125750500D01*
X173640429Y-125750499D01*
X173783055Y-125734429D01*
X173919494Y-125719057D01*
X173919499Y-125719056D01*
X173919509Y-125719055D01*
X174193318Y-125656560D01*
X174458408Y-125563801D01*
X174711445Y-125441945D01*
X174949248Y-125292523D01*
X175168825Y-125117416D01*
X175367416Y-124918825D01*
X175542523Y-124699248D01*
X175691945Y-124461445D01*
X175813801Y-124208408D01*
X175906560Y-123943318D01*
X175969055Y-123669509D01*
X175972332Y-123640431D01*
X176000499Y-123390431D01*
X176000500Y-123390427D01*
X176000500Y-123109572D01*
X176000499Y-123109568D01*
X175997224Y-123080505D01*
X175969055Y-122830491D01*
X175906560Y-122556682D01*
X175901278Y-122541588D01*
X175883465Y-122490680D01*
X175813801Y-122291592D01*
X175691945Y-122038555D01*
X175542523Y-121800752D01*
X175367416Y-121581175D01*
X175168825Y-121382584D01*
X174949248Y-121207477D01*
X174711445Y-121058055D01*
X174711442Y-121058053D01*
X174458411Y-120936200D01*
X174193329Y-120843443D01*
X174193317Y-120843439D01*
X173919512Y-120780945D01*
X173919494Y-120780942D01*
X173640431Y-120749500D01*
X173640425Y-120749500D01*
X173359575Y-120749500D01*
X173359568Y-120749500D01*
X173080505Y-120780942D01*
X173080487Y-120780945D01*
X172806682Y-120843439D01*
X172806670Y-120843443D01*
X172541588Y-120936200D01*
X172288557Y-121058053D01*
X172050753Y-121207476D01*
X171831175Y-121382583D01*
X171632583Y-121581175D01*
X171457476Y-121800753D01*
X171308053Y-122038557D01*
X171186200Y-122291588D01*
X171093443Y-122556670D01*
X171093439Y-122556682D01*
X171030945Y-122830487D01*
X171030942Y-122830505D01*
X170999500Y-123109568D01*
X128121820Y-123109568D01*
X128121820Y-123102762D01*
X128088849Y-122810137D01*
X128023322Y-122523043D01*
X127926062Y-122245092D01*
X127926058Y-122245085D01*
X127926055Y-122245076D01*
X127798297Y-121979782D01*
X127704921Y-121831175D01*
X127641623Y-121730437D01*
X127458020Y-121500206D01*
X127249793Y-121291979D01*
X127019562Y-121108376D01*
X126770222Y-120951705D01*
X126770223Y-120951705D01*
X126770216Y-120951701D01*
X126504922Y-120823943D01*
X126504900Y-120823934D01*
X126243039Y-120732304D01*
X126186263Y-120691582D01*
X126160516Y-120626630D01*
X126173972Y-120558068D01*
X126222360Y-120507665D01*
X126283994Y-120491263D01*
X169877568Y-120491263D01*
X169877584Y-120491264D01*
X169885180Y-120491264D01*
X170043291Y-120491264D01*
X170043294Y-120491264D01*
X170196022Y-120450340D01*
X170246141Y-120421402D01*
X170332953Y-120371283D01*
X170444757Y-120259479D01*
X170444757Y-120259477D01*
X170454965Y-120249270D01*
X170454967Y-120249267D01*
X172015478Y-118688755D01*
X172076799Y-118655272D01*
X172141473Y-118658506D01*
X172183757Y-118672246D01*
X172393713Y-118705500D01*
X172393714Y-118705500D01*
X172606286Y-118705500D01*
X172606287Y-118705500D01*
X172816243Y-118672246D01*
X173018412Y-118606557D01*
X173207816Y-118510051D01*
X173294138Y-118447335D01*
X173379786Y-118385109D01*
X173379788Y-118385106D01*
X173379792Y-118385104D01*
X173530104Y-118234792D01*
X173530106Y-118234788D01*
X173530109Y-118234786D01*
X173655048Y-118062820D01*
X173655047Y-118062820D01*
X173655051Y-118062816D01*
X173751557Y-117873412D01*
X173817246Y-117671243D01*
X173850500Y-117461287D01*
X173850500Y-117248713D01*
X173817246Y-117038757D01*
X173751557Y-116836588D01*
X173655051Y-116647184D01*
X173655049Y-116647181D01*
X173655048Y-116647179D01*
X173530109Y-116475213D01*
X173379786Y-116324890D01*
X173207820Y-116199951D01*
X173207115Y-116199591D01*
X173199054Y-116195485D01*
X173148259Y-116147512D01*
X173131463Y-116079692D01*
X173153999Y-116013556D01*
X173199054Y-115974515D01*
X173207816Y-115970051D01*
X173229789Y-115954086D01*
X173379786Y-115845109D01*
X173379788Y-115845106D01*
X173379792Y-115845104D01*
X173530104Y-115694792D01*
X173530106Y-115694788D01*
X173530109Y-115694786D01*
X173655048Y-115522820D01*
X173655050Y-115522817D01*
X173655051Y-115522816D01*
X173751557Y-115333412D01*
X173817246Y-115131243D01*
X173850500Y-114921287D01*
X173850500Y-114708713D01*
X173817246Y-114498757D01*
X173751557Y-114296588D01*
X173655051Y-114107184D01*
X173655049Y-114107181D01*
X173655048Y-114107179D01*
X173530109Y-113935213D01*
X173379786Y-113784890D01*
X173207820Y-113659951D01*
X173199600Y-113655763D01*
X173199054Y-113655485D01*
X173148259Y-113607512D01*
X173131463Y-113539692D01*
X173153999Y-113473556D01*
X173199054Y-113434515D01*
X173207816Y-113430051D01*
X173304823Y-113359572D01*
X173379786Y-113305109D01*
X173379788Y-113305106D01*
X173379792Y-113305104D01*
X173530104Y-113154792D01*
X173530106Y-113154788D01*
X173530109Y-113154786D01*
X173639086Y-113004789D01*
X173655051Y-112982816D01*
X173751557Y-112793412D01*
X173817246Y-112591243D01*
X173850500Y-112381287D01*
X173850500Y-112168713D01*
X173817246Y-111958757D01*
X173751557Y-111756588D01*
X173655051Y-111567184D01*
X173655049Y-111567181D01*
X173655048Y-111567179D01*
X173530109Y-111395213D01*
X173379786Y-111244890D01*
X173207820Y-111119951D01*
X173207115Y-111119591D01*
X173199054Y-111115485D01*
X173148259Y-111067512D01*
X173131463Y-110999692D01*
X173153999Y-110933556D01*
X173199054Y-110894515D01*
X173207816Y-110890051D01*
X173229789Y-110874086D01*
X173379786Y-110765109D01*
X173379788Y-110765106D01*
X173379792Y-110765104D01*
X173530104Y-110614792D01*
X173530106Y-110614788D01*
X173530109Y-110614786D01*
X173655048Y-110442820D01*
X173655047Y-110442820D01*
X173655051Y-110442816D01*
X173751557Y-110253412D01*
X173817246Y-110051243D01*
X173850500Y-109841287D01*
X173850500Y-109628713D01*
X173817246Y-109418757D01*
X173751557Y-109216588D01*
X173655051Y-109027184D01*
X173655049Y-109027181D01*
X173655048Y-109027179D01*
X173530109Y-108855213D01*
X173379786Y-108704890D01*
X173207820Y-108579951D01*
X173205643Y-108578842D01*
X173199054Y-108575485D01*
X173148259Y-108527512D01*
X173131463Y-108459692D01*
X173153999Y-108393556D01*
X173199054Y-108354515D01*
X173207816Y-108350051D01*
X173229789Y-108334086D01*
X173379786Y-108225109D01*
X173379788Y-108225106D01*
X173379792Y-108225104D01*
X173530104Y-108074792D01*
X173530106Y-108074788D01*
X173530109Y-108074786D01*
X173655048Y-107902820D01*
X173655047Y-107902820D01*
X173655051Y-107902816D01*
X173751557Y-107713412D01*
X173817246Y-107511243D01*
X173850500Y-107301287D01*
X173850500Y-107088713D01*
X173817246Y-106878757D01*
X173751557Y-106676588D01*
X173655051Y-106487184D01*
X173655049Y-106487181D01*
X173655048Y-106487179D01*
X173530109Y-106315213D01*
X173379786Y-106164890D01*
X173207820Y-106039951D01*
X173207115Y-106039591D01*
X173199054Y-106035485D01*
X173148259Y-105987512D01*
X173131463Y-105919692D01*
X173153999Y-105853556D01*
X173199054Y-105814515D01*
X173207816Y-105810051D01*
X173329634Y-105721546D01*
X173379786Y-105685109D01*
X173379788Y-105685106D01*
X173379792Y-105685104D01*
X173530104Y-105534792D01*
X173530106Y-105534788D01*
X173530109Y-105534786D01*
X173655048Y-105362820D01*
X173655047Y-105362820D01*
X173655051Y-105362816D01*
X173751557Y-105173412D01*
X173817246Y-104971243D01*
X173850500Y-104761287D01*
X173850500Y-104548713D01*
X173817246Y-104338757D01*
X173751557Y-104136588D01*
X173655051Y-103947184D01*
X173655049Y-103947181D01*
X173655048Y-103947179D01*
X173530109Y-103775213D01*
X173379786Y-103624890D01*
X173207820Y-103499951D01*
X173207115Y-103499591D01*
X173199054Y-103495485D01*
X173148259Y-103447512D01*
X173131463Y-103379692D01*
X173153999Y-103313556D01*
X173199054Y-103274515D01*
X173207816Y-103270051D01*
X173262572Y-103230269D01*
X173379786Y-103145109D01*
X173379788Y-103145106D01*
X173379792Y-103145104D01*
X173530104Y-102994792D01*
X173530106Y-102994788D01*
X173530109Y-102994786D01*
X173655048Y-102822820D01*
X173655050Y-102822817D01*
X173655051Y-102822816D01*
X173751557Y-102633412D01*
X173817246Y-102431243D01*
X173850500Y-102221287D01*
X173850500Y-102008713D01*
X173817246Y-101798757D01*
X173751557Y-101596588D01*
X173655051Y-101407184D01*
X173655049Y-101407181D01*
X173655048Y-101407179D01*
X173530109Y-101235213D01*
X173379786Y-101084890D01*
X173207820Y-100959951D01*
X173018414Y-100863444D01*
X173018413Y-100863443D01*
X173018412Y-100863443D01*
X172816243Y-100797754D01*
X172816241Y-100797753D01*
X172816240Y-100797753D01*
X172654957Y-100772208D01*
X172606287Y-100764500D01*
X172393713Y-100764500D01*
X172345042Y-100772208D01*
X172183760Y-100797753D01*
X171981585Y-100863444D01*
X171792179Y-100959951D01*
X171620213Y-101084890D01*
X171469890Y-101235213D01*
X171344949Y-101407182D01*
X171340202Y-101416499D01*
X171292227Y-101467293D01*
X171224405Y-101484087D01*
X171158271Y-101461548D01*
X171119234Y-101416495D01*
X171114626Y-101407452D01*
X171075270Y-101353282D01*
X171075269Y-101353282D01*
X170442962Y-101985590D01*
X170425925Y-101922007D01*
X170360099Y-101807993D01*
X170267007Y-101714901D01*
X170152993Y-101649075D01*
X170089409Y-101632037D01*
X170721716Y-100999728D01*
X170667550Y-100960375D01*
X170478217Y-100863904D01*
X170276129Y-100798242D01*
X170066246Y-100765000D01*
X169853754Y-100765000D01*
X169643872Y-100798242D01*
X169643869Y-100798242D01*
X169441782Y-100863904D01*
X169252439Y-100960380D01*
X169198282Y-100999727D01*
X169198282Y-100999728D01*
X169830591Y-101632037D01*
X169767007Y-101649075D01*
X169652993Y-101714901D01*
X169559901Y-101807993D01*
X169494075Y-101922007D01*
X169477037Y-101985591D01*
X168844728Y-101353282D01*
X168844727Y-101353282D01*
X168805380Y-101407439D01*
X168708904Y-101596782D01*
X168643242Y-101798869D01*
X168643242Y-101798872D01*
X168610000Y-102008753D01*
X168610000Y-102221246D01*
X168643242Y-102431127D01*
X168643242Y-102431130D01*
X168708904Y-102633217D01*
X168805375Y-102822550D01*
X168844728Y-102876716D01*
X169477036Y-102244407D01*
X169494075Y-102307993D01*
X169559901Y-102422007D01*
X169652993Y-102515099D01*
X169767007Y-102580925D01*
X169830590Y-102597962D01*
X169198282Y-103230269D01*
X169198282Y-103230270D01*
X169252452Y-103269626D01*
X169252451Y-103269626D01*
X169261495Y-103274234D01*
X169312292Y-103322208D01*
X169329087Y-103390029D01*
X169306550Y-103456164D01*
X169261499Y-103495202D01*
X169252182Y-103499949D01*
X169080213Y-103624890D01*
X168929890Y-103775213D01*
X168804951Y-103947179D01*
X168708444Y-104136585D01*
X168642753Y-104338760D01*
X168609500Y-104548713D01*
X168609500Y-104761286D01*
X168642753Y-104971240D01*
X168703790Y-105159092D01*
X168705785Y-105228933D01*
X168669705Y-105288766D01*
X168607004Y-105319594D01*
X168585859Y-105321410D01*
X115403345Y-105321410D01*
X115336306Y-105301725D01*
X115290551Y-105248921D01*
X115280607Y-105179763D01*
X115281728Y-105173219D01*
X115300499Y-105078846D01*
X115300500Y-105078844D01*
X115300500Y-104921155D01*
X115300499Y-104921153D01*
X115269738Y-104766510D01*
X115269737Y-104766503D01*
X115269735Y-104766498D01*
X115209397Y-104620827D01*
X115209390Y-104620814D01*
X115121789Y-104489711D01*
X115121786Y-104489707D01*
X115010292Y-104378213D01*
X115010288Y-104378210D01*
X114879185Y-104290609D01*
X114879172Y-104290602D01*
X114733501Y-104230264D01*
X114733491Y-104230261D01*
X114578149Y-104199361D01*
X114516238Y-104166976D01*
X114514660Y-104165425D01*
X113334574Y-102985339D01*
X113301089Y-102924016D01*
X113300638Y-102921849D01*
X113280938Y-102822816D01*
X113269737Y-102766503D01*
X113269735Y-102766498D01*
X113209397Y-102620827D01*
X113209390Y-102620814D01*
X113121789Y-102489711D01*
X113121786Y-102489707D01*
X113010292Y-102378213D01*
X113010288Y-102378210D01*
X112879185Y-102290609D01*
X112879172Y-102290602D01*
X112733501Y-102230264D01*
X112733489Y-102230261D01*
X112578845Y-102199500D01*
X112578842Y-102199500D01*
X112421158Y-102199500D01*
X112421155Y-102199500D01*
X112266510Y-102230261D01*
X112266498Y-102230264D01*
X112120827Y-102290602D01*
X112120814Y-102290609D01*
X111989711Y-102378210D01*
X111989707Y-102378213D01*
X111878213Y-102489707D01*
X111878210Y-102489711D01*
X111790609Y-102620814D01*
X111790602Y-102620827D01*
X111730264Y-102766498D01*
X111730261Y-102766510D01*
X111699500Y-102921153D01*
X111699500Y-103078846D01*
X111730261Y-103233489D01*
X111730264Y-103233501D01*
X111790602Y-103379172D01*
X111790609Y-103379185D01*
X111878210Y-103510288D01*
X111878213Y-103510292D01*
X111989707Y-103621786D01*
X111989711Y-103621789D01*
X112120814Y-103709390D01*
X112120827Y-103709397D01*
X112236383Y-103757261D01*
X112266503Y-103769737D01*
X112331147Y-103782595D01*
X112421849Y-103800638D01*
X112483760Y-103833023D01*
X112485339Y-103834574D01*
X113665425Y-105014660D01*
X113674487Y-105031255D01*
X113687619Y-105044865D01*
X113698025Y-105074362D01*
X113698910Y-105075983D01*
X113699361Y-105078149D01*
X113718272Y-105173218D01*
X113712045Y-105242810D01*
X113669182Y-105297987D01*
X113603293Y-105321232D01*
X113596655Y-105321410D01*
X112664760Y-105321410D01*
X112664744Y-105321409D01*
X112657148Y-105321409D01*
X112499033Y-105321409D01*
X112422669Y-105341871D01*
X112346304Y-105362333D01*
X112346299Y-105362336D01*
X112209380Y-105441385D01*
X112209372Y-105441391D01*
X109019483Y-108631281D01*
X109019481Y-108631284D01*
X108940423Y-108768214D01*
X108940423Y-108768215D01*
X108899499Y-108920943D01*
X108899499Y-108920945D01*
X108899499Y-109079054D01*
X108899498Y-109079054D01*
X108899499Y-109079057D01*
X108940423Y-109231785D01*
X109019481Y-109368716D01*
X109131284Y-109480519D01*
X109268215Y-109559577D01*
X109420943Y-109600501D01*
X109420946Y-109600501D01*
X109579054Y-109600501D01*
X109579057Y-109600501D01*
X109731785Y-109559577D01*
X109868716Y-109480519D01*
X112790507Y-106558729D01*
X112851830Y-106525244D01*
X112878188Y-106522410D01*
X168587867Y-106522410D01*
X168654906Y-106542095D01*
X168700661Y-106594899D01*
X168710605Y-106664057D01*
X168705798Y-106684728D01*
X168642753Y-106878759D01*
X168609500Y-107088713D01*
X168609500Y-107301286D01*
X168642753Y-107511239D01*
X168708443Y-107713413D01*
X168711393Y-107719201D01*
X168724291Y-107787870D01*
X168698017Y-107852611D01*
X168640913Y-107892870D01*
X168600910Y-107899500D01*
X114079766Y-107899500D01*
X114012727Y-107879815D01*
X114010875Y-107878602D01*
X113879185Y-107790609D01*
X113879172Y-107790602D01*
X113733501Y-107730264D01*
X113733489Y-107730261D01*
X113578845Y-107699500D01*
X113578842Y-107699500D01*
X113421158Y-107699500D01*
X113421155Y-107699500D01*
X113266510Y-107730261D01*
X113266498Y-107730264D01*
X113120827Y-107790602D01*
X113120814Y-107790609D01*
X112989711Y-107878210D01*
X112989707Y-107878213D01*
X112878213Y-107989707D01*
X112878210Y-107989711D01*
X112790609Y-108120814D01*
X112790602Y-108120827D01*
X112730264Y-108266498D01*
X112730261Y-108266510D01*
X112699500Y-108421153D01*
X112699500Y-108578846D01*
X112730261Y-108733489D01*
X112730264Y-108733501D01*
X112790602Y-108879172D01*
X112790609Y-108879185D01*
X112878210Y-109010288D01*
X112878213Y-109010292D01*
X112989707Y-109121786D01*
X112989711Y-109121789D01*
X113120814Y-109209390D01*
X113120827Y-109209397D01*
X113199894Y-109242147D01*
X113266503Y-109269737D01*
X113421153Y-109300499D01*
X113421156Y-109300500D01*
X113421158Y-109300500D01*
X113578844Y-109300500D01*
X113578845Y-109300499D01*
X113733497Y-109269737D01*
X113879179Y-109209394D01*
X113933663Y-109172989D01*
X114010875Y-109121398D01*
X114077553Y-109100520D01*
X114079766Y-109100500D01*
X168575491Y-109100500D01*
X168642530Y-109120185D01*
X168688285Y-109172989D01*
X168698229Y-109242147D01*
X168693422Y-109262816D01*
X168690000Y-109273349D01*
X168642753Y-109418759D01*
X168609500Y-109628713D01*
X168609500Y-109841286D01*
X168642753Y-110051239D01*
X168708444Y-110253414D01*
X168804951Y-110442820D01*
X168929890Y-110614786D01*
X169080213Y-110765109D01*
X169252182Y-110890050D01*
X169260946Y-110894516D01*
X169311742Y-110942491D01*
X169328536Y-111010312D01*
X169305998Y-111076447D01*
X169260946Y-111115484D01*
X169252182Y-111119949D01*
X169080213Y-111244890D01*
X168929890Y-111395213D01*
X168804951Y-111567179D01*
X168708444Y-111756585D01*
X168642753Y-111958760D01*
X168609500Y-112168713D01*
X168609500Y-112381286D01*
X168642754Y-112591244D01*
X168642754Y-112591247D01*
X168656491Y-112633523D01*
X168656925Y-112648735D01*
X168662244Y-112662994D01*
X168657902Y-112682950D01*
X168658486Y-112703364D01*
X168650398Y-112717448D01*
X168647393Y-112731267D01*
X168626242Y-112759521D01*
X168522585Y-112863180D01*
X168461262Y-112896666D01*
X168434903Y-112899500D01*
X95579766Y-112899500D01*
X95512727Y-112879815D01*
X95510875Y-112878602D01*
X95379185Y-112790609D01*
X95379172Y-112790602D01*
X95233501Y-112730264D01*
X95233489Y-112730261D01*
X95078845Y-112699500D01*
X95078842Y-112699500D01*
X94921158Y-112699500D01*
X94921155Y-112699500D01*
X94766510Y-112730261D01*
X94766498Y-112730264D01*
X94620827Y-112790602D01*
X94620814Y-112790609D01*
X94489711Y-112878210D01*
X94489707Y-112878213D01*
X94378213Y-112989707D01*
X94378210Y-112989711D01*
X94290609Y-113120814D01*
X94290602Y-113120827D01*
X94230264Y-113266498D01*
X94230261Y-113266510D01*
X94199500Y-113421153D01*
X83500500Y-113421153D01*
X83500500Y-113359575D01*
X83473599Y-113120821D01*
X83469057Y-113080505D01*
X83469054Y-113080487D01*
X83406560Y-112806682D01*
X83406556Y-112806670D01*
X83375336Y-112717448D01*
X83313801Y-112541592D01*
X83191945Y-112288555D01*
X83042523Y-112050752D01*
X82867416Y-111831175D01*
X82668825Y-111632584D01*
X82661499Y-111626742D01*
X82586816Y-111567184D01*
X82449248Y-111457477D01*
X82211445Y-111308055D01*
X82211442Y-111308053D01*
X81958411Y-111186200D01*
X81693329Y-111093443D01*
X81693317Y-111093439D01*
X81419512Y-111030945D01*
X81419494Y-111030942D01*
X81140431Y-110999500D01*
X81140425Y-110999500D01*
X80859575Y-110999500D01*
X80859568Y-110999500D01*
X80580505Y-111030942D01*
X80580487Y-111030945D01*
X80306682Y-111093439D01*
X80306670Y-111093443D01*
X80041588Y-111186200D01*
X79788557Y-111308053D01*
X79550753Y-111457476D01*
X79331175Y-111632583D01*
X79132583Y-111831175D01*
X78957476Y-112050753D01*
X78808053Y-112288557D01*
X78686200Y-112541588D01*
X78593443Y-112806670D01*
X78593439Y-112806682D01*
X78530945Y-113080487D01*
X78530942Y-113080505D01*
X78499500Y-113359568D01*
X78000499Y-113359568D01*
X78000499Y-107425261D01*
X78020184Y-107358222D01*
X78072988Y-107312467D01*
X78124499Y-107301261D01*
X80174493Y-107301261D01*
X80674493Y-107301261D01*
X83012321Y-107301261D01*
X83012337Y-107301260D01*
X83071865Y-107294859D01*
X83071872Y-107294857D01*
X83206579Y-107244615D01*
X83206586Y-107244611D01*
X83321680Y-107158451D01*
X83321683Y-107158448D01*
X83407843Y-107043354D01*
X83407847Y-107043347D01*
X83458089Y-106908640D01*
X83458091Y-106908633D01*
X83464492Y-106849105D01*
X83464493Y-106849088D01*
X83464493Y-106667087D01*
X83484178Y-106600048D01*
X83536982Y-106554293D01*
X83606140Y-106544349D01*
X83612685Y-106545470D01*
X83767476Y-106576261D01*
X83961509Y-106576261D01*
X83961511Y-106576260D01*
X84151799Y-106538409D01*
X84151811Y-106538406D01*
X84331058Y-106464160D01*
X84362697Y-106443019D01*
X84150971Y-106231293D01*
X95880850Y-106231293D01*
X95880850Y-106388986D01*
X95911611Y-106543629D01*
X95911614Y-106543641D01*
X95971952Y-106689312D01*
X95971959Y-106689325D01*
X96059560Y-106820428D01*
X96059563Y-106820432D01*
X96171057Y-106931926D01*
X96171061Y-106931929D01*
X96302164Y-107019530D01*
X96302177Y-107019537D01*
X96447848Y-107079875D01*
X96447853Y-107079877D01*
X96602503Y-107110639D01*
X96602506Y-107110640D01*
X96602508Y-107110640D01*
X96760194Y-107110640D01*
X96760195Y-107110639D01*
X96914847Y-107079877D01*
X97060529Y-107019534D01*
X97191639Y-106931929D01*
X97303139Y-106820429D01*
X97390744Y-106689319D01*
X97451087Y-106543637D01*
X97481850Y-106388982D01*
X97481850Y-106231298D01*
X97481850Y-106231295D01*
X97481849Y-106231293D01*
X97468642Y-106164896D01*
X97451087Y-106076643D01*
X97435888Y-106039949D01*
X97390747Y-105930967D01*
X97390740Y-105930954D01*
X97303139Y-105799851D01*
X97303136Y-105799847D01*
X97191642Y-105688353D01*
X97191638Y-105688350D01*
X97060535Y-105600749D01*
X97060522Y-105600742D01*
X96914851Y-105540404D01*
X96914839Y-105540401D01*
X96760195Y-105509640D01*
X96760192Y-105509640D01*
X96602508Y-105509640D01*
X96602505Y-105509640D01*
X96447860Y-105540401D01*
X96447848Y-105540404D01*
X96302177Y-105600742D01*
X96302164Y-105600749D01*
X96171061Y-105688350D01*
X96171057Y-105688353D01*
X96059563Y-105799847D01*
X96059560Y-105799851D01*
X95971959Y-105930954D01*
X95971952Y-105930967D01*
X95911614Y-106076638D01*
X95911611Y-106076650D01*
X95880850Y-106231293D01*
X84150971Y-106231293D01*
X83775397Y-105855719D01*
X83741912Y-105794396D01*
X83742256Y-105789579D01*
X83818743Y-105821261D01*
X83910243Y-105821261D01*
X83994778Y-105786246D01*
X84059478Y-105721546D01*
X84094493Y-105637011D01*
X84094493Y-105591260D01*
X84218047Y-105591260D01*
X84218047Y-105591261D01*
X84716251Y-106089465D01*
X84737392Y-106057826D01*
X84811638Y-105878579D01*
X84811641Y-105878567D01*
X84849493Y-105688276D01*
X84849493Y-105494244D01*
X84849492Y-105494242D01*
X84811641Y-105303954D01*
X84811638Y-105303942D01*
X84737391Y-105124692D01*
X84716251Y-105093055D01*
X84218047Y-105591260D01*
X84094493Y-105591260D01*
X84094493Y-105545511D01*
X84059478Y-105460976D01*
X83994778Y-105396276D01*
X83910243Y-105361261D01*
X83818743Y-105361261D01*
X83745431Y-105391627D01*
X83746896Y-105371150D01*
X83775397Y-105326803D01*
X84362698Y-104739501D01*
X84331068Y-104718367D01*
X84331061Y-104718363D01*
X84151807Y-104644114D01*
X84151799Y-104644112D01*
X83961510Y-104606261D01*
X83767476Y-104606261D01*
X83612684Y-104637051D01*
X83543093Y-104630824D01*
X83487915Y-104587961D01*
X83464671Y-104522071D01*
X83464493Y-104515434D01*
X83464493Y-104333433D01*
X83464492Y-104333416D01*
X83458091Y-104273888D01*
X83458089Y-104273881D01*
X83407847Y-104139174D01*
X83407843Y-104139167D01*
X83321683Y-104024073D01*
X83321680Y-104024070D01*
X83206586Y-103937910D01*
X83206579Y-103937906D01*
X83071872Y-103887664D01*
X83071865Y-103887662D01*
X83012337Y-103881261D01*
X80674493Y-103881261D01*
X80674493Y-107301261D01*
X80174493Y-107301261D01*
X80174493Y-103881261D01*
X78124499Y-103881261D01*
X78057460Y-103861576D01*
X78011705Y-103808772D01*
X78000499Y-103757261D01*
X78000499Y-98665261D01*
X78020184Y-98598222D01*
X78072988Y-98552467D01*
X78124499Y-98541261D01*
X80174493Y-98541261D01*
X80674493Y-98541261D01*
X83012321Y-98541261D01*
X83012337Y-98541260D01*
X83071865Y-98534859D01*
X83071872Y-98534857D01*
X83206579Y-98484615D01*
X83206586Y-98484611D01*
X83321680Y-98398451D01*
X83321683Y-98398448D01*
X83407843Y-98283354D01*
X83407847Y-98283347D01*
X83458089Y-98148640D01*
X83458091Y-98148633D01*
X83464492Y-98089105D01*
X83464493Y-98089088D01*
X83464493Y-97907087D01*
X83484178Y-97840048D01*
X83536982Y-97794293D01*
X83606140Y-97784349D01*
X83612685Y-97785470D01*
X83767476Y-97816261D01*
X83961509Y-97816261D01*
X83961511Y-97816260D01*
X84151799Y-97778409D01*
X84151811Y-97778406D01*
X84331058Y-97704160D01*
X84362697Y-97683019D01*
X83775397Y-97095719D01*
X83741912Y-97034396D01*
X83742256Y-97029579D01*
X83818743Y-97061261D01*
X83910243Y-97061261D01*
X83994778Y-97026246D01*
X84059478Y-96961546D01*
X84094493Y-96877011D01*
X84094493Y-96831260D01*
X84218047Y-96831260D01*
X84218047Y-96831261D01*
X84716251Y-97329465D01*
X84737392Y-97297826D01*
X84811638Y-97118579D01*
X84811641Y-97118567D01*
X84849492Y-96928279D01*
X84849493Y-96928277D01*
X84849493Y-96734244D01*
X84849492Y-96734242D01*
X84811641Y-96543954D01*
X84811638Y-96543942D01*
X84737391Y-96364692D01*
X84716251Y-96333055D01*
X84218047Y-96831260D01*
X84094493Y-96831260D01*
X84094493Y-96785511D01*
X84059478Y-96700976D01*
X83994778Y-96636276D01*
X83910243Y-96601261D01*
X83818743Y-96601261D01*
X83745431Y-96631627D01*
X83746896Y-96611150D01*
X83775397Y-96566803D01*
X84362698Y-95979501D01*
X84331068Y-95958367D01*
X84331061Y-95958363D01*
X84151807Y-95884114D01*
X84151799Y-95884112D01*
X83961510Y-95846261D01*
X83767476Y-95846261D01*
X83612684Y-95877051D01*
X83591700Y-95875173D01*
X83570846Y-95878172D01*
X83557598Y-95872121D01*
X83543093Y-95870824D01*
X83526454Y-95857899D01*
X83507290Y-95849147D01*
X83499416Y-95836895D01*
X83487915Y-95827961D01*
X83480905Y-95808092D01*
X83469516Y-95790369D01*
X83465981Y-95765785D01*
X83464671Y-95762071D01*
X83464493Y-95755434D01*
X83464493Y-95609568D01*
X122999500Y-95609568D01*
X122999500Y-95890431D01*
X123030942Y-96169494D01*
X123030945Y-96169512D01*
X123093439Y-96443317D01*
X123093443Y-96443329D01*
X123186200Y-96708411D01*
X123308053Y-96961442D01*
X123308055Y-96961445D01*
X123457477Y-97199248D01*
X123632584Y-97418825D01*
X123831175Y-97617416D01*
X124050752Y-97792523D01*
X124288555Y-97941945D01*
X124541592Y-98063801D01*
X124740680Y-98133465D01*
X124806670Y-98156556D01*
X124806682Y-98156560D01*
X125080491Y-98219055D01*
X125080497Y-98219055D01*
X125080505Y-98219057D01*
X125266547Y-98240018D01*
X125359569Y-98250499D01*
X125359572Y-98250500D01*
X125359575Y-98250500D01*
X125640428Y-98250500D01*
X125640429Y-98250499D01*
X125783055Y-98234429D01*
X125919494Y-98219057D01*
X125919499Y-98219056D01*
X125919509Y-98219055D01*
X126193318Y-98156560D01*
X126458408Y-98063801D01*
X126711445Y-97941945D01*
X126949248Y-97792523D01*
X127168825Y-97617416D01*
X127367416Y-97418825D01*
X127542523Y-97199248D01*
X127691945Y-96961445D01*
X127813801Y-96708408D01*
X127906560Y-96443318D01*
X127969055Y-96169509D01*
X127972332Y-96140431D01*
X127984429Y-96033055D01*
X128000500Y-95890425D01*
X128000500Y-95859568D01*
X170999500Y-95859568D01*
X170999500Y-96140431D01*
X171030942Y-96419494D01*
X171030945Y-96419512D01*
X171093439Y-96693317D01*
X171093443Y-96693329D01*
X171186200Y-96958411D01*
X171308053Y-97211442D01*
X171308055Y-97211445D01*
X171457477Y-97449248D01*
X171632584Y-97668825D01*
X171831175Y-97867416D01*
X172050752Y-98042523D01*
X172288555Y-98191945D01*
X172288557Y-98191946D01*
X172344850Y-98219055D01*
X172541592Y-98313801D01*
X172740680Y-98383465D01*
X172806670Y-98406556D01*
X172806682Y-98406560D01*
X173080491Y-98469055D01*
X173080497Y-98469055D01*
X173080505Y-98469057D01*
X173266547Y-98490018D01*
X173359569Y-98500499D01*
X173359572Y-98500500D01*
X173359575Y-98500500D01*
X173640428Y-98500500D01*
X173640429Y-98500499D01*
X173783055Y-98484429D01*
X173919494Y-98469057D01*
X173919499Y-98469056D01*
X173919509Y-98469055D01*
X174193318Y-98406560D01*
X174458408Y-98313801D01*
X174711445Y-98191945D01*
X174949248Y-98042523D01*
X175168825Y-97867416D01*
X175367416Y-97668825D01*
X175542523Y-97449248D01*
X175691945Y-97211445D01*
X175813801Y-96958408D01*
X175906560Y-96693318D01*
X175969055Y-96419509D01*
X175975232Y-96364692D01*
X175984429Y-96283055D01*
X176000500Y-96140425D01*
X176000500Y-95859575D01*
X175972332Y-95609572D01*
X175969057Y-95580505D01*
X175969054Y-95580487D01*
X175906560Y-95306682D01*
X175906556Y-95306670D01*
X175883465Y-95240680D01*
X175813801Y-95041592D01*
X175691945Y-94788555D01*
X175542523Y-94550752D01*
X175367416Y-94331175D01*
X175168825Y-94132584D01*
X174949248Y-93957477D01*
X174711445Y-93808055D01*
X174711442Y-93808053D01*
X174458411Y-93686200D01*
X174193329Y-93593443D01*
X174193317Y-93593439D01*
X173919512Y-93530945D01*
X173919494Y-93530942D01*
X173640431Y-93499500D01*
X173640425Y-93499500D01*
X173359575Y-93499500D01*
X173359568Y-93499500D01*
X173080505Y-93530942D01*
X173080487Y-93530945D01*
X172806682Y-93593439D01*
X172806670Y-93593443D01*
X172541588Y-93686200D01*
X172288557Y-93808053D01*
X172050753Y-93957476D01*
X171831175Y-94132583D01*
X171632583Y-94331175D01*
X171457476Y-94550753D01*
X171308053Y-94788557D01*
X171186200Y-95041588D01*
X171093443Y-95306670D01*
X171093439Y-95306682D01*
X171030945Y-95580487D01*
X171030942Y-95580505D01*
X170999500Y-95859568D01*
X128000500Y-95859568D01*
X128000500Y-95609575D01*
X127976881Y-95399949D01*
X127969057Y-95330505D01*
X127969054Y-95330487D01*
X127953895Y-95264073D01*
X127906560Y-95056682D01*
X127901278Y-95041588D01*
X127883465Y-94990680D01*
X127813801Y-94791592D01*
X127691945Y-94538555D01*
X127542523Y-94300752D01*
X127367416Y-94081175D01*
X127168825Y-93882584D01*
X126949248Y-93707477D01*
X126711445Y-93558055D01*
X126711442Y-93558053D01*
X126458411Y-93436200D01*
X126193329Y-93343443D01*
X126193317Y-93343439D01*
X125919512Y-93280945D01*
X125919494Y-93280942D01*
X125640431Y-93249500D01*
X125640425Y-93249500D01*
X125359575Y-93249500D01*
X125359568Y-93249500D01*
X125080505Y-93280942D01*
X125080487Y-93280945D01*
X124806682Y-93343439D01*
X124806670Y-93343443D01*
X124541588Y-93436200D01*
X124288557Y-93558053D01*
X124050753Y-93707476D01*
X123831175Y-93882583D01*
X123632583Y-94081175D01*
X123457476Y-94300753D01*
X123308053Y-94538557D01*
X123186200Y-94791588D01*
X123093443Y-95056670D01*
X123093439Y-95056682D01*
X123030945Y-95330487D01*
X123030942Y-95330505D01*
X122999500Y-95609568D01*
X83464493Y-95609568D01*
X83464493Y-95573433D01*
X83464492Y-95573416D01*
X83458091Y-95513888D01*
X83458089Y-95513881D01*
X83407847Y-95379174D01*
X83407843Y-95379167D01*
X83321683Y-95264073D01*
X83321680Y-95264070D01*
X83206586Y-95177910D01*
X83206579Y-95177906D01*
X83071872Y-95127664D01*
X83071865Y-95127662D01*
X83012337Y-95121261D01*
X80674493Y-95121261D01*
X80674493Y-98541261D01*
X80174493Y-98541261D01*
X80174493Y-95121261D01*
X78124499Y-95121261D01*
X78057460Y-95101576D01*
X78011705Y-95048772D01*
X78000499Y-94997261D01*
X78000499Y-93124500D01*
X78020184Y-93057461D01*
X78072988Y-93011706D01*
X78124499Y-93000500D01*
X176375499Y-93000500D01*
X176442538Y-93020185D01*
G37*
%TD.AperFunction*%
%TD*%
M02*
