%TF.GenerationSoftware,KiCad,Pcbnew,9.0.6*%
%TF.CreationDate,2026-03-06T13:06:01+00:00*%
%TF.ProjectId,SPI_adapter,5350495f-6164-4617-9074-65722e6b6963,rev?*%
%TF.SameCoordinates,Original*%
%TF.FileFunction,Copper,L1,Top*%
%TF.FilePolarity,Positive*%
%FSLAX46Y46*%
G04 Gerber Fmt 4.6, Leading zero omitted, Abs format (unit mm)*
G04 Created by KiCad (PCBNEW 9.0.6) date 2026-03-06 13:06:01*
%MOMM*%
%LPD*%
G01*
G04 APERTURE LIST*
G04 Aperture macros list*
%AMRoundRect*
0 Rectangle with rounded corners*
0 $1 Rounding radius*
0 $2 $3 $4 $5 $6 $7 $8 $9 X,Y pos of 4 corners*
0 Add a 4 corners polygon primitive as box body*
4,1,4,$2,$3,$4,$5,$6,$7,$8,$9,$2,$3,0*
0 Add four circle primitives for the rounded corners*
1,1,$1+$1,$2,$3*
1,1,$1+$1,$4,$5*
1,1,$1+$1,$6,$7*
1,1,$1+$1,$8,$9*
0 Add four rect primitives between the rounded corners*
20,1,$1+$1,$2,$3,$4,$5,0*
20,1,$1+$1,$4,$5,$6,$7,0*
20,1,$1+$1,$6,$7,$8,$9,0*
20,1,$1+$1,$8,$9,$2,$3,0*%
G04 Aperture macros list end*
%TA.AperFunction,SMDPad,CuDef*%
%ADD10RoundRect,0.250000X-0.475000X0.337500X-0.475000X-0.337500X0.475000X-0.337500X0.475000X0.337500X0*%
%TD*%
%TA.AperFunction,SMDPad,CuDef*%
%ADD11R,2.500000X1.780000*%
%TD*%
%TA.AperFunction,SMDPad,CuDef*%
%ADD12RoundRect,0.250000X0.475000X-0.337500X0.475000X0.337500X-0.475000X0.337500X-0.475000X-0.337500X0*%
%TD*%
%TA.AperFunction,SMDPad,CuDef*%
%ADD13R,5.080000X2.290000*%
%TD*%
%TA.AperFunction,SMDPad,CuDef*%
%ADD14R,5.080000X2.420000*%
%TD*%
%TA.AperFunction,SMDPad,CuDef*%
%ADD15R,0.950000X0.460000*%
%TD*%
%TA.AperFunction,ComponentPad*%
%ADD16C,0.970000*%
%TD*%
%TA.AperFunction,ComponentPad*%
%ADD17R,1.700000X1.700000*%
%TD*%
%TA.AperFunction,ComponentPad*%
%ADD18C,1.700000*%
%TD*%
%TA.AperFunction,ViaPad*%
%ADD19C,0.600000*%
%TD*%
%TA.AperFunction,Conductor*%
%ADD20C,0.800000*%
%TD*%
%TA.AperFunction,Conductor*%
%ADD21C,0.200000*%
%TD*%
%TA.AperFunction,Conductor*%
%ADD22C,0.190060*%
%TD*%
%TA.AperFunction,Conductor*%
%ADD23C,0.156500*%
%TD*%
G04 APERTURE END LIST*
D10*
%TO.P,C1,1*%
%TO.N,+3.3V*%
X88500000Y-110912500D03*
%TO.P,C1,2*%
%TO.N,GND*%
X88500000Y-112987500D03*
%TD*%
D11*
%TO.P,U1,1,ANT*%
%TO.N,/RF_ANT*%
X92050000Y-101220000D03*
%TO.P,U1,2,GND*%
%TO.N,GND*%
X92050000Y-103760000D03*
%TO.P,U1,3,VCC*%
%TO.N,+3.3V*%
X92050000Y-106300000D03*
%TO.P,U1,4,RX_SWITCH*%
%TO.N,/RX_SWITCH*%
X92050000Y-108840000D03*
%TO.P,U1,5,TX_SWITCH*%
%TO.N,/TX_SWITCH*%
X92050000Y-111380000D03*
%TO.P,U1,6,DIO0*%
%TO.N,/RADIO_DIO1*%
X92050000Y-113920000D03*
%TO.P,U1,7,DIO1*%
%TO.N,unconnected-(U1-DIO1-Pad7)*%
X92050000Y-116460000D03*
%TO.P,U1,8,DIO2*%
%TO.N,unconnected-(U1-DIO2-Pad8)*%
X92050000Y-119000000D03*
%TO.P,U1,9,DIO3*%
%TO.N,unconnected-(U1-DIO3-Pad9)*%
X109500000Y-119000000D03*
%TO.P,U1,10,DIO4*%
%TO.N,unconnected-(U1-DIO4-Pad10)*%
X109500000Y-116460000D03*
%TO.P,U1,11,DIO5*%
%TO.N,unconnected-(U1-DIO5-Pad11)*%
X109500000Y-113920000D03*
%TO.P,U1,12,RESET*%
%TO.N,/RADIO_RST*%
X109500000Y-111380000D03*
%TO.P,U1,13,SCLK*%
%TO.N,/SPI_SCK*%
X109500000Y-108840000D03*
%TO.P,U1,14,SDO*%
%TO.N,/SPI_MISO*%
X109500000Y-106300000D03*
%TO.P,U1,15,SDI*%
%TO.N,/SPI_MOSI*%
X109500000Y-103760000D03*
%TO.P,U1,16,~{SEL}*%
%TO.N,/SPI_CS*%
X109500000Y-101220000D03*
%TD*%
D12*
%TO.P,C2,1*%
%TO.N,+3.3V*%
X88500000Y-107512500D03*
%TO.P,C2,2*%
%TO.N,GND*%
X88500000Y-105437500D03*
%TD*%
D13*
%TO.P,J2,1,In*%
%TO.N,/RF_ANT*%
X80424493Y-101211261D03*
D14*
%TO.P,J2,2,Ext*%
%TO.N,GND*%
X80424493Y-96831261D03*
X80424493Y-105591261D03*
D15*
X83414493Y-96831261D03*
X83414493Y-105591261D03*
D16*
X83864493Y-96831261D03*
X83864493Y-105591261D03*
%TD*%
D17*
%TO.P,J1,1,Pin_1*%
%TO.N,/RX_SWITCH*%
X169960000Y-117355000D03*
D18*
%TO.P,J1,2,Pin_2*%
%TO.N,/TX_SWITCH*%
X172500000Y-117355000D03*
%TO.P,J1,3,Pin_3*%
%TO.N,GND*%
X169960000Y-114815000D03*
%TO.P,J1,4,Pin_4*%
%TO.N,/RADIO_BUSY*%
X172500000Y-114815000D03*
%TO.P,J1,5,Pin_5*%
%TO.N,/RADIO_DIO1*%
X169960000Y-112275000D03*
%TO.P,J1,6,Pin_6*%
%TO.N,/RADIO_RST*%
X172500000Y-112275000D03*
%TO.P,J1,7,Pin_7*%
%TO.N,/RADIO_TX*%
X169960000Y-109735000D03*
%TO.P,J1,8,Pin_8*%
%TO.N,/RADIO_RX*%
X172500000Y-109735000D03*
%TO.P,J1,9,Pin_9*%
%TO.N,/SPI_CS*%
X169960000Y-107195000D03*
%TO.P,J1,10,Pin_10*%
%TO.N,/SPI_MISO*%
X172500000Y-107195000D03*
%TO.P,J1,11,Pin_11*%
%TO.N,/SPI_MOSI*%
X169960000Y-104655000D03*
%TO.P,J1,12,Pin_12*%
%TO.N,/SPI_SCK*%
X172500000Y-104655000D03*
%TO.P,J1,13,Pin_13*%
%TO.N,GND*%
X169960000Y-102115000D03*
%TO.P,J1,14,Pin_14*%
%TO.N,+3.3V*%
X172500000Y-102115000D03*
%TD*%
D19*
%TO.N,+3.3V*%
X96681350Y-106310140D03*
%TO.N,GND*%
X88369767Y-99766016D03*
X140668627Y-102000000D03*
X88374638Y-102559484D03*
X158889839Y-103383138D03*
X83927854Y-103484804D03*
X89209438Y-99757360D03*
X85552404Y-105598467D03*
X89214309Y-102550828D03*
X85781500Y-99774672D03*
X143782939Y-115500414D03*
X87495753Y-102562369D03*
X133686151Y-110000000D03*
X85023414Y-99811320D03*
X143668627Y-102000000D03*
X87490882Y-99768901D03*
X86621172Y-99783329D03*
X83892917Y-95065089D03*
X133500000Y-118500000D03*
X83840512Y-107677193D03*
X136686151Y-110000000D03*
X100773836Y-115529493D03*
X86626043Y-102576797D03*
X140782939Y-115500414D03*
X85028285Y-102604788D03*
X85786371Y-102568140D03*
X155451609Y-106772122D03*
X155889839Y-103383138D03*
X85517468Y-96829386D03*
X83857980Y-98698493D03*
X130500000Y-118500000D03*
X158451609Y-106772122D03*
%TO.N,/RX_SWITCH*%
X103000000Y-116500000D03*
%TO.N,/TX_SWITCH*%
X103500000Y-119500000D03*
%TO.N,/SPI_MISO*%
X113500000Y-108500000D03*
%TO.N,/RADIO_DIO1*%
X95000000Y-113500000D03*
%TO.N,/SPI_CS*%
X114500000Y-105000000D03*
X112500000Y-103000000D03*
%TD*%
D20*
%TO.N,+3.3V*%
X92050000Y-106300000D02*
X96671210Y-106300000D01*
X90837500Y-107512500D02*
X92050000Y-106300000D01*
X88500000Y-110912500D02*
X88500000Y-107512500D01*
X96671210Y-106300000D02*
X96681350Y-106310140D01*
X88500000Y-107512500D02*
X90837500Y-107512500D01*
D21*
%TO.N,/RADIO_RST*%
X109880000Y-111000000D02*
X109500000Y-111380000D01*
X171225000Y-111000000D02*
X109880000Y-111000000D01*
X172500000Y-112275000D02*
X171225000Y-111000000D01*
%TO.N,/RX_SWITCH*%
X95340000Y-108840000D02*
X103000000Y-116500000D01*
X92050000Y-108840000D02*
X95340000Y-108840000D01*
%TO.N,/TX_SWITCH*%
X95380000Y-111380000D02*
X103500000Y-119500000D01*
X92050000Y-111380000D02*
X95380000Y-111380000D01*
%TO.N,/SPI_MISO*%
X111300000Y-106300000D02*
X109500000Y-106300000D01*
X113500000Y-108500000D02*
X111300000Y-106300000D01*
%TO.N,/SPI_MOSI*%
X169960000Y-104655000D02*
X169305000Y-104000000D01*
X109740000Y-104000000D02*
X109500000Y-103760000D01*
X169305000Y-104000000D02*
X109740000Y-104000000D01*
%TO.N,/RADIO_DIO1*%
X92470000Y-113500000D02*
X95000000Y-113500000D01*
X92050000Y-113920000D02*
X92470000Y-113500000D01*
D22*
%TO.N,/RF_ANT*%
X80433232Y-101220000D02*
X80424493Y-101211261D01*
D23*
X92050000Y-101220000D02*
X80433232Y-101220000D01*
D22*
X92041261Y-101211261D02*
X92050000Y-101220000D01*
D21*
%TO.N,/SPI_CS*%
X114500000Y-105000000D02*
X117545000Y-108045000D01*
X112500000Y-103000000D02*
X110720000Y-101220000D01*
X110720000Y-101220000D02*
X109500000Y-101220000D01*
X117545000Y-108045000D02*
X169110000Y-108045000D01*
X169110000Y-108045000D02*
X169960000Y-107195000D01*
%TD*%
%TA.AperFunction,Conductor*%
%TO.N,GND*%
G36*
X171075270Y-115576717D02*
G01*
X171075270Y-115576716D01*
X171114622Y-115522555D01*
X171119232Y-115513507D01*
X171167205Y-115462709D01*
X171235025Y-115445912D01*
X171301161Y-115468447D01*
X171340204Y-115513504D01*
X171344949Y-115522817D01*
X171469890Y-115694786D01*
X171620213Y-115845109D01*
X171792182Y-115970050D01*
X171800946Y-115974516D01*
X171851742Y-116022491D01*
X171868536Y-116090312D01*
X171845998Y-116156447D01*
X171800946Y-116195484D01*
X171792182Y-116199949D01*
X171620215Y-116324889D01*
X171506673Y-116438431D01*
X171445350Y-116471915D01*
X171375658Y-116466931D01*
X171319725Y-116425059D01*
X171302810Y-116394082D01*
X171253797Y-116262671D01*
X171253793Y-116262664D01*
X171167547Y-116147455D01*
X171167544Y-116147452D01*
X171052335Y-116061206D01*
X171052328Y-116061202D01*
X170917482Y-116010908D01*
X170917483Y-116010908D01*
X170857883Y-116004501D01*
X170857881Y-116004500D01*
X170857873Y-116004500D01*
X170857865Y-116004500D01*
X170847309Y-116004500D01*
X170780270Y-115984815D01*
X170759628Y-115968181D01*
X170089408Y-115297962D01*
X170152993Y-115280925D01*
X170267007Y-115215099D01*
X170360099Y-115122007D01*
X170425925Y-115007993D01*
X170442962Y-114944408D01*
X171075270Y-115576717D01*
G37*
%TD.AperFunction*%
%TA.AperFunction,Conductor*%
G36*
X171301444Y-112928999D02*
G01*
X171340486Y-112974056D01*
X171344951Y-112982820D01*
X171469890Y-113154786D01*
X171620213Y-113305109D01*
X171792182Y-113430050D01*
X171800946Y-113434516D01*
X171851742Y-113482491D01*
X171868536Y-113550312D01*
X171845998Y-113616447D01*
X171800946Y-113655484D01*
X171792182Y-113659949D01*
X171620213Y-113784890D01*
X171469890Y-113935213D01*
X171344949Y-114107182D01*
X171340202Y-114116499D01*
X171292227Y-114167293D01*
X171224405Y-114184087D01*
X171158271Y-114161548D01*
X171119234Y-114116495D01*
X171114626Y-114107452D01*
X171075270Y-114053282D01*
X171075269Y-114053282D01*
X170442962Y-114685590D01*
X170425925Y-114622007D01*
X170360099Y-114507993D01*
X170267007Y-114414901D01*
X170152993Y-114349075D01*
X170089409Y-114332037D01*
X170721716Y-113699728D01*
X170667547Y-113660373D01*
X170667547Y-113660372D01*
X170658500Y-113655763D01*
X170607706Y-113607788D01*
X170590912Y-113539966D01*
X170613451Y-113473832D01*
X170658508Y-113434793D01*
X170667816Y-113430051D01*
X170764823Y-113359572D01*
X170839786Y-113305109D01*
X170839788Y-113305106D01*
X170839792Y-113305104D01*
X170990104Y-113154792D01*
X170990106Y-113154788D01*
X170990109Y-113154786D01*
X171099086Y-113004789D01*
X171115051Y-112982816D01*
X171119514Y-112974054D01*
X171167488Y-112923259D01*
X171235308Y-112906463D01*
X171301444Y-112928999D01*
G37*
%TD.AperFunction*%
%TA.AperFunction,Conductor*%
G36*
X113680484Y-104620185D02*
G01*
X113726239Y-104672989D01*
X113736183Y-104742147D01*
X113731159Y-104760411D01*
X113732031Y-104760676D01*
X113730261Y-104766510D01*
X113699500Y-104921153D01*
X113699500Y-105078846D01*
X113730261Y-105233489D01*
X113730264Y-105233501D01*
X113790602Y-105379172D01*
X113790609Y-105379185D01*
X113878210Y-105510288D01*
X113878213Y-105510292D01*
X113989707Y-105621786D01*
X113989711Y-105621789D01*
X114120814Y-105709390D01*
X114120827Y-105709397D01*
X114195732Y-105740423D01*
X114266503Y-105769737D01*
X114331147Y-105782595D01*
X114421849Y-105800638D01*
X114483760Y-105833023D01*
X114485339Y-105834574D01*
X117060139Y-108409374D01*
X117060149Y-108409385D01*
X117064479Y-108413715D01*
X117064480Y-108413716D01*
X117176284Y-108525520D01*
X117216495Y-108548735D01*
X117263095Y-108575639D01*
X117263097Y-108575641D01*
X117313213Y-108604576D01*
X117313215Y-108604577D01*
X117465942Y-108645500D01*
X117465943Y-108645500D01*
X168840242Y-108645500D01*
X168907281Y-108665185D01*
X168953036Y-108717989D01*
X168962980Y-108787147D01*
X168933955Y-108850703D01*
X168931401Y-108853445D01*
X168929890Y-108855213D01*
X168804951Y-109027179D01*
X168708444Y-109216585D01*
X168642753Y-109418760D01*
X168609500Y-109628713D01*
X168609500Y-109841286D01*
X168640342Y-110036019D01*
X168642754Y-110051243D01*
X168681154Y-110169426D01*
X168703170Y-110237182D01*
X168705165Y-110307023D01*
X168669085Y-110366856D01*
X168606384Y-110397684D01*
X168585239Y-110399500D01*
X111336521Y-110399500D01*
X111269482Y-110379815D01*
X111227832Y-110335189D01*
X111223489Y-110327282D01*
X111193796Y-110247669D01*
X111141140Y-110177330D01*
X111136944Y-110169689D01*
X111131233Y-110143740D01*
X111121949Y-110118847D01*
X111123841Y-110110147D01*
X111121928Y-110101452D01*
X111131152Y-110076537D01*
X111136800Y-110050574D01*
X111146153Y-110036019D01*
X111146187Y-110035929D01*
X111146234Y-110035892D01*
X111146366Y-110035689D01*
X111190790Y-109976346D01*
X111193796Y-109972331D01*
X111244091Y-109837483D01*
X111250500Y-109777873D01*
X111250499Y-107902128D01*
X111244091Y-107842517D01*
X111238103Y-107826463D01*
X111193797Y-107707671D01*
X111193796Y-107707669D01*
X111146366Y-107644311D01*
X111121949Y-107578847D01*
X111135659Y-107512713D01*
X111140319Y-107503766D01*
X111193796Y-107432331D01*
X111234800Y-107322393D01*
X111238331Y-107315615D01*
X111257458Y-107295724D01*
X111273993Y-107273636D01*
X111281332Y-107270898D01*
X111286761Y-107265253D01*
X111313600Y-107258862D01*
X111339457Y-107249218D01*
X111347111Y-107250883D01*
X111354731Y-107249069D01*
X111380765Y-107258203D01*
X111407730Y-107264069D01*
X111416769Y-107270836D01*
X111420660Y-107272201D01*
X111423556Y-107275916D01*
X111435986Y-107285221D01*
X112665425Y-108514660D01*
X112698910Y-108575983D01*
X112699361Y-108578149D01*
X112730261Y-108733491D01*
X112730264Y-108733501D01*
X112790602Y-108879172D01*
X112790609Y-108879185D01*
X112878210Y-109010288D01*
X112878213Y-109010292D01*
X112989707Y-109121786D01*
X112989711Y-109121789D01*
X113120814Y-109209390D01*
X113120827Y-109209397D01*
X113266498Y-109269735D01*
X113266503Y-109269737D01*
X113421153Y-109300499D01*
X113421156Y-109300500D01*
X113421158Y-109300500D01*
X113578844Y-109300500D01*
X113578845Y-109300499D01*
X113733497Y-109269737D01*
X113879179Y-109209394D01*
X114010289Y-109121789D01*
X114121789Y-109010289D01*
X114209394Y-108879179D01*
X114269737Y-108733497D01*
X114300500Y-108578842D01*
X114300500Y-108421158D01*
X114300500Y-108421155D01*
X114300499Y-108421153D01*
X114295010Y-108393556D01*
X114269737Y-108266503D01*
X114252589Y-108225104D01*
X114209397Y-108120827D01*
X114209390Y-108120814D01*
X114121789Y-107989711D01*
X114121786Y-107989707D01*
X114010292Y-107878213D01*
X114010288Y-107878210D01*
X113879185Y-107790609D01*
X113879172Y-107790602D01*
X113733501Y-107730264D01*
X113733491Y-107730261D01*
X113578149Y-107699361D01*
X113516238Y-107666976D01*
X113514660Y-107665425D01*
X111787590Y-105938355D01*
X111787588Y-105938352D01*
X111668717Y-105819481D01*
X111668716Y-105819480D01*
X111581904Y-105769360D01*
X111581904Y-105769359D01*
X111581900Y-105769358D01*
X111531785Y-105740423D01*
X111379057Y-105699499D01*
X111379054Y-105699499D01*
X111374499Y-105699499D01*
X111307460Y-105679814D01*
X111261705Y-105627010D01*
X111250499Y-105575499D01*
X111250499Y-105362129D01*
X111250498Y-105362123D01*
X111250497Y-105362116D01*
X111244252Y-105304015D01*
X111244091Y-105302516D01*
X111193797Y-105167671D01*
X111193796Y-105167669D01*
X111146366Y-105104311D01*
X111121949Y-105038847D01*
X111136800Y-104970574D01*
X111146366Y-104955689D01*
X111152639Y-104947309D01*
X111193796Y-104892331D01*
X111244091Y-104757483D01*
X111249062Y-104711242D01*
X111275799Y-104646694D01*
X111333191Y-104606846D01*
X111372351Y-104600500D01*
X113613445Y-104600500D01*
X113680484Y-104620185D01*
G37*
%TD.AperFunction*%
%TA.AperFunction,Conductor*%
G36*
X168552539Y-104620185D02*
G01*
X168598294Y-104672989D01*
X168609500Y-104724500D01*
X168609500Y-104761287D01*
X168612603Y-104780880D01*
X168639589Y-104951265D01*
X168642754Y-104971243D01*
X168692612Y-105124690D01*
X168708444Y-105173414D01*
X168804951Y-105362820D01*
X168929890Y-105534786D01*
X169080213Y-105685109D01*
X169252182Y-105810050D01*
X169260946Y-105814516D01*
X169311742Y-105862491D01*
X169328536Y-105930312D01*
X169305998Y-105996447D01*
X169260946Y-106035484D01*
X169252182Y-106039949D01*
X169080213Y-106164890D01*
X168929890Y-106315213D01*
X168804951Y-106487179D01*
X168708444Y-106676585D01*
X168642753Y-106878760D01*
X168609500Y-107088713D01*
X168609500Y-107301287D01*
X168609882Y-107306138D01*
X168608808Y-107306222D01*
X168600518Y-107370392D01*
X168555524Y-107423845D01*
X168488773Y-107444487D01*
X168486998Y-107444500D01*
X117845097Y-107444500D01*
X117778058Y-107424815D01*
X117757416Y-107408181D01*
X115334574Y-104985339D01*
X115325713Y-104969111D01*
X115312783Y-104955897D01*
X115302017Y-104925716D01*
X115301089Y-104924016D01*
X115300809Y-104922696D01*
X115300500Y-104921197D01*
X115300500Y-104921158D01*
X115269737Y-104766503D01*
X115267486Y-104761069D01*
X115265109Y-104749538D01*
X115267045Y-104726058D01*
X115264497Y-104702641D01*
X115269862Y-104691886D01*
X115270851Y-104679905D01*
X115285174Y-104661198D01*
X115295691Y-104640122D01*
X115306019Y-104633975D01*
X115313329Y-104624430D01*
X115335492Y-104616436D01*
X115355734Y-104604392D01*
X115375982Y-104601835D01*
X115379055Y-104600727D01*
X115381082Y-104601191D01*
X115386555Y-104600500D01*
X168485500Y-104600500D01*
X168552539Y-104620185D01*
G37*
%TD.AperFunction*%
%TA.AperFunction,Conductor*%
G36*
X171075270Y-102876717D02*
G01*
X171075270Y-102876716D01*
X171114622Y-102822555D01*
X171119232Y-102813507D01*
X171167205Y-102762709D01*
X171235025Y-102745912D01*
X171301161Y-102768447D01*
X171340204Y-102813504D01*
X171344949Y-102822817D01*
X171469890Y-102994786D01*
X171620213Y-103145109D01*
X171792182Y-103270050D01*
X171800946Y-103274516D01*
X171851742Y-103322491D01*
X171868536Y-103390312D01*
X171845998Y-103456447D01*
X171800946Y-103495484D01*
X171792182Y-103499949D01*
X171620213Y-103624890D01*
X171469890Y-103775213D01*
X171344949Y-103947182D01*
X171340484Y-103955946D01*
X171292509Y-104006742D01*
X171224688Y-104023536D01*
X171158553Y-104000998D01*
X171119516Y-103955946D01*
X171115050Y-103947182D01*
X170990109Y-103775213D01*
X170839786Y-103624890D01*
X170667817Y-103499949D01*
X170658504Y-103495204D01*
X170607707Y-103447230D01*
X170590912Y-103379409D01*
X170613449Y-103313274D01*
X170658507Y-103274232D01*
X170667555Y-103269622D01*
X170721716Y-103230270D01*
X170721717Y-103230270D01*
X170089408Y-102597962D01*
X170152993Y-102580925D01*
X170267007Y-102515099D01*
X170360099Y-102422007D01*
X170425925Y-102307993D01*
X170442962Y-102244408D01*
X171075270Y-102876717D01*
G37*
%TD.AperFunction*%
%TA.AperFunction,Conductor*%
G36*
X176442538Y-93020185D02*
G01*
X176488293Y-93072989D01*
X176499499Y-93124500D01*
X176499499Y-126375500D01*
X176479814Y-126442539D01*
X176427010Y-126488294D01*
X176375499Y-126499500D01*
X78124499Y-126499500D01*
X78057460Y-126479815D01*
X78011705Y-126427011D01*
X78000499Y-126375500D01*
X78000499Y-123359568D01*
X78499500Y-123359568D01*
X78499500Y-123640431D01*
X78530942Y-123919494D01*
X78530945Y-123919512D01*
X78593439Y-124193317D01*
X78593443Y-124193329D01*
X78686200Y-124458411D01*
X78808053Y-124711442D01*
X78808055Y-124711445D01*
X78957477Y-124949248D01*
X79132584Y-125168825D01*
X79331175Y-125367416D01*
X79550752Y-125542523D01*
X79788555Y-125691945D01*
X79788557Y-125691946D01*
X79844850Y-125719055D01*
X80041592Y-125813801D01*
X80207401Y-125871820D01*
X80306670Y-125906556D01*
X80306682Y-125906560D01*
X80580491Y-125969055D01*
X80580497Y-125969055D01*
X80580505Y-125969057D01*
X80766547Y-125990018D01*
X80859569Y-126000499D01*
X80859572Y-126000500D01*
X80859575Y-126000500D01*
X81140428Y-126000500D01*
X81140429Y-126000499D01*
X81283055Y-125984429D01*
X81419494Y-125969057D01*
X81419499Y-125969056D01*
X81419509Y-125969055D01*
X81693318Y-125906560D01*
X81958408Y-125813801D01*
X82211445Y-125691945D01*
X82449248Y-125542523D01*
X82668825Y-125367416D01*
X82867416Y-125168825D01*
X83042523Y-124949248D01*
X83191945Y-124711445D01*
X83313801Y-124458408D01*
X83406560Y-124193318D01*
X83469055Y-123919509D01*
X83500500Y-123640425D01*
X83500500Y-123359575D01*
X83472332Y-123109572D01*
X83471564Y-123102757D01*
X122878178Y-123102757D01*
X122878178Y-123397242D01*
X122911147Y-123689850D01*
X122911149Y-123689866D01*
X122976675Y-123976956D01*
X122976679Y-123976968D01*
X123073933Y-124254901D01*
X123073942Y-124254923D01*
X123201700Y-124520217D01*
X123201704Y-124520223D01*
X123358375Y-124769563D01*
X123450718Y-124885357D01*
X123538057Y-124994878D01*
X123541978Y-124999794D01*
X123750205Y-125208021D01*
X123980436Y-125391624D01*
X124220590Y-125542523D01*
X124229781Y-125548298D01*
X124495075Y-125676056D01*
X124495084Y-125676059D01*
X124495091Y-125676063D01*
X124495097Y-125676065D01*
X124773030Y-125773319D01*
X124773042Y-125773323D01*
X125060136Y-125838850D01*
X125352757Y-125871820D01*
X125352758Y-125871821D01*
X125352761Y-125871821D01*
X125647240Y-125871821D01*
X125647240Y-125871820D01*
X125939862Y-125838850D01*
X126226956Y-125773323D01*
X126504907Y-125676063D01*
X126738028Y-125563799D01*
X126770216Y-125548298D01*
X126770216Y-125548297D01*
X126770222Y-125548295D01*
X127019562Y-125391624D01*
X127249793Y-125208021D01*
X127458020Y-124999794D01*
X127641623Y-124769563D01*
X127798294Y-124520223D01*
X127828062Y-124458408D01*
X127926055Y-124254923D01*
X127926056Y-124254919D01*
X127926062Y-124254908D01*
X128023322Y-123976957D01*
X128088849Y-123689863D01*
X128121820Y-123397238D01*
X128121820Y-123109568D01*
X170999500Y-123109568D01*
X170999500Y-123390431D01*
X171030942Y-123669494D01*
X171030945Y-123669512D01*
X171093439Y-123943317D01*
X171093443Y-123943329D01*
X171186200Y-124208411D01*
X171308053Y-124461442D01*
X171308055Y-124461445D01*
X171457477Y-124699248D01*
X171632584Y-124918825D01*
X171831175Y-125117416D01*
X172050752Y-125292523D01*
X172288555Y-125441945D01*
X172541592Y-125563801D01*
X172740680Y-125633465D01*
X172806670Y-125656556D01*
X172806682Y-125656560D01*
X173080491Y-125719055D01*
X173080497Y-125719055D01*
X173080505Y-125719057D01*
X173266547Y-125740018D01*
X173359569Y-125750499D01*
X173359572Y-125750500D01*
X173359575Y-125750500D01*
X173640428Y-125750500D01*
X173640429Y-125750499D01*
X173783055Y-125734429D01*
X173919494Y-125719057D01*
X173919499Y-125719056D01*
X173919509Y-125719055D01*
X174193318Y-125656560D01*
X174458408Y-125563801D01*
X174711445Y-125441945D01*
X174949248Y-125292523D01*
X175168825Y-125117416D01*
X175367416Y-124918825D01*
X175542523Y-124699248D01*
X175691945Y-124461445D01*
X175813801Y-124208408D01*
X175906560Y-123943318D01*
X175969055Y-123669509D01*
X175972332Y-123640431D01*
X176000499Y-123390431D01*
X176000500Y-123390427D01*
X176000500Y-123109572D01*
X176000499Y-123109568D01*
X175997224Y-123080505D01*
X175969055Y-122830491D01*
X175906560Y-122556682D01*
X175901278Y-122541588D01*
X175883465Y-122490680D01*
X175813801Y-122291592D01*
X175691945Y-122038555D01*
X175542523Y-121800752D01*
X175367416Y-121581175D01*
X175168825Y-121382584D01*
X174949248Y-121207477D01*
X174711445Y-121058055D01*
X174711442Y-121058053D01*
X174458411Y-120936200D01*
X174193329Y-120843443D01*
X174193317Y-120843439D01*
X173919512Y-120780945D01*
X173919494Y-120780942D01*
X173640431Y-120749500D01*
X173640425Y-120749500D01*
X173359575Y-120749500D01*
X173359568Y-120749500D01*
X173080505Y-120780942D01*
X173080487Y-120780945D01*
X172806682Y-120843439D01*
X172806670Y-120843443D01*
X172541588Y-120936200D01*
X172288557Y-121058053D01*
X172050753Y-121207476D01*
X171831175Y-121382583D01*
X171632583Y-121581175D01*
X171457476Y-121800753D01*
X171308053Y-122038557D01*
X171186200Y-122291588D01*
X171093443Y-122556670D01*
X171093439Y-122556682D01*
X171030945Y-122830487D01*
X171030942Y-122830505D01*
X170999500Y-123109568D01*
X128121820Y-123109568D01*
X128121820Y-123102762D01*
X128088849Y-122810137D01*
X128023322Y-122523043D01*
X127926062Y-122245092D01*
X127926058Y-122245085D01*
X127926055Y-122245076D01*
X127798297Y-121979782D01*
X127704921Y-121831175D01*
X127641623Y-121730437D01*
X127458020Y-121500206D01*
X127249793Y-121291979D01*
X127019562Y-121108376D01*
X126770222Y-120951705D01*
X126770223Y-120951705D01*
X126770216Y-120951701D01*
X126504922Y-120823943D01*
X126504900Y-120823934D01*
X126226967Y-120726680D01*
X126226955Y-120726676D01*
X125939865Y-120661150D01*
X125939849Y-120661148D01*
X125647241Y-120628179D01*
X125647237Y-120628179D01*
X125352761Y-120628179D01*
X125352756Y-120628179D01*
X125060148Y-120661148D01*
X125060132Y-120661150D01*
X124773042Y-120726676D01*
X124773030Y-120726680D01*
X124495097Y-120823934D01*
X124495075Y-120823943D01*
X124229781Y-120951701D01*
X123980437Y-121108375D01*
X123750205Y-121291978D01*
X123541977Y-121500206D01*
X123358374Y-121730438D01*
X123201700Y-121979782D01*
X123073942Y-122245076D01*
X123073933Y-122245098D01*
X122976679Y-122523031D01*
X122976675Y-122523043D01*
X122911149Y-122810133D01*
X122911147Y-122810149D01*
X122878178Y-123102757D01*
X83471564Y-123102757D01*
X83469057Y-123080504D01*
X83469054Y-123080487D01*
X83406560Y-122806680D01*
X83406556Y-122806670D01*
X83383465Y-122740680D01*
X83313801Y-122541592D01*
X83191945Y-122288555D01*
X83042523Y-122050752D01*
X82867416Y-121831175D01*
X82668825Y-121632584D01*
X82449248Y-121457477D01*
X82211445Y-121308055D01*
X82211442Y-121308053D01*
X81958411Y-121186200D01*
X81693329Y-121093443D01*
X81693317Y-121093439D01*
X81419512Y-121030945D01*
X81419494Y-121030942D01*
X81140431Y-120999500D01*
X81140425Y-120999500D01*
X80859575Y-120999500D01*
X80859568Y-120999500D01*
X80580505Y-121030942D01*
X80580487Y-121030945D01*
X80306682Y-121093439D01*
X80306670Y-121093443D01*
X80041588Y-121186200D01*
X79788557Y-121308053D01*
X79550753Y-121457476D01*
X79331175Y-121632583D01*
X79132583Y-121831175D01*
X78957476Y-122050753D01*
X78808053Y-122288557D01*
X78686200Y-122541588D01*
X78593443Y-122806670D01*
X78593440Y-122806680D01*
X78530945Y-123080487D01*
X78530942Y-123080505D01*
X78499500Y-123359568D01*
X78000499Y-123359568D01*
X78000499Y-113359568D01*
X78499500Y-113359568D01*
X78499500Y-113640431D01*
X78530942Y-113919494D01*
X78530945Y-113919512D01*
X78593439Y-114193317D01*
X78593443Y-114193329D01*
X78686200Y-114458411D01*
X78808053Y-114711442D01*
X78808055Y-114711445D01*
X78957477Y-114949248D01*
X79132584Y-115168825D01*
X79331175Y-115367416D01*
X79550752Y-115542523D01*
X79788555Y-115691945D01*
X79788557Y-115691946D01*
X79804243Y-115699500D01*
X80041592Y-115813801D01*
X80225662Y-115878210D01*
X80306670Y-115906556D01*
X80306682Y-115906560D01*
X80580491Y-115969055D01*
X80580497Y-115969055D01*
X80580505Y-115969057D01*
X80763784Y-115989707D01*
X80859569Y-116000499D01*
X80859572Y-116000500D01*
X80859575Y-116000500D01*
X81140428Y-116000500D01*
X81140429Y-116000499D01*
X81283055Y-115984429D01*
X81419494Y-115969057D01*
X81419499Y-115969056D01*
X81419509Y-115969055D01*
X81693318Y-115906560D01*
X81958408Y-115813801D01*
X82211445Y-115691945D01*
X82449248Y-115542523D01*
X82668825Y-115367416D01*
X82867416Y-115168825D01*
X83042523Y-114949248D01*
X83191945Y-114711445D01*
X83313801Y-114458408D01*
X83406560Y-114193318D01*
X83469055Y-113919509D01*
X83469303Y-113917315D01*
X83493818Y-113699727D01*
X83500500Y-113640425D01*
X83500500Y-113374986D01*
X87275001Y-113374986D01*
X87285494Y-113477697D01*
X87340641Y-113644119D01*
X87340643Y-113644124D01*
X87432684Y-113793345D01*
X87556654Y-113917315D01*
X87705875Y-114009356D01*
X87705880Y-114009358D01*
X87872302Y-114064505D01*
X87872309Y-114064506D01*
X87975019Y-114074999D01*
X88249999Y-114074999D01*
X88750000Y-114074999D01*
X89024972Y-114074999D01*
X89024986Y-114074998D01*
X89127697Y-114064505D01*
X89294119Y-114009358D01*
X89294124Y-114009356D01*
X89443345Y-113917315D01*
X89567315Y-113793345D01*
X89659356Y-113644124D01*
X89659358Y-113644119D01*
X89714505Y-113477697D01*
X89714506Y-113477690D01*
X89724999Y-113374986D01*
X89725000Y-113374973D01*
X89725000Y-113237500D01*
X88750000Y-113237500D01*
X88750000Y-114074999D01*
X88249999Y-114074999D01*
X88250000Y-114074998D01*
X88250000Y-113237500D01*
X87275001Y-113237500D01*
X87275001Y-113374986D01*
X83500500Y-113374986D01*
X83500500Y-113359575D01*
X83473600Y-113120827D01*
X83469057Y-113080504D01*
X83469054Y-113080487D01*
X83432998Y-112922517D01*
X83406560Y-112806682D01*
X83400933Y-112790602D01*
X83377737Y-112724311D01*
X83313801Y-112541592D01*
X83191945Y-112288555D01*
X83042523Y-112050752D01*
X82867416Y-111831175D01*
X82668825Y-111632584D01*
X82449248Y-111457477D01*
X82211445Y-111308055D01*
X82211442Y-111308053D01*
X81958411Y-111186200D01*
X81693329Y-111093443D01*
X81693317Y-111093439D01*
X81419512Y-111030945D01*
X81419494Y-111030942D01*
X81140431Y-110999500D01*
X81140425Y-110999500D01*
X80859575Y-110999500D01*
X80859568Y-110999500D01*
X80580505Y-111030942D01*
X80580487Y-111030945D01*
X80306682Y-111093439D01*
X80306670Y-111093443D01*
X80041588Y-111186200D01*
X79788557Y-111308053D01*
X79550753Y-111457476D01*
X79331175Y-111632583D01*
X79132583Y-111831175D01*
X78957476Y-112050753D01*
X78808053Y-112288557D01*
X78686200Y-112541588D01*
X78593443Y-112806670D01*
X78593439Y-112806682D01*
X78530945Y-113080487D01*
X78530942Y-113080505D01*
X78499500Y-113359568D01*
X78000499Y-113359568D01*
X78000499Y-107425261D01*
X78020184Y-107358222D01*
X78072988Y-107312467D01*
X78124499Y-107301261D01*
X80174493Y-107301261D01*
X80674493Y-107301261D01*
X83012321Y-107301261D01*
X83012337Y-107301260D01*
X83071865Y-107294859D01*
X83071872Y-107294857D01*
X83206579Y-107244615D01*
X83206586Y-107244611D01*
X83321680Y-107158451D01*
X83321683Y-107158448D01*
X83346735Y-107124983D01*
X87274500Y-107124983D01*
X87274500Y-107900001D01*
X87274501Y-107900019D01*
X87285000Y-108002796D01*
X87285001Y-108002799D01*
X87322347Y-108115500D01*
X87340186Y-108169334D01*
X87426554Y-108309360D01*
X87432289Y-108318657D01*
X87561451Y-108447819D01*
X87559559Y-108449710D01*
X87592774Y-108496583D01*
X87599500Y-108536867D01*
X87599500Y-109888132D01*
X87579815Y-109955171D01*
X87560616Y-109976346D01*
X87561451Y-109977181D01*
X87432289Y-110106342D01*
X87340187Y-110255663D01*
X87340186Y-110255666D01*
X87285001Y-110422203D01*
X87285001Y-110422204D01*
X87285000Y-110422204D01*
X87274500Y-110524983D01*
X87274500Y-111300001D01*
X87274501Y-111300019D01*
X87285000Y-111402796D01*
X87285001Y-111402799D01*
X87303120Y-111457477D01*
X87340186Y-111569334D01*
X87432288Y-111718656D01*
X87556344Y-111842712D01*
X87559628Y-111844737D01*
X87559653Y-111844753D01*
X87561445Y-111846746D01*
X87562011Y-111847193D01*
X87561934Y-111847289D01*
X87606379Y-111896699D01*
X87617603Y-111965661D01*
X87589761Y-112029744D01*
X87559665Y-112055826D01*
X87556660Y-112057679D01*
X87556655Y-112057683D01*
X87432684Y-112181654D01*
X87340643Y-112330875D01*
X87340641Y-112330880D01*
X87285494Y-112497302D01*
X87285493Y-112497309D01*
X87275000Y-112600013D01*
X87275000Y-112737500D01*
X89724999Y-112737500D01*
X89724999Y-112600028D01*
X89724998Y-112600013D01*
X89714505Y-112497302D01*
X89659358Y-112330880D01*
X89659356Y-112330875D01*
X89567315Y-112181654D01*
X89443344Y-112057683D01*
X89443341Y-112057681D01*
X89440339Y-112055829D01*
X89438713Y-112054021D01*
X89437677Y-112053202D01*
X89437817Y-112053024D01*
X89393617Y-112003880D01*
X89382397Y-111934917D01*
X89410243Y-111870836D01*
X89440344Y-111844754D01*
X89443656Y-111842712D01*
X89567712Y-111718656D01*
X89659814Y-111569334D01*
X89714999Y-111402797D01*
X89725500Y-111300009D01*
X89725499Y-110524992D01*
X89717034Y-110442129D01*
X89714999Y-110422203D01*
X89714998Y-110422200D01*
X89676832Y-110307023D01*
X89659814Y-110255666D01*
X89567712Y-110106344D01*
X89443656Y-109982288D01*
X89438549Y-109977181D01*
X89440435Y-109975294D01*
X89407212Y-109928375D01*
X89400500Y-109888132D01*
X89400500Y-108537000D01*
X89420185Y-108469961D01*
X89472989Y-108424206D01*
X89524500Y-108413000D01*
X90175500Y-108413000D01*
X90242539Y-108432685D01*
X90288294Y-108485489D01*
X90299500Y-108537000D01*
X90299500Y-109777870D01*
X90299501Y-109777876D01*
X90305908Y-109837483D01*
X90356202Y-109972328D01*
X90356203Y-109972330D01*
X90403634Y-110035689D01*
X90428051Y-110101153D01*
X90413200Y-110169426D01*
X90403634Y-110184311D01*
X90356203Y-110247669D01*
X90356202Y-110247671D01*
X90305908Y-110382517D01*
X90303455Y-110405339D01*
X90299501Y-110442123D01*
X90299500Y-110442135D01*
X90299500Y-112317870D01*
X90299501Y-112317876D01*
X90305908Y-112377483D01*
X90356202Y-112512328D01*
X90356203Y-112512330D01*
X90403634Y-112575689D01*
X90428051Y-112641153D01*
X90413200Y-112709426D01*
X90403634Y-112724311D01*
X90356203Y-112787669D01*
X90356202Y-112787671D01*
X90305908Y-112922517D01*
X90299501Y-112982116D01*
X90299501Y-112982123D01*
X90299500Y-112982135D01*
X90299500Y-114857870D01*
X90299501Y-114857876D01*
X90305908Y-114917483D01*
X90356202Y-115052328D01*
X90356203Y-115052330D01*
X90403634Y-115115689D01*
X90428051Y-115181153D01*
X90413200Y-115249426D01*
X90403634Y-115264311D01*
X90356203Y-115327669D01*
X90356202Y-115327671D01*
X90305908Y-115462517D01*
X90299501Y-115522116D01*
X90299501Y-115522123D01*
X90299500Y-115522135D01*
X90299500Y-117397870D01*
X90299501Y-117397876D01*
X90305908Y-117457483D01*
X90356202Y-117592328D01*
X90356203Y-117592330D01*
X90403634Y-117655689D01*
X90428051Y-117721153D01*
X90413200Y-117789426D01*
X90403634Y-117804311D01*
X90356203Y-117867669D01*
X90356202Y-117867671D01*
X90305908Y-118002517D01*
X90299501Y-118062116D01*
X90299501Y-118062123D01*
X90299500Y-118062135D01*
X90299500Y-119937870D01*
X90299501Y-119937876D01*
X90305908Y-119997483D01*
X90356202Y-120132328D01*
X90356206Y-120132335D01*
X90442452Y-120247544D01*
X90442455Y-120247547D01*
X90557664Y-120333793D01*
X90557671Y-120333797D01*
X90692517Y-120384091D01*
X90692516Y-120384091D01*
X90699444Y-120384835D01*
X90752127Y-120390500D01*
X93347872Y-120390499D01*
X93407483Y-120384091D01*
X93542331Y-120333796D01*
X93657546Y-120247546D01*
X93743796Y-120132331D01*
X93794091Y-119997483D01*
X93800500Y-119937873D01*
X93800499Y-118062128D01*
X93794091Y-118002517D01*
X93743796Y-117867669D01*
X93696365Y-117804310D01*
X93671949Y-117738847D01*
X93686800Y-117670574D01*
X93696366Y-117655689D01*
X93743796Y-117592331D01*
X93794091Y-117457483D01*
X93800500Y-117397873D01*
X93800499Y-115522128D01*
X93795299Y-115473757D01*
X93794091Y-115462516D01*
X93743797Y-115327671D01*
X93743796Y-115327669D01*
X93696366Y-115264311D01*
X93671949Y-115198847D01*
X93686800Y-115130574D01*
X93696366Y-115115689D01*
X93743796Y-115052331D01*
X93794091Y-114917483D01*
X93800500Y-114857873D01*
X93800500Y-114224500D01*
X93820185Y-114157461D01*
X93872989Y-114111706D01*
X93924500Y-114100500D01*
X94420234Y-114100500D01*
X94487273Y-114120185D01*
X94489125Y-114121398D01*
X94620814Y-114209390D01*
X94620827Y-114209397D01*
X94766498Y-114269735D01*
X94766503Y-114269737D01*
X94921153Y-114300499D01*
X94921156Y-114300500D01*
X94921158Y-114300500D01*
X95078844Y-114300500D01*
X95078845Y-114300499D01*
X95233497Y-114269737D01*
X95379179Y-114209394D01*
X95510289Y-114121789D01*
X95621789Y-114010289D01*
X95709394Y-113879179D01*
X95769737Y-113733497D01*
X95800500Y-113578842D01*
X95800500Y-113421158D01*
X95800500Y-113421155D01*
X95800499Y-113421153D01*
X95769738Y-113266510D01*
X95769737Y-113266503D01*
X95742200Y-113200022D01*
X95709397Y-113120827D01*
X95709390Y-113120814D01*
X95621789Y-112989711D01*
X95621786Y-112989707D01*
X95510292Y-112878213D01*
X95510288Y-112878210D01*
X95379185Y-112790609D01*
X95379172Y-112790602D01*
X95233501Y-112730264D01*
X95233489Y-112730261D01*
X95078845Y-112699500D01*
X95078842Y-112699500D01*
X94921158Y-112699500D01*
X94921155Y-112699500D01*
X94766510Y-112730261D01*
X94766498Y-112730264D01*
X94620827Y-112790602D01*
X94620814Y-112790609D01*
X94489125Y-112878602D01*
X94422447Y-112899480D01*
X94420234Y-112899500D01*
X93871602Y-112899500D01*
X93804563Y-112879815D01*
X93765523Y-112839713D01*
X93759489Y-112829745D01*
X93743796Y-112787669D01*
X93692710Y-112719428D01*
X93689554Y-112714213D01*
X93682113Y-112686097D01*
X93671949Y-112658847D01*
X93673280Y-112652724D01*
X93671678Y-112646669D01*
X93680617Y-112618995D01*
X93686800Y-112590574D01*
X93692830Y-112581191D01*
X93693156Y-112580182D01*
X93693838Y-112579622D01*
X93696366Y-112575689D01*
X93721894Y-112541588D01*
X93743796Y-112512331D01*
X93794091Y-112377483D01*
X93800500Y-112317873D01*
X93800500Y-112104500D01*
X93820185Y-112037461D01*
X93872989Y-111991706D01*
X93924500Y-111980500D01*
X95079903Y-111980500D01*
X95146942Y-112000185D01*
X95167584Y-112016819D01*
X102665425Y-119514660D01*
X102698910Y-119575983D01*
X102699361Y-119578149D01*
X102730261Y-119733491D01*
X102730264Y-119733501D01*
X102790602Y-119879172D01*
X102790609Y-119879185D01*
X102878210Y-120010288D01*
X102878213Y-120010292D01*
X102989707Y-120121786D01*
X102989711Y-120121789D01*
X103120814Y-120209390D01*
X103120827Y-120209397D01*
X103212931Y-120247547D01*
X103266503Y-120269737D01*
X103421153Y-120300499D01*
X103421156Y-120300500D01*
X103421158Y-120300500D01*
X103578844Y-120300500D01*
X103578845Y-120300499D01*
X103733497Y-120269737D01*
X103879179Y-120209394D01*
X104010289Y-120121789D01*
X104121789Y-120010289D01*
X104209394Y-119879179D01*
X104269737Y-119733497D01*
X104300500Y-119578842D01*
X104300500Y-119421158D01*
X104300500Y-119421155D01*
X104300499Y-119421153D01*
X104269738Y-119266510D01*
X104269737Y-119266503D01*
X104269735Y-119266498D01*
X104209397Y-119120827D01*
X104209390Y-119120814D01*
X104121789Y-118989711D01*
X104121786Y-118989707D01*
X104010292Y-118878213D01*
X104010288Y-118878210D01*
X103879185Y-118790609D01*
X103879172Y-118790602D01*
X103733501Y-118730264D01*
X103733491Y-118730261D01*
X103578149Y-118699361D01*
X103516238Y-118666976D01*
X103514660Y-118665425D01*
X95867590Y-111018355D01*
X95867588Y-111018352D01*
X95748717Y-110899481D01*
X95748716Y-110899480D01*
X95661904Y-110849360D01*
X95661904Y-110849359D01*
X95661900Y-110849358D01*
X95611785Y-110820423D01*
X95459057Y-110779499D01*
X95300943Y-110779499D01*
X95293347Y-110779499D01*
X95293331Y-110779500D01*
X93924499Y-110779500D01*
X93857460Y-110759815D01*
X93811705Y-110707011D01*
X93800499Y-110655500D01*
X93800499Y-110442129D01*
X93800498Y-110442123D01*
X93800497Y-110442116D01*
X93794091Y-110382517D01*
X93793083Y-110379815D01*
X93743797Y-110247671D01*
X93743796Y-110247669D01*
X93696366Y-110184311D01*
X93671949Y-110118847D01*
X93686800Y-110050574D01*
X93696366Y-110035689D01*
X93740790Y-109976346D01*
X93743796Y-109972331D01*
X93794091Y-109837483D01*
X93800500Y-109777873D01*
X93800500Y-109564500D01*
X93820185Y-109497461D01*
X93872989Y-109451706D01*
X93924500Y-109440500D01*
X95039903Y-109440500D01*
X95106942Y-109460185D01*
X95127584Y-109476819D01*
X102165425Y-116514660D01*
X102198910Y-116575983D01*
X102199361Y-116578149D01*
X102230261Y-116733491D01*
X102230264Y-116733501D01*
X102290602Y-116879172D01*
X102290609Y-116879185D01*
X102378210Y-117010288D01*
X102378213Y-117010292D01*
X102489707Y-117121786D01*
X102489711Y-117121789D01*
X102620814Y-117209390D01*
X102620827Y-117209397D01*
X102715746Y-117248713D01*
X102766503Y-117269737D01*
X102921153Y-117300499D01*
X102921156Y-117300500D01*
X102921158Y-117300500D01*
X103078844Y-117300500D01*
X103078845Y-117300499D01*
X103233497Y-117269737D01*
X103379179Y-117209394D01*
X103510289Y-117121789D01*
X103621789Y-117010289D01*
X103709394Y-116879179D01*
X103769737Y-116733497D01*
X103800500Y-116578842D01*
X103800500Y-116421158D01*
X103800500Y-116421155D01*
X103800499Y-116421153D01*
X103769738Y-116266510D01*
X103769737Y-116266503D01*
X103768147Y-116262664D01*
X103709397Y-116120827D01*
X103709390Y-116120814D01*
X103621789Y-115989711D01*
X103621786Y-115989707D01*
X103510292Y-115878213D01*
X103510288Y-115878210D01*
X103379185Y-115790609D01*
X103379172Y-115790602D01*
X103233501Y-115730264D01*
X103233491Y-115730261D01*
X103078149Y-115699361D01*
X103016238Y-115666976D01*
X103014660Y-115665425D01*
X95827590Y-108478355D01*
X95827588Y-108478352D01*
X95708717Y-108359481D01*
X95708716Y-108359480D01*
X95621904Y-108309360D01*
X95621904Y-108309359D01*
X95621900Y-108309358D01*
X95571785Y-108280423D01*
X95419057Y-108239499D01*
X95260943Y-108239499D01*
X95253347Y-108239499D01*
X95253331Y-108239500D01*
X93924499Y-108239500D01*
X93857460Y-108219815D01*
X93811705Y-108167011D01*
X93800499Y-108115500D01*
X93800499Y-107902129D01*
X93800498Y-107902123D01*
X93800497Y-107902116D01*
X93794091Y-107842517D01*
X93788103Y-107826463D01*
X93743797Y-107707671D01*
X93743796Y-107707669D01*
X93696366Y-107644311D01*
X93671949Y-107578847D01*
X93686800Y-107510574D01*
X93696366Y-107495689D01*
X93734686Y-107444500D01*
X93743796Y-107432331D01*
X93794091Y-107297483D01*
X93794091Y-107297477D01*
X93794445Y-107295985D01*
X93795039Y-107294941D01*
X93796802Y-107290215D01*
X93797567Y-107290500D01*
X93829019Y-107235269D01*
X93890930Y-107202883D01*
X93915122Y-107200500D01*
X96529469Y-107200500D01*
X96553659Y-107202882D01*
X96592656Y-107210639D01*
X96592657Y-107210640D01*
X96592658Y-107210640D01*
X96770043Y-107210640D01*
X96770044Y-107210639D01*
X96944016Y-107176035D01*
X97107897Y-107108152D01*
X97255386Y-107009604D01*
X97380814Y-106884176D01*
X97479362Y-106736687D01*
X97547245Y-106572806D01*
X97581850Y-106398832D01*
X97581850Y-106221448D01*
X97547245Y-106047474D01*
X97479362Y-105883593D01*
X97465262Y-105862491D01*
X97380815Y-105736105D01*
X97380814Y-105736104D01*
X97324524Y-105679814D01*
X97245246Y-105600536D01*
X97245242Y-105600533D01*
X97245240Y-105600531D01*
X97190832Y-105564178D01*
X97190826Y-105564175D01*
X97186169Y-105561063D01*
X97097757Y-105501987D01*
X97015816Y-105468046D01*
X96933876Y-105434105D01*
X96933868Y-105434103D01*
X96759906Y-105399500D01*
X96759902Y-105399500D01*
X96759901Y-105399500D01*
X93915122Y-105399500D01*
X93848083Y-105379815D01*
X93802328Y-105327011D01*
X93794445Y-105304015D01*
X93794091Y-105302521D01*
X93794091Y-105302517D01*
X93768345Y-105233489D01*
X93743797Y-105167671D01*
X93743795Y-105167668D01*
X93743793Y-105167665D01*
X93696053Y-105103892D01*
X93671636Y-105038431D01*
X93686487Y-104970158D01*
X93696054Y-104955271D01*
X93743352Y-104892089D01*
X93743354Y-104892086D01*
X93793596Y-104757379D01*
X93793598Y-104757372D01*
X93799999Y-104697844D01*
X93800000Y-104697827D01*
X93800000Y-104010000D01*
X90300000Y-104010000D01*
X90300000Y-104697844D01*
X90306401Y-104757372D01*
X90306403Y-104757379D01*
X90356645Y-104892086D01*
X90356647Y-104892088D01*
X90403945Y-104955271D01*
X90428362Y-105020735D01*
X90413510Y-105089008D01*
X90403946Y-105103891D01*
X90356205Y-105167665D01*
X90356202Y-105167671D01*
X90305908Y-105302517D01*
X90299593Y-105361261D01*
X90299500Y-105362127D01*
X90299500Y-105943443D01*
X90299501Y-106488000D01*
X90279816Y-106555039D01*
X90227013Y-106600794D01*
X90175501Y-106612000D01*
X89524333Y-106612000D01*
X89504790Y-106606261D01*
X89484437Y-106605407D01*
X89463990Y-106594281D01*
X89457294Y-106592315D01*
X89452976Y-106589411D01*
X89445562Y-106584194D01*
X89443656Y-106582288D01*
X89437150Y-106578275D01*
X89434083Y-106576117D01*
X89414582Y-106551604D01*
X89393618Y-106528297D01*
X89392995Y-106524469D01*
X89390584Y-106521439D01*
X89387430Y-106490268D01*
X89382397Y-106459334D01*
X89383941Y-106455780D01*
X89383551Y-106451925D01*
X89397751Y-106423994D01*
X89410240Y-106395252D01*
X89414038Y-106391960D01*
X89415217Y-106389643D01*
X89419822Y-106386949D01*
X89440348Y-106369165D01*
X89443342Y-106367318D01*
X89567315Y-106243345D01*
X89659356Y-106094124D01*
X89659358Y-106094119D01*
X89714505Y-105927697D01*
X89714506Y-105927690D01*
X89724999Y-105824986D01*
X89725000Y-105824973D01*
X89725000Y-105687500D01*
X87275001Y-105687500D01*
X87275001Y-105824986D01*
X87285494Y-105927697D01*
X87340641Y-106094119D01*
X87340643Y-106094124D01*
X87432684Y-106243345D01*
X87556655Y-106367316D01*
X87556659Y-106367319D01*
X87559656Y-106369168D01*
X87561279Y-106370972D01*
X87562323Y-106371798D01*
X87562181Y-106371976D01*
X87606381Y-106421116D01*
X87617602Y-106490079D01*
X87589759Y-106554161D01*
X87559661Y-106580241D01*
X87556349Y-106582283D01*
X87556343Y-106582288D01*
X87432289Y-106706342D01*
X87340187Y-106855663D01*
X87340185Y-106855668D01*
X87330737Y-106884181D01*
X87285001Y-107022203D01*
X87285001Y-107022204D01*
X87285000Y-107022204D01*
X87274500Y-107124983D01*
X83346735Y-107124983D01*
X83404720Y-107047525D01*
X83404722Y-107047523D01*
X83407846Y-107043349D01*
X83407847Y-107043347D01*
X83458089Y-106908640D01*
X83458091Y-106908633D01*
X83464492Y-106849105D01*
X83464493Y-106849088D01*
X83464493Y-106667087D01*
X83484178Y-106600048D01*
X83536982Y-106554293D01*
X83606140Y-106544349D01*
X83612685Y-106545470D01*
X83767476Y-106576261D01*
X83961509Y-106576261D01*
X83961511Y-106576260D01*
X84151799Y-106538409D01*
X84151811Y-106538406D01*
X84331058Y-106464160D01*
X84362697Y-106443019D01*
X83775397Y-105855719D01*
X83741912Y-105794396D01*
X83742256Y-105789579D01*
X83818743Y-105821261D01*
X83910243Y-105821261D01*
X83994778Y-105786246D01*
X84059478Y-105721546D01*
X84094493Y-105637011D01*
X84094493Y-105591260D01*
X84218047Y-105591260D01*
X84218047Y-105591261D01*
X84716251Y-106089465D01*
X84737392Y-106057826D01*
X84811638Y-105878579D01*
X84811641Y-105878567D01*
X84849493Y-105688276D01*
X84849493Y-105494244D01*
X84849492Y-105494242D01*
X84811641Y-105303954D01*
X84811638Y-105303942D01*
X84737390Y-105124690D01*
X84731418Y-105115752D01*
X84716252Y-105093055D01*
X84716251Y-105093055D01*
X84218047Y-105591260D01*
X84094493Y-105591260D01*
X84094493Y-105545511D01*
X84059478Y-105460976D01*
X83994778Y-105396276D01*
X83910243Y-105361261D01*
X83818743Y-105361261D01*
X83745431Y-105391627D01*
X83746896Y-105371150D01*
X83775397Y-105326803D01*
X84052187Y-105050013D01*
X87275000Y-105050013D01*
X87275000Y-105187500D01*
X88250000Y-105187500D01*
X88750000Y-105187500D01*
X89724999Y-105187500D01*
X89724999Y-105050028D01*
X89724998Y-105050013D01*
X89714505Y-104947302D01*
X89659358Y-104780880D01*
X89659356Y-104780875D01*
X89567315Y-104631654D01*
X89443345Y-104507684D01*
X89294124Y-104415643D01*
X89294119Y-104415641D01*
X89127697Y-104360494D01*
X89127690Y-104360493D01*
X89024986Y-104350000D01*
X88750000Y-104350000D01*
X88750000Y-105187500D01*
X88250000Y-105187500D01*
X88250000Y-104350000D01*
X87975029Y-104350000D01*
X87975012Y-104350001D01*
X87872302Y-104360494D01*
X87705880Y-104415641D01*
X87705875Y-104415643D01*
X87556654Y-104507684D01*
X87432684Y-104631654D01*
X87340643Y-104780875D01*
X87340641Y-104780880D01*
X87285494Y-104947302D01*
X87285493Y-104947309D01*
X87275000Y-105050013D01*
X84052187Y-105050013D01*
X84362698Y-104739501D01*
X84331068Y-104718367D01*
X84331061Y-104718363D01*
X84151807Y-104644114D01*
X84151799Y-104644112D01*
X83961510Y-104606261D01*
X83767476Y-104606261D01*
X83612684Y-104637051D01*
X83543093Y-104630824D01*
X83487915Y-104587961D01*
X83464671Y-104522071D01*
X83464493Y-104515434D01*
X83464493Y-104333433D01*
X83464492Y-104333416D01*
X83458091Y-104273888D01*
X83458089Y-104273881D01*
X83407847Y-104139174D01*
X83407843Y-104139167D01*
X83321683Y-104024073D01*
X83321680Y-104024070D01*
X83206586Y-103937910D01*
X83206579Y-103937906D01*
X83071872Y-103887664D01*
X83071865Y-103887662D01*
X83012337Y-103881261D01*
X80674493Y-103881261D01*
X80674493Y-107301261D01*
X80174493Y-107301261D01*
X80174493Y-103881261D01*
X78124499Y-103881261D01*
X78057460Y-103861576D01*
X78011705Y-103808772D01*
X78000499Y-103757261D01*
X78000499Y-102988761D01*
X78020184Y-102921722D01*
X78072988Y-102875967D01*
X78124499Y-102864761D01*
X83013131Y-102864761D01*
X83013147Y-102864760D01*
X83040185Y-102861852D01*
X83073694Y-102858250D01*
X83210697Y-102807150D01*
X83327754Y-102719522D01*
X83415382Y-102602465D01*
X83466482Y-102465462D01*
X83471833Y-102415689D01*
X83472992Y-102404915D01*
X83472993Y-102404898D01*
X83472993Y-101931935D01*
X83492678Y-101864896D01*
X83545482Y-101819141D01*
X83596883Y-101807935D01*
X84976082Y-101806750D01*
X90167500Y-101806750D01*
X90234539Y-101826435D01*
X90280294Y-101879239D01*
X90291500Y-101930750D01*
X90291500Y-102158654D01*
X90298011Y-102219202D01*
X90298011Y-102219204D01*
X90324642Y-102290602D01*
X90347666Y-102352331D01*
X90349112Y-102356206D01*
X90398949Y-102422781D01*
X90423366Y-102488245D01*
X90408514Y-102556518D01*
X90398949Y-102571401D01*
X90356649Y-102627906D01*
X90356645Y-102627913D01*
X90306403Y-102762620D01*
X90306401Y-102762627D01*
X90300000Y-102822155D01*
X90300000Y-103510000D01*
X93800000Y-103510000D01*
X93800000Y-102822172D01*
X93799999Y-102822155D01*
X93793598Y-102762627D01*
X93793596Y-102762620D01*
X93743354Y-102627913D01*
X93743350Y-102627906D01*
X93701051Y-102571402D01*
X93676633Y-102505938D01*
X93691484Y-102437665D01*
X93701045Y-102422786D01*
X93750889Y-102356204D01*
X93801989Y-102219201D01*
X93806115Y-102180826D01*
X93808499Y-102158654D01*
X93808500Y-102158637D01*
X93808500Y-100282135D01*
X107749500Y-100282135D01*
X107749500Y-102157870D01*
X107749501Y-102157876D01*
X107755908Y-102217483D01*
X107806202Y-102352328D01*
X107806203Y-102352330D01*
X107806204Y-102352331D01*
X107845568Y-102404915D01*
X107853634Y-102415689D01*
X107878051Y-102481153D01*
X107863200Y-102549426D01*
X107853634Y-102564311D01*
X107806203Y-102627669D01*
X107806202Y-102627671D01*
X107755908Y-102762517D01*
X107749501Y-102822116D01*
X107749500Y-102822135D01*
X107749500Y-104697870D01*
X107749501Y-104697876D01*
X107755908Y-104757483D01*
X107806202Y-104892328D01*
X107806203Y-104892330D01*
X107853634Y-104955689D01*
X107878051Y-105021153D01*
X107863200Y-105089426D01*
X107853634Y-105104311D01*
X107806203Y-105167669D01*
X107806202Y-105167671D01*
X107755908Y-105302517D01*
X107749593Y-105361261D01*
X107749501Y-105362123D01*
X107749500Y-105362135D01*
X107749500Y-107237870D01*
X107749501Y-107237876D01*
X107755908Y-107297483D01*
X107806202Y-107432328D01*
X107806203Y-107432330D01*
X107853634Y-107495689D01*
X107878051Y-107561153D01*
X107863200Y-107629426D01*
X107853634Y-107644311D01*
X107806203Y-107707669D01*
X107806202Y-107707671D01*
X107755908Y-107842517D01*
X107749501Y-107902116D01*
X107749501Y-107902123D01*
X107749500Y-107902135D01*
X107749500Y-109777870D01*
X107749501Y-109777876D01*
X107755908Y-109837483D01*
X107806202Y-109972328D01*
X107806203Y-109972330D01*
X107853634Y-110035689D01*
X107878051Y-110101153D01*
X107863200Y-110169426D01*
X107853634Y-110184311D01*
X107806203Y-110247669D01*
X107806202Y-110247671D01*
X107755908Y-110382517D01*
X107753455Y-110405339D01*
X107749501Y-110442123D01*
X107749500Y-110442135D01*
X107749500Y-112317870D01*
X107749501Y-112317876D01*
X107755908Y-112377483D01*
X107806202Y-112512328D01*
X107806203Y-112512330D01*
X107853634Y-112575689D01*
X107878051Y-112641153D01*
X107863200Y-112709426D01*
X107853634Y-112724311D01*
X107806203Y-112787669D01*
X107806202Y-112787671D01*
X107755908Y-112922517D01*
X107749501Y-112982116D01*
X107749501Y-112982123D01*
X107749500Y-112982135D01*
X107749500Y-114857870D01*
X107749501Y-114857876D01*
X107755908Y-114917483D01*
X107806202Y-115052328D01*
X107806203Y-115052330D01*
X107853634Y-115115689D01*
X107878051Y-115181153D01*
X107863200Y-115249426D01*
X107853634Y-115264311D01*
X107806203Y-115327669D01*
X107806202Y-115327671D01*
X107755908Y-115462517D01*
X107749501Y-115522116D01*
X107749501Y-115522123D01*
X107749500Y-115522135D01*
X107749500Y-117397870D01*
X107749501Y-117397876D01*
X107755908Y-117457483D01*
X107806202Y-117592328D01*
X107806203Y-117592330D01*
X107853634Y-117655689D01*
X107878051Y-117721153D01*
X107863200Y-117789426D01*
X107853634Y-117804311D01*
X107806203Y-117867669D01*
X107806202Y-117867671D01*
X107755908Y-118002517D01*
X107749501Y-118062116D01*
X107749501Y-118062123D01*
X107749500Y-118062135D01*
X107749500Y-119937870D01*
X107749501Y-119937876D01*
X107755908Y-119997483D01*
X107806202Y-120132328D01*
X107806206Y-120132335D01*
X107892452Y-120247544D01*
X107892455Y-120247547D01*
X108007664Y-120333793D01*
X108007671Y-120333797D01*
X108142517Y-120384091D01*
X108142516Y-120384091D01*
X108149444Y-120384835D01*
X108202127Y-120390500D01*
X110797872Y-120390499D01*
X110857483Y-120384091D01*
X110992331Y-120333796D01*
X111107546Y-120247546D01*
X111193796Y-120132331D01*
X111244091Y-119997483D01*
X111250500Y-119937873D01*
X111250499Y-118062128D01*
X111244091Y-118002517D01*
X111193796Y-117867669D01*
X111146365Y-117804310D01*
X111121949Y-117738847D01*
X111136800Y-117670574D01*
X111146366Y-117655689D01*
X111193796Y-117592331D01*
X111244091Y-117457483D01*
X111250500Y-117397873D01*
X111250499Y-115522128D01*
X111245299Y-115473757D01*
X111244091Y-115462516D01*
X111193797Y-115327671D01*
X111193796Y-115327669D01*
X111146366Y-115264311D01*
X111121949Y-115198847D01*
X111136800Y-115130574D01*
X111146366Y-115115689D01*
X111193796Y-115052331D01*
X111244091Y-114917483D01*
X111250500Y-114857873D01*
X111250499Y-113919512D01*
X111250499Y-112982129D01*
X111250498Y-112982123D01*
X111250497Y-112982116D01*
X111244091Y-112922517D01*
X111238103Y-112906463D01*
X111193797Y-112787671D01*
X111193796Y-112787669D01*
X111155603Y-112736650D01*
X111146365Y-112724310D01*
X111121949Y-112658847D01*
X111136800Y-112590574D01*
X111146366Y-112575689D01*
X111171894Y-112541588D01*
X111193796Y-112512331D01*
X111244091Y-112377483D01*
X111250500Y-112317873D01*
X111250500Y-111724500D01*
X111270185Y-111657461D01*
X111322989Y-111611706D01*
X111374500Y-111600500D01*
X168588488Y-111600500D01*
X168655527Y-111620185D01*
X168701282Y-111672989D01*
X168711226Y-111742147D01*
X168706419Y-111762815D01*
X168662918Y-111896699D01*
X168642753Y-111958760D01*
X168609500Y-112168713D01*
X168609500Y-112381286D01*
X168632444Y-112526153D01*
X168642754Y-112591243D01*
X168707532Y-112790609D01*
X168708444Y-112793414D01*
X168804951Y-112982820D01*
X168929890Y-113154786D01*
X169080213Y-113305109D01*
X169252179Y-113430048D01*
X169252181Y-113430049D01*
X169252184Y-113430051D01*
X169261493Y-113434794D01*
X169312290Y-113482766D01*
X169329087Y-113550587D01*
X169306552Y-113616722D01*
X169261505Y-113655760D01*
X169252446Y-113660376D01*
X169252440Y-113660380D01*
X169198282Y-113699727D01*
X169198282Y-113699728D01*
X169830591Y-114332037D01*
X169767007Y-114349075D01*
X169652993Y-114414901D01*
X169559901Y-114507993D01*
X169494075Y-114622007D01*
X169477037Y-114685591D01*
X168844728Y-114053282D01*
X168844727Y-114053282D01*
X168805380Y-114107439D01*
X168708904Y-114296782D01*
X168643242Y-114498869D01*
X168643242Y-114498872D01*
X168610000Y-114708753D01*
X168610000Y-114921246D01*
X168643242Y-115131127D01*
X168643242Y-115131130D01*
X168708904Y-115333217D01*
X168805375Y-115522550D01*
X168844728Y-115576716D01*
X169477036Y-114944407D01*
X169494075Y-115007993D01*
X169559901Y-115122007D01*
X169652993Y-115215099D01*
X169767007Y-115280925D01*
X169830590Y-115297962D01*
X169160370Y-115968181D01*
X169099047Y-116001666D01*
X169072698Y-116004500D01*
X169062134Y-116004500D01*
X169062123Y-116004501D01*
X169002516Y-116010908D01*
X168867671Y-116061202D01*
X168867664Y-116061206D01*
X168752455Y-116147452D01*
X168752452Y-116147455D01*
X168666206Y-116262664D01*
X168666202Y-116262671D01*
X168615908Y-116397517D01*
X168609501Y-116457116D01*
X168609500Y-116457135D01*
X168609500Y-118252870D01*
X168609501Y-118252876D01*
X168615908Y-118312483D01*
X168666202Y-118447328D01*
X168666206Y-118447335D01*
X168752452Y-118562544D01*
X168752455Y-118562547D01*
X168867664Y-118648793D01*
X168867671Y-118648797D01*
X169002517Y-118699091D01*
X169002516Y-118699091D01*
X169005028Y-118699361D01*
X169062127Y-118705500D01*
X170857872Y-118705499D01*
X170917483Y-118699091D01*
X171052331Y-118648796D01*
X171167546Y-118562546D01*
X171253796Y-118447331D01*
X171302810Y-118315916D01*
X171344681Y-118259984D01*
X171410145Y-118235566D01*
X171478418Y-118250417D01*
X171506673Y-118271569D01*
X171620213Y-118385109D01*
X171792179Y-118510048D01*
X171792181Y-118510049D01*
X171792184Y-118510051D01*
X171981588Y-118606557D01*
X172183757Y-118672246D01*
X172393713Y-118705500D01*
X172393714Y-118705500D01*
X172606286Y-118705500D01*
X172606287Y-118705500D01*
X172816243Y-118672246D01*
X173018412Y-118606557D01*
X173207816Y-118510051D01*
X173294138Y-118447335D01*
X173379786Y-118385109D01*
X173379788Y-118385106D01*
X173379792Y-118385104D01*
X173530104Y-118234792D01*
X173530106Y-118234788D01*
X173530109Y-118234786D01*
X173655048Y-118062820D01*
X173655047Y-118062820D01*
X173655051Y-118062816D01*
X173751557Y-117873412D01*
X173817246Y-117671243D01*
X173850500Y-117461287D01*
X173850500Y-117248713D01*
X173817246Y-117038757D01*
X173751557Y-116836588D01*
X173655051Y-116647184D01*
X173655049Y-116647181D01*
X173655048Y-116647179D01*
X173530109Y-116475213D01*
X173379786Y-116324890D01*
X173207820Y-116199951D01*
X173207115Y-116199591D01*
X173199054Y-116195485D01*
X173148259Y-116147512D01*
X173131463Y-116079692D01*
X173153999Y-116013556D01*
X173199054Y-115974515D01*
X173207816Y-115970051D01*
X173229789Y-115954086D01*
X173379786Y-115845109D01*
X173379788Y-115845106D01*
X173379792Y-115845104D01*
X173530104Y-115694792D01*
X173530106Y-115694788D01*
X173530109Y-115694786D01*
X173655048Y-115522820D01*
X173655050Y-115522817D01*
X173655051Y-115522816D01*
X173751557Y-115333412D01*
X173817246Y-115131243D01*
X173850500Y-114921287D01*
X173850500Y-114708713D01*
X173817246Y-114498757D01*
X173751557Y-114296588D01*
X173655051Y-114107184D01*
X173655049Y-114107181D01*
X173655048Y-114107179D01*
X173530109Y-113935213D01*
X173379786Y-113784890D01*
X173207820Y-113659951D01*
X173199600Y-113655763D01*
X173199054Y-113655485D01*
X173148259Y-113607512D01*
X173131463Y-113539692D01*
X173153999Y-113473556D01*
X173199054Y-113434515D01*
X173207816Y-113430051D01*
X173304823Y-113359572D01*
X173379786Y-113305109D01*
X173379788Y-113305106D01*
X173379792Y-113305104D01*
X173530104Y-113154792D01*
X173530106Y-113154788D01*
X173530109Y-113154786D01*
X173639086Y-113004789D01*
X173655051Y-112982816D01*
X173751557Y-112793412D01*
X173817246Y-112591243D01*
X173850500Y-112381287D01*
X173850500Y-112168713D01*
X173817246Y-111958757D01*
X173751557Y-111756588D01*
X173655051Y-111567184D01*
X173655049Y-111567181D01*
X173655048Y-111567179D01*
X173530109Y-111395213D01*
X173379786Y-111244890D01*
X173207820Y-111119951D01*
X173207115Y-111119591D01*
X173199054Y-111115485D01*
X173148259Y-111067512D01*
X173131463Y-110999692D01*
X173153999Y-110933556D01*
X173199054Y-110894515D01*
X173207816Y-110890051D01*
X173263826Y-110849358D01*
X173379786Y-110765109D01*
X173379788Y-110765106D01*
X173379792Y-110765104D01*
X173530104Y-110614792D01*
X173530106Y-110614788D01*
X173530109Y-110614786D01*
X173655048Y-110442820D01*
X173655047Y-110442820D01*
X173655051Y-110442816D01*
X173751557Y-110253412D01*
X173817246Y-110051243D01*
X173850500Y-109841287D01*
X173850500Y-109628713D01*
X173817246Y-109418757D01*
X173751557Y-109216588D01*
X173655051Y-109027184D01*
X173655049Y-109027181D01*
X173655048Y-109027179D01*
X173530109Y-108855213D01*
X173379786Y-108704890D01*
X173207820Y-108579951D01*
X173200032Y-108575983D01*
X173199054Y-108575485D01*
X173148259Y-108527512D01*
X173131463Y-108459692D01*
X173153999Y-108393556D01*
X173199054Y-108354515D01*
X173207816Y-108350051D01*
X173229789Y-108334086D01*
X173379786Y-108225109D01*
X173379788Y-108225106D01*
X173379792Y-108225104D01*
X173530104Y-108074792D01*
X173530106Y-108074788D01*
X173530109Y-108074786D01*
X173655048Y-107902820D01*
X173655047Y-107902820D01*
X173655051Y-107902816D01*
X173751557Y-107713412D01*
X173817246Y-107511243D01*
X173850500Y-107301287D01*
X173850500Y-107088713D01*
X173817246Y-106878757D01*
X173751557Y-106676588D01*
X173655051Y-106487184D01*
X173655049Y-106487181D01*
X173655048Y-106487179D01*
X173530109Y-106315213D01*
X173379786Y-106164890D01*
X173207820Y-106039951D01*
X173207115Y-106039591D01*
X173199054Y-106035485D01*
X173148259Y-105987512D01*
X173131463Y-105919692D01*
X173153999Y-105853556D01*
X173199054Y-105814515D01*
X173207816Y-105810051D01*
X173240581Y-105786246D01*
X173379786Y-105685109D01*
X173379788Y-105685106D01*
X173379792Y-105685104D01*
X173530104Y-105534792D01*
X173530106Y-105534788D01*
X173530109Y-105534786D01*
X173655048Y-105362820D01*
X173655047Y-105362820D01*
X173655051Y-105362816D01*
X173751557Y-105173412D01*
X173817246Y-104971243D01*
X173850500Y-104761287D01*
X173850500Y-104548713D01*
X173817246Y-104338757D01*
X173751557Y-104136588D01*
X173655051Y-103947184D01*
X173655049Y-103947181D01*
X173655048Y-103947179D01*
X173530109Y-103775213D01*
X173379786Y-103624890D01*
X173207820Y-103499951D01*
X173207115Y-103499591D01*
X173199054Y-103495485D01*
X173148259Y-103447512D01*
X173131463Y-103379692D01*
X173153999Y-103313556D01*
X173199054Y-103274515D01*
X173207816Y-103270051D01*
X173249745Y-103239588D01*
X173379786Y-103145109D01*
X173379788Y-103145106D01*
X173379792Y-103145104D01*
X173530104Y-102994792D01*
X173530106Y-102994788D01*
X173530109Y-102994786D01*
X173655048Y-102822820D01*
X173655050Y-102822817D01*
X173655051Y-102822816D01*
X173751557Y-102633412D01*
X173817246Y-102431243D01*
X173850500Y-102221287D01*
X173850500Y-102008713D01*
X173817246Y-101798757D01*
X173751557Y-101596588D01*
X173655051Y-101407184D01*
X173655049Y-101407181D01*
X173655048Y-101407179D01*
X173530109Y-101235213D01*
X173379786Y-101084890D01*
X173207820Y-100959951D01*
X173018414Y-100863444D01*
X173018413Y-100863443D01*
X173018412Y-100863443D01*
X172816243Y-100797754D01*
X172816241Y-100797753D01*
X172816240Y-100797753D01*
X172654957Y-100772208D01*
X172606287Y-100764500D01*
X172393713Y-100764500D01*
X172345042Y-100772208D01*
X172183760Y-100797753D01*
X171981585Y-100863444D01*
X171792179Y-100959951D01*
X171620213Y-101084890D01*
X171469890Y-101235213D01*
X171344949Y-101407182D01*
X171340202Y-101416499D01*
X171292227Y-101467293D01*
X171224405Y-101484087D01*
X171158271Y-101461548D01*
X171119234Y-101416495D01*
X171114626Y-101407452D01*
X171075270Y-101353282D01*
X171075269Y-101353282D01*
X170442962Y-101985590D01*
X170425925Y-101922007D01*
X170360099Y-101807993D01*
X170267007Y-101714901D01*
X170152993Y-101649075D01*
X170089409Y-101632037D01*
X170721716Y-100999728D01*
X170667550Y-100960375D01*
X170478217Y-100863904D01*
X170276129Y-100798242D01*
X170066246Y-100765000D01*
X169853754Y-100765000D01*
X169643872Y-100798242D01*
X169643869Y-100798242D01*
X169441782Y-100863904D01*
X169252439Y-100960380D01*
X169198282Y-100999727D01*
X169198282Y-100999728D01*
X169830591Y-101632037D01*
X169767007Y-101649075D01*
X169652993Y-101714901D01*
X169559901Y-101807993D01*
X169494075Y-101922007D01*
X169477037Y-101985591D01*
X168844728Y-101353282D01*
X168844727Y-101353282D01*
X168805380Y-101407439D01*
X168708904Y-101596782D01*
X168643242Y-101798869D01*
X168643242Y-101798872D01*
X168610000Y-102008753D01*
X168610000Y-102221246D01*
X168643242Y-102431127D01*
X168643242Y-102431130D01*
X168708904Y-102633217D01*
X168805375Y-102822550D01*
X168844728Y-102876716D01*
X169477036Y-102244407D01*
X169494075Y-102307993D01*
X169559901Y-102422007D01*
X169652993Y-102515099D01*
X169767007Y-102580925D01*
X169830590Y-102597962D01*
X169198282Y-103230269D01*
X169201077Y-103265770D01*
X169186713Y-103334147D01*
X169137663Y-103383904D01*
X169077459Y-103399500D01*
X113386555Y-103399500D01*
X113319516Y-103379815D01*
X113273761Y-103327011D01*
X113263817Y-103257853D01*
X113268840Y-103239588D01*
X113267969Y-103239324D01*
X113269731Y-103233509D01*
X113269737Y-103233497D01*
X113300500Y-103078842D01*
X113300500Y-102921158D01*
X113300500Y-102921155D01*
X113300499Y-102921153D01*
X113287987Y-102858250D01*
X113269737Y-102766503D01*
X113269735Y-102766498D01*
X113209397Y-102620827D01*
X113209390Y-102620814D01*
X113121789Y-102489711D01*
X113121786Y-102489707D01*
X113010292Y-102378213D01*
X113010288Y-102378210D01*
X112879185Y-102290609D01*
X112879172Y-102290602D01*
X112733501Y-102230264D01*
X112733491Y-102230261D01*
X112578149Y-102199361D01*
X112561392Y-102190595D01*
X112542914Y-102186576D01*
X112517877Y-102167833D01*
X112516238Y-102166976D01*
X112514660Y-102165425D01*
X111286818Y-100937583D01*
X111253333Y-100876260D01*
X111250499Y-100849902D01*
X111250499Y-100282129D01*
X111250498Y-100282123D01*
X111250497Y-100282116D01*
X111244091Y-100222517D01*
X111243450Y-100220799D01*
X111193797Y-100087671D01*
X111193793Y-100087664D01*
X111107547Y-99972455D01*
X111107544Y-99972452D01*
X110992335Y-99886206D01*
X110992328Y-99886202D01*
X110857482Y-99835908D01*
X110857483Y-99835908D01*
X110797883Y-99829501D01*
X110797881Y-99829500D01*
X110797873Y-99829500D01*
X110797864Y-99829500D01*
X108202129Y-99829500D01*
X108202123Y-99829501D01*
X108142516Y-99835908D01*
X108007671Y-99886202D01*
X108007664Y-99886206D01*
X107892455Y-99972452D01*
X107892452Y-99972455D01*
X107806206Y-100087664D01*
X107806202Y-100087671D01*
X107755908Y-100222517D01*
X107749584Y-100281345D01*
X107749501Y-100282123D01*
X107749500Y-100282135D01*
X93808500Y-100282135D01*
X93808500Y-100281362D01*
X93808499Y-100281345D01*
X93805157Y-100250270D01*
X93801989Y-100220799D01*
X93750889Y-100083796D01*
X93663261Y-99966739D01*
X93546204Y-99879111D01*
X93409203Y-99828011D01*
X93348654Y-99821500D01*
X93348638Y-99821500D01*
X90751362Y-99821500D01*
X90751345Y-99821500D01*
X90690797Y-99828011D01*
X90690795Y-99828011D01*
X90553795Y-99879111D01*
X90436739Y-99966739D01*
X90349111Y-100083795D01*
X90298011Y-100220795D01*
X90298011Y-100220797D01*
X90291500Y-100281345D01*
X90291500Y-100500355D01*
X90271815Y-100567394D01*
X90219011Y-100613149D01*
X90167607Y-100624355D01*
X83597100Y-100630006D01*
X83530043Y-100610379D01*
X83484243Y-100557614D01*
X83472993Y-100506006D01*
X83472993Y-100017623D01*
X83472992Y-100017606D01*
X83468137Y-99972454D01*
X83466482Y-99957060D01*
X83415382Y-99820057D01*
X83327754Y-99703000D01*
X83210697Y-99615372D01*
X83073696Y-99564272D01*
X83013147Y-99557761D01*
X83013131Y-99557761D01*
X78124499Y-99557761D01*
X78057460Y-99538076D01*
X78011705Y-99485272D01*
X78000499Y-99433761D01*
X78000499Y-98665261D01*
X78020184Y-98598222D01*
X78072988Y-98552467D01*
X78124499Y-98541261D01*
X80174493Y-98541261D01*
X80674493Y-98541261D01*
X83012321Y-98541261D01*
X83012337Y-98541260D01*
X83071865Y-98534859D01*
X83071872Y-98534857D01*
X83206579Y-98484615D01*
X83206586Y-98484611D01*
X83321680Y-98398451D01*
X83321683Y-98398448D01*
X83407843Y-98283354D01*
X83407847Y-98283347D01*
X83458089Y-98148640D01*
X83458091Y-98148633D01*
X83464492Y-98089105D01*
X83464493Y-98089088D01*
X83464493Y-97907087D01*
X83484178Y-97840048D01*
X83536982Y-97794293D01*
X83606140Y-97784349D01*
X83612685Y-97785470D01*
X83767476Y-97816261D01*
X83961509Y-97816261D01*
X83961511Y-97816260D01*
X84151799Y-97778409D01*
X84151811Y-97778406D01*
X84331058Y-97704160D01*
X84362697Y-97683019D01*
X83775397Y-97095719D01*
X83741912Y-97034396D01*
X83742256Y-97029579D01*
X83818743Y-97061261D01*
X83910243Y-97061261D01*
X83994778Y-97026246D01*
X84059478Y-96961546D01*
X84094493Y-96877011D01*
X84094493Y-96831260D01*
X84218047Y-96831260D01*
X84218047Y-96831261D01*
X84716251Y-97329465D01*
X84737392Y-97297826D01*
X84811638Y-97118579D01*
X84811641Y-97118567D01*
X84849492Y-96928279D01*
X84849493Y-96928277D01*
X84849493Y-96734244D01*
X84849492Y-96734242D01*
X84811641Y-96543954D01*
X84811638Y-96543942D01*
X84737391Y-96364692D01*
X84716251Y-96333055D01*
X84218047Y-96831260D01*
X84094493Y-96831260D01*
X84094493Y-96785511D01*
X84059478Y-96700976D01*
X83994778Y-96636276D01*
X83910243Y-96601261D01*
X83818743Y-96601261D01*
X83745431Y-96631627D01*
X83746896Y-96611150D01*
X83775397Y-96566803D01*
X84362698Y-95979501D01*
X84331068Y-95958367D01*
X84331061Y-95958363D01*
X84151807Y-95884114D01*
X84151799Y-95884112D01*
X83961510Y-95846261D01*
X83767476Y-95846261D01*
X83612684Y-95877051D01*
X83591700Y-95875173D01*
X83570846Y-95878172D01*
X83557598Y-95872121D01*
X83543093Y-95870824D01*
X83526454Y-95857899D01*
X83507290Y-95849147D01*
X83499416Y-95836895D01*
X83487915Y-95827961D01*
X83480905Y-95808092D01*
X83469516Y-95790369D01*
X83465981Y-95765785D01*
X83464671Y-95762071D01*
X83464493Y-95755434D01*
X83464493Y-95609568D01*
X122999500Y-95609568D01*
X122999500Y-95890431D01*
X123030942Y-96169494D01*
X123030945Y-96169512D01*
X123093439Y-96443317D01*
X123093443Y-96443329D01*
X123186200Y-96708411D01*
X123308053Y-96961442D01*
X123308055Y-96961445D01*
X123457477Y-97199248D01*
X123632584Y-97418825D01*
X123831175Y-97617416D01*
X124050752Y-97792523D01*
X124288555Y-97941945D01*
X124541592Y-98063801D01*
X124740680Y-98133465D01*
X124806670Y-98156556D01*
X124806682Y-98156560D01*
X125080491Y-98219055D01*
X125080497Y-98219055D01*
X125080505Y-98219057D01*
X125266547Y-98240018D01*
X125359569Y-98250499D01*
X125359572Y-98250500D01*
X125359575Y-98250500D01*
X125640428Y-98250500D01*
X125640429Y-98250499D01*
X125783055Y-98234429D01*
X125919494Y-98219057D01*
X125919499Y-98219056D01*
X125919509Y-98219055D01*
X126193318Y-98156560D01*
X126458408Y-98063801D01*
X126711445Y-97941945D01*
X126949248Y-97792523D01*
X127168825Y-97617416D01*
X127367416Y-97418825D01*
X127542523Y-97199248D01*
X127691945Y-96961445D01*
X127813801Y-96708408D01*
X127906560Y-96443318D01*
X127969055Y-96169509D01*
X127972332Y-96140431D01*
X127984429Y-96033055D01*
X128000500Y-95890425D01*
X128000500Y-95859568D01*
X170999500Y-95859568D01*
X170999500Y-96140431D01*
X171030942Y-96419494D01*
X171030945Y-96419512D01*
X171093439Y-96693317D01*
X171093443Y-96693329D01*
X171186200Y-96958411D01*
X171308053Y-97211442D01*
X171308055Y-97211445D01*
X171457477Y-97449248D01*
X171632584Y-97668825D01*
X171831175Y-97867416D01*
X172050752Y-98042523D01*
X172288555Y-98191945D01*
X172288557Y-98191946D01*
X172344850Y-98219055D01*
X172541592Y-98313801D01*
X172740680Y-98383465D01*
X172806670Y-98406556D01*
X172806682Y-98406560D01*
X173080491Y-98469055D01*
X173080497Y-98469055D01*
X173080505Y-98469057D01*
X173266547Y-98490018D01*
X173359569Y-98500499D01*
X173359572Y-98500500D01*
X173359575Y-98500500D01*
X173640428Y-98500500D01*
X173640429Y-98500499D01*
X173783055Y-98484429D01*
X173919494Y-98469057D01*
X173919499Y-98469056D01*
X173919509Y-98469055D01*
X174193318Y-98406560D01*
X174458408Y-98313801D01*
X174711445Y-98191945D01*
X174949248Y-98042523D01*
X175168825Y-97867416D01*
X175367416Y-97668825D01*
X175542523Y-97449248D01*
X175691945Y-97211445D01*
X175813801Y-96958408D01*
X175906560Y-96693318D01*
X175969055Y-96419509D01*
X175975232Y-96364692D01*
X175984429Y-96283055D01*
X176000500Y-96140425D01*
X176000500Y-95859575D01*
X175972332Y-95609572D01*
X175969057Y-95580505D01*
X175969054Y-95580487D01*
X175906560Y-95306682D01*
X175906556Y-95306670D01*
X175883465Y-95240680D01*
X175813801Y-95041592D01*
X175691945Y-94788555D01*
X175542523Y-94550752D01*
X175367416Y-94331175D01*
X175168825Y-94132584D01*
X174949248Y-93957477D01*
X174711445Y-93808055D01*
X174711442Y-93808053D01*
X174458411Y-93686200D01*
X174193329Y-93593443D01*
X174193317Y-93593439D01*
X173919512Y-93530945D01*
X173919494Y-93530942D01*
X173640431Y-93499500D01*
X173640425Y-93499500D01*
X173359575Y-93499500D01*
X173359568Y-93499500D01*
X173080505Y-93530942D01*
X173080487Y-93530945D01*
X172806682Y-93593439D01*
X172806670Y-93593443D01*
X172541588Y-93686200D01*
X172288557Y-93808053D01*
X172050753Y-93957476D01*
X171831175Y-94132583D01*
X171632583Y-94331175D01*
X171457476Y-94550753D01*
X171308053Y-94788557D01*
X171186200Y-95041588D01*
X171093443Y-95306670D01*
X171093439Y-95306682D01*
X171030945Y-95580487D01*
X171030942Y-95580505D01*
X170999500Y-95859568D01*
X128000500Y-95859568D01*
X128000500Y-95609575D01*
X127976881Y-95399949D01*
X127969057Y-95330505D01*
X127969054Y-95330487D01*
X127953895Y-95264073D01*
X127906560Y-95056682D01*
X127901278Y-95041588D01*
X127883465Y-94990680D01*
X127813801Y-94791592D01*
X127691945Y-94538555D01*
X127542523Y-94300752D01*
X127367416Y-94081175D01*
X127168825Y-93882584D01*
X126949248Y-93707477D01*
X126711445Y-93558055D01*
X126711442Y-93558053D01*
X126458411Y-93436200D01*
X126193329Y-93343443D01*
X126193317Y-93343439D01*
X125919512Y-93280945D01*
X125919494Y-93280942D01*
X125640431Y-93249500D01*
X125640425Y-93249500D01*
X125359575Y-93249500D01*
X125359568Y-93249500D01*
X125080505Y-93280942D01*
X125080487Y-93280945D01*
X124806682Y-93343439D01*
X124806670Y-93343443D01*
X124541588Y-93436200D01*
X124288557Y-93558053D01*
X124050753Y-93707476D01*
X123831175Y-93882583D01*
X123632583Y-94081175D01*
X123457476Y-94300753D01*
X123308053Y-94538557D01*
X123186200Y-94791588D01*
X123093443Y-95056670D01*
X123093439Y-95056682D01*
X123030945Y-95330487D01*
X123030942Y-95330505D01*
X122999500Y-95609568D01*
X83464493Y-95609568D01*
X83464493Y-95573433D01*
X83464492Y-95573416D01*
X83458091Y-95513888D01*
X83458089Y-95513881D01*
X83407847Y-95379174D01*
X83407843Y-95379167D01*
X83321683Y-95264073D01*
X83321680Y-95264070D01*
X83206586Y-95177910D01*
X83206579Y-95177906D01*
X83071872Y-95127664D01*
X83071865Y-95127662D01*
X83012337Y-95121261D01*
X80674493Y-95121261D01*
X80674493Y-98541261D01*
X80174493Y-98541261D01*
X80174493Y-95121261D01*
X78124499Y-95121261D01*
X78057460Y-95101576D01*
X78011705Y-95048772D01*
X78000499Y-94997261D01*
X78000499Y-93124500D01*
X78020184Y-93057461D01*
X78072988Y-93011706D01*
X78124499Y-93000500D01*
X176375499Y-93000500D01*
X176442538Y-93020185D01*
G37*
%TD.AperFunction*%
%TD*%
M02*
