M48
; DRILL file {KiCad 9.0.7} date 2026-03-01T16:17:25+0000
; FORMAT={-:-/ absolute / metric / decimal}
; #@! TF.CreationDate,2026-03-01T16:17:25+00:00
; #@! TF.GenerationSoftware,Kicad,Pcbnew,9.0.7
; #@! TF.FileFunction,Plated,1,2,PTH
FMAT,2
METRIC
; #@! TA.AperFunction,Plated,PTH,ComponentDrill
T1C0.762
; #@! TA.AperFunction,Plated,PTH,ComponentDrill
T2C1.000
%
G90
G05
T1
X127.987Y-106.516
X130.527Y-106.5
X130.857Y-101.3
X131.238Y-90.59
X131.238Y-95.67
X133.069Y-106.5
X133.778Y-90.59
X133.778Y-95.67
X136.319Y-90.59
X137.018Y-109.5
X138.858Y-90.59
X141.018Y-109.5
T2
X185.339Y-93.881
X185.339Y-96.421
X185.339Y-98.961
X185.339Y-101.501
X185.339Y-104.041
X185.339Y-106.581
X185.339Y-109.121
X187.879Y-93.881
X187.879Y-96.421
X187.879Y-98.961
X187.879Y-101.501
X187.879Y-104.041
X187.879Y-106.581
X187.879Y-109.121
M30
