M48
; DRILL file {KiCad 9.0.6} date 2026-03-06T12:57:54+0000
; FORMAT={-:-/ absolute / metric / decimal}
; #@! TF.CreationDate,2026-03-06T12:57:54+00:00
; #@! TF.GenerationSoftware,Kicad,Pcbnew,9.0.6
; #@! TF.FileFunction,Plated,1,4,PTH
FMAT,2
METRIC
; #@! TA.AperFunction,Plated,PTH,ViaDrill
T1C0.300
; #@! TA.AperFunction,Plated,PTH,ComponentDrill
T2C0.813
; #@! TA.AperFunction,Plated,PTH,ComponentDrill
T3C1.000
; #@! TA.AperFunction,Plated,PTH,ComponentDrill
T4C1.092
; #@! TA.AperFunction,Plated,PTH,ComponentDrill
T5C1.499
%
G90
G05
T1
X182.839Y-211.508
X182.948Y-179.697
X183.0Y-189.0
X183.885Y-171.228
X185.91Y-167.164
X185.972Y-169.619
X188.0Y-161.0
X188.0Y-169.734
X192.0Y-191.0
X193.181Y-209.896
X194.25Y-220.5
X194.5Y-206.0
X195.0Y-214.56
X195.326Y-136.652
X198.554Y-207.45
X198.597Y-196.344
X199.135Y-182.11
X200.5Y-197.0
X200.668Y-217.303
X200.75Y-205.0
X200.75Y-213.0
X201.0Y-183.0
X201.461Y-142.475
X201.638Y-187.836
X202.268Y-195.035
X202.5Y-206.0
X202.5Y-214.415
X204.74Y-212.332
X205.486Y-170.688
X205.65Y-216.186
X205.717Y-161.217
X205.777Y-151.986
X206.484Y-195.193
X207.0Y-197.0
X207.0Y-201.0
X207.5Y-176.5
X208.171Y-219.028
X210.0Y-157.0
X210.0Y-160.0
X210.036Y-164.768
X210.121Y-147.129
X210.975Y-178.02
X213.36Y-156.21
X213.483Y-171.715
X213.527Y-214.025
X213.614Y-143.51
X213.753Y-161.796
X215.285Y-173.806
X215.733Y-165.98
X215.766Y-207.382
X216.0Y-203.5
X216.487Y-154.987
X216.5Y-211.0
X217.32Y-197.243
X217.5Y-191.719
X217.65Y-218.462
X218.572Y-193.417
X218.829Y-186.976
X219.64Y-204.676
X220.318Y-197.296
X220.366Y-171.536
X220.839Y-178.239
X221.0Y-158.0
X221.221Y-218.923
X222.744Y-196.611
X223.0Y-203.5
X223.785Y-208.944
X225.588Y-194.71
X225.666Y-191.718
X226.596Y-218.711
X227.96Y-189.922
X229.769Y-177.586
X230.0Y-211.0
X232.5Y-218.5
X232.8Y-219.8
X232.896Y-189.771
X233.352Y-198.251
X233.502Y-202.606
X233.629Y-206.846
X234.0Y-211.0
X235.25Y-173.5
X235.568Y-213.777
X235.929Y-202.542
X236.0Y-220.4
X236.015Y-198.41
X238.067Y-207.197
X239.409Y-197.051
T2
X246.0Y-183.4
X246.0Y-185.4
X246.0Y-187.4
T3
X190.55Y-205.238
X190.55Y-207.778
X190.55Y-210.318
X190.55Y-212.858
X190.55Y-215.458
X195.04Y-132.779
X196.631Y-190.497
X196.631Y-193.037
X197.58Y-132.779
X199.171Y-190.497
X199.171Y-193.037
X200.12Y-132.779
X201.711Y-190.497
X201.711Y-193.037
X202.66Y-132.779
X204.251Y-190.497
X204.251Y-193.037
X205.2Y-132.779
X206.791Y-190.497
X206.791Y-193.037
X207.74Y-132.779
X209.331Y-190.497
X209.331Y-193.037
X210.28Y-132.779
X211.871Y-190.497
X211.871Y-193.037
X212.82Y-132.779
X215.36Y-132.779
X217.9Y-132.779
X220.44Y-132.779
T4
X211.8Y-200.76
X211.8Y-216.0
X214.34Y-200.76
X214.34Y-216.0
X216.88Y-200.76
X216.88Y-216.0
X219.42Y-200.76
X219.42Y-216.0
X221.96Y-200.76
X221.96Y-216.0
X224.5Y-200.76
X224.5Y-216.0
X227.04Y-200.76
X227.04Y-216.0
X229.58Y-200.76
X229.58Y-216.0
X232.12Y-200.76
X232.12Y-216.0
X234.66Y-200.76
X234.66Y-216.0
X237.2Y-200.76
X237.2Y-216.0
X239.74Y-200.76
X239.74Y-216.0
X242.28Y-200.76
X242.28Y-216.0
T5
X246.0Y-181.3
X246.0Y-189.5
M30
