%TF.GenerationSoftware,KiCad,Pcbnew,9.0.6*%
%TF.CreationDate,2026-03-06T12:57:56+00:00*%
%TF.ProjectId,mobile_receiver,6d6f6269-6c65-45f7-9265-636569766572,rev?*%
%TF.SameCoordinates,Original*%
%TF.FileFunction,Paste,Top*%
%TF.FilePolarity,Positive*%
%FSLAX46Y46*%
G04 Gerber Fmt 4.6, Leading zero omitted, Abs format (unit mm)*
G04 Created by KiCad (PCBNEW 9.0.6) date 2026-03-06 12:57:56*
%MOMM*%
%LPD*%
G01*
G04 APERTURE LIST*
G04 Aperture macros list*
%AMRoundRect*
0 Rectangle with rounded corners*
0 $1 Rounding radius*
0 $2 $3 $4 $5 $6 $7 $8 $9 X,Y pos of 4 corners*
0 Add a 4 corners polygon primitive as box body*
4,1,4,$2,$3,$4,$5,$6,$7,$8,$9,$2,$3,0*
0 Add four circle primitives for the rounded corners*
1,1,$1+$1,$2,$3*
1,1,$1+$1,$4,$5*
1,1,$1+$1,$6,$7*
1,1,$1+$1,$8,$9*
0 Add four rect primitives between the rounded corners*
20,1,$1+$1,$2,$3,$4,$5,0*
20,1,$1+$1,$4,$5,$6,$7,0*
20,1,$1+$1,$6,$7,$8,$9,0*
20,1,$1+$1,$8,$9,$2,$3,0*%
G04 Aperture macros list end*
%ADD10RoundRect,0.250000X0.350000X0.450000X-0.350000X0.450000X-0.350000X-0.450000X0.350000X-0.450000X0*%
%ADD11RoundRect,0.250000X0.450000X-0.350000X0.450000X0.350000X-0.450000X0.350000X-0.450000X-0.350000X0*%
%ADD12RoundRect,0.250000X-0.800000X-0.450000X0.800000X-0.450000X0.800000X0.450000X-0.800000X0.450000X0*%
%ADD13RoundRect,0.250000X-0.350000X-0.450000X0.350000X-0.450000X0.350000X0.450000X-0.350000X0.450000X0*%
%ADD14RoundRect,0.250000X0.800000X0.450000X-0.800000X0.450000X-0.800000X-0.450000X0.800000X-0.450000X0*%
%ADD15RoundRect,0.250000X0.475000X-0.337500X0.475000X0.337500X-0.475000X0.337500X-0.475000X-0.337500X0*%
G04 APERTURE END LIST*
D10*
%TO.C,R10*%
X188000000Y-156000000D03*
X186000000Y-156000000D03*
%TD*%
D11*
%TO.C,R11*%
X213614000Y-138831245D03*
X213614000Y-136831245D03*
%TD*%
D12*
%TO.C,SW6*%
X216503779Y-169316195D03*
X225603779Y-169316195D03*
X216503779Y-173816195D03*
X225603779Y-173816195D03*
%TD*%
D13*
%TO.C,R6*%
X179000000Y-189000000D03*
X181000000Y-189000000D03*
%TD*%
D10*
%TO.C,R8*%
X188232666Y-171500000D03*
X186232666Y-171500000D03*
%TD*%
D14*
%TO.C,SW5*%
X199582174Y-173710485D03*
X190482174Y-173710485D03*
X199582174Y-169210485D03*
X190482174Y-169210485D03*
%TD*%
D11*
%TO.C,R_PU1*%
X224000000Y-163500000D03*
X224000000Y-161500000D03*
%TD*%
D15*
%TO.C,C2*%
X171500000Y-169500000D03*
X171500000Y-167425000D03*
%TD*%
D12*
%TO.C,SW7*%
X230003779Y-165316195D03*
X239103779Y-165316195D03*
X230003779Y-169816195D03*
X239103779Y-169816195D03*
%TD*%
D13*
%TO.C,R9*%
X186000000Y-158500000D03*
X188000000Y-158500000D03*
%TD*%
D11*
%TO.C,R_PU0*%
X220500000Y-163500000D03*
X220500000Y-161500000D03*
%TD*%
D10*
%TO.C,R_PD1*%
X185000000Y-185500000D03*
X183000000Y-185500000D03*
%TD*%
D14*
%TO.C,SW4*%
X191731292Y-165802159D03*
X182631292Y-165802159D03*
X191731292Y-161302159D03*
X182631292Y-161302159D03*
%TD*%
D12*
%TO.C,SW3*%
X182950000Y-177250000D03*
X192050000Y-177250000D03*
X182950000Y-181750000D03*
X192050000Y-181750000D03*
%TD*%
D13*
%TO.C,R7*%
X174873048Y-177937442D03*
X176873048Y-177937442D03*
%TD*%
D14*
%TO.C,SW2*%
X183931637Y-173713910D03*
X174831637Y-173713910D03*
X183931637Y-169213910D03*
X174831637Y-169213910D03*
%TD*%
M02*
