%TF.GenerationSoftware,KiCad,Pcbnew,9.0.7*%
%TF.CreationDate,2026-03-03T20:35:58+00:00*%
%TF.ProjectId,mobile_receiver,6d6f6269-6c65-45f7-9265-636569766572,rev?*%
%TF.SameCoordinates,Original*%
%TF.FileFunction,Copper,L3,Inr*%
%TF.FilePolarity,Positive*%
%FSLAX46Y46*%
G04 Gerber Fmt 4.6, Leading zero omitted, Abs format (unit mm)*
G04 Created by KiCad (PCBNEW 9.0.7) date 2026-03-03 20:35:58*
%MOMM*%
%LPD*%
G01*
G04 APERTURE LIST*
%TA.AperFunction,ComponentPad*%
%ADD10C,2.006600*%
%TD*%
%TA.AperFunction,ComponentPad*%
%ADD11C,1.320800*%
%TD*%
%TA.AperFunction,ComponentPad*%
%ADD12C,1.800000*%
%TD*%
%TA.AperFunction,WasherPad*%
%ADD13C,4.500000*%
%TD*%
%TA.AperFunction,ComponentPad*%
%ADD14C,1.752600*%
%TD*%
%TA.AperFunction,ComponentPad*%
%ADD15R,1.752600X1.752600*%
%TD*%
%TA.AperFunction,ComponentPad*%
%ADD16C,1.930400*%
%TD*%
%TA.AperFunction,ComponentPad*%
%ADD17C,1.700000*%
%TD*%
%TA.AperFunction,ComponentPad*%
%ADD18R,1.700000X1.700000*%
%TD*%
%TA.AperFunction,ViaPad*%
%ADD19C,0.600000*%
%TD*%
G04 APERTURE END LIST*
D10*
%TO.N,N/C*%
%TO.C,SW1*%
X246000000Y-181300002D03*
X246000000Y-189500000D03*
D11*
X246000000Y-183400000D03*
%TO.N,/SUMMED_POWER*%
X246000000Y-185400001D03*
%TO.N,/SYS_VBUS*%
X246000000Y-187400001D03*
%TD*%
D12*
%TO.N,/VBAT*%
%TO.C,U1*%
X190549921Y-205238364D03*
%TO.N,GND*%
X190549921Y-207778364D03*
%TO.N,/USB_DP*%
X190549921Y-210318364D03*
%TO.N,/USB_DN*%
X190549921Y-212858364D03*
%TO.N,/USB_5V*%
X190549921Y-215458364D03*
D13*
%TO.N,*%
X190549921Y-201488364D03*
X176759921Y-201488364D03*
X190549921Y-219268364D03*
X176669921Y-219268364D03*
%TD*%
D14*
%TO.N,/TFT_RESET*%
%TO.C,U2*%
X242280000Y-216000000D03*
%TO.N,/SYS_MOSI*%
X239740000Y-216000000D03*
%TO.N,/SYS_MISO*%
X237200000Y-216000000D03*
%TO.N,/SYS_SCK*%
X234660000Y-216000000D03*
%TO.N,/RX_SWITCH*%
X232120000Y-216000000D03*
%TO.N,/TX_SWITCH*%
X229580000Y-216000000D03*
%TO.N,/DPAD_ADC*%
X227040000Y-216000000D03*
%TO.N,Net-(U2-A3{slash}29)*%
X224500000Y-216000000D03*
%TO.N,+3.3V*%
X221960000Y-216000000D03*
%TO.N,unconnected-(U2-RESET-Pad17)*%
X219420000Y-216000000D03*
%TO.N,GND*%
X216880000Y-216000000D03*
%TO.N,/SYS_VBUS*%
X214340000Y-216000000D03*
%TO.N,/USB_DN*%
X211800000Y-216000000D03*
%TO.N,/SPI_CS*%
X242280000Y-200760000D03*
%TO.N,/RADIO_BUSY*%
X239740000Y-200760000D03*
%TO.N,/BTN_B*%
X237200000Y-200760000D03*
%TO.N,/BTN_A*%
X234660000Y-200760000D03*
%TO.N,/TFT_CS*%
X232120000Y-200760000D03*
%TO.N,/TFT_DC*%
X229580000Y-200760000D03*
%TO.N,/RADIO_DIO1*%
X227040000Y-200760000D03*
%TO.N,/RADIO_RST*%
X224500000Y-200760000D03*
%TO.N,GND*%
X221960000Y-200760000D03*
X219420000Y-200760000D03*
%TO.N,/RADIO_RX*%
X216880000Y-200760000D03*
%TO.N,/RADIO_TX*%
X214340000Y-200760000D03*
D15*
%TO.N,/USB_DP*%
X211800000Y-200760000D03*
%TD*%
D16*
%TO.N,+3.3V*%
%TO.C,U3*%
X195039573Y-132778620D03*
%TO.N,unconnected-(U3-3V3-Pad2)*%
X197579573Y-132778620D03*
%TO.N,GND*%
X200119573Y-132778620D03*
%TO.N,/SYS_SCK*%
X202659573Y-132778620D03*
%TO.N,/SYS_MISO*%
X205199573Y-132778620D03*
%TO.N,/SYS_MOSI*%
X207739573Y-132778620D03*
%TO.N,/TFT_CS*%
X210279573Y-132778620D03*
%TO.N,Net-(U3-TFTRST)*%
X212819573Y-132778620D03*
%TO.N,/TFT_DC*%
X215359573Y-132778620D03*
%TO.N,unconnected-(U3-CARDCS-Pad10)*%
X217899573Y-132778620D03*
%TO.N,unconnected-(U3-LITE-Pad11)*%
X220439573Y-132778620D03*
%TD*%
D17*
%TO.N,/RX_SWITCH*%
%TO.C,J1*%
X211870805Y-190497019D03*
%TO.N,/TX_SWITCH*%
X211870805Y-193037019D03*
%TO.N,GND*%
X209330805Y-190497019D03*
%TO.N,/RADIO_BUSY*%
X209330805Y-193037019D03*
%TO.N,/RADIO_DIO1*%
X206790805Y-190497019D03*
%TO.N,Net-(J1-Pin_9)*%
X206790805Y-193037019D03*
%TO.N,/RADIO_TX*%
X204250805Y-190497019D03*
%TO.N,/RADIO_RX*%
X204250805Y-193037019D03*
%TO.N,/SPI_CS*%
X201710805Y-190497019D03*
%TO.N,/SYS_MISO*%
X201710805Y-193037019D03*
%TO.N,/SYS_MOSI*%
X199170805Y-190497019D03*
%TO.N,/SYS_SCK*%
X199170805Y-193037019D03*
%TO.N,GND*%
X196630805Y-190497019D03*
D18*
%TO.N,+3.3V*%
X196630805Y-193037019D03*
%TD*%
D19*
%TO.N,GND*%
X202268428Y-195035465D03*
X198597175Y-196344335D03*
X201637633Y-187836311D03*
X217319532Y-197243211D03*
X223784560Y-208944065D03*
X219639947Y-204676100D03*
X215765927Y-207382252D03*
X199134506Y-182110171D03*
%TO.N,/SYS_SCK*%
X201000000Y-183000000D03*
%TO.N,GND*%
X206484028Y-195193009D03*
X204739724Y-212331577D03*
X205716830Y-161216830D03*
X220838723Y-178238667D03*
X233502348Y-202606033D03*
X205777424Y-151986342D03*
X222743685Y-196611107D03*
X213360000Y-156210000D03*
X220318191Y-197296427D03*
X210036006Y-164767505D03*
X215732643Y-165979579D03*
X210974530Y-178020185D03*
X233352258Y-198251395D03*
X221221203Y-218922597D03*
X232895728Y-189771224D03*
X232800000Y-219800000D03*
X205650279Y-216185646D03*
X215284727Y-173805770D03*
X200668357Y-217302694D03*
X236015412Y-198410252D03*
X220366354Y-171535533D03*
X236000000Y-220400000D03*
X210000000Y-160000000D03*
X213527171Y-214024787D03*
X238067106Y-207196848D03*
X193180575Y-209896489D03*
X213483269Y-171715482D03*
X226596111Y-218711298D03*
X233629200Y-206845646D03*
X194250000Y-220500000D03*
X217650040Y-218461573D03*
X239408914Y-197050668D03*
X229768737Y-177586349D03*
X213753194Y-161795743D03*
X235250000Y-173500000D03*
X218828667Y-186975817D03*
X198553945Y-207450435D03*
X182839003Y-211507706D03*
X225587931Y-194709668D03*
X195000000Y-214560052D03*
X185910415Y-167163630D03*
X208171052Y-219028133D03*
X201461091Y-142475334D03*
X210000000Y-157000000D03*
X185971991Y-169619373D03*
X235568419Y-213776824D03*
X195326000Y-136652000D03*
X194500000Y-206000000D03*
X227960154Y-189922244D03*
X218572355Y-193416790D03*
X235928829Y-202542178D03*
%TO.N,/DPAD_ADC*%
X182947760Y-179697010D03*
X183885072Y-171227911D03*
%TO.N,/VBAT*%
X232500000Y-218500000D03*
%TO.N,/RADIO_BUSY*%
X217500000Y-191718949D03*
X225665747Y-191718303D03*
%TO.N,/RADIO_TX*%
X207000000Y-197000000D03*
%TO.N,/SYS_MISO*%
X200500000Y-197000000D03*
X202500000Y-206000000D03*
X202500000Y-214415227D03*
%TO.N,/SYS_MOSI*%
X234000000Y-211000000D03*
X230000000Y-211000000D03*
X216500000Y-211000000D03*
%TO.N,/SYS_SCK*%
X207500000Y-176500000D03*
X205486000Y-170688000D03*
%TO.N,Net-(R8-Pad1)*%
X188000000Y-169733819D03*
X188000000Y-161000000D03*
%TO.N,/TFT_RESET*%
X216487500Y-154987500D03*
X213614000Y-143510000D03*
%TO.N,/SPI_CS*%
X223000000Y-203500000D03*
X216000000Y-203500000D03*
X207000000Y-201000000D03*
%TO.N,+3.3V*%
X221000000Y-158000000D03*
X192000000Y-191000000D03*
X183000000Y-189000000D03*
X210121000Y-147129000D03*
%TO.N,/SUMMED_POWER*%
X200750000Y-213000000D03*
X200750000Y-205000000D03*
%TD*%
M02*
