%TF.GenerationSoftware,KiCad,Pcbnew,9.0.7*%
%TF.CreationDate,2026-02-24T10:55:17+00:00*%
%TF.ProjectId,mobile_receiver,6d6f6269-6c65-45f7-9265-636569766572,rev?*%
%TF.SameCoordinates,Original*%
%TF.FileFunction,Soldermask,Top*%
%TF.FilePolarity,Negative*%
%FSLAX46Y46*%
G04 Gerber Fmt 4.6, Leading zero omitted, Abs format (unit mm)*
G04 Created by KiCad (PCBNEW 9.0.7) date 2026-02-24 10:55:17*
%MOMM*%
%LPD*%
G01*
G04 APERTURE LIST*
G04 Aperture macros list*
%AMRoundRect*
0 Rectangle with rounded corners*
0 $1 Rounding radius*
0 $2 $3 $4 $5 $6 $7 $8 $9 X,Y pos of 4 corners*
0 Add a 4 corners polygon primitive as box body*
4,1,4,$2,$3,$4,$5,$6,$7,$8,$9,$2,$3,0*
0 Add four circle primitives for the rounded corners*
1,1,$1+$1,$2,$3*
1,1,$1+$1,$4,$5*
1,1,$1+$1,$6,$7*
1,1,$1+$1,$8,$9*
0 Add four rect primitives between the rounded corners*
20,1,$1+$1,$2,$3,$4,$5,0*
20,1,$1+$1,$4,$5,$6,$7,0*
20,1,$1+$1,$6,$7,$8,$9,0*
20,1,$1+$1,$8,$9,$2,$3,0*%
G04 Aperture macros list end*
%ADD10C,1.320800*%
%ADD11C,2.006600*%
%ADD12RoundRect,0.250000X0.350000X0.450000X-0.350000X0.450000X-0.350000X-0.450000X0.350000X-0.450000X0*%
%ADD13RoundRect,0.250000X0.450000X-0.350000X0.450000X0.350000X-0.450000X0.350000X-0.450000X-0.350000X0*%
%ADD14RoundRect,0.500000X-0.500000X-0.500000X0.500000X-0.500000X0.500000X0.500000X-0.500000X0.500000X0*%
%ADD15RoundRect,0.250000X-0.350000X-0.450000X0.350000X-0.450000X0.350000X0.450000X-0.350000X0.450000X0*%
%ADD16RoundRect,0.500000X0.500000X0.500000X-0.500000X0.500000X-0.500000X-0.500000X0.500000X-0.500000X0*%
%ADD17C,2.032000*%
%ADD18RoundRect,0.250000X-0.337500X-0.475000X0.337500X-0.475000X0.337500X0.475000X-0.337500X0.475000X0*%
%ADD19RoundRect,0.250000X-0.450000X0.350000X-0.450000X-0.350000X0.450000X-0.350000X0.450000X0.350000X0*%
%ADD20R,1.700000X1.700000*%
%ADD21C,1.700000*%
%ADD22R,1.752600X1.752600*%
%ADD23C,1.752600*%
%ADD24C,4.500000*%
%ADD25C,1.800000*%
G04 APERTURE END LIST*
D10*
%TO.C,SW1*%
X246000000Y-187400001D03*
X246000000Y-185400001D03*
X246000000Y-183400000D03*
D11*
X246000000Y-189500000D03*
X246000000Y-181300002D03*
%TD*%
D12*
%TO.C,R10*%
X195800000Y-163600000D03*
X193800000Y-163600000D03*
%TD*%
D13*
%TO.C,R11*%
X202696492Y-138831245D03*
X202696492Y-136831245D03*
%TD*%
D14*
%TO.C,SW6*%
X218053779Y-171566195D03*
X224053779Y-171566195D03*
%TD*%
D15*
%TO.C,R6*%
X179000000Y-189000000D03*
X181000000Y-189000000D03*
%TD*%
%TO.C,R5*%
X204600000Y-177200000D03*
X206600000Y-177200000D03*
%TD*%
D12*
%TO.C,R8*%
X188232666Y-171298218D03*
X186232666Y-171298218D03*
%TD*%
D16*
%TO.C,SW5*%
X198003311Y-171331897D03*
X192003311Y-171331897D03*
%TD*%
D17*
%TO.C,U3*%
X220504427Y-132778620D03*
X217964427Y-132778620D03*
X215424427Y-132778620D03*
X212884427Y-132778620D03*
X210344427Y-132778620D03*
X207804427Y-132778620D03*
X205264427Y-132778620D03*
X202724427Y-132778620D03*
X200184427Y-132778620D03*
X197644427Y-132778620D03*
X195104427Y-132778620D03*
%TD*%
D13*
%TO.C,R_PU1*%
X224000000Y-163500000D03*
X224000000Y-161500000D03*
%TD*%
D18*
%TO.C,C2*%
X175523985Y-177165501D03*
X177598985Y-177165501D03*
%TD*%
D14*
%TO.C,SW7*%
X231553779Y-167566195D03*
X237553779Y-167566195D03*
%TD*%
D15*
%TO.C,R9*%
X193800000Y-166600000D03*
X195800000Y-166600000D03*
%TD*%
D19*
%TO.C,R7*%
X180103311Y-181896689D03*
X180103311Y-183896689D03*
%TD*%
D13*
%TO.C,R_PU0*%
X220500000Y-163500000D03*
X220500000Y-161500000D03*
%TD*%
D12*
%TO.C,R_PD1*%
X177523985Y-180065501D03*
X175523985Y-180065501D03*
%TD*%
D16*
%TO.C,SW4*%
X190181292Y-163552159D03*
X184181292Y-163552159D03*
%TD*%
D14*
%TO.C,SW3*%
X184600000Y-179400000D03*
X190600000Y-179400000D03*
%TD*%
D16*
%TO.C,SW2*%
X182381637Y-171463910D03*
X176381637Y-171463910D03*
%TD*%
D20*
%TO.C,J1*%
X196630805Y-193037019D03*
D21*
X196630805Y-190497019D03*
X199170805Y-193037019D03*
X199170805Y-190497019D03*
X201710805Y-193037019D03*
X201710805Y-190497019D03*
X204250805Y-193037019D03*
X204250805Y-190497019D03*
X206790805Y-193037019D03*
X206790805Y-190497019D03*
X209330805Y-193037019D03*
X209330805Y-190497019D03*
X211870805Y-193037019D03*
X211870805Y-190497019D03*
%TD*%
D22*
%TO.C,U2*%
X211800000Y-200760000D03*
D23*
X214340000Y-200760000D03*
X216880000Y-200760000D03*
X219420000Y-200760000D03*
X221960000Y-200760000D03*
X224500000Y-200760000D03*
X227040000Y-200760000D03*
X229580000Y-200760000D03*
X232120000Y-200760000D03*
X234660000Y-200760000D03*
X237200000Y-200760000D03*
X239740000Y-200760000D03*
X242280000Y-200760000D03*
X211800000Y-216000000D03*
X214340000Y-216000000D03*
X216880000Y-216000000D03*
X219420000Y-216000000D03*
X221960000Y-216000000D03*
X224500000Y-216000000D03*
X227040000Y-216000000D03*
X229580000Y-216000000D03*
X232120000Y-216000000D03*
X234660000Y-216000000D03*
X237200000Y-216000000D03*
X239740000Y-216000000D03*
X242280000Y-216000000D03*
%TD*%
D24*
%TO.C,U1*%
X176669921Y-219268364D03*
X190549921Y-219268364D03*
X176759921Y-201488364D03*
X190549921Y-201488364D03*
D25*
X190549921Y-215458364D03*
X190549921Y-212858364D03*
X190549921Y-210318364D03*
X190549921Y-207778364D03*
X190549921Y-205238364D03*
%TD*%
M02*
