%TF.GenerationSoftware,KiCad,Pcbnew,9.0.7*%
%TF.CreationDate,2026-03-02T10:09:07+00:00*%
%TF.ProjectId,mobile_receiver,6d6f6269-6c65-45f7-9265-636569766572,rev?*%
%TF.SameCoordinates,Original*%
%TF.FileFunction,Copper,L4,Bot*%
%TF.FilePolarity,Positive*%
%FSLAX46Y46*%
G04 Gerber Fmt 4.6, Leading zero omitted, Abs format (unit mm)*
G04 Created by KiCad (PCBNEW 9.0.7) date 2026-03-02 10:09:07*
%MOMM*%
%LPD*%
G01*
G04 APERTURE LIST*
G04 Aperture macros list*
%AMRoundRect*
0 Rectangle with rounded corners*
0 $1 Rounding radius*
0 $2 $3 $4 $5 $6 $7 $8 $9 X,Y pos of 4 corners*
0 Add a 4 corners polygon primitive as box body*
4,1,4,$2,$3,$4,$5,$6,$7,$8,$9,$2,$3,0*
0 Add four circle primitives for the rounded corners*
1,1,$1+$1,$2,$3*
1,1,$1+$1,$4,$5*
1,1,$1+$1,$6,$7*
1,1,$1+$1,$8,$9*
0 Add four rect primitives between the rounded corners*
20,1,$1+$1,$2,$3,$4,$5,0*
20,1,$1+$1,$4,$5,$6,$7,0*
20,1,$1+$1,$6,$7,$8,$9,0*
20,1,$1+$1,$8,$9,$2,$3,0*%
G04 Aperture macros list end*
%TA.AperFunction,ComponentPad*%
%ADD10C,1.320800*%
%TD*%
%TA.AperFunction,ComponentPad*%
%ADD11C,2.006600*%
%TD*%
%TA.AperFunction,ComponentPad*%
%ADD12C,1.930400*%
%TD*%
%TA.AperFunction,SMDPad,CuDef*%
%ADD13RoundRect,0.250000X0.337500X0.475000X-0.337500X0.475000X-0.337500X-0.475000X0.337500X-0.475000X0*%
%TD*%
%TA.AperFunction,SMDPad,CuDef*%
%ADD14RoundRect,0.250000X-0.337500X-0.475000X0.337500X-0.475000X0.337500X0.475000X-0.337500X0.475000X0*%
%TD*%
%TA.AperFunction,SMDPad,CuDef*%
%ADD15RoundRect,0.250000X-0.350000X-0.450000X0.350000X-0.450000X0.350000X0.450000X-0.350000X0.450000X0*%
%TD*%
%TA.AperFunction,SMDPad,CuDef*%
%ADD16RoundRect,0.150000X-0.512500X-0.150000X0.512500X-0.150000X0.512500X0.150000X-0.512500X0.150000X0*%
%TD*%
%TA.AperFunction,ComponentPad*%
%ADD17R,1.700000X1.700000*%
%TD*%
%TA.AperFunction,ComponentPad*%
%ADD18C,1.700000*%
%TD*%
%TA.AperFunction,SMDPad,CuDef*%
%ADD19RoundRect,0.250000X0.475000X-0.337500X0.475000X0.337500X-0.475000X0.337500X-0.475000X-0.337500X0*%
%TD*%
%TA.AperFunction,SMDPad,CuDef*%
%ADD20RoundRect,0.250000X0.350000X0.450000X-0.350000X0.450000X-0.350000X-0.450000X0.350000X-0.450000X0*%
%TD*%
%TA.AperFunction,ComponentPad*%
%ADD21R,1.752600X1.752600*%
%TD*%
%TA.AperFunction,ComponentPad*%
%ADD22C,1.752600*%
%TD*%
%TA.AperFunction,SMDPad,CuDef*%
%ADD23RoundRect,0.175000X0.325000X-0.175000X0.325000X0.175000X-0.325000X0.175000X-0.325000X-0.175000X0*%
%TD*%
%TA.AperFunction,SMDPad,CuDef*%
%ADD24RoundRect,0.150000X0.150000X-0.200000X0.150000X0.200000X-0.150000X0.200000X-0.150000X-0.200000X0*%
%TD*%
%TA.AperFunction,WasherPad*%
%ADD25C,4.500000*%
%TD*%
%TA.AperFunction,ComponentPad*%
%ADD26C,1.800000*%
%TD*%
%TA.AperFunction,ViaPad*%
%ADD27C,0.600000*%
%TD*%
%TA.AperFunction,Conductor*%
%ADD28C,0.200000*%
%TD*%
%TA.AperFunction,Conductor*%
%ADD29C,0.500000*%
%TD*%
G04 APERTURE END LIST*
D10*
%TO.P,SW1,1,A*%
%TO.N,/SYS_VBUS*%
X246000000Y-187400001D03*
%TO.P,SW1,2,B*%
%TO.N,/SUMMED_POWER*%
X246000000Y-185400001D03*
%TO.P,SW1,3*%
%TO.N,N/C*%
X246000000Y-183400000D03*
D11*
%TO.P,SW1,4*%
X246000000Y-189500000D03*
%TO.P,SW1,5*%
X246000000Y-181300002D03*
%TD*%
D12*
%TO.P,U3,1,VIN*%
%TO.N,+3.3V*%
X195039573Y-132778620D03*
%TO.P,U3,2,3V3*%
%TO.N,unconnected-(U3-3V3-Pad2)*%
X197579573Y-132778620D03*
%TO.P,U3,3,GND*%
%TO.N,GND*%
X200119573Y-132778620D03*
%TO.P,U3,4,SCK*%
%TO.N,/SYS_SCK*%
X202659573Y-132778620D03*
%TO.P,U3,5,MISO*%
%TO.N,/SYS_MISO*%
X205199573Y-132778620D03*
%TO.P,U3,6,MOSI*%
%TO.N,/SYS_MOSI*%
X207739573Y-132778620D03*
%TO.P,U3,7,TFTCS*%
%TO.N,/TFT_CS*%
X210279573Y-132778620D03*
%TO.P,U3,8,TFTRST*%
%TO.N,Net-(U3-TFTRST)*%
X212819573Y-132778620D03*
%TO.P,U3,9,TFTDC*%
%TO.N,/TFT_DC*%
X215359573Y-132778620D03*
%TO.P,U3,10,CARDCS*%
%TO.N,unconnected-(U3-CARDCS-Pad10)*%
X217899573Y-132778620D03*
%TO.P,U3,11,LITE*%
%TO.N,unconnected-(U3-LITE-Pad11)*%
X220439573Y-132778620D03*
%TD*%
D13*
%TO.P,C1,1*%
%TO.N,Net-(U2-A3{slash}29)*%
X224732006Y-218790535D03*
%TO.P,C1,2*%
%TO.N,GND*%
X222657006Y-218790535D03*
%TD*%
D14*
%TO.P,C5,1*%
%TO.N,/SYS_VBUS*%
X214255235Y-218460000D03*
%TO.P,C5,2*%
%TO.N,GND*%
X216330235Y-218460000D03*
%TD*%
D15*
%TO.P,R4,1*%
%TO.N,Net-(J1-Pin_4)*%
X199500000Y-197000000D03*
%TO.P,R4,2*%
%TO.N,/SYS_MOSI*%
X201500000Y-197000000D03*
%TD*%
D16*
%TO.P,U4,1,VDD*%
%TO.N,/USB_5V*%
X196750000Y-215500000D03*
%TO.P,U4,2,GND*%
%TO.N,GND*%
X196750000Y-214550000D03*
%TO.P,U4,3,EN*%
%TO.N,/USB_5V*%
X196750000Y-213600000D03*
%TO.P,U4,4,NC*%
%TO.N,unconnected-(U4-NC-Pad4)*%
X199025000Y-213600000D03*
%TO.P,U4,5,OUT*%
%TO.N,/SUMMED_POWER*%
X199025000Y-215500000D03*
%TD*%
D17*
%TO.P,J1,1,Pin_1*%
%TO.N,+3.3V*%
X196630805Y-193037019D03*
D18*
%TO.P,J1,2,Pin_2*%
%TO.N,GND*%
X196630805Y-190497019D03*
%TO.P,J1,3,Pin_3*%
%TO.N,Net-(J1-Pin_3)*%
X199170805Y-193037019D03*
%TO.P,J1,4,Pin_4*%
%TO.N,Net-(J1-Pin_4)*%
X199170805Y-190497019D03*
%TO.P,J1,5,Pin_5*%
%TO.N,/SYS_MISO*%
X201710805Y-193037019D03*
%TO.P,J1,6,Pin_6*%
%TO.N,/SPI_CS*%
X201710805Y-190497019D03*
%TO.P,J1,7,Pin_7*%
%TO.N,/RADIO_RX*%
X204250805Y-193037019D03*
%TO.P,J1,8,Pin_8*%
%TO.N,/RADIO_TX*%
X204250805Y-190497019D03*
%TO.P,J1,9,Pin_9*%
%TO.N,Net-(J1-Pin_9)*%
X206790805Y-193037019D03*
%TO.P,J1,10,Pin_10*%
%TO.N,/RADIO_DIO1*%
X206790805Y-190497019D03*
%TO.P,J1,11,Pin_11*%
%TO.N,/RADIO_BUSY*%
X209330805Y-193037019D03*
%TO.P,J1,12,Pin_12*%
%TO.N,GND*%
X209330805Y-190497019D03*
%TO.P,J1,13,Pin_13*%
%TO.N,/GPIO1*%
X211870805Y-193037019D03*
%TO.P,J1,14,Pin_14*%
%TO.N,/GPIO2*%
X211870805Y-190497019D03*
%TD*%
D19*
%TO.P,C3,1*%
%TO.N,GND*%
X192000000Y-195075000D03*
%TO.P,C3,2*%
%TO.N,+3.3V*%
X192000000Y-193000000D03*
%TD*%
D20*
%TO.P,R1,1*%
%TO.N,Net-(U2-A3{slash}29)*%
X236000000Y-218500000D03*
%TO.P,R1,2*%
%TO.N,/VBAT*%
X234000000Y-218500000D03*
%TD*%
D21*
%TO.P,U2,1,D+*%
%TO.N,/USB_DP*%
X211800000Y-200760000D03*
D22*
%TO.P,U2,2,D0*%
%TO.N,/RADIO_TX*%
X214340000Y-200760000D03*
%TO.P,U2,3,D1*%
%TO.N,/RADIO_RX*%
X216880000Y-200760000D03*
%TO.P,U2,4,GND*%
%TO.N,GND*%
X219420000Y-200760000D03*
%TO.P,U2,5,GND*%
X221960000Y-200760000D03*
%TO.P,U2,6,D2*%
%TO.N,/RADIO_RST*%
X224500000Y-200760000D03*
%TO.P,U2,7,D3*%
%TO.N,/RADIO_DIO1*%
X227040000Y-200760000D03*
%TO.P,U2,8,D4*%
%TO.N,/TFT_DC*%
X229580000Y-200760000D03*
%TO.P,U2,9,D5*%
%TO.N,/TFT_CS*%
X232120000Y-200760000D03*
%TO.P,U2,10,D6*%
%TO.N,/BTN_A*%
X234660000Y-200760000D03*
%TO.P,U2,11,D7*%
%TO.N,/BTN_B*%
X237200000Y-200760000D03*
%TO.P,U2,12,D8*%
%TO.N,/RADIO_BUSY*%
X239740000Y-200760000D03*
%TO.P,U2,13,D9*%
%TO.N,/SPI_CS*%
X242280000Y-200760000D03*
%TO.P,U2,14,D-*%
%TO.N,/USB_DN*%
X211800000Y-216000000D03*
%TO.P,U2,15,RAW*%
%TO.N,/SYS_VBUS*%
X214340000Y-216000000D03*
%TO.P,U2,16,GND*%
%TO.N,GND*%
X216880000Y-216000000D03*
%TO.P,U2,17,RESET*%
%TO.N,unconnected-(U2-RESET-Pad17)*%
X219420000Y-216000000D03*
%TO.P,U2,18,3.3v*%
%TO.N,+3.3V*%
X221960000Y-216000000D03*
%TO.P,U2,19,A3/29*%
%TO.N,Net-(U2-A3{slash}29)*%
X224500000Y-216000000D03*
%TO.P,U2,20,A2/28*%
%TO.N,/DPAD_ADC*%
X227040000Y-216000000D03*
%TO.P,U2,21,A1/27*%
%TO.N,unconnected-(U2-A1{slash}27-Pad21)*%
X229580000Y-216000000D03*
%TO.P,U2,22,A0/26*%
%TO.N,unconnected-(U2-A0{slash}26-Pad22)*%
X232120000Y-216000000D03*
%TO.P,U2,23,SCK/18*%
%TO.N,/SYS_SCK*%
X234660000Y-216000000D03*
%TO.P,U2,24,MISO/20*%
%TO.N,/SYS_MISO*%
X237200000Y-216000000D03*
%TO.P,U2,25,MOSI/19*%
%TO.N,/SYS_MOSI*%
X239740000Y-216000000D03*
%TO.P,U2,26,D10*%
%TO.N,/TFT_RESET*%
X242280000Y-216000000D03*
%TD*%
D16*
%TO.P,U6,1,VDD*%
%TO.N,/VBAT*%
X196475000Y-204500000D03*
%TO.P,U6,2,GND*%
%TO.N,GND*%
X196475000Y-203550000D03*
%TO.P,U6,3,EN*%
%TO.N,/VBAT*%
X196475000Y-202600000D03*
%TO.P,U6,4,NC*%
%TO.N,unconnected-(U6-NC-Pad4)*%
X198750000Y-202600000D03*
%TO.P,U6,5,OUT*%
%TO.N,/SUMMED_POWER*%
X198750000Y-204500000D03*
%TD*%
D13*
%TO.P,C6,1*%
%TO.N,/SYS_VBUS*%
X211980059Y-219105205D03*
%TO.P,C6,2*%
%TO.N,GND*%
X209905059Y-219105205D03*
%TD*%
D20*
%TO.P,R2,1*%
%TO.N,Net-(U2-A3{slash}29)*%
X230000000Y-218500000D03*
%TO.P,R2,2*%
%TO.N,GND*%
X228000000Y-218500000D03*
%TD*%
D23*
%TO.P,D3,1,A*%
%TO.N,GND*%
X203102816Y-209189180D03*
D24*
%TO.P,D3,2,K*%
%TO.N,/USB_DN*%
X201402816Y-209189180D03*
%TO.P,D3,3,K*%
%TO.N,/USB_DP*%
X201402816Y-207189180D03*
%TO.P,D3,4,K*%
%TO.N,unconnected-(D3-K-Pad4)*%
X203302816Y-207189180D03*
%TD*%
D25*
%TO.P,U1,*%
%TO.N,*%
X176669921Y-219268364D03*
X190549921Y-219268364D03*
X176759921Y-201488364D03*
X190549921Y-201488364D03*
D26*
%TO.P,U1,1,5V*%
%TO.N,/USB_5V*%
X190549921Y-215458364D03*
%TO.P,U1,2,D-*%
%TO.N,/USB_DN*%
X190549921Y-212858364D03*
%TO.P,U1,3,D+*%
%TO.N,/USB_DP*%
X190549921Y-210318364D03*
%TO.P,U1,4,GND*%
%TO.N,GND*%
X190549921Y-207778364D03*
%TO.P,U1,5,VBAT*%
%TO.N,/VBAT*%
X190549921Y-205238364D03*
%TD*%
D15*
%TO.P,R3,1*%
%TO.N,Net-(J1-Pin_9)*%
X208500000Y-196000000D03*
%TO.P,R3,2*%
%TO.N,/RADIO_RST*%
X210500000Y-196000000D03*
%TD*%
D27*
%TO.N,GND*%
X206484028Y-195193009D03*
X204739724Y-212331577D03*
X206266672Y-161596799D03*
X220838723Y-178238667D03*
X233502348Y-202606033D03*
X206334621Y-150996766D03*
X222743685Y-196611107D03*
X213360000Y-156210000D03*
X218800000Y-197000000D03*
X215131961Y-196994624D03*
X210036006Y-164767505D03*
X215732643Y-165979579D03*
X204045384Y-198709131D03*
X210974530Y-178020185D03*
X204440990Y-155154239D03*
X233352258Y-198251395D03*
X221221203Y-218922597D03*
X204500000Y-166000000D03*
X232895728Y-189771224D03*
X232800000Y-219800000D03*
X205144611Y-214243545D03*
X201846662Y-184588308D03*
X215284727Y-173805770D03*
X200668357Y-217302694D03*
X236015412Y-198410252D03*
X221996526Y-206576871D03*
X220366354Y-171535533D03*
X236000000Y-220400000D03*
X210000000Y-160000000D03*
X214000000Y-213500000D03*
X203415711Y-195306052D03*
X238067106Y-207196848D03*
X193180575Y-209896489D03*
X213483269Y-171715482D03*
X226596111Y-218711298D03*
X233629200Y-206845646D03*
X194250000Y-220500000D03*
X217650040Y-218461573D03*
X239408914Y-197050668D03*
X229768737Y-177586349D03*
X213753194Y-161795743D03*
X235250000Y-173500000D03*
X204500000Y-139250000D03*
X218828667Y-186975817D03*
X199163131Y-195084958D03*
X198553945Y-207450435D03*
X182839003Y-211507706D03*
X225587931Y-194709668D03*
X195000000Y-214560052D03*
X185910415Y-167163630D03*
X208171052Y-219028133D03*
X201461091Y-142475334D03*
X210000000Y-157000000D03*
X185971991Y-169619373D03*
X234735876Y-213980924D03*
X195326000Y-136652000D03*
X194500000Y-206000000D03*
X227960154Y-189922244D03*
X216500000Y-193200000D03*
X235928829Y-202542178D03*
%TO.N,/DPAD_ADC*%
X182947760Y-179697010D03*
X183885072Y-171227911D03*
%TO.N,/VBAT*%
X232500000Y-218500000D03*
%TO.N,/RADIO_BUSY*%
X217500000Y-191718949D03*
X225665747Y-191718303D03*
%TO.N,/RADIO_TX*%
X207000000Y-197000000D03*
%TO.N,/SYS_MISO*%
X200500000Y-195500000D03*
X202500000Y-206000000D03*
X202500000Y-214415227D03*
%TO.N,Net-(J1-Pin_3)*%
X201664077Y-180335922D03*
X204000000Y-178000000D03*
%TO.N,/SYS_MOSI*%
X231500000Y-211000000D03*
X228000000Y-211000000D03*
X201500000Y-195500000D03*
X216500000Y-211000000D03*
X202375000Y-198625000D03*
%TO.N,/SYS_SCK*%
X207800000Y-178800000D03*
X205486000Y-170688000D03*
%TO.N,Net-(R8-Pad1)*%
X188000000Y-169733819D03*
X188000000Y-161000000D03*
%TO.N,/TFT_RESET*%
X216487500Y-154987500D03*
X213614000Y-143510000D03*
%TO.N,/SPI_CS*%
X229500000Y-203500000D03*
X227500000Y-203500000D03*
X219500000Y-203500000D03*
X207285000Y-200385000D03*
%TO.N,+3.3V*%
X221000000Y-158000000D03*
X192000000Y-191000000D03*
X183000000Y-189000000D03*
X210121000Y-147129000D03*
%TO.N,/SUMMED_POWER*%
X200750000Y-213000000D03*
X200750000Y-205000000D03*
%TD*%
D28*
%TO.N,GND*%
X200025000Y-132938047D02*
X200184427Y-132778620D01*
X195010052Y-214550000D02*
X195000000Y-214560052D01*
X196750000Y-214550000D02*
X195010052Y-214550000D01*
%TO.N,Net-(U2-A3{slash}29)*%
X234000000Y-220500000D02*
X236000000Y-218500000D01*
X224790535Y-218790535D02*
X226500000Y-220500000D01*
X224732006Y-218790535D02*
X224790535Y-218790535D01*
X224732006Y-216232006D02*
X224500000Y-216000000D01*
X224732006Y-218790535D02*
X224732006Y-216232006D01*
X230000000Y-220500000D02*
X234000000Y-220500000D01*
X230000000Y-220500000D02*
X226500000Y-220500000D01*
X230000000Y-218500000D02*
X230000000Y-220500000D01*
%TO.N,/DPAD_ADC*%
X183885072Y-178759698D02*
X182947760Y-179697010D01*
X183885072Y-171227911D02*
X183885072Y-178759698D01*
D29*
%TO.N,/SYS_VBUS*%
X214340000Y-216000000D02*
X214340000Y-218375235D01*
X213610030Y-219105205D02*
X214255235Y-218460000D01*
X214340000Y-218375235D02*
X214255235Y-218460000D01*
X213610030Y-219105205D02*
X212417559Y-219105205D01*
%TO.N,/USB_5V*%
X196750000Y-213600000D02*
X193900000Y-213600000D01*
X192000000Y-215500000D02*
X190591557Y-215500000D01*
X196750000Y-215500000D02*
X193000000Y-215500000D01*
X193000000Y-215500000D02*
X192000000Y-215500000D01*
X190591557Y-215500000D02*
X190549921Y-215458364D01*
X193900000Y-213600000D02*
X192000000Y-215500000D01*
%TO.N,/VBAT*%
X196475000Y-202600000D02*
X194650000Y-202600000D01*
X191288285Y-204500000D02*
X190549921Y-205238364D01*
X234000000Y-218500000D02*
X232500000Y-218500000D01*
X196475000Y-204500000D02*
X192750000Y-204500000D01*
X192750000Y-204500000D02*
X191288285Y-204500000D01*
X194650000Y-202600000D02*
X192750000Y-204500000D01*
D28*
%TO.N,/USB_DP*%
X202213636Y-208000000D02*
X211000000Y-208000000D01*
X211800000Y-207200000D02*
X211800000Y-200760000D01*
X200099438Y-208492558D02*
X201402816Y-207189180D01*
X197724236Y-211363363D02*
X200099438Y-208988161D01*
X200099438Y-208988161D02*
X200099438Y-208492558D01*
X211000000Y-208000000D02*
X211800000Y-207200000D01*
X191594920Y-211363363D02*
X197724236Y-211363363D01*
X190549921Y-210318364D02*
X191594920Y-211363363D01*
X201402816Y-207189180D02*
X202213636Y-208000000D01*
%TO.N,/RADIO_RX*%
X216880000Y-199380000D02*
X216880000Y-200760000D01*
X204250805Y-195599068D02*
X207510509Y-198858772D01*
X216358772Y-198858772D02*
X216880000Y-199380000D01*
X207510509Y-198858772D02*
X216358772Y-198858772D01*
X204250805Y-193037019D02*
X204250805Y-195599068D01*
%TO.N,/RADIO_DIO1*%
X208700000Y-194500000D02*
X221750000Y-194500000D01*
X208060933Y-193860933D02*
X208700000Y-194500000D01*
X221750000Y-194500000D02*
X227040000Y-199790000D01*
X206790805Y-190497019D02*
X208060933Y-191767147D01*
X208060933Y-191767147D02*
X208060933Y-193860933D01*
X227040000Y-199790000D02*
X227040000Y-200760000D01*
%TO.N,Net-(J1-Pin_9)*%
X208500000Y-196000000D02*
X206790805Y-194290805D01*
X207000000Y-193246214D02*
X206790805Y-193037019D01*
X206790805Y-194290805D02*
X206790805Y-193037019D01*
%TO.N,/RADIO_BUSY*%
X225950106Y-191718303D02*
X225953587Y-191714822D01*
X230694822Y-191714822D02*
X239740000Y-200760000D01*
X225665747Y-191718303D02*
X225950106Y-191718303D01*
X217500000Y-191718949D02*
X210648875Y-191718949D01*
X210648875Y-191718949D02*
X209330805Y-193037019D01*
X225953587Y-191714822D02*
X230694822Y-191714822D01*
%TO.N,/RADIO_TX*%
X205503349Y-195503349D02*
X207000000Y-197000000D01*
X205503349Y-191749563D02*
X205503349Y-195400000D01*
X204250805Y-190497019D02*
X205503349Y-191749563D01*
X205503349Y-195400000D02*
X205503349Y-195503349D01*
%TO.N,/SYS_MISO*%
X202500000Y-200500000D02*
X200500000Y-198500000D01*
X201710805Y-193037019D02*
X203000000Y-191747824D01*
X207010000Y-134589047D02*
X205199573Y-132778620D01*
X237000000Y-221000000D02*
X238000000Y-220000000D01*
X202500000Y-206000000D02*
X202500000Y-200500000D01*
X202500000Y-218500000D02*
X205000000Y-221000000D01*
X205000000Y-221000000D02*
X237000000Y-221000000D01*
X203000000Y-174500000D02*
X207010000Y-170490000D01*
X200500000Y-198500000D02*
X200500000Y-195500000D01*
X203000000Y-191747824D02*
X203000000Y-174500000D01*
X202500000Y-214415227D02*
X202500000Y-218500000D01*
X238000000Y-216800000D02*
X237200000Y-216000000D01*
X207010000Y-170490000D02*
X207010000Y-134589047D01*
X238000000Y-220000000D02*
X238000000Y-216800000D01*
%TO.N,Net-(J1-Pin_3)*%
X200400000Y-191400000D02*
X199170805Y-192629195D01*
X200400000Y-181600000D02*
X200400000Y-191400000D01*
X199170805Y-192629195D02*
X199170805Y-193037019D01*
X201664077Y-180335922D02*
X200400000Y-181600000D01*
%TO.N,Net-(J1-Pin_4)*%
X197932038Y-195432038D02*
X199500000Y-197000000D01*
X197932038Y-191735786D02*
X197932038Y-195432038D01*
X199170805Y-190497019D02*
X197932038Y-191735786D01*
%TO.N,/RADIO_RST*%
X210500000Y-196000000D02*
X221000000Y-196000000D01*
X224500000Y-199500000D02*
X224500000Y-200760000D01*
X221000000Y-196000000D02*
X224500000Y-199500000D01*
%TO.N,/SYS_MOSI*%
X201500000Y-197000000D02*
X201500000Y-195500000D01*
X228000000Y-211000000D02*
X216500000Y-211000000D01*
X201500000Y-197750000D02*
X201500000Y-197000000D01*
X234740000Y-211000000D02*
X239740000Y-216000000D01*
X202375000Y-198625000D02*
X201500000Y-197750000D01*
X231500000Y-211000000D02*
X234740000Y-211000000D01*
%TO.N,/SYS_SCK*%
X228304781Y-199304781D02*
X228304781Y-209644781D01*
X228304781Y-209644781D02*
X234660000Y-216000000D01*
X205486000Y-135878147D02*
X202659573Y-133051720D01*
X202659573Y-133051720D02*
X202659573Y-132778620D01*
X207800000Y-178800000D02*
X228304781Y-199304781D01*
X205486000Y-170688000D02*
X205486000Y-135878147D01*
%TO.N,Net-(R8-Pad1)*%
X188000000Y-161000000D02*
X188000000Y-169733819D01*
%TO.N,/TFT_RESET*%
X224500000Y-163000000D02*
X224500000Y-178000000D01*
X224500000Y-178000000D02*
X244475000Y-197975000D01*
X244475000Y-213805000D02*
X242280000Y-216000000D01*
X244475000Y-197975000D02*
X244475000Y-213805000D01*
X216487500Y-154987500D02*
X224500000Y-163000000D01*
%TO.N,/TFT_CS*%
X210344427Y-132952582D02*
X210344427Y-132778620D01*
%TO.N,/TFT_DC*%
X215359573Y-132778620D02*
X215359573Y-160359573D01*
X229580000Y-197195000D02*
X229580000Y-200760000D01*
X222500000Y-167500000D02*
X222500000Y-190115000D01*
X222500000Y-190115000D02*
X229580000Y-197195000D01*
X215359573Y-160359573D02*
X222500000Y-167500000D01*
%TO.N,/SPI_CS*%
X201710805Y-191149227D02*
X201710805Y-190497019D01*
X219500000Y-203500000D02*
X227500000Y-203500000D01*
X200400000Y-193500000D02*
X200400000Y-192460032D01*
X200400000Y-192460032D02*
X201710805Y-191149227D01*
X207285000Y-200385000D02*
X200400000Y-193500000D01*
X239540000Y-203500000D02*
X242280000Y-200760000D01*
X229500000Y-203500000D02*
X239540000Y-203500000D01*
D29*
%TO.N,+3.3V*%
X192000000Y-193000000D02*
X196593786Y-193000000D01*
X192000000Y-191000000D02*
X192000000Y-193000000D01*
X196593786Y-193000000D02*
X196630805Y-193037019D01*
%TO.N,unconnected-(U3-LITE-Pad11)*%
X221000000Y-133274193D02*
X220504427Y-132778620D01*
D28*
%TO.N,/USB_DN*%
X191594920Y-211813365D02*
X197910630Y-211813365D01*
X200534815Y-209189180D02*
X201402816Y-209189180D01*
X211000000Y-208500000D02*
X202091996Y-208500000D01*
X197910630Y-211813365D02*
X200534815Y-209189180D01*
X211800000Y-209300000D02*
X211000000Y-208500000D01*
X190549921Y-212858364D02*
X191594920Y-211813365D01*
X211800000Y-216000000D02*
X211800000Y-209300000D01*
X202091996Y-208500000D02*
X201402816Y-209189180D01*
X211023926Y-216000000D02*
X211800000Y-216000000D01*
D29*
%TO.N,/SUMMED_POWER*%
X200250000Y-204500000D02*
X200750000Y-205000000D01*
X199025000Y-215500000D02*
X200000000Y-215500000D01*
X198750000Y-204500000D02*
X200250000Y-204500000D01*
X200750000Y-214750000D02*
X200750000Y-213000000D01*
X200000000Y-215500000D02*
X200750000Y-214750000D01*
%TD*%
%TA.AperFunction,Conductor*%
%TO.N,GND*%
G36*
X248542539Y-80420185D02*
G01*
X248588294Y-80472989D01*
X248599500Y-80524500D01*
X248599500Y-221475500D01*
X248579815Y-221542539D01*
X248527011Y-221588294D01*
X248475500Y-221599500D01*
X246528301Y-221599500D01*
X246461262Y-221579815D01*
X246415507Y-221527011D01*
X246405563Y-221457853D01*
X246434588Y-221394297D01*
X246487346Y-221358459D01*
X246561163Y-221332628D01*
X246665079Y-221296267D01*
X246907997Y-221179284D01*
X247136289Y-221035838D01*
X247347085Y-220867734D01*
X247537734Y-220677085D01*
X247705838Y-220466289D01*
X247849284Y-220237997D01*
X247966267Y-219995079D01*
X248055316Y-219740591D01*
X248115312Y-219477732D01*
X248145500Y-219209809D01*
X248145500Y-218940191D01*
X248115312Y-218672268D01*
X248055316Y-218409409D01*
X247966267Y-218154921D01*
X247863348Y-217941208D01*
X247849285Y-217912005D01*
X247840051Y-217897309D01*
X247705838Y-217683711D01*
X247537734Y-217472915D01*
X247347085Y-217282266D01*
X247347037Y-217282228D01*
X247284920Y-217232691D01*
X247136289Y-217114162D01*
X246907997Y-216970716D01*
X246907994Y-216970714D01*
X246665082Y-216853734D01*
X246410602Y-216764687D01*
X246410594Y-216764684D01*
X246193998Y-216715248D01*
X246147732Y-216704688D01*
X246147728Y-216704687D01*
X246147719Y-216704686D01*
X245879813Y-216674500D01*
X245879809Y-216674500D01*
X245610191Y-216674500D01*
X245610186Y-216674500D01*
X245342280Y-216704686D01*
X245342268Y-216704688D01*
X245079405Y-216764684D01*
X245079397Y-216764687D01*
X244824917Y-216853734D01*
X244582005Y-216970714D01*
X244353712Y-217114161D01*
X244142915Y-217282265D01*
X243952265Y-217472915D01*
X243784161Y-217683712D01*
X243640714Y-217912005D01*
X243523734Y-218154917D01*
X243434687Y-218409397D01*
X243434684Y-218409405D01*
X243374688Y-218672268D01*
X243374686Y-218672280D01*
X243344500Y-218940186D01*
X243344500Y-219209813D01*
X243374686Y-219477719D01*
X243374688Y-219477731D01*
X243434684Y-219740594D01*
X243434687Y-219740602D01*
X243523734Y-219995082D01*
X243640714Y-220237994D01*
X243640716Y-220237997D01*
X243784162Y-220466289D01*
X243952266Y-220677085D01*
X244142915Y-220867734D01*
X244353711Y-221035838D01*
X244582003Y-221179284D01*
X244824921Y-221296267D01*
X244899845Y-221322484D01*
X245002654Y-221358459D01*
X245059430Y-221399180D01*
X245085177Y-221464133D01*
X245071721Y-221532695D01*
X245023333Y-221583098D01*
X244961699Y-221599500D01*
X237549098Y-221599500D01*
X237527855Y-221593262D01*
X237505770Y-221591684D01*
X237494983Y-221583610D01*
X237482059Y-221579815D01*
X237467562Y-221563085D01*
X237449835Y-221549816D01*
X237445125Y-221537191D01*
X237436304Y-221527011D01*
X237433153Y-221505098D01*
X237425414Y-221484352D01*
X237428277Y-221471187D01*
X237426360Y-221457853D01*
X237435557Y-221437712D01*
X237440263Y-221416079D01*
X237453534Y-221398349D01*
X237455385Y-221394297D01*
X237461398Y-221387837D01*
X237480520Y-221368716D01*
X237480521Y-221368713D01*
X238480520Y-220368716D01*
X238559577Y-220231784D01*
X238600501Y-220079057D01*
X238600501Y-219920942D01*
X238600501Y-219913347D01*
X238600500Y-219913329D01*
X238600500Y-217106951D01*
X238620185Y-217039912D01*
X238672989Y-216994157D01*
X238742147Y-216984213D01*
X238805703Y-217013238D01*
X238812181Y-217019270D01*
X238843075Y-217050164D01*
X239018400Y-217177545D01*
X239151758Y-217245494D01*
X239211494Y-217275931D01*
X239417595Y-217342897D01*
X239417596Y-217342897D01*
X239417599Y-217342898D01*
X239631644Y-217376800D01*
X239631645Y-217376800D01*
X239848355Y-217376800D01*
X239848356Y-217376800D01*
X240062401Y-217342898D01*
X240062404Y-217342897D01*
X240062405Y-217342897D01*
X240268505Y-217275931D01*
X240268505Y-217275930D01*
X240268508Y-217275930D01*
X240461600Y-217177545D01*
X240636925Y-217050164D01*
X240790164Y-216896925D01*
X240879500Y-216773965D01*
X240909682Y-216732423D01*
X240965012Y-216689757D01*
X241034625Y-216683778D01*
X241096420Y-216716384D01*
X241110318Y-216732423D01*
X241198455Y-216853733D01*
X241229836Y-216896925D01*
X241383075Y-217050164D01*
X241558400Y-217177545D01*
X241691758Y-217245494D01*
X241751494Y-217275931D01*
X241957595Y-217342897D01*
X241957596Y-217342897D01*
X241957599Y-217342898D01*
X242171644Y-217376800D01*
X242171645Y-217376800D01*
X242388355Y-217376800D01*
X242388356Y-217376800D01*
X242602401Y-217342898D01*
X242602404Y-217342897D01*
X242602405Y-217342897D01*
X242808505Y-217275931D01*
X242808505Y-217275930D01*
X242808508Y-217275930D01*
X243001600Y-217177545D01*
X243176925Y-217050164D01*
X243330164Y-216896925D01*
X243457545Y-216721600D01*
X243555930Y-216528508D01*
X243585666Y-216436989D01*
X243622897Y-216322405D01*
X243622897Y-216322404D01*
X243622898Y-216322401D01*
X243656800Y-216108356D01*
X243656800Y-215891644D01*
X243622898Y-215677599D01*
X243604378Y-215620603D01*
X243602384Y-215550763D01*
X243634627Y-215494607D01*
X244955520Y-214173716D01*
X245034577Y-214036784D01*
X245075501Y-213884057D01*
X245075501Y-213725942D01*
X245075501Y-213718347D01*
X245075500Y-213718329D01*
X245075500Y-198064059D01*
X245075501Y-198064046D01*
X245075501Y-197895945D01*
X245075501Y-197895943D01*
X245034577Y-197743215D01*
X245005623Y-197693066D01*
X244995492Y-197675518D01*
X244995491Y-197675517D01*
X244955521Y-197606286D01*
X244955520Y-197606284D01*
X244843716Y-197494480D01*
X244843715Y-197494479D01*
X244839385Y-197490149D01*
X244839374Y-197490139D01*
X228530885Y-181181650D01*
X244496200Y-181181650D01*
X244496200Y-181418353D01*
X244533229Y-181652144D01*
X244533229Y-181652147D01*
X244606372Y-181877258D01*
X244606374Y-181877261D01*
X244713835Y-182088165D01*
X244852966Y-182279662D01*
X245020340Y-182447036D01*
X245020343Y-182447038D01*
X245075190Y-182486887D01*
X245117856Y-182542217D01*
X245123835Y-182611830D01*
X245102623Y-182660090D01*
X245007111Y-182791551D01*
X244924153Y-182954366D01*
X244867684Y-183128158D01*
X244839100Y-183308629D01*
X244839100Y-183491370D01*
X244867684Y-183671841D01*
X244867685Y-183671845D01*
X244924152Y-183845631D01*
X245007109Y-184008444D01*
X245114515Y-184156276D01*
X245243724Y-184285485D01*
X245263265Y-184299682D01*
X245305931Y-184355011D01*
X245311911Y-184424624D01*
X245279305Y-184486419D01*
X245263267Y-184500317D01*
X245243724Y-184514515D01*
X245114517Y-184643722D01*
X245007109Y-184791556D01*
X244924153Y-184954367D01*
X244867684Y-185128159D01*
X244839100Y-185308630D01*
X244839100Y-185491371D01*
X244867684Y-185671842D01*
X244867685Y-185671846D01*
X244924152Y-185845632D01*
X245007109Y-186008445D01*
X245114515Y-186156277D01*
X245243724Y-186285486D01*
X245243730Y-186285490D01*
X245263265Y-186299684D01*
X245305931Y-186355014D01*
X245311909Y-186424627D01*
X245279303Y-186486422D01*
X245263265Y-186500318D01*
X245243730Y-186514511D01*
X245243721Y-186514518D01*
X245114517Y-186643722D01*
X245007109Y-186791556D01*
X244924153Y-186954367D01*
X244867684Y-187128159D01*
X244839100Y-187308630D01*
X244839100Y-187491371D01*
X244867684Y-187671842D01*
X244924153Y-187845634D01*
X245007111Y-188008448D01*
X245102624Y-188139911D01*
X245126104Y-188205717D01*
X245110279Y-188273771D01*
X245075193Y-188313112D01*
X245020340Y-188352966D01*
X245020338Y-188352968D01*
X245020337Y-188352968D01*
X244852968Y-188520337D01*
X244852968Y-188520338D01*
X244852966Y-188520340D01*
X244793214Y-188602580D01*
X244713835Y-188711836D01*
X244606372Y-188922743D01*
X244533229Y-189147854D01*
X244533229Y-189147857D01*
X244502198Y-189343776D01*
X244496200Y-189381648D01*
X244496200Y-189618352D01*
X244510619Y-189709390D01*
X244533229Y-189852142D01*
X244533229Y-189852145D01*
X244606372Y-190077256D01*
X244668659Y-190199500D01*
X244713835Y-190288163D01*
X244852966Y-190479660D01*
X245020340Y-190647034D01*
X245211837Y-190786165D01*
X245422741Y-190893626D01*
X245422743Y-190893627D01*
X245647855Y-190966770D01*
X245647856Y-190966770D01*
X245647859Y-190966771D01*
X245881648Y-191003800D01*
X245881649Y-191003800D01*
X246118351Y-191003800D01*
X246118352Y-191003800D01*
X246352141Y-190966771D01*
X246352144Y-190966770D01*
X246352145Y-190966770D01*
X246577256Y-190893627D01*
X246577256Y-190893626D01*
X246577259Y-190893626D01*
X246788163Y-190786165D01*
X246979660Y-190647034D01*
X247147034Y-190479660D01*
X247286165Y-190288163D01*
X247393626Y-190077259D01*
X247409524Y-190028330D01*
X247466770Y-189852145D01*
X247466770Y-189852144D01*
X247466771Y-189852141D01*
X247503800Y-189618352D01*
X247503800Y-189381648D01*
X247466771Y-189147859D01*
X247466770Y-189147855D01*
X247466770Y-189147854D01*
X247393627Y-188922743D01*
X247314022Y-188766510D01*
X247286165Y-188711837D01*
X247147034Y-188520340D01*
X246979660Y-188352966D01*
X246979658Y-188352964D01*
X246979653Y-188352960D01*
X246924808Y-188313113D01*
X246882142Y-188257784D01*
X246876163Y-188188170D01*
X246897374Y-188139912D01*
X246992891Y-188008445D01*
X247075848Y-187845632D01*
X247132315Y-187671846D01*
X247145019Y-187591632D01*
X247160900Y-187491371D01*
X247160900Y-187308630D01*
X247132315Y-187128159D01*
X247132315Y-187128156D01*
X247075848Y-186954370D01*
X246992891Y-186791557D01*
X246885485Y-186643725D01*
X246756276Y-186514516D01*
X246736734Y-186500318D01*
X246694069Y-186444990D01*
X246688089Y-186375377D01*
X246720695Y-186313582D01*
X246736734Y-186299684D01*
X246756276Y-186285486D01*
X246885485Y-186156277D01*
X246992891Y-186008445D01*
X247075848Y-185845632D01*
X247132315Y-185671846D01*
X247145019Y-185591632D01*
X247160900Y-185491371D01*
X247160900Y-185308630D01*
X247132315Y-185128159D01*
X247132315Y-185128156D01*
X247075848Y-184954370D01*
X246992891Y-184791557D01*
X246885485Y-184643725D01*
X246756276Y-184514516D01*
X246736733Y-184500317D01*
X246694068Y-184444989D01*
X246688089Y-184375375D01*
X246720694Y-184313580D01*
X246736730Y-184299685D01*
X246756276Y-184285485D01*
X246885485Y-184156276D01*
X246992891Y-184008444D01*
X247075848Y-183845631D01*
X247132315Y-183671845D01*
X247145019Y-183591631D01*
X247160900Y-183491370D01*
X247160900Y-183308629D01*
X247132315Y-183128158D01*
X247132315Y-183128155D01*
X247075848Y-182954369D01*
X246992891Y-182791556D01*
X246897376Y-182660090D01*
X246873896Y-182594284D01*
X246889721Y-182526230D01*
X246924808Y-182486887D01*
X246979660Y-182447036D01*
X247147034Y-182279662D01*
X247286165Y-182088165D01*
X247393626Y-181877261D01*
X247466771Y-181652143D01*
X247503800Y-181418354D01*
X247503800Y-181181650D01*
X247466771Y-180947861D01*
X247466770Y-180947857D01*
X247466770Y-180947856D01*
X247393627Y-180722745D01*
X247286164Y-180511838D01*
X247275754Y-180497510D01*
X247147034Y-180320342D01*
X246979660Y-180152968D01*
X246788163Y-180013837D01*
X246676110Y-179956743D01*
X246577256Y-179906374D01*
X246352144Y-179833231D01*
X246176799Y-179805459D01*
X246118352Y-179796202D01*
X245881648Y-179796202D01*
X245803718Y-179808545D01*
X245647857Y-179833231D01*
X245647854Y-179833231D01*
X245422743Y-179906374D01*
X245211836Y-180013837D01*
X245126017Y-180076189D01*
X245020340Y-180152968D01*
X245020338Y-180152970D01*
X245020337Y-180152970D01*
X244852968Y-180320339D01*
X244852968Y-180320340D01*
X244852966Y-180320342D01*
X244852300Y-180321259D01*
X244713835Y-180511838D01*
X244606372Y-180722745D01*
X244533229Y-180947856D01*
X244533229Y-180947859D01*
X244496200Y-181181650D01*
X228530885Y-181181650D01*
X225136819Y-177787584D01*
X225103334Y-177726261D01*
X225100500Y-177699903D01*
X225100500Y-162920945D01*
X225100500Y-162920943D01*
X225059577Y-162768216D01*
X225059577Y-162768215D01*
X225059577Y-162768214D01*
X225030639Y-162718095D01*
X225030637Y-162718092D01*
X224980520Y-162631284D01*
X224868716Y-162519480D01*
X224868715Y-162519479D01*
X224864385Y-162515149D01*
X224864374Y-162515139D01*
X221283740Y-158934505D01*
X221250255Y-158873182D01*
X221255239Y-158803490D01*
X221297111Y-158747557D01*
X221323969Y-158732263D01*
X221379172Y-158709397D01*
X221379172Y-158709396D01*
X221379179Y-158709394D01*
X221510289Y-158621789D01*
X221621789Y-158510289D01*
X221709394Y-158379179D01*
X221769737Y-158233497D01*
X221800500Y-158078842D01*
X221800500Y-157921158D01*
X221800500Y-157921155D01*
X221800499Y-157921153D01*
X221769738Y-157766510D01*
X221769737Y-157766503D01*
X221769735Y-157766498D01*
X221709397Y-157620827D01*
X221709390Y-157620814D01*
X221621789Y-157489711D01*
X221621786Y-157489707D01*
X221510292Y-157378213D01*
X221510288Y-157378210D01*
X221379185Y-157290609D01*
X221379172Y-157290602D01*
X221233501Y-157230264D01*
X221233489Y-157230261D01*
X221078845Y-157199500D01*
X221078842Y-157199500D01*
X220921158Y-157199500D01*
X220921155Y-157199500D01*
X220766510Y-157230261D01*
X220766498Y-157230264D01*
X220620827Y-157290602D01*
X220620814Y-157290609D01*
X220489711Y-157378210D01*
X220489707Y-157378213D01*
X220378213Y-157489707D01*
X220378210Y-157489711D01*
X220290609Y-157620814D01*
X220290601Y-157620829D01*
X220267735Y-157676032D01*
X220223893Y-157730435D01*
X220157599Y-157752499D01*
X220089900Y-157735219D01*
X220065494Y-157716259D01*
X217322074Y-154972839D01*
X217288589Y-154911516D01*
X217288138Y-154909349D01*
X217257238Y-154754010D01*
X217257237Y-154754003D01*
X217257235Y-154753998D01*
X217196897Y-154608327D01*
X217196890Y-154608314D01*
X217109289Y-154477211D01*
X217109286Y-154477207D01*
X216997792Y-154365713D01*
X216997788Y-154365710D01*
X216866685Y-154278109D01*
X216866672Y-154278102D01*
X216721001Y-154217764D01*
X216720989Y-154217761D01*
X216566345Y-154187000D01*
X216566342Y-154187000D01*
X216408658Y-154187000D01*
X216408655Y-154187000D01*
X216254010Y-154217761D01*
X216253998Y-154217764D01*
X216131525Y-154268494D01*
X216062056Y-154275963D01*
X215999577Y-154244687D01*
X215963925Y-154184598D01*
X215960073Y-154153933D01*
X215960073Y-151115186D01*
X242099500Y-151115186D01*
X242099500Y-151384813D01*
X242129686Y-151652719D01*
X242129688Y-151652731D01*
X242189684Y-151915594D01*
X242189687Y-151915602D01*
X242278734Y-152170082D01*
X242395714Y-152412994D01*
X242395716Y-152412997D01*
X242539162Y-152641289D01*
X242707266Y-152852085D01*
X242897915Y-153042734D01*
X243108711Y-153210838D01*
X243337003Y-153354284D01*
X243579921Y-153471267D01*
X243771049Y-153538145D01*
X243834397Y-153560312D01*
X243834405Y-153560315D01*
X243834408Y-153560315D01*
X243834409Y-153560316D01*
X244097268Y-153620312D01*
X244365187Y-153650499D01*
X244365188Y-153650500D01*
X244365191Y-153650500D01*
X244634812Y-153650500D01*
X244634812Y-153650499D01*
X244902732Y-153620312D01*
X245165591Y-153560316D01*
X245420079Y-153471267D01*
X245662997Y-153354284D01*
X245891289Y-153210838D01*
X246102085Y-153042734D01*
X246292734Y-152852085D01*
X246460838Y-152641289D01*
X246604284Y-152412997D01*
X246721267Y-152170079D01*
X246810316Y-151915591D01*
X246870312Y-151652732D01*
X246900500Y-151384809D01*
X246900500Y-151115191D01*
X246870312Y-150847268D01*
X246810316Y-150584409D01*
X246721267Y-150329921D01*
X246604284Y-150087003D01*
X246460838Y-149858711D01*
X246292734Y-149647915D01*
X246102085Y-149457266D01*
X245891289Y-149289162D01*
X245662997Y-149145716D01*
X245662994Y-149145714D01*
X245420082Y-149028734D01*
X245165602Y-148939687D01*
X245165594Y-148939684D01*
X244968446Y-148894687D01*
X244902732Y-148879688D01*
X244902728Y-148879687D01*
X244902719Y-148879686D01*
X244634813Y-148849500D01*
X244634809Y-148849500D01*
X244365191Y-148849500D01*
X244365186Y-148849500D01*
X244097280Y-148879686D01*
X244097268Y-148879688D01*
X243834405Y-148939684D01*
X243834397Y-148939687D01*
X243579917Y-149028734D01*
X243337005Y-149145714D01*
X243108712Y-149289161D01*
X242897915Y-149457265D01*
X242707265Y-149647915D01*
X242539161Y-149858712D01*
X242395714Y-150087005D01*
X242278734Y-150329917D01*
X242189687Y-150584397D01*
X242189684Y-150584405D01*
X242129688Y-150847268D01*
X242129686Y-150847280D01*
X242099500Y-151115186D01*
X215960073Y-151115186D01*
X215960073Y-134193629D01*
X215979758Y-134126590D01*
X216027777Y-134083145D01*
X216127767Y-134032199D01*
X216314412Y-133896593D01*
X216477546Y-133733459D01*
X216529256Y-133662285D01*
X216584585Y-133619622D01*
X216654198Y-133613643D01*
X216715993Y-133646249D01*
X216729886Y-133662282D01*
X216781600Y-133733459D01*
X216944734Y-133896593D01*
X217131379Y-134032199D01*
X217336940Y-134136937D01*
X217511420Y-134193629D01*
X217556353Y-134208229D01*
X217670287Y-134226274D01*
X217784220Y-134244320D01*
X217784221Y-134244320D01*
X218014925Y-134244320D01*
X218014926Y-134244320D01*
X218242792Y-134208229D01*
X218462206Y-134136937D01*
X218667767Y-134032199D01*
X218854412Y-133896593D01*
X219017546Y-133733459D01*
X219069256Y-133662285D01*
X219124585Y-133619622D01*
X219194198Y-133613643D01*
X219255993Y-133646249D01*
X219269886Y-133662282D01*
X219321600Y-133733459D01*
X219484734Y-133896593D01*
X219671379Y-134032199D01*
X219876940Y-134136937D01*
X220051420Y-134193629D01*
X220096353Y-134208229D01*
X220210287Y-134226274D01*
X220324220Y-134244320D01*
X220324221Y-134244320D01*
X220554925Y-134244320D01*
X220554926Y-134244320D01*
X220782792Y-134208229D01*
X221002206Y-134136937D01*
X221207767Y-134032199D01*
X221297487Y-133967013D01*
X221322921Y-133952769D01*
X221355487Y-133939280D01*
X221355487Y-133939279D01*
X221355494Y-133939277D01*
X221478416Y-133857145D01*
X221582952Y-133752609D01*
X221665084Y-133629687D01*
X221721658Y-133493105D01*
X221721658Y-133493104D01*
X221723990Y-133487475D01*
X221724363Y-133487629D01*
X221728323Y-133477785D01*
X221797887Y-133341259D01*
X221797888Y-133341257D01*
X221797890Y-133341253D01*
X221869182Y-133121839D01*
X221905273Y-132893973D01*
X221905273Y-132663267D01*
X221869182Y-132435401D01*
X221797890Y-132215987D01*
X221693152Y-132010426D01*
X221557546Y-131823781D01*
X221394412Y-131660647D01*
X221207767Y-131525041D01*
X221002206Y-131420303D01*
X220911837Y-131390940D01*
X220782792Y-131349010D01*
X220586081Y-131317854D01*
X220554926Y-131312920D01*
X220324220Y-131312920D01*
X220296812Y-131317261D01*
X220096353Y-131349010D01*
X219925378Y-131404564D01*
X219876940Y-131420303D01*
X219876937Y-131420304D01*
X219876935Y-131420305D01*
X219671378Y-131525041D01*
X219564890Y-131602409D01*
X219484734Y-131660647D01*
X219484732Y-131660649D01*
X219484731Y-131660649D01*
X219321601Y-131823779D01*
X219269891Y-131894952D01*
X219214560Y-131937618D01*
X219144947Y-131943596D01*
X219083152Y-131910990D01*
X219069255Y-131894952D01*
X219017786Y-131824112D01*
X219017546Y-131823781D01*
X218854412Y-131660647D01*
X218667767Y-131525041D01*
X218462206Y-131420303D01*
X218371837Y-131390940D01*
X218242792Y-131349010D01*
X218046081Y-131317854D01*
X218014926Y-131312920D01*
X217784220Y-131312920D01*
X217756812Y-131317261D01*
X217556353Y-131349010D01*
X217385378Y-131404564D01*
X217336940Y-131420303D01*
X217336937Y-131420304D01*
X217336935Y-131420305D01*
X217131378Y-131525041D01*
X217024890Y-131602409D01*
X216944734Y-131660647D01*
X216944732Y-131660649D01*
X216944731Y-131660649D01*
X216781601Y-131823779D01*
X216729891Y-131894952D01*
X216674560Y-131937618D01*
X216604947Y-131943596D01*
X216543152Y-131910990D01*
X216529255Y-131894952D01*
X216477786Y-131824112D01*
X216477546Y-131823781D01*
X216314412Y-131660647D01*
X216127767Y-131525041D01*
X215922206Y-131420303D01*
X215831837Y-131390940D01*
X215702792Y-131349010D01*
X215506081Y-131317854D01*
X215474926Y-131312920D01*
X215244220Y-131312920D01*
X215216812Y-131317261D01*
X215016353Y-131349010D01*
X214845378Y-131404564D01*
X214796940Y-131420303D01*
X214796937Y-131420304D01*
X214796935Y-131420305D01*
X214591378Y-131525041D01*
X214484890Y-131602409D01*
X214404734Y-131660647D01*
X214404732Y-131660649D01*
X214404731Y-131660649D01*
X214241601Y-131823779D01*
X214189891Y-131894952D01*
X214134560Y-131937618D01*
X214064947Y-131943596D01*
X214003152Y-131910990D01*
X213989255Y-131894952D01*
X213937786Y-131824112D01*
X213937546Y-131823781D01*
X213774412Y-131660647D01*
X213587767Y-131525041D01*
X213382206Y-131420303D01*
X213291837Y-131390940D01*
X213162792Y-131349010D01*
X212966081Y-131317854D01*
X212934926Y-131312920D01*
X212704220Y-131312920D01*
X212676812Y-131317261D01*
X212476353Y-131349010D01*
X212305378Y-131404564D01*
X212256940Y-131420303D01*
X212256937Y-131420304D01*
X212256935Y-131420305D01*
X212051378Y-131525041D01*
X211944890Y-131602409D01*
X211864734Y-131660647D01*
X211864732Y-131660649D01*
X211864731Y-131660649D01*
X211701601Y-131823779D01*
X211649891Y-131894952D01*
X211594560Y-131937618D01*
X211524947Y-131943596D01*
X211463152Y-131910990D01*
X211449255Y-131894952D01*
X211397786Y-131824112D01*
X211397546Y-131823781D01*
X211234412Y-131660647D01*
X211047767Y-131525041D01*
X210842206Y-131420303D01*
X210751837Y-131390940D01*
X210622792Y-131349010D01*
X210426081Y-131317854D01*
X210394926Y-131312920D01*
X210164220Y-131312920D01*
X210136812Y-131317261D01*
X209936353Y-131349010D01*
X209765378Y-131404564D01*
X209716940Y-131420303D01*
X209716937Y-131420304D01*
X209716935Y-131420305D01*
X209511378Y-131525041D01*
X209404890Y-131602409D01*
X209324734Y-131660647D01*
X209324732Y-131660649D01*
X209324731Y-131660649D01*
X209161601Y-131823779D01*
X209109891Y-131894952D01*
X209054560Y-131937618D01*
X208984947Y-131943596D01*
X208923152Y-131910990D01*
X208909255Y-131894952D01*
X208857786Y-131824112D01*
X208857546Y-131823781D01*
X208694412Y-131660647D01*
X208507767Y-131525041D01*
X208302206Y-131420303D01*
X208211837Y-131390940D01*
X208082792Y-131349010D01*
X207886081Y-131317854D01*
X207854926Y-131312920D01*
X207624220Y-131312920D01*
X207596812Y-131317261D01*
X207396353Y-131349010D01*
X207225378Y-131404564D01*
X207176940Y-131420303D01*
X207176937Y-131420304D01*
X207176935Y-131420305D01*
X206971378Y-131525041D01*
X206864890Y-131602409D01*
X206784734Y-131660647D01*
X206784732Y-131660649D01*
X206784731Y-131660649D01*
X206621601Y-131823779D01*
X206569891Y-131894952D01*
X206514560Y-131937618D01*
X206444947Y-131943596D01*
X206383152Y-131910990D01*
X206369255Y-131894952D01*
X206317786Y-131824112D01*
X206317546Y-131823781D01*
X206154412Y-131660647D01*
X205967767Y-131525041D01*
X205762206Y-131420303D01*
X205671837Y-131390940D01*
X205542792Y-131349010D01*
X205346081Y-131317854D01*
X205314926Y-131312920D01*
X205084220Y-131312920D01*
X205056812Y-131317261D01*
X204856353Y-131349010D01*
X204685378Y-131404564D01*
X204636940Y-131420303D01*
X204636937Y-131420304D01*
X204636935Y-131420305D01*
X204431378Y-131525041D01*
X204324890Y-131602409D01*
X204244734Y-131660647D01*
X204244732Y-131660649D01*
X204244731Y-131660649D01*
X204081601Y-131823779D01*
X204029891Y-131894952D01*
X203974560Y-131937618D01*
X203904947Y-131943596D01*
X203843152Y-131910990D01*
X203829255Y-131894952D01*
X203777786Y-131824112D01*
X203777546Y-131823781D01*
X203614412Y-131660647D01*
X203427767Y-131525041D01*
X203222206Y-131420303D01*
X203131837Y-131390940D01*
X203002792Y-131349010D01*
X202806081Y-131317854D01*
X202774926Y-131312920D01*
X202544220Y-131312920D01*
X202516812Y-131317261D01*
X202316353Y-131349010D01*
X202145378Y-131404564D01*
X202096940Y-131420303D01*
X202096937Y-131420304D01*
X202096935Y-131420305D01*
X201891378Y-131525041D01*
X201784890Y-131602409D01*
X201704734Y-131660647D01*
X201704732Y-131660649D01*
X201704731Y-131660649D01*
X201541602Y-131823778D01*
X201541595Y-131823787D01*
X201489581Y-131895377D01*
X201434251Y-131938043D01*
X201364638Y-131944021D01*
X201302843Y-131911414D01*
X201288946Y-131895377D01*
X201237162Y-131824104D01*
X201237162Y-131824103D01*
X201074089Y-131661030D01*
X200887505Y-131525468D01*
X200682019Y-131420767D01*
X200462675Y-131349497D01*
X200369573Y-131334751D01*
X200369573Y-132345608D01*
X200312566Y-132312695D01*
X200185399Y-132278620D01*
X200053747Y-132278620D01*
X199926580Y-132312695D01*
X199869573Y-132345608D01*
X199869573Y-131334751D01*
X199776470Y-131349497D01*
X199557126Y-131420767D01*
X199351640Y-131525468D01*
X199165057Y-131661030D01*
X199165056Y-131661030D01*
X199001983Y-131824103D01*
X199001976Y-131824112D01*
X198950198Y-131895377D01*
X198894868Y-131938043D01*
X198825254Y-131944021D01*
X198763460Y-131911414D01*
X198749567Y-131895382D01*
X198697546Y-131823781D01*
X198534412Y-131660647D01*
X198347767Y-131525041D01*
X198142206Y-131420303D01*
X198051837Y-131390940D01*
X197922792Y-131349010D01*
X197726081Y-131317854D01*
X197694926Y-131312920D01*
X197464220Y-131312920D01*
X197436812Y-131317261D01*
X197236353Y-131349010D01*
X197065378Y-131404564D01*
X197016940Y-131420303D01*
X197016937Y-131420304D01*
X197016935Y-131420305D01*
X196811378Y-131525041D01*
X196704890Y-131602409D01*
X196624734Y-131660647D01*
X196624732Y-131660649D01*
X196624731Y-131660649D01*
X196461601Y-131823779D01*
X196409891Y-131894952D01*
X196354560Y-131937618D01*
X196284947Y-131943596D01*
X196223152Y-131910990D01*
X196209255Y-131894952D01*
X196157786Y-131824112D01*
X196157546Y-131823781D01*
X195994412Y-131660647D01*
X195807767Y-131525041D01*
X195602206Y-131420303D01*
X195511837Y-131390940D01*
X195382792Y-131349010D01*
X195186081Y-131317854D01*
X195154926Y-131312920D01*
X194924220Y-131312920D01*
X194896812Y-131317261D01*
X194696353Y-131349010D01*
X194525378Y-131404564D01*
X194476940Y-131420303D01*
X194476937Y-131420304D01*
X194476935Y-131420305D01*
X194271378Y-131525041D01*
X194164890Y-131602409D01*
X194084734Y-131660647D01*
X194084732Y-131660649D01*
X194084731Y-131660649D01*
X193921602Y-131823778D01*
X193921602Y-131823779D01*
X193921600Y-131823781D01*
X193921360Y-131824112D01*
X193785994Y-132010425D01*
X193681258Y-132215982D01*
X193609963Y-132435400D01*
X193573873Y-132663267D01*
X193573873Y-132893972D01*
X193609963Y-133121839D01*
X193628445Y-133178719D01*
X193681256Y-133341253D01*
X193785994Y-133546814D01*
X193921600Y-133733459D01*
X194084734Y-133896593D01*
X194271379Y-134032199D01*
X194476940Y-134136937D01*
X194651420Y-134193629D01*
X194696353Y-134208229D01*
X194810287Y-134226274D01*
X194924220Y-134244320D01*
X194924221Y-134244320D01*
X195154925Y-134244320D01*
X195154926Y-134244320D01*
X195382792Y-134208229D01*
X195602206Y-134136937D01*
X195807767Y-134032199D01*
X195994412Y-133896593D01*
X196157546Y-133733459D01*
X196209256Y-133662285D01*
X196264585Y-133619622D01*
X196334198Y-133613643D01*
X196395993Y-133646249D01*
X196409886Y-133662282D01*
X196461600Y-133733459D01*
X196624734Y-133896593D01*
X196811379Y-134032199D01*
X197016940Y-134136937D01*
X197191420Y-134193629D01*
X197236353Y-134208229D01*
X197350287Y-134226274D01*
X197464220Y-134244320D01*
X197464221Y-134244320D01*
X197694925Y-134244320D01*
X197694926Y-134244320D01*
X197922792Y-134208229D01*
X198142206Y-134136937D01*
X198347767Y-134032199D01*
X198534412Y-133896593D01*
X198697546Y-133733459D01*
X198749564Y-133661861D01*
X198804892Y-133619197D01*
X198874506Y-133613218D01*
X198936301Y-133645823D01*
X198950199Y-133661862D01*
X199001983Y-133733135D01*
X199001983Y-133733136D01*
X199165056Y-133896209D01*
X199351640Y-134031771D01*
X199557128Y-134136472D01*
X199776463Y-134207739D01*
X199869573Y-134222486D01*
X199869573Y-133211632D01*
X199926580Y-133244545D01*
X200053747Y-133278620D01*
X200185399Y-133278620D01*
X200312566Y-133244545D01*
X200369573Y-133211632D01*
X200369573Y-134222485D01*
X200462682Y-134207739D01*
X200682017Y-134136472D01*
X200887505Y-134031771D01*
X201074088Y-133896209D01*
X201074089Y-133896209D01*
X201237162Y-133733136D01*
X201237167Y-133733130D01*
X201288946Y-133661863D01*
X201344275Y-133619197D01*
X201413889Y-133613218D01*
X201475684Y-133645823D01*
X201489579Y-133661858D01*
X201541600Y-133733459D01*
X201704734Y-133896593D01*
X201891379Y-134032199D01*
X202096940Y-134136937D01*
X202271420Y-134193629D01*
X202316353Y-134208229D01*
X202430287Y-134226274D01*
X202544220Y-134244320D01*
X202544221Y-134244320D01*
X202774925Y-134244320D01*
X202774926Y-134244320D01*
X202909357Y-134223027D01*
X202978651Y-134231981D01*
X203016437Y-134257819D01*
X204849181Y-136090563D01*
X204882666Y-136151886D01*
X204885500Y-136178244D01*
X204885500Y-170108234D01*
X204865815Y-170175273D01*
X204864602Y-170177125D01*
X204776609Y-170308814D01*
X204776602Y-170308827D01*
X204716264Y-170454498D01*
X204716261Y-170454510D01*
X204685500Y-170609153D01*
X204685500Y-170766846D01*
X204716261Y-170921489D01*
X204716264Y-170921501D01*
X204776602Y-171067172D01*
X204776609Y-171067185D01*
X204864210Y-171198288D01*
X204864213Y-171198292D01*
X204975707Y-171309786D01*
X204975711Y-171309789D01*
X205069040Y-171372150D01*
X205113845Y-171425762D01*
X205122552Y-171495087D01*
X205092397Y-171558115D01*
X205087830Y-171562933D01*
X202631286Y-174019478D01*
X202519481Y-174131282D01*
X202519479Y-174131285D01*
X202469361Y-174218094D01*
X202469359Y-174218096D01*
X202440425Y-174268209D01*
X202440424Y-174268210D01*
X202440423Y-174268215D01*
X202399499Y-174420943D01*
X202399499Y-174420945D01*
X202399499Y-174589046D01*
X202399500Y-174589059D01*
X202399500Y-179639904D01*
X202379815Y-179706943D01*
X202327011Y-179752698D01*
X202257853Y-179762642D01*
X202194297Y-179733617D01*
X202187819Y-179727585D01*
X202174369Y-179714135D01*
X202174365Y-179714132D01*
X202043262Y-179626531D01*
X202043249Y-179626524D01*
X201897578Y-179566186D01*
X201897566Y-179566183D01*
X201742922Y-179535422D01*
X201742919Y-179535422D01*
X201585235Y-179535422D01*
X201585232Y-179535422D01*
X201430587Y-179566183D01*
X201430575Y-179566186D01*
X201284904Y-179626524D01*
X201284891Y-179626531D01*
X201153788Y-179714132D01*
X201153784Y-179714135D01*
X201042290Y-179825629D01*
X201042287Y-179825633D01*
X200954686Y-179956736D01*
X200954679Y-179956749D01*
X200894341Y-180102420D01*
X200894338Y-180102430D01*
X200863439Y-180257770D01*
X200831054Y-180319681D01*
X200829503Y-180321259D01*
X199919481Y-181231282D01*
X199919475Y-181231290D01*
X199840426Y-181368209D01*
X199840423Y-181368214D01*
X199799499Y-181520944D01*
X199799499Y-181689047D01*
X199799500Y-181689060D01*
X199799500Y-189110623D01*
X199779815Y-189177662D01*
X199727011Y-189223417D01*
X199657853Y-189233361D01*
X199637182Y-189228554D01*
X199487045Y-189179772D01*
X199285552Y-189147859D01*
X199277092Y-189146519D01*
X199064518Y-189146519D01*
X199056058Y-189147859D01*
X198854565Y-189179772D01*
X198652390Y-189245463D01*
X198462984Y-189341970D01*
X198291018Y-189466909D01*
X198140695Y-189617232D01*
X198015754Y-189789201D01*
X198011007Y-189798518D01*
X197963032Y-189849312D01*
X197895210Y-189866106D01*
X197829076Y-189843567D01*
X197790039Y-189798514D01*
X197785431Y-189789471D01*
X197746075Y-189735301D01*
X197746074Y-189735301D01*
X197113767Y-190367609D01*
X197096730Y-190304026D01*
X197030904Y-190190012D01*
X196937812Y-190096920D01*
X196823798Y-190031094D01*
X196760214Y-190014056D01*
X197392521Y-189381747D01*
X197338355Y-189342394D01*
X197149022Y-189245923D01*
X196946934Y-189180261D01*
X196737051Y-189147019D01*
X196524559Y-189147019D01*
X196314677Y-189180261D01*
X196314674Y-189180261D01*
X196112587Y-189245923D01*
X195923244Y-189342399D01*
X195869087Y-189381746D01*
X195869087Y-189381747D01*
X196501396Y-190014056D01*
X196437812Y-190031094D01*
X196323798Y-190096920D01*
X196230706Y-190190012D01*
X196164880Y-190304026D01*
X196147842Y-190367609D01*
X195515533Y-189735301D01*
X195515532Y-189735301D01*
X195476185Y-189789458D01*
X195379709Y-189978801D01*
X195314047Y-190180888D01*
X195314047Y-190180891D01*
X195280805Y-190390772D01*
X195280805Y-190603265D01*
X195314047Y-190813146D01*
X195314047Y-190813149D01*
X195379709Y-191015236D01*
X195476180Y-191204569D01*
X195515533Y-191258735D01*
X196147842Y-190626427D01*
X196164880Y-190690012D01*
X196230706Y-190804026D01*
X196323798Y-190897118D01*
X196437812Y-190962944D01*
X196501395Y-190979981D01*
X195831175Y-191650200D01*
X195769852Y-191683685D01*
X195743503Y-191686519D01*
X195732939Y-191686519D01*
X195732928Y-191686520D01*
X195673321Y-191692927D01*
X195538476Y-191743221D01*
X195538469Y-191743225D01*
X195423260Y-191829471D01*
X195423257Y-191829474D01*
X195337011Y-191944683D01*
X195337007Y-191944690D01*
X195290349Y-192069789D01*
X195286714Y-192079536D01*
X195280346Y-192138758D01*
X195253609Y-192203306D01*
X195196217Y-192243154D01*
X195157058Y-192249500D01*
X193171248Y-192249500D01*
X193104209Y-192229815D01*
X193073468Y-192198502D01*
X193072193Y-192199511D01*
X193067711Y-192193843D01*
X192943657Y-192069789D01*
X192943656Y-192069788D01*
X192809402Y-191986980D01*
X192762679Y-191935033D01*
X192750500Y-191881442D01*
X192750500Y-191304604D01*
X192759939Y-191257151D01*
X192760721Y-191255264D01*
X192769737Y-191233497D01*
X192800500Y-191078842D01*
X192800500Y-190921158D01*
X192800500Y-190921155D01*
X192800499Y-190921153D01*
X192795024Y-190893627D01*
X192769737Y-190766503D01*
X192720252Y-190647034D01*
X192709397Y-190620827D01*
X192709390Y-190620814D01*
X192621789Y-190489711D01*
X192621786Y-190489707D01*
X192510292Y-190378213D01*
X192510288Y-190378210D01*
X192379185Y-190290609D01*
X192379172Y-190290602D01*
X192233501Y-190230264D01*
X192233489Y-190230261D01*
X192078845Y-190199500D01*
X192078842Y-190199500D01*
X191921158Y-190199500D01*
X191921155Y-190199500D01*
X191766510Y-190230261D01*
X191766498Y-190230264D01*
X191620827Y-190290602D01*
X191620814Y-190290609D01*
X191489711Y-190378210D01*
X191489707Y-190378213D01*
X191378213Y-190489707D01*
X191378210Y-190489711D01*
X191290609Y-190620814D01*
X191290602Y-190620827D01*
X191230264Y-190766498D01*
X191230261Y-190766510D01*
X191199500Y-190921153D01*
X191199500Y-191078846D01*
X191230261Y-191233489D01*
X191230263Y-191233497D01*
X191240061Y-191257151D01*
X191249500Y-191304604D01*
X191249500Y-191881442D01*
X191229815Y-191948481D01*
X191190598Y-191986979D01*
X191104209Y-192040264D01*
X191056342Y-192069789D01*
X190932289Y-192193842D01*
X190840187Y-192343163D01*
X190840185Y-192343168D01*
X190832509Y-192366334D01*
X190785001Y-192509703D01*
X190785001Y-192509704D01*
X190785000Y-192509704D01*
X190774500Y-192612483D01*
X190774500Y-193387501D01*
X190774501Y-193387519D01*
X190785000Y-193490296D01*
X190785001Y-193490299D01*
X190840185Y-193656831D01*
X190840187Y-193656836D01*
X190857730Y-193685278D01*
X190932288Y-193806156D01*
X191056344Y-193930212D01*
X191059628Y-193932237D01*
X191059653Y-193932253D01*
X191061445Y-193934246D01*
X191062011Y-193934693D01*
X191061934Y-193934789D01*
X191106379Y-193984199D01*
X191117603Y-194053161D01*
X191089761Y-194117244D01*
X191059665Y-194143326D01*
X191056660Y-194145179D01*
X191056655Y-194145183D01*
X190932684Y-194269154D01*
X190840643Y-194418375D01*
X190840641Y-194418380D01*
X190785494Y-194584802D01*
X190785493Y-194584809D01*
X190775000Y-194687513D01*
X190775000Y-194825000D01*
X193224999Y-194825000D01*
X193224999Y-194687528D01*
X193224998Y-194687513D01*
X193214505Y-194584802D01*
X193159358Y-194418380D01*
X193159356Y-194418375D01*
X193067315Y-194269154D01*
X192943344Y-194145183D01*
X192943341Y-194145181D01*
X192940339Y-194143329D01*
X192938713Y-194141521D01*
X192937677Y-194140702D01*
X192937817Y-194140524D01*
X192893617Y-194091380D01*
X192882397Y-194022417D01*
X192910243Y-193958336D01*
X192918431Y-193949444D01*
X192928411Y-193939614D01*
X192943656Y-193930212D01*
X193067712Y-193806156D01*
X193073570Y-193796657D01*
X193084239Y-193786151D01*
X193102370Y-193776429D01*
X193117665Y-193762675D01*
X193135645Y-193758589D01*
X193145817Y-193753136D01*
X193156071Y-193753948D01*
X193171248Y-193750500D01*
X195156306Y-193750500D01*
X195223345Y-193770185D01*
X195269100Y-193822989D01*
X195280306Y-193874500D01*
X195280306Y-193934895D01*
X195286713Y-193994502D01*
X195337007Y-194129347D01*
X195337011Y-194129354D01*
X195423257Y-194244563D01*
X195423260Y-194244566D01*
X195538469Y-194330812D01*
X195538476Y-194330816D01*
X195673322Y-194381110D01*
X195673321Y-194381110D01*
X195680249Y-194381854D01*
X195732932Y-194387519D01*
X197207538Y-194387518D01*
X197274577Y-194407203D01*
X197320332Y-194460006D01*
X197331538Y-194511518D01*
X197331538Y-195345368D01*
X197331537Y-195345386D01*
X197331537Y-195511092D01*
X197331536Y-195511092D01*
X197333784Y-195519480D01*
X197372461Y-195663823D01*
X197372462Y-195663825D01*
X197372461Y-195663825D01*
X197387427Y-195689745D01*
X197387428Y-195689746D01*
X197439429Y-195779815D01*
X197451517Y-195800752D01*
X197451519Y-195800755D01*
X197570387Y-195919623D01*
X197570393Y-195919628D01*
X198363181Y-196712416D01*
X198396666Y-196773739D01*
X198399500Y-196800097D01*
X198399500Y-197500001D01*
X198399501Y-197500019D01*
X198410000Y-197602796D01*
X198410001Y-197602799D01*
X198465185Y-197769331D01*
X198465187Y-197769336D01*
X198500069Y-197825888D01*
X198557288Y-197918656D01*
X198681344Y-198042712D01*
X198830666Y-198134814D01*
X198997203Y-198189999D01*
X199099991Y-198200500D01*
X199775500Y-198200499D01*
X199784186Y-198203049D01*
X199793147Y-198201761D01*
X199817183Y-198212738D01*
X199842539Y-198220183D01*
X199848467Y-198227025D01*
X199856703Y-198230786D01*
X199870989Y-198253017D01*
X199888294Y-198272987D01*
X199890581Y-198283502D01*
X199894477Y-198289564D01*
X199899500Y-198324499D01*
X199899500Y-198413330D01*
X199899499Y-198413348D01*
X199899499Y-198579054D01*
X199899498Y-198579054D01*
X199940423Y-198731784D01*
X199940424Y-198731787D01*
X199943934Y-198737866D01*
X199943935Y-198737868D01*
X200019477Y-198868712D01*
X200019481Y-198868717D01*
X200138349Y-198987585D01*
X200138355Y-198987590D01*
X201863181Y-200712416D01*
X201896666Y-200773739D01*
X201899500Y-200800097D01*
X201899500Y-205420234D01*
X201879815Y-205487273D01*
X201878602Y-205489125D01*
X201790609Y-205620814D01*
X201790602Y-205620827D01*
X201730264Y-205766498D01*
X201730261Y-205766510D01*
X201699500Y-205921153D01*
X201699500Y-205921158D01*
X201699500Y-206078842D01*
X201699500Y-206078844D01*
X201699499Y-206078844D01*
X201721708Y-206190488D01*
X201715481Y-206260080D01*
X201672618Y-206315257D01*
X201606729Y-206338502D01*
X201600091Y-206338680D01*
X201187114Y-206338680D01*
X201150248Y-206341581D01*
X201150242Y-206341582D01*
X200992422Y-206387434D01*
X200992419Y-206387435D01*
X200850953Y-206471097D01*
X200850945Y-206471103D01*
X200734739Y-206587309D01*
X200734733Y-206587317D01*
X200651071Y-206728783D01*
X200651070Y-206728786D01*
X200605218Y-206886606D01*
X200605217Y-206886612D01*
X200602316Y-206923478D01*
X200602316Y-207089082D01*
X200582631Y-207156121D01*
X200565997Y-207176763D01*
X199618919Y-208123840D01*
X199618918Y-208123842D01*
X199571101Y-208206665D01*
X199568799Y-208210652D01*
X199568797Y-208210654D01*
X199539863Y-208260767D01*
X199539862Y-208260768D01*
X199539861Y-208260773D01*
X199498937Y-208413501D01*
X199498937Y-208413503D01*
X199498937Y-208581604D01*
X199498938Y-208581617D01*
X199498938Y-208688064D01*
X199479253Y-208755103D01*
X199462619Y-208775745D01*
X197511820Y-210726544D01*
X197450497Y-210760029D01*
X197424139Y-210762863D01*
X192042662Y-210762863D01*
X191975623Y-210743178D01*
X191929868Y-210690374D01*
X191919924Y-210621216D01*
X191920189Y-210619465D01*
X191950421Y-210428585D01*
X191950421Y-210208142D01*
X191934771Y-210109332D01*
X191915936Y-209990413D01*
X191858867Y-209814770D01*
X191847817Y-209780760D01*
X191847816Y-209780757D01*
X191813158Y-209712739D01*
X191747736Y-209584342D01*
X191653673Y-209454874D01*
X191618168Y-209406005D01*
X191618164Y-209406000D01*
X191462284Y-209250120D01*
X191462279Y-209250116D01*
X191322240Y-209148372D01*
X191279574Y-209093042D01*
X191273595Y-209023429D01*
X191306200Y-208961634D01*
X191322240Y-208947736D01*
X191347434Y-208929430D01*
X191347435Y-208929430D01*
X190679330Y-208261326D01*
X190742914Y-208244289D01*
X190856928Y-208178463D01*
X190950020Y-208085371D01*
X191015846Y-207971357D01*
X191032883Y-207907773D01*
X191700987Y-208575878D01*
X191700987Y-208575877D01*
X191747307Y-208512124D01*
X191847353Y-208315774D01*
X191915447Y-208106199D01*
X191949921Y-207888545D01*
X191949921Y-207668182D01*
X191915447Y-207450528D01*
X191847353Y-207240953D01*
X191747309Y-207044607D01*
X191700987Y-206980849D01*
X191700986Y-206980849D01*
X191032883Y-207648953D01*
X191015846Y-207585371D01*
X190950020Y-207471357D01*
X190856928Y-207378265D01*
X190742914Y-207312439D01*
X190679328Y-207295401D01*
X191347434Y-206627296D01*
X191322240Y-206608992D01*
X191279574Y-206553662D01*
X191273595Y-206484049D01*
X191306200Y-206422253D01*
X191322234Y-206408358D01*
X191462286Y-206306606D01*
X191618163Y-206150729D01*
X191747736Y-205972386D01*
X191847816Y-205775970D01*
X191915936Y-205566315D01*
X191949389Y-205355102D01*
X191979318Y-205291967D01*
X192038630Y-205255036D01*
X192071862Y-205250500D01*
X192676082Y-205250500D01*
X192676083Y-205250500D01*
X192823917Y-205250500D01*
X195680172Y-205250500D01*
X195714767Y-205255424D01*
X195859926Y-205297597D01*
X195859929Y-205297597D01*
X195859931Y-205297598D01*
X195896806Y-205300500D01*
X195896814Y-205300500D01*
X197053186Y-205300500D01*
X197053194Y-205300500D01*
X197090069Y-205297598D01*
X197090071Y-205297597D01*
X197090073Y-205297597D01*
X197184424Y-205270185D01*
X197247898Y-205251744D01*
X197389365Y-205168081D01*
X197505581Y-205051865D01*
X197505767Y-205051549D01*
X197505977Y-205051353D01*
X197510361Y-205045702D01*
X197511272Y-205046409D01*
X197556836Y-205003866D01*
X197625577Y-204991362D01*
X197690167Y-205018006D01*
X197714355Y-205045921D01*
X197714639Y-205045702D01*
X197718679Y-205050911D01*
X197719232Y-205051548D01*
X197719419Y-205051865D01*
X197719421Y-205051867D01*
X197719423Y-205051870D01*
X197835629Y-205168076D01*
X197835633Y-205168079D01*
X197835635Y-205168081D01*
X197977102Y-205251744D01*
X197988433Y-205255036D01*
X198134926Y-205297597D01*
X198134929Y-205297597D01*
X198134931Y-205297598D01*
X198171806Y-205300500D01*
X198171814Y-205300500D01*
X199328186Y-205300500D01*
X199328194Y-205300500D01*
X199365069Y-205297598D01*
X199365071Y-205297597D01*
X199365073Y-205297597D01*
X199510233Y-205255424D01*
X199544828Y-205250500D01*
X199887770Y-205250500D01*
X199917210Y-205259144D01*
X199947197Y-205265668D01*
X199952212Y-205269422D01*
X199954809Y-205270185D01*
X199975451Y-205286819D01*
X200003927Y-205315295D01*
X200030807Y-205355523D01*
X200040604Y-205379175D01*
X200040609Y-205379185D01*
X200128210Y-205510288D01*
X200128213Y-205510292D01*
X200239707Y-205621786D01*
X200239711Y-205621789D01*
X200370814Y-205709390D01*
X200370827Y-205709397D01*
X200508683Y-205766498D01*
X200516503Y-205769737D01*
X200671153Y-205800499D01*
X200671156Y-205800500D01*
X200671158Y-205800500D01*
X200828844Y-205800500D01*
X200828845Y-205800499D01*
X200983497Y-205769737D01*
X201129179Y-205709394D01*
X201260289Y-205621789D01*
X201371789Y-205510289D01*
X201459394Y-205379179D01*
X201519737Y-205233497D01*
X201550500Y-205078842D01*
X201550500Y-204921158D01*
X201550500Y-204921155D01*
X201550499Y-204921153D01*
X201519738Y-204766510D01*
X201519737Y-204766503D01*
X201492505Y-204700758D01*
X201459397Y-204620827D01*
X201459390Y-204620814D01*
X201371789Y-204489711D01*
X201371786Y-204489707D01*
X201260292Y-204378213D01*
X201260288Y-204378210D01*
X201129185Y-204290609D01*
X201129175Y-204290604D01*
X201105523Y-204280807D01*
X201065295Y-204253927D01*
X200728421Y-203917052D01*
X200728414Y-203917046D01*
X200654729Y-203867812D01*
X200654729Y-203867813D01*
X200605491Y-203834913D01*
X200468917Y-203778343D01*
X200468907Y-203778340D01*
X200323920Y-203749500D01*
X200323918Y-203749500D01*
X199544828Y-203749500D01*
X199510233Y-203744576D01*
X199365073Y-203702402D01*
X199365067Y-203702401D01*
X199328201Y-203699500D01*
X199328194Y-203699500D01*
X198171806Y-203699500D01*
X198171798Y-203699500D01*
X198134932Y-203702401D01*
X198134926Y-203702402D01*
X197977106Y-203748254D01*
X197977103Y-203748255D01*
X197835637Y-203831917D01*
X197829469Y-203836702D01*
X197828164Y-203835019D01*
X197776454Y-203863246D01*
X197706763Y-203858251D01*
X197659058Y-203826247D01*
X197634796Y-203800000D01*
X197369315Y-203800000D01*
X197306194Y-203782732D01*
X197247896Y-203748255D01*
X197247893Y-203748254D01*
X197090073Y-203702402D01*
X197090067Y-203702401D01*
X197053201Y-203699500D01*
X197053194Y-203699500D01*
X195896806Y-203699500D01*
X195896798Y-203699500D01*
X195859932Y-203702401D01*
X195859926Y-203702402D01*
X195714767Y-203744576D01*
X195702960Y-203744542D01*
X195680172Y-203749500D01*
X194861230Y-203749500D01*
X194794191Y-203729815D01*
X194748436Y-203677011D01*
X194738492Y-203607853D01*
X194767517Y-203544297D01*
X194773549Y-203537819D01*
X194924549Y-203386819D01*
X194985872Y-203353334D01*
X195012230Y-203350500D01*
X195680172Y-203350500D01*
X195693451Y-203352390D01*
X195697819Y-203351762D01*
X195701794Y-203353577D01*
X195714767Y-203355424D01*
X195859926Y-203397597D01*
X195859929Y-203397597D01*
X195859931Y-203397598D01*
X195896806Y-203400500D01*
X195896814Y-203400500D01*
X197053186Y-203400500D01*
X197053194Y-203400500D01*
X197090069Y-203397598D01*
X197090071Y-203397597D01*
X197090073Y-203397597D01*
X197131691Y-203385505D01*
X197247898Y-203351744D01*
X197306194Y-203317268D01*
X197369315Y-203300000D01*
X197634794Y-203300000D01*
X197659057Y-203273752D01*
X197719018Y-203237885D01*
X197788852Y-203240129D01*
X197828512Y-203264530D01*
X197829469Y-203263298D01*
X197835632Y-203268078D01*
X197835635Y-203268081D01*
X197977102Y-203351744D01*
X197989769Y-203355424D01*
X198134926Y-203397597D01*
X198134929Y-203397597D01*
X198134931Y-203397598D01*
X198171806Y-203400500D01*
X198171814Y-203400500D01*
X199328186Y-203400500D01*
X199328194Y-203400500D01*
X199365069Y-203397598D01*
X199365071Y-203397597D01*
X199365073Y-203397597D01*
X199406691Y-203385505D01*
X199522898Y-203351744D01*
X199664365Y-203268081D01*
X199780581Y-203151865D01*
X199864244Y-203010398D01*
X199910098Y-202852569D01*
X199913000Y-202815694D01*
X199913000Y-202384306D01*
X199910098Y-202347431D01*
X199864244Y-202189602D01*
X199780581Y-202048135D01*
X199780579Y-202048133D01*
X199780576Y-202048129D01*
X199664370Y-201931923D01*
X199664362Y-201931917D01*
X199574266Y-201878635D01*
X199522898Y-201848256D01*
X199522897Y-201848255D01*
X199522896Y-201848255D01*
X199522893Y-201848254D01*
X199365073Y-201802402D01*
X199365067Y-201802401D01*
X199328201Y-201799500D01*
X199328194Y-201799500D01*
X198171806Y-201799500D01*
X198171798Y-201799500D01*
X198134932Y-201802401D01*
X198134926Y-201802402D01*
X197977106Y-201848254D01*
X197977103Y-201848255D01*
X197835637Y-201931917D01*
X197835629Y-201931923D01*
X197719423Y-202048129D01*
X197719414Y-202048140D01*
X197719229Y-202048455D01*
X197719019Y-202048650D01*
X197714639Y-202054298D01*
X197713727Y-202053591D01*
X197668157Y-202096136D01*
X197599415Y-202108637D01*
X197534827Y-202081988D01*
X197510643Y-202054078D01*
X197510361Y-202054298D01*
X197506323Y-202049092D01*
X197505771Y-202048455D01*
X197505585Y-202048140D01*
X197505576Y-202048129D01*
X197389370Y-201931923D01*
X197389362Y-201931917D01*
X197299266Y-201878635D01*
X197247898Y-201848256D01*
X197247897Y-201848255D01*
X197247896Y-201848255D01*
X197247893Y-201848254D01*
X197090073Y-201802402D01*
X197090067Y-201802401D01*
X197053201Y-201799500D01*
X197053194Y-201799500D01*
X195896806Y-201799500D01*
X195896798Y-201799500D01*
X195859932Y-201802401D01*
X195859926Y-201802402D01*
X195714767Y-201844576D01*
X195680172Y-201849500D01*
X194576080Y-201849500D01*
X194431092Y-201878340D01*
X194431082Y-201878343D01*
X194294509Y-201934913D01*
X194294504Y-201934916D01*
X194272203Y-201949817D01*
X194171585Y-202017046D01*
X194171578Y-202017052D01*
X193051646Y-203136984D01*
X192990323Y-203170469D01*
X192920631Y-203165485D01*
X192864698Y-203123613D01*
X192840281Y-203058149D01*
X192855133Y-202989876D01*
X192858953Y-202983361D01*
X192961016Y-202820929D01*
X193095056Y-202542593D01*
X193197089Y-202251000D01*
X193265832Y-201949816D01*
X193267263Y-201937120D01*
X193292987Y-201708806D01*
X193300421Y-201642829D01*
X193300421Y-201333899D01*
X193283700Y-201185499D01*
X193265834Y-201026926D01*
X193265831Y-201026908D01*
X193197089Y-200725728D01*
X193197085Y-200725716D01*
X193105208Y-200463149D01*
X193095056Y-200434135D01*
X192961016Y-200155799D01*
X192796656Y-199894221D01*
X192604041Y-199652690D01*
X192385595Y-199434244D01*
X192374630Y-199425500D01*
X192218441Y-199300943D01*
X192144064Y-199241629D01*
X191882486Y-199077269D01*
X191882483Y-199077267D01*
X191604157Y-198943232D01*
X191604143Y-198943226D01*
X191312568Y-198841199D01*
X191312556Y-198841195D01*
X191011376Y-198772453D01*
X191011358Y-198772450D01*
X190704392Y-198737864D01*
X190704386Y-198737864D01*
X190395456Y-198737864D01*
X190395449Y-198737864D01*
X190088483Y-198772450D01*
X190088465Y-198772453D01*
X189787285Y-198841195D01*
X189787273Y-198841199D01*
X189495698Y-198943226D01*
X189495684Y-198943232D01*
X189217358Y-199077267D01*
X188955779Y-199241628D01*
X188714247Y-199434243D01*
X188495800Y-199652690D01*
X188303185Y-199894222D01*
X188138824Y-200155801D01*
X188004789Y-200434127D01*
X188004783Y-200434141D01*
X187902756Y-200725716D01*
X187902752Y-200725728D01*
X187834010Y-201026908D01*
X187834007Y-201026926D01*
X187799421Y-201333892D01*
X187799421Y-201642835D01*
X187834007Y-201949801D01*
X187834010Y-201949816D01*
X187902752Y-202250999D01*
X187902756Y-202251011D01*
X188004783Y-202542586D01*
X188004789Y-202542600D01*
X188138824Y-202820926D01*
X188138826Y-202820929D01*
X188303186Y-203082507D01*
X188495801Y-203324038D01*
X188714247Y-203542484D01*
X188955778Y-203735099D01*
X189217356Y-203899459D01*
X189495692Y-204033499D01*
X189515723Y-204040508D01*
X189572498Y-204081231D01*
X189598244Y-204146184D01*
X189584787Y-204214745D01*
X189562448Y-204245230D01*
X189481672Y-204326006D01*
X189352108Y-204504338D01*
X189252025Y-204700757D01*
X189252024Y-204700760D01*
X189183906Y-204910411D01*
X189162366Y-205046409D01*
X189149421Y-205128142D01*
X189149421Y-205348586D01*
X189166663Y-205457450D01*
X189183906Y-205566316D01*
X189252024Y-205775967D01*
X189252025Y-205775970D01*
X189352108Y-205972389D01*
X189481673Y-206150722D01*
X189481677Y-206150727D01*
X189637561Y-206306611D01*
X189777600Y-206408354D01*
X189820266Y-206463683D01*
X189826245Y-206533297D01*
X189793640Y-206595092D01*
X189777600Y-206608990D01*
X189752406Y-206627294D01*
X189752406Y-206627296D01*
X190420511Y-207295401D01*
X190356928Y-207312439D01*
X190242914Y-207378265D01*
X190149822Y-207471357D01*
X190083996Y-207585371D01*
X190066958Y-207648954D01*
X189398853Y-206980849D01*
X189398852Y-206980849D01*
X189352537Y-207044597D01*
X189252488Y-207240953D01*
X189184394Y-207450528D01*
X189149921Y-207668182D01*
X189149921Y-207888545D01*
X189184394Y-208106199D01*
X189252488Y-208315774D01*
X189352532Y-208512120D01*
X189398853Y-208575877D01*
X190066958Y-207907772D01*
X190083996Y-207971357D01*
X190149822Y-208085371D01*
X190242914Y-208178463D01*
X190356928Y-208244289D01*
X190420511Y-208261326D01*
X189752406Y-208929429D01*
X189752406Y-208929430D01*
X189777601Y-208947735D01*
X189820267Y-209003065D01*
X189826246Y-209072678D01*
X189793641Y-209134474D01*
X189777602Y-209148372D01*
X189637557Y-209250120D01*
X189481677Y-209406000D01*
X189481673Y-209406005D01*
X189352108Y-209584338D01*
X189252025Y-209780757D01*
X189252024Y-209780760D01*
X189183906Y-209990411D01*
X189149421Y-210208142D01*
X189149421Y-210428585D01*
X189183906Y-210646316D01*
X189252024Y-210855967D01*
X189252025Y-210855970D01*
X189285241Y-210921158D01*
X189330933Y-211010833D01*
X189352108Y-211052389D01*
X189481673Y-211230722D01*
X189481677Y-211230727D01*
X189637557Y-211386607D01*
X189637562Y-211386611D01*
X189777175Y-211488046D01*
X189819841Y-211543376D01*
X189825820Y-211612989D01*
X189793214Y-211674784D01*
X189777175Y-211688682D01*
X189637562Y-211790116D01*
X189637557Y-211790120D01*
X189481677Y-211946000D01*
X189481673Y-211946005D01*
X189352108Y-212124338D01*
X189252025Y-212320757D01*
X189252024Y-212320760D01*
X189183906Y-212530411D01*
X189183906Y-212530413D01*
X189149421Y-212748142D01*
X189149421Y-212968586D01*
X189166663Y-213077450D01*
X189183906Y-213186316D01*
X189252024Y-213395967D01*
X189252025Y-213395970D01*
X189352108Y-213592389D01*
X189481673Y-213770722D01*
X189481677Y-213770727D01*
X189637557Y-213926607D01*
X189637562Y-213926611D01*
X189818467Y-214058046D01*
X189861133Y-214113376D01*
X189867112Y-214182989D01*
X189834507Y-214244784D01*
X189818467Y-214258682D01*
X189637562Y-214390116D01*
X189637557Y-214390120D01*
X189481677Y-214546000D01*
X189481673Y-214546005D01*
X189352108Y-214724338D01*
X189252025Y-214920757D01*
X189252024Y-214920760D01*
X189183906Y-215130411D01*
X189149421Y-215348142D01*
X189149421Y-215568585D01*
X189183906Y-215786316D01*
X189252024Y-215995967D01*
X189252025Y-215995970D01*
X189320043Y-216129460D01*
X189339722Y-216168082D01*
X189352108Y-216192389D01*
X189481673Y-216370722D01*
X189481677Y-216370727D01*
X189606895Y-216495945D01*
X189640380Y-216557268D01*
X189635396Y-216626960D01*
X189593524Y-216682893D01*
X189560169Y-216700667D01*
X189495698Y-216723226D01*
X189495684Y-216723232D01*
X189217358Y-216857267D01*
X188955779Y-217021628D01*
X188714247Y-217214243D01*
X188495800Y-217432690D01*
X188303185Y-217674222D01*
X188138824Y-217935801D01*
X188004789Y-218214127D01*
X188004783Y-218214141D01*
X187902756Y-218505716D01*
X187902752Y-218505728D01*
X187834010Y-218806908D01*
X187834007Y-218806926D01*
X187799421Y-219113892D01*
X187799421Y-219422835D01*
X187834007Y-219729801D01*
X187834010Y-219729816D01*
X187902752Y-220030999D01*
X187902756Y-220031011D01*
X188004783Y-220322586D01*
X188004789Y-220322600D01*
X188138824Y-220600926D01*
X188138826Y-220600929D01*
X188303186Y-220862507D01*
X188365653Y-220940838D01*
X188495800Y-221104037D01*
X188714247Y-221322484D01*
X188784555Y-221378553D01*
X188824695Y-221435741D01*
X188827545Y-221505553D01*
X188792199Y-221565823D01*
X188729881Y-221597416D01*
X188707242Y-221599500D01*
X178512600Y-221599500D01*
X178445561Y-221579815D01*
X178399806Y-221527011D01*
X178389862Y-221457853D01*
X178418887Y-221394297D01*
X178435287Y-221378553D01*
X178460426Y-221358505D01*
X178505595Y-221322484D01*
X178724041Y-221104038D01*
X178916656Y-220862507D01*
X179081016Y-220600929D01*
X179215056Y-220322593D01*
X179317089Y-220031000D01*
X179385832Y-219729816D01*
X179385834Y-219729801D01*
X179406958Y-219542315D01*
X179420421Y-219422829D01*
X179420421Y-219113899D01*
X179392795Y-218868712D01*
X179385834Y-218806926D01*
X179385831Y-218806908D01*
X179355100Y-218672268D01*
X179317089Y-218505728D01*
X179307216Y-218477514D01*
X179233039Y-218265527D01*
X179215056Y-218214135D01*
X179081016Y-217935799D01*
X178916656Y-217674221D01*
X178724041Y-217432690D01*
X178505595Y-217214244D01*
X178471764Y-217187265D01*
X178405098Y-217134100D01*
X178264064Y-217021629D01*
X178083406Y-216908114D01*
X178002483Y-216857267D01*
X177724157Y-216723232D01*
X177724143Y-216723226D01*
X177432568Y-216621199D01*
X177432556Y-216621195D01*
X177131376Y-216552453D01*
X177131358Y-216552450D01*
X176824392Y-216517864D01*
X176824386Y-216517864D01*
X176515456Y-216517864D01*
X176515449Y-216517864D01*
X176208483Y-216552450D01*
X176208465Y-216552453D01*
X175907285Y-216621195D01*
X175907273Y-216621199D01*
X175615698Y-216723226D01*
X175615684Y-216723232D01*
X175337358Y-216857267D01*
X175075779Y-217021628D01*
X174834247Y-217214243D01*
X174615800Y-217432690D01*
X174423185Y-217674222D01*
X174258824Y-217935801D01*
X174124789Y-218214127D01*
X174124783Y-218214141D01*
X174022756Y-218505716D01*
X174022752Y-218505728D01*
X173954010Y-218806908D01*
X173954007Y-218806926D01*
X173919421Y-219113892D01*
X173919421Y-219422835D01*
X173954007Y-219729801D01*
X173954010Y-219729816D01*
X174022752Y-220030999D01*
X174022756Y-220031011D01*
X174124783Y-220322586D01*
X174124789Y-220322600D01*
X174258824Y-220600926D01*
X174258826Y-220600929D01*
X174423186Y-220862507D01*
X174485653Y-220940838D01*
X174615800Y-221104037D01*
X174834247Y-221322484D01*
X174904555Y-221378553D01*
X174944695Y-221435741D01*
X174947545Y-221505553D01*
X174912199Y-221565823D01*
X174849881Y-221597416D01*
X174827242Y-221599500D01*
X169944154Y-221599500D01*
X169877115Y-221579815D01*
X169831360Y-221527011D01*
X169821416Y-221457853D01*
X169850441Y-221394297D01*
X169909219Y-221356523D01*
X169930270Y-221352280D01*
X169939169Y-221351276D01*
X169947732Y-221350312D01*
X170210591Y-221290316D01*
X170465079Y-221201267D01*
X170707997Y-221084284D01*
X170936289Y-220940838D01*
X171147085Y-220772734D01*
X171337734Y-220582085D01*
X171505838Y-220371289D01*
X171649284Y-220142997D01*
X171766267Y-219900079D01*
X171855316Y-219645591D01*
X171915312Y-219382732D01*
X171945500Y-219114809D01*
X171945500Y-218845191D01*
X171915312Y-218577268D01*
X171855316Y-218314409D01*
X171838555Y-218266510D01*
X171803616Y-218166658D01*
X171766267Y-218059921D01*
X171665269Y-217850196D01*
X171649285Y-217817005D01*
X171632699Y-217790609D01*
X171505838Y-217588711D01*
X171337734Y-217377915D01*
X171147085Y-217187266D01*
X171139744Y-217181412D01*
X171075916Y-217130511D01*
X170936289Y-217019162D01*
X170741751Y-216896925D01*
X170707994Y-216875714D01*
X170465082Y-216758734D01*
X170210602Y-216669687D01*
X170210594Y-216669684D01*
X169998165Y-216621199D01*
X169947732Y-216609688D01*
X169947728Y-216609687D01*
X169947719Y-216609686D01*
X169679813Y-216579500D01*
X169679809Y-216579500D01*
X169410191Y-216579500D01*
X169410186Y-216579500D01*
X169142280Y-216609686D01*
X169142268Y-216609688D01*
X168879405Y-216669684D01*
X168879397Y-216669687D01*
X168624917Y-216758734D01*
X168382005Y-216875714D01*
X168153712Y-217019161D01*
X167942915Y-217187265D01*
X167752265Y-217377915D01*
X167584161Y-217588712D01*
X167440714Y-217817005D01*
X167323734Y-218059917D01*
X167234687Y-218314397D01*
X167234684Y-218314405D01*
X167174688Y-218577268D01*
X167174686Y-218577280D01*
X167144500Y-218845186D01*
X167144500Y-219114813D01*
X167174686Y-219382719D01*
X167174687Y-219382728D01*
X167174688Y-219382732D01*
X167183840Y-219422829D01*
X167234684Y-219645594D01*
X167234687Y-219645602D01*
X167323734Y-219900082D01*
X167440714Y-220142994D01*
X167440716Y-220142997D01*
X167584162Y-220371289D01*
X167752266Y-220582085D01*
X167942915Y-220772734D01*
X168153711Y-220940838D01*
X168382003Y-221084284D01*
X168624921Y-221201267D01*
X168816049Y-221268145D01*
X168879397Y-221290312D01*
X168879405Y-221290315D01*
X168879408Y-221290315D01*
X168879409Y-221290316D01*
X169142268Y-221350312D01*
X169149630Y-221351141D01*
X169159730Y-221352280D01*
X169224144Y-221379346D01*
X169263699Y-221436941D01*
X169265836Y-221506778D01*
X169229878Y-221566685D01*
X169167240Y-221597640D01*
X169145846Y-221599500D01*
X166994500Y-221599500D01*
X166927461Y-221579815D01*
X166881706Y-221527011D01*
X166870500Y-221475500D01*
X166870500Y-201333892D01*
X174009421Y-201333892D01*
X174009421Y-201642835D01*
X174044007Y-201949801D01*
X174044010Y-201949816D01*
X174112752Y-202250999D01*
X174112756Y-202251011D01*
X174214783Y-202542586D01*
X174214789Y-202542600D01*
X174348824Y-202820926D01*
X174348826Y-202820929D01*
X174513186Y-203082507D01*
X174705801Y-203324038D01*
X174924247Y-203542484D01*
X175165778Y-203735099D01*
X175427356Y-203899459D01*
X175705692Y-204033499D01*
X175802889Y-204067510D01*
X175997273Y-204135528D01*
X175997285Y-204135532D01*
X176298469Y-204204275D01*
X176298475Y-204204275D01*
X176298483Y-204204277D01*
X176503127Y-204227334D01*
X176605450Y-204238863D01*
X176605453Y-204238864D01*
X176605456Y-204238864D01*
X176914389Y-204238864D01*
X176914390Y-204238863D01*
X177071277Y-204221186D01*
X177221358Y-204204277D01*
X177221363Y-204204276D01*
X177221373Y-204204275D01*
X177522557Y-204135532D01*
X177814150Y-204033499D01*
X178092486Y-203899459D01*
X178354064Y-203735099D01*
X178595595Y-203542484D01*
X178814041Y-203324038D01*
X179006656Y-203082507D01*
X179171016Y-202820929D01*
X179305056Y-202542593D01*
X179407089Y-202251000D01*
X179475832Y-201949816D01*
X179477263Y-201937120D01*
X179502987Y-201708806D01*
X179510421Y-201642829D01*
X179510421Y-201333899D01*
X179493700Y-201185499D01*
X179475834Y-201026926D01*
X179475831Y-201026908D01*
X179407089Y-200725728D01*
X179407085Y-200725716D01*
X179315208Y-200463149D01*
X179305056Y-200434135D01*
X179171016Y-200155799D01*
X179006656Y-199894221D01*
X178814041Y-199652690D01*
X178595595Y-199434244D01*
X178584630Y-199425500D01*
X178428441Y-199300943D01*
X178354064Y-199241629D01*
X178092486Y-199077269D01*
X178092483Y-199077267D01*
X177814157Y-198943232D01*
X177814143Y-198943226D01*
X177522568Y-198841199D01*
X177522556Y-198841195D01*
X177221376Y-198772453D01*
X177221358Y-198772450D01*
X176914392Y-198737864D01*
X176914386Y-198737864D01*
X176605456Y-198737864D01*
X176605449Y-198737864D01*
X176298483Y-198772450D01*
X176298465Y-198772453D01*
X175997285Y-198841195D01*
X175997273Y-198841199D01*
X175705698Y-198943226D01*
X175705684Y-198943232D01*
X175427358Y-199077267D01*
X175165779Y-199241628D01*
X174924247Y-199434243D01*
X174705800Y-199652690D01*
X174513185Y-199894222D01*
X174348824Y-200155801D01*
X174214789Y-200434127D01*
X174214783Y-200434141D01*
X174112756Y-200725716D01*
X174112752Y-200725728D01*
X174044010Y-201026908D01*
X174044007Y-201026926D01*
X174009421Y-201333892D01*
X166870500Y-201333892D01*
X166870500Y-195462486D01*
X190775001Y-195462486D01*
X190785494Y-195565197D01*
X190840641Y-195731619D01*
X190840643Y-195731624D01*
X190932684Y-195880845D01*
X191056654Y-196004815D01*
X191205875Y-196096856D01*
X191205880Y-196096858D01*
X191372302Y-196152005D01*
X191372309Y-196152006D01*
X191475019Y-196162499D01*
X191749999Y-196162499D01*
X192250000Y-196162499D01*
X192524972Y-196162499D01*
X192524986Y-196162498D01*
X192627697Y-196152005D01*
X192794119Y-196096858D01*
X192794124Y-196096856D01*
X192943345Y-196004815D01*
X193067315Y-195880845D01*
X193159356Y-195731624D01*
X193159358Y-195731619D01*
X193214505Y-195565197D01*
X193214506Y-195565190D01*
X193224999Y-195462486D01*
X193225000Y-195462473D01*
X193225000Y-195325000D01*
X192250000Y-195325000D01*
X192250000Y-196162499D01*
X191749999Y-196162499D01*
X191750000Y-196162498D01*
X191750000Y-195325000D01*
X190775001Y-195325000D01*
X190775001Y-195462486D01*
X166870500Y-195462486D01*
X166870500Y-188921153D01*
X182199500Y-188921153D01*
X182199500Y-189078846D01*
X182230261Y-189233489D01*
X182230264Y-189233501D01*
X182290602Y-189379172D01*
X182290609Y-189379185D01*
X182378210Y-189510288D01*
X182378213Y-189510292D01*
X182489707Y-189621786D01*
X182489711Y-189621789D01*
X182620814Y-189709390D01*
X182620827Y-189709397D01*
X182766498Y-189769735D01*
X182766503Y-189769737D01*
X182908414Y-189797965D01*
X182921153Y-189800499D01*
X182921156Y-189800500D01*
X182921158Y-189800500D01*
X183078844Y-189800500D01*
X183078845Y-189800499D01*
X183233497Y-189769737D01*
X183379179Y-189709394D01*
X183510289Y-189621789D01*
X183621789Y-189510289D01*
X183709394Y-189379179D01*
X183769737Y-189233497D01*
X183800500Y-189078842D01*
X183800500Y-188921158D01*
X183800500Y-188921155D01*
X183800499Y-188921153D01*
X183769738Y-188766510D01*
X183769737Y-188766503D01*
X183747094Y-188711837D01*
X183709397Y-188620827D01*
X183709390Y-188620814D01*
X183621789Y-188489711D01*
X183621786Y-188489707D01*
X183510292Y-188378213D01*
X183510288Y-188378210D01*
X183379185Y-188290609D01*
X183379172Y-188290602D01*
X183233501Y-188230264D01*
X183233489Y-188230261D01*
X183078845Y-188199500D01*
X183078842Y-188199500D01*
X182921158Y-188199500D01*
X182921155Y-188199500D01*
X182766510Y-188230261D01*
X182766498Y-188230264D01*
X182620827Y-188290602D01*
X182620814Y-188290609D01*
X182489711Y-188378210D01*
X182489707Y-188378213D01*
X182378213Y-188489707D01*
X182378210Y-188489711D01*
X182290609Y-188620814D01*
X182290602Y-188620827D01*
X182230264Y-188766498D01*
X182230261Y-188766510D01*
X182199500Y-188921153D01*
X166870500Y-188921153D01*
X166870500Y-179618163D01*
X182147260Y-179618163D01*
X182147260Y-179775856D01*
X182178021Y-179930499D01*
X182178024Y-179930511D01*
X182238362Y-180076182D01*
X182238369Y-180076195D01*
X182325970Y-180207298D01*
X182325973Y-180207302D01*
X182437467Y-180318796D01*
X182437471Y-180318799D01*
X182568574Y-180406400D01*
X182568587Y-180406407D01*
X182714258Y-180466745D01*
X182714263Y-180466747D01*
X182868913Y-180497509D01*
X182868916Y-180497510D01*
X182868918Y-180497510D01*
X183026604Y-180497510D01*
X183026605Y-180497509D01*
X183181257Y-180466747D01*
X183326939Y-180406404D01*
X183458049Y-180318799D01*
X183569549Y-180207299D01*
X183657154Y-180076189D01*
X183717497Y-179930507D01*
X183744212Y-179796202D01*
X183748398Y-179775160D01*
X183780783Y-179713249D01*
X183782282Y-179711722D01*
X184243578Y-179250425D01*
X184243583Y-179250422D01*
X184253786Y-179240218D01*
X184253788Y-179240218D01*
X184365592Y-179128414D01*
X184444649Y-178991482D01*
X184485572Y-178838755D01*
X184485572Y-171807676D01*
X184505257Y-171740637D01*
X184506470Y-171738785D01*
X184594462Y-171607096D01*
X184594462Y-171607095D01*
X184594466Y-171607090D01*
X184654809Y-171461408D01*
X184685572Y-171306753D01*
X184685572Y-171149069D01*
X184685572Y-171149066D01*
X184685571Y-171149064D01*
X184669283Y-171067179D01*
X184654809Y-170994414D01*
X184649142Y-170980732D01*
X184594469Y-170848738D01*
X184594462Y-170848725D01*
X184506861Y-170717622D01*
X184506858Y-170717618D01*
X184395364Y-170606124D01*
X184395360Y-170606121D01*
X184264257Y-170518520D01*
X184264244Y-170518513D01*
X184118573Y-170458175D01*
X184118561Y-170458172D01*
X183963917Y-170427411D01*
X183963914Y-170427411D01*
X183806230Y-170427411D01*
X183806227Y-170427411D01*
X183651582Y-170458172D01*
X183651570Y-170458175D01*
X183505899Y-170518513D01*
X183505886Y-170518520D01*
X183374783Y-170606121D01*
X183374779Y-170606124D01*
X183263285Y-170717618D01*
X183263282Y-170717622D01*
X183175681Y-170848725D01*
X183175674Y-170848738D01*
X183115336Y-170994409D01*
X183115333Y-170994421D01*
X183084572Y-171149064D01*
X183084572Y-171306757D01*
X183115333Y-171461400D01*
X183115336Y-171461412D01*
X183175674Y-171607083D01*
X183175681Y-171607096D01*
X183263674Y-171738785D01*
X183284552Y-171805462D01*
X183284572Y-171807676D01*
X183284572Y-178459601D01*
X183264887Y-178526640D01*
X183248253Y-178547282D01*
X182933099Y-178862435D01*
X182871776Y-178895920D01*
X182869610Y-178896371D01*
X182714268Y-178927271D01*
X182714258Y-178927274D01*
X182568587Y-178987612D01*
X182568574Y-178987619D01*
X182437471Y-179075220D01*
X182437467Y-179075223D01*
X182325973Y-179186717D01*
X182325970Y-179186721D01*
X182238369Y-179317824D01*
X182238362Y-179317837D01*
X182178024Y-179463508D01*
X182178021Y-179463520D01*
X182147260Y-179618163D01*
X166870500Y-179618163D01*
X166870500Y-160921153D01*
X187199500Y-160921153D01*
X187199500Y-161078846D01*
X187230261Y-161233489D01*
X187230264Y-161233501D01*
X187290602Y-161379172D01*
X187290609Y-161379185D01*
X187378602Y-161510874D01*
X187399480Y-161577551D01*
X187399500Y-161579765D01*
X187399500Y-169154053D01*
X187379815Y-169221092D01*
X187378602Y-169222944D01*
X187290609Y-169354633D01*
X187290602Y-169354646D01*
X187230264Y-169500317D01*
X187230261Y-169500329D01*
X187199500Y-169654972D01*
X187199500Y-169812665D01*
X187230261Y-169967308D01*
X187230264Y-169967320D01*
X187290602Y-170112991D01*
X187290609Y-170113004D01*
X187378210Y-170244107D01*
X187378213Y-170244111D01*
X187489707Y-170355605D01*
X187489711Y-170355608D01*
X187620814Y-170443209D01*
X187620827Y-170443216D01*
X187766498Y-170503554D01*
X187766503Y-170503556D01*
X187921153Y-170534318D01*
X187921156Y-170534319D01*
X187921158Y-170534319D01*
X188078844Y-170534319D01*
X188078845Y-170534318D01*
X188233497Y-170503556D01*
X188379179Y-170443213D01*
X188510289Y-170355608D01*
X188621789Y-170244108D01*
X188709394Y-170112998D01*
X188769737Y-169967316D01*
X188800500Y-169812661D01*
X188800500Y-169654977D01*
X188800500Y-169654974D01*
X188800499Y-169654972D01*
X188769738Y-169500329D01*
X188769737Y-169500322D01*
X188769735Y-169500317D01*
X188709397Y-169354646D01*
X188709390Y-169354633D01*
X188621398Y-169222944D01*
X188600520Y-169156266D01*
X188600500Y-169154053D01*
X188600500Y-161579765D01*
X188620185Y-161512726D01*
X188621398Y-161510874D01*
X188709390Y-161379185D01*
X188709390Y-161379184D01*
X188709394Y-161379179D01*
X188769737Y-161233497D01*
X188800500Y-161078842D01*
X188800500Y-160921158D01*
X188800500Y-160921155D01*
X188800499Y-160921153D01*
X188769738Y-160766510D01*
X188769737Y-160766503D01*
X188709394Y-160620821D01*
X188709393Y-160620819D01*
X188709390Y-160620814D01*
X188621789Y-160489711D01*
X188621786Y-160489707D01*
X188510292Y-160378213D01*
X188510288Y-160378210D01*
X188379185Y-160290609D01*
X188379172Y-160290602D01*
X188233501Y-160230264D01*
X188233489Y-160230261D01*
X188078845Y-160199500D01*
X188078842Y-160199500D01*
X187921158Y-160199500D01*
X187921155Y-160199500D01*
X187766510Y-160230261D01*
X187766498Y-160230264D01*
X187620827Y-160290602D01*
X187620814Y-160290609D01*
X187489711Y-160378210D01*
X187489707Y-160378213D01*
X187378213Y-160489707D01*
X187378210Y-160489711D01*
X187290609Y-160620814D01*
X187290605Y-160620823D01*
X187230264Y-160766498D01*
X187230261Y-160766510D01*
X187199500Y-160921153D01*
X166870500Y-160921153D01*
X166870500Y-151115186D01*
X168599500Y-151115186D01*
X168599500Y-151384813D01*
X168629686Y-151652719D01*
X168629688Y-151652731D01*
X168689684Y-151915594D01*
X168689687Y-151915602D01*
X168778734Y-152170082D01*
X168895714Y-152412994D01*
X168895716Y-152412997D01*
X169039162Y-152641289D01*
X169207266Y-152852085D01*
X169397915Y-153042734D01*
X169608711Y-153210838D01*
X169837003Y-153354284D01*
X170079921Y-153471267D01*
X170271049Y-153538145D01*
X170334397Y-153560312D01*
X170334405Y-153560315D01*
X170334408Y-153560315D01*
X170334409Y-153560316D01*
X170597268Y-153620312D01*
X170865187Y-153650499D01*
X170865188Y-153650500D01*
X170865191Y-153650500D01*
X171134812Y-153650500D01*
X171134812Y-153650499D01*
X171402732Y-153620312D01*
X171665591Y-153560316D01*
X171920079Y-153471267D01*
X172162997Y-153354284D01*
X172391289Y-153210838D01*
X172602085Y-153042734D01*
X172792734Y-152852085D01*
X172960838Y-152641289D01*
X173104284Y-152412997D01*
X173221267Y-152170079D01*
X173310316Y-151915591D01*
X173370312Y-151652732D01*
X173400500Y-151384809D01*
X173400500Y-151115191D01*
X173370312Y-150847268D01*
X173310316Y-150584409D01*
X173221267Y-150329921D01*
X173104284Y-150087003D01*
X172960838Y-149858711D01*
X172792734Y-149647915D01*
X172602085Y-149457266D01*
X172391289Y-149289162D01*
X172162997Y-149145716D01*
X172162994Y-149145714D01*
X171920082Y-149028734D01*
X171665602Y-148939687D01*
X171665594Y-148939684D01*
X171468446Y-148894687D01*
X171402732Y-148879688D01*
X171402728Y-148879687D01*
X171402719Y-148879686D01*
X171134813Y-148849500D01*
X171134809Y-148849500D01*
X170865191Y-148849500D01*
X170865186Y-148849500D01*
X170597280Y-148879686D01*
X170597268Y-148879688D01*
X170334405Y-148939684D01*
X170334397Y-148939687D01*
X170079917Y-149028734D01*
X169837005Y-149145714D01*
X169608712Y-149289161D01*
X169397915Y-149457265D01*
X169207265Y-149647915D01*
X169039161Y-149858712D01*
X168895714Y-150087005D01*
X168778734Y-150329917D01*
X168689687Y-150584397D01*
X168689684Y-150584405D01*
X168629688Y-150847268D01*
X168629686Y-150847280D01*
X168599500Y-151115186D01*
X166870500Y-151115186D01*
X166870500Y-84365186D01*
X168599500Y-84365186D01*
X168599500Y-84634813D01*
X168629686Y-84902719D01*
X168629688Y-84902731D01*
X168689684Y-85165594D01*
X168689687Y-85165602D01*
X168778734Y-85420082D01*
X168895714Y-85662994D01*
X168895716Y-85662997D01*
X169039162Y-85891289D01*
X169207266Y-86102085D01*
X169397915Y-86292734D01*
X169608711Y-86460838D01*
X169837003Y-86604284D01*
X170079921Y-86721267D01*
X170271049Y-86788145D01*
X170334397Y-86810312D01*
X170334405Y-86810315D01*
X170334408Y-86810315D01*
X170334409Y-86810316D01*
X170597268Y-86870312D01*
X170865187Y-86900499D01*
X170865188Y-86900500D01*
X170865191Y-86900500D01*
X171134812Y-86900500D01*
X171134812Y-86900499D01*
X171402732Y-86870312D01*
X171665591Y-86810316D01*
X171920079Y-86721267D01*
X172162997Y-86604284D01*
X172391289Y-86460838D01*
X172602085Y-86292734D01*
X172792734Y-86102085D01*
X172960838Y-85891289D01*
X173104284Y-85662997D01*
X173221267Y-85420079D01*
X173310316Y-85165591D01*
X173370312Y-84902732D01*
X173400500Y-84634809D01*
X173400500Y-84365191D01*
X173400499Y-84365186D01*
X242099500Y-84365186D01*
X242099500Y-84634813D01*
X242129686Y-84902719D01*
X242129688Y-84902731D01*
X242189684Y-85165594D01*
X242189687Y-85165602D01*
X242278734Y-85420082D01*
X242395714Y-85662994D01*
X242395716Y-85662997D01*
X242539162Y-85891289D01*
X242707266Y-86102085D01*
X242897915Y-86292734D01*
X243108711Y-86460838D01*
X243337003Y-86604284D01*
X243579921Y-86721267D01*
X243771049Y-86788145D01*
X243834397Y-86810312D01*
X243834405Y-86810315D01*
X243834408Y-86810315D01*
X243834409Y-86810316D01*
X244097268Y-86870312D01*
X244365187Y-86900499D01*
X244365188Y-86900500D01*
X244365191Y-86900500D01*
X244634812Y-86900500D01*
X244634812Y-86900499D01*
X244902732Y-86870312D01*
X245165591Y-86810316D01*
X245420079Y-86721267D01*
X245662997Y-86604284D01*
X245891289Y-86460838D01*
X246102085Y-86292734D01*
X246292734Y-86102085D01*
X246460838Y-85891289D01*
X246604284Y-85662997D01*
X246721267Y-85420079D01*
X246810316Y-85165591D01*
X246870312Y-84902732D01*
X246900500Y-84634809D01*
X246900500Y-84365191D01*
X246870312Y-84097268D01*
X246810316Y-83834409D01*
X246721267Y-83579921D01*
X246604284Y-83337003D01*
X246460838Y-83108711D01*
X246292734Y-82897915D01*
X246102085Y-82707266D01*
X245891289Y-82539162D01*
X245662997Y-82395716D01*
X245662994Y-82395714D01*
X245420082Y-82278734D01*
X245165602Y-82189687D01*
X245165594Y-82189684D01*
X244968446Y-82144687D01*
X244902732Y-82129688D01*
X244902728Y-82129687D01*
X244902719Y-82129686D01*
X244634813Y-82099500D01*
X244634809Y-82099500D01*
X244365191Y-82099500D01*
X244365186Y-82099500D01*
X244097280Y-82129686D01*
X244097268Y-82129688D01*
X243834405Y-82189684D01*
X243834397Y-82189687D01*
X243579917Y-82278734D01*
X243337005Y-82395714D01*
X243108712Y-82539161D01*
X242897915Y-82707265D01*
X242707265Y-82897915D01*
X242539161Y-83108712D01*
X242395714Y-83337005D01*
X242278734Y-83579917D01*
X242189687Y-83834397D01*
X242189684Y-83834405D01*
X242129688Y-84097268D01*
X242129686Y-84097280D01*
X242099500Y-84365186D01*
X173400499Y-84365186D01*
X173370312Y-84097268D01*
X173310316Y-83834409D01*
X173221267Y-83579921D01*
X173104284Y-83337003D01*
X172960838Y-83108711D01*
X172792734Y-82897915D01*
X172602085Y-82707266D01*
X172391289Y-82539162D01*
X172162997Y-82395716D01*
X172162994Y-82395714D01*
X171920082Y-82278734D01*
X171665602Y-82189687D01*
X171665594Y-82189684D01*
X171468446Y-82144687D01*
X171402732Y-82129688D01*
X171402728Y-82129687D01*
X171402719Y-82129686D01*
X171134813Y-82099500D01*
X171134809Y-82099500D01*
X170865191Y-82099500D01*
X170865186Y-82099500D01*
X170597280Y-82129686D01*
X170597268Y-82129688D01*
X170334405Y-82189684D01*
X170334397Y-82189687D01*
X170079917Y-82278734D01*
X169837005Y-82395714D01*
X169608712Y-82539161D01*
X169397915Y-82707265D01*
X169207265Y-82897915D01*
X169039161Y-83108712D01*
X168895714Y-83337005D01*
X168778734Y-83579917D01*
X168689687Y-83834397D01*
X168689684Y-83834405D01*
X168629688Y-84097268D01*
X168629686Y-84097280D01*
X168599500Y-84365186D01*
X166870500Y-84365186D01*
X166870500Y-80524500D01*
X166890185Y-80457461D01*
X166942989Y-80411706D01*
X166994500Y-80400500D01*
X248475500Y-80400500D01*
X248542539Y-80420185D01*
G37*
%TD.AperFunction*%
%TA.AperFunction,Conductor*%
G36*
X201705703Y-214623704D02*
G01*
X201739061Y-214669965D01*
X201790602Y-214794399D01*
X201790609Y-214794412D01*
X201878602Y-214926101D01*
X201899480Y-214992778D01*
X201899500Y-214994992D01*
X201899500Y-218413330D01*
X201899499Y-218413348D01*
X201899499Y-218579054D01*
X201899498Y-218579054D01*
X201899499Y-218579057D01*
X201924478Y-218672280D01*
X201940424Y-218731787D01*
X201950771Y-218749708D01*
X201950772Y-218749710D01*
X202019477Y-218868712D01*
X202019481Y-218868717D01*
X202138349Y-218987585D01*
X202138355Y-218987590D01*
X204519478Y-221368713D01*
X204519480Y-221368716D01*
X204536080Y-221385316D01*
X204538586Y-221387822D01*
X204557911Y-221423217D01*
X204572067Y-221449142D01*
X204572066Y-221449144D01*
X204572068Y-221449147D01*
X204570434Y-221471977D01*
X204567083Y-221518834D01*
X204567081Y-221518836D01*
X204567081Y-221518839D01*
X204551438Y-221539733D01*
X204525211Y-221574767D01*
X204525208Y-221574767D01*
X204525207Y-221574770D01*
X204499572Y-221584330D01*
X204459747Y-221599184D01*
X204450901Y-221599500D01*
X192392600Y-221599500D01*
X192325561Y-221579815D01*
X192279806Y-221527011D01*
X192269862Y-221457853D01*
X192298887Y-221394297D01*
X192315287Y-221378553D01*
X192340426Y-221358505D01*
X192385595Y-221322484D01*
X192604041Y-221104038D01*
X192796656Y-220862507D01*
X192961016Y-220600929D01*
X193095056Y-220322593D01*
X193197089Y-220031000D01*
X193265832Y-219729816D01*
X193265834Y-219729801D01*
X193286958Y-219542315D01*
X193300421Y-219422829D01*
X193300421Y-219113899D01*
X193272795Y-218868712D01*
X193265834Y-218806926D01*
X193265831Y-218806908D01*
X193235100Y-218672268D01*
X193197089Y-218505728D01*
X193187216Y-218477514D01*
X193113039Y-218265527D01*
X193095056Y-218214135D01*
X192961016Y-217935799D01*
X192796656Y-217674221D01*
X192604041Y-217432690D01*
X192385595Y-217214244D01*
X192351764Y-217187265D01*
X192285098Y-217134100D01*
X192144064Y-217021629D01*
X191963406Y-216908114D01*
X191882483Y-216857267D01*
X191604158Y-216723232D01*
X191604151Y-216723229D01*
X191604150Y-216723229D01*
X191539669Y-216700666D01*
X191482896Y-216659946D01*
X191457149Y-216594993D01*
X191470605Y-216526431D01*
X191492940Y-216495951D01*
X191618163Y-216370729D01*
X191668376Y-216301615D01*
X191723706Y-216258949D01*
X191768695Y-216250500D01*
X191926082Y-216250500D01*
X191926083Y-216250500D01*
X192073917Y-216250500D01*
X192926082Y-216250500D01*
X195955172Y-216250500D01*
X195989767Y-216255424D01*
X196134926Y-216297597D01*
X196134929Y-216297597D01*
X196134931Y-216297598D01*
X196171806Y-216300500D01*
X196171814Y-216300500D01*
X197328186Y-216300500D01*
X197328194Y-216300500D01*
X197365069Y-216297598D01*
X197365071Y-216297597D01*
X197365073Y-216297597D01*
X197406691Y-216285505D01*
X197522898Y-216251744D01*
X197664365Y-216168081D01*
X197780581Y-216051865D01*
X197780767Y-216051549D01*
X197780977Y-216051353D01*
X197785361Y-216045702D01*
X197786272Y-216046409D01*
X197831836Y-216003866D01*
X197900577Y-215991362D01*
X197965167Y-216018006D01*
X197989355Y-216045921D01*
X197989639Y-216045702D01*
X197993679Y-216050911D01*
X197994232Y-216051548D01*
X197994419Y-216051865D01*
X197994421Y-216051867D01*
X197994423Y-216051870D01*
X198110629Y-216168076D01*
X198110633Y-216168079D01*
X198110635Y-216168081D01*
X198252102Y-216251744D01*
X198264769Y-216255424D01*
X198409926Y-216297597D01*
X198409929Y-216297597D01*
X198409931Y-216297598D01*
X198446806Y-216300500D01*
X198446814Y-216300500D01*
X199603186Y-216300500D01*
X199603194Y-216300500D01*
X199640069Y-216297598D01*
X199640071Y-216297597D01*
X199640073Y-216297597D01*
X199785233Y-216255424D01*
X199819828Y-216250500D01*
X200073920Y-216250500D01*
X200171462Y-216231096D01*
X200218913Y-216221658D01*
X200355495Y-216165084D01*
X200440395Y-216108356D01*
X200478416Y-216082952D01*
X201332951Y-215228416D01*
X201415084Y-215105495D01*
X201471658Y-214968913D01*
X201492149Y-214865899D01*
X201500500Y-214823920D01*
X201500500Y-214717417D01*
X201520185Y-214650378D01*
X201572989Y-214604623D01*
X201642147Y-214594679D01*
X201705703Y-214623704D01*
G37*
%TD.AperFunction*%
%TA.AperFunction,Conductor*%
G36*
X210766942Y-209120185D02*
G01*
X210787584Y-209136819D01*
X211163181Y-209512416D01*
X211196666Y-209573739D01*
X211199500Y-209600097D01*
X211199500Y-214684763D01*
X211179815Y-214751802D01*
X211131796Y-214795247D01*
X211078402Y-214822453D01*
X210903072Y-214949838D01*
X210749838Y-215103072D01*
X210622455Y-215278399D01*
X210524068Y-215471494D01*
X210457102Y-215677594D01*
X210457102Y-215677597D01*
X210423200Y-215891644D01*
X210423200Y-216108355D01*
X210457102Y-216322402D01*
X210457102Y-216322405D01*
X210524068Y-216528505D01*
X210619580Y-216715958D01*
X210622455Y-216721600D01*
X210749836Y-216896925D01*
X210903075Y-217050164D01*
X211078400Y-217177545D01*
X211211758Y-217245494D01*
X211271494Y-217275931D01*
X211477595Y-217342897D01*
X211477596Y-217342897D01*
X211477599Y-217342898D01*
X211691644Y-217376800D01*
X211691645Y-217376800D01*
X211908355Y-217376800D01*
X211908356Y-217376800D01*
X212122401Y-217342898D01*
X212122404Y-217342897D01*
X212122405Y-217342897D01*
X212328505Y-217275931D01*
X212328505Y-217275930D01*
X212328508Y-217275930D01*
X212521600Y-217177545D01*
X212696925Y-217050164D01*
X212850164Y-216896925D01*
X212939500Y-216773965D01*
X212969682Y-216732423D01*
X213025012Y-216689757D01*
X213094625Y-216683778D01*
X213156420Y-216716384D01*
X213170318Y-216732423D01*
X213289833Y-216896921D01*
X213289838Y-216896927D01*
X213443078Y-217050167D01*
X213502184Y-217093109D01*
X213538384Y-217119409D01*
X213541725Y-217123741D01*
X213546703Y-217126015D01*
X213562831Y-217151111D01*
X213581051Y-217174738D01*
X213582304Y-217181412D01*
X213584477Y-217184793D01*
X213589500Y-217219728D01*
X213589500Y-217236468D01*
X213569815Y-217303507D01*
X213530597Y-217342006D01*
X213449082Y-217392285D01*
X213449078Y-217392288D01*
X213325024Y-217516342D01*
X213232922Y-217665663D01*
X213232920Y-217665668D01*
X213217832Y-217711202D01*
X213177736Y-217832203D01*
X213177736Y-217832204D01*
X213177735Y-217832204D01*
X213167235Y-217934983D01*
X213167235Y-218140916D01*
X213147550Y-218207955D01*
X213094746Y-218253710D01*
X213025588Y-218263654D01*
X212962032Y-218234629D01*
X212937696Y-218206013D01*
X212910271Y-218161549D01*
X212786215Y-218037493D01*
X212636893Y-217945391D01*
X212470356Y-217890206D01*
X212470354Y-217890205D01*
X212367569Y-217879705D01*
X211592557Y-217879705D01*
X211592539Y-217879706D01*
X211489762Y-217890205D01*
X211489759Y-217890206D01*
X211323227Y-217945390D01*
X211323222Y-217945392D01*
X211173901Y-218037494D01*
X211049847Y-218161548D01*
X211049842Y-218161554D01*
X211047800Y-218164866D01*
X211045806Y-218166658D01*
X211045366Y-218167216D01*
X211045270Y-218167140D01*
X210995850Y-218211588D01*
X210926887Y-218222807D01*
X210862806Y-218194960D01*
X210836727Y-218164861D01*
X210834878Y-218161864D01*
X210834875Y-218161860D01*
X210710904Y-218037889D01*
X210561683Y-217945848D01*
X210561678Y-217945846D01*
X210395256Y-217890699D01*
X210395249Y-217890698D01*
X210292545Y-217880205D01*
X210155059Y-217880205D01*
X210155059Y-218981205D01*
X210135374Y-219048244D01*
X210082570Y-219093999D01*
X210031059Y-219105205D01*
X209905059Y-219105205D01*
X209905059Y-219231205D01*
X209885374Y-219298244D01*
X209832570Y-219343999D01*
X209781059Y-219355205D01*
X208817560Y-219355205D01*
X208817560Y-219630191D01*
X208828053Y-219732902D01*
X208883200Y-219899324D01*
X208883202Y-219899329D01*
X208975243Y-220048550D01*
X209099214Y-220172521D01*
X209104882Y-220177003D01*
X209103250Y-220179065D01*
X209141786Y-220221903D01*
X209153011Y-220290865D01*
X209125171Y-220354949D01*
X209067105Y-220393808D01*
X209029967Y-220399500D01*
X205300097Y-220399500D01*
X205233058Y-220379815D01*
X205212416Y-220363181D01*
X203429453Y-218580218D01*
X208817559Y-218580218D01*
X208817559Y-218855205D01*
X209655059Y-218855205D01*
X209655059Y-217880205D01*
X209517586Y-217880205D01*
X209517571Y-217880206D01*
X209414861Y-217890699D01*
X209248439Y-217945846D01*
X209248434Y-217945848D01*
X209099213Y-218037889D01*
X208975243Y-218161859D01*
X208883202Y-218311080D01*
X208883200Y-218311085D01*
X208828053Y-218477507D01*
X208828052Y-218477514D01*
X208817559Y-218580218D01*
X203429453Y-218580218D01*
X203136819Y-218287584D01*
X203103334Y-218226261D01*
X203100500Y-218199903D01*
X203100500Y-214994992D01*
X203120185Y-214927953D01*
X203121398Y-214926101D01*
X203161625Y-214865898D01*
X203209394Y-214794406D01*
X203214230Y-214782732D01*
X203227041Y-214751802D01*
X203269737Y-214648724D01*
X203300500Y-214494069D01*
X203300500Y-214336385D01*
X203300500Y-214336382D01*
X203300499Y-214336380D01*
X203296697Y-214317268D01*
X203269737Y-214181730D01*
X203260938Y-214160488D01*
X203209397Y-214036054D01*
X203209390Y-214036041D01*
X203121789Y-213904938D01*
X203121786Y-213904934D01*
X203010292Y-213793440D01*
X203010288Y-213793437D01*
X202879185Y-213705836D01*
X202879172Y-213705829D01*
X202733501Y-213645491D01*
X202733489Y-213645488D01*
X202578845Y-213614727D01*
X202578842Y-213614727D01*
X202421158Y-213614727D01*
X202421155Y-213614727D01*
X202266510Y-213645488D01*
X202266498Y-213645491D01*
X202120827Y-213705829D01*
X202120814Y-213705836D01*
X201989711Y-213793437D01*
X201989707Y-213793440D01*
X201878213Y-213904934D01*
X201878210Y-213904938D01*
X201790609Y-214036041D01*
X201790602Y-214036054D01*
X201739061Y-214160488D01*
X201695220Y-214214892D01*
X201628926Y-214236957D01*
X201561227Y-214219678D01*
X201513616Y-214168541D01*
X201500500Y-214113036D01*
X201500500Y-213304604D01*
X201509939Y-213257151D01*
X201519737Y-213233497D01*
X201550500Y-213078842D01*
X201550500Y-212921158D01*
X201550500Y-212921155D01*
X201550499Y-212921153D01*
X201519737Y-212766503D01*
X201512132Y-212748142D01*
X201459397Y-212620827D01*
X201459390Y-212620814D01*
X201371789Y-212489711D01*
X201371786Y-212489707D01*
X201260292Y-212378213D01*
X201260288Y-212378210D01*
X201129185Y-212290609D01*
X201129172Y-212290602D01*
X200983501Y-212230264D01*
X200983489Y-212230261D01*
X200828845Y-212199500D01*
X200828842Y-212199500D01*
X200671158Y-212199500D01*
X200671155Y-212199500D01*
X200516510Y-212230261D01*
X200516498Y-212230264D01*
X200370827Y-212290602D01*
X200370814Y-212290609D01*
X200239711Y-212378210D01*
X200239707Y-212378213D01*
X200128213Y-212489707D01*
X200128210Y-212489711D01*
X200040609Y-212620814D01*
X200040602Y-212620827D01*
X199980264Y-212766498D01*
X199978494Y-212772335D01*
X199976842Y-212771833D01*
X199948256Y-212826465D01*
X199887535Y-212861031D01*
X199817766Y-212857282D01*
X199805055Y-212851349D01*
X199805054Y-212851353D01*
X199797893Y-212848254D01*
X199640073Y-212802402D01*
X199640067Y-212802401D01*
X199603201Y-212799500D01*
X199603194Y-212799500D01*
X198446806Y-212799500D01*
X198446798Y-212799500D01*
X198409932Y-212802401D01*
X198409926Y-212802402D01*
X198252106Y-212848254D01*
X198252103Y-212848255D01*
X198110637Y-212931917D01*
X198110629Y-212931923D01*
X197994423Y-213048129D01*
X197994414Y-213048140D01*
X197994229Y-213048455D01*
X197994019Y-213048650D01*
X197989639Y-213054298D01*
X197988727Y-213053591D01*
X197943157Y-213096136D01*
X197874415Y-213108637D01*
X197809827Y-213081988D01*
X197785643Y-213054078D01*
X197785361Y-213054298D01*
X197781323Y-213049092D01*
X197780771Y-213048455D01*
X197780585Y-213048140D01*
X197780576Y-213048129D01*
X197664370Y-212931923D01*
X197664362Y-212931917D01*
X197586181Y-212885681D01*
X197522898Y-212848256D01*
X197522897Y-212848255D01*
X197522896Y-212848255D01*
X197522893Y-212848254D01*
X197365073Y-212802402D01*
X197365067Y-212802401D01*
X197328201Y-212799500D01*
X197328194Y-212799500D01*
X196171806Y-212799500D01*
X196171798Y-212799500D01*
X196134932Y-212802401D01*
X196134926Y-212802402D01*
X195989767Y-212844576D01*
X195955172Y-212849500D01*
X193826080Y-212849500D01*
X193681092Y-212878340D01*
X193681082Y-212878343D01*
X193544508Y-212934914D01*
X193544505Y-212934915D01*
X193544505Y-212934916D01*
X193511596Y-212956905D01*
X193511595Y-212956904D01*
X193421585Y-213017046D01*
X193421578Y-213017052D01*
X191836323Y-214602307D01*
X191775000Y-214635792D01*
X191705308Y-214630808D01*
X191649375Y-214588936D01*
X191648324Y-214587511D01*
X191618168Y-214546005D01*
X191618164Y-214546000D01*
X191462280Y-214390116D01*
X191281374Y-214258682D01*
X191238708Y-214203353D01*
X191232729Y-214133739D01*
X191265334Y-214071944D01*
X191281374Y-214058046D01*
X191462280Y-213926611D01*
X191462282Y-213926608D01*
X191462286Y-213926606D01*
X191618163Y-213770729D01*
X191747736Y-213592386D01*
X191847816Y-213395970D01*
X191915936Y-213186315D01*
X191950421Y-212968586D01*
X191950421Y-212748142D01*
X191930256Y-212620827D01*
X191920189Y-212557263D01*
X191929144Y-212487969D01*
X191974140Y-212434517D01*
X192040892Y-212413878D01*
X192042662Y-212413865D01*
X197823961Y-212413865D01*
X197823977Y-212413866D01*
X197831573Y-212413866D01*
X197989684Y-212413866D01*
X197989687Y-212413866D01*
X198142415Y-212372942D01*
X198192534Y-212344004D01*
X198279346Y-212293885D01*
X198391150Y-212182081D01*
X198391150Y-212182079D01*
X198401358Y-212171872D01*
X198401359Y-212171869D01*
X200670780Y-209902449D01*
X200732101Y-209868966D01*
X200801793Y-209873950D01*
X200846140Y-209902451D01*
X200850945Y-209907256D01*
X200850949Y-209907259D01*
X200850951Y-209907261D01*
X200992418Y-209990924D01*
X201034040Y-210003016D01*
X201150242Y-210036777D01*
X201150245Y-210036777D01*
X201150247Y-210036778D01*
X201187122Y-210039680D01*
X201187130Y-210039680D01*
X201618502Y-210039680D01*
X201618510Y-210039680D01*
X201655385Y-210036778D01*
X201655387Y-210036777D01*
X201655389Y-210036777D01*
X201697007Y-210024685D01*
X201813214Y-209990924D01*
X201954681Y-209907261D01*
X201992976Y-209868966D01*
X202072811Y-209789132D01*
X202134134Y-209755647D01*
X202203826Y-209760631D01*
X202248173Y-209789132D01*
X202358473Y-209899432D01*
X202358478Y-209899436D01*
X202498750Y-209984232D01*
X202655253Y-210033000D01*
X202723260Y-210039179D01*
X202852815Y-210039179D01*
X203352816Y-210039179D01*
X203482381Y-210039179D01*
X203550377Y-210033001D01*
X203550388Y-210032998D01*
X203706876Y-209984235D01*
X203706880Y-209984233D01*
X203847153Y-209899436D01*
X203847158Y-209899432D01*
X203963068Y-209783522D01*
X203963072Y-209783517D01*
X204047868Y-209643245D01*
X204096637Y-209486738D01*
X204100958Y-209439180D01*
X203352816Y-209439180D01*
X203352816Y-210039179D01*
X202852815Y-210039179D01*
X202852816Y-210039178D01*
X202852816Y-209313180D01*
X202872501Y-209246141D01*
X202925305Y-209200386D01*
X202976816Y-209189180D01*
X203102816Y-209189180D01*
X203117498Y-209174497D01*
X203122501Y-209157461D01*
X203175305Y-209111706D01*
X203226816Y-209100500D01*
X210699903Y-209100500D01*
X210766942Y-209120185D01*
G37*
%TD.AperFunction*%
%TA.AperFunction,Conductor*%
G36*
X218014099Y-216780546D02*
G01*
X218014099Y-216780545D01*
X218049373Y-216731997D01*
X218104703Y-216689332D01*
X218174317Y-216683353D01*
X218236112Y-216715959D01*
X218250008Y-216731995D01*
X218369836Y-216896925D01*
X218523075Y-217050164D01*
X218698400Y-217177545D01*
X218831758Y-217245494D01*
X218891494Y-217275931D01*
X219097595Y-217342897D01*
X219097596Y-217342897D01*
X219097599Y-217342898D01*
X219311644Y-217376800D01*
X219311645Y-217376800D01*
X219528355Y-217376800D01*
X219528356Y-217376800D01*
X219742401Y-217342898D01*
X219742404Y-217342897D01*
X219742405Y-217342897D01*
X219948505Y-217275931D01*
X219948505Y-217275930D01*
X219948508Y-217275930D01*
X220141600Y-217177545D01*
X220316925Y-217050164D01*
X220470164Y-216896925D01*
X220559500Y-216773965D01*
X220589682Y-216732423D01*
X220645012Y-216689757D01*
X220714625Y-216683778D01*
X220776420Y-216716384D01*
X220790318Y-216732423D01*
X220878455Y-216853733D01*
X220909836Y-216896925D01*
X221063075Y-217050164D01*
X221238400Y-217177545D01*
X221371758Y-217245494D01*
X221431494Y-217275931D01*
X221637595Y-217342897D01*
X221637596Y-217342897D01*
X221637599Y-217342898D01*
X221851644Y-217376800D01*
X221851645Y-217376800D01*
X221999619Y-217376800D01*
X222066658Y-217396485D01*
X222112413Y-217449289D01*
X222122357Y-217518447D01*
X222093332Y-217582003D01*
X222038624Y-217618506D01*
X222000384Y-217631177D01*
X222000381Y-217631178D01*
X221851160Y-217723219D01*
X221727190Y-217847189D01*
X221635149Y-217996410D01*
X221635147Y-217996415D01*
X221580000Y-218162837D01*
X221579999Y-218162844D01*
X221569506Y-218265548D01*
X221569506Y-218540535D01*
X222407006Y-218540535D01*
X222407006Y-217565535D01*
X222380100Y-217565535D01*
X222313061Y-217545850D01*
X222267306Y-217493046D01*
X222257362Y-217423888D01*
X222286387Y-217360332D01*
X222341782Y-217323604D01*
X222488505Y-217275931D01*
X222488505Y-217275930D01*
X222488508Y-217275930D01*
X222681600Y-217177545D01*
X222856925Y-217050164D01*
X223010164Y-216896925D01*
X223099500Y-216773965D01*
X223129682Y-216732423D01*
X223185012Y-216689757D01*
X223254625Y-216683778D01*
X223316420Y-216716384D01*
X223330318Y-216732423D01*
X223418455Y-216853733D01*
X223449836Y-216896925D01*
X223603075Y-217050164D01*
X223778400Y-217177545D01*
X223971490Y-217275929D01*
X223971491Y-217275929D01*
X223971492Y-217275930D01*
X224045824Y-217300081D01*
X224066225Y-217314030D01*
X224088709Y-217324299D01*
X224094562Y-217333407D01*
X224103498Y-217339517D01*
X224113119Y-217362283D01*
X224126483Y-217383077D01*
X224128841Y-217399483D01*
X224130698Y-217403875D01*
X224131506Y-217418012D01*
X224131506Y-217526767D01*
X224111821Y-217593806D01*
X224072604Y-217632304D01*
X224018522Y-217665663D01*
X223925848Y-217722824D01*
X223801794Y-217846878D01*
X223801789Y-217846884D01*
X223799747Y-217850196D01*
X223797753Y-217851988D01*
X223797313Y-217852546D01*
X223797217Y-217852470D01*
X223747797Y-217896918D01*
X223678834Y-217908137D01*
X223614753Y-217880290D01*
X223588674Y-217850191D01*
X223586825Y-217847194D01*
X223586822Y-217847190D01*
X223462851Y-217723219D01*
X223313630Y-217631178D01*
X223313625Y-217631176D01*
X223147203Y-217576029D01*
X223147196Y-217576028D01*
X223044492Y-217565535D01*
X222907006Y-217565535D01*
X222907006Y-220015534D01*
X223044478Y-220015534D01*
X223044492Y-220015533D01*
X223147203Y-220005040D01*
X223313625Y-219949893D01*
X223313630Y-219949891D01*
X223462851Y-219857850D01*
X223586824Y-219733877D01*
X223588671Y-219730883D01*
X223590475Y-219729259D01*
X223591304Y-219728212D01*
X223591482Y-219728353D01*
X223640616Y-219684156D01*
X223709579Y-219672931D01*
X223773662Y-219700771D01*
X223799749Y-219730876D01*
X223801794Y-219734191D01*
X223925850Y-219858247D01*
X224075172Y-219950349D01*
X224241709Y-220005534D01*
X224344497Y-220016035D01*
X225115436Y-220016034D01*
X225144885Y-220024680D01*
X225174862Y-220031202D01*
X225179875Y-220034954D01*
X225182475Y-220035718D01*
X225203116Y-220052351D01*
X225338585Y-220187821D01*
X225372069Y-220249141D01*
X225367085Y-220318833D01*
X225325214Y-220374767D01*
X225259750Y-220399184D01*
X225250903Y-220399500D01*
X212856104Y-220399500D01*
X212789065Y-220379815D01*
X212743310Y-220327011D01*
X212733366Y-220257853D01*
X212762391Y-220194297D01*
X212781236Y-220178268D01*
X212780548Y-220177398D01*
X212786209Y-220172920D01*
X212786215Y-220172917D01*
X212910271Y-220048861D01*
X212993078Y-219914607D01*
X213045026Y-219867884D01*
X213098617Y-219855705D01*
X213683950Y-219855705D01*
X213808859Y-219830858D01*
X213828943Y-219826863D01*
X213965525Y-219770289D01*
X214026097Y-219729816D01*
X214061152Y-219706394D01*
X214127830Y-219685519D01*
X214130038Y-219685499D01*
X214642737Y-219685499D01*
X214642743Y-219685499D01*
X214745532Y-219674999D01*
X214912069Y-219619814D01*
X215061391Y-219527712D01*
X215185447Y-219403656D01*
X215187487Y-219400347D01*
X215189480Y-219398555D01*
X215189928Y-219397989D01*
X215190024Y-219398065D01*
X215239429Y-219353623D01*
X215308391Y-219342395D01*
X215372475Y-219370234D01*
X215398564Y-219400339D01*
X215400416Y-219403341D01*
X215400418Y-219403344D01*
X215524389Y-219527315D01*
X215673610Y-219619356D01*
X215673615Y-219619358D01*
X215840037Y-219674505D01*
X215840044Y-219674506D01*
X215942754Y-219684999D01*
X216080234Y-219684999D01*
X216580235Y-219684999D01*
X216717707Y-219684999D01*
X216717721Y-219684998D01*
X216820432Y-219674505D01*
X216986854Y-219619358D01*
X216986859Y-219619356D01*
X217136080Y-219527315D01*
X217260050Y-219403345D01*
X217314221Y-219315521D01*
X221569507Y-219315521D01*
X221580000Y-219418232D01*
X221635147Y-219584654D01*
X221635149Y-219584659D01*
X221727190Y-219733880D01*
X221851160Y-219857850D01*
X222000381Y-219949891D01*
X222000386Y-219949893D01*
X222166808Y-220005040D01*
X222166815Y-220005041D01*
X222269525Y-220015534D01*
X222407005Y-220015534D01*
X222407006Y-220015533D01*
X222407006Y-219040535D01*
X221569507Y-219040535D01*
X221569507Y-219315521D01*
X217314221Y-219315521D01*
X217352091Y-219254124D01*
X217352093Y-219254119D01*
X217407240Y-219087697D01*
X217407241Y-219087690D01*
X217417734Y-218984983D01*
X217417735Y-218984976D01*
X217417735Y-218710000D01*
X216580235Y-218710000D01*
X216580235Y-219684999D01*
X216080234Y-219684999D01*
X216080235Y-219684998D01*
X216080235Y-218584000D01*
X216099920Y-218516961D01*
X216152724Y-218471206D01*
X216204235Y-218460000D01*
X216330235Y-218460000D01*
X216330235Y-218334000D01*
X216349920Y-218266961D01*
X216402724Y-218221206D01*
X216454235Y-218210000D01*
X217417734Y-218210000D01*
X217417734Y-217935028D01*
X217417733Y-217935013D01*
X217407240Y-217832302D01*
X217352093Y-217665880D01*
X217352091Y-217665875D01*
X217260050Y-217516654D01*
X217257454Y-217514058D01*
X217256240Y-217511836D01*
X217255574Y-217510993D01*
X217255718Y-217510879D01*
X217223969Y-217452735D01*
X217228953Y-217383043D01*
X217270825Y-217327110D01*
X217306817Y-217308446D01*
X217408318Y-217275465D01*
X217601331Y-217177120D01*
X217601344Y-217177112D01*
X217660545Y-217134100D01*
X217660546Y-217134099D01*
X217047049Y-216520603D01*
X217090787Y-216508884D01*
X217215313Y-216436989D01*
X217316989Y-216335313D01*
X217388884Y-216210787D01*
X217400603Y-216167049D01*
X218014099Y-216780546D01*
G37*
%TD.AperFunction*%
%TA.AperFunction,Conductor*%
G36*
X237048578Y-217369978D02*
G01*
X237091644Y-217376800D01*
X237091645Y-217376800D01*
X237275500Y-217376800D01*
X237342539Y-217396485D01*
X237388294Y-217449289D01*
X237399500Y-217500800D01*
X237399500Y-219699902D01*
X237379815Y-219766941D01*
X237363181Y-219787583D01*
X236787584Y-220363181D01*
X236726261Y-220396666D01*
X236699903Y-220399500D01*
X235249097Y-220399500D01*
X235182058Y-220379815D01*
X235136303Y-220327011D01*
X235126359Y-220257853D01*
X235155384Y-220194297D01*
X235161416Y-220187819D01*
X235612416Y-219736818D01*
X235673739Y-219703333D01*
X235700097Y-219700499D01*
X236400002Y-219700499D01*
X236400008Y-219700499D01*
X236502797Y-219689999D01*
X236669334Y-219634814D01*
X236818656Y-219542712D01*
X236942712Y-219418656D01*
X237034814Y-219269334D01*
X237089999Y-219102797D01*
X237100500Y-219000009D01*
X237100499Y-217999992D01*
X237100111Y-217996198D01*
X237089999Y-217897203D01*
X237089998Y-217897200D01*
X237083705Y-217878210D01*
X237034814Y-217730666D01*
X236942712Y-217581344D01*
X236941501Y-217580133D01*
X236940935Y-217579097D01*
X236938234Y-217575681D01*
X236938817Y-217575219D01*
X236908016Y-217518810D01*
X236913000Y-217449118D01*
X236954872Y-217393185D01*
X237020336Y-217368768D01*
X237048578Y-217369978D01*
G37*
%TD.AperFunction*%
%TA.AperFunction,Conductor*%
G36*
X228396420Y-216716384D02*
G01*
X228410318Y-216732423D01*
X228498455Y-216853733D01*
X228529836Y-216896925D01*
X228683075Y-217050164D01*
X228858400Y-217177545D01*
X228991758Y-217245494D01*
X229051494Y-217275931D01*
X229093935Y-217289721D01*
X229096205Y-217291273D01*
X229098951Y-217291470D01*
X229124877Y-217310879D01*
X229151610Y-217329158D01*
X229152681Y-217331693D01*
X229154884Y-217333342D01*
X229166198Y-217363677D01*
X229178809Y-217393516D01*
X229178339Y-217396228D01*
X229179301Y-217398806D01*
X229172418Y-217430442D01*
X229166895Y-217462363D01*
X229164854Y-217465213D01*
X229164449Y-217467079D01*
X229143298Y-217495333D01*
X229087327Y-217551304D01*
X229026004Y-217584789D01*
X228956312Y-217579805D01*
X228911965Y-217551304D01*
X228818345Y-217457684D01*
X228669124Y-217365643D01*
X228669119Y-217365641D01*
X228502697Y-217310494D01*
X228502690Y-217310493D01*
X228399986Y-217300000D01*
X228250000Y-217300000D01*
X228250000Y-218376000D01*
X228230315Y-218443039D01*
X228177511Y-218488794D01*
X228126000Y-218500000D01*
X228000000Y-218500000D01*
X228000000Y-218626000D01*
X227980315Y-218693039D01*
X227927511Y-218738794D01*
X227876000Y-218750000D01*
X226900001Y-218750000D01*
X226900001Y-218999986D01*
X226910494Y-219102697D01*
X226965641Y-219269119D01*
X226965643Y-219269124D01*
X227057684Y-219418345D01*
X227181654Y-219542315D01*
X227330875Y-219634356D01*
X227330880Y-219634358D01*
X227401605Y-219657794D01*
X227459050Y-219697566D01*
X227485873Y-219762082D01*
X227473558Y-219830858D01*
X227426015Y-219882058D01*
X227362601Y-219899500D01*
X226800098Y-219899500D01*
X226733059Y-219879815D01*
X226712417Y-219863181D01*
X225856324Y-219007088D01*
X225822839Y-218945765D01*
X225820005Y-218919407D01*
X225820005Y-218265533D01*
X225820004Y-218265516D01*
X225809505Y-218162738D01*
X225809504Y-218162735D01*
X225795613Y-218120814D01*
X225754320Y-217996201D01*
X225662218Y-217846879D01*
X225538162Y-217722823D01*
X225391408Y-217632305D01*
X225344685Y-217580358D01*
X225332506Y-217526767D01*
X225332506Y-217160148D01*
X225352191Y-217093109D01*
X225383621Y-217059829D01*
X225396925Y-217050164D01*
X225550164Y-216896925D01*
X225639500Y-216773965D01*
X225669682Y-216732423D01*
X225725012Y-216689757D01*
X225794625Y-216683778D01*
X225856420Y-216716384D01*
X225870318Y-216732423D01*
X225958455Y-216853733D01*
X225989836Y-216896925D01*
X226143075Y-217050164D01*
X226318400Y-217177545D01*
X226451758Y-217245494D01*
X226511494Y-217275931D01*
X226717595Y-217342897D01*
X226717596Y-217342897D01*
X226717599Y-217342898D01*
X226931644Y-217376800D01*
X226931645Y-217376800D01*
X226963537Y-217376800D01*
X227030576Y-217396485D01*
X227076331Y-217449289D01*
X227086275Y-217518447D01*
X227060801Y-217577714D01*
X227057682Y-217581657D01*
X226965643Y-217730875D01*
X226965641Y-217730880D01*
X226910494Y-217897302D01*
X226910493Y-217897309D01*
X226900000Y-218000013D01*
X226900000Y-218250000D01*
X227750000Y-218250000D01*
X227750000Y-217249154D01*
X227769685Y-217182115D01*
X227801115Y-217148836D01*
X227848839Y-217114162D01*
X227936925Y-217050164D01*
X228090164Y-216896925D01*
X228179500Y-216773965D01*
X228209682Y-216732423D01*
X228265012Y-216689757D01*
X228334625Y-216683778D01*
X228396420Y-216716384D01*
G37*
%TD.AperFunction*%
%TA.AperFunction,Conductor*%
G36*
X233407383Y-216684399D02*
G01*
X233414625Y-216683778D01*
X233439503Y-216696905D01*
X233465720Y-216707112D01*
X233472952Y-216714554D01*
X233476420Y-216716384D01*
X233490318Y-216732423D01*
X233578455Y-216853733D01*
X233609836Y-216896925D01*
X233763075Y-217050164D01*
X233797510Y-217075182D01*
X233840176Y-217130511D01*
X233846155Y-217200124D01*
X233813550Y-217261919D01*
X233752712Y-217296277D01*
X233724626Y-217299500D01*
X233599999Y-217299500D01*
X233599980Y-217299501D01*
X233497203Y-217310000D01*
X233497200Y-217310001D01*
X233330668Y-217365185D01*
X233330663Y-217365187D01*
X233181342Y-217457289D01*
X233057289Y-217581342D01*
X233055163Y-217584789D01*
X232994148Y-217683712D01*
X232989901Y-217690597D01*
X232982313Y-217697421D01*
X232978075Y-217706703D01*
X232956775Y-217720391D01*
X232937953Y-217737321D01*
X232926317Y-217739965D01*
X232919297Y-217744477D01*
X232884362Y-217749500D01*
X232804604Y-217749500D01*
X232757155Y-217740062D01*
X232733497Y-217730263D01*
X232733493Y-217730262D01*
X232733488Y-217730260D01*
X232578845Y-217699500D01*
X232578842Y-217699500D01*
X232421158Y-217699500D01*
X232421155Y-217699500D01*
X232266510Y-217730261D01*
X232266498Y-217730264D01*
X232120827Y-217790602D01*
X232120814Y-217790609D01*
X231989711Y-217878210D01*
X231989707Y-217878213D01*
X231878213Y-217989707D01*
X231878210Y-217989711D01*
X231790609Y-218120814D01*
X231790602Y-218120827D01*
X231730264Y-218266498D01*
X231730261Y-218266510D01*
X231699500Y-218421153D01*
X231699500Y-218578846D01*
X231730261Y-218733489D01*
X231730264Y-218733501D01*
X231790602Y-218879172D01*
X231790609Y-218879185D01*
X231878210Y-219010288D01*
X231878213Y-219010292D01*
X231989707Y-219121786D01*
X231989711Y-219121789D01*
X232120814Y-219209390D01*
X232120827Y-219209397D01*
X232232187Y-219255523D01*
X232266503Y-219269737D01*
X232421153Y-219300499D01*
X232421156Y-219300500D01*
X232421158Y-219300500D01*
X232578844Y-219300500D01*
X232578845Y-219300499D01*
X232655152Y-219285320D01*
X232733488Y-219269739D01*
X232733489Y-219269738D01*
X232733497Y-219269737D01*
X232757155Y-219259937D01*
X232765329Y-219258311D01*
X232769669Y-219255523D01*
X232804604Y-219250500D01*
X232884362Y-219250500D01*
X232951401Y-219270185D01*
X232989899Y-219309401D01*
X233057288Y-219418656D01*
X233181344Y-219542712D01*
X233330666Y-219634814D01*
X233400016Y-219657794D01*
X233457461Y-219697567D01*
X233484284Y-219762083D01*
X233471969Y-219830858D01*
X233424426Y-219882058D01*
X233361012Y-219899500D01*
X230724500Y-219899500D01*
X230715814Y-219896949D01*
X230706853Y-219898238D01*
X230682812Y-219887259D01*
X230657461Y-219879815D01*
X230651533Y-219872974D01*
X230643297Y-219869213D01*
X230629007Y-219846978D01*
X230611706Y-219827011D01*
X230609418Y-219816496D01*
X230605523Y-219810435D01*
X230600500Y-219775500D01*
X230600500Y-219745908D01*
X230620185Y-219678869D01*
X230664271Y-219640363D01*
X230663187Y-219638605D01*
X230669332Y-219634814D01*
X230669334Y-219634814D01*
X230818656Y-219542712D01*
X230942712Y-219418656D01*
X231034814Y-219269334D01*
X231089999Y-219102797D01*
X231100500Y-219000009D01*
X231100499Y-217999992D01*
X231100111Y-217996198D01*
X231089999Y-217897203D01*
X231089998Y-217897200D01*
X231083705Y-217878210D01*
X231034814Y-217730666D01*
X230942712Y-217581344D01*
X230818656Y-217457288D01*
X230689971Y-217377915D01*
X230669336Y-217365187D01*
X230669331Y-217365185D01*
X230660573Y-217362283D01*
X230502797Y-217310001D01*
X230502794Y-217310000D01*
X230489329Y-217308625D01*
X230424637Y-217282228D01*
X230384486Y-217225047D01*
X230381623Y-217155236D01*
X230416958Y-217094960D01*
X230429033Y-217084959D01*
X230476925Y-217050164D01*
X230630164Y-216896925D01*
X230719500Y-216773965D01*
X230749682Y-216732423D01*
X230805012Y-216689757D01*
X230874625Y-216683778D01*
X230936420Y-216716384D01*
X230950318Y-216732423D01*
X231038455Y-216853733D01*
X231069836Y-216896925D01*
X231223075Y-217050164D01*
X231398400Y-217177545D01*
X231531758Y-217245494D01*
X231591494Y-217275931D01*
X231797595Y-217342897D01*
X231797596Y-217342897D01*
X231797599Y-217342898D01*
X232011644Y-217376800D01*
X232011645Y-217376800D01*
X232228355Y-217376800D01*
X232228356Y-217376800D01*
X232442401Y-217342898D01*
X232442404Y-217342897D01*
X232442405Y-217342897D01*
X232648505Y-217275931D01*
X232648505Y-217275930D01*
X232648508Y-217275930D01*
X232841600Y-217177545D01*
X233016925Y-217050164D01*
X233170164Y-216896925D01*
X233259500Y-216773965D01*
X233289682Y-216732423D01*
X233311954Y-216715248D01*
X233332133Y-216695638D01*
X233339257Y-216694194D01*
X233345012Y-216689757D01*
X233373037Y-216687349D01*
X233400611Y-216681763D01*
X233407383Y-216684399D01*
G37*
%TD.AperFunction*%
%TA.AperFunction,Conductor*%
G36*
X216371116Y-216210787D02*
G01*
X216443011Y-216335313D01*
X216544687Y-216436989D01*
X216669213Y-216508884D01*
X216712950Y-216520603D01*
X216087451Y-217146100D01*
X216082504Y-217169650D01*
X216033451Y-217219406D01*
X215973255Y-217235000D01*
X215942765Y-217235000D01*
X215942746Y-217235001D01*
X215840037Y-217245494D01*
X215673615Y-217300641D01*
X215673610Y-217300643D01*
X215524389Y-217392684D01*
X215400418Y-217516655D01*
X215400414Y-217516660D01*
X215398561Y-217519665D01*
X215396753Y-217521290D01*
X215395937Y-217522323D01*
X215395760Y-217522183D01*
X215346609Y-217566385D01*
X215277646Y-217577601D01*
X215213566Y-217549752D01*
X215202184Y-217538959D01*
X215193888Y-217530030D01*
X215185447Y-217516344D01*
X215125201Y-217456098D01*
X215123656Y-217454435D01*
X215109024Y-217425127D01*
X215093334Y-217396393D01*
X215092964Y-217392960D01*
X215092447Y-217391923D01*
X215092651Y-217390042D01*
X215090500Y-217370035D01*
X215090500Y-217219728D01*
X215110185Y-217152689D01*
X215141614Y-217119410D01*
X215236925Y-217050164D01*
X215390164Y-216896925D01*
X215509991Y-216731996D01*
X215565321Y-216689331D01*
X215634934Y-216683352D01*
X215696729Y-216715958D01*
X215710628Y-216731998D01*
X215745899Y-216780545D01*
X216359396Y-216167049D01*
X216371116Y-216210787D01*
G37*
%TD.AperFunction*%
%TA.AperFunction,Conductor*%
G36*
X223094099Y-201540546D02*
G01*
X223094099Y-201540545D01*
X223129373Y-201491997D01*
X223184703Y-201449332D01*
X223254317Y-201443353D01*
X223316112Y-201475959D01*
X223330008Y-201491995D01*
X223449836Y-201656925D01*
X223603075Y-201810164D01*
X223778400Y-201937545D01*
X223934430Y-202017046D01*
X223971494Y-202035931D01*
X224177595Y-202102897D01*
X224177596Y-202102897D01*
X224177599Y-202102898D01*
X224391644Y-202136800D01*
X224391645Y-202136800D01*
X224608355Y-202136800D01*
X224608356Y-202136800D01*
X224822401Y-202102898D01*
X224822404Y-202102897D01*
X224822405Y-202102897D01*
X225028505Y-202035931D01*
X225028505Y-202035930D01*
X225028508Y-202035930D01*
X225221600Y-201937545D01*
X225396925Y-201810164D01*
X225550164Y-201656925D01*
X225669682Y-201492423D01*
X225725012Y-201449757D01*
X225794625Y-201443778D01*
X225856420Y-201476384D01*
X225870318Y-201492423D01*
X225979595Y-201642829D01*
X225989836Y-201656925D01*
X226143075Y-201810164D01*
X226318400Y-201937545D01*
X226474430Y-202017046D01*
X226511494Y-202035931D01*
X226717595Y-202102897D01*
X226717596Y-202102897D01*
X226717599Y-202102898D01*
X226931644Y-202136800D01*
X226931645Y-202136800D01*
X227148355Y-202136800D01*
X227148356Y-202136800D01*
X227362401Y-202102898D01*
X227362404Y-202102897D01*
X227362405Y-202102897D01*
X227541963Y-202044555D01*
X227611804Y-202042560D01*
X227671637Y-202078640D01*
X227702465Y-202141341D01*
X227704281Y-202162486D01*
X227704281Y-202575500D01*
X227684596Y-202642539D01*
X227631792Y-202688294D01*
X227580281Y-202699500D01*
X227421155Y-202699500D01*
X227266510Y-202730261D01*
X227266498Y-202730264D01*
X227120827Y-202790602D01*
X227120814Y-202790609D01*
X226989125Y-202878602D01*
X226922447Y-202899480D01*
X226920234Y-202899500D01*
X220079766Y-202899500D01*
X220012727Y-202879815D01*
X220010875Y-202878602D01*
X219879185Y-202790609D01*
X219879172Y-202790602D01*
X219733501Y-202730264D01*
X219733489Y-202730261D01*
X219578845Y-202699500D01*
X219578842Y-202699500D01*
X219421158Y-202699500D01*
X219421155Y-202699500D01*
X219266510Y-202730261D01*
X219266498Y-202730264D01*
X219120827Y-202790602D01*
X219120814Y-202790609D01*
X218989711Y-202878210D01*
X218989707Y-202878213D01*
X218878213Y-202989707D01*
X218878210Y-202989711D01*
X218790609Y-203120814D01*
X218790602Y-203120827D01*
X218730264Y-203266498D01*
X218730261Y-203266510D01*
X218699500Y-203421153D01*
X218699500Y-203578846D01*
X218730261Y-203733489D01*
X218730264Y-203733501D01*
X218790602Y-203879172D01*
X218790609Y-203879185D01*
X218878210Y-204010288D01*
X218878213Y-204010292D01*
X218989707Y-204121786D01*
X218989711Y-204121789D01*
X219120814Y-204209390D01*
X219120827Y-204209397D01*
X219191968Y-204238864D01*
X219266503Y-204269737D01*
X219421153Y-204300499D01*
X219421156Y-204300500D01*
X219421158Y-204300500D01*
X219578844Y-204300500D01*
X219578845Y-204300499D01*
X219733497Y-204269737D01*
X219846166Y-204223067D01*
X219879172Y-204209397D01*
X219879172Y-204209396D01*
X219879179Y-204209394D01*
X219916332Y-204184569D01*
X220010875Y-204121398D01*
X220077553Y-204100520D01*
X220079766Y-204100500D01*
X226920234Y-204100500D01*
X226987273Y-204120185D01*
X226989125Y-204121398D01*
X227120814Y-204209390D01*
X227120827Y-204209397D01*
X227191968Y-204238864D01*
X227266503Y-204269737D01*
X227421153Y-204300499D01*
X227421156Y-204300500D01*
X227580281Y-204300500D01*
X227647320Y-204320185D01*
X227693075Y-204372989D01*
X227704281Y-204424500D01*
X227704281Y-209558111D01*
X227704280Y-209558129D01*
X227704280Y-209723835D01*
X227704279Y-209723835D01*
X227745205Y-209876568D01*
X227757784Y-209898356D01*
X227757790Y-209898366D01*
X227759023Y-209900501D01*
X227824261Y-210013497D01*
X227841218Y-210030454D01*
X227848599Y-210042140D01*
X227854540Y-210062982D01*
X227864925Y-210081999D01*
X227863929Y-210095914D01*
X227867755Y-210109332D01*
X227861486Y-210130074D01*
X227859941Y-210151691D01*
X227851579Y-210162860D01*
X227847544Y-210176215D01*
X227831054Y-210190277D01*
X227818069Y-210207624D01*
X227802652Y-210214499D01*
X227794382Y-210221553D01*
X227783536Y-210223025D01*
X227772208Y-210228077D01*
X227772335Y-210228494D01*
X227769020Y-210229499D01*
X227767961Y-210229972D01*
X227766513Y-210230260D01*
X227766498Y-210230264D01*
X227620827Y-210290602D01*
X227620814Y-210290609D01*
X227489125Y-210378602D01*
X227422447Y-210399480D01*
X227420234Y-210399500D01*
X217079766Y-210399500D01*
X217012727Y-210379815D01*
X217010875Y-210378602D01*
X216879185Y-210290609D01*
X216879172Y-210290602D01*
X216733501Y-210230264D01*
X216733489Y-210230261D01*
X216578845Y-210199500D01*
X216578842Y-210199500D01*
X216421158Y-210199500D01*
X216421155Y-210199500D01*
X216266510Y-210230261D01*
X216266498Y-210230264D01*
X216120827Y-210290602D01*
X216120814Y-210290609D01*
X215989711Y-210378210D01*
X215989707Y-210378213D01*
X215878213Y-210489707D01*
X215878210Y-210489711D01*
X215790609Y-210620814D01*
X215790602Y-210620827D01*
X215730264Y-210766498D01*
X215730261Y-210766510D01*
X215699500Y-210921153D01*
X215699500Y-211078846D01*
X215730261Y-211233489D01*
X215730264Y-211233501D01*
X215790602Y-211379172D01*
X215790609Y-211379185D01*
X215878210Y-211510288D01*
X215878213Y-211510292D01*
X215989707Y-211621786D01*
X215989711Y-211621789D01*
X216120814Y-211709390D01*
X216120827Y-211709397D01*
X216266498Y-211769735D01*
X216266503Y-211769737D01*
X216368975Y-211790120D01*
X216421153Y-211800499D01*
X216421156Y-211800500D01*
X216421158Y-211800500D01*
X216578844Y-211800500D01*
X216578845Y-211800499D01*
X216733497Y-211769737D01*
X216879179Y-211709394D01*
X216910177Y-211688682D01*
X217010875Y-211621398D01*
X217077553Y-211600520D01*
X217079766Y-211600500D01*
X227420234Y-211600500D01*
X227487273Y-211620185D01*
X227489125Y-211621398D01*
X227620814Y-211709390D01*
X227620827Y-211709397D01*
X227766498Y-211769735D01*
X227766503Y-211769737D01*
X227868975Y-211790120D01*
X227921153Y-211800499D01*
X227921156Y-211800500D01*
X227921158Y-211800500D01*
X228078844Y-211800500D01*
X228078845Y-211800499D01*
X228233497Y-211769737D01*
X228379179Y-211709394D01*
X228510289Y-211621789D01*
X228621789Y-211510289D01*
X228709394Y-211379179D01*
X228769737Y-211233497D01*
X228770023Y-211232055D01*
X228770381Y-211231371D01*
X228771506Y-211227665D01*
X228772208Y-211227878D01*
X228802402Y-211170145D01*
X228863114Y-211135565D01*
X228932884Y-211139298D01*
X228979323Y-211168558D01*
X232222284Y-214411519D01*
X232255769Y-214472842D01*
X232250785Y-214542534D01*
X232208913Y-214598467D01*
X232143449Y-214622884D01*
X232134603Y-214623200D01*
X232011644Y-214623200D01*
X231963610Y-214630808D01*
X231797597Y-214657102D01*
X231797594Y-214657102D01*
X231591494Y-214724068D01*
X231398399Y-214822455D01*
X231223072Y-214949838D01*
X231069838Y-215103072D01*
X231069838Y-215103073D01*
X231069836Y-215103075D01*
X231049974Y-215130413D01*
X230950318Y-215267577D01*
X230894988Y-215310242D01*
X230825374Y-215316221D01*
X230763579Y-215283615D01*
X230749682Y-215267577D01*
X230721232Y-215228419D01*
X230630164Y-215103075D01*
X230476925Y-214949836D01*
X230301600Y-214822455D01*
X230301596Y-214822453D01*
X230108505Y-214724068D01*
X229902404Y-214657102D01*
X229736390Y-214630808D01*
X229688356Y-214623200D01*
X229471644Y-214623200D01*
X229423610Y-214630808D01*
X229257597Y-214657102D01*
X229257594Y-214657102D01*
X229051494Y-214724068D01*
X228858399Y-214822455D01*
X228683072Y-214949838D01*
X228529838Y-215103072D01*
X228529838Y-215103073D01*
X228529836Y-215103075D01*
X228509974Y-215130413D01*
X228410318Y-215267577D01*
X228354988Y-215310242D01*
X228285374Y-215316221D01*
X228223579Y-215283615D01*
X228209682Y-215267577D01*
X228181232Y-215228419D01*
X228090164Y-215103075D01*
X227936925Y-214949836D01*
X227761600Y-214822455D01*
X227761596Y-214822453D01*
X227568505Y-214724068D01*
X227362404Y-214657102D01*
X227196390Y-214630808D01*
X227148356Y-214623200D01*
X226931644Y-214623200D01*
X226883610Y-214630808D01*
X226717597Y-214657102D01*
X226717594Y-214657102D01*
X226511494Y-214724068D01*
X226318399Y-214822455D01*
X226143072Y-214949838D01*
X225989838Y-215103072D01*
X225989838Y-215103073D01*
X225989836Y-215103075D01*
X225969974Y-215130413D01*
X225870318Y-215267577D01*
X225814988Y-215310242D01*
X225745374Y-215316221D01*
X225683579Y-215283615D01*
X225669682Y-215267577D01*
X225641232Y-215228419D01*
X225550164Y-215103075D01*
X225396925Y-214949836D01*
X225221600Y-214822455D01*
X225221596Y-214822453D01*
X225028505Y-214724068D01*
X224822404Y-214657102D01*
X224656390Y-214630808D01*
X224608356Y-214623200D01*
X224391644Y-214623200D01*
X224343610Y-214630808D01*
X224177597Y-214657102D01*
X224177594Y-214657102D01*
X223971494Y-214724068D01*
X223778399Y-214822455D01*
X223603072Y-214949838D01*
X223449838Y-215103072D01*
X223449838Y-215103073D01*
X223449836Y-215103075D01*
X223429974Y-215130413D01*
X223330318Y-215267577D01*
X223274988Y-215310242D01*
X223205374Y-215316221D01*
X223143579Y-215283615D01*
X223129682Y-215267577D01*
X223101232Y-215228419D01*
X223010164Y-215103075D01*
X222856925Y-214949836D01*
X222681600Y-214822455D01*
X222681596Y-214822453D01*
X222488505Y-214724068D01*
X222282404Y-214657102D01*
X222116390Y-214630808D01*
X222068356Y-214623200D01*
X221851644Y-214623200D01*
X221803610Y-214630808D01*
X221637597Y-214657102D01*
X221637594Y-214657102D01*
X221431494Y-214724068D01*
X221238399Y-214822455D01*
X221063072Y-214949838D01*
X220909838Y-215103072D01*
X220909838Y-215103073D01*
X220909836Y-215103075D01*
X220889974Y-215130413D01*
X220790318Y-215267577D01*
X220734988Y-215310242D01*
X220665374Y-215316221D01*
X220603579Y-215283615D01*
X220589682Y-215267577D01*
X220561232Y-215228419D01*
X220470164Y-215103075D01*
X220316925Y-214949836D01*
X220141600Y-214822455D01*
X220141596Y-214822453D01*
X219948505Y-214724068D01*
X219742404Y-214657102D01*
X219576390Y-214630808D01*
X219528356Y-214623200D01*
X219311644Y-214623200D01*
X219263610Y-214630808D01*
X219097597Y-214657102D01*
X219097594Y-214657102D01*
X218891494Y-214724068D01*
X218698399Y-214822455D01*
X218523072Y-214949838D01*
X218369838Y-215103072D01*
X218369838Y-215103073D01*
X218369836Y-215103075D01*
X218349974Y-215130413D01*
X218250009Y-215268002D01*
X218194679Y-215310667D01*
X218125065Y-215316646D01*
X218063270Y-215284040D01*
X218049373Y-215268001D01*
X218014101Y-215219453D01*
X218014099Y-215219452D01*
X217400603Y-215832949D01*
X217388884Y-215789213D01*
X217316989Y-215664687D01*
X217215313Y-215563011D01*
X217090787Y-215491116D01*
X217047049Y-215479396D01*
X217660545Y-214865899D01*
X217660545Y-214865898D01*
X217601342Y-214822885D01*
X217408320Y-214724534D01*
X217202284Y-214657588D01*
X216988322Y-214623700D01*
X216771678Y-214623700D01*
X216557715Y-214657588D01*
X216351679Y-214724534D01*
X216158659Y-214822884D01*
X216099453Y-214865898D01*
X216099453Y-214865899D01*
X216712950Y-215479396D01*
X216669213Y-215491116D01*
X216544687Y-215563011D01*
X216443011Y-215664687D01*
X216371116Y-215789213D01*
X216359396Y-215832950D01*
X215745899Y-215219453D01*
X215745897Y-215219453D01*
X215710626Y-215268001D01*
X215655297Y-215310667D01*
X215585683Y-215316646D01*
X215523888Y-215284041D01*
X215509990Y-215268001D01*
X215410025Y-215130411D01*
X215390164Y-215103075D01*
X215236925Y-214949836D01*
X215061600Y-214822455D01*
X215061596Y-214822453D01*
X214868505Y-214724068D01*
X214662404Y-214657102D01*
X214496390Y-214630808D01*
X214448356Y-214623200D01*
X214231644Y-214623200D01*
X214183610Y-214630808D01*
X214017597Y-214657102D01*
X214017594Y-214657102D01*
X213811494Y-214724068D01*
X213618399Y-214822455D01*
X213443072Y-214949838D01*
X213289838Y-215103072D01*
X213289838Y-215103073D01*
X213289836Y-215103075D01*
X213269974Y-215130413D01*
X213170318Y-215267577D01*
X213114988Y-215310242D01*
X213045374Y-215316221D01*
X212983579Y-215283615D01*
X212969682Y-215267577D01*
X212941232Y-215228419D01*
X212850164Y-215103075D01*
X212696925Y-214949836D01*
X212521600Y-214822455D01*
X212521599Y-214822454D01*
X212521597Y-214822453D01*
X212468204Y-214795247D01*
X212417408Y-214747272D01*
X212400500Y-214684763D01*
X212400500Y-209389059D01*
X212400501Y-209389046D01*
X212400501Y-209220945D01*
X212400501Y-209220943D01*
X212359577Y-209068215D01*
X212308946Y-208980520D01*
X212280520Y-208931284D01*
X212168716Y-208819480D01*
X212168715Y-208819479D01*
X212164385Y-208815149D01*
X212164374Y-208815139D01*
X211686915Y-208337680D01*
X211653430Y-208276357D01*
X211658414Y-208206665D01*
X211686911Y-208162323D01*
X212158506Y-207690727D01*
X212158511Y-207690724D01*
X212168714Y-207680520D01*
X212168716Y-207680520D01*
X212280520Y-207568716D01*
X212346246Y-207454874D01*
X212359577Y-207431785D01*
X212400501Y-207279057D01*
X212400501Y-207120943D01*
X212400501Y-207113348D01*
X212400500Y-207113330D01*
X212400500Y-202260799D01*
X212420185Y-202193760D01*
X212472989Y-202148005D01*
X212524500Y-202136799D01*
X212724171Y-202136799D01*
X212724172Y-202136799D01*
X212783783Y-202130391D01*
X212918631Y-202080096D01*
X213033846Y-201993846D01*
X213120096Y-201878631D01*
X213120204Y-201878343D01*
X213132798Y-201844576D01*
X213159006Y-201774306D01*
X213200876Y-201718373D01*
X213266340Y-201693955D01*
X213334613Y-201708806D01*
X213362869Y-201729958D01*
X213443075Y-201810164D01*
X213618400Y-201937545D01*
X213774430Y-202017046D01*
X213811494Y-202035931D01*
X214017595Y-202102897D01*
X214017596Y-202102897D01*
X214017599Y-202102898D01*
X214231644Y-202136800D01*
X214231645Y-202136800D01*
X214448355Y-202136800D01*
X214448356Y-202136800D01*
X214662401Y-202102898D01*
X214662404Y-202102897D01*
X214662405Y-202102897D01*
X214868505Y-202035931D01*
X214868505Y-202035930D01*
X214868508Y-202035930D01*
X215061600Y-201937545D01*
X215236925Y-201810164D01*
X215390164Y-201656925D01*
X215509682Y-201492423D01*
X215565012Y-201449757D01*
X215634625Y-201443778D01*
X215696420Y-201476384D01*
X215710318Y-201492423D01*
X215819595Y-201642829D01*
X215829836Y-201656925D01*
X215983075Y-201810164D01*
X216158400Y-201937545D01*
X216314430Y-202017046D01*
X216351494Y-202035931D01*
X216557595Y-202102897D01*
X216557596Y-202102897D01*
X216557599Y-202102898D01*
X216771644Y-202136800D01*
X216771645Y-202136800D01*
X216988355Y-202136800D01*
X216988356Y-202136800D01*
X217202401Y-202102898D01*
X217202404Y-202102897D01*
X217202405Y-202102897D01*
X217408505Y-202035931D01*
X217408505Y-202035930D01*
X217408508Y-202035930D01*
X217601600Y-201937545D01*
X217776925Y-201810164D01*
X217930164Y-201656925D01*
X218049991Y-201491996D01*
X218105321Y-201449331D01*
X218174934Y-201443352D01*
X218236729Y-201475958D01*
X218250628Y-201491998D01*
X218285899Y-201540545D01*
X218899396Y-200927049D01*
X218911116Y-200970787D01*
X218983011Y-201095313D01*
X219084687Y-201196989D01*
X219209213Y-201268884D01*
X219252950Y-201280603D01*
X218639452Y-201894099D01*
X218639453Y-201894100D01*
X218698657Y-201937114D01*
X218891679Y-202035465D01*
X219097715Y-202102411D01*
X219311678Y-202136300D01*
X219528322Y-202136300D01*
X219742284Y-202102411D01*
X219948320Y-202035465D01*
X220141331Y-201937120D01*
X220141344Y-201937112D01*
X220200545Y-201894100D01*
X220200546Y-201894099D01*
X219587049Y-201280603D01*
X219630787Y-201268884D01*
X219755313Y-201196989D01*
X219856989Y-201095313D01*
X219928884Y-200970787D01*
X219940603Y-200927049D01*
X220554098Y-201540545D01*
X220589680Y-201491572D01*
X220645010Y-201448906D01*
X220714624Y-201442927D01*
X220776419Y-201475532D01*
X220790317Y-201491572D01*
X220825898Y-201540545D01*
X220825899Y-201540545D01*
X221439396Y-200927049D01*
X221451116Y-200970787D01*
X221523011Y-201095313D01*
X221624687Y-201196989D01*
X221749213Y-201268884D01*
X221792950Y-201280603D01*
X221179452Y-201894099D01*
X221179453Y-201894100D01*
X221238657Y-201937114D01*
X221431679Y-202035465D01*
X221637715Y-202102411D01*
X221851678Y-202136300D01*
X222068322Y-202136300D01*
X222282284Y-202102411D01*
X222488320Y-202035465D01*
X222681331Y-201937120D01*
X222681344Y-201937112D01*
X222740545Y-201894100D01*
X222740546Y-201894099D01*
X222127049Y-201280603D01*
X222170787Y-201268884D01*
X222295313Y-201196989D01*
X222396989Y-201095313D01*
X222468884Y-200970787D01*
X222480603Y-200927049D01*
X223094099Y-201540546D01*
G37*
%TD.AperFunction*%
%TA.AperFunction,Conductor*%
G36*
X234506942Y-211620185D02*
G01*
X234527584Y-211636819D01*
X237302284Y-214411519D01*
X237335769Y-214472842D01*
X237330785Y-214542534D01*
X237288913Y-214598467D01*
X237223449Y-214622884D01*
X237214603Y-214623200D01*
X237091644Y-214623200D01*
X237043610Y-214630808D01*
X236877597Y-214657102D01*
X236877594Y-214657102D01*
X236671494Y-214724068D01*
X236478399Y-214822455D01*
X236303072Y-214949838D01*
X236149838Y-215103072D01*
X236149838Y-215103073D01*
X236149836Y-215103075D01*
X236129974Y-215130413D01*
X236030318Y-215267577D01*
X235974988Y-215310242D01*
X235905374Y-215316221D01*
X235843579Y-215283615D01*
X235829682Y-215267577D01*
X235801232Y-215228419D01*
X235710164Y-215103075D01*
X235556925Y-214949836D01*
X235381600Y-214822455D01*
X235381596Y-214822453D01*
X235188505Y-214724068D01*
X234982404Y-214657102D01*
X234816390Y-214630808D01*
X234768356Y-214623200D01*
X234551644Y-214623200D01*
X234508835Y-214629980D01*
X234337595Y-214657102D01*
X234280603Y-214675620D01*
X234210762Y-214677615D01*
X234154605Y-214645370D01*
X231518422Y-212009187D01*
X231484937Y-211947864D01*
X231489921Y-211878172D01*
X231531793Y-211822239D01*
X231581910Y-211799889D01*
X231733497Y-211769737D01*
X231879179Y-211709394D01*
X231910177Y-211688682D01*
X232010875Y-211621398D01*
X232077553Y-211600520D01*
X232079766Y-211600500D01*
X234439903Y-211600500D01*
X234506942Y-211620185D01*
G37*
%TD.AperFunction*%
%TA.AperFunction,Conductor*%
G36*
X243787130Y-200950951D02*
G01*
X243845363Y-200989561D01*
X243873477Y-201053525D01*
X243874500Y-201069417D01*
X243874500Y-213504901D01*
X243854815Y-213571940D01*
X243838181Y-213592582D01*
X242785393Y-214645369D01*
X242724070Y-214678854D01*
X242659395Y-214675619D01*
X242602404Y-214657102D01*
X242436390Y-214630808D01*
X242388356Y-214623200D01*
X242171644Y-214623200D01*
X242123610Y-214630808D01*
X241957597Y-214657102D01*
X241957594Y-214657102D01*
X241751494Y-214724068D01*
X241558399Y-214822455D01*
X241383072Y-214949838D01*
X241229838Y-215103072D01*
X241229838Y-215103073D01*
X241229836Y-215103075D01*
X241209974Y-215130413D01*
X241110318Y-215267577D01*
X241054988Y-215310242D01*
X240985374Y-215316221D01*
X240923579Y-215283615D01*
X240909682Y-215267577D01*
X240881232Y-215228419D01*
X240790164Y-215103075D01*
X240636925Y-214949836D01*
X240461600Y-214822455D01*
X240461596Y-214822453D01*
X240268505Y-214724068D01*
X240062404Y-214657102D01*
X239896390Y-214630808D01*
X239848356Y-214623200D01*
X239631644Y-214623200D01*
X239588835Y-214629980D01*
X239417595Y-214657102D01*
X239360603Y-214675620D01*
X239290762Y-214677615D01*
X239234605Y-214645370D01*
X235227590Y-210638355D01*
X235227588Y-210638352D01*
X235108717Y-210519481D01*
X235108716Y-210519480D01*
X235021904Y-210469360D01*
X235021904Y-210469359D01*
X235021900Y-210469358D01*
X234971785Y-210440423D01*
X234819057Y-210399499D01*
X234660943Y-210399499D01*
X234653347Y-210399499D01*
X234653331Y-210399500D01*
X232079766Y-210399500D01*
X232012727Y-210379815D01*
X232010875Y-210378602D01*
X231879185Y-210290609D01*
X231879172Y-210290602D01*
X231733501Y-210230264D01*
X231733489Y-210230261D01*
X231578845Y-210199500D01*
X231578842Y-210199500D01*
X231421158Y-210199500D01*
X231421155Y-210199500D01*
X231266510Y-210230261D01*
X231266498Y-210230264D01*
X231120827Y-210290602D01*
X231120814Y-210290609D01*
X230989711Y-210378210D01*
X230989707Y-210378213D01*
X230878213Y-210489707D01*
X230878210Y-210489711D01*
X230790609Y-210620814D01*
X230790602Y-210620827D01*
X230730264Y-210766498D01*
X230730261Y-210766508D01*
X230700110Y-210918088D01*
X230667725Y-210979999D01*
X230607009Y-211014573D01*
X230537240Y-211010833D01*
X230490812Y-210981577D01*
X228941600Y-209432365D01*
X228908115Y-209371042D01*
X228905281Y-209344684D01*
X228905281Y-204297363D01*
X228924966Y-204230324D01*
X228977770Y-204184569D01*
X229046928Y-204174625D01*
X229098172Y-204194261D01*
X229120814Y-204209390D01*
X229120827Y-204209397D01*
X229191968Y-204238864D01*
X229266503Y-204269737D01*
X229421153Y-204300499D01*
X229421156Y-204300500D01*
X229421158Y-204300500D01*
X229578844Y-204300500D01*
X229578845Y-204300499D01*
X229733497Y-204269737D01*
X229846166Y-204223067D01*
X229879172Y-204209397D01*
X229879172Y-204209396D01*
X229879179Y-204209394D01*
X229916332Y-204184569D01*
X230010875Y-204121398D01*
X230077553Y-204100520D01*
X230079766Y-204100500D01*
X239453331Y-204100500D01*
X239453347Y-204100501D01*
X239460943Y-204100501D01*
X239619054Y-204100501D01*
X239619057Y-204100501D01*
X239771785Y-204059577D01*
X239821904Y-204030639D01*
X239908716Y-203980520D01*
X240020520Y-203868716D01*
X240020520Y-203868714D01*
X240030728Y-203858507D01*
X240030730Y-203858504D01*
X241774606Y-202114627D01*
X241835927Y-202081144D01*
X241900603Y-202084378D01*
X241919876Y-202090641D01*
X241957598Y-202102898D01*
X242031664Y-202114629D01*
X242171644Y-202136800D01*
X242171645Y-202136800D01*
X242388355Y-202136800D01*
X242388356Y-202136800D01*
X242602401Y-202102898D01*
X242602404Y-202102897D01*
X242602405Y-202102897D01*
X242808505Y-202035931D01*
X242808505Y-202035930D01*
X242808508Y-202035930D01*
X243001600Y-201937545D01*
X243176925Y-201810164D01*
X243330164Y-201656925D01*
X243457545Y-201481600D01*
X243555930Y-201288508D01*
X243589400Y-201185499D01*
X243622897Y-201082405D01*
X243622897Y-201082404D01*
X243622898Y-201082401D01*
X243628027Y-201050019D01*
X243657956Y-200986884D01*
X243717268Y-200949953D01*
X243787130Y-200950951D01*
G37*
%TD.AperFunction*%
%TA.AperFunction,Conductor*%
G36*
X198063852Y-214240129D02*
G01*
X198103512Y-214264530D01*
X198104469Y-214263298D01*
X198110632Y-214268078D01*
X198110635Y-214268081D01*
X198252102Y-214351744D01*
X198264769Y-214355424D01*
X198409926Y-214397597D01*
X198409929Y-214397597D01*
X198409931Y-214397598D01*
X198446806Y-214400500D01*
X198446814Y-214400500D01*
X199603186Y-214400500D01*
X199603194Y-214400500D01*
X199640069Y-214397598D01*
X199741456Y-214368142D01*
X199745842Y-214368154D01*
X199749693Y-214366052D01*
X199780471Y-214368253D01*
X199811325Y-214368341D01*
X199815008Y-214370723D01*
X199819385Y-214371036D01*
X199844087Y-214389528D01*
X199869995Y-214406283D01*
X199871806Y-214410279D01*
X199875318Y-214412908D01*
X199886099Y-214441813D01*
X199898839Y-214469921D01*
X199898202Y-214474262D01*
X199899735Y-214478372D01*
X199893176Y-214508518D01*
X199888698Y-214539051D01*
X199885552Y-214543567D01*
X199884883Y-214546645D01*
X199863732Y-214574899D01*
X199766436Y-214672195D01*
X199705113Y-214705680D01*
X199644161Y-214703591D01*
X199643001Y-214703253D01*
X199640067Y-214702401D01*
X199603201Y-214699500D01*
X199603194Y-214699500D01*
X198446806Y-214699500D01*
X198446798Y-214699500D01*
X198409932Y-214702401D01*
X198409926Y-214702402D01*
X198252106Y-214748254D01*
X198252103Y-214748255D01*
X198110637Y-214831917D01*
X198104469Y-214836702D01*
X198103164Y-214835019D01*
X198051454Y-214863246D01*
X197981763Y-214858251D01*
X197934058Y-214826247D01*
X197909796Y-214800000D01*
X197644315Y-214800000D01*
X197581194Y-214782732D01*
X197522896Y-214748255D01*
X197522893Y-214748254D01*
X197365073Y-214702402D01*
X197365067Y-214702401D01*
X197328201Y-214699500D01*
X197328194Y-214699500D01*
X196171806Y-214699500D01*
X196171798Y-214699500D01*
X196134932Y-214702401D01*
X196134926Y-214702402D01*
X195989767Y-214744576D01*
X195977960Y-214744542D01*
X195955172Y-214749500D01*
X194111230Y-214749500D01*
X194044191Y-214729815D01*
X193998436Y-214677011D01*
X193988492Y-214607853D01*
X194017517Y-214544297D01*
X194023549Y-214537819D01*
X194174549Y-214386819D01*
X194235872Y-214353334D01*
X194262230Y-214350500D01*
X195955172Y-214350500D01*
X195968451Y-214352390D01*
X195972819Y-214351762D01*
X195976794Y-214353577D01*
X195989767Y-214355424D01*
X196134926Y-214397597D01*
X196134929Y-214397597D01*
X196134931Y-214397598D01*
X196171806Y-214400500D01*
X196171814Y-214400500D01*
X197328186Y-214400500D01*
X197328194Y-214400500D01*
X197365069Y-214397598D01*
X197365071Y-214397597D01*
X197365073Y-214397597D01*
X197406691Y-214385505D01*
X197522898Y-214351744D01*
X197581194Y-214317268D01*
X197644315Y-214300000D01*
X197909794Y-214300000D01*
X197934057Y-214273752D01*
X197994018Y-214237885D01*
X198063852Y-214240129D01*
G37*
%TD.AperFunction*%
%TA.AperFunction,Conductor*%
G36*
X202805702Y-196755383D02*
G01*
X202812180Y-196761415D01*
X206450425Y-200399660D01*
X206483910Y-200460983D01*
X206484361Y-200463149D01*
X206515261Y-200618491D01*
X206515264Y-200618501D01*
X206575602Y-200764172D01*
X206575609Y-200764185D01*
X206663210Y-200895288D01*
X206663213Y-200895292D01*
X206774707Y-201006786D01*
X206774711Y-201006789D01*
X206905814Y-201094390D01*
X206905827Y-201094397D01*
X207051498Y-201154735D01*
X207051503Y-201154737D01*
X207206153Y-201185499D01*
X207206156Y-201185500D01*
X207206158Y-201185500D01*
X207363844Y-201185500D01*
X207363845Y-201185499D01*
X207518497Y-201154737D01*
X207631166Y-201108067D01*
X207664172Y-201094397D01*
X207664172Y-201094396D01*
X207664179Y-201094394D01*
X207795289Y-201006789D01*
X207906789Y-200895289D01*
X207994394Y-200764179D01*
X208054737Y-200618497D01*
X208085500Y-200463842D01*
X208085500Y-200306158D01*
X208085500Y-200306155D01*
X208085499Y-200306153D01*
X208068333Y-200219853D01*
X208054737Y-200151503D01*
X208046362Y-200131284D01*
X207994397Y-200005827D01*
X207994390Y-200005814D01*
X207906789Y-199874711D01*
X207906786Y-199874707D01*
X207795292Y-199763213D01*
X207795288Y-199763210D01*
X207680295Y-199686374D01*
X207635490Y-199632762D01*
X207626783Y-199563437D01*
X207656937Y-199500409D01*
X207716380Y-199463690D01*
X207749186Y-199459272D01*
X210370345Y-199459272D01*
X210437384Y-199478957D01*
X210483139Y-199531761D01*
X210493083Y-199600919D01*
X210482453Y-199632854D01*
X210483003Y-199633059D01*
X210429608Y-199776217D01*
X210423201Y-199835816D01*
X210423200Y-199835835D01*
X210423200Y-201684170D01*
X210423201Y-201684176D01*
X210429608Y-201743783D01*
X210479902Y-201878628D01*
X210479906Y-201878635D01*
X210566152Y-201993844D01*
X210566155Y-201993847D01*
X210681364Y-202080093D01*
X210681371Y-202080097D01*
X210726318Y-202096861D01*
X210816217Y-202130391D01*
X210875827Y-202136800D01*
X211075500Y-202136799D01*
X211142539Y-202156483D01*
X211188294Y-202209287D01*
X211199500Y-202260799D01*
X211199500Y-206899903D01*
X211179815Y-206966942D01*
X211163181Y-206987584D01*
X210787584Y-207363181D01*
X210726261Y-207396666D01*
X210699903Y-207399500D01*
X204227316Y-207399500D01*
X204160277Y-207379815D01*
X204114522Y-207327011D01*
X204103316Y-207275500D01*
X204103316Y-206923493D01*
X204103315Y-206923478D01*
X204100414Y-206886612D01*
X204100413Y-206886606D01*
X204054561Y-206728786D01*
X204054560Y-206728783D01*
X204054560Y-206728782D01*
X203970897Y-206587315D01*
X203970895Y-206587313D01*
X203970892Y-206587309D01*
X203854686Y-206471103D01*
X203854678Y-206471097D01*
X203772087Y-206422253D01*
X203713214Y-206387436D01*
X203713213Y-206387435D01*
X203713212Y-206387435D01*
X203713209Y-206387434D01*
X203555389Y-206341582D01*
X203555383Y-206341581D01*
X203518517Y-206338680D01*
X203518510Y-206338680D01*
X203399909Y-206338680D01*
X203332870Y-206318995D01*
X203287115Y-206266191D01*
X203277171Y-206197033D01*
X203278292Y-206190488D01*
X203300500Y-206078844D01*
X203300500Y-205921155D01*
X203300499Y-205921153D01*
X203271620Y-205775970D01*
X203269737Y-205766503D01*
X203209794Y-205621786D01*
X203209397Y-205620827D01*
X203209390Y-205620814D01*
X203121398Y-205489125D01*
X203100520Y-205422447D01*
X203100500Y-205420234D01*
X203100500Y-200420945D01*
X203100500Y-200420943D01*
X203069686Y-200305942D01*
X203059577Y-200268215D01*
X202996810Y-200159500D01*
X202980520Y-200131284D01*
X202868716Y-200019480D01*
X202868713Y-200019478D01*
X202468490Y-199619255D01*
X202435005Y-199557932D01*
X202439989Y-199488240D01*
X202481861Y-199432307D01*
X202531976Y-199409957D01*
X202608497Y-199394737D01*
X202754179Y-199334394D01*
X202885289Y-199246789D01*
X202996789Y-199135289D01*
X203084394Y-199004179D01*
X203144737Y-198858497D01*
X203175500Y-198703842D01*
X203175500Y-198546158D01*
X203175500Y-198546155D01*
X203175499Y-198546153D01*
X203164341Y-198490057D01*
X203144737Y-198391503D01*
X203118488Y-198328131D01*
X203084397Y-198245827D01*
X203084390Y-198245814D01*
X202996789Y-198114711D01*
X202996786Y-198114707D01*
X202885292Y-198003213D01*
X202885288Y-198003210D01*
X202754185Y-197915609D01*
X202754172Y-197915602D01*
X202625188Y-197862176D01*
X202570784Y-197818335D01*
X202548719Y-197752041D01*
X202554932Y-197708620D01*
X202589999Y-197602797D01*
X202600500Y-197500009D01*
X202600499Y-196849094D01*
X202620183Y-196782057D01*
X202672987Y-196736302D01*
X202742146Y-196726358D01*
X202805702Y-196755383D01*
G37*
%TD.AperFunction*%
%TA.AperFunction,Conductor*%
G36*
X238487383Y-201444399D02*
G01*
X238494625Y-201443778D01*
X238519503Y-201456905D01*
X238545720Y-201467112D01*
X238552952Y-201474554D01*
X238556420Y-201476384D01*
X238570318Y-201492423D01*
X238679595Y-201642829D01*
X238689836Y-201656925D01*
X238843075Y-201810164D01*
X239018400Y-201937545D01*
X239174430Y-202017046D01*
X239211494Y-202035931D01*
X239417595Y-202102897D01*
X239417596Y-202102897D01*
X239417599Y-202102898D01*
X239631644Y-202136800D01*
X239631645Y-202136800D01*
X239754602Y-202136800D01*
X239821641Y-202156485D01*
X239867396Y-202209289D01*
X239877340Y-202278447D01*
X239848315Y-202342003D01*
X239842283Y-202348481D01*
X239327584Y-202863181D01*
X239266261Y-202896666D01*
X239239903Y-202899500D01*
X230079766Y-202899500D01*
X230012727Y-202879815D01*
X230010875Y-202878602D01*
X229879185Y-202790609D01*
X229879172Y-202790602D01*
X229733501Y-202730264D01*
X229733489Y-202730261D01*
X229578845Y-202699500D01*
X229578842Y-202699500D01*
X229421158Y-202699500D01*
X229421155Y-202699500D01*
X229266510Y-202730261D01*
X229266498Y-202730264D01*
X229120827Y-202790602D01*
X229120813Y-202790610D01*
X229098169Y-202805740D01*
X229031491Y-202826616D01*
X228964112Y-202808130D01*
X228917423Y-202756150D01*
X228905281Y-202702636D01*
X228905281Y-202159094D01*
X228924966Y-202092055D01*
X228977770Y-202046300D01*
X229046928Y-202036356D01*
X229067591Y-202041161D01*
X229200603Y-202084379D01*
X229257598Y-202102898D01*
X229331664Y-202114629D01*
X229471644Y-202136800D01*
X229471645Y-202136800D01*
X229688355Y-202136800D01*
X229688356Y-202136800D01*
X229902401Y-202102898D01*
X229902404Y-202102897D01*
X229902405Y-202102897D01*
X230108505Y-202035931D01*
X230108505Y-202035930D01*
X230108508Y-202035930D01*
X230301600Y-201937545D01*
X230476925Y-201810164D01*
X230630164Y-201656925D01*
X230749682Y-201492423D01*
X230805012Y-201449757D01*
X230874625Y-201443778D01*
X230936420Y-201476384D01*
X230950318Y-201492423D01*
X231059595Y-201642829D01*
X231069836Y-201656925D01*
X231223075Y-201810164D01*
X231398400Y-201937545D01*
X231554430Y-202017046D01*
X231591494Y-202035931D01*
X231797595Y-202102897D01*
X231797596Y-202102897D01*
X231797599Y-202102898D01*
X232011644Y-202136800D01*
X232011645Y-202136800D01*
X232228355Y-202136800D01*
X232228356Y-202136800D01*
X232442401Y-202102898D01*
X232442404Y-202102897D01*
X232442405Y-202102897D01*
X232648505Y-202035931D01*
X232648505Y-202035930D01*
X232648508Y-202035930D01*
X232841600Y-201937545D01*
X233016925Y-201810164D01*
X233170164Y-201656925D01*
X233289682Y-201492423D01*
X233345012Y-201449757D01*
X233414625Y-201443778D01*
X233476420Y-201476384D01*
X233490318Y-201492423D01*
X233599595Y-201642829D01*
X233609836Y-201656925D01*
X233763075Y-201810164D01*
X233938400Y-201937545D01*
X234094430Y-202017046D01*
X234131494Y-202035931D01*
X234337595Y-202102897D01*
X234337596Y-202102897D01*
X234337599Y-202102898D01*
X234551644Y-202136800D01*
X234551645Y-202136800D01*
X234768355Y-202136800D01*
X234768356Y-202136800D01*
X234982401Y-202102898D01*
X234982404Y-202102897D01*
X234982405Y-202102897D01*
X235188505Y-202035931D01*
X235188505Y-202035930D01*
X235188508Y-202035930D01*
X235381600Y-201937545D01*
X235556925Y-201810164D01*
X235710164Y-201656925D01*
X235829682Y-201492423D01*
X235885012Y-201449757D01*
X235954625Y-201443778D01*
X236016420Y-201476384D01*
X236030318Y-201492423D01*
X236139595Y-201642829D01*
X236149836Y-201656925D01*
X236303075Y-201810164D01*
X236478400Y-201937545D01*
X236634430Y-202017046D01*
X236671494Y-202035931D01*
X236877595Y-202102897D01*
X236877596Y-202102897D01*
X236877599Y-202102898D01*
X237091644Y-202136800D01*
X237091645Y-202136800D01*
X237308355Y-202136800D01*
X237308356Y-202136800D01*
X237522401Y-202102898D01*
X237522404Y-202102897D01*
X237522405Y-202102897D01*
X237728505Y-202035931D01*
X237728505Y-202035930D01*
X237728508Y-202035930D01*
X237921600Y-201937545D01*
X238096925Y-201810164D01*
X238250164Y-201656925D01*
X238369682Y-201492423D01*
X238391954Y-201475248D01*
X238412133Y-201455638D01*
X238419257Y-201454194D01*
X238425012Y-201449757D01*
X238453037Y-201447349D01*
X238480611Y-201441763D01*
X238487383Y-201444399D01*
G37*
%TD.AperFunction*%
%TA.AperFunction,Conductor*%
G36*
X220766942Y-196620185D02*
G01*
X220787584Y-196636819D01*
X223649570Y-199498805D01*
X223683055Y-199560128D01*
X223678071Y-199629820D01*
X223636199Y-199685753D01*
X223634777Y-199686802D01*
X223603078Y-199709833D01*
X223603072Y-199709838D01*
X223449838Y-199863072D01*
X223449838Y-199863073D01*
X223449836Y-199863075D01*
X223391946Y-199942753D01*
X223330009Y-200028002D01*
X223274679Y-200070667D01*
X223205065Y-200076646D01*
X223143270Y-200044040D01*
X223129373Y-200028001D01*
X223094101Y-199979453D01*
X223094099Y-199979452D01*
X222480603Y-200592949D01*
X222468884Y-200549213D01*
X222396989Y-200424687D01*
X222295313Y-200323011D01*
X222170787Y-200251116D01*
X222127049Y-200239396D01*
X222740545Y-199625899D01*
X222740545Y-199625898D01*
X222681342Y-199582885D01*
X222488320Y-199484534D01*
X222282284Y-199417588D01*
X222068322Y-199383700D01*
X221851678Y-199383700D01*
X221637715Y-199417588D01*
X221431679Y-199484534D01*
X221238659Y-199582884D01*
X221179453Y-199625898D01*
X221179453Y-199625899D01*
X221792950Y-200239396D01*
X221749213Y-200251116D01*
X221624687Y-200323011D01*
X221523011Y-200424687D01*
X221451116Y-200549213D01*
X221439396Y-200592949D01*
X220825899Y-199979453D01*
X220825898Y-199979453D01*
X220790319Y-200028425D01*
X220734989Y-200071092D01*
X220665376Y-200077071D01*
X220603581Y-200044466D01*
X220589682Y-200028426D01*
X220554101Y-199979453D01*
X220554099Y-199979452D01*
X219940603Y-200592949D01*
X219928884Y-200549213D01*
X219856989Y-200424687D01*
X219755313Y-200323011D01*
X219630787Y-200251116D01*
X219587049Y-200239396D01*
X220200545Y-199625899D01*
X220200545Y-199625898D01*
X220141342Y-199582885D01*
X219948320Y-199484534D01*
X219742284Y-199417588D01*
X219528322Y-199383700D01*
X219311678Y-199383700D01*
X219097715Y-199417588D01*
X218891679Y-199484534D01*
X218698659Y-199582884D01*
X218639453Y-199625898D01*
X218639453Y-199625899D01*
X219252950Y-200239396D01*
X219209213Y-200251116D01*
X219084687Y-200323011D01*
X218983011Y-200424687D01*
X218911116Y-200549213D01*
X218899396Y-200592949D01*
X218285899Y-199979453D01*
X218285897Y-199979453D01*
X218250626Y-200028001D01*
X218195297Y-200070667D01*
X218125683Y-200076646D01*
X218063888Y-200044041D01*
X218049990Y-200028001D01*
X217930166Y-199863078D01*
X217930161Y-199863072D01*
X217776927Y-199709838D01*
X217776926Y-199709837D01*
X217776925Y-199709836D01*
X217678591Y-199638392D01*
X217601598Y-199582453D01*
X217548205Y-199555248D01*
X217497410Y-199507274D01*
X217480501Y-199444764D01*
X217480501Y-199300944D01*
X217480501Y-199300943D01*
X217439577Y-199148216D01*
X217365251Y-199019478D01*
X217360524Y-199011290D01*
X217360518Y-199011282D01*
X216727489Y-198378253D01*
X216727488Y-198378252D01*
X216640676Y-198328132D01*
X216640676Y-198328131D01*
X216640672Y-198328130D01*
X216590557Y-198299195D01*
X216437829Y-198258271D01*
X216279715Y-198258271D01*
X216272119Y-198258271D01*
X216272103Y-198258272D01*
X207810607Y-198258272D01*
X207743568Y-198238587D01*
X207722926Y-198221953D01*
X207384823Y-197883850D01*
X207351338Y-197822527D01*
X207356322Y-197752835D01*
X207398194Y-197696902D01*
X207403587Y-197693084D01*
X207510289Y-197621789D01*
X207621789Y-197510289D01*
X207709394Y-197379179D01*
X207709395Y-197379176D01*
X207709397Y-197379173D01*
X207752935Y-197274060D01*
X207768911Y-197235488D01*
X207812751Y-197181086D01*
X207879045Y-197159021D01*
X207922470Y-197165235D01*
X207997203Y-197189999D01*
X208099991Y-197200500D01*
X208900008Y-197200499D01*
X208900016Y-197200498D01*
X208900019Y-197200498D01*
X208956302Y-197194748D01*
X209002797Y-197189999D01*
X209169334Y-197134814D01*
X209318656Y-197042712D01*
X209412319Y-196949049D01*
X209473642Y-196915564D01*
X209543334Y-196920548D01*
X209587681Y-196949049D01*
X209681344Y-197042712D01*
X209830666Y-197134814D01*
X209997203Y-197189999D01*
X210099991Y-197200500D01*
X210900008Y-197200499D01*
X210900016Y-197200498D01*
X210900019Y-197200498D01*
X210956302Y-197194748D01*
X211002797Y-197189999D01*
X211169334Y-197134814D01*
X211318656Y-197042712D01*
X211442712Y-196918656D01*
X211534814Y-196769334D01*
X211562595Y-196685495D01*
X211602368Y-196628051D01*
X211666884Y-196601228D01*
X211680301Y-196600500D01*
X220699903Y-196600500D01*
X220766942Y-196620185D01*
G37*
%TD.AperFunction*%
%TA.AperFunction,Conductor*%
G36*
X216131520Y-155706503D02*
G01*
X216254003Y-155757237D01*
X216318647Y-155770095D01*
X216409349Y-155788138D01*
X216471260Y-155820523D01*
X216472839Y-155822074D01*
X223863181Y-163212416D01*
X223896666Y-163273739D01*
X223899500Y-163300097D01*
X223899500Y-177913330D01*
X223899499Y-177913348D01*
X223899499Y-178079054D01*
X223899498Y-178079054D01*
X223902594Y-178090609D01*
X223940423Y-178231785D01*
X223967786Y-178279179D01*
X223967786Y-178279180D01*
X224019475Y-178368709D01*
X224019481Y-178368717D01*
X224138349Y-178487585D01*
X224138355Y-178487590D01*
X243838181Y-198187416D01*
X243871666Y-198248739D01*
X243874500Y-198275097D01*
X243874500Y-200450582D01*
X243854815Y-200517621D01*
X243802011Y-200563376D01*
X243732853Y-200573320D01*
X243669297Y-200544295D01*
X243631523Y-200485517D01*
X243628027Y-200469981D01*
X243622897Y-200437595D01*
X243622897Y-200437594D01*
X243555931Y-200231494D01*
X243519248Y-200159500D01*
X243457545Y-200038400D01*
X243330164Y-199863075D01*
X243176925Y-199709836D01*
X243001600Y-199582455D01*
X242943736Y-199552972D01*
X242808505Y-199484068D01*
X242602404Y-199417102D01*
X242441867Y-199391675D01*
X242388356Y-199383200D01*
X242171644Y-199383200D01*
X242100295Y-199394500D01*
X241957597Y-199417102D01*
X241957594Y-199417102D01*
X241751494Y-199484068D01*
X241558399Y-199582455D01*
X241383072Y-199709838D01*
X241229838Y-199863072D01*
X241229838Y-199863073D01*
X241229836Y-199863075D01*
X241158198Y-199961675D01*
X241110318Y-200027577D01*
X241054988Y-200070242D01*
X240985374Y-200076221D01*
X240923579Y-200043615D01*
X240909682Y-200027577D01*
X240886837Y-199996134D01*
X240790164Y-199863075D01*
X240636925Y-199709836D01*
X240461600Y-199582455D01*
X240403736Y-199552972D01*
X240268505Y-199484068D01*
X240062404Y-199417102D01*
X239901867Y-199391675D01*
X239848356Y-199383200D01*
X239631644Y-199383200D01*
X239588835Y-199389980D01*
X239417595Y-199417102D01*
X239360603Y-199435620D01*
X239290762Y-199437615D01*
X239234605Y-199405370D01*
X231182412Y-191353177D01*
X231182410Y-191353174D01*
X231063539Y-191234303D01*
X231063531Y-191234297D01*
X230949074Y-191168216D01*
X230949073Y-191168215D01*
X230933281Y-191159098D01*
X230926607Y-191155245D01*
X230773879Y-191114321D01*
X230615765Y-191114321D01*
X230608169Y-191114321D01*
X230608153Y-191114322D01*
X226240303Y-191114322D01*
X226173264Y-191094637D01*
X226171412Y-191093424D01*
X226044932Y-191008912D01*
X226044919Y-191008905D01*
X225899248Y-190948567D01*
X225899236Y-190948564D01*
X225744592Y-190917803D01*
X225744589Y-190917803D01*
X225586905Y-190917803D01*
X225586902Y-190917803D01*
X225432257Y-190948564D01*
X225432245Y-190948567D01*
X225286574Y-191008905D01*
X225286561Y-191008912D01*
X225155458Y-191096513D01*
X225155454Y-191096516D01*
X225043960Y-191208010D01*
X225043957Y-191208014D01*
X224956356Y-191339117D01*
X224956351Y-191339127D01*
X224915194Y-191438489D01*
X224871353Y-191492892D01*
X224805058Y-191514957D01*
X224737359Y-191497678D01*
X224712952Y-191478717D01*
X223136819Y-189902584D01*
X223103334Y-189841261D01*
X223100500Y-189814903D01*
X223100500Y-167589060D01*
X223100501Y-167589047D01*
X223100501Y-167420944D01*
X223059576Y-167268214D01*
X223059573Y-167268209D01*
X222980524Y-167131290D01*
X222980518Y-167131282D01*
X215996392Y-160147156D01*
X215962907Y-160085833D01*
X215960073Y-160059475D01*
X215960073Y-155821066D01*
X215979758Y-155754027D01*
X216032562Y-155708272D01*
X216101720Y-155698328D01*
X216131520Y-155706503D01*
G37*
%TD.AperFunction*%
%TA.AperFunction,Conductor*%
G36*
X221516942Y-195120185D02*
G01*
X221537584Y-195136819D01*
X226039156Y-199638392D01*
X226072641Y-199699715D01*
X226067657Y-199769407D01*
X226039157Y-199813753D01*
X225989834Y-199863075D01*
X225870317Y-200027577D01*
X225814987Y-200070242D01*
X225745373Y-200076221D01*
X225683578Y-200043615D01*
X225669681Y-200027576D01*
X225629177Y-199971828D01*
X225550164Y-199863075D01*
X225396925Y-199709836D01*
X225221600Y-199582455D01*
X225221599Y-199582454D01*
X225221597Y-199582453D01*
X225168204Y-199555247D01*
X225117408Y-199507272D01*
X225100500Y-199444763D01*
X225100500Y-199420945D01*
X225100500Y-199420943D01*
X225059577Y-199268216D01*
X225047206Y-199246789D01*
X224980524Y-199131290D01*
X224980521Y-199131286D01*
X224980520Y-199131284D01*
X224868716Y-199019480D01*
X224868715Y-199019479D01*
X224864385Y-199015149D01*
X224864374Y-199015139D01*
X221487590Y-195638355D01*
X221487588Y-195638352D01*
X221368717Y-195519481D01*
X221368716Y-195519480D01*
X221281904Y-195469360D01*
X221281904Y-195469359D01*
X221281900Y-195469358D01*
X221231785Y-195440423D01*
X221079057Y-195399499D01*
X220920943Y-195399499D01*
X220913347Y-195399499D01*
X220913331Y-195399500D01*
X211680301Y-195399500D01*
X211656924Y-195392635D01*
X211632698Y-195389999D01*
X211623994Y-195382966D01*
X211613262Y-195379815D01*
X211597307Y-195361402D01*
X211578352Y-195346086D01*
X211570637Y-195330623D01*
X211567507Y-195327011D01*
X211562595Y-195314504D01*
X211545694Y-195263502D01*
X211543293Y-195193676D01*
X211579025Y-195133634D01*
X211641545Y-195102441D01*
X211663401Y-195100500D01*
X221449903Y-195100500D01*
X221516942Y-195120185D01*
G37*
%TD.AperFunction*%
%TA.AperFunction,Conductor*%
G36*
X230461764Y-192335007D02*
G01*
X230482406Y-192351641D01*
X237302284Y-199171519D01*
X237335769Y-199232842D01*
X237330785Y-199302534D01*
X237288913Y-199358467D01*
X237223449Y-199382884D01*
X237214603Y-199383200D01*
X237091644Y-199383200D01*
X237020295Y-199394500D01*
X236877597Y-199417102D01*
X236877594Y-199417102D01*
X236671494Y-199484068D01*
X236478399Y-199582455D01*
X236303072Y-199709838D01*
X236149838Y-199863072D01*
X236149838Y-199863073D01*
X236149836Y-199863075D01*
X236078198Y-199961675D01*
X236030318Y-200027577D01*
X235974988Y-200070242D01*
X235905374Y-200076221D01*
X235843579Y-200043615D01*
X235829682Y-200027577D01*
X235806837Y-199996134D01*
X235710164Y-199863075D01*
X235556925Y-199709836D01*
X235381600Y-199582455D01*
X235323736Y-199552972D01*
X235188505Y-199484068D01*
X234982404Y-199417102D01*
X234821867Y-199391675D01*
X234768356Y-199383200D01*
X234551644Y-199383200D01*
X234480295Y-199394500D01*
X234337597Y-199417102D01*
X234337594Y-199417102D01*
X234131494Y-199484068D01*
X233938399Y-199582455D01*
X233763072Y-199709838D01*
X233609838Y-199863072D01*
X233609838Y-199863073D01*
X233609836Y-199863075D01*
X233538198Y-199961675D01*
X233490318Y-200027577D01*
X233434988Y-200070242D01*
X233365374Y-200076221D01*
X233303579Y-200043615D01*
X233289682Y-200027577D01*
X233266837Y-199996134D01*
X233170164Y-199863075D01*
X233016925Y-199709836D01*
X232841600Y-199582455D01*
X232783736Y-199552972D01*
X232648505Y-199484068D01*
X232442404Y-199417102D01*
X232281867Y-199391675D01*
X232228356Y-199383200D01*
X232011644Y-199383200D01*
X231940295Y-199394500D01*
X231797597Y-199417102D01*
X231797594Y-199417102D01*
X231591494Y-199484068D01*
X231398399Y-199582455D01*
X231223072Y-199709838D01*
X231069838Y-199863072D01*
X231069838Y-199863073D01*
X231069836Y-199863075D01*
X230998198Y-199961675D01*
X230950318Y-200027577D01*
X230894988Y-200070242D01*
X230825374Y-200076221D01*
X230763579Y-200043615D01*
X230749682Y-200027577D01*
X230726837Y-199996134D01*
X230630164Y-199863075D01*
X230476925Y-199709836D01*
X230301600Y-199582455D01*
X230301599Y-199582454D01*
X230301597Y-199582453D01*
X230248204Y-199555247D01*
X230197408Y-199507272D01*
X230180500Y-199444763D01*
X230180500Y-197284059D01*
X230180501Y-197284046D01*
X230180501Y-197115945D01*
X230180501Y-197115943D01*
X230139577Y-196963215D01*
X230110639Y-196913095D01*
X230060520Y-196826284D01*
X229948716Y-196714480D01*
X229948715Y-196714479D01*
X229944385Y-196710149D01*
X229944374Y-196710139D01*
X225905332Y-192671097D01*
X225871847Y-192609774D01*
X225876831Y-192540082D01*
X225918703Y-192484149D01*
X225945561Y-192468855D01*
X226044920Y-192427700D01*
X226044923Y-192427698D01*
X226044926Y-192427697D01*
X226158752Y-192351641D01*
X226181101Y-192336708D01*
X226182586Y-192338931D01*
X226236270Y-192316151D01*
X226250587Y-192315322D01*
X230394725Y-192315322D01*
X230461764Y-192335007D01*
G37*
%TD.AperFunction*%
%TA.AperFunction,Conductor*%
G36*
X214106956Y-133614264D02*
G01*
X214114198Y-133613643D01*
X214139076Y-133626770D01*
X214165293Y-133636977D01*
X214172526Y-133644419D01*
X214175993Y-133646249D01*
X214189886Y-133662282D01*
X214241600Y-133733459D01*
X214404734Y-133896593D01*
X214591379Y-134032199D01*
X214691368Y-134083145D01*
X214742163Y-134131117D01*
X214759073Y-134193629D01*
X214759073Y-160272903D01*
X214759072Y-160272921D01*
X214759072Y-160438627D01*
X214759071Y-160438627D01*
X214759072Y-160438630D01*
X214799996Y-160591358D01*
X214817007Y-160620821D01*
X214858371Y-160692466D01*
X214879052Y-160728288D01*
X214997922Y-160847158D01*
X214997928Y-160847163D01*
X221863181Y-167712416D01*
X221896666Y-167773739D01*
X221899500Y-167800097D01*
X221899500Y-190028330D01*
X221899499Y-190028348D01*
X221899499Y-190194054D01*
X221899498Y-190194054D01*
X221909201Y-190230264D01*
X221925370Y-190290609D01*
X221940424Y-190346787D01*
X221941995Y-190349508D01*
X221941993Y-190349508D01*
X221941999Y-190349515D01*
X222019475Y-190483709D01*
X222019481Y-190483717D01*
X222138349Y-190602585D01*
X222138355Y-190602590D01*
X228943181Y-197407416D01*
X228976666Y-197468739D01*
X228979500Y-197495097D01*
X228979500Y-198830901D01*
X228973261Y-198852146D01*
X228971682Y-198874233D01*
X228963609Y-198885016D01*
X228959815Y-198897940D01*
X228943080Y-198912440D01*
X228929811Y-198930167D01*
X228917190Y-198934874D01*
X228907011Y-198943695D01*
X228885094Y-198946846D01*
X228864347Y-198954585D01*
X228851185Y-198951722D01*
X228837853Y-198953639D01*
X228817711Y-198944440D01*
X228796074Y-198939734D01*
X228778347Y-198926463D01*
X228774297Y-198924614D01*
X228767820Y-198918583D01*
X228701382Y-198852146D01*
X228673497Y-198824261D01*
X228673494Y-198824259D01*
X208634574Y-178785339D01*
X208601089Y-178724016D01*
X208600638Y-178721849D01*
X208580734Y-178621789D01*
X208569737Y-178566503D01*
X208569735Y-178566498D01*
X208509397Y-178420827D01*
X208509390Y-178420814D01*
X208421789Y-178289711D01*
X208421786Y-178289707D01*
X208310292Y-178178213D01*
X208310288Y-178178210D01*
X208179185Y-178090609D01*
X208179172Y-178090602D01*
X208033501Y-178030264D01*
X208033489Y-178030261D01*
X207878845Y-177999500D01*
X207878842Y-177999500D01*
X207721158Y-177999500D01*
X207721155Y-177999500D01*
X207566510Y-178030261D01*
X207566498Y-178030264D01*
X207420827Y-178090602D01*
X207420814Y-178090609D01*
X207289711Y-178178210D01*
X207289707Y-178178213D01*
X207178213Y-178289707D01*
X207178210Y-178289711D01*
X207090609Y-178420814D01*
X207090602Y-178420827D01*
X207030264Y-178566498D01*
X207030261Y-178566510D01*
X206999500Y-178721153D01*
X206999500Y-178878846D01*
X207030261Y-179033489D01*
X207030264Y-179033501D01*
X207090602Y-179179172D01*
X207090609Y-179179185D01*
X207178210Y-179310288D01*
X207178213Y-179310292D01*
X207289707Y-179421786D01*
X207289711Y-179421789D01*
X207420814Y-179509390D01*
X207420827Y-179509397D01*
X207557930Y-179566186D01*
X207566503Y-179569737D01*
X207631147Y-179582595D01*
X207721849Y-179600638D01*
X207783760Y-179633023D01*
X207785339Y-179634574D01*
X221838583Y-193687818D01*
X221849193Y-193707250D01*
X221863696Y-193723986D01*
X221865613Y-193737319D01*
X221872068Y-193749141D01*
X221870488Y-193771226D01*
X221873640Y-193793145D01*
X221868044Y-193805397D01*
X221867084Y-193818833D01*
X221853814Y-193836558D01*
X221844616Y-193856701D01*
X221833283Y-193863984D01*
X221825212Y-193874766D01*
X221804467Y-193882503D01*
X221785838Y-193894476D01*
X221763918Y-193897627D01*
X221759748Y-193899183D01*
X221750903Y-193899499D01*
X221670943Y-193899499D01*
X221670939Y-193899499D01*
X221663332Y-193899500D01*
X221663331Y-193899499D01*
X221663331Y-193899500D01*
X213149400Y-193899500D01*
X213082361Y-193879815D01*
X213036606Y-193827011D01*
X213026662Y-193757853D01*
X213038915Y-193719205D01*
X213053277Y-193691018D01*
X213122362Y-193555431D01*
X213188051Y-193353262D01*
X213221305Y-193143306D01*
X213221305Y-192930732D01*
X213188051Y-192720776D01*
X213122362Y-192518607D01*
X213112751Y-192499744D01*
X213099855Y-192431074D01*
X213126131Y-192366334D01*
X213183238Y-192326077D01*
X213223236Y-192319449D01*
X216920234Y-192319449D01*
X216987273Y-192339134D01*
X216989125Y-192340347D01*
X217120814Y-192428339D01*
X217120827Y-192428346D01*
X217264943Y-192488040D01*
X217266503Y-192488686D01*
X217410862Y-192517401D01*
X217421153Y-192519448D01*
X217421156Y-192519449D01*
X217421158Y-192519449D01*
X217578844Y-192519449D01*
X217578845Y-192519448D01*
X217733497Y-192488686D01*
X217879179Y-192428343D01*
X218010289Y-192340738D01*
X218121789Y-192229238D01*
X218209394Y-192098128D01*
X218269737Y-191952446D01*
X218300500Y-191797791D01*
X218300500Y-191640107D01*
X218300500Y-191640104D01*
X218300499Y-191640102D01*
X218275606Y-191514957D01*
X218269737Y-191485452D01*
X218266947Y-191478717D01*
X218209397Y-191339776D01*
X218209390Y-191339763D01*
X218121789Y-191208660D01*
X218121786Y-191208656D01*
X218010292Y-191097162D01*
X218010288Y-191097159D01*
X217879185Y-191009558D01*
X217879172Y-191009551D01*
X217733501Y-190949213D01*
X217733489Y-190949210D01*
X217578845Y-190918449D01*
X217578842Y-190918449D01*
X217421158Y-190918449D01*
X217421155Y-190918449D01*
X217266510Y-190949210D01*
X217266498Y-190949213D01*
X217120827Y-191009551D01*
X217120814Y-191009558D01*
X216989125Y-191097551D01*
X216922447Y-191118429D01*
X216920234Y-191118449D01*
X213259561Y-191118449D01*
X213192522Y-191098764D01*
X213146767Y-191045960D01*
X213136823Y-190976802D01*
X213141630Y-190956131D01*
X213152995Y-190921153D01*
X213188051Y-190813262D01*
X213221305Y-190603306D01*
X213221305Y-190390732D01*
X213188051Y-190180776D01*
X213122362Y-189978607D01*
X213025856Y-189789203D01*
X213025854Y-189789200D01*
X213025853Y-189789198D01*
X212900914Y-189617232D01*
X212750591Y-189466909D01*
X212578625Y-189341970D01*
X212389219Y-189245463D01*
X212389218Y-189245462D01*
X212389217Y-189245462D01*
X212187048Y-189179773D01*
X212187046Y-189179772D01*
X212187045Y-189179772D01*
X211985552Y-189147859D01*
X211977092Y-189146519D01*
X211764518Y-189146519D01*
X211756058Y-189147859D01*
X211554565Y-189179772D01*
X211352390Y-189245463D01*
X211162984Y-189341970D01*
X210991018Y-189466909D01*
X210840695Y-189617232D01*
X210715754Y-189789201D01*
X210711007Y-189798518D01*
X210663032Y-189849312D01*
X210595210Y-189866106D01*
X210529076Y-189843567D01*
X210490039Y-189798514D01*
X210485431Y-189789471D01*
X210446075Y-189735301D01*
X210446074Y-189735301D01*
X209813767Y-190367608D01*
X209796730Y-190304026D01*
X209730904Y-190190012D01*
X209637812Y-190096920D01*
X209523798Y-190031094D01*
X209460214Y-190014056D01*
X210092521Y-189381747D01*
X210038355Y-189342394D01*
X209849022Y-189245923D01*
X209646934Y-189180261D01*
X209437051Y-189147019D01*
X209224559Y-189147019D01*
X209014677Y-189180261D01*
X209014674Y-189180261D01*
X208812587Y-189245923D01*
X208623244Y-189342399D01*
X208569087Y-189381746D01*
X208569087Y-189381747D01*
X209201396Y-190014056D01*
X209137812Y-190031094D01*
X209023798Y-190096920D01*
X208930706Y-190190012D01*
X208864880Y-190304026D01*
X208847842Y-190367610D01*
X208215533Y-189735301D01*
X208215532Y-189735301D01*
X208176185Y-189789459D01*
X208176181Y-189789465D01*
X208171565Y-189798524D01*
X208123586Y-189849316D01*
X208055764Y-189866106D01*
X207989631Y-189843562D01*
X207950599Y-189798512D01*
X207945856Y-189789203D01*
X207945854Y-189789200D01*
X207945853Y-189789198D01*
X207820914Y-189617232D01*
X207670591Y-189466909D01*
X207498625Y-189341970D01*
X207309219Y-189245463D01*
X207309218Y-189245462D01*
X207309217Y-189245462D01*
X207107048Y-189179773D01*
X207107046Y-189179772D01*
X207107045Y-189179772D01*
X206905552Y-189147859D01*
X206897092Y-189146519D01*
X206684518Y-189146519D01*
X206676058Y-189147859D01*
X206474565Y-189179772D01*
X206272390Y-189245463D01*
X206082984Y-189341970D01*
X205911018Y-189466909D01*
X205760695Y-189617232D01*
X205635754Y-189789201D01*
X205631289Y-189797965D01*
X205583314Y-189848761D01*
X205515493Y-189865555D01*
X205449358Y-189843017D01*
X205410321Y-189797965D01*
X205405855Y-189789201D01*
X205280914Y-189617232D01*
X205130591Y-189466909D01*
X204958625Y-189341970D01*
X204769219Y-189245463D01*
X204769218Y-189245462D01*
X204769217Y-189245462D01*
X204567048Y-189179773D01*
X204567046Y-189179772D01*
X204567045Y-189179772D01*
X204365552Y-189147859D01*
X204357092Y-189146519D01*
X204144518Y-189146519D01*
X204136058Y-189147859D01*
X203934564Y-189179772D01*
X203762818Y-189235576D01*
X203692977Y-189237571D01*
X203633144Y-189201491D01*
X203602316Y-189138790D01*
X203600500Y-189117645D01*
X203600500Y-178886555D01*
X203620185Y-178819516D01*
X203672989Y-178773761D01*
X203742147Y-178763817D01*
X203760411Y-178768840D01*
X203760676Y-178767969D01*
X203766492Y-178769732D01*
X203766503Y-178769737D01*
X203921153Y-178800499D01*
X203921156Y-178800500D01*
X203921158Y-178800500D01*
X204078844Y-178800500D01*
X204078845Y-178800499D01*
X204233497Y-178769737D01*
X204379179Y-178709394D01*
X204510289Y-178621789D01*
X204621789Y-178510289D01*
X204709394Y-178379179D01*
X204713728Y-178368717D01*
X204723067Y-178346166D01*
X204769737Y-178233497D01*
X204800500Y-178078842D01*
X204800500Y-177921158D01*
X204800500Y-177921155D01*
X204800499Y-177921153D01*
X204769738Y-177766510D01*
X204769737Y-177766503D01*
X204763425Y-177751265D01*
X204709397Y-177620827D01*
X204709390Y-177620814D01*
X204621789Y-177489711D01*
X204621786Y-177489707D01*
X204510292Y-177378213D01*
X204510288Y-177378210D01*
X204379185Y-177290609D01*
X204379172Y-177290602D01*
X204233501Y-177230264D01*
X204233489Y-177230261D01*
X204078845Y-177199500D01*
X204078842Y-177199500D01*
X203921158Y-177199500D01*
X203921155Y-177199500D01*
X203766510Y-177230261D01*
X203760676Y-177232031D01*
X203759873Y-177229385D01*
X203702056Y-177235396D01*
X203639687Y-177203902D01*
X203604245Y-177143689D01*
X203600500Y-177113444D01*
X203600500Y-174800096D01*
X203620185Y-174733057D01*
X203636814Y-174712420D01*
X207368506Y-170980727D01*
X207368511Y-170980724D01*
X207378714Y-170970520D01*
X207378716Y-170970520D01*
X207490520Y-170858716D01*
X207569577Y-170721784D01*
X207599755Y-170609158D01*
X207610500Y-170569058D01*
X207610500Y-170410943D01*
X207610500Y-147050153D01*
X209320500Y-147050153D01*
X209320500Y-147207846D01*
X209351261Y-147362489D01*
X209351264Y-147362501D01*
X209411602Y-147508172D01*
X209411609Y-147508185D01*
X209499210Y-147639288D01*
X209499213Y-147639292D01*
X209610707Y-147750786D01*
X209610711Y-147750789D01*
X209741814Y-147838390D01*
X209741827Y-147838397D01*
X209887498Y-147898735D01*
X209887503Y-147898737D01*
X210042153Y-147929499D01*
X210042156Y-147929500D01*
X210042158Y-147929500D01*
X210199844Y-147929500D01*
X210199845Y-147929499D01*
X210354497Y-147898737D01*
X210500179Y-147838394D01*
X210631289Y-147750789D01*
X210742789Y-147639289D01*
X210830394Y-147508179D01*
X210890737Y-147362497D01*
X210921500Y-147207842D01*
X210921500Y-147050158D01*
X210921500Y-147050155D01*
X210921499Y-147050153D01*
X210890738Y-146895510D01*
X210890737Y-146895503D01*
X210890735Y-146895498D01*
X210830397Y-146749827D01*
X210830390Y-146749814D01*
X210742789Y-146618711D01*
X210742786Y-146618707D01*
X210631292Y-146507213D01*
X210631288Y-146507210D01*
X210500185Y-146419609D01*
X210500172Y-146419602D01*
X210354501Y-146359264D01*
X210354489Y-146359261D01*
X210199845Y-146328500D01*
X210199842Y-146328500D01*
X210042158Y-146328500D01*
X210042155Y-146328500D01*
X209887510Y-146359261D01*
X209887498Y-146359264D01*
X209741827Y-146419602D01*
X209741814Y-146419609D01*
X209610711Y-146507210D01*
X209610707Y-146507213D01*
X209499213Y-146618707D01*
X209499210Y-146618711D01*
X209411609Y-146749814D01*
X209411602Y-146749827D01*
X209351264Y-146895498D01*
X209351261Y-146895510D01*
X209320500Y-147050153D01*
X207610500Y-147050153D01*
X207610500Y-143431153D01*
X212813500Y-143431153D01*
X212813500Y-143588846D01*
X212844261Y-143743489D01*
X212844264Y-143743501D01*
X212904602Y-143889172D01*
X212904609Y-143889185D01*
X212992210Y-144020288D01*
X212992213Y-144020292D01*
X213103707Y-144131786D01*
X213103711Y-144131789D01*
X213234814Y-144219390D01*
X213234827Y-144219397D01*
X213380498Y-144279735D01*
X213380503Y-144279737D01*
X213535153Y-144310499D01*
X213535156Y-144310500D01*
X213535158Y-144310500D01*
X213692844Y-144310500D01*
X213692845Y-144310499D01*
X213847497Y-144279737D01*
X213993179Y-144219394D01*
X214124289Y-144131789D01*
X214235789Y-144020289D01*
X214323394Y-143889179D01*
X214383737Y-143743497D01*
X214414500Y-143588842D01*
X214414500Y-143431158D01*
X214414500Y-143431155D01*
X214414499Y-143431153D01*
X214383738Y-143276510D01*
X214383737Y-143276503D01*
X214383735Y-143276498D01*
X214323397Y-143130827D01*
X214323390Y-143130814D01*
X214235789Y-142999711D01*
X214235786Y-142999707D01*
X214124292Y-142888213D01*
X214124288Y-142888210D01*
X213993185Y-142800609D01*
X213993172Y-142800602D01*
X213847501Y-142740264D01*
X213847489Y-142740261D01*
X213692845Y-142709500D01*
X213692842Y-142709500D01*
X213535158Y-142709500D01*
X213535155Y-142709500D01*
X213380510Y-142740261D01*
X213380498Y-142740264D01*
X213234827Y-142800602D01*
X213234814Y-142800609D01*
X213103711Y-142888210D01*
X213103707Y-142888213D01*
X212992213Y-142999707D01*
X212992210Y-142999711D01*
X212904609Y-143130814D01*
X212904602Y-143130827D01*
X212844264Y-143276498D01*
X212844261Y-143276510D01*
X212813500Y-143431153D01*
X207610500Y-143431153D01*
X207610500Y-134509990D01*
X207581139Y-134400413D01*
X207582802Y-134330563D01*
X207621965Y-134272701D01*
X207686193Y-134245197D01*
X207700914Y-134244320D01*
X207854925Y-134244320D01*
X207854926Y-134244320D01*
X208082792Y-134208229D01*
X208302206Y-134136937D01*
X208507767Y-134032199D01*
X208694412Y-133896593D01*
X208857546Y-133733459D01*
X208909256Y-133662285D01*
X208964585Y-133619622D01*
X209034198Y-133613643D01*
X209095993Y-133646249D01*
X209109886Y-133662282D01*
X209161600Y-133733459D01*
X209324734Y-133896593D01*
X209511379Y-134032199D01*
X209716940Y-134136937D01*
X209891420Y-134193629D01*
X209936353Y-134208229D01*
X210050287Y-134226274D01*
X210164220Y-134244320D01*
X210164221Y-134244320D01*
X210394925Y-134244320D01*
X210394926Y-134244320D01*
X210622792Y-134208229D01*
X210842206Y-134136937D01*
X211047767Y-134032199D01*
X211234412Y-133896593D01*
X211397546Y-133733459D01*
X211449256Y-133662285D01*
X211504585Y-133619622D01*
X211574198Y-133613643D01*
X211635993Y-133646249D01*
X211649886Y-133662282D01*
X211701600Y-133733459D01*
X211864734Y-133896593D01*
X212051379Y-134032199D01*
X212256940Y-134136937D01*
X212431420Y-134193629D01*
X212476353Y-134208229D01*
X212590287Y-134226274D01*
X212704220Y-134244320D01*
X212704221Y-134244320D01*
X212934925Y-134244320D01*
X212934926Y-134244320D01*
X213162792Y-134208229D01*
X213382206Y-134136937D01*
X213587767Y-134032199D01*
X213774412Y-133896593D01*
X213937546Y-133733459D01*
X213989256Y-133662285D01*
X214011530Y-133645110D01*
X214031706Y-133625503D01*
X214038830Y-133624059D01*
X214044585Y-133619622D01*
X214072610Y-133617214D01*
X214100184Y-133611628D01*
X214106956Y-133614264D01*
G37*
%TD.AperFunction*%
%TA.AperFunction,Conductor*%
G36*
X206309052Y-194658734D02*
G01*
X206315530Y-194664766D01*
X206429154Y-194778390D01*
X206429160Y-194778395D01*
X207363181Y-195712416D01*
X207396666Y-195773739D01*
X207399500Y-195800097D01*
X207399500Y-196113444D01*
X207379815Y-196180483D01*
X207327011Y-196226238D01*
X207257853Y-196236182D01*
X207250462Y-196234890D01*
X207238925Y-196232511D01*
X207233497Y-196230263D01*
X207078842Y-196199500D01*
X207078807Y-196199500D01*
X207077303Y-196199190D01*
X207046835Y-196182981D01*
X207016238Y-196166976D01*
X207015633Y-196166381D01*
X207015619Y-196166374D01*
X207015611Y-196166359D01*
X207014660Y-196165425D01*
X206140168Y-195290933D01*
X206106683Y-195229610D01*
X206103849Y-195203252D01*
X206103849Y-194752447D01*
X206123534Y-194685408D01*
X206176338Y-194639653D01*
X206245496Y-194629709D01*
X206309052Y-194658734D01*
G37*
%TD.AperFunction*%
%TA.AperFunction,Conductor*%
G36*
X200137752Y-194093401D02*
G01*
X200164458Y-194113693D01*
X200538584Y-194487819D01*
X200572069Y-194549142D01*
X200567085Y-194618834D01*
X200525213Y-194674767D01*
X200459749Y-194699184D01*
X200450903Y-194699500D01*
X200421155Y-194699500D01*
X200266510Y-194730261D01*
X200266498Y-194730264D01*
X200120827Y-194790602D01*
X200120814Y-194790609D01*
X199989711Y-194878210D01*
X199989707Y-194878213D01*
X199878213Y-194989707D01*
X199878210Y-194989711D01*
X199790609Y-195120814D01*
X199790602Y-195120827D01*
X199730264Y-195266498D01*
X199730261Y-195266510D01*
X199699500Y-195421153D01*
X199699500Y-195578846D01*
X199713914Y-195651309D01*
X199707687Y-195720900D01*
X199664824Y-195776078D01*
X199598934Y-195799322D01*
X199592297Y-195799500D01*
X199200097Y-195799500D01*
X199133058Y-195779815D01*
X199112416Y-195763181D01*
X198568857Y-195219622D01*
X198535372Y-195158299D01*
X198532538Y-195131941D01*
X198532538Y-194420303D01*
X198552223Y-194353264D01*
X198605027Y-194307509D01*
X198674185Y-194297565D01*
X198694841Y-194302368D01*
X198854562Y-194354265D01*
X199064518Y-194387519D01*
X199064519Y-194387519D01*
X199277091Y-194387519D01*
X199277092Y-194387519D01*
X199487048Y-194354265D01*
X199689217Y-194288576D01*
X199878621Y-194192070D01*
X200003892Y-194101056D01*
X200069698Y-194077576D01*
X200137752Y-194093401D01*
G37*
%TD.AperFunction*%
%TA.AperFunction,Conductor*%
G36*
X203052249Y-193691018D02*
G01*
X203091289Y-193736073D01*
X203095396Y-193744134D01*
X203095756Y-193744839D01*
X203220695Y-193916805D01*
X203371018Y-194067128D01*
X203542989Y-194192070D01*
X203542989Y-194192071D01*
X203582598Y-194212252D01*
X203633395Y-194260225D01*
X203650305Y-194322737D01*
X203650305Y-195520007D01*
X203650304Y-195520011D01*
X203650304Y-195565190D01*
X203650304Y-195601708D01*
X203630619Y-195668748D01*
X203577814Y-195714502D01*
X203518600Y-195723015D01*
X203508657Y-195724445D01*
X203508656Y-195724444D01*
X203508656Y-195724445D01*
X203463381Y-195703768D01*
X203445101Y-195695420D01*
X203438623Y-195689388D01*
X202223101Y-194473866D01*
X202189616Y-194412543D01*
X202194600Y-194342851D01*
X202236472Y-194286918D01*
X202254484Y-194275701D01*
X202418621Y-194192070D01*
X202483159Y-194145181D01*
X202590591Y-194067128D01*
X202590593Y-194067125D01*
X202590597Y-194067123D01*
X202740909Y-193916811D01*
X202740911Y-193916807D01*
X202740914Y-193916805D01*
X202861740Y-193750500D01*
X202865856Y-193744835D01*
X202870319Y-193736073D01*
X202918293Y-193685278D01*
X202986113Y-193668482D01*
X203052249Y-193691018D01*
G37*
%TD.AperFunction*%
%TA.AperFunction,Conductor*%
G36*
X202318834Y-180915758D02*
G01*
X202374767Y-180957630D01*
X202399184Y-181023094D01*
X202399500Y-181031940D01*
X202399500Y-189130416D01*
X202379815Y-189197455D01*
X202327011Y-189243210D01*
X202257853Y-189253154D01*
X202233969Y-189246604D01*
X202233851Y-189246968D01*
X202229218Y-189245462D01*
X202229217Y-189245462D01*
X202027048Y-189179773D01*
X202027046Y-189179772D01*
X202027045Y-189179772D01*
X201825552Y-189147859D01*
X201817092Y-189146519D01*
X201604518Y-189146519D01*
X201596058Y-189147859D01*
X201394565Y-189179772D01*
X201192389Y-189245463D01*
X201180793Y-189251372D01*
X201112124Y-189264267D01*
X201047384Y-189237989D01*
X201007128Y-189180882D01*
X201000500Y-189140886D01*
X201000500Y-181900096D01*
X201020185Y-181833057D01*
X201036819Y-181812415D01*
X201328291Y-181520943D01*
X201678739Y-181170494D01*
X201740060Y-181137011D01*
X201742227Y-181136560D01*
X201800162Y-181125035D01*
X201897574Y-181105659D01*
X202043256Y-181045316D01*
X202174366Y-180957711D01*
X202174447Y-180957630D01*
X202187819Y-180944259D01*
X202249142Y-180910774D01*
X202318834Y-180915758D01*
G37*
%TD.AperFunction*%
%TA.AperFunction,Conductor*%
G36*
X205775518Y-134203800D02*
G01*
X206373181Y-134801463D01*
X206406666Y-134862786D01*
X206409500Y-134889144D01*
X206409500Y-170189902D01*
X206400854Y-170219344D01*
X206394330Y-170249333D01*
X206390576Y-170254346D01*
X206389815Y-170256941D01*
X206373178Y-170277587D01*
X206360930Y-170289834D01*
X206299605Y-170323316D01*
X206229914Y-170318329D01*
X206173982Y-170276455D01*
X206170150Y-170271040D01*
X206107398Y-170177125D01*
X206086520Y-170110447D01*
X206086500Y-170108234D01*
X206086500Y-135799092D01*
X206086500Y-135799090D01*
X206045577Y-135646363D01*
X206045573Y-135646356D01*
X205966524Y-135509437D01*
X205966521Y-135509433D01*
X205966520Y-135509431D01*
X205854716Y-135397627D01*
X205854715Y-135397626D01*
X205850385Y-135393296D01*
X205850374Y-135393286D01*
X204899220Y-134442132D01*
X204865735Y-134380809D01*
X204870719Y-134311117D01*
X204912591Y-134255184D01*
X204978055Y-134230767D01*
X205006296Y-134231977D01*
X205084220Y-134244320D01*
X205084221Y-134244320D01*
X205314925Y-134244320D01*
X205314926Y-134244320D01*
X205542792Y-134208229D01*
X205649521Y-134173549D01*
X205719359Y-134171555D01*
X205775518Y-134203800D01*
G37*
%TD.AperFunction*%
%TD*%
M02*
