%TF.GenerationSoftware,KiCad,Pcbnew,9.0.7*%
%TF.CreationDate,2026-03-01T16:01:34+00:00*%
%TF.ProjectId,mobile_receiver,6d6f6269-6c65-45f7-9265-636569766572,rev?*%
%TF.SameCoordinates,Original*%
%TF.FileFunction,Copper,L2,Inr*%
%TF.FilePolarity,Positive*%
%FSLAX46Y46*%
G04 Gerber Fmt 4.6, Leading zero omitted, Abs format (unit mm)*
G04 Created by KiCad (PCBNEW 9.0.7) date 2026-03-01 16:01:34*
%MOMM*%
%LPD*%
G01*
G04 APERTURE LIST*
%TA.AperFunction,Conductor*%
%ADD10C,0.200000*%
%TD*%
%TA.AperFunction,ComponentPad*%
%ADD11C,1.320800*%
%TD*%
%TA.AperFunction,ComponentPad*%
%ADD12C,2.006600*%
%TD*%
%TA.AperFunction,ComponentPad*%
%ADD13C,1.930400*%
%TD*%
%TA.AperFunction,ComponentPad*%
%ADD14R,1.700000X1.700000*%
%TD*%
%TA.AperFunction,ComponentPad*%
%ADD15C,1.700000*%
%TD*%
%TA.AperFunction,ComponentPad*%
%ADD16R,1.752600X1.752600*%
%TD*%
%TA.AperFunction,ComponentPad*%
%ADD17C,1.752600*%
%TD*%
%TA.AperFunction,WasherPad*%
%ADD18C,4.500000*%
%TD*%
%TA.AperFunction,ComponentPad*%
%ADD19C,1.800000*%
%TD*%
%TA.AperFunction,ViaPad*%
%ADD20C,0.600000*%
%TD*%
%TA.AperFunction,Conductor*%
%ADD21C,0.500000*%
%TD*%
G04 APERTURE END LIST*
D10*
%TO.N,+3.3V*%
X191250000Y-190250000D02*
X190000000Y-189000000D01*
X191250000Y-187750000D01*
X191250000Y-190250000D01*
%TA.AperFunction,Conductor*%
G36*
X191250000Y-190250000D02*
G01*
X190000000Y-189000000D01*
X191250000Y-187750000D01*
X191250000Y-190250000D01*
G37*
%TD.AperFunction*%
%TD*%
D11*
%TO.N,/SYS_VBUS*%
%TO.C,SW1*%
X246000000Y-187400001D03*
%TO.N,/SUMMED_POWER*%
X246000000Y-185400001D03*
%TO.N,N/C*%
X246000000Y-183400000D03*
D12*
X246000000Y-189500000D03*
X246000000Y-181300002D03*
%TD*%
D13*
%TO.N,+3.3V*%
%TO.C,U3*%
X220504427Y-132778620D03*
%TO.N,unconnected-(U3-3V3-Pad2)*%
X217964427Y-132778620D03*
%TO.N,GND*%
X215424427Y-132778620D03*
%TO.N,/SYS_SCK*%
X212884427Y-132778620D03*
%TO.N,/SYS_MISO*%
X210344427Y-132778620D03*
%TO.N,/SYS_MOSI*%
X207804427Y-132778620D03*
%TO.N,/TFT_CS*%
X205264427Y-132778620D03*
%TO.N,Net-(U3-TFTRST)*%
X202724427Y-132778620D03*
%TO.N,/TFT_DC*%
X200184427Y-132778620D03*
%TO.N,unconnected-(U3-CARDCS-Pad10)*%
X197644427Y-132778620D03*
%TO.N,unconnected-(U3-LITE-Pad11)*%
X195104427Y-132778620D03*
%TD*%
D14*
%TO.N,+3.3V*%
%TO.C,J1*%
X196630805Y-193037019D03*
D15*
%TO.N,GND*%
X196630805Y-190497019D03*
%TO.N,Net-(J1-Pin_3)*%
X199170805Y-193037019D03*
%TO.N,Net-(J1-Pin_4)*%
X199170805Y-190497019D03*
%TO.N,/SYS_MISO*%
X201710805Y-193037019D03*
%TO.N,/SPI_CS*%
X201710805Y-190497019D03*
%TO.N,/RADIO_RX*%
X204250805Y-193037019D03*
%TO.N,/RADIO_TX*%
X204250805Y-190497019D03*
%TO.N,Net-(J1-Pin_9)*%
X206790805Y-193037019D03*
%TO.N,/RADIO_DIO1*%
X206790805Y-190497019D03*
%TO.N,/RADIO_BUSY*%
X209330805Y-193037019D03*
%TO.N,GND*%
X209330805Y-190497019D03*
%TO.N,/GPIO1*%
X211870805Y-193037019D03*
%TO.N,/GPIO2*%
X211870805Y-190497019D03*
%TD*%
D16*
%TO.N,/USB_DP*%
%TO.C,U2*%
X211800000Y-200760000D03*
D17*
%TO.N,/RADIO_TX*%
X214340000Y-200760000D03*
%TO.N,/RADIO_RX*%
X216880000Y-200760000D03*
%TO.N,GND*%
X219420000Y-200760000D03*
X221960000Y-200760000D03*
%TO.N,/RADIO_RST*%
X224500000Y-200760000D03*
%TO.N,/RADIO_DIO1*%
X227040000Y-200760000D03*
%TO.N,/TFT_DC*%
X229580000Y-200760000D03*
%TO.N,/TFT_CS*%
X232120000Y-200760000D03*
%TO.N,/BTN_A*%
X234660000Y-200760000D03*
%TO.N,/BTN_B*%
X237200000Y-200760000D03*
%TO.N,/RADIO_BUSY*%
X239740000Y-200760000D03*
%TO.N,/SPI_CS*%
X242280000Y-200760000D03*
%TO.N,/USB_DN*%
X211800000Y-216000000D03*
%TO.N,/SYS_VBUS*%
X214340000Y-216000000D03*
%TO.N,GND*%
X216880000Y-216000000D03*
%TO.N,unconnected-(U2-RESET-Pad17)*%
X219420000Y-216000000D03*
%TO.N,+3.3V*%
X221960000Y-216000000D03*
%TO.N,Net-(U2-A3{slash}29)*%
X224500000Y-216000000D03*
%TO.N,/DPAD_ADC*%
X227040000Y-216000000D03*
%TO.N,unconnected-(U2-A1{slash}27-Pad21)*%
X229580000Y-216000000D03*
%TO.N,unconnected-(U2-A0{slash}26-Pad22)*%
X232120000Y-216000000D03*
%TO.N,/SYS_SCK*%
X234660000Y-216000000D03*
%TO.N,/SYS_MISO*%
X237200000Y-216000000D03*
%TO.N,/SYS_MOSI*%
X239740000Y-216000000D03*
%TO.N,/TFT_RESET*%
X242280000Y-216000000D03*
%TD*%
D18*
%TO.N,*%
%TO.C,U1*%
X176669921Y-219268364D03*
X190549921Y-219268364D03*
X176759921Y-201488364D03*
X190549921Y-201488364D03*
D19*
%TO.N,/USB_5V*%
X190549921Y-215458364D03*
%TO.N,/USB_DN*%
X190549921Y-212858364D03*
%TO.N,/USB_DP*%
X190549921Y-210318364D03*
%TO.N,GND*%
X190549921Y-207778364D03*
%TO.N,/VBAT*%
X190549921Y-205238364D03*
%TD*%
D20*
%TO.N,GND*%
X206484028Y-195193009D03*
X204739724Y-212331577D03*
X220838723Y-178238667D03*
X233502348Y-202606033D03*
X205000000Y-159418827D03*
X222743685Y-196611107D03*
X215250000Y-157500000D03*
X218800000Y-197000000D03*
X215131961Y-196994624D03*
X210036006Y-164767505D03*
X215732643Y-165979579D03*
X204045384Y-198709131D03*
X210974530Y-178020185D03*
X204940990Y-154954239D03*
X233352258Y-198251395D03*
X221221203Y-218922597D03*
X205000000Y-165800000D03*
X232895728Y-189771224D03*
X232800000Y-219800000D03*
X205144611Y-214243545D03*
X201846662Y-184588308D03*
X215284727Y-173805770D03*
X200668357Y-217302694D03*
X236015412Y-198410252D03*
X221996526Y-206576871D03*
X220366354Y-171535533D03*
X236000000Y-220400000D03*
X210000000Y-160000000D03*
X214000000Y-213500000D03*
X203415711Y-195306052D03*
X238067106Y-207196848D03*
X193180575Y-209896489D03*
X213483269Y-171715482D03*
X226596111Y-218711298D03*
X233629200Y-206845646D03*
X194250000Y-220500000D03*
X217650040Y-218461573D03*
X239408914Y-197050668D03*
X229768737Y-177586349D03*
X213753194Y-161795743D03*
X235250000Y-173500000D03*
X204600000Y-140600000D03*
X218828667Y-186975817D03*
X199163131Y-195084958D03*
X198553945Y-207450435D03*
X182839003Y-211507706D03*
X225587931Y-194709668D03*
X195000000Y-214560052D03*
X185910415Y-167163630D03*
X208171052Y-219028133D03*
X201461091Y-142475334D03*
X210000000Y-157000000D03*
X185971991Y-169619373D03*
X234735876Y-213980924D03*
X194500000Y-206000000D03*
X227960154Y-189922244D03*
X216500000Y-193200000D03*
X235928829Y-202542178D03*
%TO.N,/DPAD_ADC*%
X182947760Y-179697010D03*
X183885072Y-171227911D03*
%TO.N,/VBAT*%
X232500000Y-218500000D03*
%TO.N,/RADIO_BUSY*%
X217500000Y-191718949D03*
X225665747Y-191718303D03*
%TO.N,/RADIO_TX*%
X207000000Y-197000000D03*
%TO.N,/SYS_MISO*%
X200500000Y-195500000D03*
X202500000Y-206000000D03*
X202500000Y-214415227D03*
%TO.N,Net-(J1-Pin_3)*%
X201664077Y-180335922D03*
X204000000Y-178000000D03*
%TO.N,/SYS_MOSI*%
X231500000Y-211000000D03*
X203000000Y-144000000D03*
X228000000Y-211000000D03*
X201500000Y-195500000D03*
X216500000Y-211000000D03*
X202375000Y-198625000D03*
%TO.N,/SYS_SCK*%
X207800000Y-178800000D03*
X207500000Y-174500000D03*
%TO.N,Net-(R8-Pad1)*%
X188000000Y-169733819D03*
X188000000Y-161000000D03*
%TO.N,/TFT_RESET*%
X216487500Y-154987500D03*
X205500000Y-144000000D03*
%TO.N,/TFT_DC*%
X204800000Y-149800000D03*
X212500000Y-157500000D03*
%TO.N,/SPI_CS*%
X229500000Y-203500000D03*
X227500000Y-203500000D03*
X219500000Y-203500000D03*
X207285000Y-200385000D03*
%TO.N,+3.3V*%
X221000000Y-158000000D03*
X192000000Y-191000000D03*
X183000000Y-189000000D03*
%TO.N,/SUMMED_POWER*%
X200750000Y-213000000D03*
X200750000Y-205000000D03*
%TD*%
D21*
%TO.N,/SYS_VBUS*%
X244021936Y-208870521D02*
X244022145Y-208870730D01*
X246000000Y-187400001D02*
X245066054Y-187400001D01*
X244021936Y-188444119D02*
X244021936Y-208870521D01*
X244022145Y-208870730D02*
X240392875Y-212500000D01*
X217840000Y-212500000D02*
X214340000Y-216000000D01*
X245066054Y-187400001D02*
X244021936Y-188444119D01*
X240392875Y-212500000D02*
X217840000Y-212500000D01*
D10*
%TO.N,Net-(J1-Pin_3)*%
X204000000Y-178000000D02*
X201664078Y-180335922D01*
X201664078Y-180335922D02*
X201664077Y-180335922D01*
%TO.N,/TFT_RESET*%
X205500000Y-144000000D02*
X216487500Y-154987500D01*
%TO.N,/TFT_DC*%
X212500000Y-157500000D02*
X204800000Y-149800000D01*
D21*
%TO.N,+3.3V*%
X221960000Y-216000000D02*
X217460000Y-220500000D01*
X183000000Y-189000000D02*
X190000000Y-189000000D01*
X196630805Y-215130805D02*
X196630805Y-193037019D01*
X202000000Y-220500000D02*
X196630805Y-215130805D01*
X220504427Y-132778620D02*
X221000000Y-133274193D01*
X190000000Y-189000000D02*
X221000000Y-158000000D01*
X217460000Y-220500000D02*
X202000000Y-220500000D01*
X196630805Y-193037019D02*
X196634262Y-193040476D01*
X190000000Y-189000000D02*
X192000000Y-191000000D01*
X221000000Y-133274193D02*
X221000000Y-158000000D01*
%TO.N,/SUMMED_POWER*%
X207250000Y-198500000D02*
X231758735Y-198500000D01*
X231758735Y-198500000D02*
X244858734Y-185400001D01*
X200750000Y-205000000D02*
X200750000Y-213000000D01*
X200750000Y-205000000D02*
X207250000Y-198500000D01*
X244858734Y-185400001D02*
X246000000Y-185400001D01*
%TD*%
%TA.AperFunction,Conductor*%
%TO.N,GND*%
G36*
X218901541Y-199270185D02*
G01*
X218947296Y-199322989D01*
X218957240Y-199392147D01*
X218928215Y-199455703D01*
X218890797Y-199484985D01*
X218698658Y-199582884D01*
X218639453Y-199625898D01*
X218639453Y-199625899D01*
X219252950Y-200239396D01*
X219209213Y-200251116D01*
X219084687Y-200323011D01*
X218983011Y-200424687D01*
X218911116Y-200549213D01*
X218899396Y-200592949D01*
X218285899Y-199979453D01*
X218285897Y-199979453D01*
X218250626Y-200028001D01*
X218195297Y-200070667D01*
X218125683Y-200076646D01*
X218063888Y-200044041D01*
X218049990Y-200028001D01*
X217930166Y-199863078D01*
X217930161Y-199863072D01*
X217776927Y-199709838D01*
X217776925Y-199709836D01*
X217601600Y-199582455D01*
X217410304Y-199484985D01*
X217359508Y-199437010D01*
X217342713Y-199369189D01*
X217365250Y-199303055D01*
X217419965Y-199259603D01*
X217466599Y-199250500D01*
X218834502Y-199250500D01*
X218901541Y-199270185D01*
G37*
%TD.AperFunction*%
%TA.AperFunction,Conductor*%
G36*
X221441541Y-199270185D02*
G01*
X221487296Y-199322989D01*
X221497240Y-199392147D01*
X221468215Y-199455703D01*
X221430797Y-199484985D01*
X221238658Y-199582884D01*
X221179453Y-199625898D01*
X221179453Y-199625899D01*
X221792950Y-200239396D01*
X221749213Y-200251116D01*
X221624687Y-200323011D01*
X221523011Y-200424687D01*
X221451116Y-200549213D01*
X221439396Y-200592949D01*
X220825899Y-199979453D01*
X220825898Y-199979453D01*
X220790319Y-200028425D01*
X220734989Y-200071092D01*
X220665376Y-200077071D01*
X220603581Y-200044466D01*
X220589682Y-200028426D01*
X220554101Y-199979453D01*
X220554099Y-199979452D01*
X219940603Y-200592949D01*
X219928884Y-200549213D01*
X219856989Y-200424687D01*
X219755313Y-200323011D01*
X219630787Y-200251116D01*
X219587049Y-200239396D01*
X220200545Y-199625899D01*
X220200545Y-199625898D01*
X220141342Y-199582885D01*
X219949203Y-199484985D01*
X219898407Y-199437010D01*
X219881612Y-199369189D01*
X219904149Y-199303055D01*
X219958864Y-199259603D01*
X220005498Y-199250500D01*
X221374502Y-199250500D01*
X221441541Y-199270185D01*
G37*
%TD.AperFunction*%
%TA.AperFunction,Conductor*%
G36*
X223980440Y-199270185D02*
G01*
X224026195Y-199322989D01*
X224036139Y-199392147D01*
X224007114Y-199455703D01*
X223969696Y-199484985D01*
X223778399Y-199582455D01*
X223603072Y-199709838D01*
X223449838Y-199863072D01*
X223449838Y-199863073D01*
X223449836Y-199863075D01*
X223391946Y-199942753D01*
X223330009Y-200028002D01*
X223274679Y-200070667D01*
X223205065Y-200076646D01*
X223143270Y-200044040D01*
X223129373Y-200028001D01*
X223094101Y-199979453D01*
X223094099Y-199979452D01*
X222480603Y-200592949D01*
X222468884Y-200549213D01*
X222396989Y-200424687D01*
X222295313Y-200323011D01*
X222170787Y-200251116D01*
X222127049Y-200239396D01*
X222740545Y-199625899D01*
X222740545Y-199625898D01*
X222681342Y-199582885D01*
X222489203Y-199484985D01*
X222438407Y-199437010D01*
X222421612Y-199369189D01*
X222444149Y-199303055D01*
X222498864Y-199259603D01*
X222545498Y-199250500D01*
X223913401Y-199250500D01*
X223980440Y-199270185D01*
G37*
%TD.AperFunction*%
%TA.AperFunction,Conductor*%
G36*
X243157321Y-188226804D02*
G01*
X243191147Y-188228613D01*
X243192086Y-188229290D01*
X243193242Y-188229373D01*
X243220347Y-188249664D01*
X243247824Y-188269473D01*
X243248248Y-188270551D01*
X243249175Y-188271245D01*
X243261007Y-188302967D01*
X243273413Y-188334488D01*
X243273331Y-188336010D01*
X243273592Y-188336709D01*
X243271878Y-188364120D01*
X243272033Y-188364136D01*
X243271608Y-188368451D01*
X243271528Y-188369732D01*
X243271436Y-188370191D01*
X243271436Y-199535138D01*
X243251751Y-199602177D01*
X243198947Y-199647932D01*
X243129789Y-199657876D01*
X243074551Y-199635456D01*
X243001603Y-199582457D01*
X243001602Y-199582456D01*
X243001600Y-199582455D01*
X242867112Y-199513930D01*
X242808505Y-199484068D01*
X242602404Y-199417102D01*
X242428820Y-199389609D01*
X242388356Y-199383200D01*
X242171644Y-199383200D01*
X242131180Y-199389609D01*
X241957597Y-199417102D01*
X241957594Y-199417102D01*
X241751494Y-199484068D01*
X241558399Y-199582455D01*
X241383072Y-199709838D01*
X241229838Y-199863072D01*
X241229838Y-199863073D01*
X241229836Y-199863075D01*
X241158198Y-199961675D01*
X241110318Y-200027577D01*
X241054988Y-200070242D01*
X240985374Y-200076221D01*
X240923579Y-200043615D01*
X240909682Y-200027577D01*
X240886837Y-199996134D01*
X240790164Y-199863075D01*
X240636925Y-199709836D01*
X240461600Y-199582455D01*
X240327112Y-199513930D01*
X240268505Y-199484068D01*
X240062404Y-199417102D01*
X239888820Y-199389609D01*
X239848356Y-199383200D01*
X239631644Y-199383200D01*
X239591180Y-199389609D01*
X239417597Y-199417102D01*
X239417594Y-199417102D01*
X239211494Y-199484068D01*
X239018399Y-199582455D01*
X238843072Y-199709838D01*
X238689838Y-199863072D01*
X238689838Y-199863073D01*
X238689836Y-199863075D01*
X238618198Y-199961675D01*
X238570318Y-200027577D01*
X238514988Y-200070242D01*
X238445374Y-200076221D01*
X238383579Y-200043615D01*
X238369682Y-200027577D01*
X238346837Y-199996134D01*
X238250164Y-199863075D01*
X238096925Y-199709836D01*
X237921600Y-199582455D01*
X237787112Y-199513930D01*
X237728505Y-199484068D01*
X237522404Y-199417102D01*
X237348820Y-199389609D01*
X237308356Y-199383200D01*
X237091644Y-199383200D01*
X237051180Y-199389609D01*
X236877597Y-199417102D01*
X236877594Y-199417102D01*
X236671494Y-199484068D01*
X236478399Y-199582455D01*
X236303072Y-199709838D01*
X236149838Y-199863072D01*
X236149838Y-199863073D01*
X236149836Y-199863075D01*
X236078198Y-199961675D01*
X236030318Y-200027577D01*
X235974988Y-200070242D01*
X235905374Y-200076221D01*
X235843579Y-200043615D01*
X235829682Y-200027577D01*
X235806837Y-199996134D01*
X235710164Y-199863075D01*
X235556925Y-199709836D01*
X235381600Y-199582455D01*
X235247112Y-199513930D01*
X235188505Y-199484068D01*
X234982404Y-199417102D01*
X234808820Y-199389609D01*
X234768356Y-199383200D01*
X234551644Y-199383200D01*
X234511180Y-199389609D01*
X234337597Y-199417102D01*
X234337594Y-199417102D01*
X234131494Y-199484068D01*
X233938399Y-199582455D01*
X233763072Y-199709838D01*
X233609838Y-199863072D01*
X233609838Y-199863073D01*
X233609836Y-199863075D01*
X233538198Y-199961675D01*
X233490318Y-200027577D01*
X233434988Y-200070242D01*
X233365374Y-200076221D01*
X233303579Y-200043615D01*
X233289682Y-200027577D01*
X233266837Y-199996134D01*
X233170164Y-199863075D01*
X233016925Y-199709836D01*
X232841600Y-199582455D01*
X232707112Y-199513930D01*
X232648505Y-199484068D01*
X232442404Y-199417102D01*
X232268820Y-199389609D01*
X232228356Y-199383200D01*
X232196570Y-199383200D01*
X232164069Y-199373656D01*
X232131403Y-199364695D01*
X232130633Y-199363838D01*
X232129531Y-199363515D01*
X232107362Y-199337930D01*
X232084713Y-199312716D01*
X232084528Y-199311579D01*
X232083776Y-199310711D01*
X232078954Y-199277179D01*
X232073537Y-199243746D01*
X232073995Y-199242692D01*
X232073832Y-199241553D01*
X232087912Y-199210721D01*
X232101423Y-199179683D01*
X232102548Y-199178671D01*
X232102857Y-199177997D01*
X232127679Y-199156098D01*
X232166323Y-199130277D01*
X232166324Y-199130276D01*
X232237151Y-199082952D01*
X243062229Y-188257872D01*
X243091944Y-188241646D01*
X243121377Y-188224882D01*
X243122533Y-188224943D01*
X243123550Y-188224389D01*
X243157321Y-188226804D01*
G37*
%TD.AperFunction*%
%TA.AperFunction,Conductor*%
G36*
X208864880Y-190690012D02*
G01*
X208930706Y-190804026D01*
X209023798Y-190897118D01*
X209137812Y-190962944D01*
X209201395Y-190979981D01*
X208569087Y-191612288D01*
X208569087Y-191612289D01*
X208623257Y-191651645D01*
X208623256Y-191651645D01*
X208632300Y-191656253D01*
X208683097Y-191704227D01*
X208699892Y-191772048D01*
X208677355Y-191838183D01*
X208632304Y-191877221D01*
X208622987Y-191881968D01*
X208451018Y-192006909D01*
X208300695Y-192157232D01*
X208175754Y-192329201D01*
X208171289Y-192337965D01*
X208123314Y-192388761D01*
X208055493Y-192405555D01*
X207989358Y-192383017D01*
X207950321Y-192337965D01*
X207945855Y-192329201D01*
X207820914Y-192157232D01*
X207670591Y-192006909D01*
X207498625Y-191881970D01*
X207497920Y-191881610D01*
X207489859Y-191877504D01*
X207439064Y-191829531D01*
X207422268Y-191761711D01*
X207444804Y-191695575D01*
X207489859Y-191656534D01*
X207498621Y-191652070D01*
X207553377Y-191612288D01*
X207670591Y-191527128D01*
X207670593Y-191527125D01*
X207670597Y-191527123D01*
X207820909Y-191376811D01*
X207820911Y-191376807D01*
X207820914Y-191376805D01*
X207906695Y-191258736D01*
X207945856Y-191204835D01*
X207950598Y-191195527D01*
X207998568Y-191144730D01*
X208066388Y-191127930D01*
X208132524Y-191150464D01*
X208171568Y-191195519D01*
X208176178Y-191204566D01*
X208215533Y-191258735D01*
X208847842Y-190626427D01*
X208864880Y-190690012D01*
G37*
%TD.AperFunction*%
%TA.AperFunction,Conductor*%
G36*
X210446075Y-191258736D02*
G01*
X210446075Y-191258735D01*
X210485427Y-191204574D01*
X210490037Y-191195526D01*
X210538010Y-191144728D01*
X210605830Y-191127931D01*
X210671966Y-191150466D01*
X210711009Y-191195523D01*
X210715754Y-191204836D01*
X210840695Y-191376805D01*
X210991018Y-191527128D01*
X211162987Y-191652069D01*
X211171751Y-191656535D01*
X211222547Y-191704510D01*
X211239341Y-191772331D01*
X211216803Y-191838466D01*
X211171751Y-191877503D01*
X211162987Y-191881968D01*
X210991018Y-192006909D01*
X210840695Y-192157232D01*
X210715754Y-192329201D01*
X210711289Y-192337965D01*
X210663314Y-192388761D01*
X210595493Y-192405555D01*
X210529358Y-192383017D01*
X210490321Y-192337965D01*
X210485855Y-192329201D01*
X210360914Y-192157232D01*
X210210591Y-192006909D01*
X210038622Y-191881968D01*
X210029309Y-191877223D01*
X209978512Y-191829249D01*
X209961717Y-191761428D01*
X209984254Y-191695293D01*
X210029312Y-191656251D01*
X210038360Y-191651641D01*
X210092521Y-191612289D01*
X210092522Y-191612289D01*
X209460213Y-190979981D01*
X209523798Y-190962944D01*
X209637812Y-190897118D01*
X209730904Y-190804026D01*
X209796730Y-190690012D01*
X209813767Y-190626428D01*
X210446075Y-191258736D01*
G37*
%TD.AperFunction*%
%TA.AperFunction,Conductor*%
G36*
X197746075Y-191258736D02*
G01*
X197746075Y-191258735D01*
X197785427Y-191204574D01*
X197790037Y-191195526D01*
X197838010Y-191144728D01*
X197905830Y-191127931D01*
X197971966Y-191150466D01*
X198011009Y-191195523D01*
X198015754Y-191204836D01*
X198140695Y-191376805D01*
X198291018Y-191527128D01*
X198462987Y-191652069D01*
X198471751Y-191656535D01*
X198522547Y-191704510D01*
X198539341Y-191772331D01*
X198516803Y-191838466D01*
X198471751Y-191877503D01*
X198462987Y-191881968D01*
X198291020Y-192006908D01*
X198177478Y-192120450D01*
X198116155Y-192153934D01*
X198046463Y-192148950D01*
X197990530Y-192107078D01*
X197973615Y-192076101D01*
X197924602Y-191944690D01*
X197924598Y-191944683D01*
X197838352Y-191829474D01*
X197838349Y-191829471D01*
X197723140Y-191743225D01*
X197723133Y-191743221D01*
X197588287Y-191692927D01*
X197588288Y-191692927D01*
X197528688Y-191686520D01*
X197528686Y-191686519D01*
X197528678Y-191686519D01*
X197528670Y-191686519D01*
X197518114Y-191686519D01*
X197451075Y-191666834D01*
X197430433Y-191650200D01*
X196760213Y-190979981D01*
X196823798Y-190962944D01*
X196937812Y-190897118D01*
X197030904Y-190804026D01*
X197096730Y-190690012D01*
X197113767Y-190626427D01*
X197746075Y-191258736D01*
G37*
%TD.AperFunction*%
%TA.AperFunction,Conductor*%
G36*
X248542539Y-80420185D02*
G01*
X248588294Y-80472989D01*
X248599500Y-80524500D01*
X248599500Y-221475500D01*
X248579815Y-221542539D01*
X248527011Y-221588294D01*
X248475500Y-221599500D01*
X246528301Y-221599500D01*
X246461262Y-221579815D01*
X246415507Y-221527011D01*
X246405563Y-221457853D01*
X246434588Y-221394297D01*
X246487346Y-221358459D01*
X246561163Y-221332628D01*
X246665079Y-221296267D01*
X246907997Y-221179284D01*
X247136289Y-221035838D01*
X247347085Y-220867734D01*
X247537734Y-220677085D01*
X247705838Y-220466289D01*
X247849284Y-220237997D01*
X247966267Y-219995079D01*
X248055316Y-219740591D01*
X248115312Y-219477732D01*
X248145500Y-219209809D01*
X248145500Y-218940191D01*
X248115312Y-218672268D01*
X248055316Y-218409409D01*
X247966267Y-218154921D01*
X247863348Y-217941208D01*
X247849285Y-217912005D01*
X247828050Y-217878210D01*
X247705838Y-217683711D01*
X247537734Y-217472915D01*
X247347085Y-217282266D01*
X247136289Y-217114162D01*
X246907997Y-216970716D01*
X246907994Y-216970714D01*
X246665082Y-216853734D01*
X246410602Y-216764687D01*
X246410594Y-216764684D01*
X246197109Y-216715958D01*
X246147732Y-216704688D01*
X246147728Y-216704687D01*
X246147719Y-216704686D01*
X245879813Y-216674500D01*
X245879809Y-216674500D01*
X245610191Y-216674500D01*
X245610186Y-216674500D01*
X245342280Y-216704686D01*
X245342268Y-216704688D01*
X245079405Y-216764684D01*
X245079397Y-216764687D01*
X244824917Y-216853734D01*
X244582005Y-216970714D01*
X244353712Y-217114161D01*
X244142915Y-217282265D01*
X243952265Y-217472915D01*
X243784161Y-217683712D01*
X243640714Y-217912005D01*
X243523734Y-218154917D01*
X243434687Y-218409397D01*
X243434684Y-218409405D01*
X243374688Y-218672268D01*
X243374686Y-218672280D01*
X243344500Y-218940186D01*
X243344500Y-219209813D01*
X243374686Y-219477719D01*
X243374688Y-219477731D01*
X243434684Y-219740594D01*
X243434687Y-219740602D01*
X243523734Y-219995082D01*
X243640714Y-220237994D01*
X243640716Y-220237997D01*
X243784162Y-220466289D01*
X243952266Y-220677085D01*
X244142915Y-220867734D01*
X244353711Y-221035838D01*
X244582003Y-221179284D01*
X244824921Y-221296267D01*
X244899845Y-221322484D01*
X245002654Y-221358459D01*
X245059430Y-221399180D01*
X245085177Y-221464133D01*
X245071721Y-221532695D01*
X245023333Y-221583098D01*
X244961699Y-221599500D01*
X192392600Y-221599500D01*
X192325561Y-221579815D01*
X192279806Y-221527011D01*
X192269862Y-221457853D01*
X192298887Y-221394297D01*
X192315287Y-221378553D01*
X192340484Y-221358459D01*
X192385595Y-221322484D01*
X192604041Y-221104038D01*
X192796656Y-220862507D01*
X192961016Y-220600929D01*
X193095056Y-220322593D01*
X193197089Y-220031000D01*
X193265832Y-219729816D01*
X193267707Y-219713181D01*
X193300420Y-219422835D01*
X193300421Y-219422831D01*
X193300421Y-219113896D01*
X193300420Y-219113892D01*
X193265834Y-218806926D01*
X193265831Y-218806908D01*
X193235100Y-218672268D01*
X193197089Y-218505728D01*
X193163385Y-218409409D01*
X193095058Y-218214141D01*
X193095056Y-218214135D01*
X192961016Y-217935799D01*
X192796656Y-217674221D01*
X192604041Y-217432690D01*
X192385595Y-217214244D01*
X192351764Y-217187265D01*
X192285098Y-217134100D01*
X192144064Y-217021629D01*
X191963406Y-216908114D01*
X191882483Y-216857267D01*
X191604158Y-216723232D01*
X191604151Y-216723229D01*
X191604150Y-216723229D01*
X191539669Y-216700666D01*
X191482896Y-216659946D01*
X191457149Y-216594993D01*
X191470605Y-216526431D01*
X191492940Y-216495951D01*
X191618163Y-216370729D01*
X191747736Y-216192386D01*
X191847816Y-215995970D01*
X191915936Y-215786315D01*
X191950421Y-215568586D01*
X191950421Y-215348142D01*
X191915936Y-215130413D01*
X191847816Y-214920758D01*
X191847816Y-214920757D01*
X191813158Y-214852739D01*
X191747736Y-214724342D01*
X191731181Y-214701556D01*
X191618168Y-214546005D01*
X191618164Y-214546000D01*
X191462280Y-214390116D01*
X191281374Y-214258682D01*
X191238708Y-214203353D01*
X191232729Y-214133739D01*
X191265334Y-214071944D01*
X191281374Y-214058046D01*
X191462280Y-213926611D01*
X191462282Y-213926608D01*
X191462286Y-213926606D01*
X191618163Y-213770729D01*
X191747736Y-213592386D01*
X191847816Y-213395970D01*
X191915936Y-213186315D01*
X191950421Y-212968586D01*
X191950421Y-212748142D01*
X191915936Y-212530413D01*
X191847816Y-212320758D01*
X191847816Y-212320757D01*
X191813158Y-212252739D01*
X191747736Y-212124342D01*
X191731181Y-212101556D01*
X191618168Y-211946005D01*
X191618164Y-211946000D01*
X191462284Y-211790120D01*
X191462279Y-211790116D01*
X191322666Y-211688682D01*
X191280000Y-211633353D01*
X191274021Y-211563739D01*
X191306626Y-211501944D01*
X191322666Y-211488046D01*
X191462279Y-211386611D01*
X191462277Y-211386611D01*
X191462286Y-211386606D01*
X191618163Y-211230729D01*
X191747736Y-211052386D01*
X191847816Y-210855970D01*
X191915936Y-210646315D01*
X191950421Y-210428586D01*
X191950421Y-210208142D01*
X191915936Y-209990413D01*
X191847816Y-209780758D01*
X191847816Y-209780757D01*
X191813158Y-209712739D01*
X191747736Y-209584342D01*
X191731181Y-209561556D01*
X191618168Y-209406005D01*
X191618164Y-209406000D01*
X191462284Y-209250120D01*
X191462279Y-209250116D01*
X191322240Y-209148372D01*
X191279574Y-209093042D01*
X191273595Y-209023429D01*
X191306200Y-208961634D01*
X191322240Y-208947736D01*
X191347434Y-208929430D01*
X191347435Y-208929430D01*
X190679330Y-208261326D01*
X190742914Y-208244289D01*
X190856928Y-208178463D01*
X190950020Y-208085371D01*
X191015846Y-207971357D01*
X191032883Y-207907773D01*
X191700987Y-208575878D01*
X191700987Y-208575877D01*
X191747307Y-208512124D01*
X191847353Y-208315774D01*
X191915447Y-208106199D01*
X191949921Y-207888545D01*
X191949921Y-207668182D01*
X191915447Y-207450528D01*
X191847353Y-207240953D01*
X191747309Y-207044607D01*
X191700987Y-206980849D01*
X191700986Y-206980849D01*
X191032883Y-207648953D01*
X191015846Y-207585371D01*
X190950020Y-207471357D01*
X190856928Y-207378265D01*
X190742914Y-207312439D01*
X190679328Y-207295401D01*
X191347434Y-206627296D01*
X191322240Y-206608992D01*
X191279574Y-206553662D01*
X191273595Y-206484049D01*
X191306200Y-206422253D01*
X191322234Y-206408358D01*
X191462286Y-206306606D01*
X191618163Y-206150729D01*
X191747736Y-205972386D01*
X191847816Y-205775970D01*
X191915936Y-205566315D01*
X191950421Y-205348586D01*
X191950421Y-205128142D01*
X191915936Y-204910413D01*
X191847816Y-204700758D01*
X191847816Y-204700757D01*
X191807082Y-204620814D01*
X191747736Y-204504342D01*
X191731181Y-204481556D01*
X191618168Y-204326005D01*
X191618164Y-204326000D01*
X191537393Y-204245229D01*
X191503908Y-204183906D01*
X191508892Y-204114214D01*
X191550764Y-204058281D01*
X191584116Y-204040509D01*
X191604150Y-204033499D01*
X191882486Y-203899459D01*
X192144064Y-203735099D01*
X192385595Y-203542484D01*
X192604041Y-203324038D01*
X192796656Y-203082507D01*
X192961016Y-202820929D01*
X193095056Y-202542593D01*
X193197089Y-202251000D01*
X193265832Y-201949816D01*
X193267263Y-201937120D01*
X193292987Y-201708806D01*
X193300421Y-201642829D01*
X193300421Y-201333899D01*
X193283700Y-201185499D01*
X193265834Y-201026926D01*
X193265831Y-201026908D01*
X193197089Y-200725728D01*
X193197085Y-200725716D01*
X193095058Y-200434141D01*
X193095056Y-200434135D01*
X192961016Y-200155799D01*
X192796656Y-199894221D01*
X192604041Y-199652690D01*
X192385595Y-199434244D01*
X192385414Y-199434100D01*
X192304019Y-199369189D01*
X192144064Y-199241629D01*
X191891532Y-199082953D01*
X191882483Y-199077267D01*
X191604157Y-198943232D01*
X191604143Y-198943226D01*
X191312568Y-198841199D01*
X191312556Y-198841195D01*
X191011376Y-198772453D01*
X191011358Y-198772450D01*
X190704392Y-198737864D01*
X190704386Y-198737864D01*
X190395456Y-198737864D01*
X190395449Y-198737864D01*
X190088483Y-198772450D01*
X190088465Y-198772453D01*
X189787285Y-198841195D01*
X189787273Y-198841199D01*
X189495698Y-198943226D01*
X189495684Y-198943232D01*
X189217358Y-199077267D01*
X188955779Y-199241628D01*
X188714247Y-199434243D01*
X188495800Y-199652690D01*
X188303185Y-199894222D01*
X188138824Y-200155801D01*
X188004789Y-200434127D01*
X188004783Y-200434141D01*
X187902756Y-200725716D01*
X187902752Y-200725728D01*
X187834010Y-201026908D01*
X187834007Y-201026926D01*
X187799421Y-201333892D01*
X187799421Y-201642835D01*
X187834007Y-201949801D01*
X187834010Y-201949819D01*
X187902752Y-202250999D01*
X187902756Y-202251011D01*
X188004783Y-202542586D01*
X188004789Y-202542600D01*
X188138824Y-202820926D01*
X188138826Y-202820929D01*
X188303186Y-203082507D01*
X188495801Y-203324038D01*
X188714247Y-203542484D01*
X188955778Y-203735099D01*
X189217356Y-203899459D01*
X189495692Y-204033499D01*
X189515714Y-204040505D01*
X189515723Y-204040508D01*
X189572498Y-204081231D01*
X189598244Y-204146184D01*
X189584787Y-204214745D01*
X189562448Y-204245230D01*
X189481672Y-204326006D01*
X189352108Y-204504338D01*
X189252025Y-204700757D01*
X189252024Y-204700760D01*
X189183906Y-204910411D01*
X189183906Y-204910413D01*
X189149421Y-205128142D01*
X189149421Y-205348586D01*
X189166663Y-205457450D01*
X189183906Y-205566316D01*
X189252024Y-205775967D01*
X189252025Y-205775970D01*
X189352108Y-205972389D01*
X189481673Y-206150722D01*
X189481677Y-206150727D01*
X189637561Y-206306611D01*
X189777600Y-206408354D01*
X189820266Y-206463683D01*
X189826245Y-206533297D01*
X189793640Y-206595092D01*
X189777600Y-206608990D01*
X189752406Y-206627294D01*
X189752406Y-206627296D01*
X190420511Y-207295401D01*
X190356928Y-207312439D01*
X190242914Y-207378265D01*
X190149822Y-207471357D01*
X190083996Y-207585371D01*
X190066958Y-207648954D01*
X189398853Y-206980849D01*
X189398852Y-206980849D01*
X189352537Y-207044597D01*
X189252488Y-207240953D01*
X189184394Y-207450528D01*
X189149921Y-207668182D01*
X189149921Y-207888545D01*
X189184394Y-208106199D01*
X189252488Y-208315774D01*
X189352532Y-208512120D01*
X189398853Y-208575877D01*
X190066958Y-207907772D01*
X190083996Y-207971357D01*
X190149822Y-208085371D01*
X190242914Y-208178463D01*
X190356928Y-208244289D01*
X190420511Y-208261326D01*
X189752406Y-208929429D01*
X189752406Y-208929430D01*
X189777601Y-208947735D01*
X189820267Y-209003065D01*
X189826246Y-209072678D01*
X189793641Y-209134474D01*
X189777602Y-209148372D01*
X189637557Y-209250120D01*
X189481677Y-209406000D01*
X189481673Y-209406005D01*
X189352108Y-209584338D01*
X189252025Y-209780757D01*
X189252024Y-209780760D01*
X189183906Y-209990411D01*
X189149421Y-210208142D01*
X189149421Y-210428585D01*
X189183906Y-210646316D01*
X189252024Y-210855967D01*
X189252025Y-210855970D01*
X189352108Y-211052389D01*
X189481673Y-211230722D01*
X189481677Y-211230727D01*
X189637557Y-211386607D01*
X189637562Y-211386611D01*
X189777175Y-211488046D01*
X189819841Y-211543376D01*
X189825820Y-211612989D01*
X189793214Y-211674784D01*
X189777175Y-211688682D01*
X189637562Y-211790116D01*
X189637557Y-211790120D01*
X189481677Y-211946000D01*
X189481673Y-211946005D01*
X189352108Y-212124338D01*
X189252025Y-212320757D01*
X189252024Y-212320760D01*
X189183906Y-212530411D01*
X189149421Y-212748142D01*
X189149421Y-212968585D01*
X189183906Y-213186316D01*
X189252024Y-213395967D01*
X189252025Y-213395970D01*
X189352108Y-213592389D01*
X189481673Y-213770722D01*
X189481677Y-213770727D01*
X189637557Y-213926607D01*
X189637562Y-213926611D01*
X189818467Y-214058046D01*
X189861133Y-214113376D01*
X189867112Y-214182989D01*
X189834507Y-214244784D01*
X189818467Y-214258682D01*
X189637562Y-214390116D01*
X189637557Y-214390120D01*
X189481677Y-214546000D01*
X189481673Y-214546005D01*
X189352108Y-214724338D01*
X189252025Y-214920757D01*
X189252024Y-214920760D01*
X189183906Y-215130411D01*
X189149421Y-215348142D01*
X189149421Y-215568585D01*
X189183906Y-215786316D01*
X189252024Y-215995967D01*
X189252025Y-215995970D01*
X189352108Y-216192389D01*
X189481673Y-216370722D01*
X189481677Y-216370727D01*
X189606895Y-216495945D01*
X189640380Y-216557268D01*
X189635396Y-216626960D01*
X189593524Y-216682893D01*
X189560169Y-216700667D01*
X189495698Y-216723226D01*
X189495684Y-216723232D01*
X189217358Y-216857267D01*
X188955779Y-217021628D01*
X188714247Y-217214243D01*
X188495800Y-217432690D01*
X188303185Y-217674222D01*
X188138824Y-217935801D01*
X188004789Y-218214127D01*
X188004783Y-218214141D01*
X187902756Y-218505716D01*
X187902752Y-218505728D01*
X187834010Y-218806908D01*
X187834007Y-218806926D01*
X187799421Y-219113892D01*
X187799421Y-219422835D01*
X187834007Y-219729801D01*
X187834009Y-219729813D01*
X187834010Y-219729816D01*
X187836470Y-219740594D01*
X187902752Y-220030999D01*
X187902756Y-220031011D01*
X188004783Y-220322586D01*
X188004789Y-220322600D01*
X188138824Y-220600926D01*
X188138826Y-220600929D01*
X188303186Y-220862507D01*
X188365653Y-220940838D01*
X188495800Y-221104037D01*
X188714247Y-221322484D01*
X188784555Y-221378553D01*
X188824695Y-221435741D01*
X188827545Y-221505553D01*
X188792199Y-221565823D01*
X188729881Y-221597416D01*
X188707242Y-221599500D01*
X178512600Y-221599500D01*
X178445561Y-221579815D01*
X178399806Y-221527011D01*
X178389862Y-221457853D01*
X178418887Y-221394297D01*
X178435287Y-221378553D01*
X178460484Y-221358459D01*
X178505595Y-221322484D01*
X178724041Y-221104038D01*
X178916656Y-220862507D01*
X179081016Y-220600929D01*
X179215056Y-220322593D01*
X179317089Y-220031000D01*
X179385832Y-219729816D01*
X179387707Y-219713181D01*
X179420420Y-219422835D01*
X179420421Y-219422831D01*
X179420421Y-219113896D01*
X179420420Y-219113892D01*
X179385834Y-218806926D01*
X179385831Y-218806908D01*
X179355100Y-218672268D01*
X179317089Y-218505728D01*
X179283385Y-218409409D01*
X179215058Y-218214141D01*
X179215056Y-218214135D01*
X179081016Y-217935799D01*
X178916656Y-217674221D01*
X178724041Y-217432690D01*
X178505595Y-217214244D01*
X178471764Y-217187265D01*
X178405098Y-217134100D01*
X178264064Y-217021629D01*
X178083406Y-216908114D01*
X178002483Y-216857267D01*
X177724157Y-216723232D01*
X177724143Y-216723226D01*
X177432568Y-216621199D01*
X177432556Y-216621195D01*
X177131376Y-216552453D01*
X177131358Y-216552450D01*
X176824392Y-216517864D01*
X176824386Y-216517864D01*
X176515456Y-216517864D01*
X176515449Y-216517864D01*
X176208483Y-216552450D01*
X176208465Y-216552453D01*
X175907285Y-216621195D01*
X175907273Y-216621199D01*
X175615698Y-216723226D01*
X175615684Y-216723232D01*
X175337358Y-216857267D01*
X175075779Y-217021628D01*
X174834247Y-217214243D01*
X174615800Y-217432690D01*
X174423185Y-217674222D01*
X174258824Y-217935801D01*
X174124789Y-218214127D01*
X174124783Y-218214141D01*
X174022756Y-218505716D01*
X174022752Y-218505728D01*
X173954010Y-218806908D01*
X173954007Y-218806926D01*
X173919421Y-219113892D01*
X173919421Y-219422835D01*
X173954007Y-219729801D01*
X173954009Y-219729813D01*
X173954010Y-219729816D01*
X173956470Y-219740594D01*
X174022752Y-220030999D01*
X174022756Y-220031011D01*
X174124783Y-220322586D01*
X174124789Y-220322600D01*
X174258824Y-220600926D01*
X174258826Y-220600929D01*
X174423186Y-220862507D01*
X174485653Y-220940838D01*
X174615800Y-221104037D01*
X174834247Y-221322484D01*
X174904555Y-221378553D01*
X174944695Y-221435741D01*
X174947545Y-221505553D01*
X174912199Y-221565823D01*
X174849881Y-221597416D01*
X174827242Y-221599500D01*
X169944154Y-221599500D01*
X169877115Y-221579815D01*
X169831360Y-221527011D01*
X169821416Y-221457853D01*
X169850441Y-221394297D01*
X169909219Y-221356523D01*
X169930270Y-221352280D01*
X169939169Y-221351276D01*
X169947732Y-221350312D01*
X170210591Y-221290316D01*
X170465079Y-221201267D01*
X170707997Y-221084284D01*
X170936289Y-220940838D01*
X171147085Y-220772734D01*
X171337734Y-220582085D01*
X171505838Y-220371289D01*
X171649284Y-220142997D01*
X171766267Y-219900079D01*
X171855316Y-219645591D01*
X171915312Y-219382732D01*
X171945500Y-219114809D01*
X171945500Y-218845191D01*
X171915312Y-218577268D01*
X171855316Y-218314409D01*
X171838555Y-218266510D01*
X171799507Y-218154917D01*
X171766267Y-218059921D01*
X171649284Y-217817003D01*
X171505838Y-217588711D01*
X171337734Y-217377915D01*
X171147085Y-217187266D01*
X170936289Y-217019162D01*
X170741751Y-216896925D01*
X170707994Y-216875714D01*
X170465082Y-216758734D01*
X170210602Y-216669687D01*
X170210594Y-216669684D01*
X169998165Y-216621199D01*
X169947732Y-216609688D01*
X169947728Y-216609687D01*
X169947719Y-216609686D01*
X169679813Y-216579500D01*
X169679809Y-216579500D01*
X169410191Y-216579500D01*
X169410186Y-216579500D01*
X169142280Y-216609686D01*
X169142268Y-216609688D01*
X168879405Y-216669684D01*
X168879397Y-216669687D01*
X168624917Y-216758734D01*
X168382005Y-216875714D01*
X168153712Y-217019161D01*
X167942915Y-217187265D01*
X167752265Y-217377915D01*
X167584161Y-217588712D01*
X167440714Y-217817005D01*
X167323734Y-218059917D01*
X167234687Y-218314397D01*
X167234684Y-218314405D01*
X167174688Y-218577268D01*
X167174686Y-218577280D01*
X167144500Y-218845186D01*
X167144500Y-219114813D01*
X167174686Y-219382719D01*
X167174688Y-219382731D01*
X167234684Y-219645594D01*
X167234687Y-219645602D01*
X167323734Y-219900082D01*
X167440714Y-220142994D01*
X167440716Y-220142997D01*
X167584162Y-220371289D01*
X167752266Y-220582085D01*
X167942915Y-220772734D01*
X168153711Y-220940838D01*
X168382003Y-221084284D01*
X168624921Y-221201267D01*
X168816049Y-221268145D01*
X168879397Y-221290312D01*
X168879405Y-221290315D01*
X168879408Y-221290315D01*
X168879409Y-221290316D01*
X169142268Y-221350312D01*
X169149630Y-221351141D01*
X169159730Y-221352280D01*
X169224144Y-221379346D01*
X169263699Y-221436941D01*
X169265836Y-221506778D01*
X169229878Y-221566685D01*
X169167240Y-221597640D01*
X169145846Y-221599500D01*
X166994500Y-221599500D01*
X166927461Y-221579815D01*
X166881706Y-221527011D01*
X166870500Y-221475500D01*
X166870500Y-201333892D01*
X174009421Y-201333892D01*
X174009421Y-201642835D01*
X174044007Y-201949801D01*
X174044010Y-201949819D01*
X174112752Y-202250999D01*
X174112756Y-202251011D01*
X174214783Y-202542586D01*
X174214789Y-202542600D01*
X174348824Y-202820926D01*
X174348826Y-202820929D01*
X174513186Y-203082507D01*
X174705801Y-203324038D01*
X174924247Y-203542484D01*
X175165778Y-203735099D01*
X175427356Y-203899459D01*
X175705692Y-204033499D01*
X175705698Y-204033501D01*
X175997273Y-204135528D01*
X175997285Y-204135532D01*
X176298469Y-204204275D01*
X176298475Y-204204275D01*
X176298483Y-204204277D01*
X176503127Y-204227334D01*
X176605450Y-204238863D01*
X176605453Y-204238864D01*
X176605456Y-204238864D01*
X176914389Y-204238864D01*
X176914390Y-204238863D01*
X177071277Y-204221186D01*
X177221358Y-204204277D01*
X177221363Y-204204276D01*
X177221373Y-204204275D01*
X177522557Y-204135532D01*
X177814150Y-204033499D01*
X178092486Y-203899459D01*
X178354064Y-203735099D01*
X178595595Y-203542484D01*
X178814041Y-203324038D01*
X179006656Y-203082507D01*
X179171016Y-202820929D01*
X179305056Y-202542593D01*
X179407089Y-202251000D01*
X179475832Y-201949816D01*
X179477263Y-201937120D01*
X179502987Y-201708806D01*
X179510421Y-201642829D01*
X179510421Y-201333899D01*
X179493700Y-201185499D01*
X179475834Y-201026926D01*
X179475831Y-201026908D01*
X179407089Y-200725728D01*
X179407085Y-200725716D01*
X179305058Y-200434141D01*
X179305056Y-200434135D01*
X179171016Y-200155799D01*
X179006656Y-199894221D01*
X178814041Y-199652690D01*
X178595595Y-199434244D01*
X178595414Y-199434100D01*
X178514019Y-199369189D01*
X178354064Y-199241629D01*
X178101532Y-199082953D01*
X178092483Y-199077267D01*
X177814157Y-198943232D01*
X177814143Y-198943226D01*
X177522568Y-198841199D01*
X177522556Y-198841195D01*
X177221376Y-198772453D01*
X177221358Y-198772450D01*
X176914392Y-198737864D01*
X176914386Y-198737864D01*
X176605456Y-198737864D01*
X176605449Y-198737864D01*
X176298483Y-198772450D01*
X176298465Y-198772453D01*
X175997285Y-198841195D01*
X175997273Y-198841199D01*
X175705698Y-198943226D01*
X175705684Y-198943232D01*
X175427358Y-199077267D01*
X175165779Y-199241628D01*
X174924247Y-199434243D01*
X174705800Y-199652690D01*
X174513185Y-199894222D01*
X174348824Y-200155801D01*
X174214789Y-200434127D01*
X174214783Y-200434141D01*
X174112756Y-200725716D01*
X174112752Y-200725728D01*
X174044010Y-201026908D01*
X174044007Y-201026926D01*
X174009421Y-201333892D01*
X166870500Y-201333892D01*
X166870500Y-192139154D01*
X195280305Y-192139154D01*
X195280305Y-193934889D01*
X195280306Y-193934895D01*
X195286713Y-193994502D01*
X195337007Y-194129347D01*
X195337011Y-194129354D01*
X195423257Y-194244563D01*
X195423260Y-194244566D01*
X195538469Y-194330812D01*
X195538476Y-194330816D01*
X195583423Y-194347580D01*
X195673322Y-194381110D01*
X195732932Y-194387519D01*
X195756302Y-194387518D01*
X195823341Y-194407200D01*
X195869097Y-194460002D01*
X195880305Y-194511518D01*
X195880305Y-215204723D01*
X195880305Y-215204725D01*
X195880304Y-215204725D01*
X195909145Y-215349712D01*
X195909148Y-215349722D01*
X195965717Y-215486293D01*
X195965725Y-215486307D01*
X195989295Y-215521581D01*
X195989296Y-215521584D01*
X196047851Y-215609219D01*
X196047857Y-215609226D01*
X200084224Y-219645591D01*
X201417048Y-220978415D01*
X201417049Y-220978416D01*
X201474471Y-221035838D01*
X201521585Y-221082952D01*
X201644498Y-221165080D01*
X201644511Y-221165087D01*
X201781082Y-221221656D01*
X201781087Y-221221658D01*
X201781091Y-221221658D01*
X201781092Y-221221659D01*
X201926079Y-221250500D01*
X201926082Y-221250500D01*
X217533920Y-221250500D01*
X217631462Y-221231096D01*
X217678913Y-221221658D01*
X217815495Y-221165084D01*
X217864729Y-221132186D01*
X217938416Y-221082952D01*
X220600214Y-218421153D01*
X231699500Y-218421153D01*
X231699500Y-218578846D01*
X231730261Y-218733489D01*
X231730264Y-218733501D01*
X231790602Y-218879172D01*
X231790609Y-218879185D01*
X231878210Y-219010288D01*
X231878213Y-219010292D01*
X231989707Y-219121786D01*
X231989711Y-219121789D01*
X232120814Y-219209390D01*
X232120827Y-219209397D01*
X232266498Y-219269735D01*
X232266503Y-219269737D01*
X232421153Y-219300499D01*
X232421156Y-219300500D01*
X232421158Y-219300500D01*
X232578844Y-219300500D01*
X232578845Y-219300499D01*
X232733497Y-219269737D01*
X232846166Y-219223067D01*
X232879172Y-219209397D01*
X232879172Y-219209396D01*
X232879179Y-219209394D01*
X233010289Y-219121789D01*
X233121789Y-219010289D01*
X233209394Y-218879179D01*
X233269737Y-218733497D01*
X233300500Y-218578842D01*
X233300500Y-218421158D01*
X233300500Y-218421155D01*
X233300499Y-218421153D01*
X233269738Y-218266510D01*
X233269737Y-218266503D01*
X233248046Y-218214135D01*
X233209397Y-218120827D01*
X233209390Y-218120814D01*
X233121789Y-217989711D01*
X233121786Y-217989707D01*
X233010292Y-217878213D01*
X233010288Y-217878210D01*
X232879185Y-217790609D01*
X232879172Y-217790602D01*
X232733501Y-217730264D01*
X232733489Y-217730261D01*
X232578845Y-217699500D01*
X232578842Y-217699500D01*
X232421158Y-217699500D01*
X232421155Y-217699500D01*
X232266510Y-217730261D01*
X232266498Y-217730264D01*
X232120827Y-217790602D01*
X232120814Y-217790609D01*
X231989711Y-217878210D01*
X231989707Y-217878213D01*
X231878213Y-217989707D01*
X231878210Y-217989711D01*
X231790609Y-218120814D01*
X231790602Y-218120827D01*
X231730264Y-218266498D01*
X231730261Y-218266510D01*
X231699500Y-218421153D01*
X220600214Y-218421153D01*
X221628207Y-217393159D01*
X221689528Y-217359676D01*
X221735279Y-217358369D01*
X221851644Y-217376800D01*
X221851646Y-217376800D01*
X222068355Y-217376800D01*
X222068356Y-217376800D01*
X222282401Y-217342898D01*
X222282404Y-217342897D01*
X222282405Y-217342897D01*
X222488505Y-217275931D01*
X222488505Y-217275930D01*
X222488508Y-217275930D01*
X222681600Y-217177545D01*
X222856925Y-217050164D01*
X223010164Y-216896925D01*
X223095328Y-216779706D01*
X223129682Y-216732423D01*
X223185012Y-216689757D01*
X223254625Y-216683778D01*
X223316420Y-216716384D01*
X223330318Y-216732423D01*
X223418455Y-216853733D01*
X223449836Y-216896925D01*
X223603075Y-217050164D01*
X223778400Y-217177545D01*
X223970579Y-217275465D01*
X223971494Y-217275931D01*
X224177595Y-217342897D01*
X224177596Y-217342897D01*
X224177599Y-217342898D01*
X224391644Y-217376800D01*
X224391645Y-217376800D01*
X224608355Y-217376800D01*
X224608356Y-217376800D01*
X224822401Y-217342898D01*
X224822404Y-217342897D01*
X224822405Y-217342897D01*
X225028505Y-217275931D01*
X225028505Y-217275930D01*
X225028508Y-217275930D01*
X225221600Y-217177545D01*
X225396925Y-217050164D01*
X225550164Y-216896925D01*
X225635328Y-216779706D01*
X225669682Y-216732423D01*
X225725012Y-216689757D01*
X225794625Y-216683778D01*
X225856420Y-216716384D01*
X225870318Y-216732423D01*
X225958455Y-216853733D01*
X225989836Y-216896925D01*
X226143075Y-217050164D01*
X226318400Y-217177545D01*
X226510579Y-217275465D01*
X226511494Y-217275931D01*
X226717595Y-217342897D01*
X226717596Y-217342897D01*
X226717599Y-217342898D01*
X226931644Y-217376800D01*
X226931645Y-217376800D01*
X227148355Y-217376800D01*
X227148356Y-217376800D01*
X227362401Y-217342898D01*
X227362404Y-217342897D01*
X227362405Y-217342897D01*
X227568505Y-217275931D01*
X227568505Y-217275930D01*
X227568508Y-217275930D01*
X227761600Y-217177545D01*
X227936925Y-217050164D01*
X228090164Y-216896925D01*
X228175328Y-216779706D01*
X228209682Y-216732423D01*
X228265012Y-216689757D01*
X228334625Y-216683778D01*
X228396420Y-216716384D01*
X228410318Y-216732423D01*
X228498455Y-216853733D01*
X228529836Y-216896925D01*
X228683075Y-217050164D01*
X228858400Y-217177545D01*
X229050579Y-217275465D01*
X229051494Y-217275931D01*
X229257595Y-217342897D01*
X229257596Y-217342897D01*
X229257599Y-217342898D01*
X229471644Y-217376800D01*
X229471645Y-217376800D01*
X229688355Y-217376800D01*
X229688356Y-217376800D01*
X229902401Y-217342898D01*
X229902404Y-217342897D01*
X229902405Y-217342897D01*
X230108505Y-217275931D01*
X230108505Y-217275930D01*
X230108508Y-217275930D01*
X230301600Y-217177545D01*
X230476925Y-217050164D01*
X230630164Y-216896925D01*
X230715328Y-216779706D01*
X230749682Y-216732423D01*
X230805012Y-216689757D01*
X230874625Y-216683778D01*
X230936420Y-216716384D01*
X230950318Y-216732423D01*
X231038455Y-216853733D01*
X231069836Y-216896925D01*
X231223075Y-217050164D01*
X231398400Y-217177545D01*
X231590579Y-217275465D01*
X231591494Y-217275931D01*
X231797595Y-217342897D01*
X231797596Y-217342897D01*
X231797599Y-217342898D01*
X232011644Y-217376800D01*
X232011645Y-217376800D01*
X232228355Y-217376800D01*
X232228356Y-217376800D01*
X232442401Y-217342898D01*
X232442404Y-217342897D01*
X232442405Y-217342897D01*
X232648505Y-217275931D01*
X232648505Y-217275930D01*
X232648508Y-217275930D01*
X232841600Y-217177545D01*
X233016925Y-217050164D01*
X233170164Y-216896925D01*
X233255328Y-216779706D01*
X233289682Y-216732423D01*
X233345012Y-216689757D01*
X233414625Y-216683778D01*
X233476420Y-216716384D01*
X233490318Y-216732423D01*
X233578455Y-216853733D01*
X233609836Y-216896925D01*
X233763075Y-217050164D01*
X233938400Y-217177545D01*
X234130579Y-217275465D01*
X234131494Y-217275931D01*
X234337595Y-217342897D01*
X234337596Y-217342897D01*
X234337599Y-217342898D01*
X234551644Y-217376800D01*
X234551645Y-217376800D01*
X234768355Y-217376800D01*
X234768356Y-217376800D01*
X234982401Y-217342898D01*
X234982404Y-217342897D01*
X234982405Y-217342897D01*
X235188505Y-217275931D01*
X235188505Y-217275930D01*
X235188508Y-217275930D01*
X235381600Y-217177545D01*
X235556925Y-217050164D01*
X235710164Y-216896925D01*
X235795328Y-216779706D01*
X235829682Y-216732423D01*
X235885012Y-216689757D01*
X235954625Y-216683778D01*
X236016420Y-216716384D01*
X236030318Y-216732423D01*
X236118455Y-216853733D01*
X236149836Y-216896925D01*
X236303075Y-217050164D01*
X236478400Y-217177545D01*
X236670579Y-217275465D01*
X236671494Y-217275931D01*
X236877595Y-217342897D01*
X236877596Y-217342897D01*
X236877599Y-217342898D01*
X237091644Y-217376800D01*
X237091645Y-217376800D01*
X237308355Y-217376800D01*
X237308356Y-217376800D01*
X237522401Y-217342898D01*
X237522404Y-217342897D01*
X237522405Y-217342897D01*
X237728505Y-217275931D01*
X237728505Y-217275930D01*
X237728508Y-217275930D01*
X237921600Y-217177545D01*
X238096925Y-217050164D01*
X238250164Y-216896925D01*
X238335328Y-216779706D01*
X238369682Y-216732423D01*
X238425012Y-216689757D01*
X238494625Y-216683778D01*
X238556420Y-216716384D01*
X238570318Y-216732423D01*
X238658455Y-216853733D01*
X238689836Y-216896925D01*
X238843075Y-217050164D01*
X239018400Y-217177545D01*
X239210579Y-217275465D01*
X239211494Y-217275931D01*
X239417595Y-217342897D01*
X239417596Y-217342897D01*
X239417599Y-217342898D01*
X239631644Y-217376800D01*
X239631645Y-217376800D01*
X239848355Y-217376800D01*
X239848356Y-217376800D01*
X240062401Y-217342898D01*
X240062404Y-217342897D01*
X240062405Y-217342897D01*
X240268505Y-217275931D01*
X240268505Y-217275930D01*
X240268508Y-217275930D01*
X240461600Y-217177545D01*
X240636925Y-217050164D01*
X240790164Y-216896925D01*
X240875328Y-216779706D01*
X240909682Y-216732423D01*
X240965012Y-216689757D01*
X241034625Y-216683778D01*
X241096420Y-216716384D01*
X241110318Y-216732423D01*
X241198455Y-216853733D01*
X241229836Y-216896925D01*
X241383075Y-217050164D01*
X241558400Y-217177545D01*
X241750579Y-217275465D01*
X241751494Y-217275931D01*
X241957595Y-217342897D01*
X241957596Y-217342897D01*
X241957599Y-217342898D01*
X242171644Y-217376800D01*
X242171645Y-217376800D01*
X242388355Y-217376800D01*
X242388356Y-217376800D01*
X242602401Y-217342898D01*
X242602404Y-217342897D01*
X242602405Y-217342897D01*
X242808505Y-217275931D01*
X242808505Y-217275930D01*
X242808508Y-217275930D01*
X243001600Y-217177545D01*
X243176925Y-217050164D01*
X243330164Y-216896925D01*
X243457545Y-216721600D01*
X243555930Y-216528508D01*
X243585666Y-216436989D01*
X243622897Y-216322405D01*
X243622897Y-216322404D01*
X243622898Y-216322401D01*
X243656800Y-216108356D01*
X243656800Y-215891644D01*
X243622898Y-215677599D01*
X243622897Y-215677595D01*
X243622897Y-215677594D01*
X243555931Y-215471494D01*
X243477032Y-215316646D01*
X243457545Y-215278400D01*
X243330164Y-215103075D01*
X243176925Y-214949836D01*
X243001600Y-214822455D01*
X242947585Y-214794933D01*
X242808505Y-214724068D01*
X242602404Y-214657102D01*
X242441867Y-214631675D01*
X242388356Y-214623200D01*
X242171644Y-214623200D01*
X242109979Y-214632967D01*
X241957597Y-214657102D01*
X241957594Y-214657102D01*
X241751494Y-214724068D01*
X241558399Y-214822455D01*
X241383072Y-214949838D01*
X241229838Y-215103072D01*
X241229838Y-215103073D01*
X241229836Y-215103075D01*
X241158198Y-215201675D01*
X241110318Y-215267577D01*
X241054988Y-215310242D01*
X240985374Y-215316221D01*
X240923579Y-215283615D01*
X240909682Y-215267577D01*
X240886837Y-215236134D01*
X240790164Y-215103075D01*
X240636925Y-214949836D01*
X240461600Y-214822455D01*
X240407585Y-214794933D01*
X240268505Y-214724068D01*
X240062404Y-214657102D01*
X239901867Y-214631675D01*
X239848356Y-214623200D01*
X239631644Y-214623200D01*
X239569979Y-214632967D01*
X239417597Y-214657102D01*
X239417594Y-214657102D01*
X239211494Y-214724068D01*
X239018399Y-214822455D01*
X238843072Y-214949838D01*
X238689838Y-215103072D01*
X238689838Y-215103073D01*
X238689836Y-215103075D01*
X238618198Y-215201675D01*
X238570318Y-215267577D01*
X238514988Y-215310242D01*
X238445374Y-215316221D01*
X238383579Y-215283615D01*
X238369682Y-215267577D01*
X238346837Y-215236134D01*
X238250164Y-215103075D01*
X238096925Y-214949836D01*
X237921600Y-214822455D01*
X237867585Y-214794933D01*
X237728505Y-214724068D01*
X237522404Y-214657102D01*
X237361867Y-214631675D01*
X237308356Y-214623200D01*
X237091644Y-214623200D01*
X237029979Y-214632967D01*
X236877597Y-214657102D01*
X236877594Y-214657102D01*
X236671494Y-214724068D01*
X236478399Y-214822455D01*
X236303072Y-214949838D01*
X236149838Y-215103072D01*
X236149838Y-215103073D01*
X236149836Y-215103075D01*
X236078198Y-215201675D01*
X236030318Y-215267577D01*
X235974988Y-215310242D01*
X235905374Y-215316221D01*
X235843579Y-215283615D01*
X235829682Y-215267577D01*
X235806837Y-215236134D01*
X235710164Y-215103075D01*
X235556925Y-214949836D01*
X235381600Y-214822455D01*
X235327585Y-214794933D01*
X235188505Y-214724068D01*
X234982404Y-214657102D01*
X234821867Y-214631675D01*
X234768356Y-214623200D01*
X234551644Y-214623200D01*
X234489979Y-214632967D01*
X234337597Y-214657102D01*
X234337594Y-214657102D01*
X234131494Y-214724068D01*
X233938399Y-214822455D01*
X233763072Y-214949838D01*
X233609838Y-215103072D01*
X233609838Y-215103073D01*
X233609836Y-215103075D01*
X233538198Y-215201675D01*
X233490318Y-215267577D01*
X233434988Y-215310242D01*
X233365374Y-215316221D01*
X233303579Y-215283615D01*
X233289682Y-215267577D01*
X233266837Y-215236134D01*
X233170164Y-215103075D01*
X233016925Y-214949836D01*
X232841600Y-214822455D01*
X232787585Y-214794933D01*
X232648505Y-214724068D01*
X232442404Y-214657102D01*
X232281867Y-214631675D01*
X232228356Y-214623200D01*
X232011644Y-214623200D01*
X231949979Y-214632967D01*
X231797597Y-214657102D01*
X231797594Y-214657102D01*
X231591494Y-214724068D01*
X231398399Y-214822455D01*
X231223072Y-214949838D01*
X231069838Y-215103072D01*
X231069838Y-215103073D01*
X231069836Y-215103075D01*
X230998198Y-215201675D01*
X230950318Y-215267577D01*
X230894988Y-215310242D01*
X230825374Y-215316221D01*
X230763579Y-215283615D01*
X230749682Y-215267577D01*
X230726837Y-215236134D01*
X230630164Y-215103075D01*
X230476925Y-214949836D01*
X230301600Y-214822455D01*
X230247585Y-214794933D01*
X230108505Y-214724068D01*
X229902404Y-214657102D01*
X229741867Y-214631675D01*
X229688356Y-214623200D01*
X229471644Y-214623200D01*
X229409979Y-214632967D01*
X229257597Y-214657102D01*
X229257594Y-214657102D01*
X229051494Y-214724068D01*
X228858399Y-214822455D01*
X228683072Y-214949838D01*
X228529838Y-215103072D01*
X228529838Y-215103073D01*
X228529836Y-215103075D01*
X228458198Y-215201675D01*
X228410318Y-215267577D01*
X228354988Y-215310242D01*
X228285374Y-215316221D01*
X228223579Y-215283615D01*
X228209682Y-215267577D01*
X228186837Y-215236134D01*
X228090164Y-215103075D01*
X227936925Y-214949836D01*
X227761600Y-214822455D01*
X227707585Y-214794933D01*
X227568505Y-214724068D01*
X227362404Y-214657102D01*
X227201867Y-214631675D01*
X227148356Y-214623200D01*
X226931644Y-214623200D01*
X226869979Y-214632967D01*
X226717597Y-214657102D01*
X226717594Y-214657102D01*
X226511494Y-214724068D01*
X226318399Y-214822455D01*
X226143072Y-214949838D01*
X225989838Y-215103072D01*
X225989838Y-215103073D01*
X225989836Y-215103075D01*
X225918198Y-215201675D01*
X225870318Y-215267577D01*
X225814988Y-215310242D01*
X225745374Y-215316221D01*
X225683579Y-215283615D01*
X225669682Y-215267577D01*
X225646837Y-215236134D01*
X225550164Y-215103075D01*
X225396925Y-214949836D01*
X225221600Y-214822455D01*
X225167585Y-214794933D01*
X225028505Y-214724068D01*
X224822404Y-214657102D01*
X224661867Y-214631675D01*
X224608356Y-214623200D01*
X224391644Y-214623200D01*
X224329979Y-214632967D01*
X224177597Y-214657102D01*
X224177594Y-214657102D01*
X223971494Y-214724068D01*
X223778399Y-214822455D01*
X223603072Y-214949838D01*
X223449838Y-215103072D01*
X223449838Y-215103073D01*
X223449836Y-215103075D01*
X223378198Y-215201675D01*
X223330318Y-215267577D01*
X223274988Y-215310242D01*
X223205374Y-215316221D01*
X223143579Y-215283615D01*
X223129682Y-215267577D01*
X223106837Y-215236134D01*
X223010164Y-215103075D01*
X222856925Y-214949836D01*
X222681600Y-214822455D01*
X222627585Y-214794933D01*
X222488505Y-214724068D01*
X222282404Y-214657102D01*
X222121867Y-214631675D01*
X222068356Y-214623200D01*
X221851644Y-214623200D01*
X221789979Y-214632967D01*
X221637597Y-214657102D01*
X221637594Y-214657102D01*
X221431494Y-214724068D01*
X221238399Y-214822455D01*
X221063072Y-214949838D01*
X220909838Y-215103072D01*
X220909838Y-215103073D01*
X220909836Y-215103075D01*
X220838198Y-215201675D01*
X220790318Y-215267577D01*
X220734988Y-215310242D01*
X220665374Y-215316221D01*
X220603579Y-215283615D01*
X220589682Y-215267577D01*
X220566837Y-215236134D01*
X220470164Y-215103075D01*
X220316925Y-214949836D01*
X220141600Y-214822455D01*
X220087585Y-214794933D01*
X219948505Y-214724068D01*
X219742404Y-214657102D01*
X219581867Y-214631675D01*
X219528356Y-214623200D01*
X219311644Y-214623200D01*
X219249979Y-214632967D01*
X219097597Y-214657102D01*
X219097594Y-214657102D01*
X218891494Y-214724068D01*
X218698399Y-214822455D01*
X218523072Y-214949838D01*
X218369838Y-215103072D01*
X218369838Y-215103073D01*
X218369836Y-215103075D01*
X218349974Y-215130413D01*
X218250009Y-215268002D01*
X218194679Y-215310667D01*
X218125065Y-215316646D01*
X218063270Y-215284040D01*
X218049373Y-215268001D01*
X218014101Y-215219453D01*
X218014099Y-215219452D01*
X217400603Y-215832949D01*
X217388884Y-215789213D01*
X217316989Y-215664687D01*
X217215313Y-215563011D01*
X217090787Y-215491116D01*
X217047048Y-215479396D01*
X217660545Y-214865899D01*
X217660545Y-214865898D01*
X217601342Y-214822885D01*
X217408320Y-214724534D01*
X217202285Y-214657589D01*
X217046835Y-214632967D01*
X216983701Y-214603037D01*
X216946770Y-214543725D01*
X216947768Y-214473863D01*
X216978551Y-214422815D01*
X218114548Y-213286819D01*
X218175871Y-213253334D01*
X218202229Y-213250500D01*
X240466795Y-213250500D01*
X240564337Y-213231096D01*
X240611788Y-213221658D01*
X240748370Y-213165084D01*
X240797604Y-213132186D01*
X240871291Y-213082952D01*
X244605097Y-209349146D01*
X244605101Y-209349138D01*
X244605105Y-209349135D01*
X244605197Y-209348997D01*
X244610371Y-209341252D01*
X244687229Y-209226225D01*
X244743804Y-209089643D01*
X244772645Y-208944648D01*
X244772645Y-208796813D01*
X244772645Y-208792775D01*
X244772436Y-208788558D01*
X244772436Y-190698492D01*
X244792121Y-190631453D01*
X244844925Y-190585698D01*
X244914083Y-190575754D01*
X244977639Y-190604779D01*
X244984117Y-190610811D01*
X245020340Y-190647034D01*
X245211837Y-190786165D01*
X245338245Y-190850573D01*
X245422743Y-190893627D01*
X245647855Y-190966770D01*
X245647856Y-190966770D01*
X245647859Y-190966771D01*
X245881648Y-191003800D01*
X245881649Y-191003800D01*
X246118351Y-191003800D01*
X246118352Y-191003800D01*
X246352141Y-190966771D01*
X246352144Y-190966770D01*
X246352145Y-190966770D01*
X246577256Y-190893627D01*
X246577256Y-190893626D01*
X246577259Y-190893626D01*
X246788163Y-190786165D01*
X246979660Y-190647034D01*
X247147034Y-190479660D01*
X247286165Y-190288163D01*
X247393626Y-190077259D01*
X247408626Y-190031094D01*
X247466770Y-189852145D01*
X247466770Y-189852144D01*
X247466771Y-189852141D01*
X247503800Y-189618352D01*
X247503800Y-189381648D01*
X247466771Y-189147859D01*
X247466770Y-189147855D01*
X247466770Y-189147854D01*
X247393627Y-188922743D01*
X247314022Y-188766510D01*
X247286165Y-188711837D01*
X247147034Y-188520340D01*
X246979660Y-188352966D01*
X246979658Y-188352964D01*
X246979653Y-188352960D01*
X246924808Y-188313113D01*
X246882142Y-188257784D01*
X246876163Y-188188170D01*
X246897374Y-188139912D01*
X246992891Y-188008445D01*
X247075848Y-187845632D01*
X247132315Y-187671846D01*
X247145019Y-187591632D01*
X247160900Y-187491371D01*
X247160900Y-187308630D01*
X247132315Y-187128159D01*
X247132315Y-187128156D01*
X247075848Y-186954370D01*
X246992891Y-186791557D01*
X246885485Y-186643725D01*
X246756276Y-186514516D01*
X246736734Y-186500318D01*
X246694069Y-186444990D01*
X246688089Y-186375377D01*
X246720695Y-186313582D01*
X246736731Y-186299685D01*
X246756276Y-186285486D01*
X246885485Y-186156277D01*
X246992891Y-186008445D01*
X247075848Y-185845632D01*
X247132315Y-185671846D01*
X247145019Y-185591632D01*
X247160900Y-185491371D01*
X247160900Y-185308630D01*
X247132315Y-185128159D01*
X247132315Y-185128156D01*
X247075848Y-184954370D01*
X246992891Y-184791557D01*
X246885485Y-184643725D01*
X246756276Y-184514516D01*
X246736733Y-184500317D01*
X246694068Y-184444989D01*
X246688089Y-184375375D01*
X246720694Y-184313580D01*
X246736730Y-184299685D01*
X246756276Y-184285485D01*
X246885485Y-184156276D01*
X246992891Y-184008444D01*
X247075848Y-183845631D01*
X247132315Y-183671845D01*
X247145019Y-183591631D01*
X247160900Y-183491370D01*
X247160900Y-183308629D01*
X247132315Y-183128158D01*
X247132315Y-183128155D01*
X247075848Y-182954369D01*
X246992891Y-182791556D01*
X246897376Y-182660090D01*
X246873896Y-182594284D01*
X246889721Y-182526230D01*
X246924808Y-182486887D01*
X246979660Y-182447036D01*
X247147034Y-182279662D01*
X247286165Y-182088165D01*
X247393626Y-181877261D01*
X247466771Y-181652143D01*
X247503800Y-181418354D01*
X247503800Y-181181650D01*
X247466771Y-180947861D01*
X247466770Y-180947857D01*
X247466770Y-180947856D01*
X247393627Y-180722745D01*
X247389729Y-180715094D01*
X247286165Y-180511839D01*
X247147034Y-180320342D01*
X246979660Y-180152968D01*
X246788163Y-180013837D01*
X246676110Y-179956743D01*
X246577256Y-179906374D01*
X246352144Y-179833231D01*
X246176799Y-179805459D01*
X246118352Y-179796202D01*
X245881648Y-179796202D01*
X245803718Y-179808545D01*
X245647857Y-179833231D01*
X245647854Y-179833231D01*
X245422743Y-179906374D01*
X245211836Y-180013837D01*
X245126017Y-180076189D01*
X245020340Y-180152968D01*
X245020338Y-180152970D01*
X245020337Y-180152970D01*
X244852968Y-180320339D01*
X244852968Y-180320340D01*
X244852966Y-180320342D01*
X244830994Y-180350584D01*
X244713835Y-180511838D01*
X244606372Y-180722745D01*
X244533229Y-180947856D01*
X244533229Y-180947859D01*
X244496200Y-181181650D01*
X244496200Y-181418353D01*
X244533229Y-181652144D01*
X244533229Y-181652147D01*
X244606372Y-181877258D01*
X244606374Y-181877261D01*
X244713835Y-182088165D01*
X244852966Y-182279662D01*
X245020340Y-182447036D01*
X245020343Y-182447038D01*
X245075190Y-182486887D01*
X245117856Y-182542217D01*
X245123835Y-182611830D01*
X245102623Y-182660090D01*
X245007111Y-182791551D01*
X244924153Y-182954366D01*
X244867684Y-183128158D01*
X244839100Y-183308629D01*
X244839100Y-183491370D01*
X244867684Y-183671841D01*
X244867685Y-183671845D01*
X244924152Y-183845631D01*
X245007109Y-184008444D01*
X245114515Y-184156276D01*
X245243724Y-184285485D01*
X245263265Y-184299682D01*
X245275750Y-184315873D01*
X245291761Y-184328600D01*
X245296654Y-184342981D01*
X245305931Y-184355011D01*
X245307681Y-184375386D01*
X245314269Y-184394746D01*
X245310610Y-184409489D01*
X245311911Y-184424624D01*
X245302368Y-184442709D01*
X245297443Y-184462559D01*
X245284139Y-184477257D01*
X245279305Y-184486419D01*
X245275481Y-184490188D01*
X245269697Y-184495644D01*
X245243724Y-184514516D01*
X245143772Y-184614467D01*
X245142478Y-184615689D01*
X245112868Y-184630758D01*
X245083735Y-184646667D01*
X245081043Y-184646956D01*
X245080209Y-184647381D01*
X245078601Y-184647218D01*
X245057377Y-184649501D01*
X244784814Y-184649501D01*
X244639826Y-184678341D01*
X244639816Y-184678344D01*
X244503245Y-184734913D01*
X244503232Y-184734920D01*
X244380318Y-184817049D01*
X244380314Y-184817052D01*
X231484186Y-197713181D01*
X231422863Y-197746666D01*
X231396505Y-197749500D01*
X207681941Y-197749500D01*
X207614902Y-197729815D01*
X207569147Y-197677011D01*
X207559203Y-197607853D01*
X207588228Y-197544297D01*
X207594260Y-197537819D01*
X207621786Y-197510292D01*
X207621789Y-197510289D01*
X207709394Y-197379179D01*
X207769737Y-197233497D01*
X207800500Y-197078842D01*
X207800500Y-196921158D01*
X207800500Y-196921155D01*
X207800499Y-196921153D01*
X207769738Y-196766510D01*
X207769737Y-196766503D01*
X207769735Y-196766498D01*
X207709397Y-196620827D01*
X207709390Y-196620814D01*
X207621789Y-196489711D01*
X207621786Y-196489707D01*
X207510292Y-196378213D01*
X207510288Y-196378210D01*
X207379185Y-196290609D01*
X207379172Y-196290602D01*
X207233501Y-196230264D01*
X207233489Y-196230261D01*
X207078845Y-196199500D01*
X207078842Y-196199500D01*
X206921158Y-196199500D01*
X206921155Y-196199500D01*
X206766510Y-196230261D01*
X206766498Y-196230264D01*
X206620827Y-196290602D01*
X206620814Y-196290609D01*
X206489711Y-196378210D01*
X206489707Y-196378213D01*
X206378213Y-196489707D01*
X206378210Y-196489711D01*
X206290609Y-196620814D01*
X206290602Y-196620827D01*
X206230264Y-196766498D01*
X206230261Y-196766510D01*
X206199500Y-196921153D01*
X206199500Y-197078846D01*
X206230261Y-197233489D01*
X206230264Y-197233501D01*
X206290602Y-197379172D01*
X206290609Y-197379185D01*
X206378210Y-197510288D01*
X206378213Y-197510292D01*
X206489707Y-197621786D01*
X206489711Y-197621789D01*
X206620814Y-197709390D01*
X206620821Y-197709394D01*
X206702808Y-197743354D01*
X206757210Y-197787193D01*
X206779276Y-197853487D01*
X206761998Y-197921186D01*
X206743036Y-197945595D01*
X200434703Y-204253927D01*
X200394480Y-204280805D01*
X200370819Y-204290606D01*
X200370818Y-204290607D01*
X200239715Y-204378207D01*
X200239707Y-204378213D01*
X200128213Y-204489707D01*
X200128210Y-204489711D01*
X200040609Y-204620814D01*
X200040602Y-204620827D01*
X199980264Y-204766498D01*
X199980261Y-204766510D01*
X199949500Y-204921153D01*
X199949500Y-205078846D01*
X199980261Y-205233489D01*
X199980263Y-205233497D01*
X199990061Y-205257151D01*
X199999500Y-205304604D01*
X199999500Y-212695396D01*
X199990062Y-212742844D01*
X199980263Y-212766503D01*
X199980262Y-212766506D01*
X199980260Y-212766511D01*
X199949500Y-212921153D01*
X199949500Y-213078846D01*
X199980261Y-213233489D01*
X199980264Y-213233501D01*
X200040602Y-213379172D01*
X200040609Y-213379185D01*
X200128210Y-213510288D01*
X200128213Y-213510292D01*
X200239707Y-213621786D01*
X200239711Y-213621789D01*
X200370814Y-213709390D01*
X200370827Y-213709397D01*
X200516498Y-213769735D01*
X200516503Y-213769737D01*
X200671153Y-213800499D01*
X200671156Y-213800500D01*
X200671158Y-213800500D01*
X200828844Y-213800500D01*
X200828845Y-213800499D01*
X200983497Y-213769737D01*
X201129179Y-213709394D01*
X201260289Y-213621789D01*
X201371789Y-213510289D01*
X201459394Y-213379179D01*
X201519737Y-213233497D01*
X201550500Y-213078842D01*
X201550500Y-212921158D01*
X201550500Y-212921155D01*
X201550499Y-212921153D01*
X201519739Y-212766511D01*
X201519738Y-212766508D01*
X201519737Y-212766503D01*
X201509937Y-212742844D01*
X201500500Y-212695396D01*
X201500500Y-210921153D01*
X215699500Y-210921153D01*
X215699500Y-211078846D01*
X215730261Y-211233489D01*
X215730264Y-211233501D01*
X215790602Y-211379172D01*
X215790609Y-211379185D01*
X215878210Y-211510288D01*
X215878213Y-211510292D01*
X215989707Y-211621786D01*
X215989711Y-211621789D01*
X216120814Y-211709390D01*
X216120827Y-211709397D01*
X216210804Y-211746666D01*
X216266503Y-211769737D01*
X216368975Y-211790120D01*
X216421153Y-211800499D01*
X216421156Y-211800500D01*
X216421158Y-211800500D01*
X216578844Y-211800500D01*
X216578845Y-211800499D01*
X216733497Y-211769737D01*
X216879179Y-211709394D01*
X217010289Y-211621789D01*
X217121789Y-211510289D01*
X217209394Y-211379179D01*
X217269737Y-211233497D01*
X217300500Y-211078842D01*
X217300500Y-210921158D01*
X217300500Y-210921155D01*
X217300499Y-210921153D01*
X217287533Y-210855970D01*
X217269737Y-210766503D01*
X217269735Y-210766498D01*
X217209397Y-210620827D01*
X217209390Y-210620814D01*
X217121789Y-210489711D01*
X217121786Y-210489707D01*
X217010292Y-210378213D01*
X217010288Y-210378210D01*
X216879185Y-210290609D01*
X216879172Y-210290602D01*
X216733501Y-210230264D01*
X216733489Y-210230261D01*
X216578845Y-210199500D01*
X216578842Y-210199500D01*
X216421158Y-210199500D01*
X216421155Y-210199500D01*
X216266510Y-210230261D01*
X216266498Y-210230264D01*
X216120827Y-210290602D01*
X216120814Y-210290609D01*
X215989711Y-210378210D01*
X215989707Y-210378213D01*
X215878213Y-210489707D01*
X215878210Y-210489711D01*
X215790609Y-210620814D01*
X215790602Y-210620827D01*
X215730264Y-210766498D01*
X215730261Y-210766510D01*
X215699500Y-210921153D01*
X201500500Y-210921153D01*
X201500500Y-206302190D01*
X201520185Y-206235151D01*
X201572989Y-206189396D01*
X201642147Y-206179452D01*
X201705703Y-206208477D01*
X201739061Y-206254738D01*
X201790602Y-206379172D01*
X201790609Y-206379185D01*
X201878210Y-206510288D01*
X201878213Y-206510292D01*
X201989707Y-206621786D01*
X201989711Y-206621789D01*
X202120814Y-206709390D01*
X202120827Y-206709397D01*
X202266498Y-206769735D01*
X202266503Y-206769737D01*
X202421153Y-206800499D01*
X202421156Y-206800500D01*
X202421158Y-206800500D01*
X202578844Y-206800500D01*
X202578845Y-206800499D01*
X202733497Y-206769737D01*
X202879179Y-206709394D01*
X203010289Y-206621789D01*
X203121789Y-206510289D01*
X203209394Y-206379179D01*
X203269737Y-206233497D01*
X203300500Y-206078842D01*
X203300500Y-205921158D01*
X203300500Y-205921155D01*
X203300499Y-205921153D01*
X203271620Y-205775970D01*
X203269737Y-205766503D01*
X203260938Y-205745261D01*
X203209397Y-205620827D01*
X203209390Y-205620814D01*
X203121789Y-205489711D01*
X203121786Y-205489707D01*
X203010292Y-205378213D01*
X203010288Y-205378210D01*
X202879185Y-205290609D01*
X202879172Y-205290602D01*
X202733501Y-205230264D01*
X202733489Y-205230261D01*
X202578845Y-205199500D01*
X202578842Y-205199500D01*
X202421158Y-205199500D01*
X202421155Y-205199500D01*
X202266510Y-205230261D01*
X202266498Y-205230264D01*
X202120827Y-205290602D01*
X202120814Y-205290609D01*
X201989711Y-205378210D01*
X201989707Y-205378213D01*
X201878213Y-205489707D01*
X201878210Y-205489711D01*
X201790609Y-205620814D01*
X201790602Y-205620827D01*
X201739061Y-205745261D01*
X201695220Y-205799665D01*
X201628926Y-205821730D01*
X201561227Y-205804451D01*
X201513616Y-205753314D01*
X201500500Y-205697809D01*
X201500500Y-205362229D01*
X201520185Y-205295190D01*
X201536819Y-205274548D01*
X203390214Y-203421153D01*
X218699500Y-203421153D01*
X218699500Y-203578846D01*
X218730261Y-203733489D01*
X218730264Y-203733501D01*
X218790602Y-203879172D01*
X218790609Y-203879185D01*
X218878210Y-204010288D01*
X218878213Y-204010292D01*
X218989707Y-204121786D01*
X218989711Y-204121789D01*
X219120814Y-204209390D01*
X219120827Y-204209397D01*
X219207337Y-204245230D01*
X219266503Y-204269737D01*
X219421153Y-204300499D01*
X219421156Y-204300500D01*
X219421158Y-204300500D01*
X219578844Y-204300500D01*
X219578845Y-204300499D01*
X219733497Y-204269737D01*
X219846166Y-204223067D01*
X219879172Y-204209397D01*
X219879172Y-204209396D01*
X219879179Y-204209394D01*
X220010289Y-204121789D01*
X220121789Y-204010289D01*
X220209394Y-203879179D01*
X220269737Y-203733497D01*
X220300500Y-203578842D01*
X220300500Y-203421158D01*
X220300500Y-203421155D01*
X220300499Y-203421153D01*
X226699500Y-203421153D01*
X226699500Y-203578846D01*
X226730261Y-203733489D01*
X226730264Y-203733501D01*
X226790602Y-203879172D01*
X226790609Y-203879185D01*
X226878210Y-204010288D01*
X226878213Y-204010292D01*
X226989707Y-204121786D01*
X226989711Y-204121789D01*
X227120814Y-204209390D01*
X227120827Y-204209397D01*
X227207337Y-204245230D01*
X227266503Y-204269737D01*
X227421153Y-204300499D01*
X227421156Y-204300500D01*
X227421158Y-204300500D01*
X227578844Y-204300500D01*
X227578845Y-204300499D01*
X227733497Y-204269737D01*
X227846166Y-204223067D01*
X227879172Y-204209397D01*
X227879172Y-204209396D01*
X227879179Y-204209394D01*
X228010289Y-204121789D01*
X228121789Y-204010289D01*
X228209394Y-203879179D01*
X228269737Y-203733497D01*
X228300500Y-203578842D01*
X228300500Y-203421158D01*
X228300500Y-203421155D01*
X228300499Y-203421153D01*
X228699500Y-203421153D01*
X228699500Y-203578846D01*
X228730261Y-203733489D01*
X228730264Y-203733501D01*
X228790602Y-203879172D01*
X228790609Y-203879185D01*
X228878210Y-204010288D01*
X228878213Y-204010292D01*
X228989707Y-204121786D01*
X228989711Y-204121789D01*
X229120814Y-204209390D01*
X229120827Y-204209397D01*
X229207337Y-204245230D01*
X229266503Y-204269737D01*
X229421153Y-204300499D01*
X229421156Y-204300500D01*
X229421158Y-204300500D01*
X229578844Y-204300500D01*
X229578845Y-204300499D01*
X229733497Y-204269737D01*
X229846166Y-204223067D01*
X229879172Y-204209397D01*
X229879172Y-204209396D01*
X229879179Y-204209394D01*
X230010289Y-204121789D01*
X230121789Y-204010289D01*
X230209394Y-203879179D01*
X230269737Y-203733497D01*
X230300500Y-203578842D01*
X230300500Y-203421158D01*
X230300500Y-203421155D01*
X230300499Y-203421153D01*
X230281847Y-203327385D01*
X230269737Y-203266503D01*
X230269735Y-203266498D01*
X230209397Y-203120827D01*
X230209390Y-203120814D01*
X230121789Y-202989711D01*
X230121786Y-202989707D01*
X230010292Y-202878213D01*
X230010288Y-202878210D01*
X229879185Y-202790609D01*
X229879172Y-202790602D01*
X229733501Y-202730264D01*
X229733489Y-202730261D01*
X229578845Y-202699500D01*
X229578842Y-202699500D01*
X229421158Y-202699500D01*
X229421155Y-202699500D01*
X229266510Y-202730261D01*
X229266498Y-202730264D01*
X229120827Y-202790602D01*
X229120814Y-202790609D01*
X228989711Y-202878210D01*
X228989707Y-202878213D01*
X228878213Y-202989707D01*
X228878210Y-202989711D01*
X228790609Y-203120814D01*
X228790602Y-203120827D01*
X228730264Y-203266498D01*
X228730261Y-203266510D01*
X228699500Y-203421153D01*
X228300499Y-203421153D01*
X228281847Y-203327385D01*
X228269737Y-203266503D01*
X228269735Y-203266498D01*
X228209397Y-203120827D01*
X228209390Y-203120814D01*
X228121789Y-202989711D01*
X228121786Y-202989707D01*
X228010292Y-202878213D01*
X228010288Y-202878210D01*
X227879185Y-202790609D01*
X227879172Y-202790602D01*
X227733501Y-202730264D01*
X227733489Y-202730261D01*
X227578845Y-202699500D01*
X227578842Y-202699500D01*
X227421158Y-202699500D01*
X227421155Y-202699500D01*
X227266510Y-202730261D01*
X227266498Y-202730264D01*
X227120827Y-202790602D01*
X227120814Y-202790609D01*
X226989711Y-202878210D01*
X226989707Y-202878213D01*
X226878213Y-202989707D01*
X226878210Y-202989711D01*
X226790609Y-203120814D01*
X226790602Y-203120827D01*
X226730264Y-203266498D01*
X226730261Y-203266510D01*
X226699500Y-203421153D01*
X220300499Y-203421153D01*
X220281847Y-203327385D01*
X220269737Y-203266503D01*
X220269735Y-203266498D01*
X220209397Y-203120827D01*
X220209390Y-203120814D01*
X220121789Y-202989711D01*
X220121786Y-202989707D01*
X220010292Y-202878213D01*
X220010288Y-202878210D01*
X219879185Y-202790609D01*
X219879172Y-202790602D01*
X219733501Y-202730264D01*
X219733489Y-202730261D01*
X219578845Y-202699500D01*
X219578842Y-202699500D01*
X219421158Y-202699500D01*
X219421155Y-202699500D01*
X219266510Y-202730261D01*
X219266498Y-202730264D01*
X219120827Y-202790602D01*
X219120814Y-202790609D01*
X218989711Y-202878210D01*
X218989707Y-202878213D01*
X218878213Y-202989707D01*
X218878210Y-202989711D01*
X218790609Y-203120814D01*
X218790602Y-203120827D01*
X218730264Y-203266498D01*
X218730261Y-203266510D01*
X218699500Y-203421153D01*
X203390214Y-203421153D01*
X203483982Y-203327385D01*
X204884373Y-201926994D01*
X206297736Y-200513630D01*
X206359057Y-200480147D01*
X206428749Y-200485131D01*
X206484682Y-200527003D01*
X206507032Y-200577121D01*
X206515261Y-200618491D01*
X206515264Y-200618501D01*
X206575602Y-200764172D01*
X206575609Y-200764185D01*
X206663210Y-200895288D01*
X206663213Y-200895292D01*
X206774707Y-201006786D01*
X206774711Y-201006789D01*
X206905814Y-201094390D01*
X206905827Y-201094397D01*
X207051498Y-201154735D01*
X207051503Y-201154737D01*
X207206153Y-201185499D01*
X207206156Y-201185500D01*
X207206158Y-201185500D01*
X207363844Y-201185500D01*
X207363845Y-201185499D01*
X207518497Y-201154737D01*
X207631166Y-201108067D01*
X207664172Y-201094397D01*
X207664172Y-201094396D01*
X207664179Y-201094394D01*
X207795289Y-201006789D01*
X207906789Y-200895289D01*
X207994394Y-200764179D01*
X208054737Y-200618497D01*
X208085500Y-200463842D01*
X208085500Y-200306158D01*
X208085500Y-200306155D01*
X208085499Y-200306153D01*
X208068333Y-200219853D01*
X208054737Y-200151503D01*
X208054735Y-200151498D01*
X207994397Y-200005827D01*
X207994390Y-200005814D01*
X207906789Y-199874711D01*
X207906786Y-199874707D01*
X207795292Y-199763213D01*
X207795288Y-199763210D01*
X207664185Y-199675609D01*
X207664172Y-199675602D01*
X207518501Y-199615264D01*
X207518491Y-199615261D01*
X207477121Y-199607032D01*
X207468117Y-199602322D01*
X207457979Y-199601597D01*
X207437676Y-199586398D01*
X207415210Y-199574646D01*
X207410181Y-199565815D01*
X207402046Y-199559725D01*
X207393184Y-199535966D01*
X207380636Y-199513930D01*
X207381180Y-199503781D01*
X207377629Y-199494261D01*
X207383019Y-199469482D01*
X207384377Y-199444161D01*
X207390716Y-199434100D01*
X207392481Y-199425988D01*
X207413626Y-199397740D01*
X207524550Y-199286816D01*
X207585871Y-199253334D01*
X207612229Y-199250500D01*
X210561823Y-199250500D01*
X210628862Y-199270185D01*
X210674617Y-199322989D01*
X210684561Y-199392147D01*
X210655536Y-199455703D01*
X210636135Y-199473766D01*
X210566152Y-199526155D01*
X210479906Y-199641364D01*
X210479902Y-199641371D01*
X210429608Y-199776217D01*
X210423201Y-199835816D01*
X210423200Y-199835835D01*
X210423200Y-201684170D01*
X210423201Y-201684176D01*
X210429608Y-201743783D01*
X210479902Y-201878628D01*
X210479906Y-201878635D01*
X210566152Y-201993844D01*
X210566155Y-201993847D01*
X210681364Y-202080093D01*
X210681371Y-202080097D01*
X210816217Y-202130391D01*
X210816216Y-202130391D01*
X210823144Y-202131135D01*
X210875827Y-202136800D01*
X212724172Y-202136799D01*
X212783783Y-202130391D01*
X212918631Y-202080096D01*
X213033846Y-201993846D01*
X213120096Y-201878631D01*
X213159006Y-201774306D01*
X213200876Y-201718373D01*
X213266340Y-201693955D01*
X213334613Y-201708806D01*
X213362869Y-201729958D01*
X213443075Y-201810164D01*
X213618400Y-201937545D01*
X213810579Y-202035465D01*
X213811494Y-202035931D01*
X214017595Y-202102897D01*
X214017596Y-202102897D01*
X214017599Y-202102898D01*
X214231644Y-202136800D01*
X214231645Y-202136800D01*
X214448355Y-202136800D01*
X214448356Y-202136800D01*
X214662401Y-202102898D01*
X214662404Y-202102897D01*
X214662405Y-202102897D01*
X214868505Y-202035931D01*
X214868505Y-202035930D01*
X214868508Y-202035930D01*
X215061600Y-201937545D01*
X215236925Y-201810164D01*
X215390164Y-201656925D01*
X215509682Y-201492423D01*
X215565012Y-201449757D01*
X215634625Y-201443778D01*
X215696420Y-201476384D01*
X215710318Y-201492423D01*
X215819595Y-201642829D01*
X215829836Y-201656925D01*
X215983075Y-201810164D01*
X216158400Y-201937545D01*
X216350579Y-202035465D01*
X216351494Y-202035931D01*
X216557595Y-202102897D01*
X216557596Y-202102897D01*
X216557599Y-202102898D01*
X216771644Y-202136800D01*
X216771645Y-202136800D01*
X216988355Y-202136800D01*
X216988356Y-202136800D01*
X217202401Y-202102898D01*
X217202404Y-202102897D01*
X217202405Y-202102897D01*
X217408505Y-202035931D01*
X217408505Y-202035930D01*
X217408508Y-202035930D01*
X217601600Y-201937545D01*
X217776925Y-201810164D01*
X217930164Y-201656925D01*
X218049991Y-201491996D01*
X218105321Y-201449331D01*
X218174934Y-201443352D01*
X218236729Y-201475958D01*
X218250628Y-201491998D01*
X218285899Y-201540545D01*
X218899396Y-200927049D01*
X218911116Y-200970787D01*
X218983011Y-201095313D01*
X219084687Y-201196989D01*
X219209213Y-201268884D01*
X219252950Y-201280603D01*
X218639452Y-201894099D01*
X218639453Y-201894100D01*
X218698657Y-201937114D01*
X218891679Y-202035465D01*
X219097715Y-202102411D01*
X219311678Y-202136300D01*
X219528322Y-202136300D01*
X219742284Y-202102411D01*
X219948320Y-202035465D01*
X220141331Y-201937120D01*
X220141344Y-201937112D01*
X220200545Y-201894100D01*
X220200546Y-201894099D01*
X219587049Y-201280603D01*
X219630787Y-201268884D01*
X219755313Y-201196989D01*
X219856989Y-201095313D01*
X219928884Y-200970787D01*
X219940603Y-200927049D01*
X220554098Y-201540545D01*
X220589680Y-201491572D01*
X220645010Y-201448906D01*
X220714624Y-201442927D01*
X220776419Y-201475532D01*
X220790317Y-201491572D01*
X220825898Y-201540545D01*
X220825899Y-201540545D01*
X221439396Y-200927049D01*
X221451116Y-200970787D01*
X221523011Y-201095313D01*
X221624687Y-201196989D01*
X221749213Y-201268884D01*
X221792950Y-201280603D01*
X221179452Y-201894099D01*
X221179453Y-201894100D01*
X221238657Y-201937114D01*
X221431679Y-202035465D01*
X221637715Y-202102411D01*
X221851678Y-202136300D01*
X222068322Y-202136300D01*
X222282284Y-202102411D01*
X222488320Y-202035465D01*
X222681331Y-201937120D01*
X222681344Y-201937112D01*
X222740545Y-201894100D01*
X222740546Y-201894099D01*
X222127049Y-201280603D01*
X222170787Y-201268884D01*
X222295313Y-201196989D01*
X222396989Y-201095313D01*
X222468884Y-200970787D01*
X222480603Y-200927049D01*
X223094099Y-201540546D01*
X223094099Y-201540545D01*
X223129373Y-201491997D01*
X223184703Y-201449332D01*
X223254317Y-201443353D01*
X223316112Y-201475959D01*
X223330008Y-201491995D01*
X223449836Y-201656925D01*
X223603075Y-201810164D01*
X223778400Y-201937545D01*
X223970579Y-202035465D01*
X223971494Y-202035931D01*
X224177595Y-202102897D01*
X224177596Y-202102897D01*
X224177599Y-202102898D01*
X224391644Y-202136800D01*
X224391645Y-202136800D01*
X224608355Y-202136800D01*
X224608356Y-202136800D01*
X224822401Y-202102898D01*
X224822404Y-202102897D01*
X224822405Y-202102897D01*
X225028505Y-202035931D01*
X225028505Y-202035930D01*
X225028508Y-202035930D01*
X225221600Y-201937545D01*
X225396925Y-201810164D01*
X225550164Y-201656925D01*
X225669682Y-201492423D01*
X225725012Y-201449757D01*
X225794625Y-201443778D01*
X225856420Y-201476384D01*
X225870318Y-201492423D01*
X225979595Y-201642829D01*
X225989836Y-201656925D01*
X226143075Y-201810164D01*
X226318400Y-201937545D01*
X226510579Y-202035465D01*
X226511494Y-202035931D01*
X226717595Y-202102897D01*
X226717596Y-202102897D01*
X226717599Y-202102898D01*
X226931644Y-202136800D01*
X226931645Y-202136800D01*
X227148355Y-202136800D01*
X227148356Y-202136800D01*
X227362401Y-202102898D01*
X227362404Y-202102897D01*
X227362405Y-202102897D01*
X227568505Y-202035931D01*
X227568505Y-202035930D01*
X227568508Y-202035930D01*
X227761600Y-201937545D01*
X227936925Y-201810164D01*
X228090164Y-201656925D01*
X228209682Y-201492423D01*
X228265012Y-201449757D01*
X228334625Y-201443778D01*
X228396420Y-201476384D01*
X228410318Y-201492423D01*
X228519595Y-201642829D01*
X228529836Y-201656925D01*
X228683075Y-201810164D01*
X228858400Y-201937545D01*
X229050579Y-202035465D01*
X229051494Y-202035931D01*
X229257595Y-202102897D01*
X229257596Y-202102897D01*
X229257599Y-202102898D01*
X229471644Y-202136800D01*
X229471645Y-202136800D01*
X229688355Y-202136800D01*
X229688356Y-202136800D01*
X229902401Y-202102898D01*
X229902404Y-202102897D01*
X229902405Y-202102897D01*
X230108505Y-202035931D01*
X230108505Y-202035930D01*
X230108508Y-202035930D01*
X230301600Y-201937545D01*
X230476925Y-201810164D01*
X230630164Y-201656925D01*
X230749682Y-201492423D01*
X230805012Y-201449757D01*
X230874625Y-201443778D01*
X230936420Y-201476384D01*
X230950318Y-201492423D01*
X231059595Y-201642829D01*
X231069836Y-201656925D01*
X231223075Y-201810164D01*
X231398400Y-201937545D01*
X231590579Y-202035465D01*
X231591494Y-202035931D01*
X231797595Y-202102897D01*
X231797596Y-202102897D01*
X231797599Y-202102898D01*
X232011644Y-202136800D01*
X232011645Y-202136800D01*
X232228355Y-202136800D01*
X232228356Y-202136800D01*
X232442401Y-202102898D01*
X232442404Y-202102897D01*
X232442405Y-202102897D01*
X232648505Y-202035931D01*
X232648505Y-202035930D01*
X232648508Y-202035930D01*
X232841600Y-201937545D01*
X233016925Y-201810164D01*
X233170164Y-201656925D01*
X233289682Y-201492423D01*
X233345012Y-201449757D01*
X233414625Y-201443778D01*
X233476420Y-201476384D01*
X233490318Y-201492423D01*
X233599595Y-201642829D01*
X233609836Y-201656925D01*
X233763075Y-201810164D01*
X233938400Y-201937545D01*
X234130579Y-202035465D01*
X234131494Y-202035931D01*
X234337595Y-202102897D01*
X234337596Y-202102897D01*
X234337599Y-202102898D01*
X234551644Y-202136800D01*
X234551645Y-202136800D01*
X234768355Y-202136800D01*
X234768356Y-202136800D01*
X234982401Y-202102898D01*
X234982404Y-202102897D01*
X234982405Y-202102897D01*
X235188505Y-202035931D01*
X235188505Y-202035930D01*
X235188508Y-202035930D01*
X235381600Y-201937545D01*
X235556925Y-201810164D01*
X235710164Y-201656925D01*
X235829682Y-201492423D01*
X235885012Y-201449757D01*
X235954625Y-201443778D01*
X236016420Y-201476384D01*
X236030318Y-201492423D01*
X236139595Y-201642829D01*
X236149836Y-201656925D01*
X236303075Y-201810164D01*
X236478400Y-201937545D01*
X236670579Y-202035465D01*
X236671494Y-202035931D01*
X236877595Y-202102897D01*
X236877596Y-202102897D01*
X236877599Y-202102898D01*
X237091644Y-202136800D01*
X237091645Y-202136800D01*
X237308355Y-202136800D01*
X237308356Y-202136800D01*
X237522401Y-202102898D01*
X237522404Y-202102897D01*
X237522405Y-202102897D01*
X237728505Y-202035931D01*
X237728505Y-202035930D01*
X237728508Y-202035930D01*
X237921600Y-201937545D01*
X238096925Y-201810164D01*
X238250164Y-201656925D01*
X238369682Y-201492423D01*
X238425012Y-201449757D01*
X238494625Y-201443778D01*
X238556420Y-201476384D01*
X238570318Y-201492423D01*
X238679595Y-201642829D01*
X238689836Y-201656925D01*
X238843075Y-201810164D01*
X239018400Y-201937545D01*
X239210579Y-202035465D01*
X239211494Y-202035931D01*
X239417595Y-202102897D01*
X239417596Y-202102897D01*
X239417599Y-202102898D01*
X239631644Y-202136800D01*
X239631645Y-202136800D01*
X239848355Y-202136800D01*
X239848356Y-202136800D01*
X240062401Y-202102898D01*
X240062404Y-202102897D01*
X240062405Y-202102897D01*
X240268505Y-202035931D01*
X240268505Y-202035930D01*
X240268508Y-202035930D01*
X240461600Y-201937545D01*
X240636925Y-201810164D01*
X240790164Y-201656925D01*
X240909682Y-201492423D01*
X240965012Y-201449757D01*
X241034625Y-201443778D01*
X241096420Y-201476384D01*
X241110318Y-201492423D01*
X241219595Y-201642829D01*
X241229836Y-201656925D01*
X241383075Y-201810164D01*
X241558400Y-201937545D01*
X241750579Y-202035465D01*
X241751494Y-202035931D01*
X241957595Y-202102897D01*
X241957596Y-202102897D01*
X241957599Y-202102898D01*
X242171644Y-202136800D01*
X242171645Y-202136800D01*
X242388355Y-202136800D01*
X242388356Y-202136800D01*
X242602401Y-202102898D01*
X242602404Y-202102897D01*
X242602405Y-202102897D01*
X242808505Y-202035931D01*
X242808505Y-202035930D01*
X242808508Y-202035930D01*
X243001600Y-201937545D01*
X243074552Y-201884542D01*
X243140356Y-201861063D01*
X243208410Y-201876888D01*
X243257105Y-201926994D01*
X243271436Y-201984861D01*
X243271436Y-208508709D01*
X243251751Y-208575748D01*
X243235117Y-208596390D01*
X240118326Y-211713181D01*
X240057003Y-211746666D01*
X240030645Y-211749500D01*
X232181941Y-211749500D01*
X232114902Y-211729815D01*
X232069147Y-211677011D01*
X232059203Y-211607853D01*
X232088228Y-211544297D01*
X232094260Y-211537819D01*
X232121786Y-211510292D01*
X232121789Y-211510289D01*
X232209394Y-211379179D01*
X232269737Y-211233497D01*
X232300500Y-211078842D01*
X232300500Y-210921158D01*
X232300500Y-210921155D01*
X232300499Y-210921153D01*
X232287533Y-210855970D01*
X232269737Y-210766503D01*
X232269735Y-210766498D01*
X232209397Y-210620827D01*
X232209390Y-210620814D01*
X232121789Y-210489711D01*
X232121786Y-210489707D01*
X232010292Y-210378213D01*
X232010288Y-210378210D01*
X231879185Y-210290609D01*
X231879172Y-210290602D01*
X231733501Y-210230264D01*
X231733489Y-210230261D01*
X231578845Y-210199500D01*
X231578842Y-210199500D01*
X231421158Y-210199500D01*
X231421155Y-210199500D01*
X231266510Y-210230261D01*
X231266498Y-210230264D01*
X231120827Y-210290602D01*
X231120814Y-210290609D01*
X230989711Y-210378210D01*
X230989707Y-210378213D01*
X230878213Y-210489707D01*
X230878210Y-210489711D01*
X230790609Y-210620814D01*
X230790602Y-210620827D01*
X230730264Y-210766498D01*
X230730261Y-210766510D01*
X230699500Y-210921153D01*
X230699500Y-211078846D01*
X230730261Y-211233489D01*
X230730264Y-211233501D01*
X230790602Y-211379172D01*
X230790609Y-211379185D01*
X230878210Y-211510288D01*
X230878213Y-211510292D01*
X230905740Y-211537819D01*
X230939225Y-211599142D01*
X230934241Y-211668834D01*
X230892369Y-211724767D01*
X230826905Y-211749184D01*
X230818059Y-211749500D01*
X228681941Y-211749500D01*
X228614902Y-211729815D01*
X228569147Y-211677011D01*
X228559203Y-211607853D01*
X228588228Y-211544297D01*
X228594260Y-211537819D01*
X228621786Y-211510292D01*
X228621789Y-211510289D01*
X228709394Y-211379179D01*
X228769737Y-211233497D01*
X228800500Y-211078842D01*
X228800500Y-210921158D01*
X228800500Y-210921155D01*
X228800499Y-210921153D01*
X228787533Y-210855970D01*
X228769737Y-210766503D01*
X228769735Y-210766498D01*
X228709397Y-210620827D01*
X228709390Y-210620814D01*
X228621789Y-210489711D01*
X228621786Y-210489707D01*
X228510292Y-210378213D01*
X228510288Y-210378210D01*
X228379185Y-210290609D01*
X228379172Y-210290602D01*
X228233501Y-210230264D01*
X228233489Y-210230261D01*
X228078845Y-210199500D01*
X228078842Y-210199500D01*
X227921158Y-210199500D01*
X227921155Y-210199500D01*
X227766510Y-210230261D01*
X227766498Y-210230264D01*
X227620827Y-210290602D01*
X227620814Y-210290609D01*
X227489711Y-210378210D01*
X227489707Y-210378213D01*
X227378213Y-210489707D01*
X227378210Y-210489711D01*
X227290609Y-210620814D01*
X227290602Y-210620827D01*
X227230264Y-210766498D01*
X227230261Y-210766510D01*
X227199500Y-210921153D01*
X227199500Y-211078846D01*
X227230261Y-211233489D01*
X227230264Y-211233501D01*
X227290602Y-211379172D01*
X227290609Y-211379185D01*
X227378210Y-211510288D01*
X227378213Y-211510292D01*
X227405740Y-211537819D01*
X227439225Y-211599142D01*
X227434241Y-211668834D01*
X227392369Y-211724767D01*
X227326905Y-211749184D01*
X227318059Y-211749500D01*
X217766080Y-211749500D01*
X217621092Y-211778340D01*
X217621082Y-211778343D01*
X217484511Y-211834912D01*
X217484498Y-211834919D01*
X217361584Y-211917048D01*
X217361580Y-211917051D01*
X214671793Y-214606837D01*
X214610470Y-214640322D01*
X214564714Y-214641629D01*
X214448361Y-214623200D01*
X214448356Y-214623200D01*
X214231644Y-214623200D01*
X214169979Y-214632967D01*
X214017597Y-214657102D01*
X214017594Y-214657102D01*
X213811494Y-214724068D01*
X213618399Y-214822455D01*
X213443072Y-214949838D01*
X213289838Y-215103072D01*
X213289838Y-215103073D01*
X213289836Y-215103075D01*
X213218198Y-215201675D01*
X213170318Y-215267577D01*
X213114988Y-215310242D01*
X213045374Y-215316221D01*
X212983579Y-215283615D01*
X212969682Y-215267577D01*
X212946837Y-215236134D01*
X212850164Y-215103075D01*
X212696925Y-214949836D01*
X212521600Y-214822455D01*
X212467585Y-214794933D01*
X212328505Y-214724068D01*
X212122404Y-214657102D01*
X211961867Y-214631675D01*
X211908356Y-214623200D01*
X211691644Y-214623200D01*
X211629979Y-214632967D01*
X211477597Y-214657102D01*
X211477594Y-214657102D01*
X211271494Y-214724068D01*
X211078399Y-214822455D01*
X210903072Y-214949838D01*
X210749838Y-215103072D01*
X210622455Y-215278399D01*
X210524068Y-215471494D01*
X210457102Y-215677594D01*
X210457102Y-215677597D01*
X210423200Y-215891644D01*
X210423200Y-216108355D01*
X210457102Y-216322402D01*
X210457102Y-216322405D01*
X210524068Y-216528505D01*
X210596004Y-216669687D01*
X210622455Y-216721600D01*
X210749836Y-216896925D01*
X210903075Y-217050164D01*
X211078400Y-217177545D01*
X211270579Y-217275465D01*
X211271494Y-217275931D01*
X211477595Y-217342897D01*
X211477596Y-217342897D01*
X211477599Y-217342898D01*
X211691644Y-217376800D01*
X211691645Y-217376800D01*
X211908355Y-217376800D01*
X211908356Y-217376800D01*
X212122401Y-217342898D01*
X212122404Y-217342897D01*
X212122405Y-217342897D01*
X212328505Y-217275931D01*
X212328505Y-217275930D01*
X212328508Y-217275930D01*
X212521600Y-217177545D01*
X212696925Y-217050164D01*
X212850164Y-216896925D01*
X212935328Y-216779706D01*
X212969682Y-216732423D01*
X213025012Y-216689757D01*
X213094625Y-216683778D01*
X213156420Y-216716384D01*
X213170318Y-216732423D01*
X213258455Y-216853733D01*
X213289836Y-216896925D01*
X213443075Y-217050164D01*
X213618400Y-217177545D01*
X213810579Y-217275465D01*
X213811494Y-217275931D01*
X214017595Y-217342897D01*
X214017596Y-217342897D01*
X214017599Y-217342898D01*
X214231644Y-217376800D01*
X214231645Y-217376800D01*
X214448355Y-217376800D01*
X214448356Y-217376800D01*
X214662401Y-217342898D01*
X214662404Y-217342897D01*
X214662405Y-217342897D01*
X214868505Y-217275931D01*
X214868505Y-217275930D01*
X214868508Y-217275930D01*
X215061600Y-217177545D01*
X215236925Y-217050164D01*
X215390164Y-216896925D01*
X215509991Y-216731996D01*
X215565321Y-216689331D01*
X215634934Y-216683352D01*
X215696729Y-216715958D01*
X215710628Y-216731998D01*
X215745899Y-216780545D01*
X216359396Y-216167048D01*
X216371116Y-216210787D01*
X216443011Y-216335313D01*
X216544687Y-216436989D01*
X216669213Y-216508884D01*
X216712950Y-216520603D01*
X216099452Y-217134099D01*
X216099453Y-217134100D01*
X216158657Y-217177114D01*
X216351679Y-217275465D01*
X216557715Y-217342411D01*
X216771678Y-217376300D01*
X216988322Y-217376300D01*
X217202284Y-217342411D01*
X217408320Y-217275465D01*
X217601331Y-217177120D01*
X217601344Y-217177112D01*
X217660545Y-217134100D01*
X217660546Y-217134099D01*
X217047049Y-216520603D01*
X217090787Y-216508884D01*
X217215313Y-216436989D01*
X217316989Y-216335313D01*
X217388884Y-216210787D01*
X217400603Y-216167049D01*
X218014099Y-216780546D01*
X218014099Y-216780545D01*
X218049373Y-216731997D01*
X218104703Y-216689332D01*
X218174317Y-216683353D01*
X218236112Y-216715959D01*
X218250008Y-216731995D01*
X218369836Y-216896925D01*
X218523075Y-217050164D01*
X218698400Y-217177545D01*
X218890579Y-217275465D01*
X218891494Y-217275931D01*
X219097595Y-217342897D01*
X219097596Y-217342897D01*
X219097599Y-217342898D01*
X219252726Y-217367468D01*
X219315861Y-217397397D01*
X219352792Y-217456709D01*
X219351794Y-217526571D01*
X219321009Y-217577622D01*
X217185451Y-219713181D01*
X217124128Y-219746666D01*
X217097770Y-219749500D01*
X202362229Y-219749500D01*
X202295190Y-219729815D01*
X202274548Y-219713181D01*
X197417624Y-214856256D01*
X197384139Y-214794933D01*
X197381305Y-214768575D01*
X197381305Y-214336380D01*
X201699500Y-214336380D01*
X201699500Y-214494073D01*
X201730261Y-214648716D01*
X201730264Y-214648728D01*
X201790602Y-214794399D01*
X201790609Y-214794412D01*
X201878210Y-214925515D01*
X201878213Y-214925519D01*
X201989707Y-215037013D01*
X201989711Y-215037016D01*
X202120814Y-215124617D01*
X202120827Y-215124624D01*
X202266498Y-215184962D01*
X202266503Y-215184964D01*
X202365838Y-215204723D01*
X202421153Y-215215726D01*
X202421156Y-215215727D01*
X202421158Y-215215727D01*
X202578844Y-215215727D01*
X202578845Y-215215726D01*
X202733497Y-215184964D01*
X202879179Y-215124621D01*
X203010289Y-215037016D01*
X203121789Y-214925516D01*
X203209394Y-214794406D01*
X203269737Y-214648724D01*
X203300500Y-214494069D01*
X203300500Y-214336385D01*
X203300500Y-214336382D01*
X203300499Y-214336380D01*
X203269738Y-214181737D01*
X203269737Y-214181730D01*
X203269735Y-214181725D01*
X203209397Y-214036054D01*
X203209390Y-214036041D01*
X203121789Y-213904938D01*
X203121786Y-213904934D01*
X203010292Y-213793440D01*
X203010288Y-213793437D01*
X202879185Y-213705836D01*
X202879172Y-213705829D01*
X202733501Y-213645491D01*
X202733489Y-213645488D01*
X202578845Y-213614727D01*
X202578842Y-213614727D01*
X202421158Y-213614727D01*
X202421155Y-213614727D01*
X202266510Y-213645488D01*
X202266498Y-213645491D01*
X202120827Y-213705829D01*
X202120814Y-213705836D01*
X201989711Y-213793437D01*
X201989707Y-213793440D01*
X201878213Y-213904934D01*
X201878210Y-213904938D01*
X201790609Y-214036041D01*
X201790602Y-214036054D01*
X201730264Y-214181725D01*
X201730261Y-214181737D01*
X201699500Y-214336380D01*
X197381305Y-214336380D01*
X197381305Y-198546153D01*
X201574500Y-198546153D01*
X201574500Y-198703846D01*
X201605261Y-198858489D01*
X201605264Y-198858501D01*
X201665602Y-199004172D01*
X201665609Y-199004185D01*
X201753210Y-199135288D01*
X201753213Y-199135292D01*
X201864707Y-199246786D01*
X201864711Y-199246789D01*
X201995814Y-199334390D01*
X201995827Y-199334397D01*
X202113650Y-199383200D01*
X202141503Y-199394737D01*
X202253939Y-199417102D01*
X202296153Y-199425499D01*
X202296156Y-199425500D01*
X202296158Y-199425500D01*
X202453844Y-199425500D01*
X202453845Y-199425499D01*
X202608497Y-199394737D01*
X202745642Y-199337930D01*
X202754172Y-199334397D01*
X202754172Y-199334396D01*
X202754179Y-199334394D01*
X202885289Y-199246789D01*
X202996789Y-199135289D01*
X203084394Y-199004179D01*
X203144737Y-198858497D01*
X203175500Y-198703842D01*
X203175500Y-198546158D01*
X203175500Y-198546155D01*
X203175499Y-198546153D01*
X203144738Y-198391510D01*
X203144737Y-198391503D01*
X203144735Y-198391498D01*
X203084397Y-198245827D01*
X203084390Y-198245814D01*
X202996789Y-198114711D01*
X202996786Y-198114707D01*
X202885292Y-198003213D01*
X202885288Y-198003210D01*
X202754185Y-197915609D01*
X202754172Y-197915602D01*
X202608501Y-197855264D01*
X202608489Y-197855261D01*
X202453845Y-197824500D01*
X202453842Y-197824500D01*
X202296158Y-197824500D01*
X202296155Y-197824500D01*
X202141510Y-197855261D01*
X202141498Y-197855264D01*
X201995827Y-197915602D01*
X201995814Y-197915609D01*
X201864711Y-198003210D01*
X201864707Y-198003213D01*
X201753213Y-198114707D01*
X201753210Y-198114711D01*
X201665609Y-198245814D01*
X201665602Y-198245827D01*
X201605264Y-198391498D01*
X201605261Y-198391510D01*
X201574500Y-198546153D01*
X197381305Y-198546153D01*
X197381305Y-195421153D01*
X199699500Y-195421153D01*
X199699500Y-195578846D01*
X199730261Y-195733489D01*
X199730264Y-195733501D01*
X199790602Y-195879172D01*
X199790609Y-195879185D01*
X199878210Y-196010288D01*
X199878213Y-196010292D01*
X199989707Y-196121786D01*
X199989711Y-196121789D01*
X200120814Y-196209390D01*
X200120827Y-196209397D01*
X200266498Y-196269735D01*
X200266503Y-196269737D01*
X200421153Y-196300499D01*
X200421156Y-196300500D01*
X200421158Y-196300500D01*
X200578844Y-196300500D01*
X200578845Y-196300499D01*
X200733497Y-196269737D01*
X200879179Y-196209394D01*
X200931110Y-196174694D01*
X200997785Y-196153816D01*
X201065165Y-196172300D01*
X201068863Y-196174676D01*
X201120821Y-196209394D01*
X201120823Y-196209395D01*
X201120825Y-196209396D01*
X201266498Y-196269735D01*
X201266503Y-196269737D01*
X201421153Y-196300499D01*
X201421156Y-196300500D01*
X201421158Y-196300500D01*
X201578844Y-196300500D01*
X201578845Y-196300499D01*
X201733497Y-196269737D01*
X201879179Y-196209394D01*
X202010289Y-196121789D01*
X202121789Y-196010289D01*
X202209394Y-195879179D01*
X202269737Y-195733497D01*
X202300500Y-195578842D01*
X202300500Y-195421158D01*
X202300500Y-195421155D01*
X202300499Y-195421153D01*
X202269738Y-195266510D01*
X202269737Y-195266503D01*
X202269735Y-195266498D01*
X202209397Y-195120827D01*
X202209390Y-195120814D01*
X202121789Y-194989711D01*
X202121786Y-194989707D01*
X202010292Y-194878213D01*
X202010288Y-194878210D01*
X201879185Y-194790609D01*
X201879172Y-194790602D01*
X201733501Y-194730264D01*
X201733489Y-194730261D01*
X201578845Y-194699500D01*
X201578842Y-194699500D01*
X201421158Y-194699500D01*
X201421155Y-194699500D01*
X201266510Y-194730261D01*
X201266498Y-194730264D01*
X201120827Y-194790602D01*
X201120814Y-194790609D01*
X201068891Y-194825304D01*
X201002214Y-194846182D01*
X200934833Y-194827698D01*
X200931109Y-194825304D01*
X200879185Y-194790609D01*
X200879172Y-194790602D01*
X200733501Y-194730264D01*
X200733489Y-194730261D01*
X200578845Y-194699500D01*
X200578842Y-194699500D01*
X200421158Y-194699500D01*
X200421155Y-194699500D01*
X200266510Y-194730261D01*
X200266498Y-194730264D01*
X200120827Y-194790602D01*
X200120814Y-194790609D01*
X199989711Y-194878210D01*
X199989707Y-194878213D01*
X199878213Y-194989707D01*
X199878210Y-194989711D01*
X199790609Y-195120814D01*
X199790602Y-195120827D01*
X199730264Y-195266498D01*
X199730261Y-195266510D01*
X199699500Y-195421153D01*
X197381305Y-195421153D01*
X197381305Y-194511518D01*
X197400990Y-194444479D01*
X197453794Y-194398724D01*
X197505305Y-194387518D01*
X197528676Y-194387518D01*
X197528677Y-194387518D01*
X197588288Y-194381110D01*
X197723136Y-194330815D01*
X197838351Y-194244565D01*
X197924601Y-194129350D01*
X197973615Y-193997935D01*
X198015486Y-193942003D01*
X198080950Y-193917585D01*
X198149223Y-193932436D01*
X198177478Y-193953588D01*
X198291018Y-194067128D01*
X198462984Y-194192067D01*
X198462986Y-194192068D01*
X198462989Y-194192070D01*
X198652393Y-194288576D01*
X198854562Y-194354265D01*
X199064518Y-194387519D01*
X199064519Y-194387519D01*
X199277091Y-194387519D01*
X199277092Y-194387519D01*
X199487048Y-194354265D01*
X199689217Y-194288576D01*
X199878621Y-194192070D01*
X199964943Y-194129354D01*
X200050591Y-194067128D01*
X200050593Y-194067125D01*
X200050597Y-194067123D01*
X200200909Y-193916811D01*
X200200911Y-193916807D01*
X200200914Y-193916805D01*
X200325853Y-193744839D01*
X200325852Y-193744839D01*
X200325856Y-193744835D01*
X200330319Y-193736073D01*
X200378293Y-193685278D01*
X200446113Y-193668482D01*
X200512249Y-193691018D01*
X200551291Y-193736075D01*
X200555756Y-193744839D01*
X200680695Y-193916805D01*
X200831018Y-194067128D01*
X201002984Y-194192067D01*
X201002986Y-194192068D01*
X201002989Y-194192070D01*
X201192393Y-194288576D01*
X201394562Y-194354265D01*
X201604518Y-194387519D01*
X201604519Y-194387519D01*
X201817091Y-194387519D01*
X201817092Y-194387519D01*
X202027048Y-194354265D01*
X202229217Y-194288576D01*
X202418621Y-194192070D01*
X202504943Y-194129354D01*
X202590591Y-194067128D01*
X202590593Y-194067125D01*
X202590597Y-194067123D01*
X202740909Y-193916811D01*
X202740911Y-193916807D01*
X202740914Y-193916805D01*
X202865853Y-193744839D01*
X202865852Y-193744839D01*
X202865856Y-193744835D01*
X202870319Y-193736073D01*
X202918293Y-193685278D01*
X202986113Y-193668482D01*
X203052249Y-193691018D01*
X203091291Y-193736075D01*
X203095756Y-193744839D01*
X203220695Y-193916805D01*
X203371018Y-194067128D01*
X203542984Y-194192067D01*
X203542986Y-194192068D01*
X203542989Y-194192070D01*
X203732393Y-194288576D01*
X203934562Y-194354265D01*
X204144518Y-194387519D01*
X204144519Y-194387519D01*
X204357091Y-194387519D01*
X204357092Y-194387519D01*
X204567048Y-194354265D01*
X204769217Y-194288576D01*
X204958621Y-194192070D01*
X205044943Y-194129354D01*
X205130591Y-194067128D01*
X205130593Y-194067125D01*
X205130597Y-194067123D01*
X205280909Y-193916811D01*
X205280911Y-193916807D01*
X205280914Y-193916805D01*
X205405853Y-193744839D01*
X205405852Y-193744839D01*
X205405856Y-193744835D01*
X205410319Y-193736073D01*
X205458293Y-193685278D01*
X205526113Y-193668482D01*
X205592249Y-193691018D01*
X205631291Y-193736075D01*
X205635756Y-193744839D01*
X205760695Y-193916805D01*
X205911018Y-194067128D01*
X206082984Y-194192067D01*
X206082986Y-194192068D01*
X206082989Y-194192070D01*
X206272393Y-194288576D01*
X206474562Y-194354265D01*
X206684518Y-194387519D01*
X206684519Y-194387519D01*
X206897091Y-194387519D01*
X206897092Y-194387519D01*
X207107048Y-194354265D01*
X207309217Y-194288576D01*
X207498621Y-194192070D01*
X207584943Y-194129354D01*
X207670591Y-194067128D01*
X207670593Y-194067125D01*
X207670597Y-194067123D01*
X207820909Y-193916811D01*
X207820911Y-193916807D01*
X207820914Y-193916805D01*
X207945853Y-193744839D01*
X207945852Y-193744839D01*
X207945856Y-193744835D01*
X207950319Y-193736073D01*
X207998293Y-193685278D01*
X208066113Y-193668482D01*
X208132249Y-193691018D01*
X208171291Y-193736075D01*
X208175756Y-193744839D01*
X208300695Y-193916805D01*
X208451018Y-194067128D01*
X208622984Y-194192067D01*
X208622986Y-194192068D01*
X208622989Y-194192070D01*
X208812393Y-194288576D01*
X209014562Y-194354265D01*
X209224518Y-194387519D01*
X209224519Y-194387519D01*
X209437091Y-194387519D01*
X209437092Y-194387519D01*
X209647048Y-194354265D01*
X209849217Y-194288576D01*
X210038621Y-194192070D01*
X210124943Y-194129354D01*
X210210591Y-194067128D01*
X210210593Y-194067125D01*
X210210597Y-194067123D01*
X210360909Y-193916811D01*
X210360911Y-193916807D01*
X210360914Y-193916805D01*
X210485853Y-193744839D01*
X210485852Y-193744839D01*
X210485856Y-193744835D01*
X210490319Y-193736073D01*
X210538293Y-193685278D01*
X210606113Y-193668482D01*
X210672249Y-193691018D01*
X210711291Y-193736075D01*
X210715756Y-193744839D01*
X210840695Y-193916805D01*
X210991018Y-194067128D01*
X211162984Y-194192067D01*
X211162986Y-194192068D01*
X211162989Y-194192070D01*
X211352393Y-194288576D01*
X211554562Y-194354265D01*
X211764518Y-194387519D01*
X211764519Y-194387519D01*
X211977091Y-194387519D01*
X211977092Y-194387519D01*
X212187048Y-194354265D01*
X212389217Y-194288576D01*
X212578621Y-194192070D01*
X212664943Y-194129354D01*
X212750591Y-194067128D01*
X212750593Y-194067125D01*
X212750597Y-194067123D01*
X212900909Y-193916811D01*
X212900911Y-193916807D01*
X212900914Y-193916805D01*
X213025853Y-193744839D01*
X213025852Y-193744839D01*
X213025856Y-193744835D01*
X213122362Y-193555431D01*
X213188051Y-193353262D01*
X213221305Y-193143306D01*
X213221305Y-192930732D01*
X213188051Y-192720776D01*
X213122362Y-192518607D01*
X213025856Y-192329203D01*
X213025854Y-192329200D01*
X213025853Y-192329198D01*
X212900914Y-192157232D01*
X212750591Y-192006909D01*
X212578625Y-191881970D01*
X212577920Y-191881610D01*
X212569859Y-191877504D01*
X212519064Y-191829531D01*
X212502268Y-191761711D01*
X212524804Y-191695575D01*
X212554609Y-191665740D01*
X212561898Y-191660590D01*
X212578621Y-191652070D01*
X212595094Y-191640102D01*
X216699500Y-191640102D01*
X216699500Y-191797795D01*
X216730261Y-191952438D01*
X216730264Y-191952450D01*
X216790602Y-192098121D01*
X216790609Y-192098134D01*
X216878210Y-192229237D01*
X216878213Y-192229241D01*
X216989707Y-192340735D01*
X216989711Y-192340738D01*
X217120814Y-192428339D01*
X217120827Y-192428346D01*
X217264943Y-192488040D01*
X217266503Y-192488686D01*
X217416910Y-192518604D01*
X217421153Y-192519448D01*
X217421156Y-192519449D01*
X217421158Y-192519449D01*
X217578844Y-192519449D01*
X217578845Y-192519448D01*
X217733497Y-192488686D01*
X217879179Y-192428343D01*
X218010289Y-192340738D01*
X218121789Y-192229238D01*
X218209394Y-192098128D01*
X218209665Y-192097475D01*
X218269735Y-191952450D01*
X218269737Y-191952446D01*
X218300500Y-191797791D01*
X218300500Y-191640107D01*
X218300498Y-191640100D01*
X218300498Y-191640094D01*
X218300371Y-191639456D01*
X224865247Y-191639456D01*
X224865247Y-191797149D01*
X224896007Y-191951788D01*
X224896011Y-191951804D01*
X224956349Y-192097475D01*
X224956356Y-192097488D01*
X225043957Y-192228591D01*
X225043960Y-192228595D01*
X225155454Y-192340089D01*
X225155458Y-192340092D01*
X225286561Y-192427693D01*
X225286574Y-192427700D01*
X225432245Y-192488038D01*
X225432250Y-192488040D01*
X225585905Y-192518604D01*
X225586900Y-192518802D01*
X225586903Y-192518803D01*
X225586905Y-192518803D01*
X225744591Y-192518803D01*
X225744592Y-192518802D01*
X225899244Y-192488040D01*
X226043359Y-192428346D01*
X226044919Y-192427700D01*
X226044919Y-192427699D01*
X226044926Y-192427697D01*
X226176036Y-192340092D01*
X226287536Y-192228592D01*
X226375141Y-192097482D01*
X226435484Y-191951800D01*
X226435485Y-191951793D01*
X226435487Y-191951788D01*
X226459816Y-191829474D01*
X226466247Y-191797145D01*
X226466247Y-191639461D01*
X226466247Y-191639458D01*
X226466246Y-191639456D01*
X226443902Y-191527128D01*
X226435484Y-191484806D01*
X226391735Y-191379185D01*
X226375144Y-191339130D01*
X226375137Y-191339117D01*
X226287536Y-191208014D01*
X226287533Y-191208010D01*
X226176039Y-191096516D01*
X226176035Y-191096513D01*
X226044932Y-191008912D01*
X226044919Y-191008905D01*
X225899248Y-190948567D01*
X225899236Y-190948564D01*
X225744592Y-190917803D01*
X225744589Y-190917803D01*
X225586905Y-190917803D01*
X225586902Y-190917803D01*
X225432257Y-190948564D01*
X225432245Y-190948567D01*
X225286574Y-191008905D01*
X225286561Y-191008912D01*
X225155458Y-191096513D01*
X225155454Y-191096516D01*
X225043960Y-191208010D01*
X225043957Y-191208014D01*
X224956356Y-191339117D01*
X224956349Y-191339130D01*
X224896011Y-191484801D01*
X224896008Y-191484813D01*
X224865247Y-191639456D01*
X218300371Y-191639456D01*
X218269738Y-191485459D01*
X218269737Y-191485452D01*
X218225718Y-191379179D01*
X218209397Y-191339776D01*
X218209390Y-191339763D01*
X218121789Y-191208660D01*
X218121786Y-191208656D01*
X218010292Y-191097162D01*
X218010288Y-191097159D01*
X217879185Y-191009558D01*
X217879172Y-191009551D01*
X217733501Y-190949213D01*
X217733489Y-190949210D01*
X217578845Y-190918449D01*
X217578842Y-190918449D01*
X217421158Y-190918449D01*
X217421155Y-190918449D01*
X217266510Y-190949210D01*
X217266498Y-190949213D01*
X217120827Y-191009551D01*
X217120814Y-191009558D01*
X216989711Y-191097159D01*
X216989707Y-191097162D01*
X216878213Y-191208656D01*
X216878210Y-191208660D01*
X216790609Y-191339763D01*
X216790602Y-191339776D01*
X216730264Y-191485447D01*
X216730261Y-191485459D01*
X216699500Y-191640102D01*
X212595094Y-191640102D01*
X212750597Y-191527123D01*
X212900909Y-191376811D01*
X212900911Y-191376807D01*
X212900914Y-191376805D01*
X213025853Y-191204839D01*
X213025852Y-191204839D01*
X213025856Y-191204835D01*
X213122362Y-191015431D01*
X213188051Y-190813262D01*
X213221305Y-190603306D01*
X213221305Y-190390732D01*
X213188051Y-190180776D01*
X213122362Y-189978607D01*
X213025856Y-189789203D01*
X213025854Y-189789200D01*
X213025853Y-189789198D01*
X212900914Y-189617232D01*
X212750591Y-189466909D01*
X212578625Y-189341970D01*
X212389219Y-189245463D01*
X212389218Y-189245462D01*
X212389217Y-189245462D01*
X212187048Y-189179773D01*
X212187046Y-189179772D01*
X212187045Y-189179772D01*
X211985552Y-189147859D01*
X211977092Y-189146519D01*
X211764518Y-189146519D01*
X211756058Y-189147859D01*
X211554565Y-189179772D01*
X211352390Y-189245463D01*
X211162984Y-189341970D01*
X210991018Y-189466909D01*
X210840695Y-189617232D01*
X210715754Y-189789201D01*
X210711007Y-189798518D01*
X210663032Y-189849312D01*
X210595210Y-189866106D01*
X210529076Y-189843567D01*
X210490039Y-189798514D01*
X210485431Y-189789471D01*
X210446075Y-189735301D01*
X210446074Y-189735301D01*
X209813767Y-190367609D01*
X209796730Y-190304026D01*
X209730904Y-190190012D01*
X209637812Y-190096920D01*
X209523798Y-190031094D01*
X209460214Y-190014056D01*
X210092521Y-189381747D01*
X210038355Y-189342394D01*
X209849022Y-189245923D01*
X209646934Y-189180261D01*
X209437051Y-189147019D01*
X209224559Y-189147019D01*
X209014677Y-189180261D01*
X209014674Y-189180261D01*
X208812587Y-189245923D01*
X208623244Y-189342399D01*
X208569087Y-189381746D01*
X208569087Y-189381747D01*
X209201396Y-190014056D01*
X209137812Y-190031094D01*
X209023798Y-190096920D01*
X208930706Y-190190012D01*
X208864880Y-190304026D01*
X208847842Y-190367610D01*
X208215533Y-189735301D01*
X208215532Y-189735301D01*
X208176185Y-189789459D01*
X208176181Y-189789465D01*
X208171565Y-189798524D01*
X208123586Y-189849316D01*
X208055764Y-189866106D01*
X207989631Y-189843562D01*
X207950599Y-189798512D01*
X207945856Y-189789203D01*
X207945854Y-189789200D01*
X207945853Y-189789198D01*
X207820914Y-189617232D01*
X207670591Y-189466909D01*
X207498625Y-189341970D01*
X207309219Y-189245463D01*
X207309218Y-189245462D01*
X207309217Y-189245462D01*
X207107048Y-189179773D01*
X207107046Y-189179772D01*
X207107045Y-189179772D01*
X206905552Y-189147859D01*
X206897092Y-189146519D01*
X206684518Y-189146519D01*
X206676058Y-189147859D01*
X206474565Y-189179772D01*
X206272390Y-189245463D01*
X206082984Y-189341970D01*
X205911018Y-189466909D01*
X205760695Y-189617232D01*
X205635754Y-189789201D01*
X205631289Y-189797965D01*
X205583314Y-189848761D01*
X205515493Y-189865555D01*
X205449358Y-189843017D01*
X205410321Y-189797965D01*
X205405855Y-189789201D01*
X205280914Y-189617232D01*
X205130591Y-189466909D01*
X204958625Y-189341970D01*
X204769219Y-189245463D01*
X204769218Y-189245462D01*
X204769217Y-189245462D01*
X204567048Y-189179773D01*
X204567046Y-189179772D01*
X204567045Y-189179772D01*
X204365552Y-189147859D01*
X204357092Y-189146519D01*
X204144518Y-189146519D01*
X204136058Y-189147859D01*
X203934565Y-189179772D01*
X203732390Y-189245463D01*
X203542984Y-189341970D01*
X203371018Y-189466909D01*
X203220695Y-189617232D01*
X203095754Y-189789201D01*
X203091289Y-189797965D01*
X203043314Y-189848761D01*
X202975493Y-189865555D01*
X202909358Y-189843017D01*
X202870321Y-189797965D01*
X202865855Y-189789201D01*
X202740914Y-189617232D01*
X202590591Y-189466909D01*
X202418625Y-189341970D01*
X202229219Y-189245463D01*
X202229218Y-189245462D01*
X202229217Y-189245462D01*
X202027048Y-189179773D01*
X202027046Y-189179772D01*
X202027045Y-189179772D01*
X201825552Y-189147859D01*
X201817092Y-189146519D01*
X201604518Y-189146519D01*
X201596058Y-189147859D01*
X201394565Y-189179772D01*
X201192390Y-189245463D01*
X201002984Y-189341970D01*
X200831018Y-189466909D01*
X200680695Y-189617232D01*
X200555754Y-189789201D01*
X200551289Y-189797965D01*
X200503314Y-189848761D01*
X200435493Y-189865555D01*
X200369358Y-189843017D01*
X200330321Y-189797965D01*
X200325855Y-189789201D01*
X200200914Y-189617232D01*
X200050591Y-189466909D01*
X199878625Y-189341970D01*
X199689219Y-189245463D01*
X199689218Y-189245462D01*
X199689217Y-189245462D01*
X199487048Y-189179773D01*
X199487046Y-189179772D01*
X199487045Y-189179772D01*
X199285552Y-189147859D01*
X199277092Y-189146519D01*
X199064518Y-189146519D01*
X199056058Y-189147859D01*
X198854565Y-189179772D01*
X198652390Y-189245463D01*
X198462984Y-189341970D01*
X198291018Y-189466909D01*
X198140695Y-189617232D01*
X198015754Y-189789201D01*
X198011007Y-189798518D01*
X197963032Y-189849312D01*
X197895210Y-189866106D01*
X197829076Y-189843567D01*
X197790039Y-189798514D01*
X197785431Y-189789471D01*
X197746075Y-189735301D01*
X197746074Y-189735301D01*
X197113767Y-190367609D01*
X197096730Y-190304026D01*
X197030904Y-190190012D01*
X196937812Y-190096920D01*
X196823798Y-190031094D01*
X196760214Y-190014056D01*
X197392521Y-189381747D01*
X197338355Y-189342394D01*
X197149022Y-189245923D01*
X196946934Y-189180261D01*
X196737051Y-189147019D01*
X196524559Y-189147019D01*
X196314677Y-189180261D01*
X196314674Y-189180261D01*
X196112587Y-189245923D01*
X195923244Y-189342399D01*
X195869087Y-189381746D01*
X195869087Y-189381747D01*
X196501396Y-190014056D01*
X196437812Y-190031094D01*
X196323798Y-190096920D01*
X196230706Y-190190012D01*
X196164880Y-190304026D01*
X196147842Y-190367609D01*
X195515533Y-189735301D01*
X195515532Y-189735301D01*
X195476185Y-189789458D01*
X195379709Y-189978801D01*
X195314047Y-190180888D01*
X195314047Y-190180891D01*
X195280805Y-190390772D01*
X195280805Y-190603265D01*
X195314047Y-190813146D01*
X195314047Y-190813149D01*
X195379709Y-191015236D01*
X195476180Y-191204569D01*
X195515533Y-191258735D01*
X196147842Y-190626427D01*
X196164880Y-190690012D01*
X196230706Y-190804026D01*
X196323798Y-190897118D01*
X196437812Y-190962944D01*
X196501395Y-190979981D01*
X195831175Y-191650200D01*
X195769852Y-191683685D01*
X195743503Y-191686519D01*
X195732939Y-191686519D01*
X195732928Y-191686520D01*
X195673321Y-191692927D01*
X195538476Y-191743221D01*
X195538469Y-191743225D01*
X195423260Y-191829471D01*
X195423257Y-191829474D01*
X195337011Y-191944683D01*
X195337007Y-191944690D01*
X195286713Y-192079536D01*
X195280306Y-192139135D01*
X195280305Y-192139154D01*
X166870500Y-192139154D01*
X166870500Y-188921153D01*
X182199500Y-188921153D01*
X182199500Y-189078846D01*
X182230261Y-189233489D01*
X182230264Y-189233501D01*
X182290602Y-189379172D01*
X182290609Y-189379185D01*
X182378210Y-189510288D01*
X182378213Y-189510292D01*
X182489707Y-189621786D01*
X182489711Y-189621789D01*
X182620814Y-189709390D01*
X182620827Y-189709397D01*
X182701398Y-189742770D01*
X182766503Y-189769737D01*
X182908414Y-189797965D01*
X182921153Y-189800499D01*
X182921156Y-189800500D01*
X182921158Y-189800500D01*
X183078844Y-189800500D01*
X183078845Y-189800499D01*
X183155152Y-189785320D01*
X183233488Y-189769739D01*
X183233489Y-189769738D01*
X183233497Y-189769737D01*
X183257155Y-189759937D01*
X183304604Y-189750500D01*
X189637770Y-189750500D01*
X189704809Y-189770185D01*
X189725451Y-189786819D01*
X191253926Y-191315293D01*
X191280805Y-191355519D01*
X191290603Y-191379172D01*
X191290606Y-191379178D01*
X191290609Y-191379185D01*
X191378210Y-191510288D01*
X191378213Y-191510292D01*
X191489707Y-191621786D01*
X191489711Y-191621789D01*
X191620814Y-191709390D01*
X191620827Y-191709397D01*
X191715415Y-191748576D01*
X191766503Y-191769737D01*
X191907539Y-191797791D01*
X191921153Y-191800499D01*
X191921156Y-191800500D01*
X191921158Y-191800500D01*
X192078844Y-191800500D01*
X192078845Y-191800499D01*
X192233497Y-191769737D01*
X192379179Y-191709394D01*
X192510289Y-191621789D01*
X192621789Y-191510289D01*
X192709394Y-191379179D01*
X192769737Y-191233497D01*
X192800500Y-191078842D01*
X192800500Y-190921158D01*
X192800500Y-190921155D01*
X192800499Y-190921153D01*
X192795024Y-190893627D01*
X192769737Y-190766503D01*
X192720252Y-190647034D01*
X192709397Y-190620827D01*
X192709390Y-190620814D01*
X192621789Y-190489711D01*
X192621786Y-190489707D01*
X192510292Y-190378213D01*
X192510288Y-190378210D01*
X192379185Y-190290609D01*
X192379180Y-190290607D01*
X192379179Y-190290606D01*
X192355519Y-190280805D01*
X192315293Y-190253926D01*
X191891819Y-189830451D01*
X191858334Y-189769128D01*
X191855500Y-189742770D01*
X191855500Y-188257228D01*
X191875185Y-188190189D01*
X191891814Y-188169552D01*
X199804291Y-180257075D01*
X200863577Y-180257075D01*
X200863577Y-180414768D01*
X200894338Y-180569411D01*
X200894341Y-180569423D01*
X200954679Y-180715094D01*
X200954686Y-180715107D01*
X201042287Y-180846210D01*
X201042290Y-180846214D01*
X201153784Y-180957708D01*
X201153788Y-180957711D01*
X201284891Y-181045312D01*
X201284904Y-181045319D01*
X201430575Y-181105657D01*
X201430580Y-181105659D01*
X201585230Y-181136421D01*
X201585233Y-181136422D01*
X201585235Y-181136422D01*
X201742921Y-181136422D01*
X201742922Y-181136421D01*
X201897574Y-181105659D01*
X202043256Y-181045316D01*
X202174366Y-180957711D01*
X202285866Y-180846211D01*
X202373471Y-180715101D01*
X202433814Y-180569419D01*
X202464577Y-180414764D01*
X202464577Y-180414762D01*
X202464714Y-180414074D01*
X202497098Y-180352163D01*
X202498591Y-180350643D01*
X204014664Y-178834571D01*
X204075985Y-178801088D01*
X204078152Y-178800637D01*
X204078841Y-178800500D01*
X204078842Y-178800500D01*
X204233497Y-178769737D01*
X204350790Y-178721153D01*
X206999500Y-178721153D01*
X206999500Y-178878846D01*
X207030261Y-179033489D01*
X207030264Y-179033501D01*
X207090602Y-179179172D01*
X207090609Y-179179185D01*
X207178210Y-179310288D01*
X207178213Y-179310292D01*
X207289707Y-179421786D01*
X207289711Y-179421789D01*
X207420814Y-179509390D01*
X207420827Y-179509397D01*
X207557930Y-179566186D01*
X207566503Y-179569737D01*
X207721153Y-179600499D01*
X207721156Y-179600500D01*
X207721158Y-179600500D01*
X207878844Y-179600500D01*
X207878845Y-179600499D01*
X208033497Y-179569737D01*
X208179179Y-179509394D01*
X208310289Y-179421789D01*
X208421789Y-179310289D01*
X208509394Y-179179179D01*
X208569737Y-179033497D01*
X208600500Y-178878842D01*
X208600500Y-178721158D01*
X208600500Y-178721155D01*
X208600499Y-178721153D01*
X208569738Y-178566510D01*
X208569737Y-178566503D01*
X208546452Y-178510288D01*
X208509397Y-178420827D01*
X208509390Y-178420814D01*
X208421789Y-178289711D01*
X208421786Y-178289707D01*
X208310292Y-178178213D01*
X208310288Y-178178210D01*
X208179185Y-178090609D01*
X208179172Y-178090602D01*
X208033501Y-178030264D01*
X208033489Y-178030261D01*
X207878845Y-177999500D01*
X207878842Y-177999500D01*
X207721158Y-177999500D01*
X207721155Y-177999500D01*
X207566510Y-178030261D01*
X207566498Y-178030264D01*
X207420827Y-178090602D01*
X207420814Y-178090609D01*
X207289711Y-178178210D01*
X207289707Y-178178213D01*
X207178213Y-178289707D01*
X207178210Y-178289711D01*
X207090609Y-178420814D01*
X207090602Y-178420827D01*
X207030264Y-178566498D01*
X207030261Y-178566510D01*
X206999500Y-178721153D01*
X204350790Y-178721153D01*
X204379179Y-178709394D01*
X204510289Y-178621789D01*
X204621789Y-178510289D01*
X204709394Y-178379179D01*
X204769737Y-178233497D01*
X204800500Y-178078842D01*
X204800500Y-177921158D01*
X204800500Y-177921155D01*
X204800499Y-177921153D01*
X204769738Y-177766510D01*
X204769738Y-177766508D01*
X204769737Y-177766503D01*
X204769735Y-177766498D01*
X204709397Y-177620827D01*
X204709390Y-177620814D01*
X204621789Y-177489711D01*
X204621786Y-177489707D01*
X204510292Y-177378213D01*
X204510288Y-177378210D01*
X204379185Y-177290609D01*
X204379172Y-177290602D01*
X204233501Y-177230264D01*
X204233489Y-177230261D01*
X204078845Y-177199500D01*
X204078842Y-177199500D01*
X203921158Y-177199500D01*
X203921155Y-177199500D01*
X203766510Y-177230261D01*
X203766498Y-177230264D01*
X203620827Y-177290602D01*
X203620814Y-177290609D01*
X203489711Y-177378210D01*
X203489707Y-177378213D01*
X203378213Y-177489707D01*
X203378210Y-177489711D01*
X203290609Y-177620814D01*
X203290602Y-177620827D01*
X203230264Y-177766498D01*
X203230261Y-177766508D01*
X203199362Y-177921848D01*
X203166977Y-177983759D01*
X203165426Y-177985337D01*
X201649417Y-179501347D01*
X201588094Y-179534832D01*
X201585928Y-179535283D01*
X201430585Y-179566183D01*
X201430575Y-179566186D01*
X201284904Y-179626524D01*
X201284891Y-179626531D01*
X201153788Y-179714132D01*
X201153784Y-179714135D01*
X201042290Y-179825629D01*
X201042287Y-179825633D01*
X200954686Y-179956736D01*
X200954679Y-179956749D01*
X200894341Y-180102420D01*
X200894338Y-180102432D01*
X200863577Y-180257075D01*
X199804291Y-180257075D01*
X205640213Y-174421153D01*
X206699500Y-174421153D01*
X206699500Y-174578846D01*
X206730261Y-174733489D01*
X206730264Y-174733501D01*
X206790602Y-174879172D01*
X206790609Y-174879185D01*
X206878210Y-175010288D01*
X206878213Y-175010292D01*
X206989707Y-175121786D01*
X206989711Y-175121789D01*
X207120814Y-175209390D01*
X207120827Y-175209397D01*
X207266498Y-175269735D01*
X207266503Y-175269737D01*
X207421153Y-175300499D01*
X207421156Y-175300500D01*
X207421158Y-175300500D01*
X207578844Y-175300500D01*
X207578845Y-175300499D01*
X207733497Y-175269737D01*
X207879179Y-175209394D01*
X208010289Y-175121789D01*
X208121789Y-175010289D01*
X208209394Y-174879179D01*
X208269737Y-174733497D01*
X208300500Y-174578842D01*
X208300500Y-174421158D01*
X208300500Y-174421155D01*
X208300499Y-174421153D01*
X208269738Y-174266510D01*
X208269737Y-174266503D01*
X208269735Y-174266498D01*
X208209397Y-174120827D01*
X208209390Y-174120814D01*
X208121789Y-173989711D01*
X208121786Y-173989707D01*
X208010292Y-173878213D01*
X208010288Y-173878210D01*
X207879185Y-173790609D01*
X207879172Y-173790602D01*
X207733501Y-173730264D01*
X207733489Y-173730261D01*
X207578845Y-173699500D01*
X207578842Y-173699500D01*
X207421158Y-173699500D01*
X207421155Y-173699500D01*
X207266510Y-173730261D01*
X207266498Y-173730264D01*
X207120827Y-173790602D01*
X207120814Y-173790609D01*
X206989711Y-173878210D01*
X206989707Y-173878213D01*
X206878213Y-173989707D01*
X206878210Y-173989711D01*
X206790609Y-174120814D01*
X206790602Y-174120827D01*
X206730264Y-174266498D01*
X206730261Y-174266510D01*
X206699500Y-174421153D01*
X205640213Y-174421153D01*
X221315295Y-158746070D01*
X221355519Y-158719193D01*
X221379179Y-158709394D01*
X221510289Y-158621789D01*
X221621789Y-158510289D01*
X221709394Y-158379179D01*
X221769737Y-158233497D01*
X221800500Y-158078842D01*
X221800500Y-157921158D01*
X221800500Y-157921155D01*
X221800499Y-157921153D01*
X221769739Y-157766511D01*
X221769738Y-157766508D01*
X221769737Y-157766503D01*
X221759937Y-157742844D01*
X221750500Y-157695396D01*
X221750500Y-151024597D01*
X243320276Y-151024597D01*
X243320276Y-151294224D01*
X243350462Y-151562130D01*
X243350464Y-151562142D01*
X243410460Y-151825005D01*
X243410463Y-151825013D01*
X243499510Y-152079493D01*
X243616490Y-152322405D01*
X243616492Y-152322408D01*
X243759938Y-152550700D01*
X243928042Y-152761496D01*
X244118691Y-152952145D01*
X244329487Y-153120249D01*
X244557779Y-153263695D01*
X244800697Y-153380678D01*
X244991825Y-153447556D01*
X245055173Y-153469723D01*
X245055181Y-153469726D01*
X245055184Y-153469726D01*
X245055185Y-153469727D01*
X245318044Y-153529723D01*
X245585963Y-153559910D01*
X245585964Y-153559911D01*
X245585967Y-153559911D01*
X245855588Y-153559911D01*
X245855588Y-153559910D01*
X246123508Y-153529723D01*
X246386367Y-153469727D01*
X246640855Y-153380678D01*
X246883773Y-153263695D01*
X247112065Y-153120249D01*
X247322861Y-152952145D01*
X247513510Y-152761496D01*
X247681614Y-152550700D01*
X247825060Y-152322408D01*
X247942043Y-152079490D01*
X248031092Y-151825002D01*
X248091088Y-151562143D01*
X248121276Y-151294220D01*
X248121276Y-151024602D01*
X248091088Y-150756679D01*
X248031092Y-150493820D01*
X247942043Y-150239332D01*
X247825060Y-149996414D01*
X247681614Y-149768122D01*
X247513510Y-149557326D01*
X247322861Y-149366677D01*
X247112065Y-149198573D01*
X246883773Y-149055127D01*
X246883770Y-149055125D01*
X246640858Y-148938145D01*
X246386378Y-148849098D01*
X246386370Y-148849095D01*
X246189222Y-148804098D01*
X246123508Y-148789099D01*
X246123504Y-148789098D01*
X246123495Y-148789097D01*
X245855589Y-148758911D01*
X245855585Y-148758911D01*
X245585967Y-148758911D01*
X245585962Y-148758911D01*
X245318056Y-148789097D01*
X245318044Y-148789099D01*
X245055181Y-148849095D01*
X245055173Y-148849098D01*
X244800693Y-148938145D01*
X244557781Y-149055125D01*
X244329488Y-149198572D01*
X244118691Y-149366676D01*
X243928041Y-149557326D01*
X243759937Y-149768123D01*
X243616490Y-149996416D01*
X243499510Y-150239328D01*
X243410463Y-150493808D01*
X243410460Y-150493816D01*
X243350464Y-150756679D01*
X243350462Y-150756691D01*
X243320276Y-151024597D01*
X221750500Y-151024597D01*
X221750500Y-133591315D01*
X221764015Y-133535020D01*
X221862742Y-133341257D01*
X221862742Y-133341256D01*
X221862744Y-133341253D01*
X221934036Y-133121839D01*
X221970127Y-132893973D01*
X221970127Y-132663267D01*
X221934036Y-132435401D01*
X221862744Y-132215987D01*
X221758006Y-132010426D01*
X221622400Y-131823781D01*
X221459266Y-131660647D01*
X221272621Y-131525041D01*
X221067060Y-131420303D01*
X220976691Y-131390940D01*
X220847646Y-131349010D01*
X220650935Y-131317854D01*
X220619780Y-131312920D01*
X220389074Y-131312920D01*
X220361666Y-131317261D01*
X220161207Y-131349010D01*
X219990232Y-131404564D01*
X219941794Y-131420303D01*
X219941791Y-131420304D01*
X219941789Y-131420305D01*
X219736232Y-131525041D01*
X219629744Y-131602409D01*
X219549588Y-131660647D01*
X219549586Y-131660649D01*
X219549585Y-131660649D01*
X219386455Y-131823779D01*
X219334745Y-131894952D01*
X219279414Y-131937618D01*
X219209801Y-131943596D01*
X219148006Y-131910990D01*
X219134109Y-131894952D01*
X219082640Y-131824112D01*
X219082400Y-131823781D01*
X218919266Y-131660647D01*
X218732621Y-131525041D01*
X218527060Y-131420303D01*
X218436691Y-131390940D01*
X218307646Y-131349010D01*
X218110935Y-131317854D01*
X218079780Y-131312920D01*
X217849074Y-131312920D01*
X217821666Y-131317261D01*
X217621207Y-131349010D01*
X217450232Y-131404564D01*
X217401794Y-131420303D01*
X217401791Y-131420304D01*
X217401789Y-131420305D01*
X217196232Y-131525041D01*
X217089744Y-131602409D01*
X217009588Y-131660647D01*
X217009586Y-131660649D01*
X217009585Y-131660649D01*
X216846456Y-131823778D01*
X216846449Y-131823787D01*
X216794435Y-131895377D01*
X216739105Y-131938043D01*
X216669492Y-131944021D01*
X216607697Y-131911414D01*
X216593800Y-131895377D01*
X216542016Y-131824104D01*
X216542016Y-131824103D01*
X216378943Y-131661030D01*
X216192359Y-131525468D01*
X215986873Y-131420767D01*
X215767529Y-131349497D01*
X215674427Y-131334751D01*
X215674427Y-132345608D01*
X215617420Y-132312695D01*
X215490253Y-132278620D01*
X215358601Y-132278620D01*
X215231434Y-132312695D01*
X215174427Y-132345608D01*
X215174427Y-131334751D01*
X215081324Y-131349497D01*
X214861980Y-131420767D01*
X214656494Y-131525468D01*
X214469911Y-131661030D01*
X214469910Y-131661030D01*
X214306837Y-131824103D01*
X214306830Y-131824112D01*
X214255052Y-131895377D01*
X214199722Y-131938043D01*
X214130108Y-131944021D01*
X214068314Y-131911414D01*
X214054421Y-131895382D01*
X214002400Y-131823781D01*
X213839266Y-131660647D01*
X213652621Y-131525041D01*
X213447060Y-131420303D01*
X213356691Y-131390940D01*
X213227646Y-131349010D01*
X213030935Y-131317854D01*
X212999780Y-131312920D01*
X212769074Y-131312920D01*
X212741666Y-131317261D01*
X212541207Y-131349010D01*
X212370232Y-131404564D01*
X212321794Y-131420303D01*
X212321791Y-131420304D01*
X212321789Y-131420305D01*
X212116232Y-131525041D01*
X212009744Y-131602409D01*
X211929588Y-131660647D01*
X211929586Y-131660649D01*
X211929585Y-131660649D01*
X211766455Y-131823779D01*
X211714745Y-131894952D01*
X211659414Y-131937618D01*
X211589801Y-131943596D01*
X211528006Y-131910990D01*
X211514109Y-131894952D01*
X211462640Y-131824112D01*
X211462400Y-131823781D01*
X211299266Y-131660647D01*
X211112621Y-131525041D01*
X210907060Y-131420303D01*
X210816691Y-131390940D01*
X210687646Y-131349010D01*
X210490935Y-131317854D01*
X210459780Y-131312920D01*
X210229074Y-131312920D01*
X210201666Y-131317261D01*
X210001207Y-131349010D01*
X209830232Y-131404564D01*
X209781794Y-131420303D01*
X209781791Y-131420304D01*
X209781789Y-131420305D01*
X209576232Y-131525041D01*
X209469744Y-131602409D01*
X209389588Y-131660647D01*
X209389586Y-131660649D01*
X209389585Y-131660649D01*
X209226455Y-131823779D01*
X209174745Y-131894952D01*
X209119414Y-131937618D01*
X209049801Y-131943596D01*
X208988006Y-131910990D01*
X208974109Y-131894952D01*
X208922640Y-131824112D01*
X208922400Y-131823781D01*
X208759266Y-131660647D01*
X208572621Y-131525041D01*
X208367060Y-131420303D01*
X208276691Y-131390940D01*
X208147646Y-131349010D01*
X207950935Y-131317854D01*
X207919780Y-131312920D01*
X207689074Y-131312920D01*
X207661666Y-131317261D01*
X207461207Y-131349010D01*
X207290232Y-131404564D01*
X207241794Y-131420303D01*
X207241791Y-131420304D01*
X207241789Y-131420305D01*
X207036232Y-131525041D01*
X206929744Y-131602409D01*
X206849588Y-131660647D01*
X206849586Y-131660649D01*
X206849585Y-131660649D01*
X206686455Y-131823779D01*
X206634745Y-131894952D01*
X206579414Y-131937618D01*
X206509801Y-131943596D01*
X206448006Y-131910990D01*
X206434109Y-131894952D01*
X206382640Y-131824112D01*
X206382400Y-131823781D01*
X206219266Y-131660647D01*
X206032621Y-131525041D01*
X205827060Y-131420303D01*
X205736691Y-131390940D01*
X205607646Y-131349010D01*
X205410935Y-131317854D01*
X205379780Y-131312920D01*
X205149074Y-131312920D01*
X205121666Y-131317261D01*
X204921207Y-131349010D01*
X204750232Y-131404564D01*
X204701794Y-131420303D01*
X204701791Y-131420304D01*
X204701789Y-131420305D01*
X204496232Y-131525041D01*
X204389744Y-131602409D01*
X204309588Y-131660647D01*
X204309586Y-131660649D01*
X204309585Y-131660649D01*
X204146455Y-131823779D01*
X204094745Y-131894952D01*
X204039414Y-131937618D01*
X203969801Y-131943596D01*
X203908006Y-131910990D01*
X203894109Y-131894952D01*
X203842640Y-131824112D01*
X203842400Y-131823781D01*
X203679266Y-131660647D01*
X203492621Y-131525041D01*
X203287060Y-131420303D01*
X203196691Y-131390940D01*
X203067646Y-131349010D01*
X202870935Y-131317854D01*
X202839780Y-131312920D01*
X202609074Y-131312920D01*
X202581666Y-131317261D01*
X202381207Y-131349010D01*
X202210232Y-131404564D01*
X202161794Y-131420303D01*
X202161791Y-131420304D01*
X202161789Y-131420305D01*
X201956232Y-131525041D01*
X201849744Y-131602409D01*
X201769588Y-131660647D01*
X201769586Y-131660649D01*
X201769585Y-131660649D01*
X201606455Y-131823779D01*
X201554745Y-131894952D01*
X201499414Y-131937618D01*
X201429801Y-131943596D01*
X201368006Y-131910990D01*
X201354109Y-131894952D01*
X201302640Y-131824112D01*
X201302400Y-131823781D01*
X201139266Y-131660647D01*
X200952621Y-131525041D01*
X200747060Y-131420303D01*
X200656691Y-131390940D01*
X200527646Y-131349010D01*
X200330935Y-131317854D01*
X200299780Y-131312920D01*
X200069074Y-131312920D01*
X200041666Y-131317261D01*
X199841207Y-131349010D01*
X199670232Y-131404564D01*
X199621794Y-131420303D01*
X199621791Y-131420304D01*
X199621789Y-131420305D01*
X199416232Y-131525041D01*
X199309744Y-131602409D01*
X199229588Y-131660647D01*
X199229586Y-131660649D01*
X199229585Y-131660649D01*
X199066455Y-131823779D01*
X199014745Y-131894952D01*
X198959414Y-131937618D01*
X198889801Y-131943596D01*
X198828006Y-131910990D01*
X198814109Y-131894952D01*
X198762640Y-131824112D01*
X198762400Y-131823781D01*
X198599266Y-131660647D01*
X198412621Y-131525041D01*
X198207060Y-131420303D01*
X198116691Y-131390940D01*
X197987646Y-131349010D01*
X197790935Y-131317854D01*
X197759780Y-131312920D01*
X197529074Y-131312920D01*
X197501666Y-131317261D01*
X197301207Y-131349010D01*
X197130232Y-131404564D01*
X197081794Y-131420303D01*
X197081791Y-131420304D01*
X197081789Y-131420305D01*
X196876232Y-131525041D01*
X196769744Y-131602409D01*
X196689588Y-131660647D01*
X196689586Y-131660649D01*
X196689585Y-131660649D01*
X196526455Y-131823779D01*
X196474745Y-131894952D01*
X196419414Y-131937618D01*
X196349801Y-131943596D01*
X196288006Y-131910990D01*
X196274109Y-131894952D01*
X196222640Y-131824112D01*
X196222400Y-131823781D01*
X196059266Y-131660647D01*
X195872621Y-131525041D01*
X195667060Y-131420303D01*
X195576691Y-131390940D01*
X195447646Y-131349010D01*
X195250935Y-131317854D01*
X195219780Y-131312920D01*
X194989074Y-131312920D01*
X194961666Y-131317261D01*
X194761207Y-131349010D01*
X194590232Y-131404564D01*
X194541794Y-131420303D01*
X194541791Y-131420304D01*
X194541789Y-131420305D01*
X194336232Y-131525041D01*
X194229744Y-131602409D01*
X194149588Y-131660647D01*
X194149586Y-131660649D01*
X194149585Y-131660649D01*
X193986456Y-131823778D01*
X193986456Y-131823779D01*
X193986454Y-131823781D01*
X193986214Y-131824112D01*
X193850848Y-132010425D01*
X193746112Y-132215982D01*
X193674817Y-132435400D01*
X193638727Y-132663267D01*
X193638727Y-132893972D01*
X193674817Y-133121839D01*
X193693299Y-133178719D01*
X193746110Y-133341253D01*
X193850848Y-133546814D01*
X193986454Y-133733459D01*
X194149588Y-133896593D01*
X194336233Y-134032199D01*
X194541794Y-134136937D01*
X194719277Y-134194604D01*
X194761207Y-134208229D01*
X194849498Y-134222213D01*
X194989074Y-134244320D01*
X194989075Y-134244320D01*
X195219779Y-134244320D01*
X195219780Y-134244320D01*
X195447646Y-134208229D01*
X195667060Y-134136937D01*
X195872621Y-134032199D01*
X196059266Y-133896593D01*
X196222400Y-133733459D01*
X196274110Y-133662285D01*
X196329439Y-133619622D01*
X196399052Y-133613643D01*
X196460847Y-133646249D01*
X196474740Y-133662282D01*
X196526454Y-133733459D01*
X196689588Y-133896593D01*
X196876233Y-134032199D01*
X197081794Y-134136937D01*
X197259277Y-134194604D01*
X197301207Y-134208229D01*
X197389498Y-134222213D01*
X197529074Y-134244320D01*
X197529075Y-134244320D01*
X197759779Y-134244320D01*
X197759780Y-134244320D01*
X197987646Y-134208229D01*
X198207060Y-134136937D01*
X198412621Y-134032199D01*
X198599266Y-133896593D01*
X198762400Y-133733459D01*
X198814110Y-133662285D01*
X198869439Y-133619622D01*
X198939052Y-133613643D01*
X199000847Y-133646249D01*
X199014740Y-133662282D01*
X199066454Y-133733459D01*
X199229588Y-133896593D01*
X199416233Y-134032199D01*
X199621794Y-134136937D01*
X199799277Y-134194604D01*
X199841207Y-134208229D01*
X199929498Y-134222213D01*
X200069074Y-134244320D01*
X200069075Y-134244320D01*
X200299779Y-134244320D01*
X200299780Y-134244320D01*
X200527646Y-134208229D01*
X200747060Y-134136937D01*
X200952621Y-134032199D01*
X201139266Y-133896593D01*
X201302400Y-133733459D01*
X201354110Y-133662285D01*
X201409439Y-133619622D01*
X201479052Y-133613643D01*
X201540847Y-133646249D01*
X201554740Y-133662282D01*
X201606454Y-133733459D01*
X201769588Y-133896593D01*
X201956233Y-134032199D01*
X202161794Y-134136937D01*
X202339277Y-134194604D01*
X202381207Y-134208229D01*
X202469498Y-134222213D01*
X202609074Y-134244320D01*
X202609075Y-134244320D01*
X202839779Y-134244320D01*
X202839780Y-134244320D01*
X203067646Y-134208229D01*
X203287060Y-134136937D01*
X203492621Y-134032199D01*
X203679266Y-133896593D01*
X203842400Y-133733459D01*
X203894110Y-133662285D01*
X203949439Y-133619622D01*
X204019052Y-133613643D01*
X204080847Y-133646249D01*
X204094740Y-133662282D01*
X204146454Y-133733459D01*
X204309588Y-133896593D01*
X204496233Y-134032199D01*
X204701794Y-134136937D01*
X204879277Y-134194604D01*
X204921207Y-134208229D01*
X205009498Y-134222213D01*
X205149074Y-134244320D01*
X205149075Y-134244320D01*
X205379779Y-134244320D01*
X205379780Y-134244320D01*
X205607646Y-134208229D01*
X205827060Y-134136937D01*
X206032621Y-134032199D01*
X206219266Y-133896593D01*
X206382400Y-133733459D01*
X206434110Y-133662285D01*
X206489439Y-133619622D01*
X206559052Y-133613643D01*
X206620847Y-133646249D01*
X206634740Y-133662282D01*
X206686454Y-133733459D01*
X206849588Y-133896593D01*
X207036233Y-134032199D01*
X207241794Y-134136937D01*
X207419277Y-134194604D01*
X207461207Y-134208229D01*
X207549498Y-134222213D01*
X207689074Y-134244320D01*
X207689075Y-134244320D01*
X207919779Y-134244320D01*
X207919780Y-134244320D01*
X208147646Y-134208229D01*
X208367060Y-134136937D01*
X208572621Y-134032199D01*
X208759266Y-133896593D01*
X208922400Y-133733459D01*
X208974110Y-133662285D01*
X209029439Y-133619622D01*
X209099052Y-133613643D01*
X209160847Y-133646249D01*
X209174740Y-133662282D01*
X209226454Y-133733459D01*
X209389588Y-133896593D01*
X209576233Y-134032199D01*
X209781794Y-134136937D01*
X209959277Y-134194604D01*
X210001207Y-134208229D01*
X210089498Y-134222213D01*
X210229074Y-134244320D01*
X210229075Y-134244320D01*
X210459779Y-134244320D01*
X210459780Y-134244320D01*
X210687646Y-134208229D01*
X210907060Y-134136937D01*
X211112621Y-134032199D01*
X211299266Y-133896593D01*
X211462400Y-133733459D01*
X211514110Y-133662285D01*
X211569439Y-133619622D01*
X211639052Y-133613643D01*
X211700847Y-133646249D01*
X211714740Y-133662282D01*
X211766454Y-133733459D01*
X211929588Y-133896593D01*
X212116233Y-134032199D01*
X212321794Y-134136937D01*
X212499277Y-134194604D01*
X212541207Y-134208229D01*
X212629498Y-134222213D01*
X212769074Y-134244320D01*
X212769075Y-134244320D01*
X212999779Y-134244320D01*
X212999780Y-134244320D01*
X213227646Y-134208229D01*
X213447060Y-134136937D01*
X213652621Y-134032199D01*
X213839266Y-133896593D01*
X214002400Y-133733459D01*
X214054418Y-133661861D01*
X214109746Y-133619197D01*
X214179360Y-133613218D01*
X214241155Y-133645823D01*
X214255053Y-133661862D01*
X214306837Y-133733135D01*
X214306837Y-133733136D01*
X214469910Y-133896209D01*
X214656494Y-134031771D01*
X214861982Y-134136472D01*
X215081317Y-134207739D01*
X215174427Y-134222486D01*
X215174427Y-133211632D01*
X215231434Y-133244545D01*
X215358601Y-133278620D01*
X215490253Y-133278620D01*
X215617420Y-133244545D01*
X215674427Y-133211632D01*
X215674427Y-134222485D01*
X215767536Y-134207739D01*
X215986871Y-134136472D01*
X216192359Y-134031771D01*
X216378942Y-133896209D01*
X216378943Y-133896209D01*
X216542016Y-133733136D01*
X216542021Y-133733130D01*
X216593800Y-133661863D01*
X216649129Y-133619197D01*
X216718743Y-133613218D01*
X216780538Y-133645823D01*
X216794433Y-133661858D01*
X216846454Y-133733459D01*
X217009588Y-133896593D01*
X217196233Y-134032199D01*
X217401794Y-134136937D01*
X217579277Y-134194604D01*
X217621207Y-134208229D01*
X217709498Y-134222213D01*
X217849074Y-134244320D01*
X217849075Y-134244320D01*
X218079779Y-134244320D01*
X218079780Y-134244320D01*
X218307646Y-134208229D01*
X218527060Y-134136937D01*
X218732621Y-134032199D01*
X218919266Y-133896593D01*
X219082400Y-133733459D01*
X219134110Y-133662285D01*
X219189439Y-133619622D01*
X219259052Y-133613643D01*
X219320847Y-133646249D01*
X219334740Y-133662282D01*
X219386454Y-133733459D01*
X219549588Y-133896593D01*
X219736233Y-134032199D01*
X219941794Y-134136937D01*
X220159700Y-134207739D01*
X220163818Y-134209077D01*
X220221494Y-134248515D01*
X220248692Y-134312873D01*
X220249500Y-134327008D01*
X220249500Y-157637770D01*
X220229815Y-157704809D01*
X220213181Y-157725451D01*
X189725451Y-188213181D01*
X189664128Y-188246666D01*
X189637770Y-188249500D01*
X183304604Y-188249500D01*
X183257155Y-188240062D01*
X183233497Y-188230263D01*
X183233493Y-188230262D01*
X183233488Y-188230260D01*
X183078845Y-188199500D01*
X183078842Y-188199500D01*
X182921158Y-188199500D01*
X182921155Y-188199500D01*
X182766510Y-188230261D01*
X182766498Y-188230264D01*
X182620827Y-188290602D01*
X182620814Y-188290609D01*
X182489711Y-188378210D01*
X182489707Y-188378213D01*
X182378213Y-188489707D01*
X182378210Y-188489711D01*
X182290609Y-188620814D01*
X182290602Y-188620827D01*
X182230264Y-188766498D01*
X182230261Y-188766510D01*
X182199500Y-188921153D01*
X166870500Y-188921153D01*
X166870500Y-179618163D01*
X182147260Y-179618163D01*
X182147260Y-179775856D01*
X182178021Y-179930499D01*
X182178024Y-179930511D01*
X182238362Y-180076182D01*
X182238369Y-180076195D01*
X182325970Y-180207298D01*
X182325973Y-180207302D01*
X182437467Y-180318796D01*
X182437471Y-180318799D01*
X182568574Y-180406400D01*
X182568587Y-180406407D01*
X182714258Y-180466745D01*
X182714263Y-180466747D01*
X182868913Y-180497509D01*
X182868916Y-180497510D01*
X182868918Y-180497510D01*
X183026604Y-180497510D01*
X183026605Y-180497509D01*
X183181257Y-180466747D01*
X183326939Y-180406404D01*
X183458049Y-180318799D01*
X183569549Y-180207299D01*
X183657154Y-180076189D01*
X183717497Y-179930507D01*
X183748260Y-179775852D01*
X183748260Y-179618168D01*
X183748260Y-179618165D01*
X183748259Y-179618163D01*
X183744745Y-179600499D01*
X183717497Y-179463513D01*
X183717495Y-179463508D01*
X183657157Y-179317837D01*
X183657150Y-179317824D01*
X183569549Y-179186721D01*
X183569546Y-179186717D01*
X183458052Y-179075223D01*
X183458048Y-179075220D01*
X183326945Y-178987619D01*
X183326932Y-178987612D01*
X183181261Y-178927274D01*
X183181249Y-178927271D01*
X183026605Y-178896510D01*
X183026602Y-178896510D01*
X182868918Y-178896510D01*
X182868915Y-178896510D01*
X182714270Y-178927271D01*
X182714258Y-178927274D01*
X182568587Y-178987612D01*
X182568574Y-178987619D01*
X182437471Y-179075220D01*
X182437467Y-179075223D01*
X182325973Y-179186717D01*
X182325970Y-179186721D01*
X182238369Y-179317824D01*
X182238362Y-179317837D01*
X182178024Y-179463508D01*
X182178021Y-179463520D01*
X182147260Y-179618163D01*
X166870500Y-179618163D01*
X166870500Y-171149064D01*
X183084572Y-171149064D01*
X183084572Y-171306757D01*
X183115333Y-171461400D01*
X183115336Y-171461412D01*
X183175674Y-171607083D01*
X183175681Y-171607096D01*
X183263282Y-171738199D01*
X183263285Y-171738203D01*
X183374779Y-171849697D01*
X183374783Y-171849700D01*
X183505886Y-171937301D01*
X183505899Y-171937308D01*
X183651570Y-171997646D01*
X183651575Y-171997648D01*
X183806225Y-172028410D01*
X183806228Y-172028411D01*
X183806230Y-172028411D01*
X183963916Y-172028411D01*
X183963917Y-172028410D01*
X184118569Y-171997648D01*
X184264251Y-171937305D01*
X184395361Y-171849700D01*
X184506861Y-171738200D01*
X184594466Y-171607090D01*
X184654809Y-171461408D01*
X184685572Y-171306753D01*
X184685572Y-171149069D01*
X184685572Y-171149066D01*
X184685571Y-171149064D01*
X184654810Y-170994421D01*
X184654809Y-170994414D01*
X184654807Y-170994409D01*
X184594469Y-170848738D01*
X184594462Y-170848725D01*
X184506861Y-170717622D01*
X184506858Y-170717618D01*
X184395364Y-170606124D01*
X184395360Y-170606121D01*
X184264257Y-170518520D01*
X184264244Y-170518513D01*
X184118573Y-170458175D01*
X184118561Y-170458172D01*
X183963917Y-170427411D01*
X183963914Y-170427411D01*
X183806230Y-170427411D01*
X183806227Y-170427411D01*
X183651582Y-170458172D01*
X183651570Y-170458175D01*
X183505899Y-170518513D01*
X183505886Y-170518520D01*
X183374783Y-170606121D01*
X183374779Y-170606124D01*
X183263285Y-170717618D01*
X183263282Y-170717622D01*
X183175681Y-170848725D01*
X183175674Y-170848738D01*
X183115336Y-170994409D01*
X183115333Y-170994421D01*
X183084572Y-171149064D01*
X166870500Y-171149064D01*
X166870500Y-169654972D01*
X187199500Y-169654972D01*
X187199500Y-169812665D01*
X187230261Y-169967308D01*
X187230264Y-169967320D01*
X187290602Y-170112991D01*
X187290609Y-170113004D01*
X187378210Y-170244107D01*
X187378213Y-170244111D01*
X187489707Y-170355605D01*
X187489711Y-170355608D01*
X187620814Y-170443209D01*
X187620827Y-170443216D01*
X187766498Y-170503554D01*
X187766503Y-170503556D01*
X187921153Y-170534318D01*
X187921156Y-170534319D01*
X187921158Y-170534319D01*
X188078844Y-170534319D01*
X188078845Y-170534318D01*
X188233497Y-170503556D01*
X188379179Y-170443213D01*
X188510289Y-170355608D01*
X188621789Y-170244108D01*
X188709394Y-170112998D01*
X188769737Y-169967316D01*
X188800500Y-169812661D01*
X188800500Y-169654977D01*
X188800500Y-169654974D01*
X188800499Y-169654972D01*
X188769738Y-169500329D01*
X188769737Y-169500322D01*
X188769735Y-169500317D01*
X188709397Y-169354646D01*
X188709390Y-169354633D01*
X188621789Y-169223530D01*
X188621786Y-169223526D01*
X188510292Y-169112032D01*
X188510288Y-169112029D01*
X188379185Y-169024428D01*
X188379172Y-169024421D01*
X188233501Y-168964083D01*
X188233489Y-168964080D01*
X188078845Y-168933319D01*
X188078842Y-168933319D01*
X187921158Y-168933319D01*
X187921155Y-168933319D01*
X187766510Y-168964080D01*
X187766498Y-168964083D01*
X187620827Y-169024421D01*
X187620814Y-169024428D01*
X187489711Y-169112029D01*
X187489707Y-169112032D01*
X187378213Y-169223526D01*
X187378210Y-169223530D01*
X187290609Y-169354633D01*
X187290602Y-169354646D01*
X187230264Y-169500317D01*
X187230261Y-169500329D01*
X187199500Y-169654972D01*
X166870500Y-169654972D01*
X166870500Y-160921153D01*
X187199500Y-160921153D01*
X187199500Y-161078846D01*
X187230261Y-161233489D01*
X187230264Y-161233501D01*
X187290602Y-161379172D01*
X187290609Y-161379185D01*
X187378210Y-161510288D01*
X187378213Y-161510292D01*
X187489707Y-161621786D01*
X187489711Y-161621789D01*
X187620814Y-161709390D01*
X187620827Y-161709397D01*
X187766498Y-161769735D01*
X187766503Y-161769737D01*
X187921153Y-161800499D01*
X187921156Y-161800500D01*
X187921158Y-161800500D01*
X188078844Y-161800500D01*
X188078845Y-161800499D01*
X188233497Y-161769737D01*
X188379179Y-161709394D01*
X188510289Y-161621789D01*
X188621789Y-161510289D01*
X188709394Y-161379179D01*
X188769737Y-161233497D01*
X188800500Y-161078842D01*
X188800500Y-160921158D01*
X188800500Y-160921155D01*
X188800499Y-160921153D01*
X188769738Y-160766510D01*
X188769737Y-160766503D01*
X188769735Y-160766498D01*
X188709397Y-160620827D01*
X188709390Y-160620814D01*
X188621789Y-160489711D01*
X188621786Y-160489707D01*
X188510292Y-160378213D01*
X188510288Y-160378210D01*
X188379185Y-160290609D01*
X188379172Y-160290602D01*
X188233501Y-160230264D01*
X188233489Y-160230261D01*
X188078845Y-160199500D01*
X188078842Y-160199500D01*
X187921158Y-160199500D01*
X187921155Y-160199500D01*
X187766510Y-160230261D01*
X187766498Y-160230264D01*
X187620827Y-160290602D01*
X187620814Y-160290609D01*
X187489711Y-160378210D01*
X187489707Y-160378213D01*
X187378213Y-160489707D01*
X187378210Y-160489711D01*
X187290609Y-160620814D01*
X187290602Y-160620827D01*
X187230264Y-160766498D01*
X187230261Y-160766510D01*
X187199500Y-160921153D01*
X166870500Y-160921153D01*
X166870500Y-150964929D01*
X167144500Y-150964929D01*
X167144500Y-151234556D01*
X167174686Y-151502462D01*
X167174688Y-151502474D01*
X167234684Y-151765337D01*
X167234687Y-151765345D01*
X167323734Y-152019825D01*
X167440714Y-152262737D01*
X167440716Y-152262740D01*
X167584162Y-152491032D01*
X167752266Y-152701828D01*
X167942915Y-152892477D01*
X168153711Y-153060581D01*
X168382003Y-153204027D01*
X168624921Y-153321010D01*
X168795437Y-153380676D01*
X168879397Y-153410055D01*
X168879405Y-153410058D01*
X168879408Y-153410058D01*
X168879409Y-153410059D01*
X169142268Y-153470055D01*
X169410187Y-153500242D01*
X169410188Y-153500243D01*
X169410191Y-153500243D01*
X169679812Y-153500243D01*
X169679812Y-153500242D01*
X169947732Y-153470055D01*
X170210591Y-153410059D01*
X170465079Y-153321010D01*
X170707997Y-153204027D01*
X170936289Y-153060581D01*
X171147085Y-152892477D01*
X171337734Y-152701828D01*
X171505838Y-152491032D01*
X171649284Y-152262740D01*
X171766267Y-152019822D01*
X171855316Y-151765334D01*
X171915312Y-151502475D01*
X171945500Y-151234552D01*
X171945500Y-150964934D01*
X171915312Y-150697011D01*
X171855316Y-150434152D01*
X171766267Y-150179664D01*
X171649284Y-149936746D01*
X171513817Y-149721153D01*
X203999500Y-149721153D01*
X203999500Y-149878846D01*
X204030261Y-150033489D01*
X204030264Y-150033501D01*
X204090602Y-150179172D01*
X204090609Y-150179185D01*
X204178210Y-150310288D01*
X204178213Y-150310292D01*
X204289707Y-150421786D01*
X204289711Y-150421789D01*
X204420814Y-150509390D01*
X204420827Y-150509397D01*
X204566498Y-150569735D01*
X204566503Y-150569737D01*
X204631147Y-150582595D01*
X204721849Y-150600638D01*
X204783760Y-150633023D01*
X204785339Y-150634574D01*
X211665425Y-157514660D01*
X211698910Y-157575983D01*
X211699361Y-157578149D01*
X211730261Y-157733491D01*
X211730264Y-157733501D01*
X211790602Y-157879172D01*
X211790609Y-157879185D01*
X211878210Y-158010288D01*
X211878213Y-158010292D01*
X211989707Y-158121786D01*
X211989711Y-158121789D01*
X212120814Y-158209390D01*
X212120827Y-158209397D01*
X212266498Y-158269735D01*
X212266503Y-158269737D01*
X212421153Y-158300499D01*
X212421156Y-158300500D01*
X212421158Y-158300500D01*
X212578844Y-158300500D01*
X212578845Y-158300499D01*
X212733497Y-158269737D01*
X212879179Y-158209394D01*
X213010289Y-158121789D01*
X213121789Y-158010289D01*
X213209394Y-157879179D01*
X213269737Y-157733497D01*
X213300500Y-157578842D01*
X213300500Y-157421158D01*
X213300500Y-157421155D01*
X213300499Y-157421153D01*
X213269738Y-157266510D01*
X213269737Y-157266503D01*
X213269735Y-157266498D01*
X213209397Y-157120827D01*
X213209390Y-157120814D01*
X213121789Y-156989711D01*
X213121786Y-156989707D01*
X213010292Y-156878213D01*
X213010288Y-156878210D01*
X212879185Y-156790609D01*
X212879172Y-156790602D01*
X212733501Y-156730264D01*
X212733491Y-156730261D01*
X212578149Y-156699361D01*
X212516238Y-156666976D01*
X212514660Y-156665425D01*
X205634574Y-149785339D01*
X205601089Y-149724016D01*
X205600638Y-149721849D01*
X205580776Y-149621998D01*
X205569737Y-149566503D01*
X205541221Y-149497658D01*
X205509397Y-149420827D01*
X205509390Y-149420814D01*
X205421789Y-149289711D01*
X205421786Y-149289707D01*
X205310292Y-149178213D01*
X205310288Y-149178210D01*
X205179185Y-149090609D01*
X205179172Y-149090602D01*
X205033501Y-149030264D01*
X205033489Y-149030261D01*
X204878845Y-148999500D01*
X204878842Y-148999500D01*
X204721158Y-148999500D01*
X204721155Y-148999500D01*
X204566510Y-149030261D01*
X204566498Y-149030264D01*
X204420827Y-149090602D01*
X204420814Y-149090609D01*
X204289711Y-149178210D01*
X204289707Y-149178213D01*
X204178213Y-149289707D01*
X204178210Y-149289711D01*
X204090609Y-149420814D01*
X204090602Y-149420827D01*
X204030264Y-149566498D01*
X204030261Y-149566510D01*
X203999500Y-149721153D01*
X171513817Y-149721153D01*
X171505838Y-149708454D01*
X171337734Y-149497658D01*
X171147085Y-149307009D01*
X170936289Y-149138905D01*
X170707997Y-148995459D01*
X170707994Y-148995457D01*
X170465082Y-148878477D01*
X170210602Y-148789430D01*
X170210594Y-148789427D01*
X170013446Y-148744430D01*
X169947732Y-148729431D01*
X169947728Y-148729430D01*
X169947719Y-148729429D01*
X169679813Y-148699243D01*
X169679809Y-148699243D01*
X169410191Y-148699243D01*
X169410186Y-148699243D01*
X169142280Y-148729429D01*
X169142268Y-148729431D01*
X168879405Y-148789427D01*
X168879397Y-148789430D01*
X168624917Y-148878477D01*
X168382005Y-148995457D01*
X168153712Y-149138904D01*
X167942915Y-149307008D01*
X167752265Y-149497658D01*
X167584161Y-149708455D01*
X167440714Y-149936748D01*
X167323734Y-150179660D01*
X167234687Y-150434140D01*
X167234684Y-150434148D01*
X167174688Y-150697011D01*
X167174686Y-150697023D01*
X167144500Y-150964929D01*
X166870500Y-150964929D01*
X166870500Y-143921153D01*
X202199500Y-143921153D01*
X202199500Y-144078846D01*
X202230261Y-144233489D01*
X202230264Y-144233501D01*
X202290602Y-144379172D01*
X202290609Y-144379185D01*
X202378210Y-144510288D01*
X202378213Y-144510292D01*
X202489707Y-144621786D01*
X202489711Y-144621789D01*
X202620814Y-144709390D01*
X202620827Y-144709397D01*
X202766498Y-144769735D01*
X202766503Y-144769737D01*
X202921153Y-144800499D01*
X202921156Y-144800500D01*
X202921158Y-144800500D01*
X203078844Y-144800500D01*
X203078845Y-144800499D01*
X203233497Y-144769737D01*
X203379179Y-144709394D01*
X203510289Y-144621789D01*
X203621789Y-144510289D01*
X203709394Y-144379179D01*
X203769737Y-144233497D01*
X203800500Y-144078842D01*
X203800500Y-143921158D01*
X203800500Y-143921155D01*
X203800499Y-143921153D01*
X204699500Y-143921153D01*
X204699500Y-144078846D01*
X204730261Y-144233489D01*
X204730264Y-144233501D01*
X204790602Y-144379172D01*
X204790609Y-144379185D01*
X204878210Y-144510288D01*
X204878213Y-144510292D01*
X204989707Y-144621786D01*
X204989711Y-144621789D01*
X205120814Y-144709390D01*
X205120827Y-144709397D01*
X205266498Y-144769735D01*
X205266503Y-144769737D01*
X205331147Y-144782595D01*
X205421849Y-144800638D01*
X205483760Y-144833023D01*
X205485339Y-144834574D01*
X215652925Y-155002160D01*
X215686410Y-155063483D01*
X215686861Y-155065649D01*
X215717761Y-155220991D01*
X215717764Y-155221001D01*
X215778102Y-155366672D01*
X215778109Y-155366685D01*
X215865710Y-155497788D01*
X215865713Y-155497792D01*
X215977207Y-155609286D01*
X215977211Y-155609289D01*
X216108314Y-155696890D01*
X216108327Y-155696897D01*
X216253998Y-155757235D01*
X216254003Y-155757237D01*
X216408653Y-155787999D01*
X216408656Y-155788000D01*
X216408658Y-155788000D01*
X216566344Y-155788000D01*
X216566345Y-155787999D01*
X216720997Y-155757237D01*
X216866679Y-155696894D01*
X216997789Y-155609289D01*
X217109289Y-155497789D01*
X217196894Y-155366679D01*
X217257237Y-155220997D01*
X217288000Y-155066342D01*
X217288000Y-154908658D01*
X217288000Y-154908655D01*
X217287999Y-154908653D01*
X217257238Y-154754010D01*
X217257237Y-154754003D01*
X217257235Y-154753998D01*
X217196897Y-154608327D01*
X217196890Y-154608314D01*
X217109289Y-154477211D01*
X217109286Y-154477207D01*
X216997792Y-154365713D01*
X216997788Y-154365710D01*
X216866685Y-154278109D01*
X216866672Y-154278102D01*
X216721001Y-154217764D01*
X216720991Y-154217761D01*
X216565651Y-154186862D01*
X216503741Y-154154477D01*
X216502162Y-154152926D01*
X206334573Y-143985337D01*
X206301088Y-143924014D01*
X206300637Y-143921847D01*
X206269738Y-143766510D01*
X206269737Y-143766503D01*
X206269735Y-143766498D01*
X206209397Y-143620827D01*
X206209390Y-143620814D01*
X206121789Y-143489711D01*
X206121786Y-143489707D01*
X206010292Y-143378213D01*
X206010288Y-143378210D01*
X205879185Y-143290609D01*
X205879172Y-143290602D01*
X205733501Y-143230264D01*
X205733489Y-143230261D01*
X205578845Y-143199500D01*
X205578842Y-143199500D01*
X205421158Y-143199500D01*
X205421155Y-143199500D01*
X205266510Y-143230261D01*
X205266498Y-143230264D01*
X205120827Y-143290602D01*
X205120814Y-143290609D01*
X204989711Y-143378210D01*
X204989707Y-143378213D01*
X204878213Y-143489707D01*
X204878210Y-143489711D01*
X204790609Y-143620814D01*
X204790602Y-143620827D01*
X204730264Y-143766498D01*
X204730261Y-143766510D01*
X204699500Y-143921153D01*
X203800499Y-143921153D01*
X203769738Y-143766510D01*
X203769737Y-143766503D01*
X203769735Y-143766498D01*
X203709397Y-143620827D01*
X203709390Y-143620814D01*
X203621789Y-143489711D01*
X203621786Y-143489707D01*
X203510292Y-143378213D01*
X203510288Y-143378210D01*
X203379185Y-143290609D01*
X203379172Y-143290602D01*
X203233501Y-143230264D01*
X203233489Y-143230261D01*
X203078845Y-143199500D01*
X203078842Y-143199500D01*
X202921158Y-143199500D01*
X202921155Y-143199500D01*
X202766510Y-143230261D01*
X202766498Y-143230264D01*
X202620827Y-143290602D01*
X202620814Y-143290609D01*
X202489711Y-143378210D01*
X202489707Y-143378213D01*
X202378213Y-143489707D01*
X202378210Y-143489711D01*
X202290609Y-143620814D01*
X202290602Y-143620827D01*
X202230264Y-143766498D01*
X202230261Y-143766510D01*
X202199500Y-143921153D01*
X166870500Y-143921153D01*
X166870500Y-83050186D01*
X167144500Y-83050186D01*
X167144500Y-83319813D01*
X167174686Y-83587719D01*
X167174688Y-83587731D01*
X167234684Y-83850594D01*
X167234687Y-83850602D01*
X167323734Y-84105082D01*
X167440714Y-84347994D01*
X167440716Y-84347997D01*
X167584162Y-84576289D01*
X167752266Y-84787085D01*
X167942915Y-84977734D01*
X168153711Y-85145838D01*
X168382003Y-85289284D01*
X168624921Y-85406267D01*
X168816049Y-85473145D01*
X168879397Y-85495312D01*
X168879405Y-85495315D01*
X168879408Y-85495315D01*
X168879409Y-85495316D01*
X169142268Y-85555312D01*
X169410187Y-85585499D01*
X169410188Y-85585500D01*
X169410191Y-85585500D01*
X169679812Y-85585500D01*
X169679812Y-85585499D01*
X169947732Y-85555312D01*
X170210591Y-85495316D01*
X170465079Y-85406267D01*
X170707997Y-85289284D01*
X170936289Y-85145838D01*
X171147085Y-84977734D01*
X171337734Y-84787085D01*
X171505838Y-84576289D01*
X171649284Y-84347997D01*
X171766267Y-84105079D01*
X171855316Y-83850591D01*
X171915312Y-83587732D01*
X171945500Y-83319809D01*
X171945500Y-83050191D01*
X171945499Y-83050186D01*
X243249500Y-83050186D01*
X243249500Y-83319813D01*
X243279686Y-83587719D01*
X243279688Y-83587731D01*
X243339684Y-83850594D01*
X243339687Y-83850602D01*
X243428734Y-84105082D01*
X243545714Y-84347994D01*
X243545716Y-84347997D01*
X243689162Y-84576289D01*
X243857266Y-84787085D01*
X244047915Y-84977734D01*
X244258711Y-85145838D01*
X244487003Y-85289284D01*
X244729921Y-85406267D01*
X244921049Y-85473145D01*
X244984397Y-85495312D01*
X244984405Y-85495315D01*
X244984408Y-85495315D01*
X244984409Y-85495316D01*
X245247268Y-85555312D01*
X245515187Y-85585499D01*
X245515188Y-85585500D01*
X245515191Y-85585500D01*
X245784812Y-85585500D01*
X245784812Y-85585499D01*
X246052732Y-85555312D01*
X246315591Y-85495316D01*
X246570079Y-85406267D01*
X246812997Y-85289284D01*
X247041289Y-85145838D01*
X247252085Y-84977734D01*
X247442734Y-84787085D01*
X247610838Y-84576289D01*
X247754284Y-84347997D01*
X247871267Y-84105079D01*
X247960316Y-83850591D01*
X248020312Y-83587732D01*
X248050500Y-83319809D01*
X248050500Y-83050191D01*
X248020312Y-82782268D01*
X247960316Y-82519409D01*
X247871267Y-82264921D01*
X247754284Y-82022003D01*
X247610838Y-81793711D01*
X247442734Y-81582915D01*
X247252085Y-81392266D01*
X247041289Y-81224162D01*
X246812997Y-81080716D01*
X246812994Y-81080714D01*
X246570082Y-80963734D01*
X246315602Y-80874687D01*
X246315594Y-80874684D01*
X246118446Y-80829687D01*
X246052732Y-80814688D01*
X246052728Y-80814687D01*
X246052719Y-80814686D01*
X245784813Y-80784500D01*
X245784809Y-80784500D01*
X245515191Y-80784500D01*
X245515186Y-80784500D01*
X245247280Y-80814686D01*
X245247268Y-80814688D01*
X244984405Y-80874684D01*
X244984397Y-80874687D01*
X244729917Y-80963734D01*
X244487005Y-81080714D01*
X244258712Y-81224161D01*
X244047915Y-81392265D01*
X243857265Y-81582915D01*
X243689161Y-81793712D01*
X243545714Y-82022005D01*
X243428734Y-82264917D01*
X243339687Y-82519397D01*
X243339684Y-82519405D01*
X243279688Y-82782268D01*
X243279686Y-82782280D01*
X243249500Y-83050186D01*
X171945499Y-83050186D01*
X171915312Y-82782268D01*
X171855316Y-82519409D01*
X171766267Y-82264921D01*
X171649284Y-82022003D01*
X171505838Y-81793711D01*
X171337734Y-81582915D01*
X171147085Y-81392266D01*
X170936289Y-81224162D01*
X170707997Y-81080716D01*
X170707994Y-81080714D01*
X170465082Y-80963734D01*
X170210602Y-80874687D01*
X170210594Y-80874684D01*
X170013446Y-80829687D01*
X169947732Y-80814688D01*
X169947728Y-80814687D01*
X169947719Y-80814686D01*
X169679813Y-80784500D01*
X169679809Y-80784500D01*
X169410191Y-80784500D01*
X169410186Y-80784500D01*
X169142280Y-80814686D01*
X169142268Y-80814688D01*
X168879405Y-80874684D01*
X168879397Y-80874687D01*
X168624917Y-80963734D01*
X168382005Y-81080714D01*
X168153712Y-81224161D01*
X167942915Y-81392265D01*
X167752265Y-81582915D01*
X167584161Y-81793712D01*
X167440714Y-82022005D01*
X167323734Y-82264917D01*
X167234687Y-82519397D01*
X167234684Y-82519405D01*
X167174688Y-82782268D01*
X167174686Y-82782280D01*
X167144500Y-83050186D01*
X166870500Y-83050186D01*
X166870500Y-80524500D01*
X166890185Y-80457461D01*
X166942989Y-80411706D01*
X166994500Y-80400500D01*
X248475500Y-80400500D01*
X248542539Y-80420185D01*
G37*
%TD.AperFunction*%
%TD*%
M02*
