%TF.GenerationSoftware,KiCad,Pcbnew,9.0.7*%
%TF.CreationDate,2026-02-24T10:55:17+00:00*%
%TF.ProjectId,mobile_receiver,6d6f6269-6c65-45f7-9265-636569766572,rev?*%
%TF.SameCoordinates,Original*%
%TF.FileFunction,Soldermask,Bot*%
%TF.FilePolarity,Negative*%
%FSLAX46Y46*%
G04 Gerber Fmt 4.6, Leading zero omitted, Abs format (unit mm)*
G04 Created by KiCad (PCBNEW 9.0.7) date 2026-02-24 10:55:17*
%MOMM*%
%LPD*%
G01*
G04 APERTURE LIST*
G04 Aperture macros list*
%AMRoundRect*
0 Rectangle with rounded corners*
0 $1 Rounding radius*
0 $2 $3 $4 $5 $6 $7 $8 $9 X,Y pos of 4 corners*
0 Add a 4 corners polygon primitive as box body*
4,1,4,$2,$3,$4,$5,$6,$7,$8,$9,$2,$3,0*
0 Add four circle primitives for the rounded corners*
1,1,$1+$1,$2,$3*
1,1,$1+$1,$4,$5*
1,1,$1+$1,$6,$7*
1,1,$1+$1,$8,$9*
0 Add four rect primitives between the rounded corners*
20,1,$1+$1,$2,$3,$4,$5,0*
20,1,$1+$1,$4,$5,$6,$7,0*
20,1,$1+$1,$6,$7,$8,$9,0*
20,1,$1+$1,$8,$9,$2,$3,0*%
G04 Aperture macros list end*
%ADD10C,1.320800*%
%ADD11C,2.006600*%
%ADD12C,2.032000*%
%ADD13RoundRect,0.250000X0.337500X0.475000X-0.337500X0.475000X-0.337500X-0.475000X0.337500X-0.475000X0*%
%ADD14RoundRect,0.250000X-0.337500X-0.475000X0.337500X-0.475000X0.337500X0.475000X-0.337500X0.475000X0*%
%ADD15RoundRect,0.250000X-0.350000X-0.450000X0.350000X-0.450000X0.350000X0.450000X-0.350000X0.450000X0*%
%ADD16RoundRect,0.250000X0.300000X0.300000X-0.300000X0.300000X-0.300000X-0.300000X0.300000X-0.300000X0*%
%ADD17R,1.700000X1.700000*%
%ADD18C,1.700000*%
%ADD19RoundRect,0.250000X1.100000X-0.325000X1.100000X0.325000X-1.100000X0.325000X-1.100000X-0.325000X0*%
%ADD20RoundRect,0.250000X0.350000X0.450000X-0.350000X0.450000X-0.350000X-0.450000X0.350000X-0.450000X0*%
%ADD21R,1.752600X1.752600*%
%ADD22C,1.752600*%
%ADD23RoundRect,0.250000X0.325000X1.100000X-0.325000X1.100000X-0.325000X-1.100000X0.325000X-1.100000X0*%
%ADD24RoundRect,0.175000X0.325000X-0.175000X0.325000X0.175000X-0.325000X0.175000X-0.325000X-0.175000X0*%
%ADD25RoundRect,0.150000X0.150000X-0.200000X0.150000X0.200000X-0.150000X0.200000X-0.150000X-0.200000X0*%
%ADD26C,4.500000*%
%ADD27C,1.800000*%
G04 APERTURE END LIST*
D10*
%TO.C,SW1*%
X246000000Y-187400001D03*
X246000000Y-185400001D03*
X246000000Y-183400000D03*
D11*
X246000000Y-189500000D03*
X246000000Y-181300002D03*
%TD*%
D12*
%TO.C,U3*%
X220504427Y-132778620D03*
X217964427Y-132778620D03*
X215424427Y-132778620D03*
X212884427Y-132778620D03*
X210344427Y-132778620D03*
X207804427Y-132778620D03*
X205264427Y-132778620D03*
X202724427Y-132778620D03*
X200184427Y-132778620D03*
X197644427Y-132778620D03*
X195104427Y-132778620D03*
%TD*%
D13*
%TO.C,C1*%
X224732006Y-218790535D03*
X222657006Y-218790535D03*
%TD*%
D14*
%TO.C,C5*%
X214255235Y-218460000D03*
X216330235Y-218460000D03*
%TD*%
D15*
%TO.C,R4*%
X199500000Y-197000000D03*
X201500000Y-197000000D03*
%TD*%
D16*
%TO.C,D1*%
X200181484Y-213757558D03*
X197381484Y-213757558D03*
%TD*%
D17*
%TO.C,J1*%
X196630805Y-193037019D03*
D18*
X196630805Y-190497019D03*
X199170805Y-193037019D03*
X199170805Y-190497019D03*
X201710805Y-193037019D03*
X201710805Y-190497019D03*
X204250805Y-193037019D03*
X204250805Y-190497019D03*
X206790805Y-193037019D03*
X206790805Y-190497019D03*
X209330805Y-193037019D03*
X209330805Y-190497019D03*
X211870805Y-193037019D03*
X211870805Y-190497019D03*
%TD*%
D19*
%TO.C,C3*%
X192500000Y-195975000D03*
X192500000Y-193025000D03*
%TD*%
D20*
%TO.C,R1*%
X236000000Y-218500000D03*
X234000000Y-218500000D03*
%TD*%
D21*
%TO.C,U2*%
X211800000Y-200760000D03*
D22*
X214340000Y-200760000D03*
X216880000Y-200760000D03*
X219420000Y-200760000D03*
X221960000Y-200760000D03*
X224500000Y-200760000D03*
X227040000Y-200760000D03*
X229580000Y-200760000D03*
X232120000Y-200760000D03*
X234660000Y-200760000D03*
X237200000Y-200760000D03*
X239740000Y-200760000D03*
X242280000Y-200760000D03*
X211800000Y-216000000D03*
X214340000Y-216000000D03*
X216880000Y-216000000D03*
X219420000Y-216000000D03*
X221960000Y-216000000D03*
X224500000Y-216000000D03*
X227040000Y-216000000D03*
X229580000Y-216000000D03*
X232120000Y-216000000D03*
X234660000Y-216000000D03*
X237200000Y-216000000D03*
X239740000Y-216000000D03*
X242280000Y-216000000D03*
%TD*%
D23*
%TO.C,C6*%
X212417559Y-219105205D03*
X209467559Y-219105205D03*
%TD*%
D20*
%TO.C,R2*%
X230000000Y-218500000D03*
X228000000Y-218500000D03*
%TD*%
D24*
%TO.C,D3*%
X203102816Y-209189180D03*
D25*
X201402816Y-209189180D03*
X201402816Y-207189180D03*
X203302816Y-207189180D03*
%TD*%
D16*
%TO.C,D2*%
X200676484Y-201337558D03*
X197876484Y-201337558D03*
%TD*%
D26*
%TO.C,U1*%
X176669921Y-219268364D03*
X190549921Y-219268364D03*
X176759921Y-201488364D03*
X190549921Y-201488364D03*
D27*
X190549921Y-215458364D03*
X190549921Y-212858364D03*
X190549921Y-210318364D03*
X190549921Y-207778364D03*
X190549921Y-205238364D03*
%TD*%
D15*
%TO.C,R3*%
X208500000Y-196000000D03*
X210500000Y-196000000D03*
%TD*%
M02*
